<?xml version="1.0" standalone="no"?>
<!DOCTYPE svg PUBLIC "-//W3C//DTD SVG 1.1//EN" "http://www.w3.org/Graphics/SVG/1.1/DTD/svg11.dtd" >
<svg xmlns="http://www.w3.org/2000/svg" xmlns:xlink="http://www.w3.org/1999/xlink" version="1.1">
<metadata>
Created by FontForge 20170731 at Thu Feb  3 13:38:58 2022
 By Aleksey,,,
Copyright (c) 2020 by MadeType. All rights reserved.
</metadata>
<defs>
<font id="MADETOMMY-Medium" horiz-adv-x="1187" >
  <font-face 
    font-family="MADE TOMMY"
    font-weight="500"
    font-stretch="normal"
    units-per-em="2048"
    panose-1="2 0 6 3 0 0 0 2 0 4"
    ascent="1638"
    descent="-410"
    x-height="1038"
    cap-height="1434"
    bbox="-104 -518 2542 1987"
    underline-thickness="102"
    underline-position="-307"
    unicode-range="U+0020-F6C3"
  />
<missing-glyph horiz-adv-x="532" 
 />
    <glyph glyph-name=".notdef" horiz-adv-x="532" 
 />
    <glyph glyph-name=".null" horiz-adv-x="0" 
 />
    <glyph glyph-name="nonmarkingreturn" horiz-adv-x="682" 
 />
    <glyph glyph-name="space" unicode=" " horiz-adv-x="532" 
 />
    <glyph glyph-name="exclam" unicode="!" horiz-adv-x="569" 
d="M285 276q63 0 107 -44t44 -107t-44 -107.5t-107 -44.5t-107.5 44.5t-44.5 107.5t44.5 107t107.5 44zM395 463h-219l-29 971h277z" />
    <glyph glyph-name="quotedbl" unicode="&#x22;" horiz-adv-x="841" 
d="M133 958v476h219v-476h-219zM489 1434h220v-476h-220v476z" />
    <glyph glyph-name="numbersign" unicode="#" horiz-adv-x="1329" 
d="M1208 829h-190l-39 -225h195l-29 -182h-195l-55 -332h-205l55 332h-258l-55 -332h-203l54 332h-191l29 182h192l37 225h-194l28 183h197l53 329h205l-55 -329h258l55 329h205l-55 -329h190zM776 604l37 225h-258l-37 -225h258z" />
    <glyph glyph-name="dollar" unicode="$" horiz-adv-x="1214" 
d="M1163 416q0 -80 -27 -152.5t-80.5 -133.5t-143.5 -101.5t-207 -51.5v-204h-164v204q-183 18 -314.5 105t-175.5 240l268 84q18 -74 94.5 -131.5t213.5 -57.5q114 0 186 45t72 133q0 30 -8.5 53.5t-30.5 41.5t-42 30t-61.5 24t-70 19t-85.5 20t-91 21q-208 52 -296.5 155
t-88.5 261q0 184 117 299.5t313 134.5v205h164v-207q150 -19 256 -105t145 -227l-270 -65q-14 64 -74 111.5t-160 47.5q-93 0 -155 -46.5t-62 -129.5q0 -26 6 -48.5t19 -40.5t26.5 -32t37 -25.5t40 -19t46.5 -16t46 -12.5t48.5 -11t45.5 -10q258 -59 360.5 -147.5
t102.5 -259.5z" />
    <glyph glyph-name="percent" unicode="%" horiz-adv-x="1794" 
d="M1270 1434h200l-946 -1434h-200zM788 1081q0 -145 -101.5 -246.5t-246.5 -101.5t-246.5 101.5t-101.5 246.5q0 143 102 246t246 103t246 -103t102 -246zM274 1081q0 -69 48.5 -117.5t117.5 -48.5q68 0 117 48.5t49 117.5q0 67 -49 116.5t-117 49.5q-69 0 -117.5 -49
t-48.5 -117zM1354 700q145 0 246.5 -101.5t101.5 -246.5t-101.5 -246.5t-246.5 -101.5q-143 0 -245.5 102t-102.5 246t102.5 246t245.5 102zM1354 186q69 0 117.5 48.5t48.5 117.5t-48.5 117.5t-117.5 48.5q-68 0 -117 -48.5t-49 -117.5t49 -117.5t117 -48.5z" />
    <glyph glyph-name="ampersand" unicode="&#x26;" horiz-adv-x="1529" 
d="M1196 281q163 -145 324 -281h-336q-36 32 -137 119q-187 -146 -441 -146q-121 0 -223 34t-169 92.5t-104.5 136.5t-37.5 165q0 251 293 394q-2 3 -20.5 35t-23 40.5t-19.5 37.5t-20 45t-13.5 42.5t-11.5 50.5t-3 50q0 164 116.5 263t299.5 99q160 0 270.5 -95.5
t110.5 -238.5q0 -66 -20 -121t-50 -93t-79.5 -71t-94.5 -54t-109 -44q81 -81 95 -94l28 -26q69 -67 209 -193q67 117 82 236l217 -29q-29 -197 -133 -354zM653 1276q-84 0 -130 -54t-46 -126q0 -41 16 -84.5t30 -66t44 -64.5q139 56 193.5 107.5t54.5 135.5
q0 65 -44.5 108.5t-117.5 43.5zM594 174q191 0 285 94q-35 32 -104.5 96.5t-104.5 96.5l-27 26q-137 132 -164 160q-78 -32 -124 -95t-46 -151q0 -102 86 -164.5t199 -62.5z" />
    <glyph glyph-name="quotesingle" unicode="'" horiz-adv-x="483" 
d="M133 1434h217v-476h-217v476z" />
    <glyph glyph-name="parenleft" unicode="(" horiz-adv-x="698" 
d="M586 1499q-82 -130 -140.5 -335.5t-58.5 -446.5q0 -242 59 -449t140 -334l-178 -135q-69 98 -127.5 226.5t-103 316t-44.5 375.5t44.5 375t103 315t127.5 225z" />
    <glyph glyph-name="parenright" unicode=")" horiz-adv-x="700" 
d="M291 1632q111 -156 193.5 -398.5t82.5 -516.5t-82.5 -517t-193.5 -401l-178 135q81 127 139.5 334t58.5 449q0 241 -58.5 446.5t-139.5 335.5z" />
    <glyph glyph-name="asterisk" unicode="*" horiz-adv-x="942" 
d="M850 1085l-260 -57l176 -201l-160 -114l-135 229l-135 -229l-160 114l176 201l-260 57l62 189l243 -107l-24 267h196l-24 -267l246 107z" />
    <glyph glyph-name="plus" unicode="+" horiz-adv-x="1069" 
d="M936 719v-219h-293v-291h-219v291h-291v219h291v293h219v-293h293z" />
    <glyph glyph-name="comma" unicode="," horiz-adv-x="530" 
d="M223 270l215 -125l-243 -372l-164 94z" />
    <glyph glyph-name="hyphen" unicode="-" horiz-adv-x="921" 
d="M133 719h655v-219h-655v219z" />
    <glyph glyph-name="period" unicode="." horiz-adv-x="485" 
d="M244 276q62 0 105.5 -44t43.5 -107t-43.5 -107.5t-105.5 -44.5q-63 0 -107.5 44.5t-44.5 107.5t44.5 107t107.5 44z" />
    <glyph glyph-name="slash" unicode="/" horiz-adv-x="1013" 
d="M684 1630h238l-592 -1829h-238z" />
    <glyph glyph-name="zero" unicode="0" horiz-adv-x="1316" 
d="M657 1458q123 0 222 -41t164.5 -110.5t109.5 -165.5t63 -201.5t19 -222.5q0 -118 -19 -224t-63 -202t-109.5 -166t-164.5 -111t-222 -41q-122 0 -220.5 41t-163.5 111t-109 166t-63 202t-19 224q0 117 19 222.5t63 201.5t109 165.5t163.5 110.5t220.5 41zM657 238
q68 0 121 28t86 73.5t55 108.5t30.5 129t8.5 140q0 73 -8.5 138.5t-30.5 129t-55 108.5t-86.5 73t-120.5 28q-83 0 -143.5 -41t-93 -112t-47.5 -151t-15 -173q0 -94 15 -174.5t47.5 -151.5t93 -112t143.5 -41z" />
    <glyph glyph-name="one" unicode="1" horiz-adv-x="915" 
d="M494 1434h206v-1434h-278v1110l-252 -170l-119 195z" />
    <glyph glyph-name="two" unicode="2" horiz-adv-x="1136" 
d="M496 258h528v-258h-913v203q139 155 346 391q134 156 175 212q93 129 93 214q0 80 -46.5 133t-129.5 53q-87 0 -135 -51t-62 -125l-260 60q38 176 166 272t313 96q128 0 228.5 -60.5t152.5 -157.5t52 -210q0 -94 -64.5 -211t-142 -211.5t-274.5 -318.5q-18 -20 -27 -31z
" />
    <glyph glyph-name="three" unicode="3" horiz-adv-x="1165" 
d="M840 741q243 -83 243 -335q0 -90 -34.5 -169t-97.5 -137.5t-160 -92.5t-216 -34q-198 0 -342 92.5t-172 237.5l267 62q12 -56 73.5 -98t173.5 -42q113 0 169.5 59.5t56.5 149.5q0 182 -252 182h-121v236h121q44 0 83 8.5t74 27.5t55.5 55.5t20.5 86.5q0 87 -53.5 133.5
t-148.5 46.5q-85 0 -136 -39t-71 -98l-254 60q43 146 168.5 235.5t292.5 89.5q216 0 342.5 -110.5t126.5 -282.5q0 -111 -52.5 -194.5t-156.5 -129.5z" />
    <glyph glyph-name="four" unicode="4" horiz-adv-x="1302" 
d="M1210 522v-237h-170v-285h-278v285h-670v219l582 930h366v-912h170zM375 522h387v621z" />
    <glyph glyph-name="five" unicode="5" horiz-adv-x="1167" 
d="M629 926q204 0 330 -126t126 -325q0 -101 -34 -191t-97 -159.5t-161.5 -110.5t-217.5 -41q-182 0 -324.5 95.5t-168.5 234.5l268 62q14 -56 70 -98t155 -42q118 0 178 71.5t60 174.5q0 102 -64 164.5t-171 62.5q-73 0 -137 -31t-97 -69l-213 61l90 775h774v-258h-563
l-37 -316q115 66 234 66z" />
    <glyph glyph-name="six" unicode="6" horiz-adv-x="1208" 
d="M604 965q147 0 265 -57t187.5 -169t69.5 -262q0 -141 -66 -255.5t-185.5 -181.5t-270.5 -67t-270.5 67t-185.5 181.5t-66 255.5q0 54 11.5 109t24 91.5t39 85t37.5 65t38 56.5q7 10 10 15l362 535h303l-340 -471q10 2 37 2zM604 229q101 0 174.5 67.5t73.5 180.5
q0 107 -69.5 178.5t-178.5 71.5q-106 0 -178 -68.5t-72 -181.5t74.5 -180.5t175.5 -67.5z" />
    <glyph glyph-name="seven" unicode="7" horiz-adv-x="1079" 
d="M92 1434h895v-230l-508 -1204h-278l493 1176h-602v258z" />
    <glyph glyph-name="eight" unicode="8" horiz-adv-x="1236" 
d="M930 768q105 -54 165 -142t60 -202q0 -133 -69.5 -236t-191.5 -159t-276 -56q-234 0 -385 125t-151 326q0 114 59.5 202t165.5 142q-84 52 -128 129.5t-44 167.5q0 165 130.5 279t352.5 114t352 -114t130 -279q0 -91 -43.5 -168t-126.5 -129zM618 1223q-86 0 -149 -50
t-63 -139q0 -87 60 -134.5t152 -47.5q91 0 152 47.5t61 134.5q0 89 -63.5 139t-149.5 50zM618 229q121 0 184.5 61t63.5 148q0 94 -68 153.5t-180 59.5q-114 0 -181.5 -59.5t-67.5 -153.5q0 -87 63 -148t186 -61z" />
    <glyph glyph-name="nine" unicode="9" horiz-adv-x="1208" 
d="M604 469q-148 0 -265 56.5t-187 167.5t-70 261q0 216 147 360t375 144t375 -144t147 -360q0 -70 -15 -134.5t-47.5 -126.5t-46.5 -85.5t-50 -75.5l-363 -532h-303l340 469h-37zM604 1204q-101 0 -174.5 -68.5t-73.5 -181.5q0 -106 69.5 -176.5t178.5 -70.5q106 0 178 68
t72 179q0 113 -74.5 181.5t-175.5 68.5z" />
    <glyph glyph-name="colon" unicode=":" horiz-adv-x="528" 
d="M264 276q62 0 107 -44t45 -107t-45 -107.5t-107 -44.5q-63 0 -107 44.5t-44 107.5t44 107t107 44zM264 760q-63 0 -107 44t-44 107t44 107.5t107 44.5q62 0 107 -44.5t45 -107.5t-45 -107t-107 -44z" />
    <glyph glyph-name="semicolon" unicode=";" horiz-adv-x="593" 
d="M332 760q-63 0 -107.5 44t-44.5 107t44.5 107.5t107.5 44.5q62 0 105.5 -44.5t43.5 -107.5t-43.5 -107t-105.5 -44zM51 -133l191 403l215 -125l-244 -372z" />
    <glyph glyph-name="less" unicode="&#x3c;" horiz-adv-x="1032" 
d="M899 1016v-219l-577 -234l577 -233v-219l-766 323v258z" />
    <glyph glyph-name="equal" unicode="=" horiz-adv-x="1032" 
d="M133 920h766v-220h-766v220zM133 299v219h766v-219h-766z" />
    <glyph glyph-name="greater" unicode="&#x3e;" horiz-adv-x="1032" 
d="M133 1016l766 -324v-258l-766 -323v219l578 233l-578 234v219z" />
    <glyph glyph-name="question" unicode="?" horiz-adv-x="999" 
d="M500 276q63 0 107 -44t44 -107t-44 -107.5t-107 -44.5t-107.5 44.5t-44.5 107.5t44.5 107t107.5 44zM483 1223q-81 0 -126.5 -46.5t-59.5 -113.5l-236 59q26 114 95.5 192t156.5 111t189 33q120 0 221 -53t158 -140t57 -186q0 -65 -17 -119.5t-44.5 -94t-61 -75.5
t-66.5 -70t-60.5 -69.5t-44.5 -83.5t-17 -104h-248q0 64 16.5 120.5t42.5 98t57.5 78.5t63.5 70t58 65t42.5 69.5t16.5 77.5q0 80 -50 130.5t-143 50.5z" />
    <glyph glyph-name="at" unicode="@" horiz-adv-x="1896" 
d="M958 1493q194 0 353.5 -61.5t261 -164.5t156.5 -234t55 -275q0 -117 -31 -211.5t-81.5 -152t-111.5 -88t-126 -30.5q-180 0 -244 150q-98 -139 -289 -139q-169 0 -275 117t-106 284q0 104 46 195.5t132 149t193 57.5q176 0 272 -136v115h170v-442q0 -43 3.5 -72.5
t14.5 -58.5t34.5 -43.5t60.5 -14.5q80 0 127 95.5t47 224.5q0 124 -46.5 232t-130.5 187.5t-209 125t-276 45.5q-201 0 -355 -80.5t-240.5 -232t-86.5 -351.5q0 -152 55.5 -278.5t148 -207.5t209 -125t241.5 -44q135 0 236 39.5t149 83.5l100 -119q-76 -64 -197.5 -108
t-287.5 -44q-177 0 -329.5 60t-259.5 166t-167.5 255t-60.5 322q0 177 61 327t170 256t267.5 166t346.5 60zM940 473q105 0 160 63.5t55 151.5q0 91 -60 152t-155 61q-94 0 -154.5 -59.5t-60.5 -153.5q0 -92 58.5 -153.5t156.5 -61.5z" />
    <glyph glyph-name="A" unicode="A" horiz-adv-x="1433" 
d="M1108 0l-96 285h-590l-96 -285h-295l516 1434h340l516 -1434h-295zM506 532h422l-211 621z" />
    <glyph glyph-name="B" unicode="B" horiz-adv-x="1253" 
d="M967 754q105 -47 160 -134t55 -206q0 -193 -132 -303.5t-378 -110.5h-539v1434h485q241 0 373.5 -104.5t132.5 -280.5q0 -197 -157 -291v-4zM618 1194h-206v-356h206q104 0 166 43.5t62 138.5q0 92 -63.5 133t-164.5 41zM672 240q103 0 165 49.5t62 142.5q0 94 -63 139
t-164 45h-260v-376h260z" />
    <glyph glyph-name="C" unicode="C" horiz-adv-x="1421" 
d="M811 238q214 0 340 153l229 -151q-99 -126 -246 -196.5t-323 -70.5q-208 0 -375.5 98t-260.5 268t-93 378q0 156 54.5 293t150.5 235.5t232 155.5t292 57q177 0 324 -70t245 -196l-229 -152q-127 154 -340 154q-107 0 -195 -41t-142.5 -108.5t-84 -152t-29.5 -175.5
q0 -92 29.5 -176.5t84 -152.5t142.5 -109t195 -41z" />
    <glyph glyph-name="D" unicode="D" horiz-adv-x="1423" 
d="M580 1434q234 0 407.5 -91.5t263.5 -253t90 -372.5t-90 -372.5t-263.5 -253t-407.5 -91.5h-447v1434h447zM580 258q100 0 185.5 27.5t153 82t106 144t38.5 205.5t-38.5 205.5t-106 144t-153 82t-185.5 27.5h-168v-918h168z" />
    <glyph glyph-name="E" unicode="E" horiz-adv-x="1071" 
d="M410 258h569v-258h-846v1434h828v-258h-551v-324h503v-258h-503v-336z" />
    <glyph glyph-name="F" unicode="F" horiz-adv-x="1064" 
d="M973 1176h-561v-355h501v-258h-501v-563h-279v1434h840v-258z" />
    <glyph glyph-name="G" unicode="G" horiz-adv-x="1581" 
d="M829 811h639v-811h-149l-37 205q-160 -232 -471 -232q-209 0 -376.5 98t-260 268t-92.5 378t92.5 377t260 266.5t376.5 97.5q176 0 322.5 -69.5t244.5 -194.5l-229 -154q-127 154 -338 154q-107 0 -195 -41t-142.5 -108.5t-84 -152t-29.5 -175.5q0 -92 29.5 -176.5
t84 -152t142 -108t195.5 -40.5q178 0 285.5 90.5t140.5 238.5h-408v242z" />
    <glyph glyph-name="H" unicode="H" horiz-adv-x="1417" 
d="M1006 1434h278v-1434h-278v594h-594v-594h-279v1434h279v-582h594v582z" />
    <glyph glyph-name="I" unicode="I" horiz-adv-x="542" 
d="M133 1434h277v-1434h-277v1434z" />
    <glyph glyph-name="J" unicode="J" horiz-adv-x="1189" 
d="M778 1434h279v-936q0 -118 -28 -211.5t-87 -165t-158 -110t-233 -38.5q-221 0 -358.5 118t-151.5 298l281 51q3 -33 15.5 -65t37 -64.5t70.5 -52.5t106 -20q125 0 176 70t51 190v936z" />
    <glyph glyph-name="K" unicode="K" horiz-adv-x="1304" 
d="M1274 0h-336l-528 666v-666h-277v1434h277v-684l493 684h318l-535 -707z" />
    <glyph glyph-name="L" unicode="L" horiz-adv-x="1034" 
d="M410 258h553v-258h-830v1434h277v-1176z" />
    <glyph glyph-name="M" unicode="M" horiz-adv-x="1771" 
d="M1341 1434h297v-1434h-278v950l-428 -694h-92l-430 694v-950h-277v1434h295l457 -738z" />
    <glyph glyph-name="N" unicode="N" horiz-adv-x="1431" 
d="M1020 1434h278v-1434h-251l-635 948v-948h-279v1434h252l635 -949v949z" />
    <glyph glyph-name="O" unicode="O" horiz-adv-x="1622" 
d="M811 1458q156 0 292 -57t232 -155.5t150.5 -235.5t54.5 -293q0 -208 -93 -378t-260.5 -268t-375.5 -98t-375.5 98t-260.5 268t-93 378q0 156 54.5 293t150.5 235.5t232 155.5t292 57zM811 238q107 0 195 41t142.5 109t84 152.5t29.5 176.5q0 91 -29.5 175.5t-84 152
t-142.5 108.5t-195 41t-195 -41t-142.5 -108.5t-84 -152t-29.5 -175.5q0 -92 29.5 -176.5t84 -152.5t142.5 -109t195 -41z" />
    <glyph glyph-name="P" unicode="P" horiz-adv-x="1234" 
d="M612 1434q254 0 402.5 -135.5t148.5 -360.5q0 -224 -148 -359t-403 -135h-200v-444h-279v1434h479zM612 702q128 0 198.5 62t70.5 174q0 114 -70.5 176t-198.5 62h-200v-474h200z" />
    <glyph glyph-name="Q" unicode="Q" horiz-adv-x="1619" 
d="M1538 717q0 -283 -164 -486l137 -137l-168 -166l-147 150q-177 -105 -385 -105t-375.5 98t-260.5 268t-93 378q0 156 54.5 293t150.5 235.5t232 155.5t292 57q208 0 375 -97.5t259.5 -266.5t92.5 -377zM811 238q105 0 186 38l-194 197l168 166l207 -209q84 125 84 287
q0 91 -29.5 175.5t-84.5 152t-142.5 108.5t-194.5 41t-195 -41t-142.5 -108.5t-84 -152t-29.5 -175.5q0 -92 29.5 -176.5t84 -152.5t142.5 -109t195 -41z" />
    <glyph glyph-name="R" unicode="R" horiz-adv-x="1294" 
d="M1264 0h-318l-295 516h-22h-219v-516h-277v1434h496q239 0 386.5 -131.5t147.5 -337.5q0 -133 -66.5 -235t-185.5 -157zM410 1176v-420h219q113 0 181.5 53t68.5 156q0 97 -67 154t-183 57h-219z" />
    <glyph glyph-name="S" unicode="S" horiz-adv-x="1214" 
d="M700 823q258 -59 360.5 -147.5t102.5 -259.5q0 -86 -31.5 -163.5t-94 -141t-168 -101t-240.5 -37.5q-138 0 -253.5 36.5t-203 117t-121.5 195.5l268 84q18 -74 94.5 -131.5t213.5 -57.5q114 0 186 45t72 133q0 30 -8.5 53.5t-30.5 41.5t-41.5 30t-61 24t-69.5 19t-86 20
t-92 21q-208 52 -296.5 155t-88.5 261q0 201 139.5 319.5t365.5 118.5q183 0 314 -88t176 -250l-270 -65q-14 64 -74 111.5t-160 47.5q-93 0 -155 -46.5t-62 -129.5q0 -26 6 -48.5t19 -40.5t26.5 -32t37 -25.5t40 -19t46.5 -16t46 -12.5t48.5 -11t45.5 -10z" />
    <glyph glyph-name="T" unicode="T" horiz-adv-x="1110" 
d="M1038 1434v-258h-344v-1176h-278v1176h-344v258h966z" />
    <glyph glyph-name="U" unicode="U" horiz-adv-x="1427" 
d="M1016 1434h278v-906q0 -257 -151 -406t-428 -149q-278 0 -430 149t-152 406v906h279v-869q0 -87 24.5 -152t68 -102t96 -55t114.5 -18q61 0 113 18t95.5 55t68 102t24.5 152v869z" />
    <glyph glyph-name="V" unicode="V" horiz-adv-x="1433" 
d="M1108 1434h295l-516 -1434h-342l-514 1434h293l393 -1153z" />
    <glyph glyph-name="W" unicode="W" horiz-adv-x="2039" 
d="M1714 1434h295l-461 -1434h-250l-278 942l-279 -942h-249l-461 1434h295l299 -983l288 983h213l289 -985z" />
    <glyph glyph-name="X" unicode="X" horiz-adv-x="1335" 
d="M1305 0h-324l-315 494l-314 -494h-321l465 729l-430 705h323l279 -476l278 476h322l-430 -703z" />
    <glyph glyph-name="Y" unicode="Y" horiz-adv-x="1409" 
d="M1378 1434l-534 -897v-537h-279v537l-534 897h305l369 -650l370 650h303z" />
    <glyph glyph-name="Z" unicode="Z" horiz-adv-x="1191" 
d="M430 258h690v-258h-1048v221l690 955h-653v258h993v-222z" />
    <glyph glyph-name="bracketleft" unicode="[" horiz-adv-x="729" 
d="M616 1401h-227v-1368h227v-232h-483v1829h483v-229z" />
    <glyph glyph-name="backslash" unicode="\" horiz-adv-x="1013" 
d="M330 1630l592 -1829h-238l-592 1829h238z" />
    <glyph glyph-name="bracketright" unicode="]" horiz-adv-x="729" 
d="M113 1630h483v-1829h-483v232h227v1368h-227v229z" />
    <glyph glyph-name="asciicircum" unicode="^" horiz-adv-x="1060" 
d="M969 821h-234l-205 398l-202 -398h-236l330 613h219z" />
    <glyph glyph-name="underscore" unicode="_" horiz-adv-x="849" 
d="M51 -164h748v-182h-748v182z" />
    <glyph glyph-name="grave" unicode="`" horiz-adv-x="675" 
d="M408 1489l135 -287h-211l-199 287h275z" />
    <glyph glyph-name="a" unicode="a" horiz-adv-x="1116" 
d="M555 1063q438 0 438 -436v-627h-260v111q-38 -61 -119.5 -99.5t-183.5 -38.5q-49 0 -98.5 10.5t-98.5 34t-87 58t-61.5 87t-23.5 116.5q0 55 15.5 101.5t39 79.5t61 59.5t72 43t83 28.5t82.5 17.5t81.5 8.5t69.5 3.5t56 0.5h112q-2 115 -49.5 165t-165.5 50
q-107 0 -217 -76l-178 135q186 168 432 168zM733 281v176h-16q-184 0 -254 -16q-135 -31 -135 -138q0 -63 44 -102t136 -39q88 0 144.5 37.5t80.5 81.5z" />
    <glyph glyph-name="b" unicode="b" horiz-adv-x="1282" 
d="M715 1063q94 0 176 -30.5t141.5 -83t102.5 -122t64.5 -148.5t21.5 -161t-21.5 -161t-64.5 -148.5t-102.5 -122t-141.5 -83t-176 -30.5q-216 0 -332 148v-121h-260v1434h260v-519q114 148 332 148zM674 223q129 0 204.5 85t75.5 210t-75.5 210t-204.5 85t-205 -85
t-76 -210t76 -210t205 -85z" />
    <glyph glyph-name="c" unicode="c" horiz-adv-x="1107" 
d="M610 223q81 0 142 35.5t98 97.5l227 -129q-73 -118 -196 -186t-271 -68q-153 0 -279 72.5t-198 197.5t-72 275t72 275.5t198 197.5t279 72q148 0 271 -68t196 -184l-227 -131q-37 62 -98 97.5t-142 35.5q-127 0 -204.5 -85t-77.5 -210t77.5 -210t204.5 -85z" />
    <glyph glyph-name="d" unicode="d" horiz-adv-x="1282" 
d="M899 1434h260v-1434h-260v121q-120 -148 -332 -148q-94 0 -176 30.5t-141.5 83t-102.5 122t-64.5 148.5t-21.5 161t21.5 161t64.5 148.5t102.5 122t141.5 83t176 30.5q215 0 332 -148v519zM608 223q129 0 204 85t75 210t-75 210t-204 85t-204.5 -85t-75.5 -210t75.5 -210
t204.5 -85z" />
    <glyph glyph-name="e" unicode="e" horiz-adv-x="1175" 
d="M592 1063q118 0 219.5 -44t173.5 -124t106 -204t17 -273h-770q27 -102 106 -157.5t189 -55.5q80 0 140.5 32t90.5 70l209 -123q-67 -93 -183 -152t-257 -59q-127 0 -234 41t-181 113t-115.5 173t-41.5 218q0 119 42.5 222t115 173t169.5 110t204 40zM338 618h516
q-20 102 -87 157.5t-171 55.5q-96 0 -165.5 -57t-92.5 -156z" />
    <glyph glyph-name="f" unicode="f" horiz-adv-x="761" 
d="M655 1237q-96 0 -137 -49.5t-41 -149.5h223v-237h-223v-801h-260v801h-145v237h145q0 84 20 156.5t61.5 133.5t117 96.5t176.5 35.5q61 0 108 -8v-217q-7 0 -22 1t-23 1z" />
    <glyph glyph-name="g" unicode="g" horiz-adv-x="1275" 
d="M893 1038h260v-925q0 -110 -36.5 -205t-106 -167t-177.5 -113.5t-243 -41.5q-157 0 -291.5 58.5t-200.5 150.5l211 125q32 -42 104 -72t169 -30q151 0 231 80.5t80 232.5v76q-112 -160 -328 -160q-114 0 -210 41.5t-159.5 112t-99 162t-35.5 192.5t35.5 192.5t99 162
t159.5 112t210 41.5q216 0 328 -160v135zM604 279q127 0 202 79t75 197t-75 197t-202 79q-124 0 -200 -78.5t-76 -197.5t76 -197.5t200 -78.5z" />
    <glyph glyph-name="h" unicode="h" 
d="M684 1063q95 0 169.5 -36.5t119.5 -98t68.5 -137.5t23.5 -160v-631h-260v578q0 107 -49 170t-154 63q-109 0 -165 -67.5t-56 -165.5v-578h-258v1434h258v-523q103 152 303 152z" />
    <glyph glyph-name="i" unicode="i" horiz-adv-x="505" 
d="M123 0v1038h260v-1038h-260zM252 1190q-57 0 -97 40.5t-40 98.5q0 57 40 97t97 40q58 0 98.5 -40t40.5 -97q0 -59 -40.5 -99t-98.5 -40z" />
    <glyph glyph-name="j" unicode="j" horiz-adv-x="505" 
d="M123 53v985h258v-1020q0 -181 -94.5 -289t-282.5 -108q-40 0 -90 8v238q4 0 14 -1t17 -1q90 0 134 44.5t44 143.5zM252 1190q-57 0 -98 40.5t-41 98.5q0 57 41 97t98 40t98 -40t41 -97q0 -58 -41 -98.5t-98 -40.5z" />
    <glyph glyph-name="k" unicode="k" horiz-adv-x="1097" 
d="M1067 0h-317l-369 494v-494h-258v1434h258v-836l324 440h299l-371 -479z" />
    <glyph glyph-name="l" unicode="l" horiz-adv-x="505" 
d="M123 1434h260v-1434h-260v1434z" />
    <glyph glyph-name="m" unicode="m" horiz-adv-x="1742" 
d="M1257 1063q116 0 200 -58.5t123.5 -151t39.5 -204.5v-649h-260v596q0 101 -43 158t-131 57t-136.5 -61t-48.5 -154v-596h-260v596q0 101 -43 158t-131 57q-87 0 -135.5 -61t-48.5 -154v-596h-260v1038h260v-110q94 135 274 135q198 0 287 -164q112 164 313 164z" />
    <glyph glyph-name="n" unicode="n" 
d="M684 1063q95 0 169.5 -36.5t119.5 -98t68.5 -137.5t23.5 -160v-631h-260v578q0 107 -49 170t-154 63q-109 0 -165 -67.5t-56 -165.5v-578h-258v1038h258v-127q103 152 303 152z" />
    <glyph glyph-name="o" unicode="o" horiz-adv-x="1218" 
d="M608 1063q154 0 280 -72t197.5 -197t71.5 -276q0 -150 -71.5 -275t-197.5 -197.5t-280 -72.5q-153 0 -278.5 72.5t-197 197.5t-71.5 275q0 151 71.5 276t197 197t278.5 72zM608 223q127 0 205 85t78 210t-78 210t-205 85q-126 0 -203 -85t-77 -210t77 -210t203 -85z" />
    <glyph glyph-name="p" unicode="p" horiz-adv-x="1282" 
d="M713 1063q117 0 215 -46.5t161 -124t97.5 -174.5t34.5 -200t-34.5 -200t-97.5 -174.5t-161 -124t-215 -46.5q-214 0 -330 148v-516h-260v1433h260v-123q114 148 330 148zM674 223q129 0 204.5 85t75.5 210t-75.5 210t-204.5 85q-130 0 -205.5 -85t-75.5 -210t75.5 -210
t205.5 -85z" />
    <glyph glyph-name="q" unicode="q" horiz-adv-x="1282" 
d="M899 1038h260v-1433h-260v516q-116 -148 -330 -148q-117 0 -215 46.5t-161 124t-97.5 174.5t-34.5 200t34.5 200t97.5 174.5t161 124t215 46.5q216 0 330 -148v123zM608 223q129 0 205 85t76 210t-76 210t-205 85t-204.5 -85t-75.5 -210t75.5 -210t204.5 -85z" />
    <glyph glyph-name="r" unicode="r" horiz-adv-x="790" 
d="M383 868q56 93 151.5 144t194.5 51v-283q-89 11 -153.5 -4.5t-101 -47t-58 -83.5t-27.5 -101.5t-6 -115.5v-428h-260v1038h260v-170z" />
    <glyph glyph-name="s" unicode="s" horiz-adv-x="968" 
d="M551 621q198 -43 282.5 -108.5t84.5 -193.5q0 -158 -114 -252t-327 -94q-76 0 -147 15.5t-132.5 46t-105.5 80t-61 112.5l250 78q8 -44 53.5 -78t146.5 -34q82 0 126 28t44 80q0 28 -15 47t-46.5 30.5t-60 17.5t-76 13t-74.5 13q-153 31 -228 107t-75 208
q0 147 112 236.5t295 89.5q142 0 254.5 -69.5t143.5 -198.5l-236 -58q-10 44 -51.5 75.5t-110.5 31.5q-64 0 -108.5 -26.5t-44.5 -80.5q0 -22 11.5 -39.5t27 -27.5t42 -18.5t46 -12.5t50 -9.5t44.5 -8.5z" />
    <glyph glyph-name="t" unicode="t" horiz-adv-x="782" 
d="M690 801h-221v-379q0 -50 5 -80.5t21 -57.5t49 -39t85 -12q16 0 61 5v-238q-47 -14 -108 -14q-97 0 -170 31t-116.5 85.5t-65 124t-21.5 152.5v422h-148v237h148v217h260v-217h221v-237z" />
    <glyph glyph-name="u" unicode="u" 
d="M805 1038h260v-1038h-260v127q-102 -154 -301 -154q-95 0 -169.5 36.5t-119.5 98.5t-68.5 138t-23.5 160v632h260v-577q0 -107 49 -170.5t152 -63.5q110 0 165.5 67.5t55.5 166.5v577z" />
    <glyph glyph-name="v" unicode="v" horiz-adv-x="1116" 
d="M805 1038h280l-385 -1038h-284l-385 1038h280l246 -737z" />
    <glyph glyph-name="w" unicode="w" horiz-adv-x="1636" 
d="M1325 1038h281l-349 -1038h-231l-209 612l-207 -612h-231l-348 1038h280l199 -659l223 659h170l221 -659z" />
    <glyph glyph-name="x" unicode="x" horiz-adv-x="1097" 
d="M1067 0h-301l-217 336l-217 -336h-301l352 535l-336 503h303l199 -323l199 323h303l-336 -506z" />
    <glyph glyph-name="y" unicode="y" horiz-adv-x="1134" 
d="M823 1038h281l-567 -1433h-267l191 456l-430 977h280l269 -686z" />
    <glyph glyph-name="z" unicode="z" horiz-adv-x="1007" 
d="M420 238h495v-238h-823v182l475 619h-456v237h786v-182z" />
    <glyph glyph-name="braceleft" unicode="{" horiz-adv-x="839" 
d="M508 956q0 -196 -158 -235v-8q158 -39 158 -238v-209q0 -40 1 -62.5t4 -51t10 -44t19.5 -32.5t31 -25t45 -13t61.5 -5h47v-232h-106q-181 0 -274 83.5t-93 269.5v303q0 95 -25 127t-96 32v201q71 0 96 32.5t25 125.5v303q0 186 93 269t274 83h106v-229h-47
q-35 0 -61.5 -5.5t-45 -13.5t-31 -25t-19 -32.5t-10 -44t-4.5 -51.5t-1 -62v-211z" />
    <glyph glyph-name="bar" unicode="|" horiz-adv-x="503" 
d="M133 1550h238v-1855h-238v1855z" />
    <glyph glyph-name="braceright" unicode="}" horiz-adv-x="839" 
d="M586 975q0 -93 25 -125.5t96 -32.5v-201q-71 0 -96 -32t-25 -127v-303q0 -186 -93.5 -269.5t-275.5 -83.5h-104v232h47q49 0 81.5 10.5t50 25.5t26.5 49t10.5 62.5t1.5 85.5v209q0 199 159 238v8q-159 39 -159 235v211q0 40 -0.5 62t-4 51t-10 44t-18.5 32.5t-30.5 25.5
t-45 13.5t-61.5 5.5h-47v229h104q182 0 275.5 -83t93.5 -269v-303z" />
    <glyph glyph-name="asciitilde" unicode="~" horiz-adv-x="1191" 
d="M889 760l190 -39q-23 -131 -84 -195.5t-176 -64.5q-72 0 -149.5 23.5t-145.5 47t-118 23.5q-49 0 -70.5 -24t-32.5 -70l-190 39q55 258 280 258q67 0 142.5 -22.5t142 -45t113.5 -22.5q29 0 48.5 8.5t29.5 25.5t13.5 28t6.5 30z" />
    <glyph glyph-name="exclamdown" unicode="&#xa1;" horiz-adv-x="567" 
d="M285 760q-63 0 -107.5 44t-44.5 107t44.5 107.5t107.5 44.5q62 0 105.5 -44.5t43.5 -107.5t-43.5 -107t-105.5 -44zM174 573h219l29 -968h-277z" />
    <glyph glyph-name="cent" unicode="&#xa2;" horiz-adv-x="1198" 
d="M641 422q81 0 142 35.5t98 97.5l225 -131q-66 -106 -174.5 -173t-241.5 -77v-174h-164v182q-191 38 -312.5 187t-121.5 348q0 197 121.5 345.5t312.5 186.5v185h164v-174q134 -12 242.5 -78.5t173.5 -173.5l-225 -129q-37 62 -98 97.5t-142 35.5q-127 0 -205 -85
t-78 -210t78 -210t205 -85z" />
    <glyph glyph-name="sterling" unicode="&#xa3;" horiz-adv-x="1226" 
d="M367 258h747v-258h-1022v258q98 72 143.5 146t45.5 184v37h-189v145h154q-4 11 -17.5 47t-19 53.5t-14 49t-12 62.5t-3.5 65q0 180 123.5 295.5t337.5 115.5q168 0 282.5 -83t149.5 -236l-256 -64q-11 55 -53 96t-117 41q-72 0 -121 -47t-49 -135q0 -36 6 -74t12.5 -62
t19 -64.5t17.5 -59.5h365v-145h-342q0 -114 -54 -207.5t-134 -157.5v-2z" />
    <glyph glyph-name="currency" unicode="&#xa4;" horiz-adv-x="1056" 
d="M965 395l-117 -114l-131 131q-88 -56 -189 -56q-100 0 -188 56l-131 -131l-117 114l131 133q-53 85 -53 189q0 100 53 188l-131 131l117 117l131 -131q88 53 188 53q101 0 189 -53l131 131l117 -117l-131 -131q53 -83 53 -188q0 -109 -53 -189zM528 557q66 0 113 47
t47 113q0 65 -47 111t-113 46t-111.5 -46t-45.5 -111q0 -66 45.5 -113t111.5 -47z" />
    <glyph glyph-name="yen" unicode="&#xa5;" horiz-adv-x="1409" 
d="M1378 1434l-450 -758h225v-146h-309v-116h309v-148h-309v-266h-279v266h-309v148h309v116h-309v146h225l-450 758h303l371 -650l370 650h303z" />
    <glyph glyph-name="brokenbar" unicode="&#xa6;" horiz-adv-x="503" 
d="M133 -305v727h238v-727h-238zM133 1550h238v-727h-238v727z" />
    <glyph glyph-name="section" unicode="&#xa7;" horiz-adv-x="1179" 
d="M1067 602q0 -86 -44.5 -165.5t-111.5 -125.5q66 -79 66 -184q0 -88 -35 -159.5t-94.5 -116t-133.5 -68t-155 -23.5q-161 0 -271 70t-136 193l239 49q5 -44 47.5 -82.5t114.5 -38.5q79 0 121.5 40t42.5 101q0 39 -20.5 69.5t-55.5 50.5t-80.5 36.5t-95.5 32.5t-100 34
t-95.5 44t-80.5 59t-55.5 83.5t-20.5 114.5q0 86 44.5 165t110.5 126q-63 72 -63 185q0 117 60.5 202t153 124.5t202.5 39.5q163 0 272 -69.5t135 -192.5l-240 -49q-6 45 -46.5 83t-114.5 38q-78 0 -121 -40t-43 -102q0 -44 26 -77.5t68.5 -53.5t96.5 -40t111 -36t111 -43
t96.5 -60t68.5 -88t26 -126zM651 463q48 -16 115 -47q72 57 72 133q0 31 -16 57.5t-36.5 44t-59 35.5t-64 26.5t-71.5 23t-63 20.5q-31 11 -114 47q-70 -56 -70 -135q0 -26 10 -49t30.5 -40.5t42 -31t54.5 -26.5t56.5 -21t60 -19.5t53.5 -17.5z" />
    <glyph glyph-name="dieresis" unicode="&#xa8;" horiz-adv-x="980" 
d="M274 1466q59 0 99.5 -40.5t40.5 -98.5q0 -59 -41 -100t-99 -41t-99.5 41t-41.5 100q0 58 41 98.5t100 40.5zM707 1466q59 0 100 -40.5t41 -98.5q0 -59 -41 -100t-100 -41q-57 0 -98.5 41.5t-41.5 99.5t41.5 98.5t98.5 40.5z" />
    <glyph glyph-name="copyright" unicode="&#xa9;" horiz-adv-x="1677" 
d="M860 963q-108 0 -169.5 -73.5t-61.5 -172.5q0 -100 61.5 -174t169.5 -74q110 0 176 80l119 -78q-52 -65 -128 -101t-167 -36q-163 0 -269 109.5t-106 273.5t106 273.5t269 109.5q90 0 166.5 -36.5t128.5 -100.5l-119 -78q-65 78 -176 78zM838 1452q200 0 369.5 -98.5
t268.5 -267.5t99 -369t-99 -369.5t-268.5 -268.5t-369.5 -99q-150 0 -286 58.5t-234.5 157.5t-157 235t-58.5 286t58.5 286t157 234.5t234.5 156.5t286 58zM838 109q165 0 305 81.5t221.5 221.5t81.5 305t-81.5 305t-221.5 221.5t-305 81.5t-305.5 -81.5t-222 -221.5
t-81.5 -305t81.5 -305t222 -221.5t305.5 -81.5z" />
    <glyph glyph-name="guillemotleft" unicode="&#xab;" horiz-adv-x="1202" 
d="M610 877l-245 -363l245 -362h-272l-246 362l246 363h272zM1110 877l-246 -363l246 -362h-272l-246 362l246 363h272z" />
    <glyph glyph-name="registered" unicode="&#xae;" horiz-adv-x="1677" 
d="M1147 850q0 -74 -38.5 -129.5t-107.5 -83.5l189 -285h-166l-162 260h-143v-260h-146v746h295q127 0 203 -70t76 -178zM719 965v-228h149q59 0 95 29t36 84q0 53 -35 84t-96 31h-149zM840 1452q200 0 369 -98.5t267.5 -267.5t98.5 -369t-98.5 -369.5t-267.5 -268.5
t-369 -99q-150 0 -286.5 58.5t-235.5 157.5t-157.5 235t-58.5 286q0 120 37.5 232t106 202.5t159 158.5t203 105t232.5 37zM840 109q165 0 305 81.5t221.5 221.5t81.5 305t-81.5 305t-221.5 221.5t-305 81.5t-305.5 -81.5t-222 -221.5t-81.5 -305t81.5 -305t222 -221.5
t305.5 -81.5z" />
    <glyph glyph-name="macron" unicode="&#xaf;" horiz-adv-x="862" 
d="M133 1427h596v-200h-596v200z" />
    <glyph glyph-name="degree" unicode="&#xb0;" horiz-adv-x="833" 
d="M416 1434q134 0 229.5 -95.5t95.5 -230.5q0 -133 -95.5 -228.5t-229.5 -95.5t-229 95t-95 229q0 135 95 230.5t229 95.5zM416 967q59 0 101 41.5t42 99.5q0 60 -42 101.5t-101 41.5t-100.5 -41.5t-41.5 -101.5q0 -58 41.5 -99.5t100.5 -41.5z" />
    <glyph glyph-name="plusminus" unicode="&#xb1;" horiz-adv-x="1069" 
d="M643 901h293v-219h-293v-291h-219v291h-291v219h291v293h219v-293zM133 0v219h803v-219h-803z" />
    <glyph glyph-name="acute" unicode="&#xb4;" horiz-adv-x="673" 
d="M266 1489h275l-199 -287h-209z" />
    <glyph glyph-name="paragraph" unicode="&#xb6;" horiz-adv-x="1345" 
d="M1233 1434v-250h-137v-1366h-219v1366h-203v-1366h-219v936q-162 5 -272.5 95t-110.5 245q0 158 116.5 249t282.5 91h762z" />
    <glyph glyph-name="cedilla" unicode="&#xb8;" horiz-adv-x="720" 
d="M362 -94q102 -7 164 -57t62 -148q0 -94 -70.5 -155.5t-177.5 -61.5q-127 0 -207 53l72 129q40 -28 106 -28q50 0 79.5 23.5t29.5 62.5q0 77 -94 77q-40 0 -68 -14l-53 70l71 143h134z" />
    <glyph glyph-name="guillemotright" unicode="&#xbb;" horiz-adv-x="1204" 
d="M866 877l246 -363l-246 -362h-274l248 362l-248 363h274zM367 877l245 -363l-245 -362h-275l248 362l-248 363h275z" />
    <glyph glyph-name="questiondown" unicode="&#xbf;" horiz-adv-x="999" 
d="M500 760q-63 0 -107.5 44t-44.5 107t44.5 107.5t107.5 44.5q62 0 105.5 -44.5t43.5 -107.5t-43.5 -107t-105.5 -44zM702 -27l236 -57q-20 -87 -64 -153.5t-104 -106t-129 -59t-145 -19.5q-180 0 -307.5 114.5t-127.5 264.5q0 65 17 119.5t44.5 94t61 75.5t67 70t61 69.5
t44.5 83.5t17 104h248q0 -73 -22 -137.5t-55 -107.5t-71.5 -87t-71.5 -78t-55 -78.5t-22 -90.5q0 -80 49 -130t141 -50q82 0 127 45.5t61 113.5z" />
    <glyph glyph-name="Agrave" unicode="&#xc0;" horiz-adv-x="1433" 
d="M1108 0l-96 285h-590l-96 -285h-295l516 1434h340l516 -1434h-295zM506 532h422l-211 621zM684 1898l135 -286h-211l-198 286h274z" />
    <glyph glyph-name="Aacute" unicode="&#xc1;" horiz-adv-x="1433" 
d="M1108 0l-96 285h-590l-96 -285h-295l516 1434h340l516 -1434h-295zM506 532h422l-211 621zM748 1898h274l-199 -286h-209z" />
    <glyph glyph-name="Acircumflex" unicode="&#xc2;" horiz-adv-x="1433" 
d="M1108 0l-96 285h-590l-96 -285h-295l516 1434h340l516 -1434h-295zM506 532h422l-211 621zM1069 1612h-229l-121 164l-121 -164h-231l227 286h250z" />
    <glyph glyph-name="Atilde" unicode="&#xc3;" horiz-adv-x="1433" 
d="M1108 0l-96 285h-590l-96 -285h-295l516 1434h340l516 -1434h-295zM506 532h422l-211 621zM887 1829l153 -27q-1 -100 -47.5 -156.5t-126.5 -56.5q-55 0 -138 30t-122 30q-33 0 -46 -24t-13 -54l-152 26q1 102 47.5 157.5t124.5 55.5q55 0 138 -29.5t120 -29.5
q35 0 48.5 24t13.5 54z" />
    <glyph glyph-name="Adieresis" unicode="&#xc4;" horiz-adv-x="1433" 
d="M1108 0l-96 285h-590l-96 -285h-295l516 1434h340l516 -1434h-295zM506 532h422l-211 621zM502 1876q58 0 98.5 -40t40.5 -99t-40.5 -100.5t-98.5 -41.5t-100 41.5t-42 100.5q0 58 41.5 98.5t100.5 40.5zM934 1876q59 0 100 -40.5t41 -98.5q0 -59 -41.5 -100.5
t-99.5 -41.5q-57 0 -98 42t-41 100t41 98.5t98 40.5z" />
    <glyph glyph-name="Aring" unicode="&#xc5;" horiz-adv-x="1433" 
d="M1108 0l-96 285h-590l-96 -285h-295l516 1434h340l516 -1434h-295zM506 532h422l-211 621zM717 1987q95 0 163 -68.5t68 -163.5q0 -97 -68 -165t-163 -68q-97 0 -165.5 68t-68.5 165q0 95 68.5 163.5t165.5 68.5zM717 1651q43 0 73.5 30.5t30.5 73.5t-30.5 74t-73.5 31
q-44 0 -75.5 -31t-31.5 -74t31.5 -73.5t75.5 -30.5z" />
    <glyph glyph-name="AE" unicode="&#xc6;" horiz-adv-x="1931" 
d="M1270 258h569v-258h-846v285h-534l-135 -285h-293l698 1434h1090v-258h-549v-324h504v-258h-504v-336zM573 532h420v644h-119z" />
    <glyph glyph-name="Ccedilla" unicode="&#xc7;" horiz-adv-x="1421" 
d="M811 238q215 0 338 153l231 -151q-98 -125 -244.5 -195.5t-322.5 -71.5l-35 -69q102 -7 164 -57t62 -148q0 -94 -70 -155.5t-178 -61.5q-127 0 -207 53l72 129q48 -29 106 -29q50 0 79.5 23.5t29.5 62.5q0 78 -95 78q-39 0 -67 -14l-53 70l65 129q-269 43 -436.5 246
t-167.5 487q0 156 54.5 293t150.5 235.5t232 155.5t292 57q176 0 322.5 -70t246.5 -196l-231 -152q-124 154 -338 154q-107 0 -195 -41t-142.5 -108.5t-84 -152t-29.5 -175.5q0 -92 29.5 -176.5t84 -152.5t142.5 -109t195 -41z" />
    <glyph glyph-name="Egrave" unicode="&#xc8;" horiz-adv-x="1071" 
d="M410 258h569v-258h-846v1434h828v-258h-551v-324h503v-258h-503v-336zM543 1898l135 -286h-211l-199 286h275z" />
    <glyph glyph-name="Eacute" unicode="&#xc9;" horiz-adv-x="1071" 
d="M410 258h569v-258h-846v1434h828v-258h-551v-324h503v-258h-503v-336zM567 1898h275l-199 -286h-209z" />
    <glyph glyph-name="Ecircumflex" unicode="&#xca;" horiz-adv-x="1071" 
d="M410 258h569v-258h-846v1434h828v-258h-551v-324h503v-258h-503v-336zM907 1612h-229l-121 164l-121 -164h-231l227 286h250z" />
    <glyph glyph-name="Edieresis" unicode="&#xcb;" horiz-adv-x="1071" 
d="M410 258h569v-258h-846v1434h828v-258h-551v-324h503v-258h-503v-336zM340 1876q58 0 98.5 -40t40.5 -99t-40.5 -100.5t-98.5 -41.5t-99.5 41.5t-41.5 100.5q0 58 41 98.5t100 40.5zM772 1876q59 0 100 -40.5t41 -98.5q0 -59 -41.5 -100.5t-99.5 -41.5q-57 0 -98 42
t-41 100t41 98.5t98 40.5z" />
    <glyph glyph-name="Igrave" unicode="&#xcc;" horiz-adv-x="542" 
d="M133 1434h277v-1434h-277v1434zM240 1898l135 -286h-211l-199 286h275z" />
    <glyph glyph-name="Iacute" unicode="&#xcd;" horiz-adv-x="542" 
d="M133 1434h277v-1434h-277v1434zM299 1898h274l-198 -286h-209z" />
    <glyph glyph-name="Icircumflex" unicode="&#xce;" horiz-adv-x="542" 
d="M133 1434h277v-1434h-277v1434zM623 1612h-230l-121 164l-120 -164h-232l227 286h250z" />
    <glyph glyph-name="Idieresis" unicode="&#xcf;" horiz-adv-x="542" 
d="M133 1434h277v-1434h-277v1434zM55 1876q59 0 99.5 -40.5t40.5 -98.5q0 -59 -41 -100.5t-99 -41.5t-99.5 41.5t-41.5 100.5q0 58 41 98.5t100 40.5zM487 1876q59 0 100.5 -40.5t41.5 -98.5q0 -59 -41.5 -100.5t-100.5 -41.5q-57 0 -98 42t-41 100t41 98.5t98 40.5z" />
    <glyph glyph-name="Eth" unicode="&#xd0;" horiz-adv-x="1501" 
d="M655 1434q177 0 321 -53t241 -147.5t149.5 -226.5t52.5 -290t-52.5 -290t-149.5 -226.5t-241 -147.5t-321 -53h-444v643h-180v145h180v646h444zM655 258q101 0 187 27.5t154 82t106.5 144t38.5 205.5t-38.5 205.5t-106.5 144t-154 82t-187 27.5h-166v-388h326v-145h-326
v-385h166z" />
    <glyph glyph-name="Ntilde" unicode="&#xd1;" horiz-adv-x="1431" 
d="M1020 1434h278v-1434h-251l-635 948v-948h-279v1434h252l635 -949v949zM885 1829l153 -27q-1 -100 -47.5 -156.5t-126.5 -56.5q-54 0 -137 30t-123 30q-33 0 -46 -24t-13 -54l-152 26q1 102 47.5 157.5t124.5 55.5q55 0 138 -29.5t120 -29.5q35 0 48.5 24t13.5 54z" />
    <glyph glyph-name="Ograve" unicode="&#xd2;" horiz-adv-x="1622" 
d="M811 1458q156 0 292 -57t232 -155.5t150.5 -235.5t54.5 -293q0 -208 -93 -378t-260.5 -268t-375.5 -98t-375.5 98t-260.5 268t-93 378q0 156 54.5 293t150.5 235.5t232 155.5t292 57zM811 238q107 0 195 41t142.5 109t84 152.5t29.5 176.5q0 91 -29.5 175.5t-84 152
t-142.5 108.5t-195 41t-195 -41t-142.5 -108.5t-84 -152t-29.5 -175.5q0 -92 29.5 -176.5t84 -152.5t142.5 -109t195 -41zM778 1898l135 -286h-211l-198 286h274z" />
    <glyph glyph-name="Oacute" unicode="&#xd3;" horiz-adv-x="1622" 
d="M811 1458q156 0 292 -57t232 -155.5t150.5 -235.5t54.5 -293q0 -208 -93 -378t-260.5 -268t-375.5 -98t-375.5 98t-260.5 268t-93 378q0 156 54.5 293t150.5 235.5t232 155.5t292 57zM811 238q107 0 195 41t142.5 109t84 152.5t29.5 176.5q0 91 -29.5 175.5t-84 152
t-142.5 108.5t-195 41t-195 -41t-142.5 -108.5t-84 -152t-29.5 -175.5q0 -92 29.5 -176.5t84 -152.5t142.5 -109t195 -41zM842 1898h274l-198 -286h-209z" />
    <glyph glyph-name="Ocircumflex" unicode="&#xd4;" horiz-adv-x="1622" 
d="M811 1458q156 0 292 -57t232 -155.5t150.5 -235.5t54.5 -293q0 -208 -93 -378t-260.5 -268t-375.5 -98t-375.5 98t-260.5 268t-93 378q0 156 54.5 293t150.5 235.5t232 155.5t292 57zM811 238q107 0 195 41t142.5 109t84 152.5t29.5 176.5q0 91 -29.5 175.5t-84 152
t-142.5 108.5t-195 41t-195 -41t-142.5 -108.5t-84 -152t-29.5 -175.5q0 -92 29.5 -176.5t84 -152.5t142.5 -109t195 -41zM1163 1612h-229l-121 164l-121 -164h-231l227 286h250z" />
    <glyph glyph-name="Otilde" unicode="&#xd5;" horiz-adv-x="1622" 
d="M811 1458q156 0 292 -57t232 -155.5t150.5 -235.5t54.5 -293q0 -208 -93 -378t-260.5 -268t-375.5 -98t-375.5 98t-260.5 268t-93 378q0 156 54.5 293t150.5 235.5t232 155.5t292 57zM811 238q107 0 195 41t142.5 109t84 152.5t29.5 176.5q0 91 -29.5 175.5t-84 152
t-142.5 108.5t-195 41t-195 -41t-142.5 -108.5t-84 -152t-29.5 -175.5q0 -92 29.5 -176.5t84 -152.5t142.5 -109t195 -41zM981 1829l154 -27q-1 -100 -47.5 -156.5t-126.5 -56.5q-55 0 -138 30t-123 30q-33 0 -46 -24t-13 -54l-152 26q1 102 48 157.5t125 55.5
q55 0 138 -29.5t120 -29.5q61 0 61 78z" />
    <glyph glyph-name="Odieresis" unicode="&#xd6;" horiz-adv-x="1622" 
d="M811 1458q156 0 292 -57t232 -155.5t150.5 -235.5t54.5 -293q0 -208 -93 -378t-260.5 -268t-375.5 -98t-375.5 98t-260.5 268t-93 378q0 156 54.5 293t150.5 235.5t232 155.5t292 57zM811 238q107 0 195 41t142.5 109t84 152.5t29.5 176.5q0 91 -29.5 175.5t-84 152
t-142.5 108.5t-195 41t-195 -41t-142.5 -108.5t-84 -152t-29.5 -175.5q0 -92 29.5 -176.5t84 -152.5t142.5 -109t195 -41zM596 1876q58 0 98.5 -40t40.5 -99t-40.5 -100.5t-98.5 -41.5t-99.5 41.5t-41.5 100.5q0 58 41 98.5t100 40.5zM1028 1876q59 0 100 -40.5t41 -98.5
q0 -59 -41.5 -100.5t-99.5 -41.5q-57 0 -98 42t-41 100t41 98.5t98 40.5z" />
    <glyph glyph-name="multiply" unicode="&#xd7;" horiz-adv-x="948" 
d="M836 815l-207 -205l207 -207l-156 -155l-207 207l-205 -207l-155 155l206 207l-206 205l155 156l205 -207l207 207z" />
    <glyph glyph-name="Oslash" unicode="&#xd8;" horiz-adv-x="1622" 
d="M1405 1159q133 -190 133 -442q0 -208 -92.5 -378t-259.5 -268t-375 -98q-293 0 -498 189l-125 -113l-98 109l127 116q-135 190 -135 443q0 156 54.5 293t150.5 235.5t232 155.5t292 57q297 0 498 -188l125 114l100 -110zM360 717q0 -141 64 -254l684 622
q-119 109 -297 109q-107 0 -195 -41t-142.5 -108.5t-84 -152t-29.5 -175.5zM811 238q107 0 194.5 41t142.5 109t84.5 153t29.5 176q0 133 -64 252l-682 -623q118 -108 295 -108z" />
    <glyph glyph-name="Ugrave" unicode="&#xd9;" horiz-adv-x="1427" 
d="M1016 1434h278v-906q0 -257 -151 -406t-428 -149q-278 0 -430 149t-152 406v906h279v-869q0 -87 24.5 -152t68 -102t96 -55t114.5 -18q61 0 113 18t95.5 55t68 102t24.5 152v869zM721 1898l135 -286h-211l-199 286h275z" />
    <glyph glyph-name="Uacute" unicode="&#xda;" horiz-adv-x="1427" 
d="M1016 1434h278v-906q0 -257 -151 -406t-428 -149q-278 0 -430 149t-152 406v906h279v-869q0 -87 24.5 -152t68 -102t96 -55t114.5 -18q61 0 113 18t95.5 55t68 102t24.5 152v869zM745 1898h275l-199 -286h-209z" />
    <glyph glyph-name="Ucircumflex" unicode="&#xdb;" horiz-adv-x="1427" 
d="M1016 1434h278v-906q0 -257 -151 -406t-428 -149q-278 0 -430 149t-152 406v906h279v-869q0 -87 24.5 -152t68 -102t96 -55t114.5 -18q61 0 113 18t95.5 55t68 102t24.5 152v869zM1065 1612h-229l-121 164l-121 -164h-232l228 286h250z" />
    <glyph glyph-name="Udieresis" unicode="&#xdc;" horiz-adv-x="1427" 
d="M1016 1434h278v-906q0 -257 -151 -406t-428 -149q-278 0 -430 149t-152 406v906h279v-869q0 -87 24.5 -152t68 -102t96 -55t114.5 -18q61 0 113 18t95.5 55t68 102t24.5 152v869zM498 1876q58 0 98.5 -40t40.5 -99t-40.5 -100.5t-98.5 -41.5t-100 41.5t-42 100.5
q0 58 41.5 98.5t100.5 40.5zM930 1876q59 0 100 -40.5t41 -98.5q0 -59 -41.5 -100.5t-99.5 -41.5q-57 0 -98 42t-41 100t41 98.5t98 40.5z" />
    <glyph glyph-name="Yacute" unicode="&#xdd;" horiz-adv-x="1409" 
d="M1378 1434l-534 -897v-537h-279v537l-534 897h305l369 -650l370 650h303zM715 1898h274l-198 -286h-209z" />
    <glyph glyph-name="Thorn" unicode="&#xde;" horiz-adv-x="1234" 
d="M614 1210q253 0 401 -134.5t148 -358.5q0 -225 -148 -360.5t-401 -135.5h-202v-221h-279v1434h279v-224h202zM614 479q128 0 197.5 62t69.5 176q0 112 -69.5 173.5t-197.5 61.5h-202v-473h202z" />
    <glyph glyph-name="germandbls" unicode="&#xdf;" horiz-adv-x="1214" 
d="M874 750q129 -43 204 -133t75 -224q0 -141 -71.5 -240.5t-201.5 -140t-298 -12.5v205q155 -21 234 35.5t79 167.5q0 192 -279 192h-34v223q104 0 158.5 53t54.5 144q0 83 -55.5 135.5t-147.5 52.5q-96 0 -153.5 -63t-57.5 -195v-950h-258v983q0 206 133.5 340.5
t335.5 134.5q103 0 190 -35.5t143.5 -95t87.5 -135t31 -156.5q0 -191 -170 -286z" />
    <glyph glyph-name="agrave" unicode="&#xe0;" horiz-adv-x="1116" 
d="M555 1063q438 0 438 -436v-627h-260v111q-38 -61 -119.5 -99.5t-183.5 -38.5q-49 0 -98.5 10.5t-98.5 34t-87 58t-61.5 87t-23.5 116.5q0 55 15.5 101.5t39 79.5t61 59.5t72 43t83 28.5t82.5 17.5t81.5 8.5t69.5 3.5t56 0.5h112q-2 115 -49.5 165t-165.5 50
q-107 0 -217 -76l-178 135q186 168 432 168zM733 281v176h-16q-184 0 -254 -16q-135 -31 -135 -138q0 -63 44 -102t136 -39q88 0 144.5 37.5t80.5 81.5zM535 1489l135 -287h-211l-199 287h275z" />
    <glyph glyph-name="aacute" unicode="&#xe1;" horiz-adv-x="1116" 
d="M555 1063q438 0 438 -436v-627h-260v111q-38 -61 -119.5 -99.5t-183.5 -38.5q-49 0 -98.5 10.5t-98.5 34t-87 58t-61.5 87t-23.5 116.5q0 55 15.5 101.5t39 79.5t61 59.5t72 43t83 28.5t82.5 17.5t81.5 8.5t69.5 3.5t56 0.5h112q-2 115 -49.5 165t-165.5 50
q-107 0 -217 -76l-178 135q186 168 432 168zM733 281v176h-16q-184 0 -254 -16q-135 -31 -135 -138q0 -63 44 -102t136 -39q88 0 144.5 37.5t80.5 81.5zM559 1489h275l-199 -287h-209z" />
    <glyph glyph-name="acircumflex" unicode="&#xe2;" horiz-adv-x="1116" 
d="M555 1063q438 0 438 -436v-627h-260v111q-38 -61 -119.5 -99.5t-183.5 -38.5q-49 0 -98.5 10.5t-98.5 34t-87 58t-61.5 87t-23.5 116.5q0 55 15.5 101.5t39 79.5t61 59.5t72 43t83 28.5t82.5 17.5t81.5 8.5t69.5 3.5t56 0.5h112q-2 115 -49.5 165t-165.5 50
q-107 0 -217 -76l-178 135q186 168 432 168zM733 281v176h-16q-184 0 -254 -16q-135 -31 -135 -138q0 -63 44 -102t136 -39q88 0 144.5 37.5t80.5 81.5zM920 1202h-230l-121 164l-120 -164h-232l227 287h250z" />
    <glyph glyph-name="atilde" unicode="&#xe3;" horiz-adv-x="1116" 
d="M555 1063q438 0 438 -436v-627h-260v111q-38 -61 -119.5 -99.5t-183.5 -38.5q-49 0 -98.5 10.5t-98.5 34t-87 58t-61.5 87t-23.5 116.5q0 55 15.5 101.5t39 79.5t61 59.5t72 43t83 28.5t82.5 17.5t81.5 8.5t69.5 3.5t56 0.5h112q-2 115 -49.5 165t-165.5 50
q-107 0 -217 -76l-178 135q186 168 432 168zM733 281v176h-16q-184 0 -254 -16q-135 -31 -135 -138q0 -63 44 -102t136 -39q88 0 144.5 37.5t80.5 81.5zM737 1419l154 -26q-1 -100 -47.5 -156.5t-126.5 -56.5q-55 0 -138 29.5t-122 29.5q-33 0 -46.5 -24t-13.5 -54l-151 27
q1 102 47.5 157.5t124.5 55.5q55 0 138 -30t120 -30q61 0 61 78z" />
    <glyph glyph-name="adieresis" unicode="&#xe4;" horiz-adv-x="1116" 
d="M555 1063q438 0 438 -436v-627h-260v111q-38 -61 -119.5 -99.5t-183.5 -38.5q-49 0 -98.5 10.5t-98.5 34t-87 58t-61.5 87t-23.5 116.5q0 55 15.5 101.5t39 79.5t61 59.5t72 43t83 28.5t82.5 17.5t81.5 8.5t69.5 3.5t56 0.5h112q-2 115 -49.5 165t-165.5 50
q-107 0 -217 -76l-178 135q186 168 432 168zM733 281v176h-16q-184 0 -254 -16q-135 -31 -135 -138q0 -63 44 -102t136 -39q88 0 144.5 37.5t80.5 81.5zM352 1466q59 0 99.5 -40.5t40.5 -98.5q0 -59 -41 -100t-99 -41t-99.5 41t-41.5 100q0 58 41 98.5t100 40.5zM784 1466
q59 0 100.5 -40.5t41.5 -98.5t-41.5 -99.5t-100.5 -41.5q-57 0 -98 41.5t-41 99.5t41 98.5t98 40.5z" />
    <glyph glyph-name="aring" unicode="&#xe5;" horiz-adv-x="1116" 
d="M555 1063q438 0 438 -436v-627h-260v111q-38 -61 -119.5 -99.5t-183.5 -38.5q-49 0 -98.5 10.5t-98.5 34t-87 58t-61.5 87t-23.5 116.5q0 55 15.5 101.5t39 79.5t61 59.5t72 43t83 28.5t82.5 17.5t81.5 8.5t69.5 3.5t56 0.5h112q-2 115 -49.5 165t-165.5 50
q-107 0 -217 -76l-178 135q186 168 432 168zM733 281v176h-16q-184 0 -254 -16q-135 -31 -135 -138q0 -63 44 -102t136 -39q88 0 144.5 37.5t80.5 81.5zM569 1597q95 0 163.5 -68t68.5 -163q0 -96 -68.5 -164.5t-163.5 -68.5q-97 0 -165 68t-68 165q0 95 68 163t165 68z
M569 1262q43 0 74 30.5t31 73.5t-31 73.5t-74 30.5q-44 0 -75 -30.5t-31 -73.5t31 -73.5t75 -30.5z" />
    <glyph glyph-name="ae" unicode="&#xe6;" horiz-adv-x="1808" 
d="M1225 1063q118 0 219.5 -44t173.5 -124t106 -204t17 -273h-770q27 -102 106.5 -157.5t190.5 -55.5q78 0 138.5 32t92.5 70l207 -123q-67 -93 -182 -152t-256 -59q-272 0 -416 174q-48 -76 -155.5 -125t-247.5 -49q-52 0 -104.5 10.5t-104.5 34t-91 58t-63.5 87
t-24.5 116.5q0 55 15.5 101.5t39 79.5t61 59.5t72 43t82.5 28.5t82 17.5t81 8.5t68.5 3.5t55.5 0.5h115q-3 115 -50.5 165t-164.5 50q-62 0 -120.5 -24t-96.5 -52l-178 135q186 168 432 168q235 0 330 -135q135 135 340 135zM733 281v176h-18q-183 0 -254 -16
q-133 -31 -133 -138q0 -63 44 -102t136 -39q88 0 143.5 37t81.5 82zM971 618h516q-20 102 -87 157.5t-169 55.5q-97 0 -166 -56.5t-94 -156.5z" />
    <glyph glyph-name="ccedilla" unicode="&#xe7;" horiz-adv-x="1105" 
d="M610 223q80 0 142 35.5t98 97.5l225 -129q-72 -116 -192 -183.5t-267 -70.5l-34 -69q103 -6 165 -56t62 -149q0 -94 -70.5 -155.5t-177.5 -61.5q-129 0 -209 53l72 129q48 -29 108 -29q50 0 79.5 23.5t29.5 62.5q0 78 -96 78q-38 0 -66 -14l-53 70l66 131
q-190 40 -310.5 187.5t-120.5 344.5q0 151 71.5 276t197.5 197t280 72q148 0 270.5 -68t194.5 -184l-225 -131q-36 62 -98 97.5t-142 35.5q-127 0 -204.5 -85t-77.5 -210t77.5 -210t204.5 -85z" />
    <glyph glyph-name="egrave" unicode="&#xe8;" horiz-adv-x="1175" 
d="M592 1063q118 0 219.5 -44t173.5 -124t106 -204t17 -273h-770q27 -102 106 -157.5t189 -55.5q80 0 140.5 32t90.5 70l209 -123q-67 -93 -183 -152t-257 -59q-127 0 -234 41t-181 113t-115.5 173t-41.5 218q0 119 42.5 222t115 173t169.5 110t204 40zM338 618h516
q-20 102 -87 157.5t-171 55.5q-96 0 -165.5 -57t-92.5 -156zM596 1489l135 -287h-211l-198 287h274z" />
    <glyph glyph-name="eacute" unicode="&#xe9;" horiz-adv-x="1175" 
d="M592 1063q118 0 219.5 -44t173.5 -124t106 -204t17 -273h-770q27 -102 106 -157.5t189 -55.5q80 0 140.5 32t90.5 70l209 -123q-67 -93 -183 -152t-257 -59q-127 0 -234 41t-181 113t-115.5 173t-41.5 218q0 119 42.5 222t115 173t169.5 110t204 40zM338 618h516
q-20 102 -87 157.5t-171 55.5q-96 0 -165.5 -57t-92.5 -156zM598 1489h274l-198 -287h-209z" />
    <glyph glyph-name="ecircumflex" unicode="&#xea;" horiz-adv-x="1175" 
d="M592 1063q118 0 219.5 -44t173.5 -124t106 -204t17 -273h-770q27 -102 106 -157.5t189 -55.5q80 0 140.5 32t90.5 70l209 -123q-67 -93 -183 -152t-257 -59q-127 0 -234 41t-181 113t-115.5 173t-41.5 218q0 119 42.5 222t115 173t169.5 110t204 40zM338 618h516
q-20 102 -87 157.5t-171 55.5q-96 0 -165.5 -57t-92.5 -156zM958 1202h-229l-121 164l-121 -164h-231l227 287h250z" />
    <glyph glyph-name="edieresis" unicode="&#xeb;" horiz-adv-x="1175" 
d="M592 1063q118 0 219.5 -44t173.5 -124t106 -204t17 -273h-770q27 -102 106 -157.5t189 -55.5q80 0 140.5 32t90.5 70l209 -123q-67 -93 -183 -152t-257 -59q-127 0 -234 41t-181 113t-115.5 173t-41.5 218q0 119 42.5 222t115 173t169.5 110t204 40zM338 618h516
q-20 102 -87 157.5t-171 55.5q-96 0 -165.5 -57t-92.5 -156zM391 1466q59 0 99 -40t40 -99t-40.5 -100t-98.5 -41q-59 0 -100 41t-41 100q0 58 41 98.5t100 40.5zM823 1466q59 0 100.5 -40.5t41.5 -98.5t-41.5 -99.5t-100.5 -41.5q-57 0 -98 41.5t-41 99.5t41 98.5t98 40.5z
" />
    <glyph glyph-name="igrave" unicode="&#xec;" horiz-adv-x="505" 
d="M123 0v1038h260v-1038h-260zM221 1489l135 -287h-211l-198 287h274z" />
    <glyph glyph-name="iacute" unicode="&#xed;" horiz-adv-x="505" 
d="M123 0v1038h260v-1038h-260zM285 1489h274l-199 -287h-208z" />
    <glyph glyph-name="icircumflex" unicode="&#xee;" horiz-adv-x="505" 
d="M123 0v1038h260v-1038h-260zM604 1202h-229l-121 164l-121 -164h-231l227 287h250z" />
    <glyph glyph-name="idieresis" unicode="&#xef;" horiz-adv-x="505" 
d="M123 0v1038h260v-1038h-260zM37 1466q59 0 99 -40t40 -99t-40.5 -100t-98.5 -41q-59 0 -100 41t-41 100q0 58 41 98.5t100 40.5zM469 1466q59 0 100 -40.5t41 -98.5q0 -59 -41 -100t-100 -41q-57 0 -98 41.5t-41 99.5t41 98.5t98 40.5z" />
    <glyph glyph-name="eth" unicode="&#xf0;" horiz-adv-x="1196" 
d="M782 1257q353 -334 353 -761q0 -245 -146 -384t-393 -139q-232 0 -383.5 141.5t-151.5 362.5q0 214 141.5 351t356.5 137q121 0 199 -47l2 2q-42 105 -189 235l-254 -123l-47 98l205 99q-134 97 -239 139l202 139q132 -70 256 -170l246 121l49 -98zM596 211q126 0 196 79
t70 187q0 110 -74 189t-192 79q-119 0 -193.5 -76.5t-74.5 -191.5q0 -118 80 -192t188 -74z" />
    <glyph glyph-name="ntilde" unicode="&#xf1;" 
d="M684 1063q95 0 169.5 -36.5t119.5 -98t68.5 -137.5t23.5 -160v-631h-260v578q0 107 -49 170t-154 63q-109 0 -165 -67.5t-56 -165.5v-578h-258v1038h258v-127q103 152 303 152zM762 1419l153 -26q-1 -100 -47.5 -156.5t-126.5 -56.5q-55 0 -138 29.5t-122 29.5
q-33 0 -46 -24t-13 -54l-152 27q1 102 47.5 157.5t124.5 55.5q55 0 138 -30t120 -30q35 0 48.5 24t13.5 54z" />
    <glyph glyph-name="ograve" unicode="&#xf2;" horiz-adv-x="1218" 
d="M608 1063q154 0 280 -72t197.5 -197t71.5 -276q0 -150 -71.5 -275t-197.5 -197.5t-280 -72.5q-153 0 -278.5 72.5t-197 197.5t-71.5 275q0 151 71.5 276t197 197t278.5 72zM608 223q127 0 205 85t78 210t-78 210t-205 85q-126 0 -203 -85t-77 -210t77 -210t203 -85z
M575 1489l136 -287h-211l-199 287h274z" />
    <glyph glyph-name="oacute" unicode="&#xf3;" horiz-adv-x="1218" 
d="M608 1063q154 0 280 -72t197.5 -197t71.5 -276q0 -150 -71.5 -275t-197.5 -197.5t-280 -72.5q-153 0 -278.5 72.5t-197 197.5t-71.5 275q0 151 71.5 276t197 197t278.5 72zM608 223q127 0 205 85t78 210t-78 210t-205 85q-126 0 -203 -85t-77 -210t77 -210t203 -85z
M621 1489h274l-199 -287h-209z" />
    <glyph glyph-name="ocircumflex" unicode="&#xf4;" horiz-adv-x="1218" 
d="M608 1063q154 0 280 -72t197.5 -197t71.5 -276q0 -150 -71.5 -275t-197.5 -197.5t-280 -72.5q-153 0 -278.5 72.5t-197 197.5t-71.5 275q0 151 71.5 276t197 197t278.5 72zM608 223q127 0 205 85t78 210t-78 210t-205 85q-126 0 -203 -85t-77 -210t77 -210t203 -85z
M961 1202h-230l-121 164l-121 -164h-231l227 287h250z" />
    <glyph glyph-name="otilde" unicode="&#xf5;" horiz-adv-x="1218" 
d="M608 1063q154 0 280 -72t197.5 -197t71.5 -276q0 -150 -71.5 -275t-197.5 -197.5t-280 -72.5q-153 0 -278.5 72.5t-197 197.5t-71.5 275q0 151 71.5 276t197 197t278.5 72zM608 223q127 0 205 85t78 210t-78 210t-205 85q-126 0 -203 -85t-77 -210t77 -210t203 -85z
M778 1419l154 -26q-1 -100 -47.5 -156.5t-126.5 -56.5q-54 0 -137 29.5t-123 29.5q-33 0 -46.5 -24t-13.5 -54l-151 27q1 102 47.5 157.5t124.5 55.5q55 0 138 -30t120 -30q61 0 61 78z" />
    <glyph glyph-name="odieresis" unicode="&#xf6;" horiz-adv-x="1218" 
d="M608 1063q154 0 280 -72t197.5 -197t71.5 -276q0 -150 -71.5 -275t-197.5 -197.5t-280 -72.5q-153 0 -278.5 72.5t-197 197.5t-71.5 275q0 151 71.5 276t197 197t278.5 72zM608 223q127 0 205 85t78 210t-78 210t-205 85q-126 0 -203 -85t-77 -210t77 -210t203 -85z
M393 1466q59 0 99 -40t40 -99t-40.5 -100t-98.5 -41q-59 0 -100 41t-41 100q0 58 41 98.5t100 40.5zM825 1466q59 0 100.5 -40.5t41.5 -98.5t-41.5 -99.5t-100.5 -41.5q-57 0 -98 41.5t-41 99.5t41 98.5t98 40.5z" />
    <glyph glyph-name="divide" unicode="&#xf7;" horiz-adv-x="1069" 
d="M133 719h803v-219h-803v219zM535 895q-57 0 -97.5 40t-40.5 97t40.5 97t97.5 40t97 -40t40 -97t-40 -97t-97 -40zM535 324q57 0 97 -40.5t40 -97.5t-40 -96t-97 -39t-97.5 39t-40.5 96t40.5 97.5t97.5 40.5z" />
    <glyph glyph-name="oslash" unicode="&#xf8;" horiz-adv-x="1220" 
d="M1053 848q106 -143 106 -330q0 -150 -71.5 -275t-197.5 -197.5t-280 -72.5q-212 0 -366 138l-105 -97l-73 82l104 94q-109 144 -109 328q0 150 72 275.5t198 197.5t279 72q216 0 367 -135l104 94l74 -80zM328 518q0 -80 37 -149l423 385q-75 59 -178 59
q-127 0 -204.5 -85t-77.5 -210zM610 223q127 0 205 85t78 210q0 85 -37 152l-422 -387q73 -60 176 -60z" />
    <glyph glyph-name="ugrave" unicode="&#xf9;" 
d="M805 1038h260v-1038h-260v127q-102 -154 -301 -154q-95 0 -169.5 36.5t-119.5 98.5t-68.5 138t-23.5 160v632h260v-577q0 -107 49 -170.5t152 -63.5q110 0 165.5 67.5t55.5 166.5v577zM602 1489l135 -287h-211l-198 287h274z" />
    <glyph glyph-name="uacute" unicode="&#xfa;" 
d="M805 1038h260v-1038h-260v127q-102 -154 -301 -154q-95 0 -169.5 36.5t-119.5 98.5t-68.5 138t-23.5 160v632h260v-577q0 -107 49 -170.5t152 -63.5q110 0 165.5 67.5t55.5 166.5v577zM604 1489h275l-199 -287h-209z" />
    <glyph glyph-name="ucircumflex" unicode="&#xfb;" 
d="M805 1038h260v-1038h-260v127q-102 -154 -301 -154q-95 0 -169.5 36.5t-119.5 98.5t-68.5 138t-23.5 160v632h260v-577q0 -107 49 -170.5t152 -63.5q110 0 165.5 67.5t55.5 166.5v577zM944 1202h-229l-121 164l-121 -164h-231l227 287h250z" />
    <glyph glyph-name="udieresis" unicode="&#xfc;" 
d="M805 1038h260v-1038h-260v127q-102 -154 -301 -154q-95 0 -169.5 36.5t-119.5 98.5t-68.5 138t-23.5 160v632h260v-577q0 -107 49 -170.5t152 -63.5q110 0 165.5 67.5t55.5 166.5v577zM379 1466q59 0 99 -40t40 -99t-40.5 -100t-98.5 -41q-59 0 -100 41t-41 100
q0 58 41 98.5t100 40.5zM811 1466q59 0 100 -40.5t41 -98.5q0 -59 -41 -100t-100 -41q-57 0 -98 41.5t-41 99.5t41 98.5t98 40.5z" />
    <glyph glyph-name="yacute" unicode="&#xfd;" horiz-adv-x="1134" 
d="M823 1038h281l-567 -1433h-267l191 456l-430 977h280l269 -686zM598 1489h274l-198 -287h-209z" />
    <glyph glyph-name="thorn" unicode="&#xfe;" horiz-adv-x="1282" 
d="M715 1063q94 0 176 -30.5t141.5 -83t102.5 -122t64.5 -148.5t21.5 -161t-21.5 -161t-64.5 -148.5t-102.5 -122t-141.5 -83t-176 -30.5q-216 0 -332 148v-516h-260v1829h260v-519q114 148 332 148zM674 223q129 0 204.5 85t75.5 210t-75.5 210t-204.5 85t-205 -85
t-76 -210t76 -210t205 -85z" />
    <glyph glyph-name="ydieresis" unicode="&#xff;" horiz-adv-x="1134" 
d="M823 1038h281l-567 -1433h-267l191 456l-430 977h280l269 -686zM352 1466q59 0 99.5 -40.5t40.5 -98.5q0 -59 -41 -100t-99 -41t-99.5 41t-41.5 100q0 58 41 98.5t100 40.5zM784 1466q59 0 100.5 -40.5t41.5 -98.5t-41.5 -99.5t-100.5 -41.5q-57 0 -98 41.5t-41 99.5
t41 98.5t98 40.5z" />
    <glyph glyph-name="Amacron" unicode="&#x100;" horiz-adv-x="1433" 
d="M1108 0l-96 285h-590l-96 -285h-295l516 1434h340l516 -1434h-295zM506 532h422l-211 621zM418 1837h596v-201h-596v201z" />
    <glyph glyph-name="amacron" unicode="&#x101;" horiz-adv-x="1116" 
d="M555 1063q438 0 438 -436v-627h-260v111q-38 -61 -119.5 -99.5t-183.5 -38.5q-49 0 -98.5 10.5t-98.5 34t-87 58t-61.5 87t-23.5 116.5q0 55 15.5 101.5t39 79.5t61 59.5t72 43t83 28.5t82.5 17.5t81.5 8.5t69.5 3.5t56 0.5h112q-2 115 -49.5 165t-165.5 50
q-107 0 -217 -76l-178 135q186 168 432 168zM733 281v176h-16q-184 0 -254 -16q-135 -31 -135 -138q0 -63 44 -102t136 -39q88 0 144.5 37.5t80.5 81.5zM270 1427h596v-200h-596v200z" />
    <glyph glyph-name="Abreve" unicode="&#x102;" horiz-adv-x="1433" 
d="M1108 0l-96 285h-590l-96 -285h-295l516 1434h340l516 -1434h-295zM506 532h422l-211 621zM860 1890h182q0 -141 -86 -224t-239 -83q-154 0 -240 83t-86 224h182q0 -57 35.5 -100t108.5 -43t108 43t35 100z" />
    <glyph glyph-name="abreve" unicode="&#x103;" horiz-adv-x="1116" 
d="M555 1063q438 0 438 -436v-627h-260v111q-38 -61 -119.5 -99.5t-183.5 -38.5q-49 0 -98.5 10.5t-98.5 34t-87 58t-61.5 87t-23.5 116.5q0 55 15.5 101.5t39 79.5t61 59.5t72 43t83 28.5t82.5 17.5t81.5 8.5t69.5 3.5t56 0.5h112q-2 115 -49.5 165t-165.5 50
q-107 0 -217 -76l-178 135q186 168 432 168zM733 281v176h-16q-184 0 -254 -16q-135 -31 -135 -138q0 -63 44 -102t136 -39q88 0 144.5 37.5t80.5 81.5zM711 1481h182q0 -141 -86 -224t-240 -83q-153 0 -239 83t-86 224h182q0 -58 35 -101t108 -43t108.5 43.5t35.5 100.5z
" />
    <glyph glyph-name="Aogonek" unicode="&#x104;" horiz-adv-x="1433" 
d="M1384 0q-165 -104 -165 -221q0 -41 26 -65.5t80 -24.5q27 0 59 8v-168q-44 -14 -96 -14q-107 0 -175.5 54t-68.5 144q0 167 191 287h-127l-96 285h-590l-96 -285h-295l516 1434h340l516 -1434h-19zM506 532h422l-211 621z" />
    <glyph glyph-name="aogonek" unicode="&#x105;" horiz-adv-x="1116" 
d="M993 0q-166 -105 -166 -221q0 -41 26.5 -65.5t80.5 -24.5q31 0 59 8v-168q-44 -14 -96 -14q-105 0 -173.5 54t-68.5 144q0 168 189 287h-109v111q-39 -62 -120 -100t-183 -38q-49 0 -99 10.5t-99.5 34t-87.5 58t-61.5 87t-23.5 116.5q0 55 15.5 101.5t39 79.5t61.5 59.5
t72.5 43t83 28.5t82.5 17.5t81.5 8.5t69 3.5t55.5 0.5h112q-2 115 -49 165t-166 50q-61 0 -119 -24t-96 -52l-178 135q186 168 430 168q438 0 438 -436v-627zM735 281v176h-18q-184 0 -254 -16q-135 -31 -135 -138q0 -63 44.5 -102t135.5 -39q89 0 145 37t82 82z" />
    <glyph glyph-name="Cacute" unicode="&#x106;" horiz-adv-x="1421" 
d="M811 238q214 0 340 153l229 -151q-99 -126 -246 -196.5t-323 -70.5q-208 0 -375.5 98t-260.5 268t-93 378q0 156 54.5 293t150.5 235.5t232 155.5t292 57q177 0 324 -70t245 -196l-229 -152q-127 154 -340 154q-107 0 -195 -41t-142.5 -108.5t-84 -152t-29.5 -175.5
q0 -92 29.5 -176.5t84 -152.5t142.5 -109t195 -41zM782 1898h275l-199 -286h-209z" />
    <glyph glyph-name="cacute" unicode="&#x107;" horiz-adv-x="1107" 
d="M610 223q81 0 142 35.5t98 97.5l227 -129q-73 -118 -196 -186t-271 -68q-153 0 -279 72.5t-198 197.5t-72 275t72 275.5t198 197.5t279 72q148 0 271 -68t196 -184l-227 -131q-37 62 -98 97.5t-142 35.5q-127 0 -204.5 -85t-77.5 -210t77.5 -210t204.5 -85zM580 1489h274
l-199 -287h-209z" />
    <glyph glyph-name="Ccircumflex" unicode="&#x108;" horiz-adv-x="1421" 
d="M811 238q214 0 340 153l229 -151q-99 -126 -246 -196.5t-323 -70.5q-208 0 -375.5 98t-260.5 268t-93 378q0 156 54.5 293t150.5 235.5t232 155.5t292 57q177 0 324 -70t245 -196l-229 -152q-127 154 -340 154q-107 0 -195 -41t-142.5 -108.5t-84 -152t-29.5 -175.5
q0 -92 29.5 -176.5t84 -152.5t142.5 -109t195 -41zM1122 1612h-229l-121 164l-121 -164h-231l227 286h250z" />
    <glyph glyph-name="ccircumflex" unicode="&#x109;" horiz-adv-x="1107" 
d="M610 223q81 0 142 35.5t98 97.5l227 -129q-73 -118 -196 -186t-271 -68q-153 0 -279 72.5t-198 197.5t-72 275t72 275.5t198 197.5t279 72q148 0 271 -68t196 -184l-227 -131q-37 62 -98 97.5t-142 35.5q-127 0 -204.5 -85t-77.5 -210t77.5 -210t204.5 -85zM961 1202
h-230l-121 164l-121 -164h-231l227 287h250z" />
    <glyph glyph-name="Cdotaccent" unicode="&#x10a;" horiz-adv-x="1421" 
d="M811 238q214 0 340 153l229 -151q-99 -126 -246 -196.5t-323 -70.5q-208 0 -375.5 98t-260.5 268t-93 378q0 156 54.5 293t150.5 235.5t232 155.5t292 57q177 0 324 -70t245 -196l-229 -152q-127 154 -340 154q-107 0 -195 -41t-142.5 -108.5t-84 -152t-29.5 -175.5
q0 -92 29.5 -176.5t84 -152.5t142.5 -109t195 -41zM770 1876q59 0 100 -40.5t41 -98.5q0 -59 -41.5 -100.5t-99.5 -41.5q-57 0 -98 42t-41 100t41 98.5t98 40.5z" />
    <glyph glyph-name="cdotaccent" unicode="&#x10b;" horiz-adv-x="1107" 
d="M610 223q81 0 142 35.5t98 97.5l227 -129q-73 -118 -196 -186t-271 -68q-153 0 -279 72.5t-198 197.5t-72 275t72 275.5t198 197.5t279 72q148 0 271 -68t196 -184l-227 -131q-37 62 -98 97.5t-142 35.5q-127 0 -204.5 -85t-77.5 -210t77.5 -210t204.5 -85zM608 1466
q59 0 100.5 -40.5t41.5 -98.5t-41.5 -99.5t-100.5 -41.5q-57 0 -98 41.5t-41 99.5t41 98.5t98 40.5z" />
    <glyph glyph-name="Ccaron" unicode="&#x10c;" horiz-adv-x="1421" 
d="M811 238q214 0 340 153l229 -151q-99 -126 -246 -196.5t-323 -70.5q-208 0 -375.5 98t-260.5 268t-93 378q0 156 54.5 293t150.5 235.5t232 155.5t292 57q177 0 324 -70t245 -196l-229 -152q-127 154 -340 154q-107 0 -195 -41t-142.5 -108.5t-84 -152t-29.5 -175.5
q0 -92 29.5 -176.5t84 -152.5t142.5 -109t195 -41zM893 1898h229l-225 -286h-250l-225 286h229l121 -165z" />
    <glyph glyph-name="ccaron" unicode="&#x10d;" horiz-adv-x="1107" 
d="M610 223q81 0 142 35.5t98 97.5l227 -129q-73 -118 -196 -186t-271 -68q-153 0 -279 72.5t-198 197.5t-72 275t72 275.5t198 197.5t279 72q148 0 271 -68t196 -184l-227 -131q-37 62 -98 97.5t-142 35.5q-127 0 -204.5 -85t-77.5 -210t77.5 -210t204.5 -85zM711 1489h229
l-225 -287h-250l-225 287h229l121 -166z" />
    <glyph glyph-name="Dcaron" unicode="&#x10e;" horiz-adv-x="1423" 
d="M580 1434q234 0 407.5 -91.5t263.5 -253t90 -372.5t-90 -372.5t-263.5 -253t-407.5 -91.5h-447v1434h447zM580 258q100 0 185.5 27.5t153 82t106 144t38.5 205.5t-38.5 205.5t-106 144t-153 82t-185.5 27.5h-168v-918h168zM817 1898h230l-226 -286h-250l-225 286h229
l121 -165z" />
    <glyph glyph-name="dcaron" unicode="&#x10f;" horiz-adv-x="1427" 
d="M1376 1434h256l-166 -306h-202zM899 1434h260v-1434h-260v121q-120 -148 -332 -148q-94 0 -176 30.5t-141.5 83t-102.5 122t-64.5 148.5t-21.5 161t21.5 161t64.5 148.5t102.5 122t141.5 83t176 30.5q215 0 332 -148v519zM608 223q129 0 204 85t75 210t-75 210t-204 85
t-204.5 -85t-75.5 -210t75.5 -210t204.5 -85z" />
    <glyph glyph-name="Dcroat" unicode="&#x110;" horiz-adv-x="1501" 
d="M655 1434q177 0 321 -53t241 -147.5t149.5 -226.5t52.5 -290t-52.5 -290t-149.5 -226.5t-241 -147.5t-321 -53h-444v643h-180v145h180v646h444zM655 258q101 0 187 27.5t154 82t106.5 144t38.5 205.5t-38.5 205.5t-106.5 144t-154 82t-187 27.5h-166v-388h326v-145h-326
v-385h166z" />
    <glyph glyph-name="dcroat" unicode="&#x111;" horiz-adv-x="1282" 
d="M1284 1239v-111h-125v-1128h-260v109q-115 -136 -330 -136q-118 0 -215.5 41t-160.5 111t-97.5 161.5t-34.5 194.5t34.5 200t97.5 174.5t161 124t215 46.5q217 0 330 -147v249h-272v111h272v195h260v-195h125zM608 186q129 0 205 85t76 210q0 126 -76 210.5t-205 84.5
t-204.5 -85t-75.5 -210q0 -124 75.5 -209.5t204.5 -85.5z" />
    <glyph glyph-name="Emacron" unicode="&#x112;" horiz-adv-x="1071" 
d="M410 258h569v-258h-846v1434h828v-258h-551v-324h503v-258h-503v-336zM258 1837h596v-201h-596v201z" />
    <glyph glyph-name="emacron" unicode="&#x113;" horiz-adv-x="1175" 
d="M592 1063q118 0 219.5 -44t173.5 -124t106 -204t17 -273h-770q27 -102 106 -157.5t189 -55.5q80 0 140.5 32t90.5 70l209 -123q-67 -93 -183 -152t-257 -59q-127 0 -234 41t-181 113t-115.5 173t-41.5 218q0 119 42.5 222t115 173t169.5 110t204 40zM338 618h516
q-20 102 -87 157.5t-171 55.5q-96 0 -165.5 -57t-92.5 -156zM309 1427h596v-200h-596v200z" />
    <glyph glyph-name="Ebreve" unicode="&#x114;" horiz-adv-x="1071" 
d="M410 258h569v-258h-846v1434h828v-258h-551v-324h503v-258h-503v-336zM698 1890h183q0 -141 -86 -224t-240 -83t-240 83t-86 224h183q0 -57 35 -100t108 -43t108 43t35 100z" />
    <glyph glyph-name="ebreve" unicode="&#x115;" horiz-adv-x="1175" 
d="M592 1063q118 0 219.5 -44t173.5 -124t106 -204t17 -273h-770q27 -102 106 -157.5t189 -55.5q80 0 140.5 32t90.5 70l209 -123q-67 -93 -183 -152t-257 -59q-127 0 -234 41t-181 113t-115.5 173t-41.5 218q0 119 42.5 222t115 173t169.5 110t204 40zM338 618h516
q-20 102 -87 157.5t-171 55.5q-96 0 -165.5 -57t-92.5 -156zM752 1481h182q0 -141 -86 -224t-240 -83q-153 0 -239 83t-86 224h182q0 -58 35 -101t108 -43t108.5 43.5t35.5 100.5z" />
    <glyph glyph-name="Edotaccent" unicode="&#x116;" horiz-adv-x="1071" 
d="M410 258h569v-258h-846v1434h828v-258h-551v-324h503v-258h-503v-336zM555 1876q59 0 100 -40.5t41 -98.5q0 -59 -41.5 -100.5t-99.5 -41.5q-57 0 -98 42t-41 100t41 98.5t98 40.5z" />
    <glyph glyph-name="edotaccent" unicode="&#x117;" horiz-adv-x="1175" 
d="M592 1063q118 0 219.5 -44t173.5 -124t106 -204t17 -273h-770q27 -102 106 -157.5t189 -55.5q80 0 140.5 32t90.5 70l209 -123q-67 -93 -183 -152t-257 -59q-127 0 -234 41t-181 113t-115.5 173t-41.5 218q0 119 42.5 222t115 173t169.5 110t204 40zM338 618h516
q-20 102 -87 157.5t-171 55.5q-96 0 -165.5 -57t-92.5 -156zM606 1466q59 0 100.5 -40.5t41.5 -98.5t-41.5 -99.5t-100.5 -41.5q-57 0 -98 41.5t-41 99.5t41 98.5t98 40.5z" />
    <glyph glyph-name="Eogonek" unicode="&#x118;" horiz-adv-x="1071" 
d="M979 0q-166 -103 -166 -221q0 -41 26.5 -65.5t80.5 -24.5q27 0 59 8v-168q-47 -14 -98 -14q-105 0 -173.5 54t-68.5 144q0 51 17.5 97.5t48 82t59.5 61t63 46.5h-694v1434h828v-258h-549v-324h501v-258h-501v-336h567v-258z" />
    <glyph glyph-name="eogonek" unicode="&#x119;" horiz-adv-x="1175" 
d="M592 1063q118 0 219.5 -44t173.5 -124t106 -204t17 -273h-770q27 -102 106 -157.5t189 -55.5q80 0 140.5 32t90.5 70l209 -123q-51 -70 -131 -121.5t-180 -74.5q-150 -96 -150 -209q0 -41 27 -65.5t82 -24.5q27 0 59 8v-168q-47 -14 -98 -14q-105 0 -173.5 54t-68.5 144
q0 149 154 262q-241 12 -387 163t-146 380q0 119 42.5 222t115 173t169.5 110t204 40zM338 618h516q-20 102 -87 157.5t-169 55.5q-97 0 -166 -56.5t-94 -156.5z" />
    <glyph glyph-name="Ecaron" unicode="&#x11a;" horiz-adv-x="1071" 
d="M410 258h569v-258h-846v1434h828v-258h-551v-324h503v-258h-503v-336zM676 1898h229l-225 -286h-250l-225 286h229l121 -165z" />
    <glyph glyph-name="ecaron" unicode="&#x11b;" horiz-adv-x="1175" 
d="M592 1063q118 0 219.5 -44t173.5 -124t106 -204t17 -273h-770q27 -102 106 -157.5t189 -55.5q80 0 140.5 32t90.5 70l209 -123q-67 -93 -183 -152t-257 -59q-127 0 -234 41t-181 113t-115.5 173t-41.5 218q0 119 42.5 222t115 173t169.5 110t204 40zM338 618h516
q-20 102 -87 157.5t-171 55.5q-96 0 -165.5 -57t-92.5 -156zM729 1489h229l-225 -287h-250l-225 287h229l121 -166z" />
    <glyph glyph-name="Gcircumflex" unicode="&#x11c;" horiz-adv-x="1581" 
d="M829 811h639v-811h-149l-37 205q-160 -232 -471 -232q-209 0 -376.5 98t-260 268t-92.5 378t92.5 377t260 266.5t376.5 97.5q176 0 322.5 -69.5t244.5 -194.5l-229 -154q-127 154 -338 154q-107 0 -195 -41t-142.5 -108.5t-84 -152t-29.5 -175.5q0 -92 29.5 -176.5
t84 -152t142 -108t195.5 -40.5q178 0 285.5 90.5t140.5 238.5h-408v242zM1139 1612h-230l-121 164l-120 -164h-232l228 286h249z" />
    <glyph glyph-name="gcircumflex" unicode="&#x11d;" horiz-adv-x="1275" 
d="M893 1038h260v-925q0 -110 -36.5 -205t-106 -167t-177.5 -113.5t-243 -41.5q-157 0 -291.5 58.5t-200.5 150.5l211 125q32 -42 104 -72t169 -30q151 0 231 80.5t80 232.5v76q-112 -160 -328 -160q-114 0 -210 41.5t-159.5 112t-99 162t-35.5 192.5t35.5 192.5t99 162
t159.5 112t210 41.5q216 0 328 -160v135zM604 279q127 0 202 79t75 197t-75 197t-202 79q-124 0 -200 -78.5t-76 -197.5t76 -197.5t200 -78.5zM979 1202h-229l-121 164l-121 -164h-232l228 287h250z" />
    <glyph glyph-name="Gbreve" unicode="&#x11e;" horiz-adv-x="1581" 
d="M829 811h639v-811h-149l-37 205q-160 -232 -471 -232q-209 0 -376.5 98t-260 268t-92.5 378t92.5 377t260 266.5t376.5 97.5q176 0 322.5 -69.5t244.5 -194.5l-229 -154q-127 154 -338 154q-107 0 -195 -41t-142.5 -108.5t-84 -152t-29.5 -175.5q0 -92 29.5 -176.5
t84 -152t142 -108t195.5 -40.5q178 0 285.5 90.5t140.5 238.5h-408v242zM930 1890h182q0 -141 -86 -224t-240 -83q-153 0 -239 83t-86 224h182q0 -57 35 -100t108 -43t108.5 43t35.5 100z" />
    <glyph glyph-name="gbreve" unicode="&#x11f;" horiz-adv-x="1275" 
d="M893 1038h260v-925q0 -110 -36.5 -205t-106 -167t-177.5 -113.5t-243 -41.5q-157 0 -291.5 58.5t-200.5 150.5l211 125q32 -42 104 -72t169 -30q151 0 231 80.5t80 232.5v76q-112 -160 -328 -160q-114 0 -210 41.5t-159.5 112t-99 162t-35.5 192.5t35.5 192.5t99 162
t159.5 112t210 41.5q216 0 328 -160v135zM604 279q127 0 202 79t75 197t-75 197t-202 79q-124 0 -200 -78.5t-76 -197.5t76 -197.5t200 -78.5zM770 1481h182q0 -141 -86 -224t-239 -83q-154 0 -240 83t-86 224h182q0 -57 35.5 -100.5t108.5 -43.5t108 43t35 101z" />
    <glyph glyph-name="Gdotaccent" unicode="&#x120;" horiz-adv-x="1581" 
d="M829 811h639v-811h-149l-37 205q-160 -232 -471 -232q-209 0 -376.5 98t-260 268t-92.5 378t92.5 377t260 266.5t376.5 97.5q176 0 322.5 -69.5t244.5 -194.5l-229 -154q-127 154 -338 154q-107 0 -195 -41t-142.5 -108.5t-84 -152t-29.5 -175.5q0 -92 29.5 -176.5
t84 -152t142 -108t195.5 -40.5q178 0 285.5 90.5t140.5 238.5h-408v242zM786 1876q59 0 100.5 -40.5t41.5 -98.5q0 -59 -42 -100.5t-100 -41.5q-57 0 -98 42t-41 100t41 98.5t98 40.5z" />
    <glyph glyph-name="gdotaccent" unicode="&#x121;" horiz-adv-x="1275" 
d="M893 1038h260v-925q0 -110 -36.5 -205t-106 -167t-177.5 -113.5t-243 -41.5q-157 0 -291.5 58.5t-200.5 150.5l211 125q32 -42 104 -72t169 -30q151 0 231 80.5t80 232.5v76q-112 -160 -328 -160q-114 0 -210 41.5t-159.5 112t-99 162t-35.5 192.5t35.5 192.5t99 162
t159.5 112t210 41.5q216 0 328 -160v135zM604 279q127 0 202 79t75 197t-75 197t-202 79q-124 0 -200 -78.5t-76 -197.5t76 -197.5t200 -78.5zM627 1466q59 0 100 -40.5t41 -98.5q0 -59 -41 -100t-100 -41q-57 0 -98.5 41.5t-41.5 99.5t41.5 98.5t98.5 40.5z" />
    <glyph glyph-name="Gcommaaccent" unicode="&#x122;" horiz-adv-x="1581" 
d="M829 811h639v-811h-149l-37 205q-160 -232 -471 -232q-209 0 -376.5 98t-260 268t-92.5 378t92.5 377t260 266.5t376.5 97.5q176 0 322.5 -69.5t244.5 -194.5l-229 -154q-127 154 -338 154q-107 0 -195 -41t-142.5 -108.5t-84 -152t-29.5 -175.5q0 -92 29.5 -176.5
t84 -152t142 -108t195.5 -40.5q178 0 285.5 90.5t140.5 238.5h-408v242zM674 -168h256l-166 -305h-203z" />
    <glyph glyph-name="gcommaaccent" unicode="&#x123;" horiz-adv-x="1275" 
d="M893 1038h260v-925q0 -110 -36.5 -205t-106 -167t-177.5 -113.5t-243 -41.5q-157 0 -291.5 58.5t-200.5 150.5l211 125q32 -42 104 -72t169 -30q151 0 231 80.5t80 232.5v76q-112 -160 -328 -160q-114 0 -210 41.5t-159.5 112t-99 162t-35.5 192.5t35.5 192.5t99 162
t159.5 112t210 41.5q216 0 328 -160v135zM604 279q127 0 202 79t75 197t-75 197t-202 79q-124 0 -200 -78.5t-76 -197.5t76 -197.5t200 -78.5zM776 1202h-256l166 305h203z" />
    <glyph glyph-name="Hcircumflex" unicode="&#x124;" horiz-adv-x="1417" 
d="M1006 1434h278v-1434h-278v594h-594v-594h-279v1434h279v-582h594v582zM1059 1612h-230l-120 164l-121 -164h-232l228 286h250z" />
    <glyph glyph-name="hcircumflex" unicode="&#x125;" 
d="M684 1063q95 0 169.5 -36.5t119.5 -98t68.5 -137.5t23.5 -160v-631h-260v578q0 107 -49 170t-154 63q-109 0 -165 -67.5t-56 -165.5v-578h-258v1434h258v-523q103 152 303 152zM879 1612h-230l-121 164l-120 -164h-232l227 286h250z" />
    <glyph glyph-name="Hbar" unicode="&#x126;" horiz-adv-x="1552" 
d="M1532 1221v-148h-182v-1073h-279v594h-592v-594h-278v1073h-181v148h181v213h278v-213h592v213h279v-213h182zM1071 852v221h-592v-221h592z" />
    <glyph glyph-name="hbar" unicode="&#x127;" 
d="M684 1026q95 0 169.5 -36t119.5 -97.5t68.5 -137.5t23.5 -161v-594h-258v541q0 106 -49.5 169.5t-153.5 63.5q-109 0 -165 -67.5t-56 -165.5v-541h-260v1128h-125v111h125v195h260v-195h272v-111h-272v-254q103 152 301 152z" />
    <glyph glyph-name="Itilde" unicode="&#x128;" horiz-adv-x="542" 
d="M133 1434h277v-1434h-277v1434zM440 1829l154 -27q-1 -100 -47.5 -156.5t-126.5 -56.5q-54 0 -137.5 30t-122.5 30q-33 0 -46.5 -24t-13.5 -54l-151 26q1 102 47.5 157.5t124.5 55.5q55 0 138 -29.5t120 -29.5q61 0 61 78z" />
    <glyph glyph-name="itilde" unicode="&#x129;" horiz-adv-x="505" 
d="M123 0v1038h260v-1038h-260zM422 1419l153 -26q-1 -100 -47.5 -156.5t-126.5 -56.5q-55 0 -138 29.5t-122 29.5q-33 0 -46 -24t-13 -54l-152 27q1 102 47.5 157.5t124.5 55.5q55 0 138 -30t120 -30q35 0 48.5 24t13.5 54z" />
    <glyph glyph-name="Imacron" unicode="&#x12a;" horiz-adv-x="542" 
d="M133 1434h277v-1434h-277v1434zM-27 1837h596v-201h-596v201z" />
    <glyph glyph-name="imacron" unicode="&#x12b;" horiz-adv-x="505" 
d="M123 0v1038h260v-1038h-260zM-45 1427h596v-200h-596v200z" />
    <glyph glyph-name="Ibreve" unicode="&#x12c;" horiz-adv-x="542" 
d="M133 1434h277v-1434h-277v1434zM418 1890h182q0 -141 -86 -224t-240 -83q-153 0 -239 83t-86 224h182q0 -57 35 -100t108 -43t108.5 43t35.5 100z" />
    <glyph glyph-name="ibreve" unicode="&#x12d;" horiz-adv-x="505" 
d="M123 0v1038h260v-1038h-260zM399 1481h183q0 -141 -86 -224t-240 -83t-240 83t-86 224h183q0 -58 35 -101t108 -43t108 43t35 101z" />
    <glyph glyph-name="Iogonek" unicode="&#x12e;" horiz-adv-x="542" 
d="M410 0q-168 -104 -168 -221q0 -41 26 -65.5t80 -24.5q30 0 62 8v-168q-47 -14 -99 -14q-105 0 -173 54t-68 144q0 51 17.5 97.5t48 82t59.5 61t63 46.5h-127v1434h279v-1434z" />
    <glyph glyph-name="iogonek" unicode="&#x12f;" horiz-adv-x="505" 
d="M123 0v1038h260v-1038q-166 -103 -166 -221q0 -41 26.5 -65.5t80.5 -24.5q27 0 59 8v-168q-44 -14 -96 -14q-107 0 -175.5 54t-68.5 144q0 51 17.5 97.5t48 82t59.5 61t63 46.5h-108zM254 1190q-58 0 -98.5 40t-40.5 99q0 57 40.5 97t98.5 40q57 0 97 -40t40 -97
q0 -58 -40 -98.5t-97 -40.5z" />
    <glyph glyph-name="Idotaccent" unicode="&#x130;" horiz-adv-x="542" 
d="M133 1434h277v-1434h-277v1434zM270 1876q59 0 100.5 -40.5t41.5 -98.5q0 -59 -42 -100.5t-100 -41.5q-57 0 -98 42t-41 100t41 98.5t98 40.5z" />
    <glyph glyph-name="dotlessi" unicode="&#x131;" horiz-adv-x="505" 
d="M123 0v1038h260v-1038h-260z" />
    <glyph glyph-name="IJ" unicode="&#x132;" horiz-adv-x="1681" 
d="M133 1434h277v-1434h-277v1434zM1270 1434h278v-936q0 -118 -28 -211.5t-87 -165t-158 -110t-233 -38.5q-221 0 -358.5 118t-151.5 298l281 51q3 -33 15.5 -65t37 -64.5t70.5 -52.5t106 -20q65 0 111 20t71 57t35.5 81.5t10.5 101.5v936z" />
    <glyph glyph-name="ij" unicode="&#x133;" horiz-adv-x="1015" 
d="M123 0v1038h260v-1038h-260zM252 1190q-57 0 -97 40.5t-40 98.5q0 57 40 97t97 40q58 0 98.5 -40t40.5 -97q0 -59 -40.5 -99t-98.5 -40zM633 53v985h258v-1020q0 -181 -94.5 -289t-282.5 -108q-40 0 -90 8v238q4 0 14.5 -1t16.5 -1q90 0 134 44.5t44 143.5zM762 1190
q-57 0 -98 40.5t-41 98.5q0 57 41 97t98 40t98 -40t41 -97q0 -58 -41 -98.5t-98 -40.5z" />
    <glyph glyph-name="Jcircumflex" unicode="&#x134;" horiz-adv-x="1189" 
d="M778 1434h279v-936q0 -118 -28 -211.5t-87 -165t-158 -110t-233 -38.5q-221 0 -358.5 118t-151.5 298l281 51q3 -33 15.5 -65t37 -64.5t70.5 -52.5t106 -20q125 0 176 70t51 190v936zM1264 1612h-230l-121 164l-120 -164h-232l227 286h250z" />
    <glyph glyph-name="jcircumflex" unicode="&#x135;" horiz-adv-x="505" 
d="M123 53v985h258v-1020q0 -181 -94.5 -289t-282.5 -108q-40 0 -90 8v238q4 0 14 -1t17 -1q90 0 134 44.5t44 143.5zM604 1202h-229l-121 164l-121 -164h-231l227 287h250z" />
    <glyph glyph-name="Kcommaaccent" unicode="&#x136;" horiz-adv-x="1304" 
d="M1274 0h-336l-528 666v-666h-277v1434h277v-684l493 684h318l-535 -707zM549 -168h256l-166 -305h-203z" />
    <glyph glyph-name="kcommaaccent" unicode="&#x137;" horiz-adv-x="1097" 
d="M1067 0h-317l-369 494v-494h-258v1434h258v-836l324 440h299l-371 -479zM440 -168h256l-166 -305h-202z" />
    <glyph glyph-name="kgreenlandic" unicode="&#x138;" horiz-adv-x="1097" 
d="M1067 0h-317l-369 494v-494h-258v1038h258v-440l324 440h299l-371 -479z" />
    <glyph glyph-name="Lacute" unicode="&#x139;" horiz-adv-x="1034" 
d="M410 258h553v-258h-830v1434h277v-1176zM313 1898h275l-199 -286h-209z" />
    <glyph glyph-name="lacute" unicode="&#x13a;" horiz-adv-x="505" 
d="M123 1434h260v-1434h-260v1434zM289 1898h274l-198 -286h-209z" />
    <glyph glyph-name="Lcommaaccent" unicode="&#x13b;" horiz-adv-x="1034" 
d="M410 258h553v-258h-830v1434h277v-1176zM434 -168h256l-166 -305h-202z" />
    <glyph glyph-name="lcommaaccent" unicode="&#x13c;" horiz-adv-x="505" 
d="M123 1434h260v-1434h-260v1434zM117 -168h256l-166 -305h-203z" />
    <glyph glyph-name="Lcaron" unicode="&#x13d;" horiz-adv-x="1034" 
d="M627 1434h256l-166 -306h-203zM410 258h553v-258h-830v1434h277v-1176z" />
    <glyph glyph-name="lcaron" unicode="&#x13e;" horiz-adv-x="651" 
d="M600 1434h256l-166 -306h-203zM123 1434h260v-1434h-260v1434z" />
    <glyph glyph-name="Ldot" unicode="&#x13f;" horiz-adv-x="1034" 
d="M737 571q-58 0 -99.5 41.5t-41.5 100.5t41 100t100 41t100.5 -41.5t41.5 -99.5q0 -59 -41.5 -100.5t-100.5 -41.5zM410 258h553v-258h-830v1434h277v-1176z" />
    <glyph glyph-name="ldot" unicode="&#x140;" horiz-adv-x="858" 
d="M686 819q58 0 99.5 -41.5t41.5 -99.5q0 -60 -41 -100.5t-100 -40.5t-100 40.5t-41 100.5q0 58 41.5 99.5t99.5 41.5zM123 1434h260v-1434h-260v1434z" />
    <glyph glyph-name="Lslash" unicode="&#x141;" horiz-adv-x="1120" 
d="M498 258h551v-258h-830v492l-139 -78l-70 123l209 116v781h279v-623l231 129l70 -123l-301 -168v-391z" />
    <glyph glyph-name="lslash" unicode="&#x142;" horiz-adv-x="675" 
d="M666 852l-199 -121v-731h-260v573l-141 -84l-56 93l197 120v732h260v-574l141 86z" />
    <glyph glyph-name="Nacute" unicode="&#x143;" horiz-adv-x="1431" 
d="M1020 1434h278v-1434h-251l-635 948v-948h-279v1434h252l635 -949v949zM727 1898h274l-198 -286h-209z" />
    <glyph glyph-name="nacute" unicode="&#x144;" 
d="M684 1063q95 0 169.5 -36.5t119.5 -98t68.5 -137.5t23.5 -160v-631h-260v578q0 107 -49 170t-154 63q-109 0 -165 -67.5t-56 -165.5v-578h-258v1038h258v-127q103 152 303 152zM604 1489h275l-199 -287h-209z" />
    <glyph glyph-name="Ncommaaccent" unicode="&#x145;" horiz-adv-x="1431" 
d="M1020 1434h278v-1434h-251l-635 948v-948h-279v1434h252l635 -949v949zM602 -168h256l-166 -305h-203z" />
    <glyph glyph-name="ncommaaccent" unicode="&#x146;" 
d="M684 1063q95 0 169.5 -36.5t119.5 -98t68.5 -137.5t23.5 -160v-631h-260v578q0 107 -49 170t-154 63q-109 0 -165 -67.5t-56 -165.5v-578h-258v1038h258v-127q103 152 303 152zM481 -168h256l-166 -305h-202z" />
    <glyph glyph-name="Ncaron" unicode="&#x147;" horiz-adv-x="1431" 
d="M1020 1434h278v-1434h-251l-635 948v-948h-279v1434h252l635 -949v949zM836 1898h229l-225 -286h-250l-225 286h229l121 -165z" />
    <glyph glyph-name="ncaron" unicode="&#x148;" 
d="M684 1063q95 0 169.5 -36.5t119.5 -98t68.5 -137.5t23.5 -160v-631h-260v578q0 107 -49 170t-154 63q-109 0 -165 -67.5t-56 -165.5v-578h-258v1038h258v-127q103 152 303 152zM715 1489h229l-225 -287h-250l-225 287h229l121 -166z" />
    <glyph glyph-name="napostrophe" unicode="&#x149;" horiz-adv-x="1253" 
d="M750 1063q94 0 168.5 -36.5t119.5 -98t68.5 -137.5t23.5 -160v-631h-260v578q0 106 -49 169.5t-153 63.5q-109 0 -165.5 -68t-56.5 -165v-578h-260v1038h260v-127q103 152 304 152zM92 1434h256l-168 -306h-200z" />
    <glyph glyph-name="Eng" unicode="&#x14a;" horiz-adv-x="1431" 
d="M1022 1434h276v-1407q0 -459 -376 -459q-51 0 -127 12v240q60 -4 100.5 3t65.5 21.5t38 45t17.5 63.5t5.5 86l-610 909v-948h-279v1434h252l637 -949v949z" />
    <glyph glyph-name="eng" unicode="&#x14b;" horiz-adv-x="1189" 
d="M686 1063q94 0 168.5 -36.5t120 -98t69 -137.5t23.5 -160v-613q0 -181 -95.5 -289t-283.5 -108q-40 0 -90 8v238q4 0 15 -1t18 -1q91 0 133.5 43t42.5 145v525q0 107 -49 170t-154 63q-109 0 -165 -67.5t-56 -165.5v-578h-260v1038h260v-127q103 152 303 152z" />
    <glyph glyph-name="Omacron" unicode="&#x14c;" horiz-adv-x="1622" 
d="M811 1458q156 0 292 -57t232 -155.5t150.5 -235.5t54.5 -293q0 -208 -93 -378t-260.5 -268t-375.5 -98t-375.5 98t-260.5 268t-93 378q0 156 54.5 293t150.5 235.5t232 155.5t292 57zM811 238q107 0 195 41t142.5 109t84 152.5t29.5 176.5q0 91 -29.5 175.5t-84 152
t-142.5 108.5t-195 41t-195 -41t-142.5 -108.5t-84 -152t-29.5 -175.5q0 -92 29.5 -176.5t84 -152.5t142.5 -109t195 -41zM514 1837h596v-201h-596v201z" />
    <glyph glyph-name="omacron" unicode="&#x14d;" horiz-adv-x="1218" 
d="M608 1063q154 0 280 -72t197.5 -197t71.5 -276q0 -150 -71.5 -275t-197.5 -197.5t-280 -72.5q-153 0 -278.5 72.5t-197 197.5t-71.5 275q0 151 71.5 276t197 197t278.5 72zM608 223q127 0 205 85t78 210t-78 210t-205 85q-126 0 -203 -85t-77 -210t77 -210t203 -85z
M311 1427h596v-200h-596v200z" />
    <glyph glyph-name="Obreve" unicode="&#x14e;" horiz-adv-x="1622" 
d="M811 1458q156 0 292 -57t232 -155.5t150.5 -235.5t54.5 -293q0 -208 -93 -378t-260.5 -268t-375.5 -98t-375.5 98t-260.5 268t-93 378q0 156 54.5 293t150.5 235.5t232 155.5t292 57zM811 238q107 0 195 41t142.5 109t84 152.5t29.5 176.5q0 91 -29.5 175.5t-84 152
t-142.5 108.5t-195 41t-195 -41t-142.5 -108.5t-84 -152t-29.5 -175.5q0 -92 29.5 -176.5t84 -152.5t142.5 -109t195 -41zM954 1890h183q0 -141 -86 -224t-240 -83t-240 83t-86 224h183q0 -57 35 -100t108 -43t108 43t35 100z" />
    <glyph glyph-name="obreve" unicode="&#x14f;" horiz-adv-x="1218" 
d="M608 1063q154 0 280 -72t197.5 -197t71.5 -276q0 -150 -71.5 -275t-197.5 -197.5t-280 -72.5q-153 0 -278.5 72.5t-197 197.5t-71.5 275q0 151 71.5 276t197 197t278.5 72zM608 223q127 0 205 85t78 210t-78 210t-205 85q-126 0 -203 -85t-77 -210t77 -210t203 -85z
M752 1481h182q0 -141 -86 -224t-240 -83q-153 0 -239 83t-86 224h182q0 -58 35 -101t108 -43t108.5 43.5t35.5 100.5z" />
    <glyph glyph-name="Ohungarumlaut" unicode="&#x150;" horiz-adv-x="1622" 
d="M811 1458q156 0 292 -57t232 -155.5t150.5 -235.5t54.5 -293q0 -208 -93 -378t-260.5 -268t-375.5 -98t-375.5 98t-260.5 268t-93 378q0 156 54.5 293t150.5 235.5t232 155.5t292 57zM811 238q107 0 195 41t142.5 109t84 152.5t29.5 176.5q0 91 -29.5 175.5t-84 152
t-142.5 108.5t-195 41t-195 -41t-142.5 -108.5t-84 -152t-29.5 -175.5q0 -92 29.5 -176.5t84 -152.5t142.5 -109t195 -41zM643 1898h275l-199 -286h-211zM1042 1898h275l-199 -286h-209z" />
    <glyph glyph-name="ohungarumlaut" unicode="&#x151;" horiz-adv-x="1218" 
d="M608 1063q154 0 280 -72t197.5 -197t71.5 -276q0 -150 -71.5 -275t-197.5 -197.5t-280 -72.5q-153 0 -278.5 72.5t-197 197.5t-71.5 275q0 151 71.5 276t197 197t278.5 72zM608 223q127 0 205 85t78 210t-78 210t-205 85q-126 0 -203 -85t-77 -210t77 -210t203 -85z
M422 1489h274l-198 -287h-211zM821 1489h275l-199 -287h-209z" />
    <glyph glyph-name="OE" unicode="&#x152;" horiz-adv-x="1933" 
d="M1272 258h569v-258h-995q-177 0 -321 53t-241 147.5t-149.5 226.5t-52.5 290t52.5 290t149.5 226.5t241 147.5t321 53h975v-258h-549v-324h504v-258h-504v-336zM846 258h149v918h-149q-101 0 -187 -27.5t-154 -82t-106.5 -144t-38.5 -205.5t38.5 -205.5t106.5 -144
t154 -82t187 -27.5z" />
    <glyph glyph-name="oe" unicode="&#x153;" horiz-adv-x="2000" 
d="M1417 1063q118 0 219.5 -44t173.5 -124t106 -204t17 -273h-770q27 -102 106.5 -157.5t190.5 -55.5q78 0 139 32t93 70l206 -123q-67 -93 -182 -152t-256 -59q-140 0 -251 48.5t-183 136.5q-75 -87 -183 -136t-233 -49q-153 0 -279 72.5t-198 197.5t-72 275t72 275.5
t198 197.5t279 72q125 0 232.5 -48t183.5 -134q70 87 171 134.5t220 47.5zM610 223q127 0 205 85t78 210t-78 210t-205 85t-204.5 -85t-77.5 -210t77.5 -210t204.5 -85zM1163 618h516q-20 102 -87 157.5t-169 55.5q-97 0 -166 -56.5t-94 -156.5z" />
    <glyph glyph-name="Racute" unicode="&#x154;" horiz-adv-x="1294" 
d="M1264 0h-318l-295 516h-22h-219v-516h-277v1434h496q239 0 386.5 -131.5t147.5 -337.5q0 -133 -66.5 -235t-185.5 -157zM410 1176v-420h219q113 0 181.5 53t68.5 156q0 97 -67 154t-183 57h-219zM606 1898h275l-199 -286h-209z" />
    <glyph glyph-name="racute" unicode="&#x155;" horiz-adv-x="790" 
d="M383 868q56 93 151.5 144t194.5 51v-283q-89 11 -153.5 -4.5t-101 -47t-58 -83.5t-27.5 -101.5t-6 -115.5v-428h-260v1038h260v-170zM395 1489h275l-199 -287h-209z" />
    <glyph glyph-name="Rcommaaccent" unicode="&#x156;" horiz-adv-x="1294" 
d="M1264 0h-318l-295 516h-22h-219v-516h-277v1434h496q239 0 386.5 -131.5t147.5 -337.5q0 -133 -66.5 -235t-185.5 -157zM410 1176v-420h219q113 0 181.5 53t68.5 156q0 97 -67 154t-183 57h-219zM565 -168h256l-166 -305h-202z" />
    <glyph glyph-name="rcommaaccent" unicode="&#x157;" horiz-adv-x="790" 
d="M383 868q56 93 151.5 144t194.5 51v-283q-89 11 -153.5 -4.5t-101 -47t-58 -83.5t-27.5 -101.5t-6 -115.5v-428h-260v1038h260v-170zM115 -168h256l-166 -305h-203z" />
    <glyph glyph-name="Rcaron" unicode="&#x158;" horiz-adv-x="1294" 
d="M1264 0h-318l-295 516h-22h-219v-516h-277v1434h496q239 0 386.5 -131.5t147.5 -337.5q0 -133 -66.5 -235t-185.5 -157zM410 1176v-420h219q113 0 181.5 53t68.5 156q0 97 -67 154t-183 57h-219zM737 1898h230l-226 -286h-249l-226 286h230l120 -165z" />
    <glyph glyph-name="rcaron" unicode="&#x159;" horiz-adv-x="790" 
d="M383 868q56 93 151.5 144t194.5 51v-283q-89 11 -153.5 -4.5t-101 -47t-58 -83.5t-27.5 -101.5t-6 -115.5v-428h-260v1038h260v-170zM516 1489h229l-225 -287h-250l-225 287h229l121 -166z" />
    <glyph glyph-name="Sacute" unicode="&#x15a;" horiz-adv-x="1214" 
d="M700 823q258 -59 360.5 -147.5t102.5 -259.5q0 -86 -31.5 -163.5t-94 -141t-168 -101t-240.5 -37.5q-138 0 -253.5 36.5t-203 117t-121.5 195.5l268 84q18 -74 94.5 -131.5t213.5 -57.5q114 0 186 45t72 133q0 30 -8.5 53.5t-30.5 41.5t-41.5 30t-61 24t-69.5 19t-86 20
t-92 21q-208 52 -296.5 155t-88.5 261q0 201 139.5 319.5t365.5 118.5q183 0 314 -88t176 -250l-270 -65q-14 64 -74 111.5t-160 47.5q-93 0 -155 -46.5t-62 -129.5q0 -26 6 -48.5t19 -40.5t26.5 -32t37 -25.5t40 -19t46.5 -16t46 -12.5t48.5 -11t45.5 -10zM618 1898h275
l-199 -286h-209z" />
    <glyph glyph-name="sacute" unicode="&#x15b;" horiz-adv-x="968" 
d="M551 621q198 -43 282.5 -108.5t84.5 -193.5q0 -158 -114 -252t-327 -94q-76 0 -147 15.5t-132.5 46t-105.5 80t-61 112.5l250 78q8 -44 53.5 -78t146.5 -34q82 0 126 28t44 80q0 28 -15 47t-46.5 30.5t-60 17.5t-76 13t-74.5 13q-153 31 -228 107t-75 208
q0 147 112 236.5t295 89.5q142 0 254.5 -69.5t143.5 -198.5l-236 -58q-10 44 -51.5 75.5t-110.5 31.5q-64 0 -108.5 -26.5t-44.5 -80.5q0 -22 11.5 -39.5t27 -27.5t42 -18.5t46 -12.5t50 -9.5t44.5 -8.5zM485 1489h275l-199 -287h-209z" />
    <glyph glyph-name="Scircumflex" unicode="&#x15c;" horiz-adv-x="1214" 
d="M700 823q258 -59 360.5 -147.5t102.5 -259.5q0 -86 -31.5 -163.5t-94 -141t-168 -101t-240.5 -37.5q-138 0 -253.5 36.5t-203 117t-121.5 195.5l268 84q18 -74 94.5 -131.5t213.5 -57.5q114 0 186 45t72 133q0 30 -8.5 53.5t-30.5 41.5t-41.5 30t-61 24t-69.5 19t-86 20
t-92 21q-208 52 -296.5 155t-88.5 261q0 201 139.5 319.5t365.5 118.5q183 0 314 -88t176 -250l-270 -65q-14 64 -74 111.5t-160 47.5q-93 0 -155 -46.5t-62 -129.5q0 -26 6 -48.5t19 -40.5t26.5 -32t37 -25.5t40 -19t46.5 -16t46 -12.5t48.5 -11t45.5 -10zM958 1612h-229
l-121 164l-121 -164h-231l227 286h250z" />
    <glyph glyph-name="scircumflex" unicode="&#x15d;" horiz-adv-x="968" 
d="M551 621q198 -43 282.5 -108.5t84.5 -193.5q0 -158 -114 -252t-327 -94q-76 0 -147 15.5t-132.5 46t-105.5 80t-61 112.5l250 78q8 -44 53.5 -78t146.5 -34q82 0 126 28t44 80q0 28 -15 47t-46.5 30.5t-60 17.5t-76 13t-74.5 13q-153 31 -228 107t-75 208
q0 147 112 236.5t295 89.5q142 0 254.5 -69.5t143.5 -198.5l-236 -58q-10 44 -51.5 75.5t-110.5 31.5q-64 0 -108.5 -26.5t-44.5 -80.5q0 -22 11.5 -39.5t27 -27.5t42 -18.5t46 -12.5t50 -9.5t44.5 -8.5zM825 1202h-229l-121 164l-121 -164h-231l227 287h250z" />
    <glyph glyph-name="Scedilla" unicode="&#x15e;" horiz-adv-x="1214" 
d="M1163 416q0 -85 -30 -160.5t-90 -138.5t-161 -101t-231 -41l-35 -71q103 -6 165.5 -56t62.5 -149q0 -94 -70.5 -155.5t-177.5 -61.5q-129 0 -209 53l72 129q48 -29 108 -29q50 0 79.5 23.5t29.5 62.5q0 78 -96 78q-38 0 -66 -14l-53 70l61 125q-115 14 -208.5 54
t-163.5 114t-99 174l268 84q18 -74 94.5 -131.5t213.5 -57.5q114 0 186 45t72 133q0 30 -8.5 53.5t-30.5 41.5t-41.5 30t-61 24t-69.5 19t-86 20t-92 21q-208 52 -296.5 155t-88.5 261q0 201 139.5 319.5t365.5 118.5q183 0 314 -88t176 -250l-268 -65q-15 65 -76 112
t-160 47q-92 0 -154.5 -46.5t-62.5 -129.5q0 -26 6 -48.5t19 -40.5t26.5 -32t37 -25.5t40 -19t46.5 -16t46 -12.5t48.5 -11t45.5 -10q258 -59 360.5 -147.5t102.5 -259.5z" />
    <glyph glyph-name="scedilla" unicode="&#x15f;" horiz-adv-x="968" 
d="M918 319q0 -149 -101 -241.5t-293 -102.5l-35 -71q103 -6 165.5 -56t62.5 -149q0 -94 -70.5 -155.5t-179.5 -61.5q-127 0 -207 53l72 129q48 -29 106 -29q52 0 81.5 23.5t29.5 62.5q0 78 -96 78q-36 0 -68 -14l-53 70l63 125q-136 14 -235.5 77t-128.5 170l250 78
q10 -44 55.5 -78t146.5 -34q80 0 125 28t45 80q0 28 -15.5 47t-47 30.5t-60 17.5t-76 13t-73.5 13q-154 31 -229.5 107t-75.5 208q0 147 112.5 236.5t294.5 89.5q144 0 256.5 -69.5t143.5 -198.5l-238 -58q-8 44 -50 75.5t-110 31.5q-65 0 -109 -26t-44 -81
q0 -22 11.5 -39.5t26.5 -27.5t41.5 -18.5t46 -12.5t50.5 -9.5t45 -8.5q198 -43 281.5 -108.5t83.5 -193.5z" />
    <glyph glyph-name="Scaron" unicode="&#x160;" horiz-adv-x="1214" 
d="M700 823q258 -59 360.5 -147.5t102.5 -259.5q0 -86 -31.5 -163.5t-94 -141t-168 -101t-240.5 -37.5q-138 0 -253.5 36.5t-203 117t-121.5 195.5l268 84q18 -74 94.5 -131.5t213.5 -57.5q114 0 186 45t72 133q0 30 -8.5 53.5t-30.5 41.5t-41.5 30t-61 24t-69.5 19t-86 20
t-92 21q-208 52 -296.5 155t-88.5 261q0 201 139.5 319.5t365.5 118.5q183 0 314 -88t176 -250l-270 -65q-14 64 -74 111.5t-160 47.5q-93 0 -155 -46.5t-62 -129.5q0 -26 6 -48.5t19 -40.5t26.5 -32t37 -25.5t40 -19t46.5 -16t46 -12.5t48.5 -11t45.5 -10zM727 1898h229
l-225 -286h-250l-225 286h229l121 -165z" />
    <glyph glyph-name="scaron" unicode="&#x161;" horiz-adv-x="968" 
d="M551 621q198 -43 282.5 -108.5t84.5 -193.5q0 -158 -114 -252t-327 -94q-76 0 -147 15.5t-132.5 46t-105.5 80t-61 112.5l250 78q8 -44 53.5 -78t146.5 -34q82 0 126 28t44 80q0 28 -15 47t-46.5 30.5t-60 17.5t-76 13t-74.5 13q-153 31 -228 107t-75 208
q0 147 112 236.5t295 89.5q142 0 254.5 -69.5t143.5 -198.5l-236 -58q-10 44 -51.5 75.5t-110.5 31.5q-64 0 -108.5 -26.5t-44.5 -80.5q0 -22 11.5 -39.5t27 -27.5t42 -18.5t46 -12.5t50 -9.5t44.5 -8.5zM594 1489h229l-225 -287h-250l-225 287h229l121 -166z" />
    <glyph glyph-name="Tcommaaccent" unicode="&#x162;" horiz-adv-x="1110" 
d="M1038 1434v-258h-344v-1176h-278v1176h-344v258h966zM422 -168h256l-166 -305h-203z" />
    <glyph glyph-name="tcommaaccent" unicode="&#x163;" horiz-adv-x="782" 
d="M690 801h-221v-379q0 -50 5 -80.5t21 -57.5t49 -39t85 -12q16 0 61 5v-238q-47 -14 -108 -14q-97 0 -170 31t-116.5 85.5t-65 124t-21.5 152.5v422h-148v237h148v217h260v-217h221v-237zM303 -168h256l-166 -305h-203z" />
    <glyph glyph-name="Tcaron" unicode="&#x164;" horiz-adv-x="1110" 
d="M1038 1434v-258h-344v-1176h-278v1176h-344v258h966zM676 1898h229l-225 -286h-250l-225 286h229l121 -165z" />
    <glyph glyph-name="tcaron" unicode="&#x165;" horiz-adv-x="782" 
d="M733 1458h256l-166 -305h-202zM690 801h-221v-379q0 -50 5 -80.5t21 -57.5t49 -39t85 -12q16 0 61 5v-238q-47 -14 -108 -14q-97 0 -170 31t-116.5 85.5t-65 124t-21.5 152.5v422h-148v237h148v217h260v-217h221v-237z" />
    <glyph glyph-name="Tbar" unicode="&#x166;" horiz-adv-x="1110" 
d="M1038 1176h-344v-332h246v-146h-246v-698h-278v698h-244v146h244v332h-344v258h966v-258z" />
    <glyph glyph-name="tbar" unicode="&#x167;" horiz-adv-x="782" 
d="M690 545h-223v-123q0 -50 5 -80.5t21.5 -57.5t49.5 -39t86 -12q16 0 61 5v-238q-51 -14 -108 -14q-97 0 -170.5 31t-117.5 85.5t-65.5 124t-21.5 152.5v166h-146v110h146v146h-146v237h146v217h260v-217h223v-237h-223v-146h223v-110z" />
    <glyph glyph-name="Utilde" unicode="&#x168;" horiz-adv-x="1427" 
d="M1016 1434h278v-906q0 -257 -151 -406t-428 -149q-278 0 -430 149t-152 406v906h279v-869q0 -87 24.5 -152t68 -102t96 -55t114.5 -18q61 0 113 18t95.5 55t68 102t24.5 152v869zM883 1829l153 -27q-1 -100 -47.5 -156.5t-126.5 -56.5q-54 0 -137 30t-123 30
q-33 0 -46 -24t-13 -54l-152 26q1 102 47.5 157.5t124.5 55.5q55 0 138 -29.5t120 -29.5q35 0 48.5 24t13.5 54z" />
    <glyph glyph-name="utilde" unicode="&#x169;" 
d="M805 1038h260v-1038h-260v127q-102 -154 -301 -154q-95 0 -169.5 36.5t-119.5 98.5t-68.5 138t-23.5 160v632h260v-577q0 -107 49 -170.5t152 -63.5q110 0 165.5 67.5t55.5 166.5v577zM764 1419l154 -26q-1 -99 -48 -156t-127 -57q-55 0 -138 29.5t-122 29.5
q-33 0 -46 -24t-13 -54l-152 27q1 102 47.5 157.5t124.5 55.5q55 0 138 -30t120 -30q35 0 48.5 24t13.5 54z" />
    <glyph glyph-name="Umacron" unicode="&#x16a;" horiz-adv-x="1427" 
d="M1016 1434h278v-906q0 -257 -151 -406t-428 -149q-278 0 -430 149t-152 406v906h279v-869q0 -87 24.5 -152t68 -102t96 -55t114.5 -18q61 0 113 18t95.5 55t68 102t24.5 152v869zM416 1837h596v-201h-596v201z" />
    <glyph glyph-name="umacron" unicode="&#x16b;" 
d="M805 1038h260v-1038h-260v127q-102 -154 -301 -154q-95 0 -169.5 36.5t-119.5 98.5t-68.5 138t-23.5 160v632h260v-577q0 -107 49 -170.5t152 -63.5q110 0 165.5 67.5t55.5 166.5v577zM297 1427h596v-200h-596v200z" />
    <glyph glyph-name="Ubreve" unicode="&#x16c;" horiz-adv-x="1427" 
d="M1016 1434h278v-906q0 -257 -151 -406t-428 -149q-278 0 -430 149t-152 406v906h279v-869q0 -87 24.5 -152t68 -102t96 -55t114.5 -18q61 0 113 18t95.5 55t68 102t24.5 152v869zM856 1890h182q0 -141 -86 -224t-239 -83q-154 0 -240 83t-86 224h182q0 -57 35.5 -100
t108.5 -43t108 43t35 100z" />
    <glyph glyph-name="ubreve" unicode="&#x16d;" 
d="M805 1038h260v-1038h-260v127q-102 -154 -301 -154q-95 0 -169.5 36.5t-119.5 98.5t-68.5 138t-23.5 160v632h260v-577q0 -107 49 -170.5t152 -63.5q110 0 165.5 67.5t55.5 166.5v577zM737 1481h183q0 -141 -86 -224t-240 -83t-240 83t-86 224h183q0 -58 35 -101t108 -43
t108 43t35 101z" />
    <glyph glyph-name="Uring" unicode="&#x16e;" horiz-adv-x="1427" 
d="M1016 1434h278v-906q0 -257 -151 -406t-428 -149q-278 0 -430 149t-152 406v906h279v-869q0 -87 24.5 -152t68 -102t96 -55t114.5 -18q61 0 113 18t95.5 55t68 102t24.5 152v869zM715 1987q95 0 163 -68.5t68 -163.5q0 -97 -68 -165t-163 -68q-97 0 -165.5 68t-68.5 165
q0 95 68.5 163.5t165.5 68.5zM715 1651q43 0 73.5 30.5t30.5 73.5t-30.5 74t-73.5 31q-44 0 -75.5 -31t-31.5 -74t31.5 -73.5t75.5 -30.5z" />
    <glyph glyph-name="uring" unicode="&#x16f;" 
d="M805 1038h260v-1038h-260v127q-102 -154 -301 -154q-95 0 -169.5 36.5t-119.5 98.5t-68.5 138t-23.5 160v632h260v-577q0 -107 49 -170.5t152 -63.5q110 0 165.5 67.5t55.5 166.5v577zM594 1597q95 0 163 -68t68 -163q0 -97 -68 -165t-163 -68q-97 0 -165.5 68t-68.5 165
q0 95 68.5 163t165.5 68zM594 1262q43 0 73.5 30.5t30.5 73.5t-30.5 73.5t-73.5 30.5q-44 0 -75.5 -30.5t-31.5 -73.5t31.5 -73.5t75.5 -30.5z" />
    <glyph glyph-name="Uhungarumlaut" unicode="&#x170;" horiz-adv-x="1427" 
d="M1016 1434h278v-906q0 -257 -151 -406t-428 -149q-278 0 -430 149t-152 406v906h279v-869q0 -87 24.5 -152t68 -102t96 -55t114.5 -18q61 0 113 18t95.5 55t68 102t24.5 152v869zM526 1898h275l-199 -286h-211zM926 1898h274l-199 -286h-208z" />
    <glyph glyph-name="uhungarumlaut" unicode="&#x171;" 
d="M805 1038h260v-1038h-260v127q-102 -154 -301 -154q-95 0 -169.5 36.5t-119.5 98.5t-68.5 138t-23.5 160v632h260v-577q0 -107 49 -170.5t152 -63.5q110 0 165.5 67.5t55.5 166.5v577zM406 1489h274l-199 -287h-211zM805 1489h274l-198 -287h-209z" />
    <glyph glyph-name="Uogonek" unicode="&#x172;" horiz-adv-x="1427" 
d="M1016 1434h278v-906q0 -190 -84.5 -323.5t-244.5 -190.5q-78 -48 -122 -109.5t-44 -125.5q0 -41 26 -65.5t80 -24.5q28 0 60 8v-168q-47 -14 -99 -14q-105 0 -173 54t-68 144q0 84 44.5 150.5t110.5 111.5q-12 0 -33 -1t-32 -1q-278 0 -430 149t-152 406v906h279v-869
q0 -87 24.5 -152t68 -102t96 -55t114.5 -18q61 0 113 18t95.5 55t68 102t24.5 152v869z" />
    <glyph glyph-name="uogonek" unicode="&#x173;" 
d="M1065 0q-168 -104 -168 -221q0 -41 27 -65.5t82 -24.5q27 0 59 8v-168q-47 -14 -98 -14q-105 0 -173.5 54t-68.5 144q0 51 17.5 97.5t48 82t59.5 61t63 46.5h-108v127q-102 -154 -301 -154q-95 0 -169.5 36.5t-119.5 98.5t-68.5 138t-23.5 160v632h260v-577
q0 -107 49 -170.5t152 -63.5q110 0 165.5 67.5t55.5 166.5v577h260v-1038z" />
    <glyph glyph-name="Wcircumflex" unicode="&#x174;" horiz-adv-x="2039" 
d="M1714 1434h295l-461 -1434h-250l-278 942l-279 -942h-249l-461 1434h295l299 -983l288 983h213l289 -985zM1370 1612h-229l-121 164l-121 -164h-231l227 286h250z" />
    <glyph glyph-name="wcircumflex" unicode="&#x175;" horiz-adv-x="1636" 
d="M1325 1038h281l-349 -1038h-231l-209 612l-207 -612h-231l-348 1038h280l199 -659l223 659h170l221 -659zM1169 1202h-229l-121 164l-121 -164h-231l227 287h250z" />
    <glyph glyph-name="Ycircumflex" unicode="&#x176;" horiz-adv-x="1409" 
d="M1378 1434l-534 -897v-537h-279v537l-534 897h305l369 -650l370 650h303zM1057 1612h-230l-120 164l-121 -164h-232l228 286h249z" />
    <glyph glyph-name="ycircumflex" unicode="&#x177;" horiz-adv-x="1134" 
d="M823 1038h281l-567 -1433h-267l191 456l-430 977h280l269 -686zM920 1202h-230l-121 164l-120 -164h-232l227 287h250z" />
    <glyph glyph-name="Ydieresis" unicode="&#x178;" horiz-adv-x="1409" 
d="M1378 1434l-534 -897v-537h-279v537l-534 897h305l369 -650l370 650h303zM489 1876q59 0 99.5 -40.5t40.5 -98.5q0 -59 -41 -100.5t-99 -41.5t-99.5 41.5t-41.5 100.5q0 58 41 98.5t100 40.5zM922 1876q59 0 100 -40.5t41 -98.5q0 -59 -41.5 -100.5t-99.5 -41.5
q-57 0 -98.5 42t-41.5 100t41.5 98.5t98.5 40.5z" />
    <glyph glyph-name="Zacute" unicode="&#x179;" horiz-adv-x="1191" 
d="M430 258h690v-258h-1048v221l690 955h-653v258h993v-222zM606 1898h275l-199 -286h-209z" />
    <glyph glyph-name="zacute" unicode="&#x17a;" horiz-adv-x="1007" 
d="M420 238h495v-238h-823v182l475 619h-456v237h786v-182zM514 1489h274l-198 -287h-209z" />
    <glyph glyph-name="Zdotaccent" unicode="&#x17b;" horiz-adv-x="1191" 
d="M430 258h690v-258h-1048v221l690 955h-653v258h993v-222zM596 1876q59 0 100 -40.5t41 -98.5q0 -59 -41.5 -100.5t-99.5 -41.5q-57 0 -98 42t-41 100t41 98.5t98 40.5z" />
    <glyph glyph-name="zdotaccent" unicode="&#x17c;" horiz-adv-x="1007" 
d="M420 238h495v-238h-823v182l475 619h-456v237h786v-182zM504 1466q59 0 100 -40.5t41 -98.5q0 -59 -41.5 -100t-99.5 -41q-57 0 -98 41.5t-41 99.5t41 98.5t98 40.5z" />
    <glyph glyph-name="Zcaron" unicode="&#x17d;" horiz-adv-x="1191" 
d="M430 258h690v-258h-1048v221l690 955h-653v258h993v-222zM717 1898h229l-225 -286h-250l-225 286h229l121 -165z" />
    <glyph glyph-name="zcaron" unicode="&#x17e;" horiz-adv-x="1007" 
d="M420 238h495v-238h-823v182l475 619h-456v237h786v-182zM625 1489h229l-225 -287h-250l-225 287h229l121 -166z" />
    <glyph glyph-name="longs" unicode="&#x17f;" horiz-adv-x="761" 
d="M655 1237q-96 0 -137 -49.5t-41 -149.5v-1038h-260v801h-145v237h145q0 84 20 156.5t61.5 133.5t117 96.5t176.5 35.5q61 0 108 -8v-217q-7 0 -22 1t-23 1z" />
    <glyph glyph-name="AEacute" unicode="&#x1fc;" horiz-adv-x="1931" 
d="M1270 258h569v-258h-846v285h-534l-135 -285h-293l698 1434h1090v-258h-549v-324h504v-258h-504v-336zM573 532h420v644h-119zM1212 1898h275l-199 -286h-209z" />
    <glyph glyph-name="aeacute" unicode="&#x1fd;" horiz-adv-x="1808" 
d="M1225 1063q118 0 219.5 -44t173.5 -124t106 -204t17 -273h-770q27 -102 106.5 -157.5t190.5 -55.5q78 0 138.5 32t92.5 70l207 -123q-67 -93 -182 -152t-256 -59q-272 0 -416 174q-48 -76 -155.5 -125t-247.5 -49q-52 0 -104.5 10.5t-104.5 34t-91 58t-63.5 87
t-24.5 116.5q0 55 15.5 101.5t39 79.5t61 59.5t72 43t82.5 28.5t82 17.5t81 8.5t68.5 3.5t55.5 0.5h115q-3 115 -50.5 165t-164.5 50q-62 0 -120.5 -24t-96.5 -52l-178 135q186 168 432 168q235 0 330 -135q135 135 340 135zM733 281v176h-18q-183 0 -254 -16
q-133 -31 -133 -138q0 -63 44 -102t136 -39q88 0 143.5 37t81.5 82zM971 618h516q-20 102 -87 157.5t-169 55.5q-97 0 -166 -56.5t-94 -156.5zM936 1489h274l-198 -287h-209z" />
    <glyph glyph-name="Oslashacute" unicode="&#x1fe;" horiz-adv-x="1622" 
d="M1405 1159q133 -190 133 -442q0 -208 -92.5 -378t-259.5 -268t-375 -98q-293 0 -498 189l-125 -113l-98 109l127 116q-135 190 -135 443q0 156 54.5 293t150.5 235.5t232 155.5t292 57q297 0 498 -188l125 114l100 -110zM360 717q0 -141 64 -254l684 622
q-119 109 -297 109q-107 0 -195 -41t-142.5 -108.5t-84 -152t-29.5 -175.5zM811 238q107 0 194.5 41t142.5 109t84.5 153t29.5 176q0 133 -64 252l-682 -623q118 -108 295 -108zM842 1898h274l-198 -286h-209z" />
    <glyph glyph-name="oslashacute" unicode="&#x1ff;" horiz-adv-x="1220" 
d="M1053 848q106 -143 106 -330q0 -150 -71.5 -275t-197.5 -197.5t-280 -72.5q-212 0 -366 138l-105 -97l-73 82l104 94q-109 144 -109 328q0 150 72 275.5t198 197.5t279 72q216 0 367 -135l104 94l74 -80zM328 518q0 -80 37 -149l423 385q-75 59 -178 59
q-127 0 -204.5 -85t-77.5 -210zM610 223q127 0 205 85t78 210q0 85 -37 152l-422 -387q73 -60 176 -60zM621 1489h274l-199 -287h-209z" />
    <glyph glyph-name="Scommaaccent" unicode="&#x218;" horiz-adv-x="1214" 
d="M700 823q258 -59 360.5 -147.5t102.5 -259.5q0 -86 -31.5 -163.5t-94 -141t-168 -101t-240.5 -37.5q-138 0 -253.5 36.5t-203 117t-121.5 195.5l268 84q18 -74 94.5 -131.5t213.5 -57.5q114 0 186 45t72 133q0 30 -8.5 53.5t-30.5 41.5t-41.5 30t-61 24t-69.5 19t-86 20
t-92 21q-208 52 -296.5 155t-88.5 261q0 201 139.5 319.5t365.5 118.5q183 0 314 -88t176 -250l-270 -65q-14 64 -74 111.5t-160 47.5q-93 0 -155 -46.5t-62 -129.5q0 -26 6 -48.5t19 -40.5t26.5 -32t37 -25.5t40 -19t46.5 -16t46 -12.5t48.5 -11t45.5 -10zM479 -168h256
l-166 -305h-202z" />
    <glyph glyph-name="scommaaccent" unicode="&#x219;" horiz-adv-x="968" 
d="M551 621q198 -43 282.5 -108.5t84.5 -193.5q0 -158 -114 -252t-327 -94q-76 0 -147 15.5t-132.5 46t-105.5 80t-61 112.5l250 78q8 -44 53.5 -78t146.5 -34q82 0 126 28t44 80q0 28 -15 47t-46.5 30.5t-60 17.5t-76 13t-74.5 13q-153 31 -228 107t-75 208
q0 147 112 236.5t295 89.5q142 0 254.5 -69.5t143.5 -198.5l-236 -58q-10 44 -51.5 75.5t-110.5 31.5q-64 0 -108.5 -26.5t-44.5 -80.5q0 -22 11.5 -39.5t27 -27.5t42 -18.5t46 -12.5t50 -9.5t44.5 -8.5zM340 -168h256l-166 -305h-203z" />
    <glyph glyph-name="circumflex" unicode="&#x2c6;" horiz-adv-x="968" 
d="M836 1202h-230l-121 164l-120 -164h-232l227 287h250z" />
    <glyph glyph-name="caron" unicode="&#x2c7;" horiz-adv-x="966" 
d="M604 1489h230l-226 -287h-250l-225 287h229l121 -166z" />
    <glyph glyph-name="breve" unicode="&#x2d8;" horiz-adv-x="917" 
d="M602 1481h182q0 -141 -86 -224t-239 -83q-154 0 -240 83t-86 224h182q0 -57 35.5 -100.5t108.5 -43.5t108 43t35 101z" />
    <glyph glyph-name="dotaccent" unicode="&#x2d9;" horiz-adv-x="546" 
d="M272 1466q59 0 100.5 -40.5t41.5 -98.5t-41.5 -99.5t-100.5 -41.5q-57 0 -98 41.5t-41 99.5t41 98.5t98 40.5z" />
    <glyph glyph-name="ring" unicode="&#x2da;" horiz-adv-x="731" 
d="M367 1577q95 0 163 -68t68 -163q0 -97 -68 -165.5t-163 -68.5q-97 0 -165.5 68.5t-68.5 165.5q0 95 68.5 163t165.5 68zM367 1241q43 0 73.5 31t30.5 74t-30.5 73.5t-73.5 30.5q-44 0 -75.5 -30.5t-31.5 -73.5t31.5 -74t75.5 -31z" />
    <glyph glyph-name="ogonek" unicode="&#x2db;" horiz-adv-x="606" 
d="M307 -221q0 -41 26.5 -65.5t80.5 -24.5q27 0 59 8v-168q-44 -14 -96 -14q-107 0 -175.5 54t-68.5 144q0 51 18 97.5t48.5 82t60.5 61t64 46.5h149q-166 -105 -166 -221z" />
    <glyph glyph-name="tilde" unicode="&#x2dc;" horiz-adv-x="911" 
d="M625 1419l153 -26q-1 -100 -47.5 -156.5t-126.5 -56.5q-54 0 -137 29.5t-123 29.5q-33 0 -46 -24t-13 -54l-152 27q1 102 47.5 157.5t124.5 55.5q55 0 138 -30t120 -30q35 0 48.5 24t13.5 54z" />
    <glyph glyph-name="hungarumlaut" unicode="&#x2dd;" horiz-adv-x="1075" 
d="M268 1489h275l-199 -287h-211zM668 1489h274l-199 -287h-208z" />
    <glyph glyph-name="Wgrave" unicode="&#x1e80;" horiz-adv-x="2039" 
d="M1714 1434h295l-461 -1434h-250l-278 942l-279 -942h-249l-461 1434h295l299 -983l288 983h213l289 -985zM987 1898l135 -286h-211l-198 286h274z" />
    <glyph glyph-name="wgrave" unicode="&#x1e81;" horiz-adv-x="1636" 
d="M1325 1038h281l-349 -1038h-231l-209 612l-207 -612h-231l-348 1038h280l199 -659l223 659h170l221 -659zM784 1489l136 -287h-211l-199 287h274z" />
    <glyph glyph-name="Wacute" unicode="&#x1e82;" horiz-adv-x="2039" 
d="M1714 1434h295l-461 -1434h-250l-278 942l-279 -942h-249l-461 1434h295l299 -983l288 983h213l289 -985zM1071 1898h275l-199 -286h-209z" />
    <glyph glyph-name="wacute" unicode="&#x1e83;" horiz-adv-x="1636" 
d="M1325 1038h281l-349 -1038h-231l-209 612l-207 -612h-231l-348 1038h280l199 -659l223 659h170l221 -659zM850 1489h274l-198 -287h-209z" />
    <glyph glyph-name="Wdieresis" unicode="&#x1e84;" horiz-adv-x="2039" 
d="M1714 1434h295l-461 -1434h-250l-278 942l-279 -942h-249l-461 1434h295l299 -983l288 983h213l289 -985zM805 1876q59 0 99 -40t40 -99t-40.5 -100.5t-98.5 -41.5t-99.5 41.5t-41.5 100.5q0 58 41 98.5t100 40.5zM1237 1876q59 0 100 -40.5t41 -98.5q0 -59 -41.5 -100.5
t-99.5 -41.5q-57 0 -98 42t-41 100t41 98.5t98 40.5z" />
    <glyph glyph-name="wdieresis" unicode="&#x1e85;" horiz-adv-x="1636" 
d="M1325 1038h281l-349 -1038h-231l-209 612l-207 -612h-231l-348 1038h280l199 -659l223 659h170l221 -659zM602 1466q58 0 98.5 -40t40.5 -99t-40.5 -100t-98.5 -41t-99.5 41t-41.5 100q0 58 41 98.5t100 40.5zM1034 1466q59 0 100.5 -40.5t41.5 -98.5t-41.5 -99.5
t-100.5 -41.5q-57 0 -98 41.5t-41 99.5t41 98.5t98 40.5z" />
    <glyph glyph-name="Ygrave" unicode="&#x1ef2;" horiz-adv-x="1409" 
d="M1378 1434l-534 -897v-537h-279v537l-534 897h305l369 -650l370 650h303zM692 1898l135 -286h-211l-198 286h274z" />
    <glyph glyph-name="ygrave" unicode="&#x1ef3;" horiz-adv-x="1134" 
d="M823 1038h281l-567 -1433h-267l191 456l-430 977h280l269 -686zM555 1489l135 -287h-211l-198 287h274z" />
    <glyph glyph-name="endash" unicode="&#x2013;" horiz-adv-x="1032" 
d="M133 719h766v-219h-766v219z" />
    <glyph glyph-name="emdash" unicode="&#x2014;" horiz-adv-x="1140" 
d="M133 719h875v-219h-875v219z" />
    <glyph glyph-name="quoteleft" unicode="&#x2018;" horiz-adv-x="575" 
d="M92 1036l252 404l139 -78l-198 -436z" />
    <glyph glyph-name="quoteright" unicode="&#x2019;" horiz-adv-x="575" 
d="M291 1440l192 -111l-252 -403l-139 78z" />
    <glyph glyph-name="quotesinglbase" unicode="&#x201a;" horiz-adv-x="512" 
d="M31 -160l198 436l191 -110l-252 -406z" />
    <glyph glyph-name="quotedblleft" unicode="&#x201c;" horiz-adv-x="985" 
d="M92 1036l252 404l139 -78l-198 -436zM756 1440l137 -78l-197 -436l-192 110z" />
    <glyph glyph-name="quotedblright" unicode="&#x201d;" horiz-adv-x="985" 
d="M700 1440l193 -111l-252 -403l-139 78zM92 1004l197 436l192 -111l-252 -403z" />
    <glyph glyph-name="quotedblbase" unicode="&#x201e;" horiz-adv-x="923" 
d="M639 276l192 -110l-251 -406l-140 80zM31 -160l198 436l191 -110l-252 -406z" />
    <glyph glyph-name="dagger" unicode="&#x2020;" horiz-adv-x="1075" 
d="M942 1106v-219h-274v-887h-260v887h-275v219h275v328h260v-328h274z" />
    <glyph glyph-name="daggerdbl" unicode="&#x2021;" horiz-adv-x="1075" 
d="M942 887h-274v-340h274v-219h-274v-328h-260v328h-275v219h275v340h-275v219h275v328h260v-328h274v-219z" />
    <glyph glyph-name="bullet" unicode="&#x2022;" horiz-adv-x="704" 
d="M352 885q99 0 169.5 -70.5t70.5 -169.5q0 -98 -70.5 -167.5t-169.5 -69.5q-100 0 -169.5 69.5t-69.5 167.5q0 100 69.5 170t169.5 70z" />
    <glyph glyph-name="ellipsis" unicode="&#x2026;" horiz-adv-x="1456" 
d="M244 276q62 0 105.5 -44t43.5 -107t-43.5 -107.5t-105.5 -44.5q-63 0 -107.5 44.5t-44.5 107.5t44.5 107t107.5 44zM729 276q62 0 106 -44t44 -107t-44 -107.5t-106 -44.5q-63 0 -107 44.5t-44 107.5t44 107t107 44zM1214 276q62 0 106 -44t44 -107t-44 -107.5
t-106 -44.5q-63 0 -107 44.5t-44 107.5t44 107t107 44z" />
    <glyph glyph-name="perthousand" unicode="&#x2030;" horiz-adv-x="2633" 
d="M1272 1434h198l-946 -1434h-200zM788 1081q0 -145 -101.5 -246.5t-246.5 -101.5t-246.5 101.5t-101.5 246.5q0 143 102 246t246 103t246 -103t102 -246zM274 1081q0 -69 49 -117.5t117 -48.5q69 0 117.5 48.5t48.5 117.5q0 68 -48.5 117t-117.5 49q-68 0 -117 -49.5
t-49 -116.5zM1356 700q143 0 245.5 -102t102.5 -246t-102.5 -246t-245.5 -102q-145 0 -246.5 101.5t-101.5 246.5t101.5 246.5t246.5 101.5zM1356 186q68 0 117 48.5t49 117.5t-49 117.5t-117 48.5q-69 0 -117.5 -48.5t-48.5 -117.5t48.5 -117.5t117.5 -48.5zM2193 700
q145 0 247 -101.5t102 -246.5t-102 -246.5t-247 -101.5t-246.5 101.5t-101.5 246.5t101.5 246.5t246.5 101.5zM2193 186q68 0 117 48.5t49 117.5t-49 117.5t-117 48.5q-69 0 -117 -48.5t-48 -117.5t48 -117.5t117 -48.5z" />
    <glyph glyph-name="guilsinglleft" unicode="&#x2039;" horiz-adv-x="702" 
d="M610 877l-245 -363l245 -362h-272l-246 362l246 363h272z" />
    <glyph glyph-name="guilsinglright" unicode="&#x203a;" horiz-adv-x="704" 
d="M367 877l245 -363l-245 -362h-275l248 362l-248 363h275z" />
    <glyph glyph-name="fraction" unicode="&#x2044;" horiz-adv-x="1013" 
d="M684 1630h238l-592 -1829h-238z" />
    <glyph glyph-name="Euro" unicode="&#x20ac;" horiz-adv-x="1531" 
d="M922 238q212 0 338 153l231 -151q-100 -126 -247 -196.5t-322 -70.5q-260 0 -451 149.5t-252 389.5h-168v145h144q0 10 -1 30t-1 30q0 9 1 28.5t1 28.5h-144v148h168q61 239 251.5 387.5t451.5 148.5q176 0 322.5 -70t246.5 -196l-231 -152q-127 154 -338 154
q-150 0 -256 -75t-156 -197h455v-148h-492q-2 -18 -2 -57q0 -40 2 -60h492v-145h-455q50 -123 156 -198.5t256 -75.5z" />
    <glyph glyph-name="ruble" unicode="&#x20bd;" horiz-adv-x="1406" 
d="M786 444h-202v-118h403v-146h-403v-180h-279v180h-213v146h213v118h-213v258h213v732h481q253 0 401 -135.5t148 -360.5q0 -224 -148 -359t-401 -135zM584 1176v-474h202q126 0 196.5 62t70.5 174q0 114 -70.5 176t-196.5 62h-202z" />
    <glyph glyph-name="bitcoin" unicode="&#x20bf;" horiz-adv-x="1253" 
d="M1182 414q0 -153 -84.5 -256t-243.5 -140v-245h-166v227h-16h-129v-227h-164v227h-246v1434h246v225h164v-225h78q12 0 34.5 -1t32.5 -1v227h166v-258q131 -42 200.5 -134t69.5 -218q0 -197 -157 -291v-4q105 -47 160 -134t55 -206zM846 1020q0 92 -62.5 133t-162.5 41
h-209v-356h209q103 0 164 44t61 138zM672 240q103 0 165 49.5t62 142.5q0 94 -63 139t-164 45h-260v-376h260z" />
    <glyph glyph-name="afii61352" unicode="&#x2116;" horiz-adv-x="2273" 
d="M1020 485v949h278v-1434h-251l-635 948v-948h-279v1434h252zM1532 373v237h625v-237h-625zM1843 760q-138 0 -237 99t-99 237q0 139 99 237.5t237 98.5q140 0 239 -98.5t99 -237.5q0 -138 -99.5 -237t-238.5 -99zM1843 1233q-56 0 -95.5 -40t-39.5 -97q0 -56 40 -95.5
t95 -39.5q57 0 97 39.5t40 95.5q0 57 -40 97t-97 40z" />
    <glyph glyph-name="minus" unicode="&#x2212;" horiz-adv-x="921" 
d="M133 719h655v-219h-655v219z" />
    <glyph glyph-name="approxequal" unicode="&#x2248;" horiz-adv-x="1189" 
d="M403 758q-49 0 -70 -24.5t-30 -71.5l-190 38q55 261 280 261q67 0 141.5 -23.5t140.5 -46.5t113 -23q30 0 50 9t30 26t14 28.5t7 29.5l188 -39q-21 -129 -82 -193.5t-176 -64.5q-73 0 -150.5 23.5t-146 47t-119.5 23.5zM788 465q30 0 50 9t30 26t14 28t7 29l188 -39
q-21 -130 -82 -194t-176 -64q-73 0 -150.5 23.5t-146 47t-119.5 23.5q-48 0 -69.5 -25t-30.5 -71l-190 39q55 258 280 258q67 0 141.5 -22.5t140.5 -45t113 -22.5z" />
    <glyph glyph-name="notequal" unicode="&#x2260;" horiz-adv-x="1032" 
d="M899 700h-270l-80 -182h350v-219h-444l-82 -190h-144l82 190h-178v219h273l79 182h-352v220h447l82 190h143l-82 -190h176v-220z" />
    <glyph glyph-name="lessequal" unicode="&#x2264;" horiz-adv-x="1032" 
d="M133 0v219h766v-219h-766zM899 1180v-217l-549 -189l549 -188v-217l-766 290v230z" />
    <glyph glyph-name="greaterequal" unicode="&#x2265;" horiz-adv-x="1032" 
d="M133 219h766v-219h-766v219zM899 889v-230l-766 -290v217l551 188l-551 189v217z" />
    <glyph glyph-name="commaaccent" unicode="&#xf6c3;" horiz-adv-x="634" 
d="M246 -168h256l-166 -305h-203z" />
    </font>
</defs>
</svg>
