<?xml version="1.0" standalone="no"?>
<!DOCTYPE svg PUBLIC "-//W3C//DTD SVG 1.1//EN" "http://www.w3.org/Graphics/SVG/1.1/DTD/svg11.dtd" >
<svg xmlns="http://www.w3.org/2000/svg" xmlns:xlink="http://www.w3.org/1999/xlink" version="1.1">
<metadata>
Created by FontForge 20170731 at Thu Feb  3 13:38:56 2022
 By Aleksey,,,
Copyright (c) 2020 by MadeType. All rights reserved.
</metadata>
<defs>
<font id="MADETOMMYOutline-ExtraBold" horiz-adv-x="573" >
  <font-face 
    font-family="MADE TOMMY Outline"
    font-weight="800"
    font-stretch="normal"
    units-per-em="2048"
    panose-1="2 0 5 3 0 0 0 2 0 4"
    ascent="1638"
    descent="-410"
    x-height="1042"
    cap-height="1434"
    bbox="-137 -516 2570 2013"
    underline-thickness="102"
    underline-position="-307"
    unicode-range="U+0020-F6C3"
  />
<missing-glyph 
 />
    <glyph glyph-name=".notdef" 
 />
    <glyph glyph-name=".null" horiz-adv-x="0" 
 />
    <glyph glyph-name="nonmarkingreturn" horiz-adv-x="682" 
 />
    <glyph glyph-name="space" unicode=" " 
 />
    <glyph glyph-name="exclam" unicode="!" horiz-adv-x="628" 
d="M313 -27q-86 0 -147.5 61.5t-61.5 147.5q0 85 61.5 146t147.5 61q85 0 146 -61t61 -146q0 -86 -61 -147.5t-146 -61.5zM313 371q-78 0 -134 -55.5t-56 -133.5t56 -134t134 -56t133.5 56t55.5 134t-55.5 133.5t-133.5 55.5zM522 1434l-47 -940h-323l-48 940h418zM123 1415
l45 -905h289l45 905h-379z" />
    <glyph glyph-name="quotedbl" unicode="&#x22;" horiz-adv-x="909" 
d="M801 1434v-525h-289v525h289zM530 1415v-487h252v487h-252zM395 1434v-525h-289v525h289zM125 1415v-487h252v487h-252z" />
    <glyph glyph-name="numbersign" unicode="#" horiz-adv-x="1335" 
d="M985 381l-47 -291h-293l49 291h-164l-49 -291h-293l50 291h-170l43 270h170l22 133h-172l41 269h176l47 290h293l-47 -290h164l47 290h293l-49 -290h170l-43 -269h-170l-23 -133h172l-41 -270h-176zM715 399l-47 -293h256l47 293h174l37 234h-172l26 168h172l35 235h-168
l47 289h-256l-47 -289h-201l48 289h-256l-48 -289h-174l-36 -235h172l-27 -168h-172l-37 -234h170l-47 -293h256l47 293h201zM780 801l-26 -168h-201l27 168h200zM596 784l-23 -133h164l23 133h-164z" />
    <glyph glyph-name="dollar" unicode="$" horiz-adv-x="1228" 
d="M721 -20v-203h-180v203q-211 19 -344.5 118t-165.5 262l-2 9l377 116v-10q5 -53 61.5 -93t148.5 -40q76 0 112 27t36 67q0 15 -5 27.5t-18 22.5t-25.5 16.5t-37.5 14t-42.5 12t-51.5 12.5q-43 10 -60 14q-230 54 -334 159t-104 283q0 183 124 306.5t331 148.5v205h180
v-205q174 -22 291 -121t149 -252l2 -10l-372 -90l-3 8q-33 103 -151 103q-55 0 -94 -22t-39 -69q0 -22 14.5 -38.5t42.5 -27.5t53 -18.5t62 -16t55 -13.5q260 -72 364.5 -171t104.5 -272q0 -183 -133 -311t-346 -151zM559 -4v-203h143v203h9q209 20 341 144.5t132 301.5
q0 165 -102.5 260t-356.5 166q-24 8 -59 15q-106 26 -137 46q-44 26 -44 70q0 49 41.5 79t110.5 30q61 0 105 -29t61 -80l340 84q-35 147 -149.5 240.5t-282.5 112.5h-9v202h-143v-202h-8q-203 -22 -325 -141.5t-122 -297.5q0 -172 99.5 -272t324.5 -154q10 -2 60 -14
q44 -10 65 -15t51 -15.5t43.5 -21.5t24 -28.5t10.5 -40.5q0 -47 -40.5 -79.5t-125.5 -32.5q-95 0 -155.5 40.5t-71.5 98.5l-340 -107q16 -70 50.5 -127.5t81 -94.5t95 -64t103 -42t94.5 -22t78 -10h8z" />
    <glyph glyph-name="percent" unicode="%" horiz-adv-x="1794" 
d="M1479 1434l-947 -1434h-219l947 1434h219zM1268 1415l-922 -1399h176l922 1399h-176zM444 702q-155 0 -263.5 109.5t-108.5 263.5q0 155 108.5 264t263.5 109q154 0 263.5 -109t109.5 -264q0 -154 -109.5 -263.5t-263.5 -109.5zM444 1430q-148 0 -251 -103.5t-103 -251.5
q0 -147 103.5 -250.5t250.5 -103.5q146 0 250.5 104t104.5 250q0 147 -104 251t-251 104zM444 954q-51 0 -85.5 35.5t-34.5 85.5q0 51 34.5 86t85.5 35q50 0 85.5 -35t35.5 -86q0 -49 -35.5 -85t-85.5 -36zM444 1178q-43 0 -72.5 -30t-29.5 -73q0 -42 30 -72t72 -30
q41 0 72 30.5t31 71.5q0 42 -30.5 72.5t-72.5 30.5zM1348 -16q-155 0 -264 109t-109 263t109 263.5t264 109.5q154 0 263 -109.5t109 -263.5t-109 -263t-263 -109zM1348 711q-148 0 -251.5 -103.5t-103.5 -251.5q0 -146 103.5 -250t251.5 -104q146 0 250 104t104 250
q0 148 -104 251.5t-250 103.5zM1348 236q-51 0 -86 35t-35 85q0 51 35 86t86 35q50 0 85 -35t35 -86q0 -50 -35 -85t-85 -35zM1348 459q-43 0 -73 -30t-30 -73t30 -72.5t73 -29.5q42 0 72 30t30 72t-30 72.5t-72 30.5z" />
    <glyph glyph-name="ampersand" unicode="&#x26;" horiz-adv-x="1603" 
d="M610 -27q-109 0 -208 26t-180 77t-129 135.5t-48 191.5q0 115 65 209t187 154q-107 159 -107 293q0 183 128 291t344 108q125 0 219.5 -34t147.5 -90t78.5 -119.5t25.5 -131.5q0 -130 -79.5 -224t-222.5 -134q31 -26 92 -79.5t91 -80.5q31 74 39 140l2 10l340 -64l-2 -8
q-15 -183 -115 -332q63 -60 142.5 -134.5t125.5 -118t47 -44.5l15 -14h-482l-96 82q-195 -109 -420 -109zM662 1440q-206 0 -329.5 -104t-123.5 -277q0 -135 108 -291l7 -8l-11 -4q-42 -20 -80 -47t-79 -69.5t-66 -104t-25 -132.5q0 -83 31 -152t83.5 -116t123 -80
t148.5 -48t161 -15q226 0 416 108l6 4l103 -88h430q-92 88 -305 287l-5 6l5 6q96 143 114 322l-305 57q-12 -82 -49 -159l-227 198l16 4q148 38 226.5 127t78.5 219q0 68 -24.5 129t-75.5 113.5t-141.5 83.5t-210.5 31zM645 283q-92 0 -147.5 42.5t-55.5 114.5q0 63 50 113
l6 6l6 -6q74 -71 270 -231l12 -11q-80 -28 -141 -28zM498 535q-37 -41 -37 -95q0 -71 54.5 -105t129.5 -34q49 0 105 16q-178 148 -252 218zM627 903l-6 -2q-70 85 -70 141q0 50 30.5 80.5t80.5 30.5q49 0 79.5 -29t30.5 -75q0 -51 -42.5 -94t-102.5 -52zM662 1135
q-41 0 -67 -26t-26 -67q0 -51 60 -120q52 9 88.5 46t36.5 81q0 38 -25.5 62t-66.5 24z" />
    <glyph glyph-name="quotesingle" unicode="'" horiz-adv-x="497" 
d="M393 1434v-525h-289v525h289zM123 1415v-487h252v487h-252z" />
    <glyph glyph-name="parenleft" unicode="(" horiz-adv-x="800" 
d="M717 -61l-268 -201l-5 8q-20 23 -49.5 64.5t-83.5 139t-97 204t-75.5 259t-32.5 304.5t33 305t75 258t97.5 204t83 138t49.5 66l5 6l268 -199l-4 -8q-27 -39 -55 -94t-66.5 -153t-63 -235.5t-24.5 -287.5t24.5 -288t63 -236t66.5 -153.5t55 -94.5zM692 1491l-239 178
q-25 -31 -55.5 -75.5t-82 -140.5t-91 -198.5t-69.5 -248t-30 -289.5q0 -145 30 -290.5t69 -247.5t91.5 -200t82 -140.5t55.5 -76.5l239 181q-28 44 -56 100t-66 155t-61.5 235t-23.5 284q0 120 17 235t40 195t55 157t52.5 114.5t42.5 72.5z" />
    <glyph glyph-name="parenright" unicode=")" horiz-adv-x="800" 
d="M358 -254l-4 -8l-268 201l4 6q27 39 55 94.5t66.5 153.5t63 236t24.5 288t-24.5 287.5t-63 235.5t-66.5 153t-55 94l-4 8l268 199l4 -6q22 -27 49.5 -66t83 -138t97.5 -204t75 -258t33 -305t-32.5 -304.5t-75.5 -259t-97 -204t-83.5 -139t-49.5 -64.5zM111 -57l239 -181
q26 34 55.5 76.5t82 140.5t91.5 200t69 247.5t30 290.5q0 144 -30 289.5t-69.5 248t-91 198.5t-82 140.5t-55.5 75.5l-239 -178q28 -43 56.5 -100.5t66 -156t60.5 -234.5t23 -283q0 -120 -16.5 -235.5t-39.5 -196.5t-54 -156t-53 -114.5t-43 -71.5z" />
    <glyph glyph-name="asterisk" unicode="*" horiz-adv-x="940" 
d="M803 825l-219 -159l-115 192l-113 -192l-221 159l150 168l-219 49l81 256l209 -92l-20 228h268l-22 -228l209 92l83 -256l-219 -49zM350 692l119 201l119 -201l188 135l-155 177l229 51l-70 219l-219 -96l23 237h-230l23 -237l-217 96l-72 -219l229 -51l-155 -177z" />
    <glyph glyph-name="plus" unicode="+" horiz-adv-x="1064" 
d="M705 440v-252h-343v252h-251v342h251v252h343v-252h251v-342h-251zM381 457v-252h307v252h252v307h-252v252h-307v-252h-252v-307h252z" />
    <glyph glyph-name="comma" unicode="," horiz-adv-x="561" 
d="M502 166l-269 -410l-229 133l211 443zM221 307l-194 -411l200 -115l248 379z" />
    <glyph glyph-name="hyphen" unicode="-" horiz-adv-x="917" 
d="M811 782v-342h-702v342h702zM127 764v-307h668v307h-668z" />
    <glyph glyph-name="period" unicode="." horiz-adv-x="544" 
d="M272 -27q-86 0 -146 61t-60 148q0 85 60 146t146 61t146.5 -61t60.5 -146q0 -86 -60.5 -147.5t-146.5 -61.5zM272 371q-78 0 -134 -55.5t-56 -133.5t56 -134t134 -56t133.5 56t55.5 134t-55.5 133.5t-133.5 55.5z" />
    <glyph glyph-name="slash" unicode="/" horiz-adv-x="1062" 
d="M999 1628l-589 -1825h-344l589 1825h344zM670 1610l-580 -1788h305l580 1788h-305z" />
    <glyph glyph-name="zero" unicode="0" horiz-adv-x="1378" 
d="M690 -27q-135 0 -243.5 43.5t-179 115t-118 169t-68 201t-20.5 215.5t20.5 215t68 200t118 168.5t179 114.5t243.5 43q134 0 242.5 -43t179.5 -114.5t118.5 -168.5t68 -200t20.5 -215t-20.5 -215.5t-68 -201t-118.5 -169t-179.5 -115t-242.5 -43.5zM690 1440
q-131 0 -236.5 -42t-174.5 -111.5t-115 -164t-66 -195.5t-20 -210t20 -210t66 -196t115 -165t174.5 -112t236.5 -42q94 0 175.5 22t143 60.5t111 93t82.5 117.5t55.5 135.5t32.5 146t10 150.5q0 109 -19.5 210t-65.5 195.5t-114.5 164t-174 111.5t-236.5 42zM690 360
q-107 0 -168 95t-61 262q0 166 61 260t168 94t168.5 -94t61.5 -260q0 -167 -61.5 -262t-168.5 -95zM690 1053q-47 0 -84 -19t-58.5 -51.5t-36.5 -67.5t-21.5 -77t-8.5 -68.5t-2 -52.5t2 -53.5t8.5 -69.5t21.5 -77t36.5 -67.5t58.5 -51.5t84 -19q46 0 83 19t58.5 51.5
t36.5 68t21.5 77t9 69t2.5 53.5q0 25 -2.5 52.5t-9 69t-21.5 76.5t-36.5 67.5t-58.5 51.5t-83 19z" />
    <glyph glyph-name="one" unicode="1" horiz-adv-x="1001" 
d="M834 1434v-1434h-439v954l-190 -127l-180 293l467 314h342zM414 989v-973h401v1399h-317l-449 -301l162 -262z" />
    <glyph glyph-name="two" unicode="2" horiz-adv-x="1216" 
d="M1126 397v-397h-1028v285l4 2q266 259 398 397q190 198 190 266q0 51 -29.5 82t-80.5 31q-56 0 -89 -35t-34 -96v-12l-389 92l2 8q14 81 44 148t67.5 111.5t86 78.5t93.5 52.5t95.5 29.5t86.5 14.5t71 3.5q226 0 365 -126.5t139 -330.5q0 -47 -9.5 -90t-33.5 -90t-51 -88
t-78 -99t-98.5 -107.5t-126.5 -129.5h405zM117 276v-260h991v365h-430l16 14q84 85 129 132.5t99.5 108.5t81 100t52.5 86.5t35 89.5t9 89q0 197 -134 318t-352 121q-34 0 -68.5 -3t-82.5 -14t-91.5 -28.5t-90 -49.5t-83 -74t-66.5 -105t-44 -140l350 -84q6 64 44 100.5
t98 36.5q57 0 93 -36t36 -93q0 -42 -47.5 -106.5t-149.5 -173.5q-151 -157 -395 -394z" />
    <glyph glyph-name="three" unicode="3" horiz-adv-x="1228" 
d="M608 -27q-226 0 -378 106.5t-189 289.5l-2 8l414 92l2 -10q7 -42 43 -72.5t98 -30.5q57 0 89 30.5t32 84.5q0 49 -32.5 75.5t-92.5 26.5h-166v322h166q110 0 110 94q0 46 -28 71t-80 25q-44 0 -74.5 -24t-36.5 -62l-2 -10l-389 88l2 8q38 178 173 275.5t341 97.5
q243 0 385 -112t142 -304q0 -194 -181 -299q215 -99 215 -333q0 -201 -151 -319t-410 -118zM438 446l-379 -81q38 -172 185.5 -272.5t363.5 -100.5q252 0 397.5 112t145.5 306q0 234 -219 323l-19 8l17 9q186 100 186 292q0 184 -136.5 291t-371.5 107q-196 0 -325.5 -91
t-169.5 -257l354 -80q9 42 43.5 67t83.5 25q59 0 92 -30.5t33 -84.5t-33 -83t-94 -29h-148v-285h148q66 0 104.5 -32t38.5 -89q0 -62 -37.5 -97.5t-101.5 -35.5q-67 0 -106.5 31.5t-51.5 76.5z" />
    <glyph glyph-name="four" unicode="4" horiz-adv-x="1333" 
d="M1114 227v-227h-436v227h-606v334l522 873h520v-830h150v-377h-150zM696 244v-228h400v228h149v342h-149v829h-492l-516 -858v-313h608zM696 1010v-424h-254zM678 944l-205 -340h205v340z" />
    <glyph glyph-name="five" unicode="5" horiz-adv-x="1214" 
d="M612 -27q-218 0 -368.5 108t-184.5 288l-2 8l412 90l2 -10q2 -42 36 -73.5t93 -31.5q60 0 94.5 38t34.5 104q0 63 -38.5 98t-106.5 35q-72 0 -140 -54l-2 -2l-321 68l92 795h834v-400h-500l-19 -164q80 35 193 35q201 0 317.5 -119t116.5 -323q0 -220 -150 -355
t-393 -135zM453 444l-375 -79q35 -170 180 -271.5t354 -101.5q235 0 380 129.5t145 341.5q0 196 -112 310t-304 114q-116 0 -201 -39l-14 -6l24 211h498v362h-799l-90 -762l297 -63q69 55 148 55q75 0 118 -40.5t43 -110.5q0 -74 -39 -117t-106 -43q-63 0 -101 32t-46 78z
" />
    <glyph glyph-name="six" unicode="6" horiz-adv-x="1241" 
d="M621 -27q-244 0 -403 149t-159 378q0 68 15 132t44 121t47.5 86.5t49.5 73.5l365 521h467l-324 -437q206 -29 332.5 -165.5t126.5 -331.5q0 -113 -42.5 -211t-116.5 -167.5t-178 -109t-224 -39.5zM1010 1415h-420l-361 -512q-30 -43 -47.5 -72t-46 -84.5t-43 -118
t-14.5 -128.5q0 -221 153.5 -364.5t389.5 -143.5q235 0 388.5 143.5t153.5 364.5q0 193 -124.5 325t-331.5 158l-17 2zM621 352q-65 0 -106.5 41t-41.5 107q0 64 41.5 104.5t106.5 40.5t105 -40.5t40 -104.5q0 -66 -40 -107t-105 -41zM621 627q-58 0 -93.5 -35t-35.5 -92
q0 -58 35 -93.5t94 -35.5q57 0 93 35.5t36 93.5q0 57 -36 92t-93 35z" />
    <glyph glyph-name="seven" unicode="7" horiz-adv-x="1130" 
d="M1061 1087l-483 -1087h-441l461 1034h-528v400h991v-347zM625 1053l-461 -1037h401l479 1076v323h-956v-362h537z" />
    <glyph glyph-name="eight" unicode="8" horiz-adv-x="1277" 
d="M639 -27q-267 0 -422.5 126.5t-155.5 344.5q0 222 199 334q-145 105 -145 281q0 187 139 293t385 106q247 0 386.5 -105.5t139.5 -293.5q0 -176 -145 -281q199 -114 199 -334q0 -218 -155.5 -344.5t-424.5 -126.5zM639 1440q-241 0 -373.5 -99.5t-132.5 -281.5
q0 -179 150 -275l12 -8l-12 -6q-203 -107 -203 -326q0 -209 150.5 -330.5t408.5 -121.5q260 0 410.5 121.5t150.5 330.5q0 219 -203 326l-12 6l12 8q150 96 150 275q0 182 -132.5 281.5t-375.5 99.5zM639 315q-70 0 -107.5 44t-37.5 104q0 65 40.5 106t104.5 41
q66 0 106.5 -41t40.5 -106q0 -60 -38 -104t-109 -44zM639 592q-62 0 -94.5 -38.5t-32.5 -90.5t32.5 -90.5t94.5 -38.5q63 0 96 38.5t33 90.5t-33 90.5t-96 38.5zM639 895q-55 0 -91 34t-36 85q0 56 34.5 88.5t92.5 32.5q60 0 94.5 -32.5t34.5 -88.5q0 -51 -36 -85t-93 -34z
M639 1116q-50 0 -80.5 -27.5t-30.5 -74.5q0 -44 31.5 -72.5t79.5 -28.5q49 0 80 28.5t31 72.5q0 47 -30 74.5t-81 27.5z" />
    <glyph glyph-name="nine" unicode="9" horiz-adv-x="1241" 
d="M1026 520l-364 -520h-467l323 434q-206 29 -332.5 167t-126.5 333q0 227 159.5 375.5t402.5 148.5q244 0 402.5 -148t158.5 -376q0 -69 -15 -133.5t-43.5 -120.5t-48.5 -88t-49 -72zM551 449l-320 -433h420l361 514q28 39 47.5 70.5t46.5 86t42 118t15 129.5
q0 220 -153 363t-389 143q-155 0 -279 -65t-194 -181t-70 -260q0 -195 125 -326.5t332 -156.5zM621 786q-64 0 -105 41.5t-41 106.5q0 64 40.5 104.5t105.5 40.5t106 -40.5t41 -104.5q0 -65 -41.5 -106.5t-105.5 -41.5zM621 1063q-57 0 -93 -36t-36 -93q0 -58 36 -93.5
t93 -35.5q59 0 94 35.5t35 93.5q0 57 -35.5 93t-93.5 36z" />
    <glyph glyph-name="colon" unicode=":" horiz-adv-x="585" 
d="M293 -27q-85 0 -146 61.5t-61 147.5q0 85 61 146t146 61q86 0 147.5 -61t61.5 -146q0 -86 -61.5 -147.5t-147.5 -61.5zM293 371q-78 0 -133.5 -55.5t-55.5 -133.5t55.5 -134t133.5 -56t134 56t56 134t-56 133.5t-134 55.5zM293 653q-85 0 -146 60.5t-61 146.5t61 146.5
t146 60.5q86 0 147.5 -60.5t61.5 -146.5t-61.5 -146.5t-147.5 -60.5zM293 1049q-78 0 -133.5 -55.5t-55.5 -133.5t55.5 -133t133.5 -55t134 55t56 133t-56 133.5t-134 55.5z" />
    <glyph glyph-name="semicolon" unicode=";" horiz-adv-x="641" 
d="M348 653q-86 0 -146.5 60.5t-60.5 146.5t60.5 146.5t146.5 60.5t146.5 -60.5t60.5 -146.5t-60.5 -146.5t-146.5 -60.5zM348 1049q-78 0 -134 -55.5t-56 -133.5t56 -133t134 -55t133.5 55t55.5 133t-55.5 133.5t-133.5 55.5zM518 166l-266 -410l-229 133l208 443zM240 307
l-195 -411l201 -115l248 379z" />
    <glyph glyph-name="less" unicode="&#x3c;" horiz-adv-x="1028" 
d="M920 406v-345l-811 324v360l811 324v-344l-447 -160zM127 733v-336l774 -309v305l-481 172l481 172v305z" />
    <glyph glyph-name="equal" unicode="=" horiz-adv-x="1028" 
d="M920 979v-305h-809v305h809zM127 963v-271h776v271h-776zM920 547v-305h-809v305h809zM127 530v-270h776v270h-776z" />
    <glyph glyph-name="greater" unicode="&#x3e;" horiz-adv-x="1028" 
d="M920 385l-811 -324v345l446 159l-446 160v344l811 -324v-360zM608 565l-481 -172v-305l774 309v336l-774 309v-305z" />
    <glyph glyph-name="question" unicode="?" horiz-adv-x="1093" 
d="M555 -27q-85 0 -146 61.5t-61 147.5q0 85 61 146t146 61q86 0 147.5 -61t61.5 -146q0 -86 -61.5 -147.5t-147.5 -61.5zM555 371q-77 0 -132.5 -55.5t-55.5 -133.5t55.5 -134t132.5 -56q78 0 134 56t56 134t-56 133.5t-134 55.5zM748 502v-8h-386v8q0 51 11.5 99t26 80.5
t41 70t43.5 56.5t46 50q41 43 60.5 71t19.5 56q0 40 -23.5 63t-64.5 23q-82 0 -100 -88l-2 -10l-371 92l2 10q44 177 180 280t324 103q105 0 190 -23.5t140 -63t92.5 -92.5t53.5 -110t16 -118q0 -52 -13.5 -98t-42 -87.5t-50.5 -67.5t-60 -65q-34 -35 -51 -54t-39.5 -50.5
t-32.5 -62t-10 -64.5zM381 510h350q2 46 24 90.5t44.5 71t68.5 73.5q39 40 60.5 65t48 65t39 83t12.5 93q0 59 -15 113t-51 105t-89 88.5t-135 60t-183 22.5q-180 0 -309.5 -97t-175.5 -264l336 -84q25 95 116 95q49 0 78 -28.5t29 -76.5q0 -23 -13.5 -48.5t-28 -42.5
t-44.5 -48q-29 -32 -44 -49t-41 -53.5t-39.5 -66.5t-25 -74.5t-12.5 -92.5z" />
    <glyph glyph-name="at" unicode="@" horiz-adv-x="1855" 
d="M899 -117q-176 0 -326 59.5t-256 164t-165.5 254t-59.5 323.5q0 239 105.5 423t298 285t442.5 101q132 0 248.5 -29t205.5 -80.5t160 -121t116.5 -151.5t69 -171.5t23.5 -181.5q0 -115 -31 -209t-82.5 -153.5t-115 -91.5t-131.5 -32q-173 0 -254 123q-89 -112 -248 -112
q-96 0 -171.5 34.5t-121 92.5t-69 129t-23.5 149q0 77 23.5 148.5t66.5 129.5t112.5 93t153.5 35q107 0 189 -76v55h258v-446q0 -103 80 -103q51 0 81.5 64.5t30.5 169.5q0 72 -18.5 140.5t-61.5 134.5t-107 115t-163 79t-221 30q-278 0 -435 -152t-157 -421
q0 -135 47.5 -245t126 -179t176.5 -106t203 -37q207 0 346 123l6 6l160 -187l-6 -6q-30 -25 -68 -49t-102 -54t-151.5 -48.5t-184.5 -18.5zM938 1475q-183 0 -337 -57.5t-262 -160.5t-168 -250.5t-60 -322.5q0 -228 99.5 -406t279 -277t409.5 -99q289 0 487 159l-137 158
q-142 -121 -350 -121q-109 0 -210 38.5t-182 109.5t-130 185t-49 253q0 274 163.5 433t446.5 159q126 0 227.5 -31t168 -82t111.5 -119.5t64 -139.5t19 -146q0 -112 -36 -181t-95 -69q-97 0 -97 119v430h-223v-84l-16 16q-77 86 -191 86q-83 0 -149.5 -34t-106.5 -90
t-61 -123.5t-21 -139.5q0 -75 22 -142.5t65.5 -123t115.5 -88.5t164 -33q157 0 242 117l8 10l6 -12q75 -125 246 -125q65 0 125.5 30.5t109 87t78 147.5t29.5 202q0 108 -32.5 211.5t-99.5 195t-161 160.5t-226 109.5t-286 40.5zM920 539q-65 0 -107.5 42.5t-42.5 106.5
t42.5 106t107.5 42q63 0 106 -42.5t43 -105.5q0 -64 -43 -106.5t-106 -42.5zM920 819q-58 0 -95 -37t-37 -94q0 -58 36.5 -94.5t95.5 -36.5q57 0 94 37t37 94t-37 94t-94 37z" />
    <glyph glyph-name="A" unicode="A" horiz-adv-x="1503" 
d="M1016 1434l479 -1434h-473l-61 227h-420l-62 -227h-473l479 1434h531zM973 246l63 -230h434l-466 1399h-504l-469 -1399h434l63 230h445zM752 1051l145 -527h-293zM752 983l-123 -440h243z" />
    <glyph glyph-name="B" unicode="B" horiz-adv-x="1339" 
d="M713 0h-602v1434h546q296 0 438 -96t142 -296q0 -199 -164 -288q217 -99 217 -326q0 -428 -577 -428zM129 1415v-1399h584q278 0 418.5 104t140.5 308q0 222 -213 311l-6 2v21l4 2q162 85 162 278q0 191 -137.5 282t-424.5 91h-528zM694 326h-164v274h164q83 0 127.5 -35
t44.5 -100q0 -66 -44.5 -102.5t-127.5 -36.5zM549 582v-238h145q74 0 115 31.5t41 89.5q0 117 -156 117h-145zM641 854h-111v270h111q82 0 127 -35.5t45 -99.5t-45 -99.5t-127 -35.5zM549 1106v-234h92q74 0 114 30t40 87q0 36 -15.5 61t-41 36t-48.5 15.5t-49 4.5h-92z" />
    <glyph glyph-name="C" unicode="C" horiz-adv-x="1421" 
d="M797 -27q-157 0 -294.5 56t-234.5 154t-153 236.5t-56 297.5q0 212 95 381.5t264 264.5t379 95q186 0 343.5 -78t258.5 -221l6 -8l-363 -238l-6 7q-82 114 -239 114q-135 0 -218 -87.5t-83 -229.5q0 -143 83 -231.5t218 -88.5q75 0 137 30t102 85l6 8l363 -239l-6 -9
q-102 -142 -259.5 -220.5t-342.5 -78.5zM797 1440q-205 0 -369.5 -92.5t-257 -258t-92.5 -372.5t92.5 -373t257 -259t369.5 -93q179 0 330.5 74.5t250.5 209.5l-331 220q-88 -117 -250 -117q-143 0 -231.5 93t-88.5 245q0 150 88.5 243t231.5 93q161 0 250 -115l331 219
q-98 135 -249.5 209t-331.5 74z" />
    <glyph glyph-name="D" unicode="D" horiz-adv-x="1490" 
d="M659 0h-546v1434h546q357 0 565 -193t208 -524t-208 -524t-565 -193zM131 1415v-1399h528q349 0 551.5 188.5t202.5 512.5q0 323 -202.5 510.5t-551.5 187.5h-528zM659 381h-129v672h129q169 0 261 -88t92 -248q0 -161 -92 -248.5t-261 -87.5zM549 1034v-637h110
q160 0 248 84t88 236q0 151 -88 234t-248 83h-110z" />
    <glyph glyph-name="E" unicode="E" horiz-adv-x="1159" 
d="M1092 362v-362h-981v1434h960v-363h-524v-176h461v-346h-461v-187h545zM129 1415v-1399h944v328h-543v223h459v312h-459v208h525v328h-926z" />
    <glyph glyph-name="F" unicode="F" horiz-adv-x="1150" 
d="M547 463v-463h-436v1434h970v-381h-534v-224h477v-366h-477zM127 1415v-1399h401v465h478v330h-478v260h537v344h-938z" />
    <glyph glyph-name="G" unicode="G" horiz-adv-x="1576" 
d="M799 -27q-157 0 -294.5 56t-234.5 154t-153 236.5t-56 297.5q0 212 95 381.5t264 264.5t379 95q186 0 343.5 -78t258.5 -221l6 -8l-363 -238l-6 7q-82 114 -239 114q-135 0 -218 -87.5t-83 -229.5q0 -64 20 -124t56.5 -108t95 -77t129.5 -29q199 0 266 147h-311v310h731
v-836h-199l-45 164q-162 -191 -442 -191zM799 1440q-205 0 -369.5 -92.5t-257 -258t-92.5 -372.5t92.5 -373t257 -259t369.5 -93q284 0 440 196l10 15l49 -187h170v803h-696v-274h320l-5 -13q-70 -172 -288 -172q-76 0 -137.5 31t-100 82t-59.5 114t-21 130
q0 151 87.5 243.5t230.5 92.5q161 0 250 -115l331 219q-98 135 -249.5 209t-331.5 74z" />
    <glyph glyph-name="H" unicode="H" horiz-adv-x="1519" 
d="M1409 1434v-1434h-436v526h-424v-526h-436v1434h436v-514h424v514h436zM991 545v-529h400v1399h-400v-514h-461v514h-399v-1399h399v529h461z" />
    <glyph glyph-name="I" unicode="I" horiz-adv-x="649" 
d="M543 1434v-1434h-437v1434h437zM125 1415v-1399h399v1399h-399z" />
    <glyph glyph-name="J" unicode="J" horiz-adv-x="1253" 
d="M580 -27q-238 0 -397 135.5t-165 342.5v8l410 76v-11q5 -50 41 -88.5t102 -38.5q40 0 67.5 14.5t41.5 39t19.5 50.5t5.5 56v877h436v-877q0 -294 -139.5 -439t-421.5 -145zM412 514l-375 -72q9 -198 160.5 -324t382.5 -126q275 0 408.5 140t133.5 425v858h-399v-858
q0 -86 -39 -132t-113 -46q-72 0 -111 39t-48 96z" />
    <glyph glyph-name="K" unicode="K" horiz-adv-x="1409" 
d="M936 731l469 -731h-498l-362 604v-604h-436v1434h436v-598l346 598h479zM526 670l392 -654h452l-455 715l422 684h-436l-375 -645v645h-401v-1399h401v654z" />
    <glyph glyph-name="L" unicode="L" horiz-adv-x="1122" 
d="M1075 397v-397h-964v1434h436v-1037h528zM129 1415v-1399h928v365h-529v1034h-399z" />
    <glyph glyph-name="M" unicode="M" horiz-adv-x="1875" 
d="M1763 1434v-1434h-436v752l-319 -555h-138l-319 555v-752h-436v1434h469l354 -627l356 627h469zM1346 819v-803h399v1399h-440l-367 -643l-365 643h-440v-1399h399v803l349 -604h116z" />
    <glyph glyph-name="N" unicode="N" horiz-adv-x="1515" 
d="M1405 1434v-1434h-389l-467 731v-731h-436v1434h387l469 -734v734h436zM530 793l496 -777h360v1399h-399v-776l-498 776h-360v-1399h401v777z" />
    <glyph glyph-name="O" unicode="O" horiz-adv-x="1597" 
d="M799 -27q-157 0 -294.5 56t-234.5 154t-153 236.5t-56 297.5q0 212 95 381.5t264 264.5t379 95q211 0 379.5 -95t263 -264.5t94.5 -381.5t-94.5 -382t-263 -266t-379.5 -96zM799 1440q-205 0 -369.5 -92.5t-257 -258t-92.5 -372.5t92.5 -373t257 -259t369.5 -93
q206 0 371 93t257.5 259t92.5 373t-92.5 372.5t-257.5 258t-371 92.5zM799 379q-143 0 -230.5 93t-87.5 245q0 151 87.5 243.5t230.5 92.5t231 -92.5t88 -243.5q0 -152 -88 -245t-231 -93zM799 1034q-134 0 -216.5 -87.5t-82.5 -229.5q0 -143 83 -231.5t216 -88.5
q135 0 218 88.5t83 231.5q0 142 -83 229.5t-218 87.5z" />
    <glyph glyph-name="P" unicode="P" horiz-adv-x="1339" 
d="M547 401v-401h-436v1434h589q281 0 435.5 -140t154.5 -395q0 -244 -150.5 -371t-439.5 -127h-153zM129 1415v-1399h401v404h170q85 0 160 11t153 43.5t133 84t90.5 139t35.5 201.5q0 246 -150 381t-422 135h-571zM700 745h-170v308h170q78 0 122 -41t44 -113t-44 -113
t-122 -41zM547 1034v-270h153q71 0 109.5 35.5t38.5 99.5q0 63 -39.5 99t-108.5 36h-153z" />
    <glyph glyph-name="Q" unicode="Q" horiz-adv-x="1597" 
d="M1536 141l-205 -202l-139 141q-176 -107 -393 -107q-158 0 -295.5 56t-234.5 154t-152.5 236.5t-55.5 297.5t55.5 297t152.5 235.5t234.5 153t295.5 55.5q211 0 379.5 -95t263 -264.5t94.5 -381.5q0 -252 -133 -441zM1188 98l6 4l137 -137l178 176l-131 133l6 7
q134 187 134 436q0 207 -92 372.5t-256.5 258t-370.5 92.5q-205 0 -369.5 -92.5t-257 -258t-92.5 -372.5t92.5 -373t257 -259t369.5 -93q218 0 389 106zM799 379q-143 0 -231.5 93t-88.5 245q0 150 88.5 243t231.5 93t231 -92.5t88 -243.5q0 -75 -28 -152l-146 148
l-180 -178l139 -140q-57 -16 -104 -16zM799 1034q-135 0 -218 -87.5t-83 -229.5q0 -143 83 -231.5t218 -88.5q35 0 69 9l-129 129l205 202l137 -139q19 59 19 119q0 142 -83 229.5t-218 87.5z" />
    <glyph glyph-name="R" unicode="R" horiz-adv-x="1398" 
d="M1087 539l306 -539h-480l-229 455h-139v-455h-436v1434h587q285 0 437.5 -133.5t152.5 -382.5q0 -261 -199 -379zM696 473l230 -457h436l-299 531l6 4q199 108 199 367q0 241 -147.5 369t-424.5 128h-571v-1399h401v457h170zM696 782h-170v271h170q166 0 166 -135
q0 -136 -166 -136zM545 1034v-233h151q150 0 150 117q0 60 -36.5 88t-113.5 28h-151z" />
    <glyph glyph-name="S" unicode="S" horiz-adv-x="1228" 
d="M633 -27q-246 0 -406.5 103t-197.5 284l-2 9l376 116v-10q5 -53 63 -93t150 -40q76 0 112 27t36 67q0 15 -5 27.5t-18 22.5t-25.5 16.5t-37.5 14t-43 12t-53 12.5q-51 11 -60 14q-229 54 -332.5 159t-103.5 283q0 204 152.5 332.5t394.5 128.5q203 0 347 -103.5
t179 -275.5l2 -10l-373 -90l-2 8q-4 15 -12 30t-24 33t-45.5 29t-67.5 11q-56 0 -94.5 -22t-38.5 -69q0 -21 12 -37t38.5 -27.5t49.5 -18t64 -15.5q23 -5 61 -16q261 -72 366 -171t105 -272q0 -89 -37 -172t-106 -150t-179 -107t-245 -40zM387 463l-340 -107
q16 -70 51 -126.5t77.5 -93.5t97 -65t103.5 -42.5t102.5 -23.5t88 -11t66.5 -2q105 0 195 25.5t154 69t110 101t68 122t22 132.5q0 166 -102 261t-355 165q-28 8 -61 15q-106 26 -137 46q-42 27 -42 70q0 49 41.5 79t110.5 30q60 0 103.5 -29t60.5 -80l340 84
q-38 163 -176.5 260t-331.5 97q-233 0 -381 -124t-148 -319q0 -172 98.5 -272t323.5 -154q10 -2 60 -14q44 -9 65.5 -14.5t51 -16t43 -21.5t24 -28.5t10.5 -40.5q0 -47 -40 -79.5t-124 -32.5q-96 0 -157 40.5t-72 98.5z" />
    <glyph glyph-name="T" unicode="T" horiz-adv-x="1198" 
d="M817 1034v-1034h-436v1034h-332v400h1100v-400h-332zM399 1053v-1037h400v1037h331v362h-1062v-362h331z" />
    <glyph glyph-name="U" unicode="U" horiz-adv-x="1497" 
d="M748 -27q-312 0 -473.5 156t-161.5 457v848h436v-813q0 -109 50.5 -166.5t148.5 -57.5t149 57.5t51 166.5v813h436v-848q0 -301 -161.5 -457t-474.5 -156zM530 1415h-401v-829q0 -291 158 -442.5t461 -151.5q304 0 461 151t157 443v829h-399v-794q0 -117 -56.5 -179.5
t-162.5 -62.5q-105 0 -161.5 62.5t-56.5 179.5v794z" />
    <glyph glyph-name="V" unicode="V" horiz-adv-x="1503" 
d="M1497 1434l-479 -1434h-531l-479 1434h471l273 -985l272 985h473zM33 1415l467 -1399h504l466 1399h-432l-286 -1034l-285 1034h-434z" />
    <glyph glyph-name="W" unicode="W" horiz-adv-x="2066" 
d="M2056 1434l-426 -1434h-383l-215 760l-213 -760h-385l-424 1434h471l185 -777l219 777h295l219 -777l184 777h473zM1032 825l228 -809h358l414 1399h-435l-196 -829l-234 829h-268l-233 -829l-199 829h-434l416 -1399h356z" />
    <glyph glyph-name="X" unicode="X" horiz-adv-x="1439" 
d="M989 733l447 -733h-484l-233 397l-234 -397h-483l444 733l-428 701h484l217 -369l215 369h483zM719 432l244 -416h440l-434 717l417 682h-442l-225 -385l-227 385h-441l416 -682l-434 -717h442z" />
    <glyph glyph-name="Y" unicode="Y" horiz-adv-x="1476" 
d="M956 539v-539h-436v539l-516 895h483l252 -539l252 539h484zM539 543v-527h401v527l504 872h-443l-262 -563l-262 563h-442z" />
    <glyph glyph-name="Z" unicode="Z" horiz-adv-x="1259" 
d="M1210 397v-397h-1161v338l2 2l545 694h-528v400h1108v-340l-2 -2l-545 -695h581zM68 332v-316h1126v365h-602l565 719v315h-1071v-362h547z" />
    <glyph glyph-name="bracketleft" unicode="[" horiz-adv-x="815" 
d="M727 176v-373h-621v1825h621v-373h-225v-1079h225zM123 1610v-1788h586v336h-226v1116h226v336h-586z" />
    <glyph glyph-name="backslash" unicode="\" horiz-adv-x="1064" 
d="M412 1622l587 -1819h-344l-2 9l-587 1816h344zM90 1610l580 -1788h305l-580 1788h-305z" />
    <glyph glyph-name="bracketright" unicode="]" horiz-adv-x="815" 
d="M709 1628v-1825h-621v373h225v1079h-225v373h621zM106 158v-336h586v1788h-586v-336h226v-1116h-226z" />
    <glyph glyph-name="asciicircum" unicode="^" horiz-adv-x="1093" 
d="M700 1427l332 -651h-344l-141 307l-139 -307h-345l334 658h301zM547 1128l151 -333h303l-315 620h-278l-316 -620h303z" />
    <glyph glyph-name="underscore" unicode="_" horiz-adv-x="845" 
d="M819 -125v-305h-792v305h792zM45 -143v-271h756v271h-756z" />
    <glyph glyph-name="grave" unicode="`" horiz-adv-x="733" 
d="M483 1497l150 -319h-314l-221 319h385zM133 1479l197 -283h274l-133 283h-338z" />
    <glyph glyph-name="a" unicode="a" horiz-adv-x="1138" 
d="M389 -27q-17 0 -37.5 1.5t-56.5 9t-68 19.5t-67.5 35.5t-61 55.5t-42.5 81.5t-17 109.5q0 224 227 309q116 43 277 43v0v0v0v0v0v0v0v0v0v0h1v0v0v0v0h1v0v0h1v0v0h1v0v0h1v0h1v0h1v0h1v0h1h1v0h1v0h1h1v0h1h1h1h1v0h1h1h1h1h1h1h1h1h1h1h1h1h1h1h1h1h1h1h1h1h1h1h1h1h1
h1h1h1h1h1h1h1h1h1h1h1h1h1h1h1h1h1h1h1h1h1h1h1h1h1h1h1h1h1h1h1h1h1h1h1h1h1h1h1h1h1h1h1h1h1h1h1h1h1h1h1h1h1h1h1h1h1h1h1h1h10q-3 62 -40 96.5t-101 34.5q-46 0 -95 -16.5t-81 -42.5l-4 -4l-246 167l8 9q174 186 473 186q112 0 197 -26t135.5 -66.5t82.5 -98t43 -113
t11 -118.5v-645h-383v78q-45 -51 -119 -78t-147 -27zM674 618h-131q-158 0 -271 -43q-217 -80 -217 -290q0 -57 16 -104t40.5 -76.5t58.5 -52t64.5 -33.5t65 -17.5t53.5 -8t36 -1.5q76 0 153.5 30.5t114.5 86.5l17 24v-117h346v629q0 198 -115 301t-336 103
q-283 0 -452 -172l215 -150q77 57 182 57q75 0 117.5 -41t42.5 -116v-9zM514 250q-49 0 -78.5 25.5t-29.5 68.5q0 113 233 113h35v-127l-2 -2q-23 -33 -64 -55.5t-94 -22.5zM655 438h-16q-215 0 -215 -94q0 -35 24.5 -55.5t65.5 -20.5q89 0 141 68v102z" />
    <glyph glyph-name="b" unicode="b" horiz-adv-x="1265" 
d="M741 -27q-160 0 -258 95v-68h-383v1434h383v-461q94 94 258 94q97 0 178.5 -31.5t137.5 -85t95 -124t57 -148t18 -158.5q0 -80 -18 -157.5t-57 -148.5t-95 -124t-137.5 -85t-178.5 -32zM465 16v99l16 -19q88 -104 260 -104q116 0 208 46.5t147 123t83.5 168.5t28.5 190
q0 79 -17.5 153.5t-54.5 143t-91 120t-132.5 82t-171.5 30.5q-171 0 -260 -105l-16 -16v487h-346v-1399h346zM668 328q-85 0 -139 53.5t-54 138.5q0 86 54 139.5t139 53.5q86 0 139 -53.5t53 -139.5t-53 -139t-139 -53zM668 694q-78 0 -126 -48t-48 -126t48 -126t126 -48
t126 48t48 126t-48 126t-126 48z" />
    <glyph glyph-name="c" unicode="c" horiz-adv-x="1073" 
d="M598 -27q-244 0 -401.5 155t-157.5 392q0 238 157.5 392.5t401.5 154.5q154 0 278 -64.5t199 -183.5l4 -8l-329 -201l-5 8q-48 76 -147 76q-78 0 -126 -48t-48 -126t48 -126t126 -48q98 0 147 78l5 6l329 -201l-4 -8q-75 -119 -199 -183.5t-278 -64.5zM598 1049
q-235 0 -389 -149.5t-154 -379.5q0 -150 70 -271t194.5 -189t278.5 -68q146 0 265.5 60.5t191.5 170.5l-299 183q-53 -78 -158 -78q-86 0 -139 53.5t-53 138.5q0 86 53 139.5t139 53.5q105 0 158 -78l299 182q-72 110 -191.5 171t-265.5 61z" />
    <glyph glyph-name="d" unicode="d" horiz-adv-x="1265" 
d="M524 -27q-96 0 -177.5 32t-137 85t-95 124t-57.5 148.5t-18 157.5q0 102 30 197.5t87.5 174.5t152.5 127t215 48q166 0 260 -94v461h383v-1434h-383v68q-98 -95 -260 -95zM524 1049q-93 0 -171 -30.5t-131.5 -82t-91.5 -120t-55.5 -143.5t-17.5 -153q0 -98 29 -190
t84 -168.5t147 -123t207 -46.5q171 0 262 104l17 19v-99h346v1399h-346v-487l-17 16q-92 105 -262 105zM600 328q-87 0 -139.5 52.5t-52.5 139.5t52.5 140t139.5 53q85 0 138 -53.5t53 -139.5q0 -85 -53 -138.5t-138 -53.5zM600 694q-78 0 -127 -48t-49 -126t49 -126
t127 -48q77 0 125.5 48t48.5 126t-48.5 126t-125.5 48z" />
    <glyph glyph-name="e" unicode="e" horiz-adv-x="1167" 
d="M629 -27q-264 0 -426 150t-162 395q0 235 157.5 392t393.5 157q251 0 401 -170q164 -184 129 -477v-6l-706 -2q51 -138 213 -138q60 0 108 24.5t74 57.5l6 6l260 -155l-6 -6q-59 -105 -177.5 -166.5t-264.5 -61.5zM592 1049q-229 0 -382 -152t-153 -379
q0 -235 158 -380.5t414 -145.5q136 0 250.5 56.5t173.5 152.5l-232 139q-30 -35 -80.5 -59.5t-111.5 -24.5q-89 0 -150 42t-84 120l-2 12h713q28 283 -125 455q-70 79 -171 121.5t-218 42.5zM793 610l-400 -2l2 13q22 76 74 119.5t123 43.5q78 0 129 -42t70 -121zM592 768
q-63 0 -108.5 -36.5t-67.5 -104.5l354 2q-38 139 -178 139z" />
    <glyph glyph-name="f" unicode="f" horiz-adv-x="804" 
d="M565 719v-719h-383v719h-125v323h125q3 224 109 340.5t307 116.5q59 0 158 -16l12 -2v-316l-10 2q-46 4 -62 4q-125 0 -131 -129h203v-323h-203zM201 735v-719h346v719h203v289h-203v8q0 76 38.5 117t110.5 41q18 0 54 -4v278q-79 17 -152 17q-197 0 -297 -113t-100 -336
v-8h-127v-289h127z" />
    <glyph glyph-name="g" unicode="g" horiz-adv-x="1265" 
d="M580 -410q-171 0 -309.5 62.5t-198.5 165.5l-4 8l282 170q26 -39 83.5 -65.5t129.5 -26.5q66 0 110.5 15.5t68 47.5t32.5 70t10 94q-93 -84 -258 -84q-215 0 -351 142t-136 368q0 78 18 151t57 138.5t95 114.5t137.5 77.5t179.5 28.5q162 0 258 -90v65h383v-944
q0 -235 -158 -371.5t-429 -136.5zM346 -29l-254 -151q58 -97 191 -154t297 -57q264 0 416.5 131t152.5 358v926h-346v-92l-17 18q-92 99 -260 99q-117 0 -209 -42t-147.5 -112.5t-84 -156.5t-28.5 -181q0 -92 29 -178t84 -157.5t147.5 -115t208.5 -43.5q168 0 260 95l17 16
v-39q0 -42 -4.5 -74t-19.5 -66.5t-40 -57.5t-70 -37.5t-106 -14.5q-73 0 -131.5 25.5t-85.5 60.5zM598 365q-86 0 -138 53t-52 139q0 87 52 140t138 53q88 0 140.5 -52.5t52.5 -140.5t-52.5 -140t-140.5 -52zM598 731q-77 0 -125.5 -48t-48.5 -126t48.5 -126t125.5 -48
q80 0 128 47.5t48 126.5q0 80 -47.5 127t-128.5 47z" />
    <glyph glyph-name="h" unicode="h" horiz-adv-x="1239" 
d="M1139 649v-649h-383v561q0 58 -38 94.5t-100 36.5q-61 0 -99 -36t-38 -95v-561h-381v1434h381v-484q99 117 273 117q73 0 133 -18.5t99 -47t68.5 -68.5t45 -78t25 -81t12 -71t2.5 -54zM774 561v-545h346v633q0 30 -3 60.5t-12.5 71.5t-24.5 76.5t-43.5 72t-65.5 62
t-93 41.5t-124 16q-182 0 -273 -129l-16 -23v518h-348v-1399h348v545q0 66 43 108t110 42q69 0 112.5 -42t43.5 -108z" />
    <glyph glyph-name="i" unicode="i" 
d="M479 1042v-1042h-383v1042h383zM115 1024v-1008h346v1008h-346zM287 1122q-82 0 -139.5 58t-57.5 141q0 82 57.5 140.5t139.5 58.5q83 0 140.5 -58.5t57.5 -140.5q0 -83 -57.5 -141t-140.5 -58zM287 1501q-74 0 -127.5 -53.5t-53.5 -126.5q0 -75 53.5 -127.5t127.5 -52.5
q75 0 128.5 52.5t53.5 127.5q0 74 -53.5 127t-128.5 53z" />
    <glyph glyph-name="j" unicode="j" 
d="M94 -373q-82 0 -160 19l-6 2v342q29 -7 59 -5t54 10.5t39.5 39t15.5 82.5v925h383v-997q0 -202 -99.5 -310t-285.5 -108zM-55 -31v-307q71 -18 149 -18q87 0 154 24.5t106.5 63.5t64.5 93.5t33.5 107t8.5 112.5v979h-346v-907q0 -46 -11.5 -77.5t-30 -45.5t-41.5 -21.5
t-45 -5.5t-42 2zM287 1122q-82 0 -139.5 58t-57.5 141q0 82 57.5 140.5t139.5 58.5q83 0 140.5 -58.5t57.5 -140.5q0 -83 -57.5 -141t-140.5 -58zM287 1501q-74 0 -127.5 -53.5t-53.5 -126.5q0 -75 53.5 -127.5t127.5 -52.5q75 0 128.5 52.5t53.5 127.5q0 74 -53.5 127
t-128.5 53z" />
    <glyph glyph-name="k" unicode="k" horiz-adv-x="1167" 
d="M819 545l344 -545h-442l-242 416v-416h-381v1434h381v-785l234 393h424zM463 483l268 -467h399l-331 529l305 479h-381l-260 -440v831h-348v-1399h348v467z" />
    <glyph glyph-name="l" unicode="l" 
d="M477 1434v-1434h-381v1434h381zM113 1415v-1399h348v1399h-348z" />
    <glyph glyph-name="m" unicode="m" horiz-adv-x="1794" 
d="M1690 649v-649h-381v578q0 54 -30 84t-81 30t-81 -30t-30 -84v-578h-380v578q0 54 -29 84t-82 30q-51 0 -81 -30t-30 -84v-578h-381v1042h381v-69q94 94 246 94q192 0 283 -131q116 131 301 131q72 0 130.5 -18.5t96.5 -47t66.5 -68.5t43.5 -78t24 -81t11.5 -71t2.5 -54z
M1325 578v-562h348v633q0 25 -2 52t-11 68t-23.5 77t-41.5 74.5t-63.5 66t-92.5 45t-124 17.5q-182 0 -295 -134l-8 -8l-6 11q-85 131 -275 131q-159 0 -248 -105l-14 -18v98h-348v-1008h348v562q0 61 34 97t93 36q60 0 93.5 -35.5t33.5 -97.5v-562h348v562q0 61 34 97
t93 36t93 -36t34 -97z" />
    <glyph glyph-name="n" unicode="n" horiz-adv-x="1236" 
d="M1139 649v-649h-383v561q0 58 -38 94.5t-100 36.5q-61 0 -98 -36t-37 -95v-561h-383v1042h383v-92q95 117 271 117q73 0 133 -18.5t99 -47t68.5 -68.5t45 -78t25 -81t12 -71t2.5 -54zM774 561v-545h346v633q0 31 -2.5 61t-12 71t-25 76.5t-43.5 72t-65 62t-93.5 41.5
t-124.5 16q-182 0 -273 -129l-16 -23v127h-346v-1008h346v545q0 66 43 108t110 42q69 0 112.5 -42t43.5 -108z" />
    <glyph glyph-name="o" unicode="o" horiz-adv-x="1196" 
d="M598 -27q-120 0 -224 41.5t-177.5 113.5t-115.5 173.5t-42 218.5q0 238 158 392.5t401 154.5q244 0 402.5 -154.5t158.5 -392.5q0 -237 -158.5 -392t-402.5 -155zM598 1049q-235 0 -388 -149.5t-153 -379.5q0 -229 153 -378.5t388 -149.5q236 0 389.5 149.5t153.5 378.5
q0 230 -153.5 379.5t-389.5 149.5zM598 328q-85 0 -138.5 53.5t-53.5 138.5q0 86 53.5 139.5t138.5 53.5q86 0 139.5 -53.5t53.5 -139.5q0 -85 -53.5 -138.5t-139.5 -53.5zM598 694q-78 0 -126 -48t-48 -126t48 -126t126 -48t126 48t48 126t-48 126t-126 48z" />
    <glyph glyph-name="p" unicode="p" horiz-adv-x="1265" 
d="M483 68v-459h-383v1433h383v-69q94 94 260 94q97 0 178.5 -31.5t137.5 -85t95 -124t57 -148t18 -158.5q0 -80 -18 -157.5t-57 -148.5t-95 -124t-137.5 -85t-178.5 -32q-162 0 -260 95zM119 1024v-1397h346v488l16 -19q91 -104 262 -104q116 0 208 46.5t147 123
t83.5 168.5t28.5 190q0 79 -17.5 153.5t-54.5 143t-91 120t-132.5 82t-171.5 30.5q-171 0 -262 -105l-16 -16v96h-346zM670 328q-86 0 -139.5 53.5t-53.5 138.5q0 86 53.5 139.5t139.5 53.5t138 -53t52 -140q0 -86 -52 -139t-138 -53zM670 694q-78 0 -127 -48t-49 -126
t49 -126t127 -48q77 0 125.5 48t48.5 126t-48.5 126t-125.5 48z" />
    <glyph glyph-name="q" unicode="q" horiz-adv-x="1267" 
d="M1167 1042v-1433h-383v459q-98 -95 -258 -95q-97 0 -178.5 32t-137 85t-94.5 124t-57 148.5t-18 157.5q0 102 29.5 197.5t87 174.5t153 127t215.5 48q164 0 258 -94v69h383zM803 115v-488h346v1397h-346v-96l-15 16q-91 105 -262 105q-93 0 -171.5 -30.5t-132.5 -82
t-91 -120t-54.5 -143t-17.5 -153.5q0 -98 28.5 -190t83.5 -168.5t147 -123t208 -46.5q171 0 262 104zM600 328q-86 0 -139 53t-53 139t53 139.5t139 53.5q85 0 139 -53.5t54 -139.5q0 -85 -54 -138.5t-139 -53.5zM600 694q-78 0 -126 -48t-48 -126t48 -126t126 -48t126 48
t48 126t-48 126t-126 48z" />
    <glyph glyph-name="r" unicode="r" horiz-adv-x="831" 
d="M479 395v-395h-381v1042h381v-139q54 77 133 120.5t166 43.5h8v-412h-10q-163 20 -233 -41q-64 -59 -64 -219zM115 1024v-1008h348v379q0 80 13.5 138t53.5 94q73 64 238 49v373q-86 -1 -164 -50t-125 -131l-16 -28v184h-348z" />
    <glyph glyph-name="s" unicode="s" horiz-adv-x="1011" 
d="M496 -27q-46 0 -91.5 4t-110 19.5t-114.5 41t-93 73.5t-58 112l-2 8l335 105l3 -8q21 -80 127 -80q46 0 71 17t25 48q0 28 -31 42.5t-108 29.5q-47 9 -62 12q-80 17 -135.5 39.5t-101.5 59.5t-68.5 93t-22.5 132q0 155 129 250.5t338 95.5q90 0 173 -27t151 -88.5
t90 -148.5l2 -10l-309 -74l-2 8q-19 70 -103 70q-46 0 -72 -17.5t-26 -48.5q0 -17 10 -29t31 -20t38.5 -12.5t46.5 -10t42 -8.5q99 -21 165.5 -44t119.5 -60t77.5 -90.5t24.5 -128.5q0 -166 -129.5 -260.5t-359.5 -94.5zM350 313l-303 -94q16 -58 58 -102t90 -67t109.5 -37
t104.5 -17.5t87 -3.5q221 0 346 89t125 247q0 126 -84 195t-289 112q-8 2 -32.5 6t-36 6.5t-32.5 8t-32 11.5t-23.5 15t-18 21.5t-5.5 27.5q0 39 30 61.5t84 22.5q92 0 117 -76l275 68q-22 80 -87 136.5t-143.5 81t-163.5 24.5q-201 0 -324.5 -90t-123.5 -238q0 -72 21 -124
t64.5 -86.5t96.5 -56t131 -38.5q19 -5 54.5 -11.5t59 -12.5t48.5 -15.5t38 -25.5t13 -38q0 -39 -29 -60.5t-83 -21.5q-114 0 -142 82z" />
    <glyph glyph-name="t" unicode="t" horiz-adv-x="866" 
d="M610 -20q-77 0 -140.5 18t-106 46t-74 68.5t-49 79.5t-28.5 84.5t-14 79t-3 66.5v297h-127v323h127v215h383v-215h200v-323h-200v-262q0 -138 131 -138q24 0 59 7l10 2v-326l-6 -2q-65 -20 -162 -20zM86 1024v-289h127v-313q0 -47 6.5 -93.5t31 -109.5t64.5 -109
t116.5 -79t178.5 -33q91 0 150 16v291q-32 -4 -51 -4q-72 0 -111 40.5t-39 115.5v278h201v289h-201v215h-346v-215h-127z" />
    <glyph glyph-name="u" unicode="u" horiz-adv-x="1239" 
d="M485 -27q-73 0 -133 18.5t-99 47t-68.5 68.5t-45 78t-25 81t-12 71t-2.5 54v651h383v-561q0 -60 38 -95.5t100 -35.5t98.5 35.5t36.5 95.5v561h383v-1042h-383v90q-94 -117 -271 -117zM465 1024h-346v-633q0 -30 2.5 -60t12 -71t25 -76.5t43.5 -71.5t65 -62t93.5 -42
t124.5 -16q180 0 273 131l16 22v-129h346v1008h-346v-543q0 -66 -42.5 -107.5t-110.5 -41.5q-69 0 -112.5 41.5t-43.5 107.5v543z" />
    <glyph glyph-name="v" unicode="v" horiz-adv-x="1183" 
d="M1180 1042l-406 -1042h-366l-2 4l-404 1038h406l182 -575l184 575h406zM29 1024l391 -1008h342l391 1008h-367l-196 -616l-197 616h-364z" />
    <glyph glyph-name="w" unicode="w" horiz-adv-x="1667" 
d="M1659 1042l-350 -1042h-314l-161 508l-164 -508h-314l-350 1042h406l133 -505l162 505h254l161 -505l133 505h404zM834 567l176 -551h286l338 1008h-366l-146 -553l-176 553h-227l-176 -553l-146 553h-364l338 -1008h286z" />
    <glyph glyph-name="x" unicode="x" horiz-adv-x="1165" 
d="M836 522l329 -522h-426l-155 274l-156 -274h-426l330 522l-314 520h428l138 -272l137 272h428zM584 311l166 -295h383l-320 506l303 502h-383l-149 -295l-148 295h-385l303 -502l-319 -506h383z" />
    <glyph glyph-name="y" unicode="y" horiz-adv-x="1185" 
d="M1182 1042l-568 -1433h-378l182 461l-414 972h406l182 -516l186 516h404zM436 70l-174 -443h340l553 1397h-364l-199 -551l-195 551h-364z" />
    <glyph glyph-name="z" unicode="z" horiz-adv-x="1038" 
d="M971 342v-342h-903v264l387 436h-369v342h868v-264l-389 -436h406zM86 256v-240h868v308h-430l412 460v240h-832v-305h392z" />
    <glyph glyph-name="braceleft" unicode="{" horiz-adv-x="888" 
d="M801 176v-373h-185q-391 0 -391 359v280q0 78 -25 103.5t-85 25.5h-9v289h9q60 0 85 25.5t25 103.5v283q0 356 391 356h185v-373h-56q-66 0 -94 -30t-28 -101v-188q0 -176 -138 -219q138 -43 138 -221v-189q0 -69 28 -100t94 -31h56zM125 844v-254q64 -1 91.5 -35.5
t27.5 -112.5v-280q0 -172 92 -256t280 -84h166v336h-37q-73 0 -107 36t-34 113v189q0 88 -33 137.5t-104 68.5l-6 3v24h6q70 19 103.5 69t33.5 138v188q0 78 34 114t107 36h37v336h-166q-187 0 -279.5 -84t-92.5 -254v-283q0 -77 -27.5 -110.5t-91.5 -34.5z" />
    <glyph glyph-name="bar" unicode="|" horiz-adv-x="589" 
d="M483 1548v-1849h-379v1849h379zM123 1530v-1813h342v1813h-342z" />
    <glyph glyph-name="braceright" unicode="}" horiz-adv-x="888" 
d="M272 -197h-184v373h55q66 0 94.5 31t28.5 100v189q0 178 137 221q-137 43 -137 219v188q0 70 -28.5 100.5t-94.5 30.5h-55v373h184q392 0 392 -356v-283q0 -78 25 -103.5t85 -25.5h8v-289h-8q-60 0 -85 -25.5t-25 -103.5v-280q0 -359 -392 -359zM106 158v-336h166
q188 0 280.5 84t92.5 256v280q0 78 27.5 112.5t91.5 35.5v254q-64 1 -91.5 34.5t-27.5 110.5v283q0 338 -373 338h-166v-336h37q74 0 108 -36t34 -114v-188q0 -88 33.5 -138t103.5 -69h6v-24l-6 -3q-71 -19 -104 -68.5t-33 -137.5v-189q0 -77 -34.5 -113t-107.5 -36h-37z
" />
    <glyph glyph-name="asciitilde" unicode="~" horiz-adv-x="1189" 
d="M836 420q-90 0 -230 53q-103 39 -145 39q-63 0 -80 -78l-2 -8l-291 57q53 320 291 320q85 0 219 -53q95 -35 131 -35q65 0 82 73l2 9l289 -60v-8q-19 -149 -87.5 -229t-178.5 -80zM461 530q50 0 151 -38q126 -54 224 -54q50 0 90 17.5t66 45t45.5 66t29.5 76t16 80.5
l-256 53q-22 -80 -98 -80q-43 0 -137 37q-124 51 -213 51q-65 0 -115 -25t-80.5 -69t-47.5 -90.5t-27 -101.5l256 -52q11 38 32 61t64 23z" />
    <glyph glyph-name="exclamdown" unicode="&#xa1;" horiz-adv-x="628" 
d="M313 653q-86 0 -146.5 60.5t-60.5 146.5t60.5 146.5t146.5 60.5t146.5 -60.5t60.5 -146.5t-60.5 -146.5t-146.5 -60.5zM313 1049q-78 0 -133 -55.5t-55 -133.5t55 -133t133 -55t134.5 55t56.5 133t-56.5 133.5t-134.5 55.5zM475 549l47 -940h-418l48 940h323zM170 530
l-45 -903h379l-45 903h-289z" />
    <glyph glyph-name="cent" unicode="&#xa2;" horiz-adv-x="1175" 
d="M678 172v-172h-180v182q-195 40 -311.5 185.5t-116.5 349.5q0 203 116.5 347.5t311.5 184.5v185h180v-172q137 -11 249 -75t179 -171l4 -8l-330 -201l-4 6q-49 78 -147 78q-78 0 -126 -48t-48 -126t48 -126t126 -48q100 0 147 75l4 9l330 -201l-4 -8
q-68 -108 -180 -172.5t-248 -73.5zM516 197v-181h143v172h9q133 7 241 68t176 164l-299 182q-53 -78 -157 -78q-86 0 -139.5 53.5t-53.5 139.5q0 85 53.5 138.5t139.5 53.5q104 0 157 -78l299 183q-68 102 -176 162t-241 67h-9v172h-143v-180l-8 -2q-192 -37 -307 -177.5
t-115 -338.5q0 -199 115 -340t307 -178z" />
    <glyph glyph-name="sterling" unicode="&#xa3;" horiz-adv-x="1277" 
d="M1188 397v-397h-1116v395l4 2q70 36 98 88.5t31 130.5h-133v162h112q-2 5 -5 17.5t-5 17.5q-33 118 -33 195q0 65 16.5 126.5t55 121t95.5 104t145.5 71.5t197.5 27q212 0 340.5 -93t165.5 -273l2 -9l-383 -94l-2 8q-17 74 -88 74q-47 0 -68.5 -28.5t-21.5 -69.5
q0 -32 14 -90q17 -66 21 -105h307v-162h-313q-31 -132 -131 -219h694zM88 383v-367h1083v365h-708v16l2 2q115 85 143 230l2 6h310v127h-304l-2 6q-5 49 -20 109q-16 74 -16 96q0 54 29 85.5t79 31.5q80 0 102 -78l349 86q-17 82 -55.5 144t-86.5 99t-109.5 60t-117 31
t-117.5 8q-106 0 -191 -26t-140 -68.5t-92 -99.5t-52.5 -116.5t-15.5 -121.5q0 -71 30 -189q10 -26 15 -47l2 -10h-119v-127h135l-2 -8q0 -82 -27 -142t-106 -102z" />
    <glyph glyph-name="currency" unicode="&#xa4;" horiz-adv-x="1013" 
d="M950 399l-127 -127l-116 119q-91 -57 -199 -57t-199 57l-116 -119l-130 127l119 119q-57 91 -57 199q0 104 57 198l-119 117l130 127l116 -117q89 56 199 56t199 -56l116 117l127 -127l-116 -117q55 -91 55 -198q0 -111 -55 -199zM702 410l7 4l114 -115l103 100l-115 115
l4 6q57 91 57 197q0 103 -57 194l-4 7l115 114l-103 103l-114 -115l-7 4q-91 57 -194 57q-107 0 -195 -57l-6 -4l-114 115l-103 -103l115 -114l-4 -7q-58 -92 -58 -194q0 -105 58 -197l4 -6l-115 -115l103 -100l114 115l6 -4q89 -58 195 -58q102 0 194 58zM508 586
q-54 0 -92.5 38.5t-38.5 92.5t38.5 91.5t92.5 37.5t91.5 -37.5t37.5 -91.5t-37.5 -92.5t-91.5 -38.5zM508 827q-46 0 -79.5 -32.5t-33.5 -77.5q0 -47 33.5 -80t79.5 -33t79.5 33t33.5 80q0 45 -33.5 77.5t-79.5 32.5z" />
    <glyph glyph-name="yen" unicode="&#xa5;" horiz-adv-x="1476" 
d="M956 281v-281h-436v281h-252v161h252v80h-252v164h166l-432 748h483l252 -539l252 539h484l-433 -748h166v-164h-250v-80h250v-161h-250zM537 299v-283h401v283h252v127h-252v115h252v127h-180l432 747h-441l-264 -563l-262 563h-440l432 -747h-180v-127h250v-115h-250
v-127h250z" />
    <glyph glyph-name="brokenbar" unicode="&#xa6;" horiz-adv-x="589" 
d="M483 434v-735h-379v735h379zM123 416v-699h342v699h-342zM483 1548v-735h-379v735h379zM123 1530v-701h342v701h-342z" />
    <glyph glyph-name="section" unicode="&#xa7;" horiz-adv-x="1212" 
d="M575 -238q-184 0 -306 79t-148 214l-2 8l338 76l2 -10q16 -88 102 -88q40 0 64 21.5t24 56.5q0 20 -13.5 37.5t-45 33.5t-56 25.5t-73.5 26.5q-47 16 -74 25.5t-71.5 28.5t-71 36.5t-59.5 45.5t-51.5 58.5t-31 73t-12.5 90.5q0 79 38 153.5t105 123.5q-71 85 -71 210
q0 174 125.5 272.5t347.5 98.5q186 0 308.5 -79t148.5 -214v-8l-336 -76l-2 11q-16 88 -103 88q-41 0 -65.5 -21.5t-24.5 -56.5q0 -17 11 -32t25.5 -25.5t44 -23.5t50 -20.5t60.5 -21.5q47 -16 73 -25.5t71 -29t71.5 -36.5t59.5 -45.5t51 -58.5t31 -72.5t13 -90.5
q0 -78 -38.5 -153t-104.5 -124q72 -90 72 -211q0 -173 -126.5 -272t-349.5 -99zM442 117l-303 -68q28 -126 143.5 -197t292.5 -71q215 0 336 93t121 259q0 122 -74 205l-6 8l9 6q66 47 104.5 119.5t38.5 149.5q0 46 -12.5 86t-30 69t-49.5 56t-58 43.5t-69 35t-69 28
t-71 24.5q-44 15 -64 22t-52 21.5t-46.5 26.5t-26 30t-11.5 39q0 43 29.5 68.5t76.5 25.5q95 0 117 -92l303 67q-28 126 -143 197.5t-293 71.5q-214 0 -334.5 -93.5t-120.5 -259.5q0 -123 72 -204l8 -9l-8 -6q-67 -47 -106.5 -119t-39.5 -149q0 -46 12.5 -86t30 -69t50 -56
t58.5 -43.5t69.5 -35.5t69 -28t71.5 -24q119 -41 153 -64q48 -32 48 -75t-30 -69.5t-77 -26.5q-30 0 -52.5 9.5t-35.5 25.5t-20 30t-11 29zM739 481l-4 -4l-4 2l-110 39q-39 14 -54 19.5t-44.5 17.5t-41.5 20t-28 20.5t-21.5 26t-5.5 29.5q0 49 45 88l4 4l117 -43
q37 -13 53 -18.5t44.5 -17t41 -19.5t28 -20.5t21.5 -26t6 -29.5q0 -47 -47 -88zM625 537l106 -39q37 33 37 71q0 13 -5.5 24t-20 21.5t-26.5 18t-38.5 18t-42 16t-49.5 17.5q-20 7 -107 39q-37 -37 -37 -72q0 -34 41 -56.5t126 -52.5l6 -1.5t5 -1.5t5 -2z" />
    <glyph glyph-name="dieresis" unicode="&#xa8;" horiz-adv-x="1064" 
d="M293 1145q-76 0 -130 53.5t-54 128.5q0 77 53.5 130.5t130.5 53.5q75 0 129.5 -54t54.5 -130q0 -75 -54.5 -128.5t-129.5 -53.5zM293 1495q-69 0 -117.5 -49.5t-48.5 -118.5q0 -68 48.5 -117t117.5 -49q67 0 116.5 49.5t49.5 116.5q0 69 -49 118.5t-117 49.5zM770 1145
q-75 0 -129.5 53.5t-54.5 128.5q0 76 54.5 130t129.5 54q76 0 130 -53.5t54 -130.5q0 -75 -54 -128.5t-130 -53.5zM770 1495q-69 0 -117.5 -49.5t-48.5 -118.5q0 -68 48.5 -117t117.5 -49t117.5 49t48.5 117q0 69 -48.5 118.5t-117.5 49.5z" />
    <glyph glyph-name="copyright" unicode="&#xa9;" horiz-adv-x="1669" 
d="M846 328q-167 0 -279 111t-112 278q0 166 112 276.5t279 110.5q98 0 180 -41t135 -115l6 -8l-194 -129l-6 8q-42 58 -121 58q-68 0 -110 -44t-42 -116t42 -117t110 -45q79 0 121 57l6 9l194 -129l-6 -9q-53 -74 -135 -114.5t-180 -40.5zM846 1085q-160 0 -266.5 -105
t-106.5 -263q0 -160 106.5 -265.5t266.5 -105.5q91 0 167.5 36.5t127.5 104.5l-164 109q-47 -59 -131 -59q-75 0 -121.5 49.5t-46.5 130.5q0 79 46.5 128.5t121.5 49.5q84 0 131 -59l164 108q-51 68 -127.5 104.5t-167.5 36.5zM834 -25q-150 0 -287.5 58.5t-237 158
t-158.5 237t-59 288.5q0 150 59 287.5t158.5 236.5t237 158t287.5 59q151 0 288.5 -59t236.5 -158t157.5 -236.5t58.5 -287.5q0 -202 -99 -372.5t-269.5 -270t-372.5 -99.5zM834 1440q-196 0 -362.5 -97.5t-263.5 -264t-97 -361.5q0 -196 97 -362.5t263.5 -263.5t362.5 -97
t362.5 97t263 263.5t96.5 362.5q0 195 -96.5 361.5t-263 264t-362.5 97.5zM834 100q-125 0 -238.5 49t-196 131.5t-131.5 197t-49 239.5q0 166 82.5 307.5t224.5 224t308 82.5q167 0 309 -82.5t224.5 -224t82.5 -307.5q0 -125 -49 -239.5t-131.5 -197t-196.5 -131.5
t-239 -49zM834 1313q-162 0 -299.5 -80t-217 -217.5t-79.5 -298.5q0 -122 47 -232.5t127 -190.5t190 -127.5t232 -47.5t232.5 47.5t190.5 127.5t127.5 190.5t47.5 232.5q0 161 -80 298.5t-218 217.5t-300 80z" />
    <glyph glyph-name="guillemotleft" unicode="&#xab;" horiz-adv-x="1320" 
d="M449 516l260 -385h-381l-260 385l260 385h381zM88 516l250 -366h338l-250 366l250 367h-338zM995 516l262 -385h-380l-263 385l263 385h380zM637 516l248 -366h338l-248 366l248 367h-338z" />
    <glyph glyph-name="registered" unicode="&#xae;" horiz-adv-x="1667" 
d="M834 -25q-150 0 -287.5 58.5t-237 158t-158.5 237t-59 288.5q0 150 59 287.5t158.5 236.5t237 158t287.5 59q151 0 288.5 -59t236.5 -158t157.5 -236.5t58.5 -287.5q0 -202 -99 -372.5t-269.5 -270t-372.5 -99.5zM834 1440q-196 0 -362.5 -97.5t-263.5 -264t-97 -361.5
q0 -196 97 -362.5t263.5 -263.5t362.5 -97t362.5 97t263 263.5t96.5 362.5q0 195 -96.5 361.5t-263 264t-362.5 97.5zM834 100q-125 0 -239 49t-196.5 131.5t-131 197t-48.5 239.5t48.5 238.5t131 195.5t196.5 131t239 49q167 0 309 -82.5t224.5 -224t82.5 -307.5
q0 -125 -49 -239.5t-131.5 -197t-196.5 -131.5t-239 -49zM834 1313q-162 0 -299.5 -80t-217 -217.5t-79.5 -298.5q0 -122 47 -232.5t127 -190.5t190 -127.5t232 -47.5t232.5 47.5t190.5 127.5t127.5 190.5t47.5 232.5q0 161 -80 298.5t-218 217.5t-300 80zM1055 631
l162 -285h-263l-118 238h-68v-238h-236v758h312q152 0 232.5 -70.5t80.5 -204.5q0 -137 -102 -198zM846 602l121 -237h219l-156 272l8 6q101 55 101 186q0 124 -76 190t-219 66h-295v-720h203v237h94zM844 756h-92v149h92q92 0 92 -76q0 -73 -92 -73zM768 887v-113h76
q44 0 59 15.5t15 39.5q0 31 -17.5 44.5t-56.5 13.5h-76z" />
    <glyph glyph-name="macron" unicode="&#xaf;" horiz-adv-x="858" 
d="M750 1462v-268h-644v268h644zM125 1446v-236h606v236h-606z" />
    <glyph glyph-name="degree" unicode="&#xb0;" horiz-adv-x="804" 
d="M401 760q-139 0 -237 99t-98 237q0 140 98 239t237 99t237.5 -99t98.5 -239q0 -138 -98.5 -237t-237.5 -99zM401 1415q-132 0 -224.5 -93.5t-92.5 -225.5q0 -131 92.5 -224.5t224.5 -93.5t225 93.5t93 224.5q0 132 -93 225.5t-225 93.5zM401 977q-50 0 -85 35t-35 84
q0 51 35 86t85 35t85.5 -35t35.5 -86q0 -49 -35.5 -84t-85.5 -35zM401 1198q-43 0 -72.5 -29.5t-29.5 -72.5q0 -42 30 -72.5t72 -30.5t72.5 30.5t30.5 72.5q0 43 -30 72.5t-73 29.5z" />
    <glyph glyph-name="plusminus" unicode="&#xb1;" horiz-adv-x="1062" 
d="M702 674v-234h-342v234h-251v342h251v233h342v-233h252v-342h-252zM379 692v-235h305v235h252v305h-252v236h-305v-236h-254v-305h254zM954 324v-324h-845v324h845zM125 305v-289h811v289h-811z" />
    <glyph glyph-name="acute" unicode="&#xb4;" horiz-adv-x="733" 
d="M635 1497l-221 -319h-312l148 319h385zM262 1479l-133 -283h274l197 283h-338z" />
    <glyph glyph-name="paragraph" unicode="&#xb6;" horiz-adv-x="1386" 
d="M1206 1061v-1241h-307v1241h-147v-1241h-306v854q-186 15 -291.5 115.5t-105.5 263.5q0 170 118.5 272.5t321.5 108.5h807v-373h-90zM918 1079v-1241h270v1241h90v336h-789q-63 -2 -121.5 -15t-114 -40.5t-96 -68t-65 -102t-24.5 -136.5q0 -157 103 -253.5t286 -109.5h8
v-852h270v1241h183z" />
    <glyph glyph-name="cedilla" unicode="&#xb8;" horiz-adv-x="753" 
d="M371 -516q-81 0 -148.5 19.5t-109.5 47.5l-7 5l99 178l8 -6q47 -33 100 -33q68 0 68 51q0 47 -59 47q-26 0 -48 -10l-63 82l76 151h168l-43 -88q99 -2 168 -54.5t69 -160.5q0 -109 -73 -169t-205 -60zM211 -293l-80 -145q97 -60 240 -60q29 0 57.5 3.5t67 16.5t67 34.5
t48.5 62t20 94.5q0 100 -67.5 148.5t-160.5 48.5h-20l43 90h-129l-66 -133l50 -62q25 7 41 7q37 0 57 -17.5t20 -48.5q0 -34 -22.5 -52t-63.5 -18q-47 0 -102 31z" />
    <glyph glyph-name="guillemotright" unicode="&#xbb;" horiz-adv-x="1320" 
d="M1255 516l-260 -385h-383l262 385l-262 385h383zM897 516l-250 -366h338l250 366l-250 367h-338zM709 516l-263 -385h-380l262 385l-262 385h380zM348 516l-250 -366h338l250 366l-250 367h-338z" />
    <glyph glyph-name="questiondown" unicode="&#xbf;" horiz-adv-x="1093" 
d="M539 653q-86 0 -146.5 60.5t-60.5 146.5t60.5 146.5t146.5 60.5t146 -60.5t60 -146.5t-60 -146.5t-146 -60.5zM539 1049q-78 0 -133.5 -55.5t-55.5 -133.5t55.5 -133t133.5 -55t134 55t56 133t-56 133.5t-134 55.5zM541 -416q-105 0 -190 23.5t-140 62.5t-92.5 92
t-53.5 110t-16 118q0 52 13 98t41 87.5t49.5 66.5t60.5 65q44 45 67.5 73.5t44.5 72.5t21 88v8h385v-8q0 -63 -14.5 -118t-43.5 -101.5t-51 -73.5t-57 -64q-30 -33 -42.5 -47.5t-25 -37.5t-12.5 -42q0 -41 23.5 -63.5t64.5 -22.5q84 0 101 88l2 9l371 -93l-3 -8
q-46 -178 -180.5 -280.5t-322.5 -102.5zM713 530h-348q-1 -28 -10.5 -55.5t-19 -46.5t-32.5 -48t-34.5 -41t-41.5 -44q-40 -41 -60.5 -65t-48 -64t-40 -83t-12.5 -93q0 -59 15.5 -113t51.5 -105t89.5 -88.5t135.5 -60t183 -22.5q179 0 309 97.5t174 264.5l-336 84
q-22 -94 -115 -94q-50 0 -78 27.5t-28 76.5q0 32 21.5 63.5t64.5 76.5q39 42 56.5 63.5t47 66.5t42.5 94.5t14 108.5z" />
    <glyph glyph-name="Agrave" unicode="&#xc0;" horiz-adv-x="1503" 
d="M1016 1434l479 -1434h-473l-61 227h-420l-62 -227h-473l479 1434h531zM973 246l63 -230h434l-466 1399h-504l-469 -1399h434l63 230h445zM752 1051l145 -527h-293zM752 983l-123 -440h243zM766 1907l149 -320h-313l-221 320h385zM416 1888l196 -282h275l-133 282h-338z
" />
    <glyph glyph-name="Aacute" unicode="&#xc1;" horiz-adv-x="1503" 
d="M1016 1434l479 -1434h-473l-61 227h-420l-62 -227h-473l479 1434h531zM973 246l63 -230h434l-466 1399h-504l-469 -1399h434l63 230h445zM752 1051l145 -527h-293zM752 983l-123 -440h243zM1122 1907l-221 -320h-311l147 320h385zM750 1888l-134 -282h275l196 282h-337z
" />
    <glyph glyph-name="Acircumflex" unicode="&#xc2;" horiz-adv-x="1503" 
d="M1016 1434l479 -1434h-473l-61 227h-420l-62 -227h-473l479 1434h531zM973 246l63 -230h434l-466 1399h-504l-469 -1399h434l63 230h445zM752 1051l145 -527h-293zM752 983l-123 -440h243zM915 1907l250 -320h-323l-90 125l-93 -125h-323l252 320h327zM752 1743l100 -137
h276l-221 282h-311l-223 -282h278z" />
    <glyph glyph-name="Atilde" unicode="&#xc3;" horiz-adv-x="1503" 
d="M1016 1434l479 -1434h-473l-61 227h-420l-62 -227h-473l479 1434h531zM973 246l63 -230h434l-466 1399h-504l-469 -1399h434l63 230h445zM752 1051l145 -527h-293zM752 983l-123 -440h243zM909 1565q-61 0 -159 39q-62 20 -76 20q-41 0 -43 -49v-10l-240 43v8
q34 258 223 258q45 0 121 -33q61 -26 94 -26q42 0 45 49v10l238 -41v-10q-15 -134 -63.5 -196t-139.5 -62zM674 1642q22 0 82 -22q104 -37 153 -37q80 0 125 56.5t60 177.5l-203 36q-9 -57 -62 -57q-27 0 -100 29q-76 33 -115 33q-172 0 -202 -236l200 -35q10 55 62 55z" />
    <glyph glyph-name="Adieresis" unicode="&#xc4;" horiz-adv-x="1503" 
d="M1016 1434l479 -1434h-473l-61 227h-420l-62 -227h-473l479 1434h531zM973 246l63 -230h434l-466 1399h-504l-469 -1399h434l63 230h445zM752 1051l145 -527h-293zM752 983l-123 -440h243zM512 1554q-76 0 -130 54t-54 129q0 77 54 130.5t130 53.5q75 0 129.5 -54
t54.5 -130q0 -75 -54.5 -129t-129.5 -54zM512 1905q-69 0 -117.5 -49.5t-48.5 -118.5q0 -68 48.5 -117t117.5 -49q68 0 117 49.5t49 116.5q0 69 -49 118.5t-117 49.5zM989 1554q-75 0 -129.5 54t-54.5 129q0 76 54.5 130t129.5 54q77 0 131 -54t54 -130q0 -75 -54.5 -129
t-130.5 -54zM989 1905q-69 0 -117.5 -49.5t-48.5 -118.5q0 -68 48.5 -117t117.5 -49t117.5 49t48.5 117q0 69 -48.5 118.5t-117.5 49.5z" />
    <glyph glyph-name="Aring" unicode="&#xc5;" horiz-adv-x="1503" 
d="M1016 1434l479 -1434h-473l-61 227h-420l-62 -227h-473l479 1434h531zM973 246l63 -230h434l-466 1399h-504l-469 -1399h434l63 230h445zM752 1051l145 -527h-293zM752 983l-123 -440h243zM752 1499q-106 0 -181 75t-75 181t75 182t181 76q107 0 182.5 -76t75.5 -182
t-75.5 -181t-182.5 -75zM752 1995q-98 0 -168 -70t-70 -170q0 -98 70 -167.5t168 -69.5q100 0 169.5 69.5t69.5 167.5q0 100 -69.5 170t-169.5 70zM752 1661q-38 0 -66.5 28t-28.5 66q0 39 28.5 67.5t66.5 28.5q40 0 68 -28t28 -68q0 -38 -28 -66t-68 -28zM752 1833
q-31 0 -53.5 -23t-22.5 -55q0 -31 22.5 -53.5t53.5 -22.5q32 0 54.5 22.5t22.5 53.5q0 32 -22.5 55t-54.5 23z" />
    <glyph glyph-name="AE" unicode="&#xc6;" horiz-adv-x="2017" 
d="M1946 362v-362h-979v227h-385l-99 -227h-473l680 1434h1237v-363h-524v-176h459v-346h-459v-187h543zM983 246v-230h944v328h-543v223h461v312h-461v208h525v328h-1207l-663 -1399h432l98 230h414zM983 1087v-563h-295l242 563h53zM942 1071l-225 -528h250v528h-25z" />
    <glyph glyph-name="Ccedilla" unicode="&#xc7;" horiz-adv-x="1421" 
d="M770 -516q-155 0 -258 65l-6 5l98 180l8 -6q50 -35 101 -35q67 0 67 53q0 47 -59 47q-23 0 -47 -12l-64 84l60 119q-133 20 -247 85t-194 160.5t-125 221.5t-45 266q0 159 55.5 297t152.5 235.5t234.5 153t295.5 55.5q186 0 343.5 -78t258.5 -221l4 -8l-363 -238l-4 7
q-82 114 -239 114q-135 0 -218 -87.5t-83 -229.5q0 -143 83 -231.5t218 -88.5q75 0 137 30t102 85l4 8l363 -239l-4 -9q-96 -134 -243.5 -212t-321.5 -85l-23 -47q46 -2 87 -14t75.5 -36.5t55 -67t20.5 -97.5q0 -109 -73.5 -169t-205.5 -60zM610 -293l-80 -147
q94 -58 240 -58q29 0 57.5 3.5t67 16.5t67 34.5t48.5 62t20 94.5q0 100 -67 148.5t-160 48.5h-21l41 82l4 2q172 6 314 78.5t237 203.5l-331 220q-88 -117 -250 -117q-143 0 -231.5 93t-88.5 245q0 150 88.5 243t231.5 93q161 0 250 -115l331 219q-98 135 -250 209t-331 74
q-206 0 -370.5 -92.5t-256.5 -258t-92 -372.5q0 -280 169.5 -480t436.5 -237l12 -2l-65 -131l49 -64q21 9 41 9q36 0 57 -18t21 -48q0 -34 -22.5 -52t-63.5 -18q-52 0 -103 31z" />
    <glyph glyph-name="Egrave" unicode="&#xc8;" horiz-adv-x="1159" 
d="M1092 362v-362h-981v1434h960v-363h-524v-176h461v-346h-461v-187h545zM129 1415v-1399h944v328h-543v223h459v312h-459v208h525v328h-926zM635 1907l149 -320h-313l-221 320h385zM285 1888l196 -282h275l-133 282h-338z" />
    <glyph glyph-name="Eacute" unicode="&#xc9;" horiz-adv-x="1159" 
d="M1092 362v-362h-981v1434h960v-363h-524v-176h461v-346h-461v-187h545zM129 1415v-1399h944v328h-543v223h459v312h-459v208h525v328h-926zM930 1907l-221 -320h-312l148 320h385zM557 1888l-133 -282h274l197 282h-338z" />
    <glyph glyph-name="Ecircumflex" unicode="&#xca;" horiz-adv-x="1159" 
d="M1092 362v-362h-981v1434h960v-363h-524v-176h461v-346h-461v-187h545zM129 1415v-1399h944v328h-543v223h459v312h-459v208h525v328h-926zM764 1907l250 -320h-324l-90 125l-92 -125h-324l252 320h328zM600 1743l100 -137h277l-221 282h-312l-223 -282h279z" />
    <glyph glyph-name="Edieresis" unicode="&#xcb;" horiz-adv-x="1159" 
d="M1092 362v-362h-981v1434h960v-363h-524v-176h461v-346h-461v-187h545zM129 1415v-1399h944v328h-543v223h459v312h-459v208h525v328h-926zM360 1554q-76 0 -130 54t-54 129q0 77 54 130.5t130 53.5q75 0 130 -54t55 -130q0 -75 -55 -129t-130 -54zM360 1905
q-69 0 -117 -49.5t-48 -118.5q0 -68 48 -117t117 -49q68 0 117 49.5t49 116.5q0 69 -49 118.5t-117 49.5zM838 1554q-75 0 -130 54t-55 129q0 76 55 130t130 54q76 0 130 -53.5t54 -130.5q0 -75 -54 -129t-130 -54zM838 1905q-69 0 -117.5 -49.5t-48.5 -118.5
q0 -68 48.5 -117t117.5 -49t117.5 49t48.5 117q0 69 -48.5 118.5t-117.5 49.5z" />
    <glyph glyph-name="Igrave" unicode="&#xcc;" horiz-adv-x="649" 
d="M543 1434v-1434h-437v1434h437zM125 1415v-1399h399v1399h-399zM340 1907l149 -320h-313l-221 320h385zM-10 1888l196 -282h275l-133 282h-338z" />
    <glyph glyph-name="Iacute" unicode="&#xcd;" horiz-adv-x="649" 
d="M543 1434v-1434h-437v1434h437zM125 1415v-1399h399v1399h-399zM696 1907l-221 -320h-311l147 320h385zM324 1888l-134 -282h275l197 282h-338z" />
    <glyph glyph-name="Icircumflex" unicode="&#xce;" horiz-adv-x="649" 
d="M543 1434v-1434h-437v1434h437zM125 1415v-1399h399v1399h-399zM487 1907l250 -320h-323l-90 125l-93 -125h-323l252 320h327zM324 1743l100 -137h276l-221 282h-311l-223 -282h278z" />
    <glyph glyph-name="Idieresis" unicode="&#xcf;" horiz-adv-x="649" 
d="M543 1434v-1434h-437v1434h437zM125 1415v-1399h399v1399h-399zM84 1554q-76 0 -130 54t-54 129q0 77 54 130.5t130 53.5q75 0 129.5 -54t54.5 -130q0 -75 -54.5 -129t-129.5 -54zM84 1905q-69 0 -117.5 -49.5t-48.5 -118.5q0 -68 48.5 -117t117.5 -49q68 0 117 49.5
t49 116.5q0 69 -49 118.5t-117 49.5zM561 1554q-75 0 -129.5 54t-54.5 129q0 76 54.5 130t129.5 54q77 0 130.5 -53.5t53.5 -130.5q0 -75 -54 -129t-130 -54zM561 1905q-69 0 -117.5 -49.5t-48.5 -118.5q0 -68 48.5 -117t117.5 -49t117.5 49t48.5 117q0 69 -48.5 118.5
t-117.5 49.5z" />
    <glyph glyph-name="Eth" unicode="&#xd0;" horiz-adv-x="1533" 
d="M700 0h-546v653h-144v125h144v656h546q358 0 565.5 -192.5t207.5 -524.5t-207.5 -524.5t-565.5 -192.5zM172 672v-656h528q349 0 551.5 188.5t202.5 512.5q0 323 -202.5 510.5t-551.5 187.5h-528v-653h-143v-90h143zM700 381h-129v291h232v90h-232v291h129q169 0 262 -88
t93 -248q0 -161 -93 -248.5t-262 -87.5zM590 653v-256h110q160 0 248 84t88 236q0 151 -88 234t-248 83h-110v-256h231v-125h-231z" />
    <glyph glyph-name="Ntilde" unicode="&#xd1;" horiz-adv-x="1515" 
d="M1405 1434v-1434h-389l-467 731v-731h-436v1434h387l469 -734v734h436zM530 793l496 -777h360v1399h-399v-776l-498 776h-360v-1399h401v777zM915 1565q-61 0 -159 39q-62 20 -76 20q-41 0 -43 -49v-10l-240 43v8q34 258 224 258q44 0 120 -33q61 -26 95 -26q42 0 45 49
v10l237 -41v-10q-15 -134 -63.5 -196t-139.5 -62zM680 1642q22 0 82 -22q104 -37 153 -37q80 0 125 56.5t60 177.5l-203 36q-9 -57 -61 -57q-28 0 -101 29q-76 33 -114 33q-173 0 -203 -236l200 -35q10 55 62 55z" />
    <glyph glyph-name="Ograve" unicode="&#xd2;" horiz-adv-x="1597" 
d="M799 -27q-157 0 -294.5 56t-234.5 154t-153 236.5t-56 297.5q0 212 95 381.5t264 264.5t379 95q211 0 379.5 -95t263 -264.5t94.5 -381.5t-94.5 -382t-263 -266t-379.5 -96zM799 1440q-205 0 -369.5 -92.5t-257 -258t-92.5 -372.5t92.5 -373t257 -259t369.5 -93
q206 0 371 93t257.5 259t92.5 373t-92.5 372.5t-257.5 258t-371 92.5zM799 379q-143 0 -230.5 93t-87.5 245q0 151 87.5 243.5t230.5 92.5t231 -92.5t88 -243.5q0 -152 -88 -245t-231 -93zM799 1034q-134 0 -216.5 -87.5t-82.5 -229.5q0 -143 83 -231.5t216 -88.5
q135 0 218 88.5t83 231.5q0 142 -83 229.5t-218 87.5zM813 1907l150 -320h-314l-221 320h385zM463 1888l196 -282h275l-133 282h-338z" />
    <glyph glyph-name="Oacute" unicode="&#xd3;" horiz-adv-x="1597" 
d="M799 -27q-157 0 -294.5 56t-234.5 154t-153 236.5t-56 297.5q0 212 95 381.5t264 264.5t379 95q211 0 379.5 -95t263 -264.5t94.5 -381.5t-94.5 -382t-263 -266t-379.5 -96zM799 1440q-205 0 -369.5 -92.5t-257 -258t-92.5 -372.5t92.5 -373t257 -259t369.5 -93
q206 0 371 93t257.5 259t92.5 373t-92.5 372.5t-257.5 258t-371 92.5zM799 379q-143 0 -230.5 93t-87.5 245q0 151 87.5 243.5t230.5 92.5t231 -92.5t88 -243.5q0 -152 -88 -245t-231 -93zM799 1034q-134 0 -216.5 -87.5t-82.5 -229.5q0 -143 83 -231.5t216 -88.5
q135 0 218 88.5t83 231.5q0 142 -83 229.5t-218 87.5zM1169 1907l-221 -320h-311l147 320h385zM797 1888l-133 -282h274l197 282h-338z" />
    <glyph glyph-name="Ocircumflex" unicode="&#xd4;" horiz-adv-x="1597" 
d="M799 -27q-157 0 -294.5 56t-234.5 154t-153 236.5t-56 297.5q0 212 95 381.5t264 264.5t379 95q211 0 379.5 -95t263 -264.5t94.5 -381.5t-94.5 -382t-263 -266t-379.5 -96zM799 1440q-205 0 -369.5 -92.5t-257 -258t-92.5 -372.5t92.5 -373t257 -259t369.5 -93
q206 0 371 93t257.5 259t92.5 373t-92.5 372.5t-257.5 258t-371 92.5zM799 379q-143 0 -230.5 93t-87.5 245q0 151 87.5 243.5t230.5 92.5t231 -92.5t88 -243.5q0 -152 -88 -245t-231 -93zM799 1034q-134 0 -216.5 -87.5t-82.5 -229.5q0 -143 83 -231.5t216 -88.5
q135 0 218 88.5t83 231.5q0 142 -83 229.5t-218 87.5zM963 1907l249 -320h-323l-90 125l-92 -125h-324l252 320h328zM799 1743l100 -137h277l-222 282h-311l-223 -282h278z" />
    <glyph glyph-name="Otilde" unicode="&#xd5;" horiz-adv-x="1597" 
d="M799 -27q-157 0 -294.5 56t-234.5 154t-153 236.5t-56 297.5q0 212 95 381.5t264 264.5t379 95q211 0 379.5 -95t263 -264.5t94.5 -381.5t-94.5 -382t-263 -266t-379.5 -96zM799 1440q-205 0 -369.5 -92.5t-257 -258t-92.5 -372.5t92.5 -373t257 -259t369.5 -93
q206 0 371 93t257.5 259t92.5 373t-92.5 372.5t-257.5 258t-371 92.5zM799 379q-143 0 -230.5 93t-87.5 245q0 151 87.5 243.5t230.5 92.5t231 -92.5t88 -243.5q0 -152 -88 -245t-231 -93zM799 1034q-134 0 -216.5 -87.5t-82.5 -229.5q0 -143 83 -231.5t216 -88.5
q135 0 218 88.5t83 231.5q0 142 -83 229.5t-218 87.5zM956 1565q-62 0 -159 39q-62 20 -76 20q-41 0 -43 -49v-10l-240 43v8q34 258 224 258q44 0 120 -33q61 -26 95 -26q42 0 45 49v10l237 -41v-10q-15 -134 -63.5 -196t-139.5 -62zM721 1642q21 0 82 -22q104 -37 153 -37
q80 0 125 56.5t60 177.5l-203 36q-9 -57 -61 -57q-29 0 -101 29q-76 33 -114 33q-173 0 -203 -236l200 -35q10 55 62 55z" />
    <glyph glyph-name="Odieresis" unicode="&#xd6;" horiz-adv-x="1597" 
d="M799 -27q-157 0 -294.5 56t-234.5 154t-153 236.5t-56 297.5q0 212 95 381.5t264 264.5t379 95q211 0 379.5 -95t263 -264.5t94.5 -381.5t-94.5 -382t-263 -266t-379.5 -96zM799 1440q-205 0 -369.5 -92.5t-257 -258t-92.5 -372.5t92.5 -373t257 -259t369.5 -93
q206 0 371 93t257.5 259t92.5 373t-92.5 372.5t-257.5 258t-371 92.5zM799 379q-143 0 -230.5 93t-87.5 245q0 151 87.5 243.5t230.5 92.5t231 -92.5t88 -243.5q0 -152 -88 -245t-231 -93zM799 1034q-134 0 -216.5 -87.5t-82.5 -229.5q0 -143 83 -231.5t216 -88.5
q135 0 218 88.5t83 231.5q0 142 -83 229.5t-218 87.5zM559 1554q-76 0 -130 54t-54 129q0 77 53.5 130.5t130.5 53.5q75 0 129.5 -54t54.5 -130q0 -75 -54.5 -129t-129.5 -54zM559 1905q-69 0 -117.5 -49.5t-48.5 -118.5q0 -68 48.5 -117t117.5 -49q67 0 116.5 49.5
t49.5 116.5q0 69 -49 118.5t-117 49.5zM1036 1554q-75 0 -129.5 54t-54.5 129q0 76 54.5 130t129.5 54q77 0 131 -54t54 -130q0 -75 -54.5 -129t-130.5 -54zM1036 1905q-69 0 -117.5 -49.5t-48.5 -118.5q0 -68 48.5 -117t117.5 -49t117.5 49t48.5 117q0 69 -48.5 118.5
t-117.5 49.5z" />
    <glyph glyph-name="multiply" unicode="&#xd7;" horiz-adv-x="1009" 
d="M924 432l-242 -242l-178 179l-178 -179l-242 242l178 178l-178 178l242 242l178 -178l178 178l242 -242l-179 -178zM326 215l178 180l178 -180l217 217l-178 178l178 178l-217 218l-178 -179l-178 179l-217 -218l180 -178l-180 -178z" />
    <glyph glyph-name="Oslash" unicode="&#xd8;" horiz-adv-x="1597" 
d="M799 -27q-145 0 -276.5 50t-231.5 143l-119 -109l-86 95l121 108q-146 200 -146 457q0 212 95 381.5t264 264.5t379 95q148 0 279.5 -49t230.5 -143l118 108l84 -94l-118 -109q143 -193 143 -454q0 -212 -94.5 -382t-263 -266t-379.5 -96zM172 84l119 106l6 -4
q97 -94 227 -144t275 -50q206 0 370.5 93t256.5 259t92 373q0 260 -146 450l-4 7l119 108l-62 68l-116 -109l-6 6q-98 94 -228 143.5t-276 49.5q-205 0 -369.5 -92.5t-257 -258t-92.5 -372.5q0 -257 145 -453l6 -6l-118 -108zM799 379q-124 0 -207 74l-8 6l487 444l6 -10
q41 -77 41 -176q0 -152 -88 -245t-231 -93zM1065 874l-455 -415q77 -62 189 -62q135 0 218 88.5t83 231.5q0 85 -35 157zM1016 975l-490 -447l-4 11q-41 77 -41 178q0 151 87.5 243.5t230.5 92.5q125 0 209 -72zM799 1034q-135 0 -218 -87.5t-83 -229.5q0 -91 34 -158
l455 414q-73 61 -188 61z" />
    <glyph glyph-name="Ugrave" unicode="&#xd9;" horiz-adv-x="1497" 
d="M748 -27q-312 0 -473.5 156t-161.5 457v848h436v-813q0 -109 50.5 -166.5t148.5 -57.5t149 57.5t51 166.5v813h436v-848q0 -301 -161.5 -457t-474.5 -156zM530 1415h-401v-829q0 -291 158 -442.5t461 -151.5q304 0 461 151t157 443v829h-399v-794q0 -117 -56.5 -179.5
t-162.5 -62.5q-105 0 -161.5 62.5t-56.5 179.5v794zM803 1907l149 -320h-313l-221 320h385zM453 1888l196 -282h275l-133 282h-338z" />
    <glyph glyph-name="Uacute" unicode="&#xda;" horiz-adv-x="1497" 
d="M748 -27q-312 0 -473.5 156t-161.5 457v848h436v-813q0 -109 50.5 -166.5t148.5 -57.5t149 57.5t51 166.5v813h436v-848q0 -301 -161.5 -457t-474.5 -156zM530 1415h-401v-829q0 -291 158 -442.5t461 -151.5q304 0 461 151t157 443v829h-399v-794q0 -117 -56.5 -179.5
t-162.5 -62.5q-105 0 -161.5 62.5t-56.5 179.5v794zM1118 1907l-221 -320h-311l147 320h385zM745 1888l-133 -282h275l196 282h-338z" />
    <glyph glyph-name="Ucircumflex" unicode="&#xdb;" horiz-adv-x="1497" 
d="M748 -27q-312 0 -473.5 156t-161.5 457v848h436v-813q0 -109 50.5 -166.5t148.5 -57.5t149 57.5t51 166.5v813h436v-848q0 -301 -161.5 -457t-474.5 -156zM530 1415h-401v-829q0 -291 158 -442.5t461 -151.5q304 0 461 151t157 443v829h-399v-794q0 -117 -56.5 -179.5
t-162.5 -62.5q-105 0 -161.5 62.5t-56.5 179.5v794zM911 1907l250 -320h-323l-90 125l-93 -125h-323l252 320h327zM748 1743l100 -137h276l-221 282h-311l-223 -282h278z" />
    <glyph glyph-name="Udieresis" unicode="&#xdc;" horiz-adv-x="1497" 
d="M748 -27q-312 0 -473.5 156t-161.5 457v848h436v-813q0 -109 50.5 -166.5t148.5 -57.5t149 57.5t51 166.5v813h436v-848q0 -301 -161.5 -457t-474.5 -156zM530 1415h-401v-829q0 -291 158 -442.5t461 -151.5q304 0 461 151t157 443v829h-399v-794q0 -117 -56.5 -179.5
t-162.5 -62.5q-105 0 -161.5 62.5t-56.5 179.5v794zM508 1554q-76 0 -130 54t-54 129q0 77 54 130.5t130 53.5q75 0 129.5 -54t54.5 -130q0 -75 -54.5 -129t-129.5 -54zM508 1905q-69 0 -117.5 -49.5t-48.5 -118.5q0 -68 48.5 -117t117.5 -49q68 0 117 49.5t49 116.5
q0 69 -49 118.5t-117 49.5zM985 1554q-75 0 -129.5 54t-54.5 129q0 76 54.5 130t129.5 54q77 0 130.5 -53.5t53.5 -130.5q0 -75 -54 -129t-130 -54zM985 1905q-69 0 -117.5 -49.5t-48.5 -118.5q0 -68 48.5 -117t117.5 -49t117.5 49t48.5 117q0 69 -48.5 118.5t-117.5 49.5z
" />
    <glyph glyph-name="Yacute" unicode="&#xdd;" horiz-adv-x="1476" 
d="M956 539v-539h-436v539l-516 895h483l252 -539l252 539h484zM539 543v-527h401v527l504 872h-443l-262 -563l-262 563h-442zM1108 1907l-221 -320h-312l148 320h385zM735 1888l-133 -282h275l196 282h-338z" />
    <glyph glyph-name="Thorn" unicode="&#xde;" horiz-adv-x="1339" 
d="M547 182v-182h-436v1434h436v-185h153q281 0 435.5 -139t154.5 -393q0 -255 -154.5 -395t-435.5 -140h-153zM129 1415v-1399h401v185h170q272 0 422 135t150 381t-150 381t-422 135h-170v182h-401zM700 563h-170v305h170q78 0 122 -39.5t44 -111.5t-44 -113t-122 -41z
M547 852v-270h153q69 0 108.5 35.5t39.5 99.5q0 63 -39.5 99t-108.5 36h-153z" />
    <glyph glyph-name="germandbls" unicode="&#xdf;" horiz-adv-x="1228" 
d="M745 -18q-79 0 -147 18l-8 2v322q34 -7 63 -7q77 0 117.5 32t40.5 93q0 67 -43 97t-139 30h-39v289h20q35 0 59 12t34.5 31.5t14 35.5t3.5 32q0 55 -34 85.5t-79 30.5q-60 0 -92.5 -38t-32.5 -109v-938h-383v1004q0 211 137 332.5t373 121.5q116 0 211.5 -37.5t155 -99.5
t91.5 -138.5t32 -158.5q0 -194 -148 -291q117 -47 177.5 -134.5t60.5 -207.5q0 -187 -121 -298t-324 -111zM608 301v-287q69 -16 137 -16q195 0 310.5 106.5t115.5 286.5q0 240 -241 332l-19 6l17 10q153 89 153 285q0 79 -31 152.5t-88 133t-148.5 95t-203.5 35.5
q-227 0 -359 -117t-132 -319v-988h346v922q0 78 38 122t105 44q56 0 93.5 -38.5t37.5 -96.5q0 -52 -31.5 -89.5t-97.5 -37.5h-2v-254h21q38 0 68 -5t62 -18.5t50 -44.5t18 -78q0 -69 -45.5 -106t-128.5 -37q-31 0 -45 2z" />
    <glyph glyph-name="agrave" unicode="&#xe0;" horiz-adv-x="1138" 
d="M389 -27q-17 0 -37.5 1.5t-56.5 9t-68 19.5t-67.5 35.5t-61 55.5t-42.5 81.5t-17 109.5q0 224 227 309q116 43 277 43v0v0v0v0v0v0v0v0v0v0h1v0v0v0v0h1v0v0h1v0v0h1v0v0h1v0h1v0h1v0h1v0h1h1v0h1v0h1h1v0h1h1h1h1v0h1h1h1h1h1h1h1h1h1h1h1h1h1h1h1h1h1h1h1h1h1h1h1h1h1
h1h1h1h1h1h1h1h1h1h1h1h1h1h1h1h1h1h1h1h1h1h1h1h1h1h1h1h1h1h1h1h1h1h1h1h1h1h1h1h1h1h1h1h1h1h1h1h1h1h1h1h1h1h1h1h1h1h1h1h1h10q-3 62 -40 96.5t-101 34.5q-46 0 -95 -16.5t-81 -42.5l-4 -4l-246 167l8 9q174 186 473 186q112 0 197 -26t135.5 -66.5t82.5 -98t43 -113
t11 -118.5v-645h-383v78q-45 -51 -119 -78t-147 -27zM674 618h-131q-158 0 -271 -43q-217 -80 -217 -290q0 -57 16 -104t40.5 -76.5t58.5 -52t64.5 -33.5t65 -17.5t53.5 -8t36 -1.5q76 0 153.5 30.5t114.5 86.5l17 24v-117h346v629q0 198 -115 301t-336 103
q-283 0 -452 -172l215 -150q77 57 182 57q75 0 117.5 -41t42.5 -116v-9zM514 250q-49 0 -78.5 25.5t-29.5 68.5q0 113 233 113h35v-127l-2 -2q-23 -33 -64 -55.5t-94 -22.5zM655 438h-16q-215 0 -215 -94q0 -35 24.5 -55.5t65.5 -20.5q89 0 141 68v102zM614 1497l150 -319
h-313l-222 319h385zM264 1479l197 -283h274l-133 283h-338z" />
    <glyph glyph-name="aacute" unicode="&#xe1;" horiz-adv-x="1138" 
d="M389 -27q-17 0 -37.5 1.5t-56.5 9t-68 19.5t-67.5 35.5t-61 55.5t-42.5 81.5t-17 109.5q0 224 227 309q116 43 277 43v0v0v0v0v0v0v0v0v0v0h1v0v0v0v0h1v0v0h1v0v0h1v0v0h1v0h1v0h1v0h1v0h1h1v0h1v0h1h1v0h1h1h1h1v0h1h1h1h1h1h1h1h1h1h1h1h1h1h1h1h1h1h1h1h1h1h1h1h1h1
h1h1h1h1h1h1h1h1h1h1h1h1h1h1h1h1h1h1h1h1h1h1h1h1h1h1h1h1h1h1h1h1h1h1h1h1h1h1h1h1h1h1h1h1h1h1h1h1h1h1h1h1h1h1h1h1h1h1h1h1h10q-3 62 -40 96.5t-101 34.5q-46 0 -95 -16.5t-81 -42.5l-4 -4l-246 167l8 9q174 186 473 186q112 0 197 -26t135.5 -66.5t82.5 -98t43 -113
t11 -118.5v-645h-383v78q-45 -51 -119 -78t-147 -27zM674 618h-131q-158 0 -271 -43q-217 -80 -217 -290q0 -57 16 -104t40.5 -76.5t58.5 -52t64.5 -33.5t65 -17.5t53.5 -8t36 -1.5q76 0 153.5 30.5t114.5 86.5l17 24v-117h346v629q0 198 -115 301t-336 103
q-283 0 -452 -172l215 -150q77 57 182 57q75 0 117.5 -41t42.5 -116v-9zM514 250q-49 0 -78.5 25.5t-29.5 68.5q0 113 233 113h35v-127l-2 -2q-23 -33 -64 -55.5t-94 -22.5zM655 438h-16q-215 0 -215 -94q0 -35 24.5 -55.5t65.5 -20.5q89 0 141 68v102zM930 1497l-221 -319
h-312l148 319h385zM557 1479l-133 -283h274l197 283h-338z" />
    <glyph glyph-name="acircumflex" unicode="&#xe2;" horiz-adv-x="1138" 
d="M389 -27q-17 0 -37.5 1.5t-56.5 9t-68 19.5t-67.5 35.5t-61 55.5t-42.5 81.5t-17 109.5q0 224 227 309q116 43 277 43v0v0v0v0v0v0v0v0v0v0h1v0v0v0v0h1v0v0h1v0v0h1v0v0h1v0h1v0h1v0h1v0h1h1v0h1v0h1h1v0h1h1h1h1v0h1h1h1h1h1h1h1h1h1h1h1h1h1h1h1h1h1h1h1h1h1h1h1h1h1
h1h1h1h1h1h1h1h1h1h1h1h1h1h1h1h1h1h1h1h1h1h1h1h1h1h1h1h1h1h1h1h1h1h1h1h1h1h1h1h1h1h1h1h1h1h1h1h1h1h1h1h1h1h1h1h1h1h1h1h1h10q-3 62 -40 96.5t-101 34.5q-46 0 -95 -16.5t-81 -42.5l-4 -4l-246 167l8 9q174 186 473 186q112 0 197 -26t135.5 -66.5t82.5 -98t43 -113
t11 -118.5v-645h-383v78q-45 -51 -119 -78t-147 -27zM674 618h-131q-158 0 -271 -43q-217 -80 -217 -290q0 -57 16 -104t40.5 -76.5t58.5 -52t64.5 -33.5t65 -17.5t53.5 -8t36 -1.5q76 0 153.5 30.5t114.5 86.5l17 24v-117h346v629q0 198 -115 301t-336 103
q-283 0 -452 -172l215 -150q77 57 182 57q75 0 117.5 -41t42.5 -116v-9zM514 250q-49 0 -78.5 25.5t-29.5 68.5q0 113 233 113h35v-127l-2 -2q-23 -33 -64 -55.5t-94 -22.5zM655 438h-16q-215 0 -215 -94q0 -35 24.5 -55.5t65.5 -20.5q89 0 141 68v102zM743 1497l250 -319
h-323l-90 125l-93 -125h-323l252 319h327zM580 1333l100 -137h276l-221 283h-311l-223 -283h278z" />
    <glyph glyph-name="atilde" unicode="&#xe3;" horiz-adv-x="1138" 
d="M389 -27q-17 0 -37.5 1.5t-56.5 9t-68 19.5t-67.5 35.5t-61 55.5t-42.5 81.5t-17 109.5q0 224 227 309q116 43 277 43v0v0v0v0v0v0v0v0v0v0h1v0v0v0v0h1v0v0h1v0v0h1v0v0h1v0h1v0h1v0h1v0h1h1v0h1v0h1h1v0h1h1h1h1v0h1h1h1h1h1h1h1h1h1h1h1h1h1h1h1h1h1h1h1h1h1h1h1h1h1
h1h1h1h1h1h1h1h1h1h1h1h1h1h1h1h1h1h1h1h1h1h1h1h1h1h1h1h1h1h1h1h1h1h1h1h1h1h1h1h1h1h1h1h1h1h1h1h1h1h1h1h1h1h1h1h1h1h1h1h1h10q-3 62 -40 96.5t-101 34.5q-46 0 -95 -16.5t-81 -42.5l-4 -4l-246 167l8 9q174 186 473 186q112 0 197 -26t135.5 -66.5t82.5 -98t43 -113
t11 -118.5v-645h-383v78q-45 -51 -119 -78t-147 -27zM674 618h-131q-158 0 -271 -43q-217 -80 -217 -290q0 -57 16 -104t40.5 -76.5t58.5 -52t64.5 -33.5t65 -17.5t53.5 -8t36 -1.5q76 0 153.5 30.5t114.5 86.5l17 24v-117h346v629q0 198 -115 301t-336 103
q-283 0 -452 -172l215 -150q77 57 182 57q75 0 117.5 -41t42.5 -116v-9zM514 250q-49 0 -78.5 25.5t-29.5 68.5q0 113 233 113h35v-127l-2 -2q-23 -33 -64 -55.5t-94 -22.5zM655 438h-16q-215 0 -215 -94q0 -35 24.5 -55.5t65.5 -20.5q89 0 141 68v102zM735 1155
q-63 0 -160 39q-62 20 -75 20q-41 0 -43 -49v-10l-240 43v8q34 258 223 258q47 0 121 -32q64 -27 94 -27q42 0 45 49v10l238 -41v-10q-15 -134 -63.5 -196t-139.5 -62zM500 1233q19 0 82 -23q101 -36 153 -36q80 0 125 56t60 177l-203 37q-9 -58 -62 -58q-27 0 -100 29
q-76 33 -115 33q-172 0 -202 -236l200 -34q10 55 62 55z" />
    <glyph glyph-name="adieresis" unicode="&#xe4;" horiz-adv-x="1138" 
d="M389 -27q-17 0 -37.5 1.5t-56.5 9t-68 19.5t-67.5 35.5t-61 55.5t-42.5 81.5t-17 109.5q0 224 227 309q116 43 277 43v0v0v0v0v0v0v0v0v0v0h1v0v0v0v0h1v0v0h1v0v0h1v0v0h1v0h1v0h1v0h1v0h1h1v0h1v0h1h1v0h1h1h1h1v0h1h1h1h1h1h1h1h1h1h1h1h1h1h1h1h1h1h1h1h1h1h1h1h1h1
h1h1h1h1h1h1h1h1h1h1h1h1h1h1h1h1h1h1h1h1h1h1h1h1h1h1h1h1h1h1h1h1h1h1h1h1h1h1h1h1h1h1h1h1h1h1h1h1h1h1h1h1h1h1h1h1h1h1h1h1h10q-3 62 -40 96.5t-101 34.5q-46 0 -95 -16.5t-81 -42.5l-4 -4l-246 167l8 9q174 186 473 186q112 0 197 -26t135.5 -66.5t82.5 -98t43 -113
t11 -118.5v-645h-383v78q-45 -51 -119 -78t-147 -27zM674 618h-131q-158 0 -271 -43q-217 -80 -217 -290q0 -57 16 -104t40.5 -76.5t58.5 -52t64.5 -33.5t65 -17.5t53.5 -8t36 -1.5q76 0 153.5 30.5t114.5 86.5l17 24v-117h346v629q0 198 -115 301t-336 103
q-283 0 -452 -172l215 -150q77 57 182 57q75 0 117.5 -41t42.5 -116v-9zM514 250q-49 0 -78.5 25.5t-29.5 68.5q0 113 233 113h35v-127l-2 -2q-23 -33 -64 -55.5t-94 -22.5zM655 438h-16q-215 0 -215 -94q0 -35 24.5 -55.5t65.5 -20.5q89 0 141 68v102zM340 1145
q-76 0 -130 53.5t-54 128.5q0 77 54 130.5t130 53.5q75 0 129.5 -54t54.5 -130q0 -75 -54.5 -128.5t-129.5 -53.5zM340 1495q-69 0 -117.5 -49.5t-48.5 -118.5q0 -68 48.5 -117t117.5 -49q68 0 117 49.5t49 116.5q0 69 -49 118.5t-117 49.5zM817 1145q-75 0 -129.5 53.5
t-54.5 128.5q0 76 54.5 130t129.5 54q77 0 130.5 -53.5t53.5 -130.5q0 -75 -54 -128.5t-130 -53.5zM817 1495q-69 0 -117.5 -49.5t-48.5 -118.5q0 -68 48.5 -117t117.5 -49t117.5 49t48.5 117q0 69 -48.5 118.5t-117.5 49.5z" />
    <glyph glyph-name="aring" unicode="&#xe5;" horiz-adv-x="1138" 
d="M389 -27q-17 0 -37.5 1.5t-56.5 9t-68 19.5t-67.5 35.5t-61 55.5t-42.5 81.5t-17 109.5q0 224 227 309q116 43 277 43v0v0v0v0v0v0v0v0v0v0h1v0v0v0v0h1v0v0h1v0v0h1v0v0h1v0h1v0h1v0h1v0h1h1v0h1v0h1h1v0h1h1h1h1v0h1h1h1h1h1h1h1h1h1h1h1h1h1h1h1h1h1h1h1h1h1h1h1h1h1
h1h1h1h1h1h1h1h1h1h1h1h1h1h1h1h1h1h1h1h1h1h1h1h1h1h1h1h1h1h1h1h1h1h1h1h1h1h1h1h1h1h1h1h1h1h1h1h1h1h1h1h1h1h1h1h1h1h1h1h1h10q-3 62 -40 96.5t-101 34.5q-46 0 -95 -16.5t-81 -42.5l-4 -4l-246 167l8 9q174 186 473 186q112 0 197 -26t135.5 -66.5t82.5 -98t43 -113
t11 -118.5v-645h-383v78q-45 -51 -119 -78t-147 -27zM674 618h-131q-158 0 -271 -43q-217 -80 -217 -290q0 -57 16 -104t40.5 -76.5t58.5 -52t64.5 -33.5t65 -17.5t53.5 -8t36 -1.5q76 0 153.5 30.5t114.5 86.5l17 24v-117h346v629q0 198 -115 301t-336 103
q-283 0 -452 -172l215 -150q77 57 182 57q75 0 117.5 -41t42.5 -116v-9zM514 250q-49 0 -78.5 25.5t-29.5 68.5q0 113 233 113h35v-127l-2 -2q-23 -33 -64 -55.5t-94 -22.5zM655 438h-16q-215 0 -215 -94q0 -35 24.5 -55.5t65.5 -20.5q89 0 141 68v102zM580 1110
q-106 0 -181 75t-75 181t75 182t181 76q107 0 182.5 -76t75.5 -182t-75.5 -181t-182.5 -75zM580 1606q-98 0 -168 -70t-70 -170q0 -98 70 -168t168 -70q100 0 169.5 70t69.5 168q0 100 -69.5 170t-169.5 70zM580 1272q-38 0 -66.5 28t-28.5 66q0 40 28.5 68t66.5 28
q40 0 68 -28t28 -68q0 -38 -28 -66t-68 -28zM580 1444q-31 0 -53.5 -23t-22.5 -55q0 -31 22.5 -53.5t53.5 -22.5q32 0 54.5 22.5t22.5 53.5q0 32 -22.5 55t-54.5 23z" />
    <glyph glyph-name="ae" unicode="&#xe6;" horiz-adv-x="1826" 
d="M1286 -27q-269 0 -428 162q-53 -72 -163 -117t-238 -45q-15 0 -36 1.5t-63.5 8t-81 18t-83 35.5t-76.5 55.5t-53 81.5t-21 112q0 224 227 309q116 43 277 43v0v0v0v0v0v0v0v0v0v0h1v0v0v0v0h1v0v0h1v0v0h1v0v0h1v0h1v0h1v0h1v0h1h1v0h1v0h1h1v0h1h1h1h1v0h1h1h1h1h1h1h1
h1h1h1h1h1h1h1h1h1h1h1h1h1h1h1h1h1h1h1h1h1h1h1h1h1h1h1h1h1h1h1h1h1h1h1h1h1h1h1h1h1h1h1h1h1h1h1h1h1h1h1h1h1h1h1h1h1h1h1h1h1h1h1h1h1h1h1h1h1h1h1h1h1h1h1h1h1h1h10q-2 62 -38.5 96.5t-100.5 34.5q-46 0 -96 -16.5t-80 -42.5l-6 -4l-246 167l8 9q174 186 473 186
q221 0 332 -117q142 117 342 117q122 0 226.5 -43.5t177.5 -126.5q161 -185 127 -477v-6l-705 -2q48 -138 213 -138q59 0 106.5 24.5t75.5 57.5l5 6l260 -155l-4 -6q-60 -105 -179.5 -166.5t-263.5 -61.5zM850 154l6 10l8 -8q152 -164 422 -164q135 0 250 57t172 152
l-231 139q-30 -35 -80 -59.5t-111 -24.5q-90 0 -150 42t-83 120l-4 12h712q28 283 -125 455q-70 79 -171 121.5t-218 42.5q-198 0 -338 -119l-6 -6l-6 8q-105 117 -324 117q-283 0 -452 -172l217 -150q33 26 83.5 41.5t98.5 15.5q74 0 116 -41t42 -116v-9h-129
q-160 0 -273 -43q-215 -80 -215 -290q0 -58 20.5 -105.5t51 -77.5t72.5 -52t79 -32.5t78 -17t60.5 -7.5t34.5 -1q129 0 237.5 45t155.5 117zM520 250q-51 0 -80.5 25t-29.5 67q0 115 233 115h35v-127q-22 -34 -63.5 -57t-94.5 -23zM659 438h-16q-215 0 -215 -96
q0 -34 24.5 -54t67.5 -20q47 0 83 19.5t56 46.5v104zM1448 610l-399 -2q21 85 73.5 130.5t124.5 45.5q78 0 130 -42t69 -121zM1247 768q-62 0 -107 -37t-67 -104l352 2q-34 139 -178 139z" />
    <glyph glyph-name="ccedilla" unicode="&#xe7;" horiz-adv-x="1073" 
d="M561 -516q-80 0 -148 19.5t-108 45.5l-8 5l100 180l9 -6q17 -13 45.5 -24t54.5 -11q65 0 65 53q0 47 -57 47q-27 0 -49 -12l-64 84l62 123q-194 41 -310 185.5t-116 346.5q0 238 158 392.5t401 154.5q154 0 279 -65t198 -183l6 -8l-329 -201l-5 8q-48 76 -149 76
q-78 0 -126 -48t-48 -126t48 -126t126 -48q100 0 149 78l5 6l329 -201l-6 -8q-69 -110 -186.5 -175t-259.5 -71l-25 -47q46 -2 87 -14t75.5 -36.5t55 -67t20.5 -97.5q0 -109 -73.5 -169t-205.5 -60zM401 -293l-79 -147q94 -58 239 -58q29 0 57.5 3.5t67 16.5t67 34.5
t48.5 62t20 94.5q0 69 -34.5 115t-83.5 64t-109 18h-21l41 82h7q138 6 251.5 66.5t180.5 164.5l-297 183q-56 -78 -160 -78q-85 0 -139 53.5t-54 138.5q0 86 54 139.5t139 53.5q104 0 160 -78l297 182q-72 110 -191.5 171t-265.5 61q-235 0 -388 -149.5t-153 -379.5
q0 -199 115.5 -340t308.5 -176l10 -4l-65 -133l47 -64q21 9 43 9q35 0 55.5 -18t20.5 -48q0 -34 -22 -52t-62 -18q-50 0 -105 31z" />
    <glyph glyph-name="egrave" unicode="&#xe8;" horiz-adv-x="1167" 
d="M629 -27q-264 0 -426 150t-162 395q0 235 157.5 392t393.5 157q251 0 401 -170q164 -184 129 -477v-6l-706 -2q51 -138 213 -138q60 0 108 24.5t74 57.5l6 6l260 -155l-6 -6q-59 -105 -177.5 -166.5t-264.5 -61.5zM592 1049q-229 0 -382 -152t-153 -379
q0 -235 158 -380.5t414 -145.5q136 0 250.5 56.5t173.5 152.5l-232 139q-30 -35 -80.5 -59.5t-111.5 -24.5q-89 0 -150 42t-84 120l-2 12h713q28 283 -125 455q-70 79 -171 121.5t-218 42.5zM793 610l-400 -2l2 13q22 76 74 119.5t123 43.5q78 0 129 -42t70 -121zM592 768
q-63 0 -108.5 -36.5t-67.5 -104.5l354 2q-38 139 -178 139zM618 1497l150 -319h-313l-222 319h385zM268 1479l197 -283h274l-133 283h-338z" />
    <glyph glyph-name="eacute" unicode="&#xe9;" horiz-adv-x="1167" 
d="M629 -27q-264 0 -426 150t-162 395q0 235 157.5 392t393.5 157q251 0 401 -170q164 -184 129 -477v-6l-706 -2q51 -138 213 -138q60 0 108 24.5t74 57.5l6 6l260 -155l-6 -6q-59 -105 -177.5 -166.5t-264.5 -61.5zM592 1049q-229 0 -382 -152t-153 -379
q0 -235 158 -380.5t414 -145.5q136 0 250.5 56.5t173.5 152.5l-232 139q-30 -35 -80.5 -59.5t-111.5 -24.5q-89 0 -150 42t-84 120l-2 12h713q28 283 -125 455q-70 79 -171 121.5t-218 42.5zM793 610l-400 -2l2 13q22 76 74 119.5t123 43.5q78 0 129 -42t70 -121zM592 768
q-63 0 -108.5 -36.5t-67.5 -104.5l354 2q-38 139 -178 139zM934 1497l-221 -319h-312l148 319h385zM561 1479l-133 -283h274l197 283h-338z" />
    <glyph glyph-name="ecircumflex" unicode="&#xea;" horiz-adv-x="1167" 
d="M629 -27q-264 0 -426 150t-162 395q0 235 157.5 392t393.5 157q251 0 401 -170q164 -184 129 -477v-6l-706 -2q51 -138 213 -138q60 0 108 24.5t74 57.5l6 6l260 -155l-6 -6q-59 -105 -177.5 -166.5t-264.5 -61.5zM592 1049q-229 0 -382 -152t-153 -379
q0 -235 158 -380.5t414 -145.5q136 0 250.5 56.5t173.5 152.5l-232 139q-30 -35 -80.5 -59.5t-111.5 -24.5q-89 0 -150 42t-84 120l-2 12h713q28 283 -125 455q-70 79 -171 121.5t-218 42.5zM793 610l-400 -2l2 13q22 76 74 119.5t123 43.5q78 0 129 -42t70 -121zM592 768
q-63 0 -108.5 -36.5t-67.5 -104.5l354 2q-38 139 -178 139zM748 1497l249 -319h-323l-90 125l-92 -125h-324l252 319h328zM584 1333l100 -137h277l-222 283h-311l-223 -283h278z" />
    <glyph glyph-name="edieresis" unicode="&#xeb;" horiz-adv-x="1167" 
d="M629 -27q-264 0 -426 150t-162 395q0 235 157.5 392t393.5 157q251 0 401 -170q164 -184 129 -477v-6l-706 -2q51 -138 213 -138q60 0 108 24.5t74 57.5l6 6l260 -155l-6 -6q-59 -105 -177.5 -166.5t-264.5 -61.5zM592 1049q-229 0 -382 -152t-153 -379
q0 -235 158 -380.5t414 -145.5q136 0 250.5 56.5t173.5 152.5l-232 139q-30 -35 -80.5 -59.5t-111.5 -24.5q-89 0 -150 42t-84 120l-2 12h713q28 283 -125 455q-70 79 -171 121.5t-218 42.5zM793 610l-400 -2l2 13q22 76 74 119.5t123 43.5q78 0 129 -42t70 -121zM592 768
q-63 0 -108.5 -36.5t-67.5 -104.5l354 2q-38 139 -178 139zM344 1145q-76 0 -130 53.5t-54 128.5q0 77 54 130.5t130 53.5q75 0 129.5 -54t54.5 -130q0 -75 -54.5 -128.5t-129.5 -53.5zM344 1495q-69 0 -117.5 -49.5t-48.5 -118.5q0 -68 48.5 -117t117.5 -49q68 0 117 49.5
t49 116.5q0 69 -49 118.5t-117 49.5zM821 1145q-75 0 -129.5 53.5t-54.5 128.5q0 76 54.5 130t129.5 54q77 0 131 -54t54 -130q0 -75 -54.5 -128.5t-130.5 -53.5zM821 1495q-69 0 -117.5 -49.5t-48.5 -118.5q0 -68 48.5 -117t117.5 -49t117.5 49t48.5 117q0 69 -48.5 118.5
t-117.5 49.5z" />
    <glyph glyph-name="igrave" unicode="&#xec;" 
d="M479 1042v-1042h-383v1042h383zM115 1024v-1008h346v1008h-346zM301 1497l150 -319h-314l-221 319h385zM-49 1479l196 -283h275l-133 283h-338z" />
    <glyph glyph-name="iacute" unicode="&#xed;" 
d="M479 1042v-1042h-383v1042h383zM115 1024v-1008h346v1008h-346zM657 1497l-221 -319h-311l147 319h385zM285 1479l-133 -283h274l197 283h-338z" />
    <glyph glyph-name="icircumflex" unicode="&#xee;" 
d="M479 1042v-1042h-383v1042h383zM115 1024v-1008h346v1008h-346zM451 1497l249 -319h-323l-90 125l-92 -125h-324l252 319h328zM287 1333l100 -137h277l-222 283h-311l-223 -283h278z" />
    <glyph glyph-name="idieresis" unicode="&#xef;" 
d="M479 1042v-1042h-383v1042h383zM115 1024v-1008h346v1008h-346zM47 1145q-76 0 -130 53.5t-54 128.5q0 77 53.5 130.5t130.5 53.5q75 0 129.5 -54t54.5 -130q0 -75 -54.5 -128.5t-129.5 -53.5zM47 1495q-69 0 -117.5 -49.5t-48.5 -118.5q0 -68 48.5 -117t117.5 -49
q67 0 116.5 49.5t49.5 116.5q0 69 -49 118.5t-117 49.5zM524 1145q-75 0 -129.5 53.5t-54.5 128.5q0 76 54.5 130t129.5 54q77 0 131 -54t54 -130q0 -75 -54.5 -128.5t-130.5 -53.5zM524 1495q-69 0 -117.5 -49.5t-48.5 -118.5q0 -68 48.5 -117t117.5 -49t117.5 49t48.5 117
q0 69 -48.5 118.5t-117.5 49.5z" />
    <glyph glyph-name="eth" unicode="&#xf0;" horiz-adv-x="1187" 
d="M588 -27q-246 0 -397.5 145.5t-151.5 381.5q0 211 136.5 340t359.5 129q100 0 180 -35q-54 93 -172 194l-260 -127l-56 113l205 100q-119 82 -217 125l-14 7l266 182l6 -2q126 -67 250 -170l240 119l55 -115l-195 -94q160 -160 243 -346t83 -385q0 -255 -152.5 -408.5
t-408.5 -153.5zM535 952q-214 0 -346 -125t-132 -327q0 -227 146.5 -367.5t384.5 -140.5q247 0 394.5 147.5t147.5 395.5q0 403 -327 727l-10 8l202 98l-41 82l-233 -115l-4 4q-114 94 -248 168l-231 -159q112 -53 217 -127l12 -11l-215 -104l39 -82l256 125l4 -2
q139 -118 194 -234l-12 -8q-86 47 -198 47zM588 315q-77 0 -129.5 53.5t-52.5 131.5q0 75 53.5 128.5t128.5 53.5q77 0 130.5 -53t53.5 -129q0 -80 -52.5 -132.5t-131.5 -52.5zM588 664q-68 0 -116 -48t-48 -116q0 -70 47.5 -118t116.5 -48q72 0 119 47t47 119
q0 69 -48 116.5t-118 47.5z" />
    <glyph glyph-name="ntilde" unicode="&#xf1;" horiz-adv-x="1236" 
d="M1139 649v-649h-383v561q0 58 -38 94.5t-100 36.5q-61 0 -98 -36t-37 -95v-561h-383v1042h383v-92q95 117 271 117q73 0 133 -18.5t99 -47t68.5 -68.5t45 -78t25 -81t12 -71t2.5 -54zM774 561v-545h346v633q0 31 -2.5 61t-12 71t-25 76.5t-43.5 72t-65 62t-93.5 41.5
t-124.5 16q-182 0 -273 -129l-16 -23v127h-346v-1008h346v545q0 66 43 108t110 42q69 0 112.5 -42t43.5 -108zM776 1155q-63 0 -160 39q-62 20 -75 20q-41 0 -43 -49v-10l-240 43v8q34 258 223 258q47 0 121 -32q64 -27 94 -27q42 0 45 49v10l238 -41v-10
q-15 -134 -63.5 -196t-139.5 -62zM541 1233q19 0 82 -23q101 -36 153 -36q80 0 125 56t60 177l-203 37q-9 -58 -62 -58q-28 0 -100 29q-76 33 -115 33q-172 0 -202 -236l200 -34q10 55 62 55z" />
    <glyph glyph-name="ograve" unicode="&#xf2;" horiz-adv-x="1196" 
d="M598 -27q-120 0 -224 41.5t-177.5 113.5t-115.5 173.5t-42 218.5q0 238 158 392.5t401 154.5q244 0 402.5 -154.5t158.5 -392.5q0 -237 -158.5 -392t-402.5 -155zM598 1049q-235 0 -388 -149.5t-153 -379.5q0 -229 153 -378.5t388 -149.5q236 0 389.5 149.5t153.5 378.5
q0 230 -153.5 379.5t-389.5 149.5zM598 328q-85 0 -138.5 53.5t-53.5 138.5q0 86 53.5 139.5t138.5 53.5q86 0 139.5 -53.5t53.5 -139.5q0 -85 -53.5 -138.5t-139.5 -53.5zM598 694q-78 0 -126 -48t-48 -126t48 -126t126 -48t126 48t48 126t-48 126t-126 48zM612 1497
l150 -319h-313l-222 319h385zM262 1479l197 -283h274l-133 283h-338z" />
    <glyph glyph-name="oacute" unicode="&#xf3;" horiz-adv-x="1196" 
d="M598 -27q-120 0 -224 41.5t-177.5 113.5t-115.5 173.5t-42 218.5q0 238 158 392.5t401 154.5q244 0 402.5 -154.5t158.5 -392.5q0 -237 -158.5 -392t-402.5 -155zM598 1049q-235 0 -388 -149.5t-153 -379.5q0 -229 153 -378.5t388 -149.5q236 0 389.5 149.5t153.5 378.5
q0 230 -153.5 379.5t-389.5 149.5zM598 328q-85 0 -138.5 53.5t-53.5 138.5q0 86 53.5 139.5t138.5 53.5q86 0 139.5 -53.5t53.5 -139.5q0 -85 -53.5 -138.5t-139.5 -53.5zM598 694q-78 0 -126 -48t-48 -126t48 -126t126 -48t126 48t48 126t-48 126t-126 48zM948 1497
l-221 -319h-311l147 319h385zM575 1479l-133 -283h275l196 283h-338z" />
    <glyph glyph-name="ocircumflex" unicode="&#xf4;" horiz-adv-x="1196" 
d="M598 -27q-120 0 -224 41.5t-177.5 113.5t-115.5 173.5t-42 218.5q0 238 158 392.5t401 154.5q244 0 402.5 -154.5t158.5 -392.5q0 -237 -158.5 -392t-402.5 -155zM598 1049q-235 0 -388 -149.5t-153 -379.5q0 -229 153 -378.5t388 -149.5q236 0 389.5 149.5t153.5 378.5
q0 230 -153.5 379.5t-389.5 149.5zM598 328q-85 0 -138.5 53.5t-53.5 138.5q0 86 53.5 139.5t138.5 53.5q86 0 139.5 -53.5t53.5 -139.5q0 -85 -53.5 -138.5t-139.5 -53.5zM598 694q-78 0 -126 -48t-48 -126t48 -126t126 -48t126 48t48 126t-48 126t-126 48zM762 1497
l250 -319h-324l-90 125l-92 -125h-324l252 319h328zM598 1333l100 -137h277l-221 283h-312l-223 -283h279z" />
    <glyph glyph-name="otilde" unicode="&#xf5;" horiz-adv-x="1196" 
d="M598 -27q-120 0 -224 41.5t-177.5 113.5t-115.5 173.5t-42 218.5q0 238 158 392.5t401 154.5q244 0 402.5 -154.5t158.5 -392.5q0 -237 -158.5 -392t-402.5 -155zM598 1049q-235 0 -388 -149.5t-153 -379.5q0 -229 153 -378.5t388 -149.5q236 0 389.5 149.5t153.5 378.5
q0 230 -153.5 379.5t-389.5 149.5zM598 328q-85 0 -138.5 53.5t-53.5 138.5q0 86 53.5 139.5t138.5 53.5q86 0 139.5 -53.5t53.5 -139.5q0 -85 -53.5 -138.5t-139.5 -53.5zM598 694q-78 0 -126 -48t-48 -126t48 -126t126 -48t126 48t48 126t-48 126t-126 48zM756 1155
q-63 0 -160 39q-62 20 -76 20q-41 0 -43 -49v-10l-239 43v8q34 258 223 258q47 0 121 -32q64 -27 94 -27q42 0 45 49v10l237 -41v-10q-15 -134 -63.5 -196t-138.5 -62zM520 1233q19 0 82 -23q101 -36 154 -36q80 0 124.5 56t59.5 177l-203 37q-9 -58 -61 -58q-28 0 -101 29
q-76 33 -114 33q-173 0 -203 -236l201 -34q10 55 61 55z" />
    <glyph glyph-name="odieresis" unicode="&#xf6;" horiz-adv-x="1196" 
d="M598 -27q-120 0 -224 41.5t-177.5 113.5t-115.5 173.5t-42 218.5q0 238 158 392.5t401 154.5q244 0 402.5 -154.5t158.5 -392.5q0 -237 -158.5 -392t-402.5 -155zM598 1049q-235 0 -388 -149.5t-153 -379.5q0 -229 153 -378.5t388 -149.5q236 0 389.5 149.5t153.5 378.5
q0 230 -153.5 379.5t-389.5 149.5zM598 328q-85 0 -138.5 53.5t-53.5 138.5q0 86 53.5 139.5t138.5 53.5q86 0 139.5 -53.5t53.5 -139.5q0 -85 -53.5 -138.5t-139.5 -53.5zM598 694q-78 0 -126 -48t-48 -126t48 -126t126 -48t126 48t48 126t-48 126t-126 48zM358 1145
q-76 0 -130 53.5t-54 128.5q0 77 54 130.5t130 53.5q75 0 130 -54t55 -130q0 -75 -55 -128.5t-130 -53.5zM358 1495q-69 0 -117 -49.5t-48 -118.5q0 -68 48 -117t117 -49q68 0 117 49.5t49 116.5q0 69 -49 118.5t-117 49.5zM836 1145q-75 0 -130 53.5t-55 128.5q0 76 55 130
t130 54q76 0 130 -53.5t54 -130.5q0 -75 -54 -128.5t-130 -53.5zM836 1495q-69 0 -117.5 -49.5t-48.5 -118.5q0 -68 48.5 -117t117.5 -49t117 49t48 117q0 69 -48 118.5t-117 49.5z" />
    <glyph glyph-name="divide" unicode="&#xf7;" horiz-adv-x="1064" 
d="M956 764v-307h-845v307h845zM127 745v-270h811v270h-811zM532 16q-72 0 -124 52.5t-52 124.5q0 73 52 125.5t124 52.5q74 0 126.5 -52.5t52.5 -125.5q0 -72 -53 -124.5t-126 -52.5zM532 352q-66 0 -112.5 -46.5t-46.5 -112.5t46.5 -112t112.5 -46t113 46t47 112
t-47 112.5t-113 46.5zM532 850q-72 0 -124 52.5t-52 125.5t52 125.5t124 52.5q74 0 126.5 -52.5t52.5 -125.5t-52.5 -125.5t-126.5 -52.5zM532 1188q-66 0 -112.5 -47t-46.5 -113t46.5 -113t112.5 -47t113 47t47 113t-47 113t-113 47z" />
    <glyph glyph-name="oslash" unicode="&#xf8;" horiz-adv-x="1196" 
d="M598 -27q-217 0 -369 125l-96 -88l-86 94l96 86q-104 141 -104 330q0 238 158 392.5t401 154.5q220 0 369 -125l98 88l84 -92l-94 -86q102 -141 102 -332q0 -237 -157.5 -392t-401.5 -155zM133 37l96 86l7 -4q145 -127 362 -127q154 0 278.5 68t194.5 189t70 271
q0 188 -107 326l-4 8l94 84l-61 68l-94 -88l-6 6q-149 125 -365 125q-235 0 -388 -149.5t-153 -379.5q0 -186 105 -325l6 -7l-94 -86zM598 328q-54 0 -98 24l-13 6l283 258l4 -12q17 -42 17 -84q0 -85 -53.5 -138.5t-139.5 -53.5zM762 586l-244 -224q40 -16 80 -16
q78 0 126 48t48 126q0 41 -10 66zM709 682l-281 -256l-6 12q-16 40 -16 82q0 86 53.5 139.5t138.5 53.5q52 0 100 -25zM598 694q-78 0 -126 -48t-48 -126q0 -30 10 -63l244 221q-33 16 -80 16z" />
    <glyph glyph-name="ugrave" unicode="&#xf9;" horiz-adv-x="1239" 
d="M485 -27q-73 0 -133 18.5t-99 47t-68.5 68.5t-45 78t-25 81t-12 71t-2.5 54v651h383v-561q0 -60 38 -95.5t100 -35.5t98.5 35.5t36.5 95.5v561h383v-1042h-383v90q-94 -117 -271 -117zM465 1024h-346v-633q0 -30 2.5 -60t12 -71t25 -76.5t43.5 -71.5t65 -62t93.5 -42
t124.5 -16q180 0 273 131l16 22v-129h346v1008h-346v-543q0 -66 -42.5 -107.5t-110.5 -41.5q-69 0 -112.5 41.5t-43.5 107.5v543zM674 1497l149 -319h-313l-221 319h385zM324 1479l196 -283h275l-133 283h-338z" />
    <glyph glyph-name="uacute" unicode="&#xfa;" horiz-adv-x="1239" 
d="M485 -27q-73 0 -133 18.5t-99 47t-68.5 68.5t-45 78t-25 81t-12 71t-2.5 54v651h383v-561q0 -60 38 -95.5t100 -35.5t98.5 35.5t36.5 95.5v561h383v-1042h-383v90q-94 -117 -271 -117zM465 1024h-346v-633q0 -30 2.5 -60t12 -71t25 -76.5t43.5 -71.5t65 -62t93.5 -42
t124.5 -16q180 0 273 131l16 22v-129h346v1008h-346v-543q0 -66 -42.5 -107.5t-110.5 -41.5q-69 0 -112.5 41.5t-43.5 107.5v543zM989 1497l-221 -319h-311l147 319h385zM616 1479l-133 -283h275l196 283h-338z" />
    <glyph glyph-name="ucircumflex" unicode="&#xfb;" horiz-adv-x="1239" 
d="M485 -27q-73 0 -133 18.5t-99 47t-68.5 68.5t-45 78t-25 81t-12 71t-2.5 54v651h383v-561q0 -60 38 -95.5t100 -35.5t98.5 35.5t36.5 95.5v561h383v-1042h-383v90q-94 -117 -271 -117zM465 1024h-346v-633q0 -30 2.5 -60t12 -71t25 -76.5t43.5 -71.5t65 -62t93.5 -42
t124.5 -16q180 0 273 131l16 22v-129h346v1008h-346v-543q0 -66 -42.5 -107.5t-110.5 -41.5q-69 0 -112.5 41.5t-43.5 107.5v543zM782 1497l250 -319h-323l-91 125l-92 -125h-323l252 319h327zM618 1333l101 -137h276l-221 283h-311l-223 -283h278z" />
    <glyph glyph-name="udieresis" unicode="&#xfc;" horiz-adv-x="1239" 
d="M485 -27q-73 0 -133 18.5t-99 47t-68.5 68.5t-45 78t-25 81t-12 71t-2.5 54v651h383v-561q0 -60 38 -95.5t100 -35.5t98.5 35.5t36.5 95.5v561h383v-1042h-383v90q-94 -117 -271 -117zM465 1024h-346v-633q0 -30 2.5 -60t12 -71t25 -76.5t43.5 -71.5t65 -62t93.5 -42
t124.5 -16q180 0 273 131l16 22v-129h346v1008h-346v-543q0 -66 -42.5 -107.5t-110.5 -41.5q-69 0 -112.5 41.5t-43.5 107.5v543zM379 1145q-76 0 -130 53.5t-54 128.5q0 77 53.5 130.5t130.5 53.5q75 0 129.5 -54t54.5 -130q0 -75 -54.5 -128.5t-129.5 -53.5zM379 1495
q-69 0 -117.5 -49.5t-48.5 -118.5q0 -68 48.5 -117t117.5 -49q67 0 116.5 49.5t49.5 116.5q0 69 -49 118.5t-117 49.5zM856 1145q-75 0 -129.5 53.5t-54.5 128.5q0 76 54.5 130t129.5 54q76 0 130 -53.5t54 -130.5q0 -75 -54 -128.5t-130 -53.5zM856 1495
q-69 0 -117.5 -49.5t-48.5 -118.5q0 -68 48.5 -117t117.5 -49t117.5 49t48.5 117q0 69 -48.5 118.5t-117.5 49.5z" />
    <glyph glyph-name="yacute" unicode="&#xfd;" horiz-adv-x="1185" 
d="M1182 1042l-568 -1433h-378l182 461l-414 972h406l182 -516l186 516h404zM436 70l-174 -443h340l553 1397h-364l-199 -551l-195 551h-364zM942 1497l-221 -319h-311l147 319h385zM569 1479l-133 -283h275l196 283h-338z" />
    <glyph glyph-name="thorn" unicode="&#xfe;" horiz-adv-x="1267" 
d="M485 68v-459h-383v1825h383v-461q94 94 258 94q97 0 178.5 -31.5t137.5 -85t95 -124t57 -148t18 -158.5q0 -80 -18 -157.5t-57 -148.5t-95 -124t-137.5 -85t-178.5 -32q-160 0 -258 95zM121 1415v-1788h346v488l14 -19q91 -104 262 -104q116 0 208 46.5t147 123
t83.5 168.5t28.5 190q0 79 -17.5 153.5t-54.5 143t-91 120t-132.5 82t-171.5 30.5q-171 0 -262 -105l-14 -16v487h-346zM670 328q-85 0 -139 53.5t-54 138.5q0 86 54 139.5t139 53.5q86 0 139 -53.5t53 -139.5t-53 -139t-139 -53zM670 694q-78 0 -126 -48t-48 -126t48 -126
t126 -48t126 48t48 126t-48 126t-126 48z" />
    <glyph glyph-name="ydieresis" unicode="&#xff;" horiz-adv-x="1185" 
d="M1182 1042l-568 -1433h-378l182 461l-414 972h406l182 -516l186 516h404zM436 70l-174 -443h340l553 1397h-364l-199 -551l-195 551h-364zM352 1145q-76 0 -130 53.5t-54 128.5q0 77 54 130.5t130 53.5q75 0 130 -54t55 -130q0 -75 -55 -128.5t-130 -53.5zM352 1495
q-69 0 -117.5 -49.5t-48.5 -118.5q0 -68 48.5 -117t117.5 -49q68 0 117 49.5t49 116.5q0 69 -49 118.5t-117 49.5zM829 1145q-75 0 -129.5 53.5t-54.5 128.5q0 76 54.5 130t129.5 54q77 0 131 -54t54 -130q0 -75 -54.5 -128.5t-130.5 -53.5zM829 1495q-69 0 -117 -49.5
t-48 -118.5q0 -68 48 -117t117 -49t117.5 49t48.5 117q0 69 -48.5 118.5t-117.5 49.5z" />
    <glyph glyph-name="Amacron" unicode="&#x100;" horiz-adv-x="1503" 
d="M1016 1434l479 -1434h-473l-61 227h-420l-62 -227h-473l479 1434h531zM973 246l63 -230h434l-466 1399h-504l-469 -1399h434l63 230h445zM752 1051l145 -527h-293zM752 983l-123 -440h243zM1073 1872v-268h-643v268h643zM449 1855v-235h606v235h-606z" />
    <glyph glyph-name="amacron" unicode="&#x101;" horiz-adv-x="1138" 
d="M389 -27q-17 0 -37.5 1.5t-56.5 9t-68 19.5t-67.5 35.5t-61 55.5t-42.5 81.5t-17 109.5q0 224 227 309q116 43 277 43v0v0v0v0v0v0v0v0v0v0h1v0v0v0v0h1v0v0h1v0v0h1v0v0h1v0h1v0h1v0h1v0h1h1v0h1v0h1h1v0h1h1h1h1v0h1h1h1h1h1h1h1h1h1h1h1h1h1h1h1h1h1h1h1h1h1h1h1h1h1
h1h1h1h1h1h1h1h1h1h1h1h1h1h1h1h1h1h1h1h1h1h1h1h1h1h1h1h1h1h1h1h1h1h1h1h1h1h1h1h1h1h1h1h1h1h1h1h1h1h1h1h1h1h1h1h1h1h1h1h1h10q-3 62 -40 96.5t-101 34.5q-46 0 -95 -16.5t-81 -42.5l-4 -4l-246 167l8 9q174 186 473 186q112 0 197 -26t135.5 -66.5t82.5 -98t43 -113
t11 -118.5v-645h-383v78q-45 -51 -119 -78t-147 -27zM674 618h-131q-158 0 -271 -43q-217 -80 -217 -290q0 -57 16 -104t40.5 -76.5t58.5 -52t64.5 -33.5t65 -17.5t53.5 -8t36 -1.5q76 0 153.5 30.5t114.5 86.5l17 24v-117h346v629q0 198 -115 301t-336 103
q-283 0 -452 -172l215 -150q77 57 182 57q75 0 117.5 -41t42.5 -116v-9zM514 250q-49 0 -78.5 25.5t-29.5 68.5q0 113 233 113h35v-127l-2 -2q-23 -33 -64 -55.5t-94 -22.5zM655 438h-16q-215 0 -215 -94q0 -35 24.5 -55.5t65.5 -20.5q89 0 141 68v102zM899 1462v-268h-643
v268h643zM274 1446v-236h607v236h-607z" />
    <glyph glyph-name="Abreve" unicode="&#x102;" horiz-adv-x="1503" 
d="M1016 1434l479 -1434h-473l-61 227h-420l-62 -227h-473l479 1434h531zM973 246l63 -230h434l-466 1399h-504l-469 -1399h434l63 230h445zM752 1051l145 -527h-293zM752 983l-123 -440h243zM752 1561q-156 0 -251 90t-95 239v8h251v-8q0 -44 26 -70t69 -26q44 0 70 26
t26 70v8h252v-8q0 -149 -95.5 -239t-252.5 -90zM639 1880h-217q3 -138 92.5 -219.5t237.5 -81.5q149 0 238.5 81.5t90.5 219.5h-215q-3 -48 -33.5 -76t-80.5 -28q-49 0 -79.5 28t-33.5 76z" />
    <glyph glyph-name="abreve" unicode="&#x103;" horiz-adv-x="1138" 
d="M389 -27q-17 0 -37.5 1.5t-56.5 9t-68 19.5t-67.5 35.5t-61 55.5t-42.5 81.5t-17 109.5q0 224 227 309q116 43 277 43v0v0v0v0v0v0v0v0v0v0h1v0v0v0v0h1v0v0h1v0v0h1v0v0h1v0h1v0h1v0h1v0h1h1v0h1v0h1h1v0h1h1h1h1v0h1h1h1h1h1h1h1h1h1h1h1h1h1h1h1h1h1h1h1h1h1h1h1h1h1
h1h1h1h1h1h1h1h1h1h1h1h1h1h1h1h1h1h1h1h1h1h1h1h1h1h1h1h1h1h1h1h1h1h1h1h1h1h1h1h1h1h1h1h1h1h1h1h1h1h1h1h1h1h1h1h1h1h1h1h1h10q-3 62 -40 96.5t-101 34.5q-46 0 -95 -16.5t-81 -42.5l-4 -4l-246 167l8 9q174 186 473 186q112 0 197 -26t135.5 -66.5t82.5 -98t43 -113
t11 -118.5v-645h-383v78q-45 -51 -119 -78t-147 -27zM674 618h-131q-158 0 -271 -43q-217 -80 -217 -290q0 -57 16 -104t40.5 -76.5t58.5 -52t64.5 -33.5t65 -17.5t53.5 -8t36 -1.5q76 0 153.5 30.5t114.5 86.5l17 24v-117h346v629q0 198 -115 301t-336 103
q-283 0 -452 -172l215 -150q77 57 182 57q75 0 117.5 -41t42.5 -116v-9zM514 250q-49 0 -78.5 25.5t-29.5 68.5q0 113 233 113h35v-127l-2 -2q-23 -33 -64 -55.5t-94 -22.5zM655 438h-16q-215 0 -215 -94q0 -35 24.5 -55.5t65.5 -20.5q89 0 141 68v102zM578 1151
q-156 0 -251.5 90.5t-95.5 239.5v8h252v-8q0 -44 26 -70.5t69 -26.5q44 0 70 26.5t26 70.5v8h252v-8q0 -149 -95.5 -239.5t-252.5 -90.5zM465 1470h-217q3 -138 92.5 -219.5t237.5 -81.5q149 0 238.5 81.5t90.5 219.5h-215q-3 -48 -33.5 -76t-80.5 -28q-49 0 -79.5 28
t-33.5 76z" />
    <glyph glyph-name="Aogonek" unicode="&#x104;" horiz-adv-x="1503" 
d="M1257 -496q-125 0 -195.5 56.5t-70.5 156.5q0 85 48.5 158.5t119.5 124.5h-135l-63 227h-418l-64 -227h-471l479 1434h529l479 -1434h-63q-64 -33 -110 -81t-46 -103q0 -90 94 -90q27 0 55 8l13 4v-201l-4 -2q-79 -31 -177 -31zM975 246l63 -230h185l-27 -16
q-75 -44 -130.5 -119.5t-55.5 -163.5q0 -92 65 -143t182 -51q93 0 164 26v164q-24 -6 -51 -6q-53 0 -83 29t-30 80q0 61 49 114t119 86h5h40l-466 1399h-504l-467 -1399h432l63 230h447zM752 1051l145 -527h-291zM752 983l-123 -440h243z" />
    <glyph glyph-name="aogonek" unicode="&#x105;" horiz-adv-x="1138" 
d="M856 -496q-124 0 -194 56.5t-70 156.5q0 85 48.5 159t119.5 124h-105v78q-45 -51 -119 -78t-147 -27q-17 0 -37.5 1.5t-56.5 9t-68 19.5t-67.5 35.5t-61 55.5t-42.5 81.5t-17 109.5q0 224 227 309q116 43 277 43v0v0v0v0v0v0v0v0v0v0h1v0v0v0v0h1v0v0h1v0v0h1v0v0h1v0h1
v0h1v0h1v0h1h1v0h1v0h1h1v0h1h1h1h1v0h1h1h1h1h1h1h1h1h1h1h1h1h1h1h1h1h1h1h1h1h1h1h1h1h1h1h1h1h1h1h1h1h1h1h1h1h1h1h1h1h1h1h1h1h1h1h1h1h1h1h1h1h1h1h1h1h1h1h1h1h1h1h1h1h1h1h1h1h1h1h1h1h1h1h1h1h1h1h1h1h1h1h1h1h1h10q-3 62 -40 96.5t-101 34.5q-46 0 -95 -16.5
t-81 -42.5l-4 -4l-246 167l8 9q174 186 473 186q112 0 197 -26t135.5 -66.5t82.5 -98t43 -113t11 -118.5v-643l-6 -2q-63 -31 -110.5 -80t-47.5 -104q0 -44 25.5 -67t71.5 -23q23 0 55 8l12 4v-201l-6 -2q-79 -31 -176 -31zM674 133v-117h149l-28 -16q-75 -44 -131 -120
t-56 -163q0 -92 66 -143t182 -51q96 0 164 26v164q-24 -6 -49 -6q-54 0 -84.5 29t-30.5 80q0 59 47.5 111t116.5 87v631q0 198 -115 301t-336 103q-283 0 -452 -172l215 -150q77 57 182 57q75 0 117.5 -41t42.5 -116v-9h-131q-158 0 -271 -43q-215 -80 -215 -290
q0 -57 16 -104t40 -76.5t57.5 -52t64 -33.5t65 -17.5t53.5 -8t36 -1.5q76 0 153.5 30.5t114.5 86.5zM514 250q-49 0 -78.5 25.5t-29.5 68.5q0 113 233 113h35v-127l-2 -2q-23 -33 -64 -55.5t-94 -22.5zM655 438h-16q-215 0 -215 -94q0 -35 24.5 -55.5t65.5 -20.5
q89 0 141 68v102z" />
    <glyph glyph-name="Cacute" unicode="&#x106;" horiz-adv-x="1421" 
d="M797 -27q-157 0 -294.5 56t-234.5 154t-153 236.5t-56 297.5q0 212 95 381.5t264 264.5t379 95q186 0 343.5 -78t258.5 -221l6 -8l-363 -238l-6 7q-82 114 -239 114q-135 0 -218 -87.5t-83 -229.5q0 -143 83 -231.5t218 -88.5q75 0 137 30t102 85l6 8l363 -239l-6 -9
q-102 -142 -259.5 -220.5t-342.5 -78.5zM797 1440q-205 0 -369.5 -92.5t-257 -258t-92.5 -372.5t92.5 -373t257 -259t369.5 -93q179 0 330.5 74.5t250.5 209.5l-331 220q-88 -117 -250 -117q-143 0 -231.5 93t-88.5 245q0 150 88.5 243t231.5 93q161 0 250 -115l331 219
q-98 135 -249.5 209t-331.5 74zM1122 1907l-221 -320h-311l147 320h385zM750 1888l-134 -282h275l196 282h-337z" />
    <glyph glyph-name="cacute" unicode="&#x107;" horiz-adv-x="1073" 
d="M598 -27q-244 0 -401.5 155t-157.5 392q0 238 157.5 392.5t401.5 154.5q154 0 278 -64.5t199 -183.5l4 -8l-329 -201l-5 8q-48 76 -147 76q-78 0 -126 -48t-48 -126t48 -126t126 -48q98 0 147 78l5 6l329 -201l-4 -8q-75 -119 -199 -183.5t-278 -64.5zM598 1049
q-235 0 -389 -149.5t-154 -379.5q0 -150 70 -271t194.5 -189t278.5 -68q146 0 265.5 60.5t191.5 170.5l-299 183q-53 -78 -158 -78q-86 0 -139 53.5t-53 138.5q0 86 53 139.5t139 53.5q105 0 158 -78l299 182q-72 110 -191.5 171t-265.5 61zM928 1497l-221 -319h-312
l148 319h385zM555 1479l-133 -283h274l197 283h-338z" />
    <glyph glyph-name="Ccircumflex" unicode="&#x108;" horiz-adv-x="1421" 
d="M797 -27q-157 0 -294.5 56t-234.5 154t-153 236.5t-56 297.5q0 212 95 381.5t264 264.5t379 95q186 0 343.5 -78t258.5 -221l6 -8l-363 -238l-6 7q-82 114 -239 114q-135 0 -218 -87.5t-83 -229.5q0 -143 83 -231.5t218 -88.5q75 0 137 30t102 85l6 8l363 -239l-6 -9
q-102 -142 -259.5 -220.5t-342.5 -78.5zM797 1440q-205 0 -369.5 -92.5t-257 -258t-92.5 -372.5t92.5 -373t257 -259t369.5 -93q179 0 330.5 74.5t250.5 209.5l-331 220q-88 -117 -250 -117q-143 0 -231.5 93t-88.5 245q0 150 88.5 243t231.5 93q161 0 250 -115l331 219
q-98 135 -249.5 209t-331.5 74zM936 1907l250 -320h-324l-90 125l-92 -125h-324l252 320h328zM772 1743l100 -137h277l-221 282h-312l-223 -282h279z" />
    <glyph glyph-name="ccircumflex" unicode="&#x109;" horiz-adv-x="1073" 
d="M598 -27q-244 0 -401.5 155t-157.5 392q0 238 157.5 392.5t401.5 154.5q154 0 278 -64.5t199 -183.5l4 -8l-329 -201l-5 8q-48 76 -147 76q-78 0 -126 -48t-48 -126t48 -126t126 -48q98 0 147 78l5 6l329 -201l-4 -8q-75 -119 -199 -183.5t-278 -64.5zM598 1049
q-235 0 -389 -149.5t-154 -379.5q0 -150 70 -271t194.5 -189t278.5 -68q146 0 265.5 60.5t191.5 170.5l-299 183q-53 -78 -158 -78q-86 0 -139 53.5t-53 138.5q0 86 53 139.5t139 53.5q105 0 158 -78l299 182q-72 110 -191.5 171t-265.5 61zM741 1497l250 -319h-323l-90 125
l-93 -125h-323l252 319h327zM578 1333l100 -137h276l-221 283h-311l-223 -283h278z" />
    <glyph glyph-name="Cdotaccent" unicode="&#x10a;" horiz-adv-x="1421" 
d="M797 -27q-157 0 -294.5 56t-234.5 154t-153 236.5t-56 297.5q0 212 95 381.5t264 264.5t379 95q186 0 343.5 -78t258.5 -221l6 -8l-363 -238l-6 7q-82 114 -239 114q-135 0 -218 -87.5t-83 -229.5q0 -143 83 -231.5t218 -88.5q75 0 137 30t102 85l6 8l363 -239l-6 -9
q-102 -142 -259.5 -220.5t-342.5 -78.5zM797 1440q-205 0 -369.5 -92.5t-257 -258t-92.5 -372.5t92.5 -373t257 -259t369.5 -93q179 0 330.5 74.5t250.5 209.5l-331 220q-88 -117 -250 -117q-143 0 -231.5 93t-88.5 245q0 150 88.5 243t231.5 93q161 0 250 -115l331 219
q-98 135 -249.5 209t-331.5 74zM772 1554q-76 0 -130 54t-54 129q0 77 54 130.5t130 53.5t130 -53.5t54 -130.5q0 -75 -54 -129t-130 -54zM772 1905q-69 0 -117.5 -49.5t-48.5 -118.5q0 -68 48.5 -117t117.5 -49t117.5 49t48.5 117q0 69 -48.5 118.5t-117.5 49.5z" />
    <glyph glyph-name="cdotaccent" unicode="&#x10b;" horiz-adv-x="1032" 
d="M557 -27q-244 0 -401.5 155t-157.5 392q0 238 157.5 392.5t401.5 154.5q154 0 278 -64.5t199 -183.5l4 -8l-329 -201l-4 8q-48 76 -148 76q-78 0 -126 -48t-48 -126t48 -126t126 -48q99 0 148 78l4 6l329 -201l-4 -8q-75 -119 -199 -183.5t-278 -64.5zM557 1049
q-235 0 -389 -149.5t-154 -379.5q0 -150 70 -271t194.5 -189t278.5 -68q146 0 265.5 60.5t191.5 170.5l-299 183q-53 -78 -158 -78q-86 0 -139 53.5t-53 138.5q0 86 53 139.5t139 53.5q105 0 158 -78l299 182q-72 110 -191.5 171t-265.5 61zM537 1145q-76 0 -130.5 53.5
t-54.5 128.5q0 76 54 130t131 54t130.5 -53.5t53.5 -130.5q0 -75 -54 -128.5t-130 -53.5zM537 1495q-69 0 -117.5 -49.5t-48.5 -118.5q0 -68 48.5 -117t117.5 -49t117 49t48 117q0 69 -48 118.5t-117 49.5z" />
    <glyph glyph-name="Ccaron" unicode="&#x10c;" horiz-adv-x="1421" 
d="M797 -27q-157 0 -294.5 56t-234.5 154t-153 236.5t-56 297.5q0 212 95 381.5t264 264.5t379 95q186 0 343.5 -78t258.5 -221l6 -8l-363 -238l-6 7q-82 114 -239 114q-135 0 -218 -87.5t-83 -229.5q0 -143 83 -231.5t218 -88.5q75 0 137 30t102 85l6 8l363 -239l-6 -9
q-102 -142 -259.5 -220.5t-342.5 -78.5zM797 1440q-205 0 -369.5 -92.5t-257 -258t-92.5 -372.5t92.5 -373t257 -259t369.5 -93q179 0 330.5 74.5t250.5 209.5l-331 220q-88 -117 -250 -117q-143 0 -231.5 93t-88.5 245q0 150 88.5 243t231.5 93q161 0 250 -115l331 219
q-98 135 -249.5 209t-331.5 74zM1188 1907l-252 -320h-328l-252 320h324l92 -125l90 125h326zM393 1888l223 -282h312l221 282h-277l-100 -137l-100 137h-279z" />
    <glyph glyph-name="ccaron" unicode="&#x10d;" horiz-adv-x="1073" 
d="M598 -27q-244 0 -401.5 155t-157.5 392q0 238 157.5 392.5t401.5 154.5q154 0 278 -64.5t199 -183.5l4 -8l-329 -201l-5 8q-48 76 -147 76q-78 0 -126 -48t-48 -126t48 -126t126 -48q98 0 147 78l5 6l329 -201l-4 -8q-75 -119 -199 -183.5t-278 -64.5zM598 1049
q-235 0 -389 -149.5t-154 -379.5q0 -150 70 -271t194.5 -189t278.5 -68q146 0 265.5 60.5t191.5 170.5l-299 183q-53 -78 -158 -78q-86 0 -139 53.5t-53 138.5q0 86 53 139.5t139 53.5q105 0 158 -78l299 182q-72 110 -191.5 171t-265.5 61zM993 1497l-252 -319h-327
l-252 319h323l93 -125l90 125h325zM199 1479l223 -283h311l221 283h-276l-100 -138l-101 138h-278z" />
    <glyph glyph-name="Dcaron" unicode="&#x10e;" horiz-adv-x="1490" 
d="M659 0h-546v1434h546q357 0 565 -193t208 -524t-208 -524t-565 -193zM131 1415v-1399h528q349 0 551.5 188.5t202.5 512.5q0 323 -202.5 510.5t-551.5 187.5h-528zM659 381h-129v672h129q169 0 261 -88t92 -248q0 -161 -92 -248.5t-261 -87.5zM549 1034v-637h110
q160 0 248 84t88 236q0 151 -88 234t-248 83h-110zM1124 1907l-252 -320h-327l-252 320h323l93 -125l90 125h325zM330 1888l223 -282h311l221 282h-276l-100 -137l-101 137h-278z" />
    <glyph glyph-name="dcaron" unicode="&#x10f;" horiz-adv-x="1449" 
d="M524 -27q-96 0 -177.5 32t-137 85t-95 124t-57.5 148.5t-18 157.5q0 102 30 197.5t87.5 174.5t152.5 127t215 48q166 0 260 -94v461h383v-1434h-383v68q-98 -95 -260 -95zM524 1049q-93 0 -171 -30.5t-131.5 -82t-91.5 -120t-55.5 -143.5t-17.5 -153q0 -98 29 -190
t84 -168.5t147 -123t207 -46.5q171 0 262 104l17 19v-99h346v1399h-346v-487l-17 16q-92 105 -262 105zM600 328q-87 0 -139.5 52.5t-52.5 139.5t52.5 140t139.5 53q85 0 138 -53.5t53 -139.5q0 -85 -53 -138.5t-138 -53.5zM600 694q-78 0 -127 -48t-49 -126t49 -126
t127 -48q77 0 125.5 48t48.5 126t-48.5 126t-125.5 48zM1692 1452l-174 -319h-273l119 319h328zM1376 1434l-104 -283h235l154 283h-285z" />
    <glyph glyph-name="Dcroat" unicode="&#x110;" horiz-adv-x="1533" 
d="M700 0h-546v653h-144v125h144v656h546q358 0 565.5 -192.5t207.5 -524.5t-207.5 -524.5t-565.5 -192.5zM172 672v-656h528q349 0 551.5 188.5t202.5 512.5q0 323 -202.5 510.5t-551.5 187.5h-528v-653h-143v-90h143zM700 381h-129v291h232v90h-232v291h129q169 0 262 -88
t93 -248q0 -161 -93 -248.5t-262 -87.5zM590 653v-256h110q160 0 248 84t88 236q0 151 -88 234t-248 83h-110v-256h231v-125h-231z" />
    <glyph glyph-name="dcroat" unicode="&#x111;" horiz-adv-x="1265" 
d="M526 -27q-121 0 -217 44t-153.5 117.5t-87 163t-29.5 187.5q0 80 18 157.5t57 148.5t95 124t138 85t179 32q155 0 258 -98v180h-229v127h229v193h381v-193h125v-127h-125v-1114h-381v70q-94 -97 -258 -97zM526 1014q-93 0 -172 -30.5t-132.5 -82.5t-91.5 -120.5
t-55.5 -143t-17.5 -152.5q0 -71 15 -138.5t50.5 -133t88.5 -114t134 -78t181 -29.5q171 0 260 106l15 21v-103h348v1117h125v90h-125v192h-348v-192h-228v-90h228v-248l-15 18q-92 111 -260 111zM598 293q-86 0 -139 53t-53 139t53 139.5t139 53.5q85 0 139 -54t54 -139
q0 -86 -54 -139t-139 -53zM598 659q-78 0 -126 -48t-48 -126t48 -126t126 -48t126 48t48 126t-48 126t-126 48z" />
    <glyph glyph-name="Emacron" unicode="&#x112;" horiz-adv-x="1159" 
d="M1092 362v-362h-981v1434h960v-363h-524v-176h461v-346h-461v-187h545zM129 1415v-1399h944v328h-543v223h459v312h-459v208h525v328h-926zM922 1872v-268h-643v268h643zM297 1855v-235h606v235h-606z" />
    <glyph glyph-name="emacron" unicode="&#x113;" horiz-adv-x="1167" 
d="M629 -27q-264 0 -426 150t-162 395q0 235 157.5 392t393.5 157q251 0 401 -170q164 -184 129 -477v-6l-706 -2q51 -138 213 -138q60 0 108 24.5t74 57.5l6 6l260 -155l-6 -6q-59 -105 -177.5 -166.5t-264.5 -61.5zM592 1049q-229 0 -382 -152t-153 -379
q0 -235 158 -380.5t414 -145.5q136 0 250.5 56.5t173.5 152.5l-232 139q-30 -35 -80.5 -59.5t-111.5 -24.5q-89 0 -150 42t-84 120l-2 12h713q28 283 -125 455q-70 79 -171 121.5t-218 42.5zM793 610l-400 -2l2 13q22 76 74 119.5t123 43.5q78 0 129 -42t70 -121zM592 768
q-63 0 -108.5 -36.5t-67.5 -104.5l354 2q-38 139 -178 139zM903 1462v-268h-643v268h643zM279 1446v-236h606v236h-606z" />
    <glyph glyph-name="Ebreve" unicode="&#x114;" horiz-adv-x="1159" 
d="M1092 362v-362h-981v1434h960v-363h-524v-176h461v-346h-461v-187h545zM129 1415v-1399h944v328h-543v223h459v312h-459v208h525v328h-926zM600 1561q-156 0 -251 90t-95 239v8h252v-8q0 -44 25.5 -70t68.5 -26q44 0 70 26t26 70v8h252v-8q0 -149 -95.5 -239t-252.5 -90z
M487 1880h-217q3 -138 92.5 -219.5t237.5 -81.5q149 0 239 81.5t91 219.5h-215q-3 -48 -33.5 -76t-81.5 -28q-49 0 -79.5 28t-33.5 76z" />
    <glyph glyph-name="ebreve" unicode="&#x115;" horiz-adv-x="1167" 
d="M629 -27q-264 0 -426 150t-162 395q0 235 157.5 392t393.5 157q251 0 401 -170q164 -184 129 -477v-6l-706 -2q51 -138 213 -138q60 0 108 24.5t74 57.5l6 6l260 -155l-6 -6q-59 -105 -177.5 -166.5t-264.5 -61.5zM592 1049q-229 0 -382 -152t-153 -379
q0 -235 158 -380.5t414 -145.5q136 0 250.5 56.5t173.5 152.5l-232 139q-30 -35 -80.5 -59.5t-111.5 -24.5q-89 0 -150 42t-84 120l-2 12h713q28 283 -125 455q-70 79 -171 121.5t-218 42.5zM793 610l-400 -2l2 13q22 76 74 119.5t123 43.5q78 0 129 -42t70 -121zM592 768
q-63 0 -108.5 -36.5t-67.5 -104.5l354 2q-38 139 -178 139zM582 1151q-156 0 -251 90.5t-95 239.5v8h251v-8q0 -44 26 -70.5t69 -26.5q44 0 70 26.5t26 70.5v8h252v-8q0 -149 -95.5 -239.5t-252.5 -90.5zM469 1470h-217q3 -138 92.5 -219.5t237.5 -81.5q149 0 238.5 81.5
t90.5 219.5h-215q-3 -48 -33.5 -76t-80.5 -28q-49 0 -79.5 28t-33.5 76z" />
    <glyph glyph-name="Edotaccent" unicode="&#x116;" horiz-adv-x="1159" 
d="M1092 362v-362h-981v1434h960v-363h-524v-176h461v-346h-461v-187h545zM129 1415v-1399h944v328h-543v223h459v312h-459v208h525v328h-926zM600 1554q-76 0 -130 54t-54 129q0 77 54 130.5t130 53.5t130 -53.5t54 -130.5q0 -75 -54 -129t-130 -54zM600 1905
q-69 0 -117.5 -49.5t-48.5 -118.5q0 -68 48.5 -117t117.5 -49t117.5 49t48.5 117q0 69 -48.5 118.5t-117.5 49.5z" />
    <glyph glyph-name="edotaccent" unicode="&#x117;" horiz-adv-x="1167" 
d="M629 -27q-264 0 -426 150t-162 395q0 235 157.5 392t393.5 157q251 0 401 -170q164 -184 129 -477v-6l-706 -2q51 -138 213 -138q60 0 108 24.5t74 57.5l6 6l260 -155l-6 -6q-59 -105 -177.5 -166.5t-264.5 -61.5zM592 1049q-229 0 -382 -152t-153 -379
q0 -235 158 -380.5t414 -145.5q136 0 250.5 56.5t173.5 152.5l-232 139q-30 -35 -80.5 -59.5t-111.5 -24.5q-89 0 -150 42t-84 120l-2 12h713q28 283 -125 455q-70 79 -171 121.5t-218 42.5zM793 610l-400 -2l2 13q22 76 74 119.5t123 43.5q78 0 129 -42t70 -121zM592 768
q-63 0 -108.5 -36.5t-67.5 -104.5l354 2q-38 139 -178 139zM584 1145q-76 0 -130.5 53.5t-54.5 128.5q0 76 54 130t131 54q76 0 130 -53.5t54 -130.5q0 -75 -54 -128.5t-130 -53.5zM584 1495q-69 0 -117.5 -49.5t-48.5 -118.5q0 -68 48.5 -117t117.5 -49t117.5 49t48.5 117
q0 69 -48.5 118.5t-117.5 49.5z" />
    <glyph glyph-name="Eogonek" unicode="&#x118;" horiz-adv-x="1159" 
d="M909 -496q-126 0 -196 56.5t-70 156.5q0 85 48.5 158.5t119.5 124.5h-700v1434h960v-363h-524v-176h459v-346h-459v-187h543v-360l-7 -2q-63 -31 -110 -80t-47 -104q0 -44 25 -67t71 -23q23 0 55 8l13 6v-203l-7 -2q-79 -31 -174 -31zM127 1415v-1399h747l-28 -16
q-75 -44 -131 -120t-56 -163q0 -92 66.5 -143t183.5 -51q94 0 162 26v164q-21 -6 -49 -6q-54 0 -84.5 29t-30.5 80q0 59 47.5 111t116.5 87v330h-543v223h461v312h-461v208h525v328h-926z" />
    <glyph glyph-name="eogonek" unicode="&#x119;" horiz-adv-x="1165" 
d="M637 -496q-126 0 -196 56.5t-70 156.5q0 86 44.5 153.5t100.5 111.5q-218 32 -347.5 177t-129.5 359q0 154 72 280t198.5 197.5t280.5 71.5q122 0 226 -43.5t177 -126.5q161 -185 127 -477v-6l-704 -2q48 -138 211 -138q60 0 108 24.5t74 57.5l6 6l260 -155l-4 -6
q-40 -69 -109.5 -122t-156.5 -79q-61 -30 -106.5 -79.5t-45.5 -104.5q0 -44 25.5 -67t71.5 -23q23 0 55 8l12 4v-201l-6 -2q-79 -31 -174 -31zM590 1049q-227 0 -380 -152t-153 -379q0 -212 131.5 -353.5t352.5 -166.5l22 -4l-18 -12q-23 -17 -45 -38.5t-49.5 -55.5
t-44.5 -79t-17 -92q0 -92 65.5 -143t182.5 -51q94 0 162 26v164q-21 -6 -49 -6q-54 0 -83.5 29t-29.5 80q0 61 48 114.5t112 85.5q174 54 254 185l-232 139q-30 -35 -80 -59.5t-112 -24.5q-89 0 -149 42t-83 120l-4 12h713q28 283 -125 455q-70 79 -171 121.5t-218 42.5z
M791 610l-400 -2l2 13q23 77 75 120t122 43q78 0 128.5 -41.5t69.5 -121.5zM590 768q-62 0 -107 -37t-67 -104l352 2q-14 59 -56.5 99t-121.5 40z" />
    <glyph glyph-name="Ecaron" unicode="&#x11a;" horiz-adv-x="1159" 
d="M1092 362v-362h-981v1434h960v-363h-524v-176h461v-346h-461v-187h545zM129 1415v-1399h944v328h-543v223h459v312h-459v208h525v328h-926zM1016 1907l-252 -320h-328l-252 320h324l92 -125l90 125h326zM221 1888l223 -282h312l221 282h-277l-100 -137l-100 137h-279z
" />
    <glyph glyph-name="ecaron" unicode="&#x11b;" horiz-adv-x="1167" 
d="M629 -27q-264 0 -426 150t-162 395q0 235 157.5 392t393.5 157q251 0 401 -170q164 -184 129 -477v-6l-706 -2q51 -138 213 -138q60 0 108 24.5t74 57.5l6 6l260 -155l-6 -6q-59 -105 -177.5 -166.5t-264.5 -61.5zM592 1049q-229 0 -382 -152t-153 -379
q0 -235 158 -380.5t414 -145.5q136 0 250.5 56.5t173.5 152.5l-232 139q-30 -35 -80.5 -59.5t-111.5 -24.5q-89 0 -150 42t-84 120l-2 12h713q28 283 -125 455q-70 79 -171 121.5t-218 42.5zM793 610l-400 -2l2 13q22 76 74 119.5t123 43.5q78 0 129 -42t70 -121zM592 768
q-63 0 -108.5 -36.5t-67.5 -104.5l354 2q-38 139 -178 139zM999 1497l-251 -319h-328l-252 319h324l92 -125l90 125h325zM205 1479l223 -283h311l222 283h-277l-100 -138l-101 138h-278z" />
    <glyph glyph-name="Gcircumflex" unicode="&#x11c;" horiz-adv-x="1576" 
d="M799 -27q-157 0 -294.5 56t-234.5 154t-153 236.5t-56 297.5q0 212 95 381.5t264 264.5t379 95q186 0 343.5 -78t258.5 -221l6 -8l-363 -238l-6 7q-82 114 -239 114q-135 0 -218 -87.5t-83 -229.5q0 -64 20 -124t56.5 -108t95 -77t129.5 -29q199 0 266 147h-311v310h731
v-836h-199l-45 164q-162 -191 -442 -191zM799 1440q-205 0 -369.5 -92.5t-257 -258t-92.5 -372.5t92.5 -373t257 -259t369.5 -93q284 0 440 196l10 15l49 -187h170v803h-696v-274h320l-5 -13q-70 -172 -288 -172q-76 0 -137.5 31t-100 82t-59.5 114t-21 130
q0 151 87.5 243.5t230.5 92.5q161 0 250 -115l331 219q-98 135 -249.5 209t-331.5 74zM961 1907l249 -320h-323l-90 125l-92 -125h-324l252 320h328zM797 1743l100 -137h277l-222 282h-311l-223 -282h278z" />
    <glyph glyph-name="gcircumflex" unicode="&#x11d;" horiz-adv-x="1265" 
d="M580 -410q-171 0 -309.5 62.5t-198.5 165.5l-4 8l282 170q26 -39 83.5 -65.5t129.5 -26.5q66 0 110.5 15.5t68 47.5t32.5 70t10 94q-93 -84 -258 -84q-215 0 -351 142t-136 368q0 78 18 151t57 138.5t95 114.5t137.5 77.5t179.5 28.5q162 0 258 -90v65h383v-944
q0 -235 -158 -371.5t-429 -136.5zM346 -29l-254 -151q58 -97 191 -154t297 -57q264 0 416.5 131t152.5 358v926h-346v-92l-17 18q-92 99 -260 99q-117 0 -209 -42t-147.5 -112.5t-84 -156.5t-28.5 -181q0 -92 29 -178t84 -157.5t147.5 -115t208.5 -43.5q168 0 260 95l17 16
v-39q0 -42 -4.5 -74t-19.5 -66.5t-40 -57.5t-70 -37.5t-106 -14.5q-73 0 -131.5 25.5t-85.5 60.5zM598 365q-86 0 -138 53t-52 139q0 87 52 140t138 53q88 0 140.5 -52.5t52.5 -140.5t-52.5 -140t-140.5 -52zM598 731q-77 0 -125.5 -48t-48.5 -126t48.5 -126t125.5 -48
q80 0 128 47.5t48 126.5q0 80 -47.5 127t-128.5 47zM786 1497l250 -319h-323l-90 125l-93 -125h-323l252 319h327zM623 1333l100 -137h276l-221 283h-311l-223 -283h278z" />
    <glyph glyph-name="Gbreve" unicode="&#x11e;" horiz-adv-x="1576" 
d="M799 -27q-157 0 -294.5 56t-234.5 154t-153 236.5t-56 297.5q0 212 95 381.5t264 264.5t379 95q186 0 343.5 -78t258.5 -221l6 -8l-363 -238l-6 7q-82 114 -239 114q-135 0 -218 -87.5t-83 -229.5q0 -64 20 -124t56.5 -108t95 -77t129.5 -29q199 0 266 147h-311v310h731
v-836h-199l-45 164q-162 -191 -442 -191zM799 1440q-205 0 -369.5 -92.5t-257 -258t-92.5 -372.5t92.5 -373t257 -259t369.5 -93q284 0 440 196l10 15l49 -187h170v803h-696v-274h320l-5 -13q-70 -172 -288 -172q-76 0 -137.5 31t-100 82t-59.5 114t-21 130
q0 151 87.5 243.5t230.5 92.5q161 0 250 -115l331 219q-98 135 -249.5 209t-331.5 74zM797 1561q-156 0 -251 90t-95 239v8h251v-8q0 -44 26 -70t69 -26q44 0 70 26t26 70v8h252v-8q0 -149 -95.5 -239t-252.5 -90zM684 1880h-217q3 -138 92.5 -219.5t237.5 -81.5
q149 0 238.5 81.5t90.5 219.5h-215q-3 -48 -33.5 -76t-80.5 -28q-49 0 -79.5 28t-33.5 76z" />
    <glyph glyph-name="gbreve" unicode="&#x11f;" horiz-adv-x="1265" 
d="M580 -410q-171 0 -309.5 62.5t-198.5 165.5l-4 8l282 170q26 -39 83.5 -65.5t129.5 -26.5q66 0 110.5 15.5t68 47.5t32.5 70t10 94q-93 -84 -258 -84q-215 0 -351 142t-136 368q0 78 18 151t57 138.5t95 114.5t137.5 77.5t179.5 28.5q162 0 258 -90v65h383v-944
q0 -235 -158 -371.5t-429 -136.5zM346 -29l-254 -151q58 -97 191 -154t297 -57q264 0 416.5 131t152.5 358v926h-346v-92l-17 18q-92 99 -260 99q-117 0 -209 -42t-147.5 -112.5t-84 -156.5t-28.5 -181q0 -92 29 -178t84 -157.5t147.5 -115t208.5 -43.5q168 0 260 95l17 16
v-39q0 -42 -4.5 -74t-19.5 -66.5t-40 -57.5t-70 -37.5t-106 -14.5q-73 0 -131.5 25.5t-85.5 60.5zM598 365q-86 0 -138 53t-52 139q0 87 52 140t138 53q88 0 140.5 -52.5t52.5 -140.5t-52.5 -140t-140.5 -52zM598 731q-77 0 -125.5 -48t-48.5 -126t48.5 -126t125.5 -48
q80 0 128 47.5t48 126.5q0 80 -47.5 127t-128.5 47zM621 1151q-156 0 -251.5 90.5t-95.5 239.5v8h252v-8q0 -44 26 -70.5t69 -26.5q44 0 70 26.5t26 70.5v8h252v-8q0 -149 -95.5 -239.5t-252.5 -90.5zM508 1470h-217q3 -138 92.5 -219.5t237.5 -81.5q149 0 238.5 81.5
t90.5 219.5h-215q-3 -48 -33.5 -76t-80.5 -28q-49 0 -79.5 28t-33.5 76z" />
    <glyph glyph-name="Gdotaccent" unicode="&#x120;" horiz-adv-x="1576" 
d="M799 -27q-157 0 -294.5 56t-234.5 154t-153 236.5t-56 297.5q0 212 95 381.5t264 264.5t379 95q186 0 343.5 -78t258.5 -221l6 -8l-363 -238l-6 7q-82 114 -239 114q-135 0 -218 -87.5t-83 -229.5q0 -64 20 -124t56.5 -108t95 -77t129.5 -29q199 0 266 147h-311v310h731
v-836h-199l-45 164q-162 -191 -442 -191zM799 1440q-205 0 -369.5 -92.5t-257 -258t-92.5 -372.5t92.5 -373t257 -259t369.5 -93q284 0 440 196l10 15l49 -187h170v803h-696v-274h320l-5 -13q-70 -172 -288 -172q-76 0 -137.5 31t-100 82t-59.5 114t-21 130
q0 151 87.5 243.5t230.5 92.5q161 0 250 -115l331 219q-98 135 -249.5 209t-331.5 74zM778 1554q-76 0 -130 54t-54 129q0 77 54 130.5t130 53.5q77 0 131 -54t54 -130q0 -75 -54.5 -129t-130.5 -54zM778 1905q-69 0 -117.5 -49.5t-48.5 -118.5q0 -68 48.5 -117t117.5 -49
t117.5 49t48.5 117q0 69 -48.5 118.5t-117.5 49.5z" />
    <glyph glyph-name="gdotaccent" unicode="&#x121;" horiz-adv-x="1265" 
d="M580 -410q-171 0 -309.5 62.5t-198.5 165.5l-4 8l282 170q26 -39 83.5 -65.5t129.5 -26.5q66 0 110.5 15.5t68 47.5t32.5 70t10 94q-93 -84 -258 -84q-215 0 -351 142t-136 368q0 78 18 151t57 138.5t95 114.5t137.5 77.5t179.5 28.5q162 0 258 -90v65h383v-944
q0 -235 -158 -371.5t-429 -136.5zM346 -29l-254 -151q58 -97 191 -154t297 -57q264 0 416.5 131t152.5 358v926h-346v-92l-17 18q-92 99 -260 99q-117 0 -209 -42t-147.5 -112.5t-84 -156.5t-28.5 -181q0 -92 29 -178t84 -157.5t147.5 -115t208.5 -43.5q168 0 260 95l17 16
v-39q0 -42 -4.5 -74t-19.5 -66.5t-40 -57.5t-70 -37.5t-106 -14.5q-73 0 -131.5 25.5t-85.5 60.5zM598 365q-86 0 -138 53t-52 139q0 87 52 140t138 53q88 0 140.5 -52.5t52.5 -140.5t-52.5 -140t-140.5 -52zM598 731q-77 0 -125.5 -48t-48.5 -126t48.5 -126t125.5 -48
q80 0 128 47.5t48 126.5q0 80 -47.5 127t-128.5 47zM623 1145q-76 0 -130.5 53.5t-54.5 128.5q0 76 54 130t131 54t130.5 -53.5t53.5 -130.5q0 -75 -54 -128.5t-130 -53.5zM623 1495q-69 0 -117.5 -49.5t-48.5 -118.5q0 -68 48.5 -117t117.5 -49t117 49t48 117
q0 69 -48 118.5t-117 49.5z" />
    <glyph glyph-name="Gcommaaccent" unicode="&#x122;" horiz-adv-x="1576" 
d="M799 -27q-157 0 -294.5 56t-234.5 154t-153 236.5t-56 297.5q0 212 95 381.5t264 264.5t379 95q186 0 343.5 -78t258.5 -221l6 -8l-363 -238l-6 7q-82 114 -239 114q-135 0 -218 -87.5t-83 -229.5q0 -64 20 -124t56.5 -108t95 -77t129.5 -29q199 0 266 147h-311v310h731
v-836h-199l-45 164q-162 -191 -442 -191zM799 1440q-205 0 -369.5 -92.5t-257 -258t-92.5 -372.5t92.5 -373t257 -259t369.5 -93q284 0 440 196l10 15l49 -187h170v803h-696v-274h320l-5 -13q-70 -172 -288 -172q-76 0 -137.5 31t-100 82t-59.5 114t-21 130
q0 151 87.5 243.5t230.5 92.5q161 0 250 -115l331 219q-98 135 -249.5 209t-331.5 74zM965 -129l-174 -320h-273l119 320h328zM649 -147l-104 -283h235l154 283h-285z" />
    <glyph glyph-name="gcommaaccent" unicode="&#x123;" horiz-adv-x="1265" 
d="M580 -410q-171 0 -309.5 62.5t-198.5 165.5l-4 8l282 170q26 -39 83.5 -65.5t129.5 -26.5q66 0 110.5 15.5t68 47.5t32.5 70t10 94q-93 -84 -258 -84q-215 0 -351 142t-136 368q0 78 18 151t57 138.5t95 114.5t137.5 77.5t179.5 28.5q162 0 258 -90v65h383v-944
q0 -235 -158 -371.5t-429 -136.5zM346 -29l-254 -151q58 -97 191 -154t297 -57q264 0 416.5 131t152.5 358v926h-346v-92l-17 18q-92 99 -260 99q-117 0 -209 -42t-147.5 -112.5t-84 -156.5t-28.5 -181q0 -92 29 -178t84 -157.5t147.5 -115t208.5 -43.5q168 0 260 95l17 16
v-39q0 -42 -4.5 -74t-19.5 -66.5t-40 -57.5t-70 -37.5t-106 -14.5q-73 0 -131.5 25.5t-85.5 60.5zM598 365q-86 0 -138 53t-52 139q0 87 52 140t138 53q88 0 140.5 -52.5t52.5 -140.5t-52.5 -140t-140.5 -52zM598 731q-77 0 -125.5 -48t-48.5 -126t48.5 -126t125.5 -48
q80 0 128 47.5t48 126.5q0 80 -47.5 127t-128.5 47zM434 1165l174 320h273l-119 -320h-328zM750 1184l104 282h-236l-153 -282h285z" />
    <glyph glyph-name="Hcircumflex" unicode="&#x124;" horiz-adv-x="1519" 
d="M1409 1434v-1434h-436v526h-424v-526h-436v1434h436v-514h424v514h436zM991 545v-529h400v1399h-400v-514h-461v514h-399v-1399h399v529h461zM924 1907l250 -320h-324l-90 125l-92 -125h-324l252 320h328zM760 1743l100 -137h277l-222 282h-311l-223 -282h278z" />
    <glyph glyph-name="hcircumflex" unicode="&#x125;" horiz-adv-x="1239" 
d="M1139 649v-649h-383v561q0 58 -38 94.5t-100 36.5q-61 0 -99 -36t-38 -95v-561h-381v1434h381v-484q99 117 273 117q73 0 133 -18.5t99 -47t68.5 -68.5t45 -78t25 -81t12 -71t2.5 -54zM774 561v-545h346v633q0 30 -3 60.5t-12.5 71.5t-24.5 76.5t-43.5 72t-65.5 62
t-93 41.5t-124 16q-182 0 -273 -129l-16 -23v518h-348v-1399h348v545q0 66 43 108t110 42q69 0 112.5 -42t43.5 -108zM741 1907l250 -320h-323l-90 125l-93 -125h-323l252 320h327zM578 1743l100 -137h276l-221 282h-311l-223 -282h278z" />
    <glyph glyph-name="Hbar" unicode="&#x126;" horiz-adv-x="1605" 
d="M1450 1087v-1087h-436v526h-424v-526h-436v1087h-144v125h144v222h436v-222h424v222h436v-222h143v-125h-143zM1032 545v-529h402v1090h141v90h-141v219h-402v-219h-459v219h-401v-219h-143v-90h143v-1090h401v529h459zM1032 1106v-205h-459v205h459zM590 1087v-167h424
v167h-424z" />
    <glyph glyph-name="hbar" unicode="&#x127;" horiz-adv-x="1239" 
d="M1139 614v-614h-383v524q0 60 -38 95.5t-100 35.5t-99.5 -35.5t-37.5 -95.5v-524h-381v1114h-125v127h125v193h381v-193h230v-127h-230v-199q102 117 273 117q73 0 133 -18.5t99 -47t68.5 -68.5t45 -78t25 -81t12 -71t2.5 -54zM774 524v-508h346v598q0 30 -3 60t-12.5 71
t-24.5 76.5t-43.5 72t-65.5 62.5t-93 42t-124 16q-180 0 -273 -131l-16 -23v273h227v90h-227v192h-348v-192h-125v-90h125v-1117h348v508q0 66 43 108t110 42q69 0 112.5 -42t43.5 -108z" />
    <glyph glyph-name="Itilde" unicode="&#x128;" horiz-adv-x="649" 
d="M543 1434v-1434h-437v1434h437zM125 1415v-1399h399v1399h-399zM481 1565q-61 0 -159 39q-62 20 -76 20q-41 0 -43 -49v-10l-240 43v8q34 258 223 258q45 0 121 -33q61 -26 94 -26q42 0 45 49v10l238 -41v-10q-15 -134 -63.5 -196t-139.5 -62zM246 1642q22 0 82 -22
q104 -37 153 -37q80 0 125 56.5t60 177.5l-203 36q-9 -57 -62 -57q-27 0 -100 29q-76 33 -115 33q-172 0 -202 -236l200 -35q10 55 62 55z" />
    <glyph glyph-name="itilde" unicode="&#x129;" 
d="M479 1042v-1042h-383v1042h383zM115 1024v-1008h346v1008h-346zM444 1155q-62 0 -159 39q-62 20 -76 20q-41 0 -43 -49v-10l-240 43v8q34 258 224 258q46 0 120 -32q64 -27 95 -27q42 0 45 49v10l237 -41v-10q-15 -134 -63.5 -196t-139.5 -62zM209 1233q19 0 82 -23
q101 -36 153 -36q80 0 125 56t60 177l-203 37q-9 -58 -61 -58q-28 0 -101 29q-76 33 -114 33q-173 0 -203 -236l200 -34q10 55 62 55z" />
    <glyph glyph-name="Imacron" unicode="&#x12a;" horiz-adv-x="649" 
d="M543 1434v-1434h-437v1434h437zM125 1415v-1399h399v1399h-399zM645 1872v-268h-643v268h643zM20 1855v-235h607v235h-607z" />
    <glyph glyph-name="imacron" unicode="&#x12b;" 
d="M479 1042v-1042h-383v1042h383zM115 1024v-1008h346v1008h-346zM608 1462v-268h-643v268h643zM-16 1446v-236h606v236h-606z" />
    <glyph glyph-name="Ibreve" unicode="&#x12c;" horiz-adv-x="649" 
d="M543 1434v-1434h-437v1434h437zM125 1415v-1399h399v1399h-399zM324 1561q-156 0 -251.5 90t-95.5 239v8h252v-8q0 -44 26 -70t69 -26q44 0 70 26t26 70v8h252v-8q0 -149 -95.5 -239t-252.5 -90zM211 1880h-217q3 -138 92.5 -219.5t237.5 -81.5q149 0 238.5 81.5
t90.5 219.5h-215q-3 -48 -33.5 -76t-80.5 -28q-49 0 -79.5 28t-33.5 76z" />
    <glyph glyph-name="ibreve" unicode="&#x12d;" 
d="M479 1042v-1042h-383v1042h383zM115 1024v-1008h346v1008h-346zM287 1151q-156 0 -251 90.5t-95 239.5v8h252v-8q0 -44 25.5 -70.5t68.5 -26.5q44 0 70 26.5t26 70.5v8h252v-8q0 -149 -95.5 -239.5t-252.5 -90.5zM174 1470h-217q3 -138 92.5 -219.5t237.5 -81.5
q149 0 238.5 81.5t90.5 219.5h-215q-3 -48 -33.5 -76t-80.5 -28q-49 0 -79.5 28t-33.5 76z" />
    <glyph glyph-name="Iogonek" unicode="&#x12e;" horiz-adv-x="649" 
d="M360 -496q-125 0 -195.5 56.5t-70.5 156.5q0 85 49 159t121 124h-160v1434h439v-1432l-6 -2q-63 -31 -110.5 -80t-47.5 -104q0 -44 25 -67t71 -23q23 0 55 8l13 4v-201l-6 -2q-79 -31 -177 -31zM123 1415v-1399h203l-27 -16q-75 -44 -130.5 -119.5t-55.5 -163.5
q0 -92 65 -143t182 -51q96 0 164 26v164q-24 -6 -49 -6q-54 0 -84.5 29t-30.5 80q0 59 47.5 111t116.5 87v1401h-401z" />
    <glyph glyph-name="iogonek" unicode="&#x12f;" 
d="M297 -496q-126 0 -196 56.5t-70 156.5q0 85 48.5 158.5t119.5 124.5h-105v1042h383v-1040l-4 -2q-64 -30 -112 -79.5t-48 -104.5q0 -44 25.5 -67t71.5 -23q23 0 55 8l12 4v-201l-6 -2q-79 -31 -174 -31zM113 1024v-1008h149l-29 -16q-74 -44 -129 -119.5t-55 -163.5
q0 -92 65.5 -143t182.5 -51q94 0 162 26v164q-21 -6 -49 -6q-54 0 -83.5 29t-29.5 80q0 60 47 111.5t115 86.5v1010h-346zM287 1122q-83 0 -141 58t-58 141q0 82 58 140.5t141 58.5q82 0 140 -58.5t58 -140.5q0 -83 -58 -141t-140 -58zM287 1501q-75 0 -128 -53t-53 -127
q0 -75 53 -127.5t128 -52.5q74 0 127 52.5t53 127.5q0 73 -53.5 126.5t-126.5 53.5z" />
    <glyph glyph-name="Idotaccent" unicode="&#x130;" horiz-adv-x="649" 
d="M543 1434v-1434h-437v1434h437zM125 1415v-1399h399v1399h-399zM326 1554q-76 0 -130.5 54t-54.5 129q0 76 54 130t131 54q76 0 130 -53.5t54 -130.5q0 -75 -54 -129t-130 -54zM326 1905q-69 0 -117.5 -49.5t-48.5 -118.5q0 -68 48.5 -117t117.5 -49t117.5 49t48.5 117
q0 69 -48.5 118.5t-117.5 49.5z" />
    <glyph glyph-name="dotlessi" unicode="&#x131;" 
d="M479 1042v-1042h-383v1042h383zM115 1024v-1008h346v1008h-346z" />
    <glyph glyph-name="IJ" unicode="&#x132;" horiz-adv-x="1871" 
d="M543 1434v-1434h-437v1434h437zM125 1415v-1399h399v1399h-399zM1198 -27q-238 0 -396.5 135.5t-164.5 342.5v8l410 76v-11q5 -50 41 -88.5t102 -38.5q133 0 133 160v877h436v-877q0 -294 -139.5 -439t-421.5 -145zM1030 514l-375 -72q9 -198 160.5 -324t382.5 -126
q275 0 409 140t134 425v858h-400v-858q0 -86 -39 -132t-112 -46q-72 0 -111.5 39.5t-48.5 95.5z" />
    <glyph glyph-name="ij" unicode="&#x133;" horiz-adv-x="1161" 
d="M479 1042v-1042h-383v1042h383zM115 1024v-1008h346v1008h-346zM287 1122q-82 0 -139.5 58t-57.5 141q0 82 57.5 140.5t139.5 58.5q83 0 140.5 -58.5t57.5 -140.5q0 -83 -57.5 -141t-140.5 -58zM287 1501q-74 0 -127.5 -53.5t-53.5 -126.5q0 -75 53.5 -127.5t127.5 -52.5
q75 0 128.5 52.5t53.5 127.5q0 74 -53.5 127t-128.5 53zM682 -373q-82 0 -160 19l-6 2v342q29 -7 59 -5t54 10.5t39.5 39t15.5 82.5v925h383v-997q0 -202 -99.5 -310t-285.5 -108zM532 -31v-307q70 -18 150 -18q87 0 154 24.5t106.5 63.5t64.5 93.5t33.5 107t8.5 112.5v979
h-347v-907q0 -46 -11.5 -77.5t-30 -45.5t-41.5 -21.5t-45 -5.5t-42 2zM874 1122q-82 0 -139 58t-57 141q0 82 57.5 140.5t138.5 58.5q83 0 141 -58.5t58 -140.5q0 -83 -58 -141t-141 -58zM874 1501q-74 0 -127 -53.5t-53 -126.5q0 -75 53 -127.5t127 -52.5q75 0 129 52.5
t54 127.5q0 74 -54 127t-129 53z" />
    <glyph glyph-name="Jcircumflex" unicode="&#x134;" horiz-adv-x="1253" 
d="M580 -27q-238 0 -397 135.5t-165 342.5v8l410 76v-11q5 -50 41 -88.5t102 -38.5q40 0 67.5 14.5t41.5 39t19.5 50.5t5.5 56v877h436v-877q0 -294 -139.5 -439t-421.5 -145zM412 514l-375 -72q9 -198 160.5 -324t382.5 -126q275 0 408.5 140t133.5 425v858h-399v-858
q0 -86 -39 -132t-113 -46q-72 0 -111 39t-48 96zM1071 1907l250 -320h-324l-90 125l-92 -125h-323l251 320h328zM907 1743l101 -137h276l-221 282h-311l-224 -282h279z" />
    <glyph glyph-name="jcircumflex" unicode="&#x135;" 
d="M94 -373q-82 0 -160 19l-6 2v342q29 -7 59 -5t54 10.5t39.5 39t15.5 82.5v925h383v-997q0 -202 -99.5 -310t-285.5 -108zM-55 -31v-307q71 -18 149 -18q87 0 154 24.5t106.5 63.5t64.5 93.5t33.5 107t8.5 112.5v979h-346v-907q0 -46 -11.5 -77.5t-30 -45.5t-41.5 -21.5
t-45 -5.5t-42 2zM442 1497l250 -319h-323l-90 125l-93 -125h-323l252 319h327zM279 1333l100 -137h276l-221 283h-311l-223 -283h278z" />
    <glyph glyph-name="Kcommaaccent" unicode="&#x136;" horiz-adv-x="1409" 
d="M936 731l469 -731h-498l-362 604v-604h-436v1434h436v-598l346 598h479zM526 670l392 -654h452l-455 715l422 684h-436l-375 -645v645h-401v-1399h401v654zM881 -129l-174 -320h-273l119 320h328zM565 -147l-104 -283h235l154 283h-285z" />
    <glyph glyph-name="kcommaaccent" unicode="&#x137;" horiz-adv-x="1167" 
d="M819 545l344 -545h-442l-242 416v-416h-381v1434h381v-785l234 393h424zM463 483l268 -467h399l-331 529l305 479h-381l-260 -440v831h-348v-1399h348v467zM776 -129l-174 -320h-272l119 320h327zM461 -147l-105 -283h236l153 283h-284z" />
    <glyph glyph-name="kgreenlandic" unicode="&#x138;" horiz-adv-x="1167" 
d="M819 545l344 -545h-442l-242 416v-416h-381v1042h381v-393l234 393h424zM463 483l268 -467h399l-331 529l305 479h-381l-260 -440v440h-348v-1008h348v467z" />
    <glyph glyph-name="Lacute" unicode="&#x139;" horiz-adv-x="1122" 
d="M1075 397v-397h-964v1434h436v-1037h528zM129 1415v-1399h928v365h-529v1034h-399zM696 1907l-221 -320h-311l147 320h385zM324 1888l-134 -282h275l197 282h-338z" />
    <glyph glyph-name="lacute" unicode="&#x13a;" 
d="M477 1434v-1434h-381v1434h381zM113 1415v-1399h348v1399h-348zM666 1907l-222 -320h-311l148 320h385zM293 1888l-133 -282h274l197 282h-338z" />
    <glyph glyph-name="Lcommaaccent" unicode="&#x13b;" horiz-adv-x="1122" 
d="M1075 397v-397h-964v1434h436v-1037h528zM129 1415v-1399h928v365h-529v1034h-399zM799 -129l-174 -320h-273l119 320h328zM483 -147l-104 -283h235l154 283h-285z" />
    <glyph glyph-name="lcommaaccent" unicode="&#x13c;" 
d="M477 1434v-1434h-381v1434h381zM113 1415v-1399h348v1399h-348zM455 -129l-174 -320h-273l119 320h328zM139 -147l-104 -283h235l154 283h-285z" />
    <glyph glyph-name="Lcaron" unicode="&#x13d;" horiz-adv-x="1122" 
d="M1075 397v-397h-964v1434h436v-1037h528zM129 1415v-1399h928v365h-529v1034h-399zM1065 1452l-174 -319h-273l119 319h328zM750 1434l-105 -283h236l153 283h-284z" />
    <glyph glyph-name="lcaron" unicode="&#x13e;" horiz-adv-x="757" 
d="M477 1434v-1434h-381v1434h381zM113 1415v-1399h348v1399h-348zM999 1452l-174 -319h-272l119 319h327zM684 1434l-104 -283h235l154 283h-285z" />
    <glyph glyph-name="Ldot" unicode="&#x13f;" horiz-adv-x="1122" 
d="M860 592q-78 0 -133 55t-55 133q0 77 55 132t133 55q76 0 131.5 -55.5t55.5 -131.5q0 -78 -55 -133t-132 -55zM860 950q-70 0 -120 -50.5t-50 -119.5q0 -70 50 -120t120 -50q69 0 119.5 50t50.5 120q0 69 -50.5 119.5t-119.5 50.5zM1075 397v-397h-964v1434h436v-1037
h528zM129 1415v-1399h928v365h-529v1034h-399z" />
    <glyph glyph-name="ldot" unicode="&#x140;" horiz-adv-x="964" 
d="M774 520q-78 0 -133 55.5t-55 133.5q0 77 55 131.5t133 54.5t133.5 -54.5t55.5 -131.5q0 -78 -55.5 -133.5t-133.5 -55.5zM774 879q-70 0 -120 -50.5t-50 -119.5q0 -71 50 -120.5t120 -49.5t120 49.5t50 120.5q0 69 -50 119.5t-120 50.5zM477 1434v-1434h-381v1434h381z
M113 1415v-1399h348v1399h-348z" />
    <glyph glyph-name="Lslash" unicode="&#x141;" horiz-adv-x="1189" 
d="M1141 397v-397h-965v530l-129 -73l-61 110l190 107v760h436v-514l181 100l61 -109l-242 -135v-379h529zM195 561v-545h927v365h-526v405l233 132l-43 77l-190 -106v526h-401v-751l-185 -105l43 -78z" />
    <glyph glyph-name="lslash" unicode="&#x142;" horiz-adv-x="729" 
d="M555 760v-760h-383v526l-106 -63l-66 108l172 103v760h383v-527l104 64l66 -109zM190 559v-543h347v754l163 98l-47 78l-116 -72v541h-347v-751l-165 -99l47 -78z" />
    <glyph glyph-name="Nacute" unicode="&#x143;" horiz-adv-x="1515" 
d="M1405 1434v-1434h-389l-467 731v-731h-436v1434h387l469 -734v734h436zM530 793l496 -777h360v1399h-399v-776l-498 776h-360v-1399h401v777zM1108 1907l-221 -320h-312l148 320h385zM735 1888l-133 -282h275l196 282h-338z" />
    <glyph glyph-name="nacute" unicode="&#x144;" horiz-adv-x="1236" 
d="M1139 649v-649h-383v561q0 58 -38 94.5t-100 36.5q-61 0 -98 -36t-37 -95v-561h-383v1042h383v-92q95 117 271 117q73 0 133 -18.5t99 -47t68.5 -68.5t45 -78t25 -81t12 -71t2.5 -54zM774 561v-545h346v633q0 31 -2.5 61t-12 71t-25 76.5t-43.5 72t-65 62t-93.5 41.5
t-124.5 16q-182 0 -273 -129l-16 -23v127h-346v-1008h346v545q0 66 43 108t110 42q69 0 112.5 -42t43.5 -108zM928 1497l-221 -319h-312l148 319h385zM555 1479l-133 -283h274l197 283h-338z" />
    <glyph glyph-name="Ncommaaccent" unicode="&#x145;" horiz-adv-x="1515" 
d="M1405 1434v-1434h-389l-467 731v-731h-436v1434h387l469 -734v734h436zM530 793l496 -777h360v1399h-399v-776l-498 776h-360v-1399h401v777zM965 -129l-174 -320h-273l119 320h328zM649 -147l-104 -283h235l154 283h-285z" />
    <glyph glyph-name="ncommaaccent" unicode="&#x146;" horiz-adv-x="1236" 
d="M1139 649v-649h-383v561q0 58 -38 94.5t-100 36.5q-61 0 -98 -36t-37 -95v-561h-383v1042h383v-92q95 117 271 117q73 0 133 -18.5t99 -47t68.5 -68.5t45 -78t25 -81t12 -71t2.5 -54zM774 561v-545h346v633q0 31 -2.5 61t-12 71t-25 76.5t-43.5 72t-65 62t-93.5 41.5
t-124.5 16q-182 0 -273 -129l-16 -23v127h-346v-1008h346v545q0 66 43 108t110 42q69 0 112.5 -42t43.5 -108zM784 -129l-174 -320h-272l119 320h327zM469 -147l-104 -283h235l154 283h-285z" />
    <glyph glyph-name="Ncaron" unicode="&#x147;" horiz-adv-x="1515" 
d="M1405 1434v-1434h-389l-467 731v-731h-436v1434h387l469 -734v734h436zM530 793l496 -777h360v1399h-399v-776l-498 776h-360v-1399h401v777zM1174 1907l-252 -320h-328l-252 320h324l92 -125l90 125h326zM379 1888l223 -282h311l222 282h-277l-100 -137l-101 137h-278z
" />
    <glyph glyph-name="ncaron" unicode="&#x148;" horiz-adv-x="1236" 
d="M1139 649v-649h-383v561q0 58 -38 94.5t-100 36.5q-61 0 -98 -36t-37 -95v-561h-383v1042h383v-92q95 117 271 117q73 0 133 -18.5t99 -47t68.5 -68.5t45 -78t25 -81t12 -71t2.5 -54zM774 561v-545h346v633q0 31 -2.5 61t-12 71t-25 76.5t-43.5 72t-65 62t-93.5 41.5
t-124.5 16q-182 0 -273 -129l-16 -23v127h-346v-1008h346v545q0 66 43 108t110 42q69 0 112.5 -42t43.5 -108zM1034 1497l-252 -319h-327l-252 319h323l92 -125l91 125h325zM240 1479l223 -283h311l221 283h-276l-101 -138l-100 138h-278z" />
    <glyph glyph-name="napostrophe" unicode="&#x149;" horiz-adv-x="1294" 
d="M1192 649v-649h-383v561q0 58 -37.5 94.5t-97.5 36.5q-61 0 -99 -36t-38 -95v-561h-383v1042h383v-92q95 117 270 117q74 0 134 -18.5t99 -47t68.5 -68.5t45 -78t24.5 -81t11.5 -70.5t2.5 -54.5zM827 561v-545h347v633q0 45 -6 89t-28.5 103.5t-59.5 102.5t-108 74
t-165 31q-181 0 -272 -129l-17 -23v127h-346v-1008h346v545q0 66 43.5 108t112.5 42q67 0 110 -42t43 -108zM399 1434l-174 -320h-272l119 320h327zM84 1415l-104 -285h235l154 285h-285z" />
    <glyph glyph-name="Eng" unicode="&#x14a;" horiz-adv-x="1515" 
d="M967 -463q-72 0 -158 17l-8 2v356h41q61 0 95 23.5t34 91.5v41l-422 663v-731h-436v1434h389l469 -734v734h434v-1463q-3 -220 -111.5 -327t-326.5 -107zM819 -106v-324q91 -16 148 -16q209 0 312.5 103t106.5 314v1444h-397v-776l-497 776h-361v-1399h401v777l457 -719
v-47q0 -34 -9 -59t-23 -38.5t-34.5 -22t-39 -11t-41.5 -2.5h-23z" />
    <glyph glyph-name="eng" unicode="&#x14b;" horiz-adv-x="1236" 
d="M756 -410q-86 0 -162 21l-6 2v338q23 -2 41 -2q29 0 48.5 4t40 16t30.5 40t10 71v481q0 59 -38 95t-99 36q-62 0 -100 -36.5t-38 -94.5v-561h-383v1042h383v-92q99 117 271 117q74 0 134 -18.5t99 -47t68.5 -68.5t45 -78t24.5 -81t11.5 -70.5t2.5 -54.5v-641
q0 -201 -98.5 -309.5t-284.5 -108.5zM606 -68v-307q75 -16 150 -16q87 0 154 24.5t106 63t64 93t33.5 106.5t8.5 112v641q0 30 -3 60.5t-12.5 71.5t-25 76.5t-43.5 72t-65.5 62t-94 41.5t-124.5 16q-178 0 -273 -129l-16 -23v127h-346v-1008h346v545q0 66 43.5 108t112.5 42
q67 0 110 -42t43 -108v-481q0 -42 -11 -71.5t-24.5 -44t-37 -22.5t-37 -9t-35.5 -1h-23z" />
    <glyph glyph-name="Omacron" unicode="&#x14c;" horiz-adv-x="1597" 
d="M799 -27q-157 0 -294.5 56t-234.5 154t-153 236.5t-56 297.5q0 212 95 381.5t264 264.5t379 95q211 0 379.5 -95t263 -264.5t94.5 -381.5t-94.5 -382t-263 -266t-379.5 -96zM799 1440q-205 0 -369.5 -92.5t-257 -258t-92.5 -372.5t92.5 -373t257 -259t369.5 -93
q206 0 371 93t257.5 259t92.5 373t-92.5 372.5t-257.5 258t-371 92.5zM799 379q-143 0 -230.5 93t-87.5 245q0 151 87.5 243.5t230.5 92.5t231 -92.5t88 -243.5q0 -152 -88 -245t-231 -93zM799 1034q-134 0 -216.5 -87.5t-82.5 -229.5q0 -143 83 -231.5t216 -88.5
q135 0 218 88.5t83 231.5q0 142 -83 229.5t-218 87.5zM1118 1872v-268h-643v268h643zM494 1855v-235h606v235h-606z" />
    <glyph glyph-name="omacron" unicode="&#x14d;" horiz-adv-x="1196" 
d="M598 -27q-120 0 -224 41.5t-177.5 113.5t-115.5 173.5t-42 218.5q0 238 158 392.5t401 154.5q244 0 402.5 -154.5t158.5 -392.5q0 -237 -158.5 -392t-402.5 -155zM598 1049q-235 0 -388 -149.5t-153 -379.5q0 -229 153 -378.5t388 -149.5q236 0 389.5 149.5t153.5 378.5
q0 230 -153.5 379.5t-389.5 149.5zM598 328q-85 0 -138.5 53.5t-53.5 138.5q0 86 53.5 139.5t138.5 53.5q86 0 139.5 -53.5t53.5 -139.5q0 -85 -53.5 -138.5t-139.5 -53.5zM598 694q-78 0 -126 -48t-48 -126t48 -126t126 -48t126 48t48 126t-48 126t-126 48zM920 1462v-268
h-644v268h644zM295 1446v-236h606v236h-606z" />
    <glyph glyph-name="Obreve" unicode="&#x14e;" horiz-adv-x="1597" 
d="M799 -27q-157 0 -294.5 56t-234.5 154t-153 236.5t-56 297.5q0 212 95 381.5t264 264.5t379 95q211 0 379.5 -95t263 -264.5t94.5 -381.5t-94.5 -382t-263 -266t-379.5 -96zM799 1440q-205 0 -369.5 -92.5t-257 -258t-92.5 -372.5t92.5 -373t257 -259t369.5 -93
q206 0 371 93t257.5 259t92.5 373t-92.5 372.5t-257.5 258t-371 92.5zM799 379q-143 0 -230.5 93t-87.5 245q0 151 87.5 243.5t230.5 92.5t231 -92.5t88 -243.5q0 -152 -88 -245t-231 -93zM799 1034q-134 0 -216.5 -87.5t-82.5 -229.5q0 -143 83 -231.5t216 -88.5
q135 0 218 88.5t83 231.5q0 142 -83 229.5t-218 87.5zM799 1561q-156 0 -251 90t-95 239v8h252v-8q0 -44 25.5 -70t68.5 -26q44 0 70 26t26 70v8h252v-8q0 -149 -95.5 -239t-252.5 -90zM686 1880h-217q3 -138 92.5 -219.5t237.5 -81.5q149 0 238.5 81.5t90.5 219.5h-215
q-3 -48 -33.5 -76t-80.5 -28q-49 0 -79.5 28t-33.5 76z" />
    <glyph glyph-name="obreve" unicode="&#x14f;" horiz-adv-x="1196" 
d="M598 -27q-120 0 -224 41.5t-177.5 113.5t-115.5 173.5t-42 218.5q0 238 158 392.5t401 154.5q244 0 402.5 -154.5t158.5 -392.5q0 -237 -158.5 -392t-402.5 -155zM598 1049q-235 0 -388 -149.5t-153 -379.5q0 -229 153 -378.5t388 -149.5q236 0 389.5 149.5t153.5 378.5
q0 230 -153.5 379.5t-389.5 149.5zM598 328q-85 0 -138.5 53.5t-53.5 138.5q0 86 53.5 139.5t138.5 53.5q86 0 139.5 -53.5t53.5 -139.5q0 -85 -53.5 -138.5t-139.5 -53.5zM598 694q-78 0 -126 -48t-48 -126t48 -126t126 -48t126 48t48 126t-48 126t-126 48zM598 1151
q-156 0 -251 90.5t-95 239.5v8h252v-8q0 -44 25.5 -70.5t68.5 -26.5q44 0 70 26.5t26 70.5v8h252v-8q0 -149 -95.5 -239.5t-252.5 -90.5zM485 1470h-217q3 -138 92.5 -219.5t237.5 -81.5q149 0 239 81.5t91 219.5h-215q-3 -48 -33.5 -76t-81.5 -28q-49 0 -79.5 28t-33.5 76z
" />
    <glyph glyph-name="Ohungarumlaut" unicode="&#x150;" horiz-adv-x="1597" 
d="M799 -27q-157 0 -294.5 56t-234.5 154t-153 236.5t-56 297.5q0 212 95 381.5t264 264.5t379 95q211 0 379.5 -95t263 -264.5t94.5 -381.5t-94.5 -382t-263 -266t-379.5 -96zM799 1440q-205 0 -369.5 -92.5t-257 -258t-92.5 -372.5t92.5 -373t257 -259t369.5 -93
q206 0 371 93t257.5 259t92.5 373t-92.5 372.5t-257.5 258t-371 92.5zM799 379q-143 0 -230.5 93t-87.5 245q0 151 87.5 243.5t230.5 92.5t231 -92.5t88 -243.5q0 -152 -88 -245t-231 -93zM799 1034q-134 0 -216.5 -87.5t-82.5 -229.5q0 -143 83 -231.5t216 -88.5
q135 0 218 88.5t83 231.5q0 142 -83 229.5t-218 87.5zM934 1907l-221 -320h-314l150 320h385zM561 1888l-133 -282h274l197 282h-338zM1401 1907l-221 -320h-314l150 320h385zM1028 1888l-133 -282h274l197 282h-338z" />
    <glyph glyph-name="ohungarumlaut" unicode="&#x151;" horiz-adv-x="1196" 
d="M598 -27q-120 0 -224 41.5t-177.5 113.5t-115.5 173.5t-42 218.5q0 238 158 392.5t401 154.5q244 0 402.5 -154.5t158.5 -392.5q0 -237 -158.5 -392t-402.5 -155zM598 1049q-235 0 -388 -149.5t-153 -379.5q0 -229 153 -378.5t388 -149.5q236 0 389.5 149.5t153.5 378.5
q0 230 -153.5 379.5t-389.5 149.5zM598 328q-85 0 -138.5 53.5t-53.5 138.5q0 86 53.5 139.5t138.5 53.5q86 0 139.5 -53.5t53.5 -139.5q0 -85 -53.5 -138.5t-139.5 -53.5zM598 694q-78 0 -126 -48t-48 -126t48 -126t126 -48t126 48t48 126t-48 126t-126 48zM713 1497
l-221 -319h-314l150 319h385zM340 1479l-133 -283h274l197 283h-338zM1180 1497l-222 -319h-313l150 319h385zM807 1479l-133 -283h274l197 283h-338z" />
    <glyph glyph-name="OE" unicode="&#x152;" horiz-adv-x="2000" 
d="M1927 362v-362h-1077q-364 0 -575.5 193t-211.5 524t211.5 524t575.5 193h1057v-363h-525v-176h461v-346h-461v-187h545zM1888 1415h-1038q-355 0 -561.5 -188t-206.5 -510q0 -324 206.5 -512.5t561.5 -188.5h1059v328h-543v223h459v312h-459v208h522v328zM965 1053v-672
h-115q-170 0 -268.5 89.5t-98.5 246.5q0 155 98.5 245.5t268.5 90.5h115zM946 1034h-96q-164 0 -257 -84t-93 -233q0 -151 93 -235.5t257 -84.5h96v637z" />
    <glyph glyph-name="oe" unicode="&#x153;" horiz-adv-x="1966" 
d="M1423 -27q-275 0 -430 166q-140 -166 -389 -166q-244 0 -402.5 155t-158.5 392q0 238 158.5 392.5t402.5 154.5q247 0 389 -164q152 164 391 164q122 0 226.5 -43.5t177.5 -126.5q160 -179 129 -477l-2 -6l-705 -2q48 -138 213 -138q59 0 107.5 24.5t75.5 57.5l4 6
l260 -155l-4 -6q-60 -105 -179 -166.5t-264 -61.5zM985 158l6 8l8 -8q149 -166 424 -166q135 0 250 57t172 152l-231 139q-30 -35 -80 -59.5t-111 -24.5q-90 0 -150 42t-83 120l-4 12h712q31 282 -122 455q-149 164 -392 164q-115 0 -214.5 -43t-170.5 -123l-6 -9l-8 9
q-134 166 -381 166q-236 0 -389.5 -149.5t-153.5 -379.5q0 -229 153.5 -378.5t389.5 -149.5q247 0 381 166zM604 328q-86 0 -139 53.5t-53 138.5q0 86 53 139.5t139 53.5q85 0 139 -53.5t54 -139.5q0 -85 -54 -138.5t-139 -53.5zM604 694q-78 0 -126 -48t-48 -126t48 -126
t126 -48t126 48t48 126t-48 126t-126 48zM1585 610l-399 -2l4 13q22 76 73.5 119.5t120.5 43.5q78 0 130 -42t69 -121zM1384 768q-62 0 -107 -37t-67 -104l353 2q-34 139 -179 139z" />
    <glyph glyph-name="Racute" unicode="&#x154;" horiz-adv-x="1398" 
d="M1087 539l306 -539h-480l-229 455h-139v-455h-436v1434h587q285 0 437.5 -133.5t152.5 -382.5q0 -261 -199 -379zM696 473l230 -457h436l-299 531l6 4q199 108 199 367q0 241 -147.5 369t-424.5 128h-571v-1399h401v457h170zM696 782h-170v271h170q166 0 166 -135
q0 -136 -166 -136zM545 1034v-233h151q150 0 150 117q0 60 -36.5 88t-113.5 28h-151zM997 1907l-221 -320h-311l147 320h385zM625 1888l-133 -282h274l197 282h-338z" />
    <glyph glyph-name="racute" unicode="&#x155;" horiz-adv-x="831" 
d="M479 395v-395h-381v1042h381v-139q54 77 133 120.5t166 43.5h8v-412h-10q-163 20 -233 -41q-64 -59 -64 -219zM115 1024v-1008h348v379q0 80 13.5 138t53.5 94q73 64 238 49v373q-86 -1 -164 -50t-125 -131l-16 -28v184h-348zM750 1497l-222 -319h-311l148 319h385z
M377 1479l-133 -283h274l197 283h-338z" />
    <glyph glyph-name="Rcommaaccent" unicode="&#x156;" horiz-adv-x="1398" 
d="M1087 539l306 -539h-480l-229 455h-139v-455h-436v1434h587q285 0 437.5 -133.5t152.5 -382.5q0 -261 -199 -379zM696 473l230 -457h436l-299 531l6 4q199 108 199 367q0 241 -147.5 369t-424.5 128h-571v-1399h401v457h170zM696 782h-170v271h170q166 0 166 -135
q0 -136 -166 -136zM545 1034v-233h151q150 0 150 117q0 60 -36.5 88t-113.5 28h-151zM897 -129l-174 -320h-272l118 320h328zM582 -147l-105 -283h236l153 283h-284z" />
    <glyph glyph-name="rcommaaccent" unicode="&#x157;" horiz-adv-x="831" 
d="M479 395v-395h-381v1042h381v-139q54 77 133 120.5t166 43.5h8v-412h-10q-163 20 -233 -41q-64 -59 -64 -219zM115 1024v-1008h348v379q0 80 13.5 138t53.5 94q73 64 238 49v373q-86 -1 -164 -50t-125 -131l-16 -28v184h-348zM444 -129l-174 -320h-272l119 320h327z
M129 -147l-104 -283h235l154 283h-285z" />
    <glyph glyph-name="Rcaron" unicode="&#x158;" horiz-adv-x="1398" 
d="M1087 539l306 -539h-480l-229 455h-139v-455h-436v1434h587q285 0 437.5 -133.5t152.5 -382.5q0 -261 -199 -379zM696 473l230 -457h436l-299 531l6 4q199 108 199 367q0 241 -147.5 369t-424.5 128h-571v-1399h401v457h170zM696 782h-170v271h170q166 0 166 -135
q0 -136 -166 -136zM545 1034v-233h151q150 0 150 117q0 60 -36.5 88t-113.5 28h-151zM1104 1907l-252 -320h-328l-252 320h324l92 -125l90 125h326zM309 1888l223 -282h312l221 282h-277l-100 -137l-100 137h-279z" />
    <glyph glyph-name="rcaron" unicode="&#x159;" horiz-adv-x="831" 
d="M479 395v-395h-381v1042h381v-139q54 77 133 120.5t166 43.5h8v-412h-10q-163 20 -233 -41q-64 -59 -64 -219zM115 1024v-1008h348v379q0 80 13.5 138t53.5 94q73 64 238 49v373q-86 -1 -164 -50t-125 -131l-16 -28v184h-348zM827 1497l-252 -319h-327l-252 319h323
l93 -125l90 125h325zM33 1479l223 -283h311l221 283h-276l-100 -138l-101 138h-278z" />
    <glyph glyph-name="Sacute" unicode="&#x15a;" horiz-adv-x="1228" 
d="M633 -27q-246 0 -406.5 103t-197.5 284l-2 9l376 116v-10q5 -53 63 -93t150 -40q76 0 112 27t36 67q0 15 -5 27.5t-18 22.5t-25.5 16.5t-37.5 14t-43 12t-53 12.5q-51 11 -60 14q-229 54 -332.5 159t-103.5 283q0 204 152.5 332.5t394.5 128.5q203 0 347 -103.5
t179 -275.5l2 -10l-373 -90l-2 8q-4 15 -12 30t-24 33t-45.5 29t-67.5 11q-56 0 -94.5 -22t-38.5 -69q0 -21 12 -37t38.5 -27.5t49.5 -18t64 -15.5q23 -5 61 -16q261 -72 366 -171t105 -272q0 -89 -37 -172t-106 -150t-179 -107t-245 -40zM387 463l-340 -107
q16 -70 51 -126.5t77.5 -93.5t97 -65t103.5 -42.5t102.5 -23.5t88 -11t66.5 -2q105 0 195 25.5t154 69t110 101t68 122t22 132.5q0 166 -102 261t-355 165q-28 8 -61 15q-106 26 -137 46q-42 27 -42 70q0 49 41.5 79t110.5 30q60 0 103.5 -29t60.5 -80l340 84
q-38 163 -176.5 260t-331.5 97q-233 0 -381 -124t-148 -319q0 -172 98.5 -272t323.5 -154q10 -2 60 -14q44 -9 65.5 -14.5t51 -16t43 -21.5t24 -28.5t10.5 -40.5q0 -47 -40 -79.5t-124 -32.5q-96 0 -157 40.5t-72 98.5zM985 1907l-221 -320h-311l147 320h385zM612 1888
l-133 -282h275l196 282h-338z" />
    <glyph glyph-name="sacute" unicode="&#x15b;" horiz-adv-x="1011" 
d="M496 -27q-46 0 -91.5 4t-110 19.5t-114.5 41t-93 73.5t-58 112l-2 8l335 105l3 -8q21 -80 127 -80q46 0 71 17t25 48q0 28 -31 42.5t-108 29.5q-47 9 -62 12q-80 17 -135.5 39.5t-101.5 59.5t-68.5 93t-22.5 132q0 155 129 250.5t338 95.5q90 0 173 -27t151 -88.5
t90 -148.5l2 -10l-309 -74l-2 8q-19 70 -103 70q-46 0 -72 -17.5t-26 -48.5q0 -17 10 -29t31 -20t38.5 -12.5t46.5 -10t42 -8.5q99 -21 165.5 -44t119.5 -60t77.5 -90.5t24.5 -128.5q0 -166 -129.5 -260.5t-359.5 -94.5zM350 313l-303 -94q16 -58 58 -102t90 -67t109.5 -37
t104.5 -17.5t87 -3.5q221 0 346 89t125 247q0 126 -84 195t-289 112q-8 2 -32.5 6t-36 6.5t-32.5 8t-32 11.5t-23.5 15t-18 21.5t-5.5 27.5q0 39 30 61.5t84 22.5q92 0 117 -76l275 68q-22 80 -87 136.5t-143.5 81t-163.5 24.5q-201 0 -324.5 -90t-123.5 -238q0 -72 21 -124
t64.5 -86.5t96.5 -56t131 -38.5q19 -5 54.5 -11.5t59 -12.5t48.5 -15.5t38 -25.5t13 -38q0 -39 -29 -60.5t-83 -21.5q-114 0 -142 82zM856 1497l-221 -319h-311l147 319h385zM483 1479l-133 -283h275l196 283h-338z" />
    <glyph glyph-name="Scircumflex" unicode="&#x15c;" horiz-adv-x="1228" 
d="M633 -27q-246 0 -406.5 103t-197.5 284l-2 9l376 116v-10q5 -53 63 -93t150 -40q76 0 112 27t36 67q0 15 -5 27.5t-18 22.5t-25.5 16.5t-37.5 14t-43 12t-53 12.5q-51 11 -60 14q-229 54 -332.5 159t-103.5 283q0 204 152.5 332.5t394.5 128.5q203 0 347 -103.5
t179 -275.5l2 -10l-373 -90l-2 8q-4 15 -12 30t-24 33t-45.5 29t-67.5 11q-56 0 -94.5 -22t-38.5 -69q0 -21 12 -37t38.5 -27.5t49.5 -18t64 -15.5q23 -5 61 -16q261 -72 366 -171t105 -272q0 -89 -37 -172t-106 -150t-179 -107t-245 -40zM387 463l-340 -107
q16 -70 51 -126.5t77.5 -93.5t97 -65t103.5 -42.5t102.5 -23.5t88 -11t66.5 -2q105 0 195 25.5t154 69t110 101t68 122t22 132.5q0 166 -102 261t-355 165q-28 8 -61 15q-106 26 -137 46q-42 27 -42 70q0 49 41.5 79t110.5 30q60 0 103.5 -29t60.5 -80l340 84
q-38 163 -176.5 260t-331.5 97q-233 0 -381 -124t-148 -319q0 -172 98.5 -272t323.5 -154q10 -2 60 -14q44 -9 65.5 -14.5t51 -16t43 -21.5t24 -28.5t10.5 -40.5q0 -47 -40 -79.5t-124 -32.5q-96 0 -157 40.5t-72 98.5zM778 1907l250 -320h-323l-91 125l-92 -125h-323
l252 320h327zM614 1743l101 -137h276l-221 282h-311l-223 -282h278z" />
    <glyph glyph-name="scircumflex" unicode="&#x15d;" horiz-adv-x="1011" 
d="M496 -27q-46 0 -91.5 4t-110 19.5t-114.5 41t-93 73.5t-58 112l-2 8l335 105l3 -8q21 -80 127 -80q46 0 71 17t25 48q0 28 -31 42.5t-108 29.5q-47 9 -62 12q-80 17 -135.5 39.5t-101.5 59.5t-68.5 93t-22.5 132q0 155 129 250.5t338 95.5q90 0 173 -27t151 -88.5
t90 -148.5l2 -10l-309 -74l-2 8q-19 70 -103 70q-46 0 -72 -17.5t-26 -48.5q0 -17 10 -29t31 -20t38.5 -12.5t46.5 -10t42 -8.5q99 -21 165.5 -44t119.5 -60t77.5 -90.5t24.5 -128.5q0 -166 -129.5 -260.5t-359.5 -94.5zM350 313l-303 -94q16 -58 58 -102t90 -67t109.5 -37
t104.5 -17.5t87 -3.5q221 0 346 89t125 247q0 126 -84 195t-289 112q-8 2 -32.5 6t-36 6.5t-32.5 8t-32 11.5t-23.5 15t-18 21.5t-5.5 27.5q0 39 30 61.5t84 22.5q92 0 117 -76l275 68q-22 80 -87 136.5t-143.5 81t-163.5 24.5q-201 0 -324.5 -90t-123.5 -238q0 -72 21 -124
t64.5 -86.5t96.5 -56t131 -38.5q19 -5 54.5 -11.5t59 -12.5t48.5 -15.5t38 -25.5t13 -38q0 -39 -29 -60.5t-83 -21.5q-114 0 -142 82zM670 1497l250 -319h-324l-90 125l-92 -125h-324l252 319h328zM506 1333l100 -137h277l-221 283h-312l-223 -283h279z" />
    <glyph glyph-name="Scedilla" unicode="&#x15e;" horiz-adv-x="1228" 
d="M616 -516q-80 0 -148 19.5t-108 45.5l-8 5l101 180l8 -6q50 -35 100 -35q68 0 68 53q0 47 -60 47q-25 0 -49 -12l-63 84l59 117q-55 6 -107.5 18.5t-116 40.5t-113.5 67.5t-91.5 104.5t-58.5 147l-2 9l376 116v-10q5 -53 63 -93t150 -40q76 0 112 27t36 67q0 15 -5 27.5
t-18 22.5t-25.5 16.5t-37.5 14t-43 12t-53 12.5q-51 11 -60 14q-229 54 -332.5 159t-103.5 283q0 204 152.5 332.5t394.5 128.5q203 0 347 -103.5t179 -275.5l2 -10l-373 -90l-2 8q-4 15 -12 30t-24 33t-45.5 29t-67.5 11q-56 0 -94.5 -22t-38.5 -69q0 -21 12 -37
t38.5 -27.5t49.5 -18t64 -15.5q23 -5 61 -16q261 -72 366 -171t105 -272q0 -193 -144.5 -323t-373.5 -144l-25 -47q46 -2 87 -14t75.5 -36.5t55 -67t20.5 -97.5q0 -109 -73 -169t-206 -60zM459 -293l-82 -147q94 -58 239 -58q29 0 57.5 3.5t67.5 16.5t67.5 34.5t48.5 62
t20 94.5q0 69 -35 115t-84 64t-109 18h-20l41 84h6q223 11 364.5 136t141.5 312q0 166 -102 261t-355 165q-28 8 -61 15q-106 26 -137 46q-42 27 -42 70q0 49 41.5 79t110.5 30q60 0 103.5 -29t60.5 -80l340 84q-38 163 -176.5 260t-331.5 97q-233 0 -382 -124t-149 -319
q0 -172 99.5 -272t324.5 -154q45 -9 60 -14q44 -9 65.5 -14.5t51 -16t43 -21.5t24 -28.5t10.5 -40.5q0 -47 -40 -79.5t-124 -32.5q-96 0 -157 40.5t-72 98.5l-340 -107q17 -78 59.5 -140.5t92 -99.5t113 -63.5t114.5 -37.5t104 -17l13 -2l-64 -129l47 -64q24 9 43 9
q35 0 55.5 -18t20.5 -48q0 -70 -84 -70q-51 0 -102 31z" />
    <glyph glyph-name="scedilla" unicode="&#x15f;" horiz-adv-x="1011" 
d="M514 -516q-80 0 -148 19.5t-108 45.5l-8 5l100 180l8 -6q17 -13 46 -24t55 -11q65 0 65 53q0 47 -57 47q-22 0 -43 -8l-6 -4l-64 84l58 112q-58 5 -111 18t-112 39t-102 74.5t-58 114.5l-2 8l335 105l3 -8q21 -80 127 -80q44 0 69 17t25 48q0 29 -31.5 43t-108.5 29
q-9 2 -59 12q-80 17 -135.5 39.5t-101.5 59.5t-68.5 93t-22.5 132q0 155 128.5 250.5t338.5 95.5q90 0 173 -27t150.5 -88.5t88.5 -148.5l2 -10l-307 -74l-2 8q-22 70 -103 70q-46 0 -72 -17.5t-26 -48.5q0 -17 10 -29t32 -20.5t40.5 -12.5t50.5 -10q82 -16 140.5 -32.5
t115 -43t91 -60t55 -83t20.5 -112.5q0 -151 -105.5 -242.5t-299.5 -108.5l-25 -49q46 -2 87 -14t75.5 -36.5t55 -67t20.5 -97.5q0 -109 -73.5 -169t-205.5 -60zM356 -293l-82 -147q94 -58 240 -58q29 0 57.5 3.5t67 16.5t67 34.5t48.5 62t20 94.5q0 69 -34.5 115t-83.5 64
t-109 18h-21l43 84l4 2q187 15 290.5 102t103.5 230q0 131 -97.5 204t-310.5 109q-36 7 -55 12t-44 15t-36.5 25.5t-11.5 37.5q0 38 31 61t85 23q89 0 117 -76l275 68q-23 80 -87.5 136.5t-143 81t-163.5 24.5q-201 0 -324.5 -90t-123.5 -238q0 -139 76.5 -204.5
t236.5 -100.5q15 -4 53.5 -11t60 -12.5t48 -16t39 -26t12.5 -37.5q0 -38 -30 -60t-82 -22q-114 0 -142 82l-303 -94q17 -61 60.5 -106t103 -68.5t110 -34.5t105.5 -16h14l-63 -127l47 -64q24 9 43 9q35 0 55.5 -18t20.5 -48q0 -34 -22 -52t-62 -18q-52 0 -103 31z" />
    <glyph glyph-name="Scaron" unicode="&#x160;" horiz-adv-x="1228" 
d="M633 -27q-246 0 -406.5 103t-197.5 284l-2 9l376 116v-10q5 -53 63 -93t150 -40q76 0 112 27t36 67q0 15 -5 27.5t-18 22.5t-25.5 16.5t-37.5 14t-43 12t-53 12.5q-51 11 -60 14q-229 54 -332.5 159t-103.5 283q0 204 152.5 332.5t394.5 128.5q203 0 347 -103.5
t179 -275.5l2 -10l-373 -90l-2 8q-4 15 -12 30t-24 33t-45.5 29t-67.5 11q-56 0 -94.5 -22t-38.5 -69q0 -21 12 -37t38.5 -27.5t49.5 -18t64 -15.5q23 -5 61 -16q261 -72 366 -171t105 -272q0 -89 -37 -172t-106 -150t-179 -107t-245 -40zM387 463l-340 -107
q16 -70 51 -126.5t77.5 -93.5t97 -65t103.5 -42.5t102.5 -23.5t88 -11t66.5 -2q105 0 195 25.5t154 69t110 101t68 122t22 132.5q0 166 -102 261t-355 165q-28 8 -61 15q-106 26 -137 46q-42 27 -42 70q0 49 41.5 79t110.5 30q60 0 103.5 -29t60.5 -80l340 84
q-38 163 -176.5 260t-331.5 97q-233 0 -381 -124t-148 -319q0 -172 98.5 -272t323.5 -154q10 -2 60 -14q44 -9 65.5 -14.5t51 -16t43 -21.5t24 -28.5t10.5 -40.5q0 -47 -40 -79.5t-124 -32.5q-96 0 -157 40.5t-72 98.5zM1030 1907l-252 -320h-327l-252 320h323l92 -125
l91 125h325zM236 1888l223 -282h311l221 282h-276l-101 -137l-100 137h-278z" />
    <glyph glyph-name="scaron" unicode="&#x161;" horiz-adv-x="1011" 
d="M496 -27q-46 0 -91.5 4t-110 19.5t-114.5 41t-93 73.5t-58 112l-2 8l335 105l3 -8q21 -80 127 -80q46 0 71 17t25 48q0 28 -31 42.5t-108 29.5q-47 9 -62 12q-80 17 -135.5 39.5t-101.5 59.5t-68.5 93t-22.5 132q0 155 129 250.5t338 95.5q90 0 173 -27t151 -88.5
t90 -148.5l2 -10l-309 -74l-2 8q-19 70 -103 70q-46 0 -72 -17.5t-26 -48.5q0 -17 10 -29t31 -20t38.5 -12.5t46.5 -10t42 -8.5q99 -21 165.5 -44t119.5 -60t77.5 -90.5t24.5 -128.5q0 -166 -129.5 -260.5t-359.5 -94.5zM350 313l-303 -94q16 -58 58 -102t90 -67t109.5 -37
t104.5 -17.5t87 -3.5q221 0 346 89t125 247q0 126 -84 195t-289 112q-8 2 -32.5 6t-36 6.5t-32.5 8t-32 11.5t-23.5 15t-18 21.5t-5.5 27.5q0 39 30 61.5t84 22.5q92 0 117 -76l275 68q-22 80 -87 136.5t-143.5 81t-163.5 24.5q-201 0 -324.5 -90t-123.5 -238q0 -72 21 -124
t64.5 -86.5t96.5 -56t131 -38.5q19 -5 54.5 -11.5t59 -12.5t48.5 -15.5t38 -25.5t13 -38q0 -39 -29 -60.5t-83 -21.5q-114 0 -142 82zM922 1497l-252 -319h-328l-252 319h324l92 -125l90 125h326zM127 1479l223 -283h312l221 283h-277l-100 -138l-100 138h-279z" />
    <glyph glyph-name="Tcommaaccent" unicode="&#x162;" horiz-adv-x="1198" 
d="M817 1034v-1034h-436v1034h-332v400h1100v-400h-332zM399 1053v-1037h400v1037h331v362h-1062v-362h331zM766 -129l-174 -320h-273l119 320h328zM451 -147l-105 -283h236l153 283h-284z" />
    <glyph glyph-name="tcommaaccent" unicode="&#x163;" horiz-adv-x="866" 
d="M610 -20q-77 0 -140.5 18t-106 46t-74 68.5t-49 79.5t-28.5 84.5t-14 79t-3 66.5v297h-127v323h127v215h383v-215h200v-323h-200v-262q0 -138 131 -138q24 0 59 7l10 2v-326l-6 -2q-65 -20 -162 -20zM86 1024v-289h127v-313q0 -47 6.5 -93.5t31 -109.5t64.5 -109
t116.5 -79t178.5 -33q91 0 150 16v291q-32 -4 -51 -4q-72 0 -111 40.5t-39 115.5v278h201v289h-201v215h-346v-215h-127zM651 -129l-174 -320h-272l119 320h327zM336 -147l-105 -283h236l154 283h-285z" />
    <glyph glyph-name="Tcaron" unicode="&#x164;" horiz-adv-x="1198" 
d="M817 1034v-1034h-436v1034h-332v400h1100v-400h-332zM399 1053v-1037h400v1037h331v362h-1062v-362h331zM1014 1907l-252 -320h-328l-252 320h324l92 -125l90 125h326zM219 1888l223 -282h312l221 282h-277l-100 -137l-100 137h-279z" />
    <glyph glyph-name="tcaron" unicode="&#x165;" horiz-adv-x="866" 
d="M610 -20q-77 0 -140.5 18t-106 46t-74 68.5t-49 79.5t-28.5 84.5t-14 79t-3 66.5v297h-127v323h127v215h383v-215h200v-323h-200v-262q0 -138 131 -138q24 0 59 7l10 2v-326l-6 -2q-65 -20 -162 -20zM86 1024v-289h127v-313q0 -47 6.5 -93.5t31 -109.5t64.5 -109
t116.5 -79t178.5 -33q91 0 150 16v291q-32 -4 -51 -4q-72 0 -111 40.5t-39 115.5v278h201v289h-201v215h-346v-215h-127zM1126 1477l-174 -320h-272l119 320h327zM811 1458l-104 -282h235l154 282h-285z" />
    <glyph glyph-name="Tbar" unicode="&#x166;" horiz-adv-x="1198" 
d="M817 635v-635h-436v635h-207v127h207v272h-332v400h1098v-400h-330v-272h205v-127h-205zM397 653v-637h402v637h207v90h-207v310h331v362h-1062v-362h329v-310h-204v-90h204z" />
    <glyph glyph-name="tbar" unicode="&#x167;" horiz-adv-x="866" 
d="M610 -20q-77 0 -140.5 18t-106 46t-74 68.5t-49 79.5t-28.5 84.5t-14 79t-3 66.5v80h-127v127h127v90h-127v323h127v215h383v-215h200v-323h-200v-90h200v-127h-200v-45q0 -138 131 -138q24 0 59 7l10 2v-326l-6 -2q-65 -20 -162 -20zM86 610v-90h127v-98
q0 -47 6.5 -93.5t31 -109.5t64.5 -109t116.5 -79t178.5 -33q94 0 150 16v291q-32 -4 -51 -4q-72 0 -111 40.5t-39 115.5v63h201v90h-201v125h201v289h-201v215h-346v-215h-127v-289h127v-125h-127z" />
    <glyph glyph-name="Utilde" unicode="&#x168;" horiz-adv-x="1497" 
d="M748 -27q-312 0 -473.5 156t-161.5 457v848h436v-813q0 -109 50.5 -166.5t148.5 -57.5t149 57.5t51 166.5v813h436v-848q0 -301 -161.5 -457t-474.5 -156zM530 1415h-401v-829q0 -291 158 -442.5t461 -151.5q304 0 461 151t157 443v829h-399v-794q0 -117 -56.5 -179.5
t-162.5 -62.5q-105 0 -161.5 62.5t-56.5 179.5v794zM905 1565q-63 0 -160 39q-62 20 -75 20q-41 0 -43 -49v-10l-240 43v8q34 258 223 258q45 0 121 -33q61 -26 94 -26q42 0 45 49v10l238 -41v-10q-15 -134 -63.5 -196t-139.5 -62zM670 1642q21 0 82 -22q104 -37 153 -37
q80 0 125 56.5t60 177.5l-203 36q-9 -57 -62 -57q-27 0 -100 29q-76 33 -115 33q-172 0 -202 -236l200 -35q10 55 62 55z" />
    <glyph glyph-name="utilde" unicode="&#x169;" horiz-adv-x="1239" 
d="M485 -27q-73 0 -133 18.5t-99 47t-68.5 68.5t-45 78t-25 81t-12 71t-2.5 54v651h383v-561q0 -60 38 -95.5t100 -35.5t98.5 35.5t36.5 95.5v561h383v-1042h-383v90q-94 -117 -271 -117zM465 1024h-346v-633q0 -30 2.5 -60t12 -71t25 -76.5t43.5 -71.5t65 -62t93.5 -42
t124.5 -16q180 0 273 131l16 22v-129h346v1008h-346v-543q0 -66 -42.5 -107.5t-110.5 -41.5q-69 0 -112.5 41.5t-43.5 107.5v543zM776 1155q-63 0 -160 39q-62 20 -75 20q-41 0 -43 -49v-10l-240 43v8q34 258 223 258q47 0 121 -32q64 -27 94 -27q42 0 45 49v10l238 -41v-10
q-15 -134 -63.5 -196t-139.5 -62zM541 1233q19 0 82 -23q101 -36 153 -36q80 0 125 56t60 177l-203 37q-9 -58 -62 -58q-28 0 -100 29q-76 33 -115 33q-172 0 -202 -236l200 -34q10 55 62 55z" />
    <glyph glyph-name="Umacron" unicode="&#x16a;" horiz-adv-x="1497" 
d="M748 -27q-312 0 -473.5 156t-161.5 457v848h436v-813q0 -109 50.5 -166.5t148.5 -57.5t149 57.5t51 166.5v813h436v-848q0 -301 -161.5 -457t-474.5 -156zM530 1415h-401v-829q0 -291 158 -442.5t461 -151.5q304 0 461 151t157 443v829h-399v-794q0 -117 -56.5 -179.5
t-162.5 -62.5q-105 0 -161.5 62.5t-56.5 179.5v794zM1069 1872v-268h-643v268h643zM444 1855v-235h607v235h-607z" />
    <glyph glyph-name="umacron" unicode="&#x16b;" horiz-adv-x="1239" 
d="M485 -27q-73 0 -133 18.5t-99 47t-68.5 68.5t-45 78t-25 81t-12 71t-2.5 54v651h383v-561q0 -60 38 -95.5t100 -35.5t98.5 35.5t36.5 95.5v561h383v-1042h-383v90q-94 -117 -271 -117zM465 1024h-346v-633q0 -30 2.5 -60t12 -71t25 -76.5t43.5 -71.5t65 -62t93.5 -42
t124.5 -16q180 0 273 131l16 22v-129h346v1008h-346v-543q0 -66 -42.5 -107.5t-110.5 -41.5q-69 0 -112.5 41.5t-43.5 107.5v543zM940 1462v-268h-643v268h643zM315 1446v-236h607v236h-607z" />
    <glyph glyph-name="Ubreve" unicode="&#x16c;" horiz-adv-x="1497" 
d="M748 -27q-312 0 -473.5 156t-161.5 457v848h436v-813q0 -109 50.5 -166.5t148.5 -57.5t149 57.5t51 166.5v813h436v-848q0 -301 -161.5 -457t-474.5 -156zM530 1415h-401v-829q0 -291 158 -442.5t461 -151.5q304 0 461 151t157 443v829h-399v-794q0 -117 -56.5 -179.5
t-162.5 -62.5q-105 0 -161.5 62.5t-56.5 179.5v794zM748 1561q-156 0 -251.5 90t-95.5 239v8h252v-8q0 -44 26 -70t69 -26q44 0 70 26t26 70v8h252v-8q0 -149 -95.5 -239t-252.5 -90zM635 1880h-217q3 -138 92.5 -219.5t237.5 -81.5q149 0 238.5 81.5t90.5 219.5h-215
q-3 -48 -33.5 -76t-80.5 -28q-49 0 -79.5 28t-33.5 76z" />
    <glyph glyph-name="ubreve" unicode="&#x16d;" horiz-adv-x="1239" 
d="M485 -27q-73 0 -133 18.5t-99 47t-68.5 68.5t-45 78t-25 81t-12 71t-2.5 54v651h383v-561q0 -60 38 -95.5t100 -35.5t98.5 35.5t36.5 95.5v561h383v-1042h-383v90q-94 -117 -271 -117zM465 1024h-346v-633q0 -30 2.5 -60t12 -71t25 -76.5t43.5 -71.5t65 -62t93.5 -42
t124.5 -16q180 0 273 131l16 22v-129h346v1008h-346v-543q0 -66 -42.5 -107.5t-110.5 -41.5q-69 0 -112.5 41.5t-43.5 107.5v543zM618 1151q-156 0 -251 90.5t-95 239.5v8h252v-8q0 -44 25.5 -70.5t68.5 -26.5q44 0 70.5 26.5t26.5 70.5v8h252v-8q0 -149 -96 -239.5
t-253 -90.5zM506 1470h-217q3 -138 92 -219.5t237 -81.5q149 0 239 81.5t91 219.5h-215q-3 -48 -33.5 -76t-81.5 -28q-49 0 -79 28t-33 76z" />
    <glyph glyph-name="Uring" unicode="&#x16e;" horiz-adv-x="1497" 
d="M748 -27q-312 0 -473.5 156t-161.5 457v848h436v-813q0 -109 50.5 -166.5t148.5 -57.5t149 57.5t51 166.5v813h436v-848q0 -301 -161.5 -457t-474.5 -156zM530 1415h-401v-829q0 -291 158 -442.5t461 -151.5q304 0 461 151t157 443v829h-399v-794q0 -117 -56.5 -179.5
t-162.5 -62.5q-105 0 -161.5 62.5t-56.5 179.5v794zM748 1499q-106 0 -181 75t-75 181t75 182t181 76q107 0 182.5 -76t75.5 -182t-75.5 -181t-182.5 -75zM748 1995q-98 0 -168 -70t-70 -170q0 -98 70 -167.5t168 -69.5q100 0 169.5 69.5t69.5 167.5q0 100 -69.5 170
t-169.5 70zM748 1661q-38 0 -66.5 28t-28.5 66q0 39 28.5 67.5t66.5 28.5q40 0 68 -28t28 -68q0 -38 -28 -66t-68 -28zM748 1833q-31 0 -53.5 -23t-22.5 -55q0 -31 22.5 -53.5t53.5 -22.5q32 0 54.5 22.5t22.5 53.5q0 32 -22.5 55t-54.5 23z" />
    <glyph glyph-name="uring" unicode="&#x16f;" horiz-adv-x="1239" 
d="M485 -27q-73 0 -133 18.5t-99 47t-68.5 68.5t-45 78t-25 81t-12 71t-2.5 54v651h383v-561q0 -60 38 -95.5t100 -35.5t98.5 35.5t36.5 95.5v561h383v-1042h-383v90q-94 -117 -271 -117zM465 1024h-346v-633q0 -30 2.5 -60t12 -71t25 -76.5t43.5 -71.5t65 -62t93.5 -42
t124.5 -16q180 0 273 131l16 22v-129h346v1008h-346v-543q0 -66 -42.5 -107.5t-110.5 -41.5q-69 0 -112.5 41.5t-43.5 107.5v543zM618 1110q-106 0 -181 75t-75 181t75 182t181 76q107 0 183 -76t76 -182t-76 -181t-183 -75zM618 1606q-98 0 -167.5 -70t-69.5 -170
q0 -98 69.5 -168t167.5 -70q100 0 170 70t70 168q0 100 -70 170t-170 70zM618 1272q-38 0 -66 28t-28 66q0 40 28 68t66 28q40 0 68.5 -28t28.5 -68q0 -38 -28.5 -66t-68.5 -28zM618 1444q-31 0 -53 -23t-22 -55q0 -31 22 -53.5t53 -22.5q32 0 55 22.5t23 53.5q0 32 -23 55
t-55 23z" />
    <glyph glyph-name="Uhungarumlaut" unicode="&#x170;" horiz-adv-x="1497" 
d="M748 -27q-312 0 -473.5 156t-161.5 457v848h436v-813q0 -109 50.5 -166.5t148.5 -57.5t149 57.5t51 166.5v813h436v-848q0 -301 -161.5 -457t-474.5 -156zM530 1415h-401v-829q0 -291 158 -442.5t461 -151.5q304 0 461 151t157 443v829h-399v-794q0 -117 -56.5 -179.5
t-162.5 -62.5q-105 0 -161.5 62.5t-56.5 179.5v794zM864 1907l-221 -320h-313l149 320h385zM492 1888l-134 -282h275l196 282h-337zM1331 1907l-221 -320h-313l149 320h385zM958 1888l-133 -282h275l196 282h-338z" />
    <glyph glyph-name="uhungarumlaut" unicode="&#x171;" horiz-adv-x="1239" 
d="M485 -27q-73 0 -133 18.5t-99 47t-68.5 68.5t-45 78t-25 81t-12 71t-2.5 54v651h383v-561q0 -60 38 -95.5t100 -35.5t98.5 35.5t36.5 95.5v561h383v-1042h-383v90q-94 -117 -271 -117zM465 1024h-346v-633q0 -30 2.5 -60t12 -71t25 -76.5t43.5 -71.5t65 -62t93.5 -42
t124.5 -16q180 0 273 131l16 22v-129h346v1008h-346v-543q0 -66 -42.5 -107.5t-110.5 -41.5q-69 0 -112.5 41.5t-43.5 107.5v543zM735 1497l-221 -319h-313l149 319h385zM362 1479l-133 -283h275l196 283h-338zM1202 1497l-221 -319h-313l149 319h385zM829 1479l-133 -283
h275l196 283h-338z" />
    <glyph glyph-name="Uogonek" unicode="&#x172;" horiz-adv-x="1497" 
d="M860 -496q-125 0 -195.5 56.5t-70.5 156.5q0 82 41.5 147.5t95.5 108.5q-304 4 -461 160t-157 453v848h436v-813q0 -109 51 -166.5t148 -57.5q98 0 149 57.5t51 166.5v813h436v-848q0 -460 -366 -574q-55 -33 -97 -88.5t-42 -107.5q0 -90 94 -90q27 0 55 8l12 4v-201
l-4 -2q-79 -31 -176 -31zM748 -8h34l-20 -17q-22 -16 -43.5 -37t-47.5 -54t-42.5 -77t-16.5 -90q0 -92 65.5 -143t182.5 -51q93 0 164 26v164q-24 -6 -51 -6q-53 0 -83 29t-30 80q0 58 45 117t105 94l2 2q354 111 354 557v829h-399v-794q0 -117 -56.5 -179.5t-162.5 -62.5
q-105 0 -161.5 62.5t-56.5 179.5v794h-401v-829q0 -291 158 -442.5t461 -151.5z" />
    <glyph glyph-name="uogonek" unicode="&#x173;" horiz-adv-x="1239" 
d="M958 -496q-126 0 -196 56.5t-70 156.5q0 85 48.5 158.5t119.5 124.5h-104v90q-94 -117 -271 -117q-74 0 -134 18.5t-99 47t-68.5 68.5t-45 78t-24.5 81t-11.5 70.5t-2.5 54.5v651h383v-561q0 -60 37.5 -95.5t97.5 -35.5q62 0 100 35.5t38 95.5v561h383v-1040l-4 -2
q-64 -30 -112 -79.5t-48 -104.5q0 -44 25 -67t71 -23q23 0 55 8l13 4v-201l-6 -2q-79 -31 -175 -31zM774 145v-129h150l-29 -16q-74 -44 -129 -119.5t-55 -163.5q0 -92 65 -143t182 -51q94 0 162 26v164q-21 -6 -49 -6q-54 0 -83.5 29t-29.5 80q0 60 47 111.5t115 86.5v1010
h-346v-543q0 -66 -43.5 -107.5t-112.5 -41.5q-68 0 -110.5 41.5t-42.5 107.5v543h-346v-633q0 -30 2.5 -60t12 -71t25 -76.5t43.5 -71.5t65 -62t93.5 -42t124.5 -16q180 0 273 131z" />
    <glyph glyph-name="Wcircumflex" unicode="&#x174;" horiz-adv-x="2066" 
d="M2056 1434l-426 -1434h-383l-215 760l-213 -760h-385l-424 1434h471l185 -777l219 777h295l219 -777l184 777h473zM1032 825l228 -809h358l414 1399h-435l-196 -829l-234 829h-268l-233 -829l-199 829h-434l416 -1399h356zM1196 1907l250 -320h-324l-90 125l-92 -125
h-324l252 320h328zM1032 1743l101 -137h276l-221 282h-311l-224 -282h279z" />
    <glyph glyph-name="wcircumflex" unicode="&#x175;" horiz-adv-x="1667" 
d="M1659 1042l-350 -1042h-314l-161 508l-164 -508h-314l-350 1042h406l133 -505l162 505h254l161 -505l133 505h404zM834 567l176 -551h286l338 1008h-366l-146 -553l-176 553h-227l-176 -553l-146 553h-364l338 -1008h286zM997 1497l250 -319h-323l-90 125l-93 -125h-323
l252 319h327zM834 1333l100 -137h276l-221 283h-311l-223 -283h278z" />
    <glyph glyph-name="Ycircumflex" unicode="&#x176;" horiz-adv-x="1476" 
d="M956 539v-539h-436v539l-516 895h483l252 -539l252 539h484zM539 543v-527h401v527l504 872h-443l-262 -563l-262 563h-442zM901 1907l250 -320h-324l-90 125l-92 -125h-323l251 320h328zM737 1743l101 -137h276l-221 282h-311l-224 -282h279z" />
    <glyph glyph-name="ycircumflex" unicode="&#x177;" horiz-adv-x="1185" 
d="M1182 1042l-568 -1433h-378l182 461l-414 972h406l182 -516l186 516h404zM436 70l-174 -443h340l553 1397h-364l-199 -551l-195 551h-364zM756 1497l250 -319h-324l-90 125l-92 -125h-324l252 319h328zM592 1333l100 -137h277l-221 283h-312l-223 -283h279z" />
    <glyph glyph-name="Ydieresis" unicode="&#x178;" horiz-adv-x="1476" 
d="M956 539v-539h-436v539l-516 895h483l252 -539l252 539h484zM539 543v-527h401v527l504 872h-443l-262 -563l-262 563h-442zM498 1554q-76 0 -130.5 54t-54.5 129q0 76 54 130t131 54q75 0 129.5 -54t54.5 -130q0 -75 -54.5 -129t-129.5 -54zM498 1905
q-69 0 -117.5 -49.5t-48.5 -118.5q0 -68 48.5 -117t117.5 -49q68 0 117 49.5t49 116.5q0 69 -49 118.5t-117 49.5zM975 1554q-75 0 -129.5 54t-54.5 129q0 76 54.5 130t129.5 54q77 0 130.5 -53.5t53.5 -130.5q0 -75 -54 -129t-130 -54zM975 1905q-69 0 -117.5 -49.5
t-48.5 -118.5q0 -68 48.5 -117t117.5 -49t117.5 49t48.5 117q0 69 -48.5 118.5t-117.5 49.5z" />
    <glyph glyph-name="Zacute" unicode="&#x179;" horiz-adv-x="1259" 
d="M1210 397v-397h-1161v338l2 2l545 694h-528v400h1108v-340l-2 -2l-545 -695h581zM68 332v-316h1126v365h-602l565 719v315h-1071v-362h547zM979 1907l-221 -320h-312l148 320h385zM606 1888l-133 -282h275l196 282h-338z" />
    <glyph glyph-name="zacute" unicode="&#x17a;" horiz-adv-x="1038" 
d="M971 342v-342h-903v264l387 436h-369v342h868v-264l-389 -436h406zM86 256v-240h868v308h-430l412 460v240h-832v-305h392zM868 1497l-221 -319h-311l147 319h385zM496 1479l-134 -283h275l197 283h-338z" />
    <glyph glyph-name="Zdotaccent" unicode="&#x17b;" horiz-adv-x="1259" 
d="M1210 397v-397h-1161v338l2 2l545 694h-528v400h1108v-340l-2 -2l-545 -695h581zM68 332v-316h1126v365h-602l565 719v315h-1071v-362h547zM631 1554q-76 0 -130.5 54t-54.5 129q0 76 54 130t131 54t130.5 -53.5t53.5 -130.5q0 -75 -54 -129t-130 -54zM631 1905
q-69 0 -117.5 -49.5t-48.5 -118.5q0 -68 48.5 -117t117.5 -49t117.5 49t48.5 117q0 69 -48.5 118.5t-117.5 49.5z" />
    <glyph glyph-name="zdotaccent" unicode="&#x17c;" horiz-adv-x="1038" 
d="M971 342v-342h-903v264l387 436h-369v342h868v-264l-389 -436h406zM86 256v-240h868v308h-430l412 460v240h-832v-305h392zM520 1145q-76 0 -130 53.5t-54 128.5q0 77 54 130.5t130 53.5q77 0 131 -54t54 -130q0 -75 -54.5 -128.5t-130.5 -53.5zM520 1495
q-69 0 -117.5 -49.5t-48.5 -118.5q0 -68 48.5 -117t117.5 -49t117.5 49t48.5 117q0 69 -48.5 118.5t-117.5 49.5z" />
    <glyph glyph-name="Zcaron" unicode="&#x17d;" horiz-adv-x="1259" 
d="M1210 397v-397h-1161v338l2 2l545 694h-528v400h1108v-340l-2 -2l-545 -695h581zM68 332v-316h1126v365h-602l565 719v315h-1071v-362h547zM1044 1907l-251 -320h-328l-252 320h324l92 -125l90 125h325zM250 1888l223 -282h311l222 282h-277l-100 -137l-101 137h-278z
" />
    <glyph glyph-name="zcaron" unicode="&#x17e;" horiz-adv-x="1038" 
d="M971 342v-342h-903v264l387 436h-369v342h868v-264l-389 -436h406zM86 256v-240h868v308h-430l412 460v240h-832v-305h392zM934 1497l-252 -319h-328l-252 319h324l92 -125l90 125h326zM139 1479l223 -283h312l221 283h-277l-100 -138l-100 138h-279z" />
    <glyph glyph-name="longs" unicode="&#x17f;" horiz-adv-x="804" 
d="M565 1042v-1042h-383v719h-125v323h125q3 224 109 340.5t307 116.5q59 0 158 -16l12 -2v-316l-10 2q-46 4 -62 4q-125 0 -131 -129zM201 735v-719h346v1016q0 76 38.5 117t110.5 41q18 0 54 -4v278q-79 17 -152 17q-197 0 -297 -113t-100 -336v-8h-127v-289h127z" />
    <glyph glyph-name="AEacute" unicode="&#x1fc;" horiz-adv-x="2017" 
d="M1946 362v-362h-979v227h-385l-99 -227h-473l680 1434h1237v-363h-524v-176h459v-346h-459v-187h543zM983 246v-230h944v328h-543v223h461v312h-461v208h525v328h-1207l-663 -1399h432l98 230h414zM983 1087v-563h-295l242 563h53zM942 1071l-225 -528h250v528h-25z
M1593 1907l-221 -320h-311l147 320h385zM1221 1888l-134 -282h275l197 282h-338z" />
    <glyph glyph-name="aeacute" unicode="&#x1fd;" horiz-adv-x="1826" 
d="M1286 -27q-269 0 -428 162q-53 -72 -163 -117t-238 -45q-15 0 -36 1.5t-63.5 8t-81 18t-83 35.5t-76.5 55.5t-53 81.5t-21 112q0 224 227 309q116 43 277 43v0v0v0v0v0v0v0v0v0v0h1v0v0v0v0h1v0v0h1v0v0h1v0v0h1v0h1v0h1v0h1v0h1h1v0h1v0h1h1v0h1h1h1h1v0h1h1h1h1h1h1h1
h1h1h1h1h1h1h1h1h1h1h1h1h1h1h1h1h1h1h1h1h1h1h1h1h1h1h1h1h1h1h1h1h1h1h1h1h1h1h1h1h1h1h1h1h1h1h1h1h1h1h1h1h1h1h1h1h1h1h1h1h1h1h1h1h1h1h1h1h1h1h1h1h1h1h1h1h1h1h10q-2 62 -38.5 96.5t-100.5 34.5q-46 0 -96 -16.5t-80 -42.5l-6 -4l-246 167l8 9q174 186 473 186
q221 0 332 -117q142 117 342 117q122 0 226.5 -43.5t177.5 -126.5q161 -185 127 -477v-6l-705 -2q48 -138 213 -138q59 0 106.5 24.5t75.5 57.5l5 6l260 -155l-4 -6q-60 -105 -179.5 -166.5t-263.5 -61.5zM850 154l6 10l8 -8q152 -164 422 -164q135 0 250 57t172 152
l-231 139q-30 -35 -80 -59.5t-111 -24.5q-90 0 -150 42t-83 120l-4 12h712q28 283 -125 455q-70 79 -171 121.5t-218 42.5q-198 0 -338 -119l-6 -6l-6 8q-105 117 -324 117q-283 0 -452 -172l217 -150q33 26 83.5 41.5t98.5 15.5q74 0 116 -41t42 -116v-9h-129
q-160 0 -273 -43q-215 -80 -215 -290q0 -58 20.5 -105.5t51 -77.5t72.5 -52t79 -32.5t78 -17t60.5 -7.5t34.5 -1q129 0 237.5 45t155.5 117zM520 250q-51 0 -80.5 25t-29.5 67q0 115 233 115h35v-127q-22 -34 -63.5 -57t-94.5 -23zM659 438h-16q-215 0 -215 -96
q0 -34 24.5 -54t67.5 -20q47 0 83 19.5t56 46.5v104zM1448 610l-399 -2q21 85 73.5 130.5t124.5 45.5q78 0 130 -42t69 -121zM1247 768q-62 0 -107 -37t-67 -104l352 2q-34 139 -178 139zM1284 1497l-221 -319h-311l147 319h385zM911 1479l-133 -283h275l196 283h-338z" />
    <glyph glyph-name="Oslashacute" unicode="&#x1fe;" horiz-adv-x="1597" 
d="M799 -27q-145 0 -276.5 50t-231.5 143l-119 -109l-86 95l121 108q-146 200 -146 457q0 212 95 381.5t264 264.5t379 95q148 0 279.5 -49t230.5 -143l118 108l84 -94l-118 -109q143 -193 143 -454q0 -212 -94.5 -382t-263 -266t-379.5 -96zM172 84l119 106l6 -4
q97 -94 227 -144t275 -50q206 0 370.5 93t256.5 259t92 373q0 260 -146 450l-4 7l119 108l-62 68l-116 -109l-6 6q-98 94 -228 143.5t-276 49.5q-205 0 -369.5 -92.5t-257 -258t-92.5 -372.5q0 -257 145 -453l6 -6l-118 -108zM799 379q-124 0 -207 74l-8 6l487 444l6 -10
q41 -77 41 -176q0 -152 -88 -245t-231 -93zM1065 874l-455 -415q77 -62 189 -62q135 0 218 88.5t83 231.5q0 85 -35 157zM1016 975l-490 -447l-4 11q-41 77 -41 178q0 151 87.5 243.5t230.5 92.5q125 0 209 -72zM799 1034q-135 0 -218 -87.5t-83 -229.5q0 -91 34 -158
l455 414q-73 61 -188 61zM1169 1907l-221 -320h-311l147 320h385zM797 1888l-133 -282h274l197 282h-338z" />
    <glyph glyph-name="oslashacute" unicode="&#x1ff;" horiz-adv-x="1196" 
d="M598 -27q-217 0 -369 125l-96 -88l-86 94l96 86q-104 141 -104 330q0 238 158 392.5t401 154.5q220 0 369 -125l98 88l84 -92l-94 -86q102 -141 102 -332q0 -237 -157.5 -392t-401.5 -155zM133 37l96 86l7 -4q145 -127 362 -127q154 0 278.5 68t194.5 189t70 271
q0 188 -107 326l-4 8l94 84l-61 68l-94 -88l-6 6q-149 125 -365 125q-235 0 -388 -149.5t-153 -379.5q0 -186 105 -325l6 -7l-94 -86zM598 328q-54 0 -98 24l-13 6l283 258l4 -12q17 -42 17 -84q0 -85 -53.5 -138.5t-139.5 -53.5zM762 586l-244 -224q40 -16 80 -16
q78 0 126 48t48 126q0 41 -10 66zM709 682l-281 -256l-6 12q-16 40 -16 82q0 86 53.5 139.5t138.5 53.5q52 0 100 -25zM598 694q-78 0 -126 -48t-48 -126q0 -30 10 -63l244 221q-33 16 -80 16zM948 1497l-221 -319h-311l147 319h385zM575 1479l-133 -283h275l196 283h-338z
" />
    <glyph glyph-name="Scommaaccent" unicode="&#x218;" horiz-adv-x="1228" 
d="M633 -27q-246 0 -406.5 103t-197.5 284l-2 9l376 116v-10q5 -53 63 -93t150 -40q76 0 112 27t36 67q0 15 -5 27.5t-18 22.5t-25.5 16.5t-37.5 14t-43 12t-53 12.5q-51 11 -60 14q-229 54 -332.5 159t-103.5 283q0 204 152.5 332.5t394.5 128.5q203 0 347 -103.5
t179 -275.5l2 -10l-373 -90l-2 8q-4 15 -12 30t-24 33t-45.5 29t-67.5 11q-56 0 -94.5 -22t-38.5 -69q0 -21 12 -37t38.5 -27.5t49.5 -18t64 -15.5q23 -5 61 -16q261 -72 366 -171t105 -272q0 -89 -37 -172t-106 -150t-179 -107t-245 -40zM387 463l-340 -107
q16 -70 51 -126.5t77.5 -93.5t97 -65t103.5 -42.5t102.5 -23.5t88 -11t66.5 -2q105 0 195 25.5t154 69t110 101t68 122t22 132.5q0 166 -102 261t-355 165q-28 8 -61 15q-106 26 -137 46q-42 27 -42 70q0 49 41.5 79t110.5 30q60 0 103.5 -29t60.5 -80l340 84
q-38 163 -176.5 260t-331.5 97q-233 0 -381 -124t-148 -319q0 -172 98.5 -272t323.5 -154q10 -2 60 -14q44 -9 65.5 -14.5t51 -16t43 -21.5t24 -28.5t10.5 -40.5q0 -47 -40 -79.5t-124 -32.5q-96 0 -157 40.5t-72 98.5zM811 -129l-174 -320h-272l118 320h328zM496 -147
l-105 -283h236l153 283h-284z" />
    <glyph glyph-name="scommaaccent" unicode="&#x219;" horiz-adv-x="1011" 
d="M496 -27q-46 0 -91.5 4t-110 19.5t-114.5 41t-93 73.5t-58 112l-2 8l335 105l3 -8q21 -80 127 -80q46 0 71 17t25 48q0 28 -31 42.5t-108 29.5q-47 9 -62 12q-80 17 -135.5 39.5t-101.5 59.5t-68.5 93t-22.5 132q0 155 129 250.5t338 95.5q90 0 173 -27t151 -88.5
t90 -148.5l2 -10l-309 -74l-2 8q-19 70 -103 70q-46 0 -72 -17.5t-26 -48.5q0 -17 10 -29t31 -20t38.5 -12.5t46.5 -10t42 -8.5q99 -21 165.5 -44t119.5 -60t77.5 -90.5t24.5 -128.5q0 -166 -129.5 -260.5t-359.5 -94.5zM350 313l-303 -94q16 -58 58 -102t90 -67t109.5 -37
t104.5 -17.5t87 -3.5q221 0 346 89t125 247q0 126 -84 195t-289 112q-8 2 -32.5 6t-36 6.5t-32.5 8t-32 11.5t-23.5 15t-18 21.5t-5.5 27.5q0 39 30 61.5t84 22.5q92 0 117 -76l275 68q-22 80 -87 136.5t-143.5 81t-163.5 24.5q-201 0 -324.5 -90t-123.5 -238q0 -72 21 -124
t64.5 -86.5t96.5 -56t131 -38.5q19 -5 54.5 -11.5t59 -12.5t48.5 -15.5t38 -25.5t13 -38q0 -39 -29 -60.5t-83 -21.5q-114 0 -142 82zM672 -129l-174 -320h-273l119 320h328zM356 -147l-104 -283h235l154 283h-285z" />
    <glyph glyph-name="circumflex" unicode="&#x2c6;" horiz-adv-x="1028" 
d="M678 1497l250 -319h-324l-90 125l-92 -125h-324l252 319h328zM514 1333l100 -137h277l-221 283h-312l-223 -283h279z" />
    <glyph glyph-name="caron" unicode="&#x2c7;" horiz-adv-x="1028" 
d="M930 1497l-252 -319h-328l-252 319h324l92 -125l90 125h326zM135 1479l223 -283h312l221 283h-277l-100 -138l-100 138h-279z" />
    <glyph glyph-name="breve" unicode="&#x2d8;" horiz-adv-x="911" 
d="M455 1151q-156 0 -251 90.5t-95 239.5v8h251v-8q0 -44 26 -70.5t69 -26.5q44 0 70 26.5t26 70.5v8h252v-8q0 -149 -95.5 -239.5t-252.5 -90.5zM342 1470h-217q3 -138 92.5 -219.5t237.5 -81.5q149 0 238.5 81.5t90.5 219.5h-215q-3 -48 -33.5 -76t-80.5 -28
q-49 0 -79.5 28t-33.5 76z" />
    <glyph glyph-name="dotaccent" unicode="&#x2d9;" horiz-adv-x="579" 
d="M291 1145q-76 0 -130.5 53.5t-54.5 128.5q0 76 54 130t131 54t130.5 -53.5t53.5 -130.5q0 -75 -54 -128.5t-130 -53.5zM291 1495q-69 0 -117.5 -49.5t-48.5 -118.5q0 -68 48.5 -117t117.5 -49t117.5 49t48.5 117q0 69 -48.5 118.5t-117.5 49.5z" />
    <glyph glyph-name="ring" unicode="&#x2da;" horiz-adv-x="729" 
d="M365 1090q-106 0 -181 75t-75 181t75 182t181 76q107 0 182.5 -76t75.5 -182t-75.5 -181t-182.5 -75zM365 1585q-99 0 -168.5 -69.5t-69.5 -169.5q0 -98 70 -168t168 -70q99 0 169 70t70 168q0 100 -69.5 169.5t-169.5 69.5zM365 1251q-38 0 -66.5 28.5t-28.5 66.5
q0 40 28 68t67 28q40 0 68 -28t28 -68q0 -38 -28.5 -66.5t-67.5 -28.5zM365 1423q-31 0 -53.5 -22.5t-22.5 -54.5q0 -31 22.5 -53.5t53.5 -22.5q32 0 54.5 22.5t22.5 53.5q0 32 -22.5 54.5t-54.5 22.5z" />
    <glyph glyph-name="ogonek" unicode="&#x2db;" horiz-adv-x="659" 
d="M305 16h250v-14l-6 -2q-63 -31 -110.5 -80t-47.5 -104q0 -44 25 -67t71 -23q27 0 68 14v-203l-6 -2q-79 -31 -174 -31q-126 0 -196 56.5t-70 156.5q0 93 58 173t136 126h2zM373 -184q0 53 38.5 100.5t98.5 83.5h-201q-75 -46 -129.5 -121t-54.5 -162q0 -92 66.5 -143
t183.5 -51q94 0 162 26v164q-21 -6 -50 -6q-54 0 -84 29t-30 80z" />
    <glyph glyph-name="tilde" unicode="&#x2dc;" horiz-adv-x="935" 
d="M625 1155q-63 0 -160 39q-62 20 -76 20q-41 0 -43 -49v-10l-240 43v8q34 258 224 258q47 0 121 -32q64 -27 94 -27q42 0 45 49v10l237 -41v-10q-15 -134 -63.5 -196t-138.5 -62zM389 1233q19 0 82 -23q101 -36 154 -36q80 0 124.5 56t59.5 177l-203 37q-9 -58 -61 -58
q-29 0 -101 29q-76 33 -114 33q-173 0 -203 -236l201 -34q10 55 61 55z" />
    <glyph glyph-name="hungarumlaut" unicode="&#x2dd;" horiz-adv-x="1206" 
d="M637 1497l-221 -319h-314l150 319h385zM264 1479l-133 -283h275l196 283h-338zM1104 1497l-221 -319h-314l150 319h385zM731 1479l-133 -283h274l197 283h-338z" />
    <glyph glyph-name="Wgrave" unicode="&#x1e80;" horiz-adv-x="2066" 
d="M2056 1434l-426 -1434h-383l-215 760l-213 -760h-385l-424 1434h471l185 -777l219 777h295l219 -777l184 777h473zM1032 825l228 -809h358l414 1399h-435l-196 -829l-234 829h-268l-233 -829l-199 829h-434l416 -1399h356zM1047 1907l149 -320h-313l-221 320h385z
M696 1888l197 -282h274l-133 282h-338z" />
    <glyph glyph-name="wgrave" unicode="&#x1e81;" horiz-adv-x="1667" 
d="M1659 1042l-350 -1042h-314l-161 508l-164 -508h-314l-350 1042h406l133 -505l162 505h254l161 -505l133 505h404zM834 567l176 -551h286l338 1008h-366l-146 -553l-176 553h-227l-176 -553l-146 553h-364l338 -1008h286zM848 1497l149 -319h-313l-221 319h385zM498 1479
l196 -283h275l-133 283h-338z" />
    <glyph glyph-name="Wacute" unicode="&#x1e82;" horiz-adv-x="2066" 
d="M2056 1434l-426 -1434h-383l-215 760l-213 -760h-385l-424 1434h471l185 -777l219 777h295l219 -777l184 777h473zM1032 825l228 -809h358l414 1399h-435l-196 -829l-234 829h-268l-233 -829l-199 829h-434l416 -1399h356zM1403 1907l-221 -320h-312l148 320h385z
M1030 1888l-133 -282h274l197 282h-338z" />
    <glyph glyph-name="wacute" unicode="&#x1e83;" horiz-adv-x="1667" 
d="M1659 1042l-350 -1042h-314l-161 508l-164 -508h-314l-350 1042h406l133 -505l162 505h254l161 -505l133 505h404zM834 567l176 -551h286l338 1008h-366l-146 -553l-176 553h-227l-176 -553l-146 553h-364l338 -1008h286zM1204 1497l-221 -319h-311l147 319h385z
M831 1479l-133 -283h275l196 283h-338z" />
    <glyph glyph-name="Wdieresis" unicode="&#x1e84;" horiz-adv-x="2066" 
d="M2056 1434l-426 -1434h-383l-215 760l-213 -760h-385l-424 1434h471l185 -777l219 777h295l219 -777l184 777h473zM1032 825l228 -809h358l414 1399h-435l-196 -829l-234 829h-268l-233 -829l-199 829h-434l416 -1399h356zM793 1554q-76 0 -130.5 54t-54.5 129
q0 76 54 130t131 54q75 0 129.5 -54t54.5 -130q0 -75 -54.5 -129t-129.5 -54zM793 1905q-69 0 -117.5 -49.5t-48.5 -118.5q0 -68 48.5 -117t117.5 -49q67 0 116 49t49 117q0 69 -48.5 118.5t-116.5 49.5zM1270 1554q-75 0 -130 54t-55 129q0 76 55 130t130 54
q76 0 130 -53.5t54 -130.5q0 -75 -54 -129t-130 -54zM1270 1905q-69 0 -117.5 -49.5t-48.5 -118.5q0 -68 48.5 -117t117.5 -49t117.5 49t48.5 117q0 69 -48.5 118.5t-117.5 49.5z" />
    <glyph glyph-name="wdieresis" unicode="&#x1e85;" horiz-adv-x="1667" 
d="M1659 1042l-350 -1042h-314l-161 508l-164 -508h-314l-350 1042h406l133 -505l162 505h254l161 -505l133 505h404zM834 567l176 -551h286l338 1008h-366l-146 -553l-176 553h-227l-176 -553l-146 553h-364l338 -1008h286zM594 1145q-76 0 -130 53.5t-54 128.5
q0 77 54 130.5t130 53.5q75 0 129.5 -54t54.5 -130q0 -75 -54.5 -128.5t-129.5 -53.5zM594 1495q-69 0 -117.5 -49.5t-48.5 -118.5q0 -68 48.5 -117t117.5 -49q68 0 117 49.5t49 116.5q0 69 -49 118.5t-117 49.5zM1071 1145q-75 0 -129.5 53.5t-54.5 128.5q0 76 54.5 130
t129.5 54q77 0 130.5 -53.5t53.5 -130.5q0 -75 -54 -128.5t-130 -53.5zM1071 1495q-69 0 -117.5 -49.5t-48.5 -118.5q0 -68 48.5 -117t117.5 -49t117.5 49t48.5 117q0 69 -48.5 118.5t-117.5 49.5z" />
    <glyph glyph-name="Ygrave" unicode="&#x1ef2;" horiz-adv-x="1476" 
d="M956 539v-539h-436v539l-516 895h483l252 -539l252 539h484zM539 543v-527h401v527l504 872h-443l-262 -563l-262 563h-442zM772 1907l150 -320h-314l-221 320h385zM422 1888l196 -282h275l-133 282h-338z" />
    <glyph glyph-name="ygrave" unicode="&#x1ef3;" horiz-adv-x="1185" 
d="M1182 1042l-568 -1433h-378l182 461l-414 972h406l182 -516l186 516h404zM436 70l-174 -443h340l553 1397h-364l-199 -551l-195 551h-364zM627 1497l149 -319h-313l-221 319h385zM276 1479l197 -283h275l-134 283h-338z" />
    <glyph glyph-name="endash" unicode="&#x2013;" horiz-adv-x="1028" 
d="M920 782v-342h-811v342h811zM127 764v-307h774v307h-774z" />
    <glyph glyph-name="emdash" unicode="&#x2014;" horiz-adv-x="1136" 
d="M1028 782v-342h-919v342h919zM127 764v-307h883v307h-883z" />
    <glyph glyph-name="quoteleft" unicode="&#x2018;" horiz-adv-x="606" 
d="M539 1325l-217 -475l-265 151l277 443zM340 1419l-256 -411l229 -134l203 445z" />
    <glyph glyph-name="quoteright" unicode="&#x2019;" horiz-adv-x="606" 
d="M541 1292l-275 -442l-207 119l217 475zM285 1419l-203 -444l178 -101l256 412z" />
    <glyph glyph-name="quotesinglbase" unicode="&#x201a;" horiz-adv-x="544" 
d="M487 172l-274 -440l-207 116l217 478zM231 299l-202 -442l178 -101l256 410z" />
    <glyph glyph-name="quotedblleft" unicode="&#x201c;" horiz-adv-x="1087" 
d="M1020 1325l-217 -475l-264 151l276 443zM821 1419l-256 -411l230 -134l202 445zM543 1325l-217 -475l-265 151l277 443zM344 1419l-256 -411l229 -134l203 445z" />
    <glyph glyph-name="quotedblright" unicode="&#x201d;" horiz-adv-x="1089" 
d="M545 1292l-275 -442l-207 119l218 475zM289 1419l-203 -444l178 -101l256 412zM1022 1292l-274 -442l-207 119l217 475zM766 1419l-203 -444l178 -101l256 412z" />
    <glyph glyph-name="quotedblbase" unicode="&#x201e;" horiz-adv-x="1028" 
d="M489 172l-274 -440l-207 116l217 478zM233 299l-202 -442l178 -101l256 410zM967 172l-275 -440l-207 116l217 478zM711 299l-203 -442l178 -101l256 410z" />
    <glyph glyph-name="dagger" unicode="&#x2020;" horiz-adv-x="1069" 
d="M727 840v-840h-383v840h-235v342h235v252h383v-252h236v-342h-236zM362 856v-840h347v840h235v307h-235v252h-347v-252h-235v-307h235z" />
    <glyph glyph-name="daggerdbl" unicode="&#x2021;" horiz-adv-x="1071" 
d="M727 252v-252h-383v252h-233v342h233v246h-233v342h233v252h383v-252h236v-342h-236v-246h236v-342h-236zM362 270v-254h347v254h235v305h-235v281h235v307h-235v252h-347v-252h-235v-307h235v-281h-235v-305h235z" />
    <glyph glyph-name="bullet" unicode="&#x2022;" horiz-adv-x="772" 
d="M385 348q-123 0 -211 87.5t-88 211.5q0 123 88 211t211 88q124 0 211.5 -88t87.5 -211q0 -125 -87 -212t-212 -87zM385 928q-117 0 -199 -82t-82 -199t82 -199.5t199 -82.5t199 82.5t82 199.5t-82 199t-199 82z" />
    <glyph glyph-name="ellipsis" unicode="&#x2026;" horiz-adv-x="1634" 
d="M272 -27q-86 0 -146 61t-60 148q0 85 60 146t146 61t146.5 -61t60.5 -146q0 -86 -60.5 -147.5t-146.5 -61.5zM272 371q-78 0 -134 -55.5t-56 -133.5t56 -134t134 -56t133.5 56t55.5 134t-55.5 133.5t-133.5 55.5zM817 -27q-86 0 -146.5 61.5t-60.5 147.5q0 85 60.5 146
t146.5 61t146.5 -61t60.5 -146q0 -86 -60.5 -147.5t-146.5 -61.5zM817 371q-78 0 -134 -55.5t-56 -133.5t56 -134t134 -56t133.5 56t55.5 134t-55.5 133.5t-133.5 55.5zM1362 -27q-86 0 -146.5 61.5t-60.5 147.5q0 85 60.5 146t146.5 61t146.5 -61t60.5 -146
q0 -86 -60.5 -147.5t-146.5 -61.5zM1362 371q-78 0 -134.5 -55.5t-56.5 -133.5t56.5 -134t134.5 -56t133 56t55 134t-55 133.5t-133 55.5z" />
    <glyph glyph-name="perthousand" unicode="&#x2030;" horiz-adv-x="2650" 
d="M1483 1434l-946 -1434h-220l947 1434h219zM1272 1415l-922 -1399h176l922 1399h-176zM449 702q-155 0 -264 109.5t-109 263.5q0 155 109 264t264 109q154 0 263 -109t109 -264q0 -154 -109 -263.5t-263 -109.5zM449 1430q-148 0 -251.5 -103.5t-103.5 -251.5
q0 -147 104 -250.5t251 -103.5q146 0 250 104t104 250q0 147 -103.5 251t-250.5 104zM449 954q-51 0 -86 35.5t-35 85.5q0 51 35 86t86 35q50 0 85 -35t35 -86q0 -50 -35.5 -85.5t-84.5 -35.5zM449 1178q-43 0 -73 -30t-30 -73q0 -41 30 -71.5t73 -30.5q41 0 71.5 30.5
t30.5 71.5q0 43 -30.5 73t-71.5 30zM1352 -16q-155 0 -264 109t-109 263t109 263.5t264 109.5q154 0 263 -109.5t109 -263.5t-109 -263t-263 -109zM1352 711q-148 0 -252.5 -103.5t-104.5 -251.5q0 -146 104.5 -250t252.5 -104q146 0 250 104t104 250q0 148 -104 251.5
t-250 103.5zM1352 236q-51 0 -86 35t-35 85q0 51 35 86t86 35q50 0 85.5 -35t35.5 -86q0 -49 -35.5 -84.5t-85.5 -35.5zM1352 459q-43 0 -73 -30t-30 -73t30 -72.5t73 -29.5q42 0 72 30t30 72t-30 72.5t-72 30.5zM2198 -16q-154 0 -262.5 109t-108.5 263t108.5 263.5
t262.5 109.5q155 0 263.5 -109.5t108.5 -263.5t-108.5 -263t-263.5 -109zM2198 711q-147 0 -251 -104t-104 -251q0 -146 104.5 -250t250.5 -104q148 0 252 104t104 250q0 148 -104 251.5t-252 103.5zM2198 236q-49 0 -84 35t-35 85q0 51 34.5 86t84.5 35q51 0 85.5 -35
t34.5 -86q0 -50 -34.5 -85t-85.5 -35zM2198 459q-42 0 -72.5 -30.5t-30.5 -72.5t30.5 -72t72.5 -30q43 0 73.5 29.5t30.5 72.5t-30.5 73t-73.5 30z" />
    <glyph glyph-name="guilsinglleft" unicode="&#x2039;" horiz-adv-x="765" 
d="M444 516l261 -385h-381l-261 385l261 385h381zM84 516l250 -366h338l-250 366l250 367h-338z" />
    <glyph glyph-name="guilsinglright" unicode="&#x203a;" horiz-adv-x="768" 
d="M707 516l-263 -385h-381l263 385l-263 385h381zM346 516l-250 -366h338l250 366l-250 367h-338z" />
    <glyph glyph-name="fraction" unicode="&#x2044;" horiz-adv-x="1062" 
d="M999 1628l-589 -1825h-344l589 1825h344zM670 1610l-580 -1788h305l580 1788h-305z" />
    <glyph glyph-name="Euro" unicode="&#x20ac;" horiz-adv-x="1542" 
d="M913 -27q-262 0 -455.5 147.5t-256.5 393.5h-170v162h145v80h-145v162h170q63 247 256 393.5t456 146.5q182 0 337.5 -75.5t256.5 -213.5l6 -8l-362 -237l-6 6q-81 104 -232 104q-160 0 -241 -116h297v-162h-355q-6 -42 0 -80h355v-162h-297q82 -117 241 -117
q151 0 232 107l6 6l362 -240q-106 -142 -262 -219.5t-338 -77.5zM47 657v-125h168l2 -6q60 -244 249 -389t447 -145q175 0 325.5 72t248.5 202l-332 219q-89 -106 -242 -106q-178 0 -266 139l-8 14h311v125h-352q-10 53 0 117h352v125h-311l8 14q89 140 266 140
q152 0 242 -107l332 219q-98 131 -248.5 203t-325.5 72q-258 0 -447 -145t-249 -388l-2 -8h-168v-125h150v-117h-150z" />
    <glyph glyph-name="ruble" unicode="&#x20bd;" horiz-adv-x="1458" 
d="M666 166v-166h-437v166h-157v162h157v73h-157v363h157v670h590q281 0 434.5 -140t153.5 -395q0 -245 -149.5 -371.5t-438.5 -126.5h-153v-73h344v-162h-344zM248 184v-168h399v168h346v127h-346v109h172q85 0 160 11t153 43.5t133 84t90.5 139t35.5 201.5q0 246 -150 381
t-422 135h-571v-670h-158v-325h158v-109h-158v-127h158zM819 745h-172v308h172q77 0 121.5 -41t44.5 -113t-44.5 -113t-121.5 -41zM666 1034v-270h153q71 0 109.5 35.5t38.5 99.5q0 63 -39.5 99t-108.5 36h-153z" />
    <glyph glyph-name="bitcoin" unicode="&#x20bf;" horiz-adv-x="1337" 
d="M930 18v-241h-180v223h-39h-107v-223h-180v223h-313v1434h313v223h180v-223h53q31 0 93 -4v227h180v-252q305 -73 305 -363q0 -200 -162 -288q217 -100 217 -326q0 -336 -360 -410zM768 18v-225h143v240l7 2q354 67 354 393q0 222 -215 311l-4 2v21l4 2q162 85 162 278
q0 279 -301 349h-7v247h-143v-227h-10q-66 4 -101 4h-71v223h-144v-223h-313v-1399h313v-223h144v223h125q8 0 24 1t23 1h10zM694 326h-166v274h166q83 0 127.5 -35t44.5 -100q0 -66 -45 -102.5t-127 -36.5zM547 582v-238h147q74 0 114 31.5t40 89.5q0 117 -154 117h-147z
M639 854h-111v270h111q83 0 128.5 -35t45.5 -100t-45.5 -100t-128.5 -35zM547 1106v-234h92q75 0 115.5 30t40.5 87q0 36 -15.5 61t-41.5 36t-49.5 15.5t-49.5 4.5h-92z" />
    <glyph glyph-name="afii61352" unicode="&#x2116;" horiz-adv-x="2320" 
d="M1896 733q-149 0 -254.5 105t-105.5 254t105.5 253.5t254.5 104.5q148 0 253.5 -104.5t105.5 -253.5t-105.5 -254t-253.5 -105zM1896 1432q-141 0 -241.5 -99.5t-100.5 -240.5t100.5 -241.5t241.5 -100.5q140 0 240 100.5t100 241.5t-100 240.5t-240 99.5zM1896 985
q-44 0 -76 31.5t-32 75.5t32 75t76 31q43 0 75 -31t32 -75t-32 -75.5t-75 -31.5zM1896 1180q-37 0 -63.5 -25.5t-26.5 -62.5t26.5 -62.5t63.5 -25.5t63 25.5t26 62.5t-26 62.5t-63 25.5zM2230 639v-324h-669v324h669zM1579 621v-289h635v289h-635zM1399 1434v-1434h-387
l-467 731v-731h-436v1434h387l469 -734v734h434zM526 793l496 -777h360v1399h-399v-776l-498 776h-360v-1399h401v777z" />
    <glyph glyph-name="minus" unicode="&#x2212;" horiz-adv-x="917" 
d="M811 782v-342h-702v342h702zM127 764v-307h668v307h-668z" />
    <glyph glyph-name="approxequal" unicode="&#x2248;" horiz-adv-x="1189" 
d="M836 637q-99 0 -250 55q-121 37 -160 37q-38 0 -64.5 -20.5t-35.5 -57.5l-2 -8l-236 59q53 318 289 318q87 0 221 -53q95 -35 131 -35q65 0 82 74l2 8l289 -60v-8q-19 -149 -87.5 -229t-178.5 -80zM426 748q49 0 164 -39q56 -19 82 -26.5t75 -17.5t89 -10q50 0 90 17.5
t66 45t45 66t29 76t15 80.5l-256 53q-18 -80 -96 -80q-12 0 -24 1.5t-28.5 6.5t-24.5 7.5t-31 11t-29 10.5q-129 51 -215 51q-64 0 -113.5 -25t-80 -69t-47.5 -90.5t-27 -101.5l202 -51q12 40 42 62t73 22zM836 203q-90 0 -230 53q-103 39 -145 39q-34 0 -52.5 -18.5
t-27.5 -59.5l-2 -10l-291 59q53 318 289 318q90 0 252 -52q115 -34 153 -34q66 0 82 73l2 9l236 -60v-8q-19 -150 -87.5 -229.5t-178.5 -79.5zM461 313q10 0 20.5 -1t22.5 -4t19.5 -4.5t22.5 -7t20.5 -7.5t23.5 -9t22 -8q129 -51 224 -51q61 0 107.5 25t74 68.5t42 90
t21.5 101.5l-200 51q-27 -78 -99 -78q-42 0 -159 37q-169 51 -246 51q-64 0 -113.5 -25t-80 -69t-47.5 -90.5t-27 -101.5l256 -52q11 38 32 61t64 23z" />
    <glyph glyph-name="notequal" unicode="&#x2260;" horiz-adv-x="1028" 
d="M455 242l-66 -152h-199l66 152h-145v305h278l55 127h-333v305h464l66 154h199l-66 -154h146v-305h-279l-55 -127h334v-305h-465zM285 260l-66 -154h158l65 154h461v270h-344l70 162h274v271h-158l66 151h-158l-65 -151h-461v-271h344l-70 -162h-274v-270h158z" />
    <glyph glyph-name="lessequal" unicode="&#x2264;" horiz-adv-x="1028" 
d="M920 324v-324h-811v324h811zM127 305v-289h774v289h-774zM920 717v-309l-811 288v299l811 289v-309l-482 -129zM127 983v-274l774 -275v268l-530 144l530 143v268z" />
    <glyph glyph-name="greaterequal" unicode="&#x2265;" horiz-adv-x="1028" 
d="M920 324v-324h-811v324h811zM127 305v-289h774v289h-774zM920 696l-811 -288v309l481 129l-481 129v309l811 -289v-299zM657 846l-530 -144v-268l774 275v274l-774 274v-268z" />
    <glyph glyph-name="commaaccent" unicode="&#xf6c3;" horiz-adv-x="649" 
d="M553 -129l-174 -320h-273l119 320h328zM238 -147l-105 -283h236l153 283h-284z" />
    </font>
</defs>
</svg>
