<?xml version="1.0" standalone="no"?>
<!DOCTYPE svg PUBLIC "-//W3C//DTD SVG 1.1//EN" "http://www.w3.org/Graphics/SVG/1.1/DTD/svg11.dtd" >
<svg xmlns="http://www.w3.org/2000/svg" xmlns:xlink="http://www.w3.org/1999/xlink" version="1.1">
<metadata>
Created by FontForge 20170731 at Thu Feb  3 13:38:57 2022
 By Aleksey,,,
Copyright (c) 2020 by MadeType. All rights reserved.
</metadata>
<defs>
<font id="MADETOMMY-Light" horiz-adv-x="1177" >
  <font-face 
    font-family="MADE TOMMY"
    font-weight="300"
    font-stretch="normal"
    units-per-em="2048"
    panose-1="2 0 5 3 0 0 0 2 0 4"
    ascent="1638"
    descent="-410"
    x-height="1038"
    cap-height="1434"
    bbox="-84 -512 2470 1972"
    underline-thickness="102"
    underline-position="-307"
    unicode-range="U+0020-F6C3"
  />
<missing-glyph horiz-adv-x="573" 
 />
    <glyph glyph-name=".notdef" horiz-adv-x="573" 
 />
    <glyph glyph-name=".null" horiz-adv-x="0" 
 />
    <glyph glyph-name="nonmarkingreturn" horiz-adv-x="682" 
 />
    <glyph glyph-name="space" unicode=" " horiz-adv-x="573" 
 />
    <glyph glyph-name="exclam" unicode="!" horiz-adv-x="499" 
d="M250 145q35 0 60.5 -25.5t25.5 -60.5t-25.5 -60.5t-60.5 -25.5t-60.5 25.5t-25.5 60.5t25.5 60.5t60.5 25.5zM287 389h-74l-16 1045h108z" />
    <glyph glyph-name="quotedbl" unicode="&#x22;" horiz-adv-x="698" 
d="M143 977v457h93v-457h-93zM463 1434h92v-457h-92v457z" />
    <glyph glyph-name="numbersign" unicode="#" horiz-adv-x="1333" 
d="M1219 877h-256l-54 -318h260l-14 -90h-260l-61 -379h-95l64 379h-352l-62 -379h-92l61 379h-256l15 90h256l53 318h-260l14 90h260l62 374h92l-62 -374h353l61 374h92l-61 -374h254zM817 559l51 318h-350l-53 -318h352z" />
    <glyph glyph-name="dollar" unicode="$" horiz-adv-x="1110" 
d="M1028 385q0 -70 -24 -136.5t-71.5 -125.5t-129.5 -99t-187 -49v-202h-90v202q-170 10 -289 105t-155 221l104 33q28 -99 127 -174.5t248 -75.5q162 0 259.5 81.5t97.5 219.5q0 50 -17 90t-43.5 66.5t-73.5 50t-92.5 38.5t-116.5 34q-52 14 -85 24t-83.5 29t-83.5 38.5
t-71.5 50t-60.5 65.5t-37 83t-15 105q0 165 112.5 277.5t274.5 121.5v201h90v-205q127 -15 218.5 -91t130.5 -204l-107 -26q-70 217 -307 217q-125 0 -213 -81.5t-88 -209.5q0 -51 17 -91.5t44.5 -69t75 -52.5t96.5 -40.5t121 -35.5q53 -14 86 -24t82.5 -29t81 -37.5
t68 -48.5t57.5 -63.5t35 -80.5t14 -102z" />
    <glyph glyph-name="percent" unicode="%" horiz-adv-x="1792" 
d="M1315 1434h108l-946 -1434h-108zM754 1081q0 -130 -92.5 -222.5t-223.5 -92.5q-130 0 -222.5 92t-92.5 223t92.5 223.5t222.5 92.5t223 -92.5t93 -223.5zM213 1081q0 -93 66 -159t159 -66t159.5 66t66.5 159q0 92 -67 158t-159 66t-158.5 -66t-66.5 -158zM1352 668
q131 0 224 -93t93 -223t-93 -222.5t-224 -92.5t-223.5 92.5t-92.5 222.5t93 223t223 93zM1352 127q94 0 159.5 65.5t65.5 159.5q0 93 -66 159.5t-159 66.5q-92 0 -158 -67t-66 -159q0 -94 66 -159.5t158 -65.5z" />
    <glyph glyph-name="ampersand" unicode="&#x26;" horiz-adv-x="1425" 
d="M1087 291q199 -176 338 -291h-170q-62 52 -231 201q-180 -228 -465 -228q-203 0 -340 116t-137 290q0 298 332 440q-107 171 -107 295q0 147 99 245.5t243 98.5q77 0 140 -25t102.5 -66.5t60.5 -92.5t21 -105q0 -65 -22 -120t-55.5 -93.5t-87.5 -75t-103.5 -59.5
t-118.5 -51q56 -65 174 -180q68 -65 244 -223q70 123 88 262l108 -15q-22 -169 -113 -323zM649 1350q-104 0 -168.5 -65.5t-64.5 -170.5q0 -60 27 -120.5t75 -135.5q183 72 264.5 138t81.5 173q0 70 -58.5 125.5t-156.5 55.5zM559 84q133 0 221 49.5t162 140.5
q-141 125 -258 236q-144 141 -207 217q-57 -20 -105.5 -50t-91 -72t-66.5 -100t-24 -126q0 -128 105.5 -211.5t263.5 -83.5z" />
    <glyph glyph-name="quotesingle" unicode="'" horiz-adv-x="376" 
d="M143 1434h90v-457h-90v457z" />
    <glyph glyph-name="parenleft" unicode="(" horiz-adv-x="667" 
d="M524 1542q-53 -85 -91 -158t-78.5 -177t-61.5 -228t-21 -262q0 -112 15.5 -218t38.5 -186.5t58.5 -162.5t66.5 -137.5t73 -121.5l-75 -57q-48 76 -80 131t-75 146.5t-68 175t-43.5 197t-18.5 233.5q0 119 18.5 232.5t43.5 196.5t68 174.5t74.5 146t80.5 132.5z" />
    <glyph glyph-name="parenright" unicode=")" horiz-adv-x="667" 
d="M219 1599q49 -78 80.5 -132.5t74.5 -146t68 -174.5t43.5 -196.5t18.5 -232.5q0 -120 -18.5 -233.5t-43.5 -197t-68 -175t-75 -146.5t-80 -131l-76 57q53 83 91 157t77.5 177.5t60.5 228t21 263.5q0 138 -21 262t-61 228t-77.5 177t-90.5 158z" />
    <glyph glyph-name="asterisk" unicode="*" horiz-adv-x="915" 
d="M823 1128l-303 -81l197 -244l-88 -66l-172 262l-170 -262l-90 66l196 244l-301 81l33 103l293 -111l-15 314h109l-16 -314l292 111z" />
    <glyph glyph-name="plus" unicode="+" horiz-adv-x="1130" 
d="M967 664v-109h-346v-346h-111v346h-346v109h346v348h111v-348h346z" />
    <glyph glyph-name="comma" unicode="," horiz-adv-x="419" 
d="M211 168l106 -62l-217 -333l-59 34z" />
    <glyph glyph-name="hyphen" unicode="-" horiz-adv-x="983" 
d="M164 664h655v-109h-655v109z" />
    <glyph glyph-name="period" unicode="." horiz-adv-x="376" 
d="M188 145q35 0 60.5 -25.5t25.5 -60.5t-25.5 -60.5t-60.5 -25.5t-60.5 25.5t-25.5 60.5t25.5 60.5t60.5 25.5z" />
    <glyph glyph-name="slash" unicode="/" horiz-adv-x="911" 
d="M694 1630h115l-592 -1829h-115z" />
    <glyph glyph-name="zero" unicode="0" horiz-adv-x="1267" 
d="M635 1458q108 0 197.5 -43t150 -114.5t102.5 -168t61 -201t19 -214.5q0 -111 -19 -216t-61 -201.5t-102.5 -168.5t-150 -115t-197.5 -43t-198 43t-151 115t-103.5 168.5t-61.5 201.5t-19 216q0 110 19 214.5t61.5 200.5t103.5 168t151 115t198 43zM635 84q91 0 164.5 39
t120.5 102t79 147t45 170t13 175t-13 175t-45 170t-79 147t-120.5 102t-164.5 39t-165 -39t-121.5 -102t-79 -147t-45 -170t-13.5 -175t13.5 -175t45 -170t79 -147t121.5 -102t165 -39z" />
    <glyph glyph-name="one" unicode="1" horiz-adv-x="886" 
d="M508 1434h92v-1434h-108v1288l-353 -235l-57 94z" />
    <glyph glyph-name="two" unicode="2" horiz-adv-x="1083" 
d="M260 109h701v-109h-848v109q64 71 234 267t188 218q142 168 186 235q86 128 86 234q0 127 -79 207t-191 80q-121 0 -205.5 -72t-108.5 -201l-108 21q34 166 148.5 263t273.5 97q167 0 272.5 -115.5t105.5 -279.5q0 -66 -18 -127t-60 -127t-78.5 -114t-105.5 -131
q-23 -28 -35 -42q-3 -4 -51.5 -60.5t-101.5 -118.5t-113.5 -131t-91.5 -103z" />
    <glyph glyph-name="three" unicode="3" horiz-adv-x="1142" 
d="M760 758q127 -38 203.5 -127t76.5 -230q0 -102 -39 -185t-104.5 -135t-147 -80t-169.5 -28q-184 0 -317.5 94t-160.5 230l107 22q19 -97 122.5 -166t248.5 -69q67 0 128.5 19t111.5 56.5t80 100t30 141.5q0 77 -27.5 134t-66.5 87.5t-93.5 48.5t-95.5 22.5t-86 4.5h-106
v99h112q51 0 99 13.5t94.5 42.5t75 86t28.5 134q0 117 -79 197t-201 80q-114 0 -197.5 -62t-110.5 -158l-106 21q34 136 147 221.5t267 85.5q166 0 278.5 -112t112.5 -273q0 -110 -57.5 -191.5t-157.5 -123.5z" />
    <glyph glyph-name="four" unicode="4" horiz-adv-x="1249" 
d="M1137 449v-111h-205v-338h-109v338h-710v111l665 985h154v-985h205zM238 449h585v864z" />
    <glyph glyph-name="five" unicode="5" horiz-adv-x="1120" 
d="M578 907q83 0 160.5 -29t140.5 -83.5t101 -142.5t38 -195q0 -114 -41 -208t-107.5 -153t-148.5 -91t-168 -32q-171 0 -297.5 94.5t-153.5 229.5l107 22q19 -97 116.5 -166t227.5 -69q64 0 126 23t114 67.5t84 118t32 164.5q0 85 -29 152.5t-77.5 107.5t-106 61t-118.5 21
q-108 0 -190 -43.5t-126 -108.5l-110 27l88 760h702v-111h-610l-62 -532q123 116 308 116z" />
    <glyph glyph-name="six" unicode="6" horiz-adv-x="1171" 
d="M586 942q131 0 242 -65t176 -176.5t65 -243.5q0 -131 -65 -242.5t-176 -176.5t-242 -65t-242.5 65t-176.5 176.5t-65 242.5q0 87 32.5 165t92.5 166l439 646h133l-369 -523q84 31 156 31zM586 84q155 0 265 109.5t110 263.5q0 155 -110 264.5t-265 109.5t-265 -109.5
t-110 -264.5q0 -154 110 -263.5t265 -109.5z" />
    <glyph glyph-name="seven" unicode="7" horiz-adv-x="1064" 
d="M113 1434h839v-93l-553 -1341h-118l546 1323h-714v111z" />
    <glyph glyph-name="eight" unicode="8" horiz-adv-x="1183" 
d="M799 770q128 -46 205 -143.5t77 -227.5q0 -185 -138.5 -305.5t-350.5 -120.5t-351 120.5t-139 305.5q0 129 76.5 227.5t204.5 143.5q-96 46 -152.5 127.5t-56.5 185.5q0 161 120 268t298 107q177 0 296.5 -107t119.5 -268q0 -104 -56.5 -185.5t-152.5 -127.5zM283 1083
q0 -116 88 -191t221 -75t220 75t87 191q0 115 -87.5 191t-219.5 76t-220.5 -76t-88.5 -191zM592 84q166 0 272.5 88.5t106.5 226.5t-106.5 227t-272.5 89t-272.5 -89t-106.5 -227t106.5 -226.5t272.5 -88.5z" />
    <glyph glyph-name="nine" unicode="9" horiz-adv-x="1171" 
d="M586 492q-131 0 -242.5 65t-176.5 176t-65 242t65 242t176.5 176t242.5 65t242 -65t176 -176t65 -242q0 -86 -33 -165.5t-92 -166.5l-438 -643h-133l368 522q-73 -30 -155 -30zM586 1350q-155 0 -265 -110t-110 -265t110 -265t265 -110t265 110t110 265t-110 265
t-265 110z" />
    <glyph glyph-name="colon" unicode=":" horiz-adv-x="458" 
d="M229 145q35 0 60.5 -25.5t25.5 -60.5t-25.5 -60.5t-60.5 -25.5t-60.5 25.5t-25.5 60.5t25.5 60.5t60.5 25.5zM229 891q-35 0 -60.5 25.5t-25.5 60.5t25.5 60.5t60.5 25.5t60.5 -25.5t25.5 -60.5t-25.5 -60.5t-60.5 -25.5z" />
    <glyph glyph-name="semicolon" unicode=";" horiz-adv-x="507" 
d="M281 1063q35 0 59.5 -25.5t24.5 -60.5t-24.5 -60.5t-59.5 -25.5t-60.5 25.5t-25.5 60.5t25.5 60.5t60.5 25.5zM61 -193l172 361l107 -62l-217 -333z" />
    <glyph glyph-name="less" unicode="&#x3c;" horiz-adv-x="1056" 
d="M893 948v-119l-596 -266l596 -266v-119l-729 326v119z" />
    <glyph glyph-name="equal" unicode="=" horiz-adv-x="1093" 
d="M164 827h766v-108h-766v108zM164 391v109h766v-109h-766z" />
    <glyph glyph-name="greater" unicode="&#x3e;" horiz-adv-x="1058" 
d="M164 948l731 -325v-119l-731 -326v119l598 266l-598 266v119z" />
    <glyph glyph-name="question" unicode="?" horiz-adv-x="894" 
d="M453 145q35 0 60.5 -25.5t25.5 -60.5t-25.5 -60.5t-60.5 -25.5t-60.5 25.5t-25.5 60.5t25.5 60.5t60.5 25.5zM449 1458q160 0 272.5 -111t112.5 -268q0 -56 -12 -103.5t-39 -90.5t-47.5 -68.5t-59.5 -68.5q-41 -45 -62.5 -72t-49.5 -73t-41.5 -98t-14.5 -116h-109
q1 78 17.5 143t50 120.5t58 87t69.5 81.5q36 39 52.5 60t38.5 55t31 68t9 75q0 112 -81 191.5t-195 79.5q-111 0 -182 -65t-99 -159l-107 25q38 141 144 224t244 83z" />
    <glyph glyph-name="at" unicode="@" horiz-adv-x="1888" 
d="M950 1485q172 0 314 -49t233 -126.5t153 -178t88.5 -198t26.5 -192.5q0 -205 -87 -333.5t-234 -128.5q-174 0 -217 198q-48 -87 -133 -137.5t-191 -50.5q-161 0 -269 114.5t-108 280.5q0 164 116.5 279.5t279.5 115.5q96 0 173 -43t124 -118v151h100v-479
q0 -125 35.5 -173t99.5 -48q85 0 153 102.5t68 269.5q0 68 -17 139.5t-52 146t-94.5 140t-136.5 117t-187 81.5t-238 30q-112 0 -210 -25t-171.5 -67.5t-134 -100t-100.5 -121.5t-67.5 -133.5t-39.5 -134.5t-12 -125q0 -105 26.5 -206.5t84 -194t139.5 -162t201 -111
t260 -41.5q251 0 426 140l57 -72q-199 -158 -483 -158q-153 0 -285 45t-225.5 122.5t-160.5 180.5t-99.5 219t-32.5 238q0 68 13.5 141t44.5 151t76.5 150.5t113 137.5t150 113t193 76t236.5 28zM922 397q118 0 202 84t84 203t-84 203t-202 84t-202.5 -84.5t-84.5 -202.5
q0 -120 82.5 -203.5t204.5 -83.5z" />
    <glyph glyph-name="A" unicode="A" horiz-adv-x="1308" 
d="M1130 0l-149 401h-653l-150 -401h-117l535 1434h117l534 -1434h-117zM369 512h571l-285 764z" />
    <glyph glyph-name="B" unicode="B" horiz-adv-x="1202" 
d="M834 756q133 -37 209.5 -127.5t76.5 -231.5q0 -190 -131.5 -293.5t-337.5 -103.5h-487v1434h457q195 0 310.5 -103.5t115.5 -267.5q0 -105 -55.5 -183t-157.5 -118v-6zM621 1323h-349v-526h349q149 0 233 73t84 193q0 118 -83.5 189t-233.5 71zM651 109q162 0 261.5 71.5
t99.5 216.5q0 99 -49 166.5t-128 97t-184 29.5h-379v-581h379z" />
    <glyph glyph-name="C" unicode="C" horiz-adv-x="1460" 
d="M827 84q142 0 263 58.5t206 162.5l93 -61q-101 -126 -247.5 -198.5t-314.5 -72.5q-201 0 -368 100t-262 270.5t-95 373.5q0 151 56 288t152 236.5t231 158t286 58.5q169 0 315.5 -71.5t246.5 -198.5l-93 -60q-86 104 -207 163t-262 59q-172 0 -313.5 -85.5t-221 -230.5
t-79.5 -317q0 -173 80 -318t221 -230t313 -85z" />
    <glyph glyph-name="D" unicode="D" horiz-adv-x="1400" 
d="M592 1434q202 0 363.5 -93.5t252 -257t90.5 -366.5t-90.5 -366.5t-252 -257t-363.5 -93.5h-428v1434h428zM592 109q261 0 429.5 172t168.5 436q0 262 -168.5 434t-429.5 172h-320v-1214h320z" />
    <glyph glyph-name="E" unicode="E" horiz-adv-x="1056" 
d="M272 109h682v-109h-790v1434h772v-111h-664v-526h617v-109h-617v-579z" />
    <glyph glyph-name="F" unicode="F" horiz-adv-x="1067" 
d="M965 1323h-693v-545h615v-108h-615v-670h-108v1434h801v-111z" />
    <glyph glyph-name="G" unicode="G" horiz-adv-x="1632" 
d="M866 774h623v-774h-72l-26 303q-77 -155 -221 -242.5t-343 -87.5q-201 0 -368 100t-262 270.5t-95 373.5q0 151 56 288t152 236.5t231 158t286 58.5q169 0 315.5 -71.5t246.5 -198.5l-93 -60q-85 104 -207 163t-262 59q-172 0 -314 -85.5t-222 -230.5t-80 -317
q0 -173 80.5 -318t222 -230t313.5 -85t298 78t189 208t66 296h-514v108z" />
    <glyph glyph-name="H" unicode="H" horiz-adv-x="1382" 
d="M1108 1434h111v-1434h-111v668h-834v-668h-110v1434h110v-656h834v656z" />
    <glyph glyph-name="I" unicode="I" horiz-adv-x="438" 
d="M164 1434h110v-1434h-110v1434z" />
    <glyph glyph-name="J" unicode="J" horiz-adv-x="1144" 
d="M870 1434h111v-971q0 -229 -122 -359.5t-322 -130.5q-180 0 -304 104t-151 288l106 20q21 -147 115 -224t234 -77q156 0 244.5 97t88.5 282v971z" />
    <glyph glyph-name="K" unicode="K" horiz-adv-x="1163" 
d="M1102 0h-154l-674 700v-700h-110v1434h110v-689l623 689h145l-639 -709z" />
    <glyph glyph-name="L" unicode="L" horiz-adv-x="1042" 
d="M274 109h666v-109h-776v1434h110v-1325z" />
    <glyph glyph-name="M" unicode="M" horiz-adv-x="1759" 
d="M1487 1434h108v-1434h-108v1229l-582 -864h-51l-582 864v-1229h-108v1434h108l609 -897z" />
    <glyph glyph-name="N" unicode="N" horiz-adv-x="1417" 
d="M1145 1434h108v-1434h-108l-873 1247v-1247h-108v1434h108l873 -1248v1248z" />
    <glyph glyph-name="O" unicode="O" horiz-adv-x="1652" 
d="M825 1458q151 0 286 -58.5t231 -158t152 -236.5t56 -288q0 -203 -95 -373.5t-262 -270.5t-368 -100t-367.5 100t-261 270.5t-94.5 373.5q0 152 56 288.5t151.5 236t230 158t285.5 58.5zM825 84q172 0 314 85t222.5 230t80.5 318q0 172 -80.5 317t-222.5 230.5t-314 85.5
q-171 0 -312.5 -85.5t-221.5 -230.5t-80 -317q0 -173 80 -318t221.5 -230t312.5 -85z" />
    <glyph glyph-name="P" unicode="P" horiz-adv-x="1167" 
d="M592 1434q231 0 362 -122t131 -323t-131 -322.5t-362 -121.5h-318v-545h-110v1434h428zM592 655q186 0 284.5 89.5t98.5 244.5t-98.5 244.5t-284.5 89.5h-318v-668h318z" />
    <glyph glyph-name="Q" unicode="Q" horiz-adv-x="1652" 
d="M1550 717q0 -156 -58.5 -295t-162.5 -242l152 -151l-66 -64l-153 156q-195 -148 -437 -148q-201 0 -367.5 100t-261 270.5t-94.5 373.5q0 152 56 288.5t151.5 236t230 158t285.5 58.5t286 -58.5t231 -158t152 -236.5t56 -288zM825 84q199 0 359 115l-246 247l63 64
l252 -252q89 87 138 206t49 253q0 172 -80 317t-221.5 230.5t-313.5 85.5q-171 0 -312.5 -85.5t-221.5 -230.5t-80 -317q0 -173 80 -318t221.5 -230t312.5 -85z" />
    <glyph glyph-name="R" unicode="R" horiz-adv-x="1210" 
d="M1149 0h-127l-375 604q-54 -4 -84 -4h-291v-600h-108v1434h399q235 0 368.5 -110.5t133.5 -307.5q0 -150 -78.5 -250.5t-224.5 -140.5zM272 709h291q190 0 291.5 78t101.5 229q0 152 -101 229.5t-292 77.5h-291v-614z" />
    <glyph glyph-name="S" unicode="S" horiz-adv-x="1110" 
d="M604 770q53 -14 86 -24t82.5 -29t81 -37.5t68 -48.5t57.5 -63.5t35 -80.5t14 -102q0 -59 -16.5 -116t-53 -111t-89.5 -95t-132.5 -65.5t-175.5 -24.5q-183 0 -312 97.5t-167 230.5l104 33q28 -99 127 -174.5t248 -75.5q162 0 259.5 81.5t97.5 219.5q0 50 -17 90
t-43.5 66.5t-73.5 50t-92.5 38.5t-116.5 34q-52 14 -85 24t-83.5 29t-83.5 38.5t-71.5 50t-60.5 65.5t-37 83t-15 105q0 114 57 206t151 142.5t204 50.5q152 0 260.5 -77.5t153.5 -221.5l-107 -26q-70 217 -307 217q-125 0 -213 -81.5t-88 -209.5q0 -51 17 -91.5t44.5 -69
t75 -52.5t96.5 -40.5t121 -35.5z" />
    <glyph glyph-name="T" unicode="T" horiz-adv-x="1097" 
d="M995 1434v-111h-393v-1323h-108v1323h-392v111h893z" />
    <glyph glyph-name="U" unicode="U" horiz-adv-x="1343" 
d="M1069 1434h111v-899q0 -255 -138 -408.5t-370 -153.5q-233 0 -370.5 153.5t-137.5 408.5v899h108v-899q0 -208 106 -329.5t294 -121.5q187 0 292 121t105 330v899z" />
    <glyph glyph-name="V" unicode="V" horiz-adv-x="1308" 
d="M1130 1434h117l-534 -1434h-117l-535 1434h117l475 -1278z" />
    <glyph glyph-name="W" unicode="W" horiz-adv-x="2025" 
d="M1849 1434h115l-477 -1434h-117l-356 1235l-359 -1235h-114l-480 1434h117l416 -1250l360 1250h117l361 -1250z" />
    <glyph glyph-name="X" unicode="X" horiz-adv-x="1241" 
d="M1180 0h-129l-430 645l-428 -645h-132l496 743l-459 691h129l394 -592l393 592h129l-457 -691z" />
    <glyph glyph-name="Y" unicode="Y" horiz-adv-x="1361" 
d="M1300 1434l-565 -918v-516h-108v516l-566 918h129l492 -816l492 816h126z" />
    <glyph glyph-name="Z" unicode="Z" horiz-adv-x="1179" 
d="M233 109h844v-109h-975v109l824 1214h-789v111h922v-111z" />
    <glyph glyph-name="bracketleft" unicode="[" horiz-adv-x="645" 
d="M502 1522h-230v-1610h230v-111h-338v1829h338v-108z" />
    <glyph glyph-name="backslash" unicode="\" horiz-adv-x="911" 
d="M217 1630l592 -1829h-115l-592 1829h115z" />
    <glyph glyph-name="bracketright" unicode="]" horiz-adv-x="645" 
d="M143 1630h338v-1829h-338v111h228v1610h-228v108z" />
    <glyph glyph-name="asciicircum" unicode="^" horiz-adv-x="1064" 
d="M596 1434l346 -613h-125l-285 502l-282 -502h-127l348 613h125z" />
    <glyph glyph-name="underscore" unicode="_" horiz-adv-x="870" 
d="M61 -209h748v-108h-748v108z" />
    <glyph glyph-name="grave" unicode="`" horiz-adv-x="583" 
d="M293 1479l127 -269h-70l-186 269h129z" />
    <glyph glyph-name="a" unicode="a" horiz-adv-x="1067" 
d="M913 672v-672h-108v160q-131 -187 -363 -187q-156 0 -258 87.5t-102 222.5q0 67 24 119t57 85.5t95 56.5t109.5 34.5t130.5 17.5t129 7t132 1h13q5 0 16.5 -1t16.5 -1v70q0 57 -14 105t-44 89t-84 64.5t-128 23.5q-65 0 -124 -18.5t-93 -39t-78 -54.5l-88 67
q78 68 168 111t215 43q174 0 276 -104.5t102 -286.5zM442 84q82 0 150 23.5t110 61t66.5 73.5t36.5 71v181h-35q-210 0 -258 -3q-234 -15 -294 -116q-23 -39 -23 -92q0 -95 73.5 -147t173.5 -52z" />
    <glyph glyph-name="b" unicode="b" horiz-adv-x="1273" 
d="M674 1063q146 0 265.5 -73t186 -198t66.5 -274q0 -148 -66.5 -273t-186 -198.5t-265.5 -73.5q-131 0 -237 59.5t-173 162.5v-195h-110v1434h110v-592q66 104 172 162.5t238 58.5zM674 84q177 0 292 125.5t115 308.5t-115 309.5t-292 126.5q-117 0 -211.5 -59
t-146.5 -158.5t-52 -218.5q0 -182 116 -308t294 -126z" />
    <glyph glyph-name="c" unicode="c" horiz-adv-x="1134" 
d="M623 84q109 0 201.5 50t150.5 136l98 -51q-74 -113 -193 -179.5t-257 -66.5q-148 0 -272.5 73.5t-196.5 199t-72 272.5q0 148 72 273.5t196.5 198.5t272.5 73q139 0 258 -66t192 -178l-98 -53q-58 87 -151 137.5t-201 50.5q-179 0 -304.5 -127.5t-125.5 -308.5
q0 -180 125 -307t305 -127z" />
    <glyph glyph-name="d" unicode="d" horiz-adv-x="1271" 
d="M1010 1434h108v-1434h-108v195q-67 -103 -173 -162.5t-237 -59.5q-146 0 -265.5 73.5t-186 198.5t-66.5 273q0 149 66.5 274t186 198t265.5 73q132 0 238 -58.5t172 -162.5v592zM600 84q178 0 294 126t116 308q0 119 -52 218.5t-146.5 158.5t-211.5 59
q-177 0 -292 -126.5t-115 -309.5t115 -308.5t292 -125.5z" />
    <glyph glyph-name="e" unicode="e" horiz-adv-x="1171" 
d="M594 1063q222 0 364 -167.5t129 -432.5h-892q19 -161 137.5 -270t281.5 -109q206 0 334 149l94 -59q-162 -201 -428 -201q-147 0 -269.5 73.5t-192.5 198.5t-70 273q0 146 65.5 271t184 199.5t262.5 74.5zM594 954q-159 0 -270 -109.5t-129 -271.5h780
q-19 170 -125 275.5t-256 105.5z" />
    <glyph glyph-name="f" unicode="f" horiz-adv-x="688" 
d="M627 1346q-136 0 -198 -67t-62 -224v-17h260v-110h-260v-928h-109v928h-186v110h186v17q0 399 369 399v-108z" />
    <glyph glyph-name="g" unicode="g" horiz-adv-x="1271" 
d="M1008 1038h110v-929q0 -101 -34 -193.5t-97.5 -166.5t-166 -118.5t-228.5 -44.5q-137 0 -254.5 52.5t-192.5 148.5l93 61q124 -153 354 -153q105 0 187 35.5t130.5 95t73.5 132t25 151.5v151q-61 -107 -167.5 -169t-240.5 -62q-218 0 -368 150t-150 368q0 142 68.5 260.5
t187.5 187t262 68.5q134 0 240.5 -62t167.5 -170v207zM600 139q172 0 290 117.5t118 290.5q0 172 -118 289.5t-290 117.5q-173 0 -291.5 -117.5t-118.5 -289.5q0 -173 118.5 -290.5t291.5 -117.5z" />
    <glyph glyph-name="h" unicode="h" 
d="M606 1063q107 0 190.5 -41.5t131.5 -108.5t72 -144t24 -157v-612h-111v612q0 46 -8.5 90.5t-30.5 91t-55.5 81.5t-88.5 57t-124 22q-86 0 -154.5 -33t-108.5 -85t-60.5 -110t-20.5 -114v-612h-108v1434h108v-560q118 189 344 189z" />
    <glyph glyph-name="i" unicode="i" horiz-adv-x="417" 
d="M154 0v1038h110v-1038h-110zM209 1255q-31 0 -51.5 21.5t-20.5 52.5q0 30 21 51t51 21t51 -21t21 -51q0 -31 -20.5 -52.5t-51.5 -21.5z" />
    <glyph glyph-name="j" unicode="j" horiz-adv-x="417" 
d="M154 -18v1056h110v-1056q0 -187 -86.5 -274t-261.5 -87v111q62 0 106 13t69 34t39.5 55t19 67.5t4.5 80.5zM209 1255q-31 0 -51.5 21.5t-20.5 52.5q0 30 21 51t51 21t51 -21t21 -51q0 -31 -20.5 -52.5t-51.5 -21.5z" />
    <glyph glyph-name="k" unicode="k" horiz-adv-x="999" 
d="M938 0h-143l-533 526v-526h-108v1434h108v-891l469 495h143l-477 -503z" />
    <glyph glyph-name="l" unicode="l" horiz-adv-x="415" 
d="M154 1434h108v-1434h-108v1434z" />
    <glyph glyph-name="m" unicode="m" horiz-adv-x="1732" 
d="M1206 1063q91 0 164 -36t117.5 -95.5t68 -132t23.5 -150.5v-649h-111v649q0 57 -14.5 108.5t-44 97t-82 72.5t-121.5 27q-75 0 -132 -30t-89 -78.5t-47.5 -103t-15.5 -111.5v-631h-111v649q0 57 -14.5 108.5t-44 97t-82 72.5t-121.5 27q-75 0 -132.5 -30t-89.5 -78.5
t-47.5 -103t-15.5 -111.5v-631h-110v1038h110v-157q46 83 118 132.5t167 49.5q118 0 202 -58t128 -153q50 95 134.5 153t192.5 58z" />
    <glyph glyph-name="n" unicode="n" horiz-adv-x="1175" 
d="M606 1063q86 0 157.5 -27.5t118.5 -72.5t79.5 -104.5t46.5 -121.5t14 -125v-612h-109v612q0 46 -8.5 90.5t-30.5 91t-55.5 81.5t-88.5 57t-124 22q-86 0 -154.5 -33t-108.5 -85t-60.5 -110t-20.5 -114v-612h-108v1038h108v-164q118 189 344 189z" />
    <glyph glyph-name="o" unicode="o" horiz-adv-x="1241" 
d="M621 1063q148 0 272 -73t195 -198.5t71 -273.5q0 -147 -71 -272.5t-195 -199t-272 -73.5q-147 0 -271 73.5t-196 199t-72 272.5q0 148 72 273.5t196 198.5t271 73zM621 84q180 0 305 127t125 307q0 181 -125.5 308.5t-304.5 127.5q-180 0 -305.5 -128t-125.5 -308
t125.5 -307t305.5 -127z" />
    <glyph glyph-name="p" unicode="p" horiz-adv-x="1282" 
d="M682 1063q147 0 266.5 -73.5t185.5 -198t66 -273.5q0 -148 -66 -273t-185.5 -198.5t-266.5 -73.5q-130 0 -235.5 59.5t-172.5 162.5v-590h-110v1433h110v-196q66 104 171.5 162.5t236.5 58.5zM682 84q178 0 294 126t116 308q0 119 -52 218.5t-146.5 158.5t-211.5 59
q-177 0 -292.5 -126.5t-115.5 -309.5q0 -119 51.5 -218t145.5 -157.5t211 -58.5z" />
    <glyph glyph-name="q" unicode="q" horiz-adv-x="1271" 
d="M1010 1038h108v-1433h-108v590q-67 -103 -173 -162.5t-237 -59.5q-146 0 -265.5 73.5t-186 198.5t-66.5 273q0 149 66.5 274t186 198t265.5 73q132 0 238 -58.5t172 -162.5v196zM600 84q178 0 294 126t116 308q0 119 -52 218.5t-146.5 158.5t-211.5 59
q-177 0 -292 -126.5t-115 -309.5t115 -308.5t292 -125.5z" />
    <glyph glyph-name="r" unicode="r" horiz-adv-x="694" 
d="M264 815q58 111 153 179.5t216 68.5v-127q-173 0 -271 -106.5t-98 -301.5v-528h-110v1038h110v-223z" />
    <glyph glyph-name="s" unicode="s" horiz-adv-x="886" 
d="M475 571q40 -8 65.5 -14.5t63.5 -19t63 -26t53.5 -35.5t45.5 -47.5t28 -62.5t11 -81q0 -60 -22 -114.5t-64.5 -99.5t-114 -71.5t-162.5 -26.5q-141 0 -240 69t-130 169l102 35q22 -67 94 -114.5t174 -47.5q117 0 185.5 54.5t68.5 146.5q0 80 -55.5 117t-191.5 65
q-55 11 -96 22.5t-90.5 35t-81 53t-53.5 77t-22 107.5q0 127 93 214t233 87q118 0 205 -62.5t119 -169.5l-107 -28q-22 72 -78.5 111.5t-138.5 39.5q-94 0 -154.5 -54.5t-60.5 -137.5q0 -82 62 -122t196 -69z" />
    <glyph glyph-name="t" unicode="t" horiz-adv-x="710" 
d="M352 309q0 -123 51 -171.5t195 -35.5v-108q-42 -6 -84.5 -3.5t-82 8.5t-73.5 29t-59.5 57t-40 91t-14.5 133v619h-183v110h183v217h108v-217h244v-110h-244v-619z" />
    <glyph glyph-name="u" unicode="u" 
d="M913 1038h111v-1038h-111v162q-53 -86 -139.5 -137.5t-202.5 -51.5q-87 0 -158.5 27.5t-118.5 72.5t-79.5 104.5t-46.5 121.5t-14 125v614h110v-614q0 -45 8.5 -89.5t30.5 -91t55.5 -81t88.5 -56.5t124 -22q86 0 154 33t107.5 85t60 109t20.5 113v614z" />
    <glyph glyph-name="v" unicode="v" horiz-adv-x="1064" 
d="M905 1038h119l-434 -1038h-117l-432 1038h117l374 -897z" />
    <glyph glyph-name="w" unicode="w" horiz-adv-x="1548" 
d="M1391 1038h116l-366 -1038h-117l-250 842l-250 -842h-116l-367 1038h115l307 -870l260 870h102l258 -870z" />
    <glyph glyph-name="x" unicode="x" horiz-adv-x="968" 
d="M928 0h-133l-310 438l-311 -438h-133l377 530l-359 508h134l292 -413l291 413h133l-358 -508z" />
    <glyph glyph-name="y" unicode="y" horiz-adv-x="1028" 
d="M870 1038h117l-584 -1433h-116l186 456l-432 977h117l370 -837z" />
    <glyph glyph-name="z" unicode="z" horiz-adv-x="935" 
d="M221 109h613v-109h-752v109l594 819h-576v110h715v-110z" />
    <glyph glyph-name="braceleft" unicode="{" horiz-adv-x="827" 
d="M442 944q0 -96 -37 -150.5t-112 -76.5v-2q75 -21 112 -75t37 -151v-348q0 -122 55 -175.5t187 -53.5v-111q-180 0 -265 78t-85 244v366q0 96 -42 136.5t-128 40.5v102q86 0 128 39.5t42 136.5v365q0 167 84.5 244t265.5 77v-108q-132 0 -187 -54.5t-55 -177.5v-346z" />
    <glyph glyph-name="bar" unicode="|" horiz-adv-x="436" 
d="M164 1550h108v-1855h-108v1855z" />
    <glyph glyph-name="braceright" unicode="}" horiz-adv-x="829" 
d="M496 944q0 -98 41.5 -137t128.5 -39v-102q-87 0 -128.5 -40t-41.5 -137v-366q0 -165 -86.5 -243.5t-266.5 -78.5v111q132 0 187 53.5t55 175.5v348q0 185 150 226v2q-75 22 -112.5 76.5t-37.5 150.5v346q0 123 -55 177.5t-187 54.5v108q181 0 267 -77.5t86 -243.5v-365z
" />
    <glyph glyph-name="asciitilde" unicode="~" horiz-adv-x="1169" 
d="M920 733l106 -28q-16 -61 -44 -103.5t-63 -64t-68 -30.5t-69 -9q-39 0 -83 11.5t-69.5 21.5t-72.5 32q-103 49 -158 49h-2q-60 0 -94 -29t-53 -98l-107 31q59 207 254 207h2q33 0 73 -10.5t61 -19t69 -29.5q118 -56 180 -56q56 0 88.5 29.5t49.5 95.5z" />
    <glyph glyph-name="exclamdown" unicode="&#xa1;" horiz-adv-x="497" 
d="M250 1063q35 0 59.5 -25.5t24.5 -60.5t-24.5 -60.5t-59.5 -25.5t-60.5 25.5t-25.5 60.5t25.5 60.5t60.5 25.5zM213 647h72l18 -1042h-108z" />
    <glyph glyph-name="cent" unicode="&#xa2;" horiz-adv-x="1196" 
d="M643 281q108 0 201 50.5t151 137.5l99 -53q-70 -106 -180.5 -171.5t-241.5 -72.5v-172h-90v176q-204 23 -342 177.5t-138 363.5q0 137 63.5 255.5t173.5 194t243 90.5v177h90v-174q131 -7 241.5 -72.5t180.5 -171.5l-99 -51q-58 86 -150.5 136t-201.5 50
q-180 0 -305 -127t-125 -307q0 -181 125.5 -308.5t304.5 -127.5z" />
    <glyph glyph-name="sterling" unicode="&#xa3;" horiz-adv-x="1155" 
d="M233 109h820v-109h-951v109q32 24 52 39.5t58.5 57t61.5 82.5t41.5 106t18.5 138q0 31 -8 93h-224v92h201q-1 5 -12 43t-14 48t-11.5 43.5t-11.5 51t-8 46t-6.5 53t-1.5 49.5q0 171 110.5 288t276.5 117q139 0 238 -80t124 -213l-106 -24q-17 96 -85.5 151.5t-170.5 55.5
q-121 0 -199 -84t-78 -211q0 -39 7.5 -85t16 -78.5t24 -87t22.5 -83.5h452v-92h-434q8 -58 8 -93q0 -73 -20.5 -142t-55 -122t-67 -90t-68.5 -67v-2z" />
    <glyph glyph-name="currency" unicode="&#xa4;" horiz-adv-x="1026" 
d="M842 717q0 -109 -68 -197l150 -149l-66 -66l-147 150q-89 -66 -199 -66q-108 0 -197 66l-149 -150l-64 66l150 149q-68 84 -68 197q0 109 68 196l-150 150l64 63l149 -147q87 65 197 65q112 0 199 -65l147 147l66 -63l-150 -150q68 -91 68 -196zM512 498q91 0 155 64
t64 155t-64 155t-155 64t-154 -64t-63 -155t63 -155t154 -64z" />
    <glyph glyph-name="yen" unicode="&#xa5;" horiz-adv-x="1361" 
d="M1300 1434l-512 -832h304v-90h-357v-172h357v-92h-357v-248h-110v248h-357v92h357v172h-357v90h303l-510 832h127l492 -816l491 816h129z" />
    <glyph glyph-name="brokenbar" unicode="&#xa6;" horiz-adv-x="438" 
d="M164 -305v727h110v-727h-110zM164 1550h110v-727h-110v727z" />
    <glyph glyph-name="section" unicode="&#xa7;" horiz-adv-x="1142" 
d="M999 573q0 -177 -188 -282q84 -77 84 -197q0 -104 -55.5 -182.5t-137 -115t-172.5 -36.5q-74 0 -135 18.5t-99 45t-67 63.5t-42.5 65t-22.5 58l106 29q8 -28 23.5 -54t44 -54t78.5 -45t114 -17q103 0 178.5 59.5t75.5 165.5q0 37 -13.5 66.5t-35 51t-61.5 42t-78 35.5
t-100 35q-46 15 -73 24.5t-69 27.5t-67.5 34t-56 41t-47.5 52t-28.5 63.5t-11.5 78.5q0 173 189 283q-82 79 -82 196q0 79 31.5 144t84 105.5t116.5 62.5t132 22q73 0 134 -18.5t99 -45t67 -63.5t42.5 -65t22.5 -58l-105 -28q-9 28 -24.5 53.5t-44.5 54t-78 45.5t-113 17
q-103 0 -179.5 -60t-76.5 -166q0 -37 14 -66.5t35 -51t61.5 -42t79 -35t101.5 -34.5q45 -15 72 -25t68.5 -28t67 -34t55.5 -41t47 -52t28.5 -63.5t11.5 -78.5zM743 340q148 83 148 233q0 78 -65.5 124t-211.5 94q-144 47 -213 86q-147 -82 -147 -232q0 -41 17.5 -73
t57.5 -57.5t84 -44t117 -42.5q144 -47 213 -88z" />
    <glyph glyph-name="dieresis" unicode="&#xa8;" horiz-adv-x="864" 
d="M248 1411q35 0 59.5 -25t24.5 -59q0 -35 -24.5 -59.5t-59.5 -24.5t-59.5 24.5t-24.5 59.5q0 34 24.5 59t59.5 25zM618 1411q34 0 58 -25t24 -59q0 -35 -24 -59.5t-58 -24.5q-35 0 -59 24.5t-24 59.5q0 34 24 59t59 25z" />
    <glyph glyph-name="copyright" unicode="&#xa9;" horiz-adv-x="1671" 
d="M836 1430q193 0 357 -95.5t259.5 -260t95.5 -357.5t-95.5 -357.5t-259.5 -260t-357 -95.5q-145 0 -277 56.5t-227.5 152t-152 227.5t-56.5 277t56.5 277t152 227.5t227.5 152t277 56.5zM836 76q130 0 249 51t204.5 137t136.5 204.5t51 248.5q0 173 -86 320.5t-233.5 233
t-321.5 85.5q-130 0 -248 -50.5t-204 -136.5t-136.5 -204t-50.5 -248t50.5 -248.5t136.5 -204.5t204 -137t248 -51zM838 397q73 0 134.5 32t102.5 87l51 -35q-51 -68 -125.5 -107.5t-162.5 -39.5q-152 0 -258.5 113t-106.5 270q0 156 106.5 269.5t258.5 113.5
q88 0 162.5 -40t125.5 -110l-51 -32q-41 55 -102.5 86.5t-134.5 31.5q-129 0 -214 -92.5t-85 -226.5t85 -227t214 -93z" />
    <glyph glyph-name="guillemotleft" unicode="&#xab;" horiz-adv-x="1050" 
d="M369 877h133l-246 -363l246 -362h-133l-246 362zM928 877l-246 -363l246 -362h-131l-248 362l248 363h131z" />
    <glyph glyph-name="registered" unicode="&#xae;" horiz-adv-x="1671" 
d="M836 1430q193 0 357 -95.5t259.5 -260t95.5 -357.5t-95.5 -357.5t-259.5 -260t-357 -95.5q-145 0 -277 56.5t-227.5 152t-152 227.5t-56.5 277t56.5 277t152 227.5t227.5 152t277 56.5zM836 76q130 0 248 51t204 137t136.5 204.5t50.5 248.5t-50.5 248t-136.5 204
t-204 136.5t-248 50.5t-248 -50.5t-204 -136.5t-136.5 -204t-50.5 -248t50.5 -248.5t136.5 -204.5t204 -137t248 -51zM1120 891q0 -87 -53 -145.5t-149 -77.5l245 -318h-71l-242 312h-12h-181v-312h-61v770h242q131 0 206.5 -62t75.5 -167zM657 1059v-336h181
q105 0 163 44.5t58 123.5t-58 123.5t-163 44.5h-181z" />
    <glyph glyph-name="macron" unicode="&#xaf;" horiz-adv-x="815" 
d="M164 1364h487v-92h-487v92z" />
    <glyph glyph-name="degree" unicode="&#xb0;" horiz-adv-x="794" 
d="M397 1434q123 0 209 -86.5t86 -208.5q0 -123 -86 -210t-209 -87q-122 0 -208.5 87t-86.5 210q0 121 87 208t208 87zM397 934q85 0 145 60t60 145q0 84 -60 143t-145 59t-143.5 -58.5t-58.5 -143.5t59 -145t143 -60z" />
    <glyph glyph-name="plusminus" unicode="&#xb1;" horiz-adv-x="1130" 
d="M164 0v109h803v-109h-803zM618 793h349v-111h-349v-346h-108v346h-346v111h346v346h108v-346z" />
    <glyph glyph-name="acute" unicode="&#xb4;" horiz-adv-x="581" 
d="M289 1479h129l-187 -269h-67z" />
    <glyph glyph-name="paragraph" unicode="&#xb6;" horiz-adv-x="1198" 
d="M1075 1434v-111h-172v-1505h-110v1505h-256v-1505h-111v1007q-146 0 -245 83.5t-99 221.5q0 136 99 220t245 84h649z" />
    <glyph glyph-name="cedilla" unicode="&#xb8;" horiz-adv-x="722" 
d="M311 -123q93 26 170.5 -21t77.5 -149q0 -68 -37 -117t-94 -69.5t-128 -15.5t-136 38l47 86q56 -27 111.5 -27.5t93 28.5t37.5 83q0 66 -54.5 90t-132.5 -12l-45 59l72 150h78z" />
    <glyph glyph-name="guillemotright" unicode="&#xbb;" horiz-adv-x="1050" 
d="M682 877l246 -363l-246 -362h-133l246 362l-246 363h133zM123 877h131l246 -363l-246 -362h-131l246 362z" />
    <glyph glyph-name="questiondown" unicode="&#xbf;" horiz-adv-x="894" 
d="M442 891q-35 0 -60.5 25.5t-25.5 60.5t25.5 60.5t60.5 25.5t59.5 -25.5t24.5 -60.5t-24.5 -60.5t-59.5 -25.5zM727 -88l107 -27q-40 -140 -145 -223.5t-243 -83.5q-160 0 -272.5 111.5t-112.5 269.5q0 44 10 86t22.5 71.5t37 64.5t41.5 54.5t47 53.5q33 37 50 57.5
t42.5 57.5t38.5 69t24 77.5t13 96.5h109q-2 -63 -15.5 -120.5t-29.5 -96.5t-46 -83.5t-49 -67t-55 -62.5t-53 -61t-39 -54.5t-30.5 -67.5t-8.5 -75q0 -113 80.5 -191.5t195.5 -78.5q111 0 182 64.5t99 158.5z" />
    <glyph glyph-name="Agrave" unicode="&#xc0;" horiz-adv-x="1308" 
d="M1130 0l-149 401h-653l-150 -401h-117l535 1434h117l534 -1434h-117zM369 512h571l-285 764zM553 1888l127 -268h-70l-186 268h129z" />
    <glyph glyph-name="Aacute" unicode="&#xc1;" horiz-adv-x="1308" 
d="M1130 0l-149 401h-653l-150 -401h-117l535 1434h117l534 -1434h-117zM369 512h571l-285 764zM754 1888h129l-187 -268h-67z" />
    <glyph glyph-name="Acircumflex" unicode="&#xc2;" horiz-adv-x="1308" 
d="M1130 0l-149 401h-653l-150 -401h-117l535 1434h117l534 -1434h-117zM369 512h571l-285 764zM911 1620h-94l-164 209l-161 -209h-95l211 268h92z" />
    <glyph glyph-name="Atilde" unicode="&#xc3;" horiz-adv-x="1308" 
d="M1130 0l-149 401h-653l-150 -401h-117l535 1434h117l534 -1434h-117zM369 512h571l-285 764zM846 1792l90 -12q-12 -78 -53 -121t-107 -43q-45 0 -127 41t-114 41q-60 0 -72 -90l-90 14q11 79 51.5 122.5t105.5 43.5q44 0 127.5 -40t114.5 -40q62 0 74 84z" />
    <glyph glyph-name="Adieresis" unicode="&#xc4;" horiz-adv-x="1308" 
d="M1130 0l-149 401h-653l-150 -401h-117l535 1434h117l534 -1434h-117zM369 512h571l-285 764zM469 1821q35 0 59.5 -25t24.5 -59q0 -35 -24.5 -59.5t-59.5 -24.5t-59.5 24.5t-24.5 59.5q0 34 24.5 59t59.5 25zM840 1821q34 0 58 -25t24 -59q0 -35 -24 -59.5t-58 -24.5
q-35 0 -59.5 24.5t-24.5 59.5q0 34 24.5 59t59.5 25z" />
    <glyph glyph-name="Aring" unicode="&#xc5;" horiz-adv-x="1308" 
d="M1130 0l-149 401h-653l-150 -401h-117l535 1434h117l534 -1434h-117zM369 512h571l-285 764zM653 1972q90 0 153.5 -63.5t63.5 -153.5q0 -91 -63 -154t-154 -63q-90 0 -153.5 63.5t-63.5 153.5q0 89 64 153t153 64zM653 1628q53 0 90 37t37 90q0 52 -37 88.5t-90 36.5
t-89 -36t-36 -89t36.5 -90t88.5 -37z" />
    <glyph glyph-name="AE" unicode="&#xc6;" horiz-adv-x="1916" 
d="M1133 109h682v-109h-793v401h-643l-201 -401h-117l715 1434h1020v-111h-663v-526h616v-109h-616v-579zM432 512h590v811h-182z" />
    <glyph glyph-name="Ccedilla" unicode="&#xc7;" horiz-adv-x="1460" 
d="M825 84q142 0 264 58.5t207 162.5l93 -61q-101 -126 -247.5 -198.5t-316.5 -72.5h-14l-47 -98q93 26 171.5 -20.5t78.5 -147.5q0 -68 -37.5 -117t-95 -69.5t-128.5 -15.5t-137 38l48 86q57 -27 112.5 -28t93 27.5t37.5 82.5q0 67 -54.5 90.5t-131.5 -12.5l-47 59l63 132
q-180 22 -325.5 125t-227.5 264t-82 348q0 152 56 288.5t151.5 236t230 158t285.5 58.5q170 0 317 -71.5t247 -198.5l-93 -60q-85 104 -207 163t-264 59q-171 0 -312.5 -85.5t-221.5 -230.5t-80 -317q0 -173 80 -318t221.5 -230t312.5 -85z" />
    <glyph glyph-name="Egrave" unicode="&#xc8;" horiz-adv-x="1056" 
d="M272 109h682v-109h-790v1434h772v-111h-664v-526h617v-109h-617v-579zM498 1888l127 -268h-70l-186 268h129z" />
    <glyph glyph-name="Eacute" unicode="&#xc9;" horiz-adv-x="1056" 
d="M272 109h682v-109h-790v1434h772v-111h-664v-526h617v-109h-617v-579zM639 1888h129l-186 -268h-68z" />
    <glyph glyph-name="Ecircumflex" unicode="&#xca;" horiz-adv-x="1056" 
d="M272 109h682v-109h-790v1434h772v-111h-664v-526h617v-109h-617v-579zM817 1620h-94l-164 209l-162 -209h-94l211 268h92z" />
    <glyph glyph-name="Edieresis" unicode="&#xcb;" horiz-adv-x="1056" 
d="M272 109h682v-109h-790v1434h772v-111h-664v-526h617v-109h-617v-579zM375 1821q35 0 59.5 -25t24.5 -59q0 -35 -24.5 -59.5t-59.5 -24.5t-59.5 24.5t-24.5 59.5q0 34 24.5 59t59.5 25zM745 1821q34 0 58 -25t24 -59q0 -35 -24 -59.5t-58 -24.5q-35 0 -59 24.5t-24 59.5
q0 34 24 59t59 25z" />
    <glyph glyph-name="Igrave" unicode="&#xcc;" horiz-adv-x="438" 
d="M164 1434h110v-1434h-110v1434zM139 1888l127 -268h-69l-187 268h129z" />
    <glyph glyph-name="Iacute" unicode="&#xcd;" horiz-adv-x="438" 
d="M164 1434h110v-1434h-110v1434zM319 1888h130l-187 -268h-67z" />
    <glyph glyph-name="Icircumflex" unicode="&#xce;" horiz-adv-x="438" 
d="M164 1434h110v-1434h-110v1434zM477 1620h-94l-164 209l-162 -209h-94l211 268h92z" />
    <glyph glyph-name="Idieresis" unicode="&#xcf;" horiz-adv-x="438" 
d="M164 1434h110v-1434h-110v1434zM35 1821q35 0 59.5 -25t24.5 -59q0 -35 -24.5 -59.5t-59.5 -24.5t-59.5 24.5t-24.5 59.5q0 34 24.5 59t59.5 25zM406 1821q33 0 57 -25t24 -59q0 -35 -23.5 -59.5t-57.5 -24.5q-35 0 -59.5 24.5t-24.5 59.5q0 34 24.5 59t59.5 25z" />
    <glyph glyph-name="Eth" unicode="&#xd0;" horiz-adv-x="1499" 
d="M690 1434q121 0 230.5 -35t195.5 -99.5t149.5 -152.5t97.5 -198.5t34 -231.5t-34 -231.5t-97.5 -198.5t-149.5 -152.5t-195.5 -99.5t-230.5 -35h-428v672h-201v90h201v672h428zM690 109q261 0 429.5 172t168.5 436q0 262 -168.5 434t-429.5 172h-319v-561h458v-90h-458
v-563h319z" />
    <glyph glyph-name="Ntilde" unicode="&#xd1;" horiz-adv-x="1417" 
d="M1145 1434h108v-1434h-108l-873 1247v-1247h-108v1434h108l873 -1248v1248zM901 1792l90 -12q-12 -78 -53 -121t-107 -43q-45 0 -127 41t-114 41q-60 0 -72 -90l-90 14q11 79 52 122.5t106 43.5q44 0 127 -40t114 -40q62 0 74 84z" />
    <glyph glyph-name="Ograve" unicode="&#xd2;" horiz-adv-x="1652" 
d="M825 1458q151 0 286 -58.5t231 -158t152 -236.5t56 -288q0 -203 -95 -373.5t-262 -270.5t-368 -100t-367.5 100t-261 270.5t-94.5 373.5q0 152 56 288.5t151.5 236t230 158t285.5 58.5zM825 84q172 0 314 85t222.5 230t80.5 318q0 172 -80.5 317t-222.5 230.5t-314 85.5
q-171 0 -312.5 -85.5t-221.5 -230.5t-80 -317q0 -173 80 -318t221.5 -230t312.5 -85zM745 1888l127 -268h-69l-187 268h129z" />
    <glyph glyph-name="Oacute" unicode="&#xd3;" horiz-adv-x="1652" 
d="M825 1458q151 0 286 -58.5t231 -158t152 -236.5t56 -288q0 -203 -95 -373.5t-262 -270.5t-368 -100t-367.5 100t-261 270.5t-94.5 373.5q0 152 56 288.5t151.5 236t230 158t285.5 58.5zM825 84q172 0 314 85t222.5 230t80.5 318q0 172 -80.5 317t-222.5 230.5t-314 85.5
q-171 0 -312.5 -85.5t-221.5 -230.5t-80 -317q0 -173 80 -318t221.5 -230t312.5 -85zM905 1888h129l-186 -268h-68z" />
    <glyph glyph-name="Ocircumflex" unicode="&#xd4;" horiz-adv-x="1652" 
d="M825 1458q151 0 286 -58.5t231 -158t152 -236.5t56 -288q0 -203 -95 -373.5t-262 -270.5t-368 -100t-367.5 100t-261 270.5t-94.5 373.5q0 152 56 288.5t151.5 236t230 158t285.5 58.5zM825 84q172 0 314 85t222.5 230t80.5 318q0 172 -80.5 317t-222.5 230.5t-314 85.5
q-171 0 -312.5 -85.5t-221.5 -230.5t-80 -317q0 -173 80 -318t221.5 -230t312.5 -85zM1083 1620h-94l-164 209l-161 -209h-95l211 268h92z" />
    <glyph glyph-name="Otilde" unicode="&#xd5;" horiz-adv-x="1652" 
d="M825 1458q151 0 286 -58.5t231 -158t152 -236.5t56 -288q0 -203 -95 -373.5t-262 -270.5t-368 -100t-367.5 100t-261 270.5t-94.5 373.5q0 152 56 288.5t151.5 236t230 158t285.5 58.5zM825 84q172 0 314 85t222.5 230t80.5 318q0 172 -80.5 317t-222.5 230.5t-314 85.5
q-171 0 -312.5 -85.5t-221.5 -230.5t-80 -317q0 -173 80 -318t221.5 -230t312.5 -85zM1018 1792l90 -12q-12 -78 -53 -121t-107 -43q-45 0 -127 41t-114 41q-60 0 -72 -90l-90 14q11 79 51.5 122.5t105.5 43.5q44 0 127.5 -40t114.5 -40q62 0 74 84z" />
    <glyph glyph-name="Odieresis" unicode="&#xd6;" horiz-adv-x="1652" 
d="M825 1458q151 0 286 -58.5t231 -158t152 -236.5t56 -288q0 -203 -95 -373.5t-262 -270.5t-368 -100t-367.5 100t-261 270.5t-94.5 373.5q0 152 56 288.5t151.5 236t230 158t285.5 58.5zM825 84q172 0 314 85t222.5 230t80.5 318q0 172 -80.5 317t-222.5 230.5t-314 85.5
q-171 0 -312.5 -85.5t-221.5 -230.5t-80 -317q0 -173 80 -318t221.5 -230t312.5 -85zM641 1821q35 0 59.5 -25t24.5 -59q0 -35 -24.5 -59.5t-59.5 -24.5t-59.5 24.5t-24.5 59.5q0 34 24.5 59t59.5 25zM1012 1821q34 0 58 -25t24 -59q0 -35 -24 -59.5t-58 -24.5
q-35 0 -59.5 24.5t-24.5 59.5q0 34 24.5 59t59.5 25z" />
    <glyph glyph-name="multiply" unicode="&#xd7;" horiz-adv-x="931" 
d="M788 854l-245 -244l245 -245l-77 -78l-246 245l-244 -245l-78 78l246 245l-246 244l78 78l244 -246l246 246z" />
    <glyph glyph-name="Oslash" unicode="&#xd8;" horiz-adv-x="1652" 
d="M1399 1176q153 -202 153 -459q0 -203 -95 -373.5t-262 -270.5t-368 -100q-149 0 -281 56.5t-231 158.5l-129 -118l-61 67l131 119q-154 204 -154 461q0 151 56 288t152 236.5t231 158t286 58.5q149 0 281 -56t231 -157l129 119l62 -68zM213 717q0 -219 125 -385l919 839
q-83 85 -194 132t-236 47q-171 0 -312.5 -85.5t-221.5 -230.5t-80 -317zM827 84q171 0 312.5 85t222 230t80.5 318q0 219 -125 385l-920 -840q83 -85 193.5 -131.5t236.5 -46.5z" />
    <glyph glyph-name="Ugrave" unicode="&#xd9;" horiz-adv-x="1343" 
d="M1069 1434h111v-899q0 -255 -138 -408.5t-370 -153.5q-233 0 -370.5 153.5t-137.5 408.5v899h108v-899q0 -208 106 -329.5t294 -121.5q187 0 292 121t105 330v899zM610 1888l127 -268h-69l-187 268h129z" />
    <glyph glyph-name="Uacute" unicode="&#xda;" horiz-adv-x="1343" 
d="M1069 1434h111v-899q0 -255 -138 -408.5t-370 -153.5q-233 0 -370.5 153.5t-137.5 408.5v899h108v-899q0 -208 106 -329.5t294 -121.5q187 0 292 121t105 330v899zM762 1888h129l-186 -268h-68z" />
    <glyph glyph-name="Ucircumflex" unicode="&#xdb;" horiz-adv-x="1343" 
d="M1069 1434h111v-899q0 -255 -138 -408.5t-370 -153.5q-233 0 -370.5 153.5t-137.5 408.5v899h108v-899q0 -208 106 -329.5t294 -121.5q187 0 292 121t105 330v899zM930 1620h-94l-164 209l-162 -209h-94l211 268h92z" />
    <glyph glyph-name="Udieresis" unicode="&#xdc;" horiz-adv-x="1343" 
d="M1069 1434h111v-899q0 -255 -138 -408.5t-370 -153.5q-233 0 -370.5 153.5t-137.5 408.5v899h108v-899q0 -208 106 -329.5t294 -121.5q187 0 292 121t105 330v899zM487 1821q35 0 59.5 -25t24.5 -59q0 -35 -24.5 -59.5t-59.5 -24.5t-59.5 24.5t-24.5 59.5q0 34 24.5 59
t59.5 25zM858 1821q34 0 58 -25t24 -59q0 -35 -24 -59.5t-58 -24.5q-35 0 -59.5 24.5t-24.5 59.5q0 34 24.5 59t59.5 25z" />
    <glyph glyph-name="Yacute" unicode="&#xdd;" horiz-adv-x="1361" 
d="M1300 1434l-565 -918v-516h-108v516l-566 918h129l492 -816l492 816h126zM780 1888h129l-186 -268h-68z" />
    <glyph glyph-name="Thorn" unicode="&#xde;" horiz-adv-x="1165" 
d="M592 1161q229 0 360 -122t131 -322q0 -201 -130.5 -323t-360.5 -122h-320v-272h-108v1434h108v-273h320zM592 381q185 0 284 90t99 246q0 155 -98.5 244.5t-284.5 89.5h-320v-670h320z" />
    <glyph glyph-name="germandbls" unicode="&#xdf;" horiz-adv-x="1140" 
d="M764 756q131 -36 213 -123.5t82 -231.5q0 -139 -69.5 -239t-188 -142t-262.5 -20v111q176 -28 292.5 53t116.5 237q0 73 -29 128.5t-69.5 85t-96.5 47.5t-99 23t-87 5h-28v101h14q128 0 204.5 72.5t76.5 203.5q0 103 -76 182.5t-205 79.5q-90 0 -158 -43t-100.5 -110
t-32.5 -146v-1030h-108v1030q0 168 109 289t290 121q88 0 163 -32.5t123.5 -85.5t75.5 -119t27 -136q0 -104 -47 -184t-131 -127z" />
    <glyph glyph-name="agrave" unicode="&#xe0;" horiz-adv-x="1067" 
d="M913 672v-672h-108v160q-131 -187 -363 -187q-156 0 -258 87.5t-102 222.5q0 67 24 119t57 85.5t95 56.5t109.5 34.5t130.5 17.5t129 7t132 1h13q5 0 16.5 -1t16.5 -1v70q0 57 -14 105t-44 89t-84 64.5t-128 23.5q-65 0 -124 -18.5t-93 -39t-78 -54.5l-88 67
q78 68 168 111t215 43q174 0 276 -104.5t102 -286.5zM442 84q82 0 150 23.5t110 61t66.5 73.5t36.5 71v181h-35q-210 0 -258 -3q-234 -15 -294 -116q-23 -39 -23 -92q0 -95 73.5 -147t173.5 -52zM477 1479l127 -269h-69l-187 269h129z" />
    <glyph glyph-name="aacute" unicode="&#xe1;" horiz-adv-x="1067" 
d="M913 672v-672h-108v160q-131 -187 -363 -187q-156 0 -258 87.5t-102 222.5q0 67 24 119t57 85.5t95 56.5t109.5 34.5t130.5 17.5t129 7t132 1h13q5 0 16.5 -1t16.5 -1v70q0 57 -14 105t-44 89t-84 64.5t-128 23.5q-65 0 -124 -18.5t-93 -39t-78 -54.5l-88 67
q78 68 168 111t215 43q174 0 276 -104.5t102 -286.5zM442 84q82 0 150 23.5t110 61t66.5 73.5t36.5 71v181h-35q-210 0 -258 -3q-234 -15 -294 -116q-23 -39 -23 -92q0 -95 73.5 -147t173.5 -52zM598 1479h129l-186 -269h-68z" />
    <glyph glyph-name="acircumflex" unicode="&#xe2;" horiz-adv-x="1067" 
d="M913 672v-672h-108v160q-131 -187 -363 -187q-156 0 -258 87.5t-102 222.5q0 67 24 119t57 85.5t95 56.5t109.5 34.5t130.5 17.5t129 7t132 1h13q5 0 16.5 -1t16.5 -1v70q0 57 -14 105t-44 89t-84 64.5t-128 23.5q-65 0 -124 -18.5t-93 -39t-78 -54.5l-88 67
q78 68 168 111t215 43q174 0 276 -104.5t102 -286.5zM442 84q82 0 150 23.5t110 61t66.5 73.5t36.5 71v181h-35q-210 0 -258 -3q-234 -15 -294 -116q-23 -39 -23 -92q0 -95 73.5 -147t173.5 -52zM795 1210h-95l-163 209l-162 -209h-94l211 269h92z" />
    <glyph glyph-name="atilde" unicode="&#xe3;" horiz-adv-x="1067" 
d="M913 672v-672h-108v160q-131 -187 -363 -187q-156 0 -258 87.5t-102 222.5q0 67 24 119t57 85.5t95 56.5t109.5 34.5t130.5 17.5t129 7t132 1h13q5 0 16.5 -1t16.5 -1v70q0 57 -14 105t-44 89t-84 64.5t-128 23.5q-65 0 -124 -18.5t-93 -39t-78 -54.5l-88 67
q78 68 168 111t215 43q174 0 276 -104.5t102 -286.5zM442 84q82 0 150 23.5t110 61t66.5 73.5t36.5 71v181h-35q-210 0 -258 -3q-234 -15 -294 -116q-23 -39 -23 -92q0 -95 73.5 -147t173.5 -52zM729 1382l90 -12q-12 -78 -53 -121t-107 -43q-45 0 -127 41t-114 41
q-60 0 -72 -90l-90 14q11 79 52 122.5t106 43.5q44 0 127 -40t114 -40q62 0 74 84z" />
    <glyph glyph-name="adieresis" unicode="&#xe4;" horiz-adv-x="1067" 
d="M913 672v-672h-108v160q-131 -187 -363 -187q-156 0 -258 87.5t-102 222.5q0 67 24 119t57 85.5t95 56.5t109.5 34.5t130.5 17.5t129 7t132 1h13q5 0 16.5 -1t16.5 -1v70q0 57 -14 105t-44 89t-84 64.5t-128 23.5q-65 0 -124 -18.5t-93 -39t-78 -54.5l-88 67
q78 68 168 111t215 43q174 0 276 -104.5t102 -286.5zM442 84q82 0 150 23.5t110 61t66.5 73.5t36.5 71v181h-35q-210 0 -258 -3q-234 -15 -294 -116q-23 -39 -23 -92q0 -95 73.5 -147t173.5 -52zM354 1411q35 0 59.5 -25t24.5 -59q0 -35 -24.5 -59.5t-59.5 -24.5t-59.5 24.5
t-24.5 59.5q0 34 24.5 59t59.5 25zM725 1411q34 0 58 -25t24 -59q0 -35 -24 -59.5t-58 -24.5q-35 0 -59.5 24.5t-24.5 59.5q0 34 24.5 59t59.5 25z" />
    <glyph glyph-name="aring" unicode="&#xe5;" horiz-adv-x="1067" 
d="M913 672v-672h-108v160q-131 -187 -363 -187q-156 0 -258 87.5t-102 222.5q0 67 24 119t57 85.5t95 56.5t109.5 34.5t130.5 17.5t129 7t132 1h13q5 0 16.5 -1t16.5 -1v70q0 57 -14 105t-44 89t-84 64.5t-128 23.5q-65 0 -124 -18.5t-93 -39t-78 -54.5l-88 67
q78 68 168 111t215 43q174 0 276 -104.5t102 -286.5zM442 84q82 0 150 23.5t110 61t66.5 73.5t36.5 71v181h-35q-210 0 -258 -3q-234 -15 -294 -116q-23 -39 -23 -92q0 -95 73.5 -147t173.5 -52zM539 1583q90 0 153.5 -63.5t63.5 -153.5q0 -91 -63 -154t-154 -63
q-90 0 -153.5 63.5t-63.5 153.5q0 89 64 153t153 64zM539 1239q53 0 90 37.5t37 89.5t-37 88.5t-90 36.5t-89 -36.5t-36 -88.5q0 -53 36.5 -90t88.5 -37z" />
    <glyph glyph-name="ae" unicode="&#xe6;" horiz-adv-x="1869" 
d="M1305 1063q221 0 357.5 -166.5t123.5 -433.5h-868q19 -163 132 -271t275 -108q100 0 175 36.5t142 112.5l93 -59q-162 -201 -410 -201q-143 0 -260 70t-186 190q-23 -47 -58 -89t-87.5 -82.5t-128 -64.5t-163.5 -24q-158 0 -259 79t-101 212q0 65 23 115t53 82.5t90 55
t103.5 33.5t126 16.5t124 6t128.5 0.5h42h33v99q0 118 -72.5 200t-216.5 82q-93 0 -160 -30t-133 -82l-90 67q80 68 170 111t213 43q134 0 233 -63t140 -175q66 110 174.5 174t241.5 64zM1305 954q-158 0 -263.5 -109t-123.5 -272h755q-17 171 -118 276t-250 105zM442 84
q71 0 131 18.5t99 45.5t68.5 61.5t44 63.5t20.5 55v137h-35q-25 0 -73.5 0.5t-79 1t-77 -1t-77 -4.5t-70.5 -9.5t-65.5 -16t-53 -25t-43.5 -36t-26 -48.5t-10 -62q0 -93 71.5 -136.5t175.5 -43.5z" />
    <glyph glyph-name="ccedilla" unicode="&#xe7;" horiz-adv-x="1134" 
d="M621 84q108 0 201 50t153 136l96 -51q-74 -113 -193 -179.5t-257 -66.5q-21 0 -31 2l-49 -100q95 26 172.5 -20.5t77.5 -147.5q0 -68 -37.5 -117t-95 -69.5t-128.5 -15.5t-137 38l47 86q57 -27 113 -28t93.5 27.5t37.5 82.5q0 67 -55 90.5t-131 -12.5l-47 59l65 136
q-188 37 -311 187t-123 347q0 148 72 273.5t196 198.5t271 73q139 0 258 -66t192 -178l-96 -53q-60 87 -153 137.5t-201 50.5q-180 0 -305.5 -128t-125.5 -308t125.5 -307t305.5 -127z" />
    <glyph glyph-name="egrave" unicode="&#xe8;" horiz-adv-x="1171" 
d="M594 1063q222 0 364 -167.5t129 -432.5h-892q19 -161 137.5 -270t281.5 -109q206 0 334 149l94 -59q-162 -201 -428 -201q-147 0 -269.5 73.5t-192.5 198.5t-70 273q0 146 65.5 271t184 199.5t262.5 74.5zM594 954q-159 0 -270 -109.5t-129 -271.5h780
q-19 170 -125 275.5t-256 105.5zM524 1479l127 -269h-69l-187 269h129z" />
    <glyph glyph-name="eacute" unicode="&#xe9;" horiz-adv-x="1171" 
d="M594 1063q222 0 364 -167.5t129 -432.5h-892q19 -161 137.5 -270t281.5 -109q206 0 334 149l94 -59q-162 -201 -428 -201q-147 0 -269.5 73.5t-192.5 198.5t-70 273q0 146 65.5 271t184 199.5t262.5 74.5zM594 954q-159 0 -270 -109.5t-129 -271.5h780
q-19 170 -125 275.5t-256 105.5zM666 1479h129l-187 -269h-67z" />
    <glyph glyph-name="ecircumflex" unicode="&#xea;" horiz-adv-x="1171" 
d="M594 1063q222 0 364 -167.5t129 -432.5h-892q19 -161 137.5 -270t281.5 -109q206 0 334 149l94 -59q-162 -201 -428 -201q-147 0 -269.5 73.5t-192.5 198.5t-70 273q0 146 65.5 271t184 199.5t262.5 74.5zM594 954q-159 0 -270 -109.5t-129 -271.5h780
q-19 170 -125 275.5t-256 105.5zM842 1210h-94l-164 209l-162 -209h-94l211 269h92z" />
    <glyph glyph-name="edieresis" unicode="&#xeb;" horiz-adv-x="1171" 
d="M594 1063q222 0 364 -167.5t129 -432.5h-892q19 -161 137.5 -270t281.5 -109q206 0 334 149l94 -59q-162 -201 -428 -201q-147 0 -269.5 73.5t-192.5 198.5t-70 273q0 146 65.5 271t184 199.5t262.5 74.5zM594 954q-159 0 -270 -109.5t-129 -271.5h780
q-19 170 -125 275.5t-256 105.5zM401 1411q35 0 59.5 -25t24.5 -59q0 -35 -24.5 -59.5t-59.5 -24.5t-59.5 24.5t-24.5 59.5q0 34 24.5 59t59.5 25zM772 1411q34 0 58 -25t24 -59q0 -35 -24 -59.5t-58 -24.5q-35 0 -59.5 24.5t-24.5 59.5q0 34 24.5 59t59.5 25z" />
    <glyph glyph-name="igrave" unicode="&#xec;" horiz-adv-x="417" 
d="M154 0v1038h110v-1038h-110zM109 1479l127 -269h-70l-186 269h129z" />
    <glyph glyph-name="iacute" unicode="&#xed;" horiz-adv-x="417" 
d="M154 0v1038h110v-1038h-110zM309 1479h129l-186 -269h-68z" />
    <glyph glyph-name="icircumflex" unicode="&#xee;" horiz-adv-x="417" 
d="M154 0v1038h110v-1038h-110zM467 1210h-94l-164 209l-162 -209h-94l211 269h92z" />
    <glyph glyph-name="idieresis" unicode="&#xef;" horiz-adv-x="417" 
d="M154 0v1038h110v-1038h-110zM25 1411q35 0 59.5 -25t24.5 -59q0 -35 -24.5 -59.5t-59.5 -24.5t-59.5 24.5t-24.5 59.5q0 34 24.5 59t59.5 25zM395 1411q34 0 58 -25t24 -59q0 -35 -24 -59.5t-58 -24.5q-35 0 -59.5 24.5t-24.5 59.5q0 34 24.5 59t59.5 25z" />
    <glyph glyph-name="eth" unicode="&#xf0;" horiz-adv-x="1167" 
d="M741 1255q159 -154 251.5 -349t92.5 -419q0 -220 -145 -367t-360 -147q-136 0 -250.5 66t-181 180t-66.5 250t66.5 250t181 180t250.5 66q206 0 335 -148l5 2q-93 213 -279 387l-285 -137l-39 82l248 121q-120 95 -248 151l97 66q141 -72 254 -168l217 106l39 -81z
M580 84q162 0 276.5 112t114.5 273q0 162 -114.5 274.5t-276.5 112.5q-163 0 -276.5 -112.5t-113.5 -274.5q0 -161 113.5 -273t276.5 -112z" />
    <glyph glyph-name="ntilde" unicode="&#xf1;" horiz-adv-x="1175" 
d="M606 1063q86 0 157.5 -27.5t118.5 -72.5t79.5 -104.5t46.5 -121.5t14 -125v-612h-109v612q0 46 -8.5 90.5t-30.5 91t-55.5 81.5t-88.5 57t-124 22q-86 0 -154.5 -33t-108.5 -85t-60.5 -110t-20.5 -114v-612h-108v1038h108v-164q118 189 344 189zM780 1382l90 -12
q-12 -78 -52.5 -121t-106.5 -43q-45 0 -127.5 41t-114.5 41q-60 0 -72 -90l-90 14q11 79 52 122.5t106 43.5q44 0 127.5 -40t114.5 -40q61 0 73 84z" />
    <glyph glyph-name="ograve" unicode="&#xf2;" horiz-adv-x="1241" 
d="M621 1063q148 0 272 -73t195 -198.5t71 -273.5q0 -147 -71 -272.5t-195 -199t-272 -73.5q-147 0 -271 73.5t-196 199t-72 272.5q0 148 72 273.5t196 198.5t271 73zM621 84q180 0 305 127t125 307q0 181 -125.5 308.5t-304.5 127.5q-180 0 -305.5 -128t-125.5 -308
t125.5 -307t305.5 -127zM539 1479l127 -269h-70l-186 269h129z" />
    <glyph glyph-name="oacute" unicode="&#xf3;" horiz-adv-x="1241" 
d="M621 1063q148 0 272 -73t195 -198.5t71 -273.5q0 -147 -71 -272.5t-195 -199t-272 -73.5q-147 0 -271 73.5t-196 199t-72 272.5q0 148 72 273.5t196 198.5t271 73zM621 84q180 0 305 127t125 307q0 181 -125.5 308.5t-304.5 127.5q-180 0 -305.5 -128t-125.5 -308
t125.5 -307t305.5 -127zM700 1479h129l-186 -269h-68z" />
    <glyph glyph-name="ocircumflex" unicode="&#xf4;" horiz-adv-x="1241" 
d="M621 1063q148 0 272 -73t195 -198.5t71 -273.5q0 -147 -71 -272.5t-195 -199t-272 -73.5q-147 0 -271 73.5t-196 199t-72 272.5q0 148 72 273.5t196 198.5t271 73zM621 84q180 0 305 127t125 307q0 181 -125.5 308.5t-304.5 127.5q-180 0 -305.5 -128t-125.5 -308
t125.5 -307t305.5 -127zM879 1210h-95l-163 209l-162 -209h-94l210 269h93z" />
    <glyph glyph-name="otilde" unicode="&#xf5;" horiz-adv-x="1241" 
d="M621 1063q148 0 272 -73t195 -198.5t71 -273.5q0 -147 -71 -272.5t-195 -199t-272 -73.5q-147 0 -271 73.5t-196 199t-72 272.5q0 148 72 273.5t196 198.5t271 73zM621 84q180 0 305 127t125 307q0 181 -125.5 308.5t-304.5 127.5q-180 0 -305.5 -128t-125.5 -308
t125.5 -307t305.5 -127zM811 1382l90 -12q-12 -78 -53 -121t-107 -43q-45 0 -127 41t-114 41q-60 0 -72 -90l-90 14q11 79 52 122.5t106 43.5q44 0 127 -40t114 -40q62 0 74 84z" />
    <glyph glyph-name="odieresis" unicode="&#xf6;" horiz-adv-x="1241" 
d="M621 1063q148 0 272 -73t195 -198.5t71 -273.5q0 -147 -71 -272.5t-195 -199t-272 -73.5q-147 0 -271 73.5t-196 199t-72 272.5q0 148 72 273.5t196 198.5t271 73zM621 84q180 0 305 127t125 307q0 181 -125.5 308.5t-304.5 127.5q-180 0 -305.5 -128t-125.5 -308
t125.5 -307t305.5 -127zM436 1411q35 0 59.5 -25t24.5 -59q0 -35 -24.5 -59.5t-59.5 -24.5t-59.5 24.5t-24.5 59.5q0 34 24.5 59t59.5 25zM807 1411q34 0 58 -25t24 -59q0 -35 -24 -59.5t-58 -24.5q-35 0 -59.5 24.5t-24.5 59.5q0 34 24.5 59t59.5 25z" />
    <glyph glyph-name="divide" unicode="&#xf7;" horiz-adv-x="1130" 
d="M565 909q-35 0 -60.5 25.5t-25.5 60.5t25.5 60.5t60.5 25.5t60.5 -25.5t25.5 -60.5t-25.5 -60.5t-60.5 -25.5zM565 309q35 0 60.5 -25.5t25.5 -60.5t-25.5 -60.5t-60.5 -25.5t-60.5 25.5t-25.5 60.5t25.5 60.5t60.5 25.5zM164 664h803v-109h-803v109z" />
    <glyph glyph-name="oslash" unicode="&#xf8;" horiz-adv-x="1241" 
d="M1051 848q110 -145 110 -330q0 -147 -71.5 -272.5t-196 -199t-272.5 -73.5q-211 0 -369 148l-105 -96l-61 67l107 96q-111 146 -111 330q0 148 72 273.5t196 198.5t271 73q214 0 368 -148l107 99l61 -68zM190 518q0 -140 82 -256l637 580q-122 112 -288 112
q-180 0 -305.5 -128t-125.5 -308zM621 84q180 0 305 127t125 307q0 140 -82 256l-635 -579q121 -111 287 -111z" />
    <glyph glyph-name="ugrave" unicode="&#xf9;" 
d="M913 1038h111v-1038h-111v162q-53 -86 -139.5 -137.5t-202.5 -51.5q-87 0 -158.5 27.5t-118.5 72.5t-79.5 104.5t-46.5 121.5t-14 125v614h110v-614q0 -45 8.5 -89.5t30.5 -91t55.5 -81t88.5 -56.5t124 -22q86 0 154 33t107.5 85t60 109t20.5 113v614zM528 1479l127 -269
h-69l-187 269h129z" />
    <glyph glyph-name="uacute" unicode="&#xfa;" 
d="M913 1038h111v-1038h-111v162q-53 -86 -139.5 -137.5t-202.5 -51.5q-87 0 -158.5 27.5t-118.5 72.5t-79.5 104.5t-46.5 121.5t-14 125v614h110v-614q0 -45 8.5 -89.5t30.5 -91t55.5 -81t88.5 -56.5t124 -22q86 0 154 33t107.5 85t60 109t20.5 113v614zM688 1479h129
l-186 -269h-68z" />
    <glyph glyph-name="ucircumflex" unicode="&#xfb;" 
d="M913 1038h111v-1038h-111v162q-53 -86 -139.5 -137.5t-202.5 -51.5q-87 0 -158.5 27.5t-118.5 72.5t-79.5 104.5t-46.5 121.5t-14 125v614h110v-614q0 -45 8.5 -89.5t30.5 -91t55.5 -81t88.5 -56.5t124 -22q86 0 154 33t107.5 85t60 109t20.5 113v614zM846 1210h-94
l-164 209l-162 -209h-94l211 269h92z" />
    <glyph glyph-name="udieresis" unicode="&#xfc;" 
d="M913 1038h111v-1038h-111v162q-53 -86 -139.5 -137.5t-202.5 -51.5q-87 0 -158.5 27.5t-118.5 72.5t-79.5 104.5t-46.5 121.5t-14 125v614h110v-614q0 -45 8.5 -89.5t30.5 -91t55.5 -81t88.5 -56.5t124 -22q86 0 154 33t107.5 85t60 109t20.5 113v614zM403 1411
q35 0 59.5 -25t24.5 -59q0 -35 -24.5 -59.5t-59.5 -24.5t-59.5 24.5t-24.5 59.5q0 34 24.5 59t59.5 25zM774 1411q34 0 58 -25t24 -59q0 -35 -24 -59.5t-58 -24.5q-35 0 -59.5 24.5t-24.5 59.5q0 34 24.5 59t59.5 25z" />
    <glyph glyph-name="yacute" unicode="&#xfd;" horiz-adv-x="1028" 
d="M870 1038h117l-584 -1433h-116l186 456l-432 977h117l370 -837zM614 1479h129l-186 -269h-68z" />
    <glyph glyph-name="thorn" unicode="&#xfe;" horiz-adv-x="1271" 
d="M672 1063q146 0 265.5 -73t186 -198t66.5 -274q0 -148 -66.5 -273t-186 -198.5t-265.5 -73.5q-131 0 -237 59.5t-173 162.5v-590h-108v1829h108v-592q66 104 172 162.5t238 58.5zM672 84q117 0 211.5 58.5t146 157.5t51.5 218q0 183 -116 309.5t-293 126.5
q-117 0 -211.5 -59t-146.5 -158.5t-52 -218.5q0 -182 116 -308t294 -126z" />
    <glyph glyph-name="ydieresis" unicode="&#xff;" horiz-adv-x="1028" 
d="M870 1038h117l-584 -1433h-116l186 456l-432 977h117l370 -837zM330 1411q35 0 59.5 -25t24.5 -59q0 -35 -24.5 -59.5t-59.5 -24.5t-59.5 24.5t-24.5 59.5q0 34 24.5 59t59.5 25zM700 1411q34 0 58 -25t24 -59q0 -35 -24 -59.5t-58 -24.5q-35 0 -59.5 24.5t-24.5 59.5
q0 34 24.5 59t59.5 25z" />
    <glyph glyph-name="Amacron" unicode="&#x100;" horiz-adv-x="1308" 
d="M1130 0l-149 401h-653l-150 -401h-117l535 1434h117l534 -1434h-117zM369 512h571l-285 764zM410 1774h487v-93h-487v93z" />
    <glyph glyph-name="amacron" unicode="&#x101;" horiz-adv-x="1067" 
d="M913 672v-672h-108v160q-131 -187 -363 -187q-156 0 -258 87.5t-102 222.5q0 67 24 119t57 85.5t95 56.5t109.5 34.5t130.5 17.5t129 7t132 1h13q5 0 16.5 -1t16.5 -1v70q0 57 -14 105t-44 89t-84 64.5t-128 23.5q-65 0 -124 -18.5t-93 -39t-78 -54.5l-88 67
q78 68 168 111t215 43q174 0 276 -104.5t102 -286.5zM442 84q82 0 150 23.5t110 61t66.5 73.5t36.5 71v181h-35q-210 0 -258 -3q-234 -15 -294 -116q-23 -39 -23 -92q0 -95 73.5 -147t173.5 -52zM295 1364h487v-92h-487v92z" />
    <glyph glyph-name="Abreve" unicode="&#x102;" horiz-adv-x="1308" 
d="M1130 0l-149 401h-653l-150 -401h-117l535 1434h117l534 -1434h-117zM369 512h571l-285 764zM827 1853h93q-6 -97 -77.5 -168t-189.5 -71q-119 0 -189 71t-77 168h90q3 -25 13 -48.5t29 -47t53.5 -37.5t80.5 -14q85 0 126.5 45.5t47.5 101.5z" />
    <glyph glyph-name="abreve" unicode="&#x103;" horiz-adv-x="1067" 
d="M913 672v-672h-108v160q-131 -187 -363 -187q-156 0 -258 87.5t-102 222.5q0 67 24 119t57 85.5t95 56.5t109.5 34.5t130.5 17.5t129 7t132 1h13q5 0 16.5 -1t16.5 -1v70q0 57 -14 105t-44 89t-84 64.5t-128 23.5q-65 0 -124 -18.5t-93 -39t-78 -54.5l-88 67
q78 68 168 111t215 43q174 0 276 -104.5t102 -286.5zM442 84q82 0 150 23.5t110 61t66.5 73.5t36.5 71v181h-35q-210 0 -258 -3q-234 -15 -294 -116q-23 -39 -23 -92q0 -95 73.5 -147t173.5 -52zM713 1444h92q-7 -97 -77.5 -168.5t-188.5 -71.5q-119 0 -189.5 71.5
t-77.5 168.5h90q3 -25 13 -48.5t29.5 -47t54 -38t80.5 -14.5q85 0 126.5 45.5t47.5 102.5z" />
    <glyph glyph-name="Aogonek" unicode="&#x104;" horiz-adv-x="1308" 
d="M1079 -248q0 -66 41.5 -96.5t126.5 -17.5v-95q-29 -10 -80 -10q-78 0 -132 49t-54 131q0 89 58 165.5t130 121.5h-39l-149 401h-651l-152 -401h-117l535 1434h117l534 -1434q-71 -45 -119.5 -115.5t-48.5 -132.5zM369 512h571l-285 764z" />
    <glyph glyph-name="aogonek" unicode="&#x105;" horiz-adv-x="1067" 
d="M915 0q-72 -44 -119.5 -114.5t-47.5 -133.5q0 -66 41 -96.5t126 -17.5v-95q-29 -10 -79 -10q-78 0 -132.5 49t-54.5 131q0 89 58 165t131 122h-33v160q-54 -81 -144 -134t-217 -53q-157 0 -259.5 87.5t-102.5 222.5q0 67 24 119t57.5 85.5t95 56.5t109.5 34.5t131 17.5
t129 7t131 1h13q6 0 17 -1t16 -1v70q0 57 -14 105t-43.5 89t-83.5 64.5t-127 23.5q-93 0 -161 -30.5t-134 -81.5l-90 67q80 69 170.5 111.5t214.5 42.5q174 0 276 -104.5t102 -286.5v-672zM805 313v181h-33h-58q-51 0 -102.5 0.5t-102.5 -4t-97 -11t-85.5 -22.5t-68 -38
t-45 -56.5t-16.5 -79.5q0 -95 73.5 -147t173.5 -52q82 0 149.5 23.5t109.5 61t66.5 73.5t35.5 71z" />
    <glyph glyph-name="Cacute" unicode="&#x106;" horiz-adv-x="1460" 
d="M827 84q142 0 263 58.5t206 162.5l93 -61q-101 -126 -247.5 -198.5t-314.5 -72.5q-201 0 -368 100t-262 270.5t-95 373.5q0 151 56 288t152 236.5t231 158t286 58.5q169 0 315.5 -71.5t246.5 -198.5l-93 -60q-86 104 -207 163t-262 59q-172 0 -313.5 -85.5t-221 -230.5
t-79.5 -317q0 -173 80 -318t221 -230t313 -85zM866 1888h129l-186 -268h-68z" />
    <glyph glyph-name="cacute" unicode="&#x107;" horiz-adv-x="1134" 
d="M623 84q109 0 201.5 50t150.5 136l98 -51q-74 -113 -193 -179.5t-257 -66.5q-148 0 -272.5 73.5t-196.5 199t-72 272.5q0 148 72 273.5t196.5 198.5t272.5 73q139 0 258 -66t192 -178l-98 -53q-58 87 -151 137.5t-201 50.5q-179 0 -304.5 -127.5t-125.5 -308.5
q0 -180 125 -307t305 -127zM657 1479h129l-186 -269h-68z" />
    <glyph glyph-name="Ccircumflex" unicode="&#x108;" horiz-adv-x="1460" 
d="M827 84q142 0 263 58.5t206 162.5l93 -61q-101 -126 -247.5 -198.5t-314.5 -72.5q-201 0 -368 100t-262 270.5t-95 373.5q0 151 56 288t152 236.5t231 158t286 58.5q169 0 315.5 -71.5t246.5 -198.5l-93 -60q-86 104 -207 163t-262 59q-172 0 -313.5 -85.5t-221 -230.5
t-79.5 -317q0 -173 80 -318t221 -230t313 -85zM1063 1620h-94l-164 209l-162 -209h-94l211 268h92z" />
    <glyph glyph-name="ccircumflex" unicode="&#x109;" horiz-adv-x="1134" 
d="M623 84q109 0 201.5 50t150.5 136l98 -51q-74 -113 -193 -179.5t-257 -66.5q-148 0 -272.5 73.5t-196.5 199t-72 272.5q0 148 72 273.5t196.5 198.5t272.5 73q139 0 258 -66t192 -178l-98 -53q-58 87 -151 137.5t-201 50.5q-179 0 -304.5 -127.5t-125.5 -308.5
q0 -180 125 -307t305 -127zM874 1210h-94l-164 209l-161 -209h-95l211 269h93z" />
    <glyph glyph-name="Cdotaccent" unicode="&#x10a;" horiz-adv-x="1460" 
d="M827 84q142 0 263 58.5t206 162.5l93 -61q-101 -126 -247.5 -198.5t-314.5 -72.5q-201 0 -368 100t-262 270.5t-95 373.5q0 151 56 288t152 236.5t231 158t286 58.5q169 0 315.5 -71.5t246.5 -198.5l-93 -60q-86 104 -207 163t-262 59q-172 0 -313.5 -85.5t-221 -230.5
t-79.5 -317q0 -173 80 -318t221 -230t313 -85zM807 1821q35 0 59.5 -25t24.5 -59q0 -35 -24.5 -59.5t-59.5 -24.5q-34 0 -59 24.5t-25 59.5q0 34 25 59t59 25z" />
    <glyph glyph-name="cdotaccent" unicode="&#x10b;" horiz-adv-x="1134" 
d="M623 84q109 0 201.5 50t150.5 136l98 -51q-74 -113 -193 -179.5t-257 -66.5q-148 0 -272.5 73.5t-196.5 199t-72 272.5q0 148 72 273.5t196.5 198.5t272.5 73q139 0 258 -66t192 -178l-98 -53q-58 87 -151 137.5t-201 50.5q-179 0 -304.5 -127.5t-125.5 -308.5
q0 -180 125 -307t305 -127zM618 1411q35 0 59.5 -25t24.5 -59q0 -35 -24.5 -59.5t-59.5 -24.5q-34 0 -58.5 24.5t-24.5 59.5q0 34 24.5 59t58.5 25z" />
    <glyph glyph-name="Ccaron" unicode="&#x10c;" horiz-adv-x="1460" 
d="M827 84q142 0 263 58.5t206 162.5l93 -61q-101 -126 -247.5 -198.5t-314.5 -72.5q-201 0 -368 100t-262 270.5t-95 373.5q0 151 56 288t152 236.5t231 158t286 58.5q169 0 315.5 -71.5t246.5 -198.5l-93 -60q-86 104 -207 163t-262 59q-172 0 -313.5 -85.5t-221 -230.5
t-79.5 -317q0 -173 80 -318t221 -230t313 -85zM969 1888h94l-211 -268h-92l-211 268h94l164 -209z" />
    <glyph glyph-name="ccaron" unicode="&#x10d;" horiz-adv-x="1134" 
d="M623 84q109 0 201.5 50t150.5 136l98 -51q-74 -113 -193 -179.5t-257 -66.5q-148 0 -272.5 73.5t-196.5 199t-72 272.5q0 148 72 273.5t196.5 198.5t272.5 73q139 0 258 -66t192 -178l-98 -53q-58 87 -151 137.5t-201 50.5q-179 0 -304.5 -127.5t-125.5 -308.5
q0 -180 125 -307t305 -127zM780 1479h94l-210 -269h-93l-211 269h95l163 -209z" />
    <glyph glyph-name="Dcaron" unicode="&#x10e;" horiz-adv-x="1400" 
d="M592 1434q202 0 363.5 -93.5t252 -257t90.5 -366.5t-90.5 -366.5t-252 -257t-363.5 -93.5h-428v1434h428zM592 109q261 0 429.5 172t168.5 436q0 262 -168.5 434t-429.5 172h-320v-1214h320zM811 1888h94l-211 -268h-92l-211 268h94l164 -209z" />
    <glyph glyph-name="dcaron" unicode="&#x10f;" horiz-adv-x="1347" 
d="M1397 1434h125l-158 -287h-74zM1010 1434h108v-1434h-108v195q-67 -103 -173 -162.5t-237 -59.5q-146 0 -265.5 73.5t-186 198.5t-66.5 273q0 149 66.5 274t186 198t265.5 73q132 0 238 -58.5t172 -162.5v592zM600 84q178 0 294 126t116 308q0 119 -52 218.5
t-146.5 158.5t-211.5 59q-177 0 -292 -126.5t-115 -309.5t115 -308.5t292 -125.5z" />
    <glyph glyph-name="Dcroat" unicode="&#x110;" horiz-adv-x="1499" 
d="M690 1434q121 0 230.5 -35t195.5 -99.5t149.5 -152.5t97.5 -198.5t34 -231.5t-34 -231.5t-97.5 -198.5t-149.5 -152.5t-195.5 -99.5t-230.5 -35h-428v672h-201v90h201v672h428zM690 109q261 0 429.5 172t168.5 436q0 262 -168.5 434t-429.5 172h-319v-561h458v-90h-458
v-563h319z" />
    <glyph glyph-name="dcroat" unicode="&#x111;" horiz-adv-x="1271" 
d="M1266 1239v-92h-148v-1147h-108v182q-66 -98 -172 -153.5t-238 -55.5q-223 0 -370.5 151t-147.5 376q0 226 147 376t371 150q133 0 238.5 -55t171.5 -154v330h-365v92h365v195h108v-195h148zM600 84q179 0 294.5 117.5t115.5 298.5t-115.5 299.5t-294.5 118.5
t-293 -118.5t-114 -299.5t114 -298.5t293 -117.5z" />
    <glyph glyph-name="Emacron" unicode="&#x112;" horiz-adv-x="1056" 
d="M272 109h682v-109h-790v1434h772v-111h-664v-526h617v-109h-617v-579zM315 1774h488v-93h-488v93z" />
    <glyph glyph-name="emacron" unicode="&#x113;" horiz-adv-x="1171" 
d="M594 1063q222 0 364 -167.5t129 -432.5h-892q19 -161 137.5 -270t281.5 -109q206 0 334 149l94 -59q-162 -201 -428 -201q-147 0 -269.5 73.5t-192.5 198.5t-70 273q0 146 65.5 271t184 199.5t262.5 74.5zM594 954q-159 0 -270 -109.5t-129 -271.5h780
q-19 170 -125 275.5t-256 105.5zM342 1364h487v-92h-487v92z" />
    <glyph glyph-name="Ebreve" unicode="&#x114;" horiz-adv-x="1056" 
d="M272 109h682v-109h-790v1434h772v-111h-664v-526h617v-109h-617v-579zM733 1853h92q-6 -97 -77 -168t-189 -71q-119 0 -189 71t-77 168h90q3 -25 13 -48.5t29 -47t53.5 -37.5t80.5 -14q85 0 126.5 45.5t47.5 101.5z" />
    <glyph glyph-name="ebreve" unicode="&#x115;" horiz-adv-x="1171" 
d="M594 1063q222 0 364 -167.5t129 -432.5h-892q19 -161 137.5 -270t281.5 -109q206 0 334 149l94 -59q-162 -201 -428 -201q-147 0 -269.5 73.5t-192.5 198.5t-70 273q0 146 65.5 271t184 199.5t262.5 74.5zM594 954q-159 0 -270 -109.5t-129 -271.5h780
q-19 170 -125 275.5t-256 105.5zM760 1444h92q-7 -97 -77.5 -168.5t-188.5 -71.5q-119 0 -189.5 71.5t-77.5 168.5h91q3 -25 13 -48.5t29 -47t53.5 -38t80.5 -14.5q85 0 126.5 45.5t47.5 102.5z" />
    <glyph glyph-name="Edotaccent" unicode="&#x116;" horiz-adv-x="1056" 
d="M272 109h682v-109h-790v1434h772v-111h-664v-526h617v-109h-617v-579zM559 1821q35 0 59.5 -25t24.5 -59q0 -35 -24.5 -59.5t-59.5 -24.5q-34 0 -59 24.5t-25 59.5q0 34 25 59t59 25z" />
    <glyph glyph-name="edotaccent" unicode="&#x117;" horiz-adv-x="1171" 
d="M594 1063q222 0 364 -167.5t129 -432.5h-892q19 -161 137.5 -270t281.5 -109q206 0 334 149l94 -59q-162 -201 -428 -201q-147 0 -269.5 73.5t-192.5 198.5t-70 273q0 146 65.5 271t184 199.5t262.5 74.5zM594 954q-159 0 -270 -109.5t-129 -271.5h780
q-19 170 -125 275.5t-256 105.5zM586 1411q35 0 59.5 -25t24.5 -59q0 -35 -24.5 -59.5t-59.5 -24.5q-34 0 -59 24.5t-25 59.5q0 34 25 59t59 25z" />
    <glyph glyph-name="Eogonek" unicode="&#x118;" horiz-adv-x="1056" 
d="M956 0q-72 -44 -120 -114.5t-48 -133.5q0 -66 41.5 -96.5t126.5 -17.5v-95q-29 -10 -79 -10q-78 0 -132.5 49t-54.5 131q0 89 58 165t131 122h-715v1434h772v-111h-662v-526h617v-109h-617v-579h682v-109z" />
    <glyph glyph-name="eogonek" unicode="&#x119;" horiz-adv-x="1171" 
d="M594 1063q222 0 364 -167.5t129 -432.5h-892q19 -161 138 -270t283 -109q204 0 332 149l94 -59q-123 -151 -307 -188q-71 -45 -116.5 -109.5t-45.5 -124.5q0 -66 41.5 -96.5t126.5 -17.5v-95q-29 -10 -79 -10q-78 0 -132.5 49t-54.5 131q0 77 44 144t108 116h-11
q-148 0 -271 73.5t-193 198.5t-70 273q0 146 65.5 271t184 199.5t262.5 74.5zM594 954q-159 0 -270 -109.5t-129 -271.5h780q-19 170 -125 275.5t-256 105.5z" />
    <glyph glyph-name="Ecaron" unicode="&#x11a;" horiz-adv-x="1056" 
d="M272 109h682v-109h-790v1434h772v-111h-664v-526h617v-109h-617v-579zM723 1888h94l-211 -268h-92l-211 268h94l164 -209z" />
    <glyph glyph-name="ecaron" unicode="&#x11b;" horiz-adv-x="1171" 
d="M594 1063q222 0 364 -167.5t129 -432.5h-892q19 -161 137.5 -270t281.5 -109q206 0 334 149l94 -59q-162 -201 -428 -201q-147 0 -269.5 73.5t-192.5 198.5t-70 273q0 146 65.5 271t184 199.5t262.5 74.5zM594 954q-159 0 -270 -109.5t-129 -271.5h780
q-19 170 -125 275.5t-256 105.5zM748 1479h94l-211 -269h-92l-211 269h94l164 -209z" />
    <glyph glyph-name="Gcircumflex" unicode="&#x11c;" horiz-adv-x="1632" 
d="M866 774h623v-774h-72l-26 303q-77 -155 -221 -242.5t-343 -87.5q-201 0 -368 100t-262 270.5t-95 373.5q0 151 56 288t152 236.5t231 158t286 58.5q169 0 315.5 -71.5t246.5 -198.5l-93 -60q-85 104 -207 163t-262 59q-172 0 -314 -85.5t-222 -230.5t-80 -317
q0 -173 80.5 -318t222 -230t313.5 -85t298 78t189 208t66 296h-514v108zM1075 1620h-94l-164 209l-162 -209h-94l211 268h92z" />
    <glyph glyph-name="gcircumflex" unicode="&#x11d;" horiz-adv-x="1271" 
d="M1008 1038h110v-929q0 -101 -34 -193.5t-97.5 -166.5t-166 -118.5t-228.5 -44.5q-137 0 -254.5 52.5t-192.5 148.5l93 61q124 -153 354 -153q105 0 187 35.5t130.5 95t73.5 132t25 151.5v151q-61 -107 -167.5 -169t-240.5 -62q-218 0 -368 150t-150 368q0 142 68.5 260.5
t187.5 187t262 68.5q134 0 240.5 -62t167.5 -170v207zM600 139q172 0 290 117.5t118 290.5q0 172 -118 289.5t-290 117.5q-173 0 -291.5 -117.5t-118.5 -289.5q0 -173 118.5 -290.5t291.5 -117.5zM877 1210h-95l-164 209l-161 -209h-95l211 269h93z" />
    <glyph glyph-name="Gbreve" unicode="&#x11e;" horiz-adv-x="1632" 
d="M866 774h623v-774h-72l-26 303q-77 -155 -221 -242.5t-343 -87.5q-201 0 -368 100t-262 270.5t-95 373.5q0 151 56 288t152 236.5t231 158t286 58.5q169 0 315.5 -71.5t246.5 -198.5l-93 -60q-85 104 -207 163t-262 59q-172 0 -314 -85.5t-222 -230.5t-80 -317
q0 -173 80.5 -318t222 -230t313.5 -85t298 78t189 208t66 296h-514v108zM993 1853h92q-6 -97 -77 -168t-189 -71q-119 0 -189 71t-77 168h90q3 -25 13 -48.5t29 -47t53.5 -37.5t80.5 -14q85 0 126.5 45.5t47.5 101.5z" />
    <glyph glyph-name="gbreve" unicode="&#x11f;" horiz-adv-x="1271" 
d="M1008 1038h110v-929q0 -101 -34 -193.5t-97.5 -166.5t-166 -118.5t-228.5 -44.5q-137 0 -254.5 52.5t-192.5 148.5l93 61q124 -153 354 -153q105 0 187 35.5t130.5 95t73.5 132t25 151.5v151q-61 -107 -167.5 -169t-240.5 -62q-218 0 -368 150t-150 368q0 142 68.5 260.5
t187.5 187t262 68.5q134 0 240.5 -62t167.5 -170v207zM600 139q172 0 290 117.5t118 290.5q0 172 -118 289.5t-290 117.5q-173 0 -291.5 -117.5t-118.5 -289.5q0 -173 118.5 -290.5t291.5 -117.5zM795 1444h92q-7 -97 -77.5 -168.5t-188.5 -71.5q-119 0 -189.5 71.5
t-77.5 168.5h90q3 -25 13 -48.5t29.5 -47t54 -38t80.5 -14.5q85 0 126.5 45.5t47.5 102.5z" />
    <glyph glyph-name="Gdotaccent" unicode="&#x120;" horiz-adv-x="1632" 
d="M866 774h623v-774h-72l-26 303q-77 -155 -221 -242.5t-343 -87.5q-201 0 -368 100t-262 270.5t-95 373.5q0 151 56 288t152 236.5t231 158t286 58.5q169 0 315.5 -71.5t246.5 -198.5l-93 -60q-85 104 -207 163t-262 59q-172 0 -314 -85.5t-222 -230.5t-80 -317
q0 -173 80.5 -318t222 -230t313.5 -85t298 78t189 208t66 296h-514v108zM819 1821q35 0 59.5 -25t24.5 -59q0 -35 -24.5 -59.5t-59.5 -24.5q-34 0 -59 24.5t-25 59.5q0 34 25 59t59 25z" />
    <glyph glyph-name="gdotaccent" unicode="&#x121;" horiz-adv-x="1271" 
d="M1008 1038h110v-929q0 -101 -34 -193.5t-97.5 -166.5t-166 -118.5t-228.5 -44.5q-137 0 -254.5 52.5t-192.5 148.5l93 61q124 -153 354 -153q105 0 187 35.5t130.5 95t73.5 132t25 151.5v151q-61 -107 -167.5 -169t-240.5 -62q-218 0 -368 150t-150 368q0 142 68.5 260.5
t187.5 187t262 68.5q134 0 240.5 -62t167.5 -170v207zM600 139q172 0 290 117.5t118 290.5q0 172 -118 289.5t-290 117.5q-173 0 -291.5 -117.5t-118.5 -289.5q0 -173 118.5 -290.5t291.5 -117.5zM621 1411q35 0 59.5 -25t24.5 -59q0 -35 -24.5 -59.5t-59.5 -24.5
q-34 0 -59 24.5t-25 59.5q0 34 25 59t59 25z" />
    <glyph glyph-name="Gcommaaccent" unicode="&#x122;" horiz-adv-x="1632" 
d="M866 774h623v-774h-72l-26 303q-77 -155 -221 -242.5t-343 -87.5q-201 0 -368 100t-262 270.5t-95 373.5q0 151 56 288t152 236.5t231 158t286 58.5q169 0 315.5 -71.5t246.5 -198.5l-93 -60q-85 104 -207 163t-262 59q-172 0 -314 -85.5t-222 -230.5t-80 -317
q0 -173 80.5 -318t222 -230t313.5 -85t298 78t189 208t66 296h-514v108zM748 -225h124l-155 -287h-76z" />
    <glyph glyph-name="gcommaaccent" unicode="&#x123;" horiz-adv-x="1271" 
d="M1008 1038h110v-929q0 -101 -34 -193.5t-97.5 -166.5t-166 -118.5t-228.5 -44.5q-137 0 -254.5 52.5t-192.5 148.5l93 61q124 -153 354 -153q105 0 187 35.5t130.5 95t73.5 132t25 151.5v151q-61 -107 -167.5 -169t-240.5 -62q-218 0 -368 150t-150 368q0 142 68.5 260.5
t187.5 187t262 68.5q134 0 240.5 -62t167.5 -170v207zM600 139q172 0 290 117.5t118 290.5q0 172 -118 289.5t-290 117.5q-173 0 -291.5 -117.5t-118.5 -289.5q0 -173 118.5 -290.5t291.5 -117.5zM684 1210h-125l156 287h76z" />
    <glyph glyph-name="Hcircumflex" unicode="&#x124;" horiz-adv-x="1382" 
d="M1108 1434h111v-1434h-111v668h-834v-668h-110v1434h110v-656h834v656zM948 1620h-94l-164 209l-162 -209h-94l211 268h92z" />
    <glyph glyph-name="hcircumflex" unicode="&#x125;" 
d="M606 1063q107 0 190.5 -41.5t131.5 -108.5t72 -144t24 -157v-612h-111v612q0 46 -8.5 90.5t-30.5 91t-55.5 81.5t-88.5 57t-124 22q-86 0 -154.5 -33t-108.5 -85t-60.5 -110t-20.5 -114v-612h-108v1434h108v-560q118 189 344 189zM713 1620h-95l-163 209l-162 -209h-94
l211 268h92z" />
    <glyph glyph-name="Hbar" unicode="&#x126;" horiz-adv-x="1480" 
d="M1460 1174v-91h-192v-1083h-111v668h-833v-668h-111v1083h-193v91h193v260h111v-260h833v260h111v-260h192zM1157 778v305h-833v-305h833z" />
    <glyph glyph-name="hbar" unicode="&#x127;" 
d="M608 1026q86 0 157.5 -27.5t118.5 -72.5t79.5 -104.5t46.5 -121.5t14 -125v-575h-109v575q0 46 -8.5 91t-30.5 91.5t-55.5 81.5t-88.5 57t-124 22q-86 0 -154.5 -33t-108.5 -85.5t-60.5 -110.5t-20.5 -114v-575h-108v1147h-144v92h144v195h108v-195h369v-92h-369v-309
q117 188 344 188z" />
    <glyph glyph-name="Itilde" unicode="&#x128;" horiz-adv-x="438" 
d="M164 1434h110v-1434h-110v1434zM412 1792l90 -12q-12 -78 -53 -121t-107 -43q-45 0 -127.5 41t-114.5 41q-59 0 -71 -90l-90 14q11 79 51.5 122.5t105.5 43.5q44 0 127.5 -40t114.5 -40q62 0 74 84z" />
    <glyph glyph-name="itilde" unicode="&#x129;" horiz-adv-x="417" 
d="M154 0v1038h110v-1038h-110zM401 1382l91 -12q-12 -78 -53 -121t-107 -43q-45 0 -127.5 41t-114.5 41q-60 0 -72 -90l-90 14q11 79 52 122.5t106 43.5q44 0 127.5 -40t114.5 -40q61 0 73 84z" />
    <glyph glyph-name="Imacron" unicode="&#x12a;" horiz-adv-x="438" 
d="M164 1434h110v-1434h-110v1434zM-25 1774h488v-93h-488v93z" />
    <glyph glyph-name="imacron" unicode="&#x12b;" horiz-adv-x="417" 
d="M154 0v1038h110v-1038h-110zM-35 1364h488v-92h-488v92z" />
    <glyph glyph-name="Ibreve" unicode="&#x12c;" horiz-adv-x="438" 
d="M164 1434h110v-1434h-110v1434zM393 1853h92q-6 -97 -77 -168t-189 -71q-119 0 -189 71t-77 168h90q3 -25 13 -48.5t29 -47t53.5 -37.5t80.5 -14q85 0 126.5 45.5t47.5 101.5z" />
    <glyph glyph-name="ibreve" unicode="&#x12d;" horiz-adv-x="417" 
d="M154 0v1038h110v-1038h-110zM383 1444h92q-7 -97 -77.5 -168.5t-188.5 -71.5q-119 0 -189 71.5t-77 168.5h90q3 -25 13 -48.5t29 -47t53.5 -38t80.5 -14.5q85 0 126.5 45.5t47.5 102.5z" />
    <glyph glyph-name="Iogonek" unicode="&#x12e;" horiz-adv-x="438" 
d="M274 0q-71 -44 -118 -114.5t-47 -133.5q0 -139 165 -114v-95q-29 -10 -79 -10q-77 0 -132 49t-55 131q0 89 58 165t131 122h-31v1434h108v-1434z" />
    <glyph glyph-name="iogonek" unicode="&#x12f;" horiz-adv-x="417" 
d="M154 0v1038h108v-1038q-71 -45 -118.5 -115t-47.5 -133q0 -66 40.5 -96.5t125.5 -17.5v-95q-29 -10 -80 -10q-77 0 -131.5 49t-54.5 131q0 89 58 165.5t130 121.5h-30zM207 1255q-29 0 -50.5 21.5t-21.5 52.5q0 29 21.5 50.5t50.5 21.5q31 0 52.5 -21.5t21.5 -50.5
q0 -31 -21.5 -52.5t-52.5 -21.5z" />
    <glyph glyph-name="Idotaccent" unicode="&#x130;" horiz-adv-x="438" 
d="M164 1434h110v-1434h-110v1434zM219 1821q35 0 59.5 -25t24.5 -59q0 -35 -24.5 -59.5t-59.5 -24.5q-34 0 -59 24.5t-25 59.5q0 34 25 59t59 25z" />
    <glyph glyph-name="dotlessi" unicode="&#x131;" horiz-adv-x="417" 
d="M154 0v1038h110v-1038h-110z" />
    <glyph glyph-name="IJ" unicode="&#x132;" horiz-adv-x="1521" 
d="M164 1434h110v-1434h-110v1434zM1247 1434h111v-971q0 -229 -122.5 -359.5t-322.5 -130.5q-180 0 -303.5 103.5t-150.5 288.5l106 20q21 -147 115 -224t233 -77q156 0 245 97t89 282v971z" />
    <glyph glyph-name="ij" unicode="&#x133;" horiz-adv-x="806" 
d="M154 0v1038h110v-1038h-110zM209 1255q-31 0 -51.5 21.5t-20.5 52.5q0 30 21 51t51 21t51 -21t21 -51q0 -31 -20.5 -52.5t-51.5 -21.5zM543 -18v1056h110v-1056q0 -187 -86.5 -274t-261.5 -87v111q62 0 106 13t69 34t39.5 55t19 67.5t4.5 80.5zM598 1255
q-31 0 -51.5 21.5t-20.5 52.5q0 30 21 51t51 21t51 -21t21 -51q0 -31 -20.5 -52.5t-51.5 -21.5z" />
    <glyph glyph-name="Jcircumflex" unicode="&#x134;" horiz-adv-x="1144" 
d="M870 1434h111v-971q0 -229 -122 -359.5t-322 -130.5q-180 0 -304 104t-151 288l106 20q21 -147 115 -224t234 -77q156 0 244.5 97t88.5 282v971zM1184 1620h-94l-164 209l-162 -209h-94l211 268h92z" />
    <glyph glyph-name="jcircumflex" unicode="&#x135;" horiz-adv-x="417" 
d="M154 -18v1056h110v-1056q0 -187 -86.5 -274t-261.5 -87v111q62 0 106 13t69 34t39.5 55t19 67.5t4.5 80.5zM467 1210h-94l-164 209l-162 -209h-94l211 269h92z" />
    <glyph glyph-name="Kcommaaccent" unicode="&#x136;" horiz-adv-x="1163" 
d="M1102 0h-154l-674 700v-700h-110v1434h110v-689l623 689h145l-639 -709zM541 -225h125l-156 -287h-76z" />
    <glyph glyph-name="kcommaaccent" unicode="&#x137;" horiz-adv-x="999" 
d="M938 0h-143l-533 526v-526h-108v1434h108v-891l469 495h143l-477 -503zM475 -225h125l-156 -287h-75z" />
    <glyph glyph-name="kgreenlandic" unicode="&#x138;" horiz-adv-x="999" 
d="M938 0h-143l-533 526v-526h-108v1038h108v-495l469 495h143l-477 -503z" />
    <glyph glyph-name="Lacute" unicode="&#x139;" horiz-adv-x="1042" 
d="M274 109h666v-109h-776v1434h110v-1325zM324 1888h129l-187 -268h-67z" />
    <glyph glyph-name="lacute" unicode="&#x13a;" horiz-adv-x="415" 
d="M154 1434h108v-1434h-108v1434zM309 1888h129l-186 -268h-68z" />
    <glyph glyph-name="Lcommaaccent" unicode="&#x13b;" horiz-adv-x="1042" 
d="M274 109h666v-109h-776v1434h110v-1325zM481 -225h125l-155 -287h-76z" />
    <glyph glyph-name="lcommaaccent" unicode="&#x13c;" horiz-adv-x="415" 
d="M154 1434h108v-1434h-108v1434zM137 -225h125l-156 -287h-75z" />
    <glyph glyph-name="Lcaron" unicode="&#x13d;" horiz-adv-x="1042" 
d="M553 1434h125l-158 -287h-74zM274 109h666v-109h-776v1434h110v-1325z" />
    <glyph glyph-name="lcaron" unicode="&#x13e;" horiz-adv-x="491" 
d="M541 1434h125l-158 -287h-74zM154 1434h108v-1434h-108v1434z" />
    <glyph glyph-name="Ldot" unicode="&#x13f;" horiz-adv-x="1042" 
d="M662 553q-37 0 -63 25.5t-26 62.5q0 35 26 60.5t63 25.5q35 0 60.5 -25.5t25.5 -60.5q0 -37 -25.5 -62.5t-60.5 -25.5zM274 109h666v-109h-776v1434h110v-1325z" />
    <glyph glyph-name="ldot" unicode="&#x140;" horiz-adv-x="714" 
d="M567 764q35 0 60.5 -25.5t25.5 -60.5q0 -37 -25.5 -62.5t-60.5 -25.5q-37 0 -62.5 25.5t-25.5 62.5q0 35 25.5 60.5t62.5 25.5zM154 1434h108v-1434h-108v1434z" />
    <glyph glyph-name="Lslash" unicode="&#x141;" horiz-adv-x="1124" 
d="M354 109h668v-109h-776v504l-160 -88l-45 80l205 114v824h108v-762l342 190l45 -80l-387 -215v-458z" />
    <glyph glyph-name="lslash" unicode="&#x142;" horiz-adv-x="559" 
d="M549 827l-215 -131v-696h-109v631l-168 -103l-47 78l215 131v697h109v-631l168 102z" />
    <glyph glyph-name="Nacute" unicode="&#x143;" horiz-adv-x="1417" 
d="M1145 1434h108v-1434h-108l-873 1247v-1247h-108v1434h108l873 -1248v1248zM809 1888h129l-186 -268h-68z" />
    <glyph glyph-name="nacute" unicode="&#x144;" horiz-adv-x="1175" 
d="M606 1063q86 0 157.5 -27.5t118.5 -72.5t79.5 -104.5t46.5 -121.5t14 -125v-612h-109v612q0 46 -8.5 90.5t-30.5 91t-55.5 81.5t-88.5 57t-124 22q-86 0 -154.5 -33t-108.5 -85t-60.5 -110t-20.5 -114v-612h-108v1038h108v-164q118 189 344 189zM647 1479h129l-186 -269
h-68z" />
    <glyph glyph-name="Ncommaaccent" unicode="&#x145;" horiz-adv-x="1417" 
d="M1145 1434h108v-1434h-108l-873 1247v-1247h-108v1434h108l873 -1248v1248zM657 -225h125l-155 -287h-76z" />
    <glyph glyph-name="ncommaaccent" unicode="&#x146;" horiz-adv-x="1175" 
d="M606 1063q86 0 157.5 -27.5t118.5 -72.5t79.5 -104.5t46.5 -121.5t14 -125v-612h-109v612q0 46 -8.5 90.5t-30.5 91t-55.5 81.5t-88.5 57t-124 22q-86 0 -154.5 -33t-108.5 -85t-60.5 -110t-20.5 -114v-612h-108v1038h108v-164q118 189 344 189zM557 -225h125l-156 -287
h-75z" />
    <glyph glyph-name="Ncaron" unicode="&#x147;" horiz-adv-x="1417" 
d="M1145 1434h108v-1434h-108l-873 1247v-1247h-108v1434h108l873 -1248v1248zM870 1888h95l-211 -268h-92l-211 268h94l164 -209z" />
    <glyph glyph-name="ncaron" unicode="&#x148;" horiz-adv-x="1175" 
d="M606 1063q86 0 157.5 -27.5t118.5 -72.5t79.5 -104.5t46.5 -121.5t14 -125v-612h-109v612q0 46 -8.5 90.5t-30.5 91t-55.5 81.5t-88.5 57t-124 22q-86 0 -154.5 -33t-108.5 -85t-60.5 -110t-20.5 -114v-612h-108v1038h108v-164q118 189 344 189zM752 1479h94l-211 -269
h-92l-211 269h94l164 -209z" />
    <glyph glyph-name="napostrophe" unicode="&#x149;" horiz-adv-x="1196" 
d="M627 1063q86 0 157.5 -27.5t118 -72.5t79 -104.5t46.5 -121.5t14 -125v-612h-108v612q0 46 -8.5 90.5t-30.5 91t-55.5 81.5t-88.5 57t-124 22q-86 0 -154.5 -33t-108.5 -85t-60.5 -110t-20.5 -114v-612h-109v1038h109v-164q118 189 344 189zM127 1434h125l-158 -287h-74z
" />
    <glyph glyph-name="Eng" unicode="&#x14a;" horiz-adv-x="1417" 
d="M1145 1434h108v-1434q0 -118 -28 -194t-88 -130q-84 -75 -226 -75q-19 0 -59 4v110q143 -18 213 43q80 71 80 242l-873 1247v-1247h-108v1434h108l873 -1248v1248z" />
    <glyph glyph-name="eng" unicode="&#x14b;" horiz-adv-x="1175" 
d="M606 1063q86 0 157.5 -27.5t118.5 -72.5t79.5 -104.5t46.5 -121.5t14 -125v-612q0 -187 -86.5 -273.5t-261.5 -86.5v110q62 0 106.5 13t70 33.5t39.5 55t18.5 68t4.5 80.5v612q0 46 -8.5 90.5t-30.5 91t-55.5 81.5t-88.5 57t-124 22q-86 0 -154.5 -33t-108.5 -85
t-60.5 -110t-20.5 -114v-612h-108v1038h108v-164q118 189 344 189z" />
    <glyph glyph-name="Omacron" unicode="&#x14c;" horiz-adv-x="1652" 
d="M825 1458q151 0 286 -58.5t231 -158t152 -236.5t56 -288q0 -203 -95 -373.5t-262 -270.5t-368 -100t-367.5 100t-261 270.5t-94.5 373.5q0 152 56 288.5t151.5 236t230 158t285.5 58.5zM825 84q172 0 314 85t222.5 230t80.5 318q0 172 -80.5 317t-222.5 230.5t-314 85.5
q-171 0 -312.5 -85.5t-221.5 -230.5t-80 -317q0 -173 80 -318t221.5 -230t312.5 -85zM582 1774h487v-93h-487v93z" />
    <glyph glyph-name="omacron" unicode="&#x14d;" horiz-adv-x="1241" 
d="M621 1063q148 0 272 -73t195 -198.5t71 -273.5q0 -147 -71 -272.5t-195 -199t-272 -73.5q-147 0 -271 73.5t-196 199t-72 272.5q0 148 72 273.5t196 198.5t271 73zM621 84q180 0 305 127t125 307q0 181 -125.5 308.5t-304.5 127.5q-180 0 -305.5 -128t-125.5 -308
t125.5 -307t305.5 -127zM377 1364h487v-92h-487v92z" />
    <glyph glyph-name="Obreve" unicode="&#x14e;" horiz-adv-x="1652" 
d="M825 1458q151 0 286 -58.5t231 -158t152 -236.5t56 -288q0 -203 -95 -373.5t-262 -270.5t-368 -100t-367.5 100t-261 270.5t-94.5 373.5q0 152 56 288.5t151.5 236t230 158t285.5 58.5zM825 84q172 0 314 85t222.5 230t80.5 318q0 172 -80.5 317t-222.5 230.5t-314 85.5
q-171 0 -312.5 -85.5t-221.5 -230.5t-80 -317q0 -173 80 -318t221.5 -230t312.5 -85zM999 1853h93q-6 -97 -77.5 -168t-189.5 -71q-119 0 -189 71t-77 168h90q3 -25 13 -48.5t29 -47t53.5 -37.5t80.5 -14q85 0 126.5 45.5t47.5 101.5z" />
    <glyph glyph-name="obreve" unicode="&#x14f;" horiz-adv-x="1241" 
d="M621 1063q148 0 272 -73t195 -198.5t71 -273.5q0 -147 -71 -272.5t-195 -199t-272 -73.5q-147 0 -271 73.5t-196 199t-72 272.5q0 148 72 273.5t196 198.5t271 73zM621 84q180 0 305 127t125 307q0 181 -125.5 308.5t-304.5 127.5q-180 0 -305.5 -128t-125.5 -308
t125.5 -307t305.5 -127zM795 1444h92q-7 -97 -77.5 -168.5t-188.5 -71.5q-119 0 -189.5 71.5t-77.5 168.5h90q3 -25 13 -48.5t29.5 -47t54 -38t80.5 -14.5q85 0 126.5 45.5t47.5 102.5z" />
    <glyph glyph-name="Ohungarumlaut" unicode="&#x150;" horiz-adv-x="1652" 
d="M825 1458q151 0 286 -58.5t231 -158t152 -236.5t56 -288q0 -203 -95 -373.5t-262 -270.5t-368 -100t-367.5 100t-261 270.5t-94.5 373.5q0 152 56 288.5t151.5 236t230 158t285.5 58.5zM825 84q172 0 314 85t222.5 230t80.5 318q0 172 -80.5 317t-222.5 230.5t-314 85.5
q-171 0 -312.5 -85.5t-221.5 -230.5t-80 -317q0 -173 80 -318t221.5 -230t312.5 -85zM647 1620l125 268h129l-186 -268h-68zM1081 1888h129l-186 -268h-68z" />
    <glyph glyph-name="ohungarumlaut" unicode="&#x151;" horiz-adv-x="1241" 
d="M621 1063q148 0 272 -73t195 -198.5t71 -273.5q0 -147 -71 -272.5t-195 -199t-272 -73.5q-147 0 -271 73.5t-196 199t-72 272.5q0 148 72 273.5t196 198.5t271 73zM621 84q180 0 305 127t125 307q0 181 -125.5 308.5t-304.5 127.5q-180 0 -305.5 -128t-125.5 -308
t125.5 -307t305.5 -127zM420 1210l125 269h129l-187 -269h-67zM854 1479h129l-186 -269h-68z" />
    <glyph glyph-name="OE" unicode="&#x152;" horiz-adv-x="1912" 
d="M1128 109h682v-109h-1001q-121 0 -230.5 35t-195.5 99.5t-149.5 152.5t-97.5 198.5t-34 231.5t34 231.5t97.5 198.5t149.5 152.5t195.5 99.5t230.5 35h983v-111h-664v-526h617v-109h-617v-579zM809 109h209v1214h-209q-261 0 -429.5 -172t-168.5 -434q0 -264 168.5 -436
t429.5 -172z" />
    <glyph glyph-name="oe" unicode="&#x153;" horiz-adv-x="2091" 
d="M1526 1063q221 0 357.5 -166.5t123.5 -433.5h-868q19 -163 132.5 -271t276.5 -108q100 0 175.5 36.5t140.5 112.5l92 -59q-162 -201 -408 -201q-156 0 -280 82t-187 217q-66 -135 -191 -217t-280 -82q-147 0 -269 73.5t-190.5 198.5t-68.5 273q0 149 68.5 274t190 198
t269.5 73q153 0 278 -80.5t191 -214.5q60 134 178 214.5t269 80.5zM610 84q178 0 297 126t119 308t-119 309t-297 127t-297.5 -127t-119.5 -309t119.5 -308t297.5 -126zM1139 573h757q-19 171 -119.5 276t-250.5 105q-157 0 -263 -109t-124 -272z" />
    <glyph glyph-name="Racute" unicode="&#x154;" horiz-adv-x="1210" 
d="M1149 0h-127l-375 604q-54 -4 -84 -4h-291v-600h-108v1434h399q235 0 368.5 -110.5t133.5 -307.5q0 -150 -78.5 -250.5t-224.5 -140.5zM272 709h291q190 0 291.5 78t101.5 229q0 152 -101 229.5t-292 77.5h-291v-614zM653 1888h129l-186 -268h-68z" />
    <glyph glyph-name="racute" unicode="&#x155;" horiz-adv-x="694" 
d="M264 815q58 111 153 179.5t216 68.5v-127q-173 0 -271 -106.5t-98 -301.5v-528h-110v1038h110v-223zM453 1479h129l-187 -269h-67z" />
    <glyph glyph-name="Rcommaaccent" unicode="&#x156;" horiz-adv-x="1210" 
d="M1149 0h-127l-375 604q-54 -4 -84 -4h-291v-600h-108v1434h399q235 0 368.5 -110.5t133.5 -307.5q0 -150 -78.5 -250.5t-224.5 -140.5zM272 709h291q190 0 291.5 78t101.5 229q0 152 -101 229.5t-292 77.5h-291v-614zM606 -225h125l-156 -287h-75z" />
    <glyph glyph-name="rcommaaccent" unicode="&#x157;" horiz-adv-x="694" 
d="M264 815q58 111 153 179.5t216 68.5v-127q-173 0 -271 -106.5t-98 -301.5v-528h-110v1038h110v-223zM137 -225h125l-156 -287h-75z" />
    <glyph glyph-name="Rcaron" unicode="&#x158;" horiz-adv-x="1210" 
d="M1149 0h-127l-375 604q-54 -4 -84 -4h-291v-600h-108v1434h399q235 0 368.5 -110.5t133.5 -307.5q0 -150 -78.5 -250.5t-224.5 -140.5zM272 709h291q190 0 291.5 78t101.5 229q0 152 -101 229.5t-292 77.5h-291v-614zM737 1888h94l-210 -268h-93l-211 268h95l163 -209z
" />
    <glyph glyph-name="rcaron" unicode="&#x159;" horiz-adv-x="694" 
d="M264 815q58 111 153 179.5t216 68.5v-127q-173 0 -271 -106.5t-98 -301.5v-528h-110v1038h110v-223zM510 1479h94l-211 -269h-92l-211 269h94l164 -209z" />
    <glyph glyph-name="Sacute" unicode="&#x15a;" horiz-adv-x="1110" 
d="M604 770q53 -14 86 -24t82.5 -29t81 -37.5t68 -48.5t57.5 -63.5t35 -80.5t14 -102q0 -59 -16.5 -116t-53 -111t-89.5 -95t-132.5 -65.5t-175.5 -24.5q-183 0 -312 97.5t-167 230.5l104 33q28 -99 127 -174.5t248 -75.5q162 0 259.5 81.5t97.5 219.5q0 50 -17 90
t-43.5 66.5t-73.5 50t-92.5 38.5t-116.5 34q-52 14 -85 24t-83.5 29t-83.5 38.5t-71.5 50t-60.5 65.5t-37 83t-15 105q0 114 57 206t151 142.5t204 50.5q152 0 260.5 -77.5t153.5 -221.5l-107 -26q-70 217 -307 217q-125 0 -213 -81.5t-88 -209.5q0 -51 17 -91.5t44.5 -69
t75 -52.5t96.5 -40.5t121 -35.5zM637 1888h129l-186 -268h-68z" />
    <glyph glyph-name="sacute" unicode="&#x15b;" horiz-adv-x="886" 
d="M475 571q40 -8 65.5 -14.5t63.5 -19t63 -26t53.5 -35.5t45.5 -47.5t28 -62.5t11 -81q0 -60 -22 -114.5t-64.5 -99.5t-114 -71.5t-162.5 -26.5q-141 0 -240 69t-130 169l102 35q22 -67 94 -114.5t174 -47.5q117 0 185.5 54.5t68.5 146.5q0 80 -55.5 117t-191.5 65
q-55 11 -96 22.5t-90.5 35t-81 53t-53.5 77t-22 107.5q0 127 93 214t233 87q118 0 205 -62.5t119 -169.5l-107 -28q-22 72 -78.5 111.5t-138.5 39.5q-94 0 -154.5 -54.5t-60.5 -137.5q0 -82 62 -122t196 -69zM518 1479h129l-186 -269h-68z" />
    <glyph glyph-name="Scircumflex" unicode="&#x15c;" horiz-adv-x="1110" 
d="M604 770q53 -14 86 -24t82.5 -29t81 -37.5t68 -48.5t57.5 -63.5t35 -80.5t14 -102q0 -59 -16.5 -116t-53 -111t-89.5 -95t-132.5 -65.5t-175.5 -24.5q-183 0 -312 97.5t-167 230.5l104 33q28 -99 127 -174.5t248 -75.5q162 0 259.5 81.5t97.5 219.5q0 50 -17 90
t-43.5 66.5t-73.5 50t-92.5 38.5t-116.5 34q-52 14 -85 24t-83.5 29t-83.5 38.5t-71.5 50t-60.5 65.5t-37 83t-15 105q0 114 57 206t151 142.5t204 50.5q152 0 260.5 -77.5t153.5 -221.5l-107 -26q-70 217 -307 217q-125 0 -213 -81.5t-88 -209.5q0 -51 17 -91.5t44.5 -69
t75 -52.5t96.5 -40.5t121 -35.5zM815 1620h-94l-164 209l-162 -209h-94l211 268h92z" />
    <glyph glyph-name="scircumflex" unicode="&#x15d;" horiz-adv-x="886" 
d="M475 571q40 -8 65.5 -14.5t63.5 -19t63 -26t53.5 -35.5t45.5 -47.5t28 -62.5t11 -81q0 -60 -22 -114.5t-64.5 -99.5t-114 -71.5t-162.5 -26.5q-141 0 -240 69t-130 169l102 35q22 -67 94 -114.5t174 -47.5q117 0 185.5 54.5t68.5 146.5q0 80 -55.5 117t-191.5 65
q-55 11 -96 22.5t-90.5 35t-81 53t-53.5 77t-22 107.5q0 127 93 214t233 87q118 0 205 -62.5t119 -169.5l-107 -28q-22 72 -78.5 111.5t-138.5 39.5q-94 0 -154.5 -54.5t-60.5 -137.5q0 -82 62 -122t196 -69zM696 1210h-94l-164 209l-162 -209h-94l211 269h92z" />
    <glyph glyph-name="Scedilla" unicode="&#x15e;" horiz-adv-x="1110" 
d="M1026 385q0 -59 -16 -116t-52.5 -110.5t-89 -94.5t-131 -65.5t-174.5 -25.5l-47 -98q93 26 170.5 -20.5t77.5 -147.5q0 -68 -37 -117t-94 -69.5t-128 -15.5t-136 38l47 86q56 -27 111 -28t92.5 27.5t37.5 82.5q0 67 -54 90.5t-132 -12.5l-45 59l61 132
q-156 19 -264 110.5t-141 210.5l104 33q26 -99 125.5 -174.5t247.5 -75.5q163 0 261 81.5t98 219.5q0 50 -17 90t-43.5 66.5t-73.5 50t-92.5 38.5t-116.5 34q-52 14 -86 24t-84 29t-83.5 38.5t-71 50t-59.5 65.5t-37 83t-15 105q0 114 57 206t151 142.5t204 50.5
q152 0 260.5 -77.5t153.5 -221.5l-107 -26q-35 108 -113.5 162.5t-193.5 54.5q-125 0 -214 -82t-89 -209q0 -63 23.5 -109.5t75 -79.5t109 -54.5t148.5 -45.5q53 -14 86 -24t82 -29t80.5 -37.5t68 -48.5t57 -63.5t34.5 -80.5t14 -102z" />
    <glyph glyph-name="scedilla" unicode="&#x15f;" horiz-adv-x="886" 
d="M475 571q40 -8 65.5 -14.5t63.5 -19t63 -26t53.5 -35.5t45.5 -47.5t28 -62.5t11 -81q0 -60 -21.5 -113.5t-63 -98t-111 -72t-158.5 -28.5l-45 -98q93 26 170 -20.5t77 -147.5q0 -68 -37 -117t-94 -69.5t-128 -15.5t-136 38l47 86q56 -27 111.5 -28t93 27.5t37.5 82.5
q0 67 -54.5 90.5t-132.5 -12.5l-45 59l62 129q-117 17 -197 82t-108 152l102 35q22 -67 94 -114.5t174 -47.5q117 0 185.5 54.5t68.5 146.5q0 80 -55.5 117t-191.5 65q-55 11 -96 22.5t-90.5 35t-81 53t-53.5 77t-22 107.5q0 127 93 214t233 87q118 0 205 -62.5t119 -169.5
l-107 -28q-22 72 -78.5 111.5t-138.5 39.5q-94 0 -154.5 -54.5t-60.5 -137.5q0 -82 62 -122t196 -69z" />
    <glyph glyph-name="Scaron" unicode="&#x160;" horiz-adv-x="1110" 
d="M604 770q53 -14 86 -24t82.5 -29t81 -37.5t68 -48.5t57.5 -63.5t35 -80.5t14 -102q0 -59 -16.5 -116t-53 -111t-89.5 -95t-132.5 -65.5t-175.5 -24.5q-183 0 -312 97.5t-167 230.5l104 33q28 -99 127 -174.5t248 -75.5q162 0 259.5 81.5t97.5 219.5q0 50 -17 90
t-43.5 66.5t-73.5 50t-92.5 38.5t-116.5 34q-52 14 -85 24t-83.5 29t-83.5 38.5t-71.5 50t-60.5 65.5t-37 83t-15 105q0 114 57 206t151 142.5t204 50.5q152 0 260.5 -77.5t153.5 -221.5l-107 -26q-70 217 -307 217q-125 0 -213 -81.5t-88 -209.5q0 -51 17 -91.5t44.5 -69
t75 -52.5t96.5 -40.5t121 -35.5zM721 1888h94l-211 -268h-92l-211 268h94l164 -209z" />
    <glyph glyph-name="scaron" unicode="&#x161;" horiz-adv-x="886" 
d="M475 571q40 -8 65.5 -14.5t63.5 -19t63 -26t53.5 -35.5t45.5 -47.5t28 -62.5t11 -81q0 -60 -22 -114.5t-64.5 -99.5t-114 -71.5t-162.5 -26.5q-141 0 -240 69t-130 169l102 35q22 -67 94 -114.5t174 -47.5q117 0 185.5 54.5t68.5 146.5q0 80 -55.5 117t-191.5 65
q-55 11 -96 22.5t-90.5 35t-81 53t-53.5 77t-22 107.5q0 127 93 214t233 87q118 0 205 -62.5t119 -169.5l-107 -28q-22 72 -78.5 111.5t-138.5 39.5q-94 0 -154.5 -54.5t-60.5 -137.5q0 -82 62 -122t196 -69zM602 1479h94l-211 -269h-92l-211 269h94l164 -209z" />
    <glyph glyph-name="Tcommaaccent" unicode="&#x162;" horiz-adv-x="1097" 
d="M995 1434v-111h-393v-1323h-108v1323h-392v111h893zM473 -225h125l-156 -287h-75z" />
    <glyph glyph-name="tcommaaccent" unicode="&#x163;" horiz-adv-x="710" 
d="M352 309q0 -123 51 -171.5t195 -35.5v-108q-42 -6 -84.5 -3.5t-82 8.5t-73.5 29t-59.5 57t-40 91t-14.5 133v619h-183v110h183v217h108v-217h244v-110h-244v-619zM319 -225h125l-155 -287h-76z" />
    <glyph glyph-name="Tcaron" unicode="&#x164;" horiz-adv-x="1097" 
d="M995 1434v-111h-393v-1323h-108v1323h-392v111h893zM713 1888h94l-211 -268h-92l-211 268h94l164 -209z" />
    <glyph glyph-name="tcaron" unicode="&#x165;" horiz-adv-x="710" 
d="M737 1458h125l-157 -287h-74zM352 309q0 -123 51 -171.5t195 -35.5v-108q-42 -6 -84.5 -3.5t-82 8.5t-73.5 29t-59.5 57t-40 91t-14.5 133v619h-183v110h183v217h108v-217h244v-110h-244v-619z" />
    <glyph glyph-name="Tbar" unicode="&#x166;" horiz-adv-x="1099" 
d="M997 1323h-393v-453h275v-90h-275v-780h-108v780h-277v90h277v453h-394v111h895v-111z" />
    <glyph glyph-name="tbar" unicode="&#x167;" horiz-adv-x="710" 
d="M352 309q0 -61 10 -100.5t36.5 -67t75.5 -37t124 -2.5v-108q-43 -6 -85.5 -3.5t-82 8.5t-74 29t-60 57t-40 91t-14.5 133v299h-181v92h181v228h-181v110h181v217h110v-217h242v-110h-242v-228h242v-92h-242v-299z" />
    <glyph glyph-name="Utilde" unicode="&#x168;" horiz-adv-x="1343" 
d="M1069 1434h111v-899q0 -255 -138 -408.5t-370 -153.5q-233 0 -370.5 153.5t-137.5 408.5v899h108v-899q0 -208 106 -329.5t294 -121.5q187 0 292 121t105 330v899zM864 1792l90 -12q-12 -78 -52.5 -121t-106.5 -43q-45 0 -127.5 41t-114.5 41q-60 0 -72 -90l-90 14
q11 79 52 122.5t106 43.5q44 0 127.5 -40t114.5 -40q61 0 73 84z" />
    <glyph glyph-name="utilde" unicode="&#x169;" 
d="M913 1038h111v-1038h-111v162q-53 -86 -139.5 -137.5t-202.5 -51.5q-87 0 -158.5 27.5t-118.5 72.5t-79.5 104.5t-46.5 121.5t-14 125v614h110v-614q0 -45 8.5 -89.5t30.5 -91t55.5 -81t88.5 -56.5t124 -22q86 0 154 33t107.5 85t60 109t20.5 113v614zM780 1382l90 -12
q-12 -78 -52.5 -121t-106.5 -43q-45 0 -127.5 41t-114.5 41q-60 0 -72 -90l-90 14q11 79 52 122.5t106 43.5q44 0 127.5 -40t114.5 -40q61 0 73 84z" />
    <glyph glyph-name="Umacron" unicode="&#x16a;" horiz-adv-x="1343" 
d="M1069 1434h111v-899q0 -255 -138 -408.5t-370 -153.5q-233 0 -370.5 153.5t-137.5 408.5v899h108v-899q0 -208 106 -329.5t294 -121.5q187 0 292 121t105 330v899zM428 1774h487v-93h-487v93z" />
    <glyph glyph-name="umacron" unicode="&#x16b;" 
d="M913 1038h111v-1038h-111v162q-53 -86 -139.5 -137.5t-202.5 -51.5q-87 0 -158.5 27.5t-118.5 72.5t-79.5 104.5t-46.5 121.5t-14 125v614h110v-614q0 -45 8.5 -89.5t30.5 -91t55.5 -81t88.5 -56.5t124 -22q86 0 154 33t107.5 85t60 109t20.5 113v614zM344 1364h487v-92
h-487v92z" />
    <glyph glyph-name="Ubreve" unicode="&#x16c;" horiz-adv-x="1343" 
d="M1069 1434h111v-899q0 -255 -138 -408.5t-370 -153.5q-233 0 -370.5 153.5t-137.5 408.5v899h108v-899q0 -208 106 -329.5t294 -121.5q187 0 292 121t105 330v899zM846 1853h92q-6 -97 -77 -168t-189 -71q-119 0 -189 71t-77 168h90q3 -25 13 -48.5t29 -47t53.5 -37.5
t80.5 -14q85 0 126.5 45.5t47.5 101.5z" />
    <glyph glyph-name="ubreve" unicode="&#x16d;" 
d="M913 1038h111v-1038h-111v162q-53 -86 -139.5 -137.5t-202.5 -51.5q-87 0 -158.5 27.5t-118.5 72.5t-79.5 104.5t-46.5 121.5t-14 125v614h110v-614q0 -45 8.5 -89.5t30.5 -91t55.5 -81t88.5 -56.5t124 -22q86 0 154 33t107.5 85t60 109t20.5 113v614zM762 1444h92
q-7 -97 -77.5 -168.5t-188.5 -71.5q-119 0 -189 71.5t-77 168.5h90q3 -25 13 -48.5t29 -47t53.5 -38t80.5 -14.5q85 0 126.5 45.5t47.5 102.5z" />
    <glyph glyph-name="Uring" unicode="&#x16e;" horiz-adv-x="1343" 
d="M1069 1434h111v-899q0 -255 -138 -408.5t-370 -153.5q-233 0 -370.5 153.5t-137.5 408.5v899h108v-899q0 -208 106 -329.5t294 -121.5q187 0 292 121t105 330v899zM672 1972q90 0 153.5 -63.5t63.5 -153.5q0 -91 -63 -154t-154 -63q-90 0 -153.5 63.5t-63.5 153.5
q0 89 64 153t153 64zM672 1628q52 0 89.5 37t37.5 90q0 52 -37 88.5t-90 36.5q-52 0 -88.5 -36t-36.5 -89t36.5 -90t88.5 -37z" />
    <glyph glyph-name="uring" unicode="&#x16f;" 
d="M913 1038h111v-1038h-111v162q-53 -86 -139.5 -137.5t-202.5 -51.5q-87 0 -158.5 27.5t-118.5 72.5t-79.5 104.5t-46.5 121.5t-14 125v614h110v-614q0 -45 8.5 -89.5t30.5 -91t55.5 -81t88.5 -56.5t124 -22q86 0 154 33t107.5 85t60 109t20.5 113v614zM588 1583
q90 0 153.5 -63.5t63.5 -153.5q0 -91 -63 -154t-154 -63q-90 0 -153.5 63.5t-63.5 153.5q0 89 64 153t153 64zM588 1239q52 0 89.5 37.5t37.5 89.5t-37 88.5t-90 36.5q-52 0 -88.5 -36.5t-36.5 -88.5q0 -53 36.5 -90t88.5 -37z" />
    <glyph glyph-name="Uhungarumlaut" unicode="&#x170;" horiz-adv-x="1343" 
d="M1069 1434h111v-899q0 -255 -138 -408.5t-370 -153.5q-233 0 -370.5 153.5t-137.5 408.5v899h108v-899q0 -208 106 -329.5t294 -121.5q187 0 292 121t105 330v899zM471 1620l125 268h129l-186 -268h-68zM905 1888h129l-186 -268h-68z" />
    <glyph glyph-name="uhungarumlaut" unicode="&#x171;" 
d="M913 1038h111v-1038h-111v162q-53 -86 -139.5 -137.5t-202.5 -51.5q-87 0 -158.5 27.5t-118.5 72.5t-79.5 104.5t-46.5 121.5t-14 125v614h110v-614q0 -45 8.5 -89.5t30.5 -91t55.5 -81t88.5 -56.5t124 -22q86 0 154 33t107.5 85t60 109t20.5 113v614zM389 1210l125 269
h129l-186 -269h-68zM823 1479h129l-186 -269h-68z" />
    <glyph glyph-name="Uogonek" unicode="&#x172;" horiz-adv-x="1343" 
d="M1071 1434h109v-881q0 -200 -76.5 -339t-216.5 -200q-71 -44 -119.5 -121t-48.5 -141q0 -66 41.5 -96.5t126.5 -17.5v-95q-29 -10 -80 -10q-78 0 -132 49t-54 131q0 81 48.5 152.5t116.5 120.5q-60 -13 -114 -13q-234 0 -371 155t-137 425v881h110v-881q0 -225 104 -347
t294 -122t294.5 122t104.5 347v881z" />
    <glyph glyph-name="uogonek" unicode="&#x173;" 
d="M1024 0q-72 -44 -120 -114.5t-48 -133.5q0 -66 41.5 -96.5t126.5 -17.5v-95q-29 -10 -80 -10q-78 0 -132 49t-54 131q0 89 58 165.5t130 121.5h-31v162q-55 -86 -141.5 -137.5t-202.5 -51.5q-107 0 -190.5 41.5t-131 109t-71.5 144t-24 156.5v614h110v-614
q0 -45 8.5 -89.5t30.5 -91t55.5 -81t88.5 -56.5t124 -22q86 0 154.5 33t108.5 84.5t60.5 109t20.5 113.5v614h109v-1038z" />
    <glyph glyph-name="Wcircumflex" unicode="&#x174;" horiz-adv-x="2025" 
d="M1849 1434h115l-477 -1434h-117l-356 1235l-359 -1235h-114l-480 1434h117l416 -1250l360 1250h117l361 -1250zM1270 1620h-94l-164 209l-162 -209h-94l211 268h92z" />
    <glyph glyph-name="wcircumflex" unicode="&#x175;" horiz-adv-x="1548" 
d="M1391 1038h116l-366 -1038h-117l-250 842l-250 -842h-116l-367 1038h115l307 -870l260 870h102l258 -870zM1032 1210h-94l-164 209l-162 -209h-94l211 269h92z" />
    <glyph glyph-name="Ycircumflex" unicode="&#x176;" horiz-adv-x="1361" 
d="M1300 1434l-565 -918v-516h-108v516l-566 918h129l492 -816l492 816h126zM938 1620h-94l-164 209l-162 -209h-94l211 268h92z" />
    <glyph glyph-name="ycircumflex" unicode="&#x177;" horiz-adv-x="1028" 
d="M870 1038h117l-584 -1433h-116l186 456l-432 977h117l370 -837zM772 1210h-94l-164 209l-162 -209h-94l211 269h92z" />
    <glyph glyph-name="Ydieresis" unicode="&#x178;" horiz-adv-x="1361" 
d="M1300 1434l-565 -918v-516h-108v516l-566 918h129l492 -816l492 816h126zM496 1821q35 0 59.5 -25t24.5 -59q0 -35 -24.5 -59.5t-59.5 -24.5t-59.5 24.5t-24.5 59.5q0 34 24.5 59t59.5 25zM866 1821q34 0 58 -25t24 -59q0 -35 -24 -59.5t-58 -24.5q-35 0 -59.5 24.5
t-24.5 59.5q0 34 24.5 59t59.5 25z" />
    <glyph glyph-name="Zacute" unicode="&#x179;" horiz-adv-x="1179" 
d="M233 109h844v-109h-975v109l824 1214h-789v111h922v-111zM670 1888h129l-187 -268h-67z" />
    <glyph glyph-name="zacute" unicode="&#x17a;" horiz-adv-x="935" 
d="M221 109h613v-109h-752v109l594 819h-576v110h715v-110zM516 1479h129l-186 -269h-68z" />
    <glyph glyph-name="Zdotaccent" unicode="&#x17b;" horiz-adv-x="1179" 
d="M233 109h844v-109h-975v109l824 1214h-789v111h922v-111zM590 1821q35 0 59.5 -25t24.5 -59q0 -35 -24.5 -59.5t-59.5 -24.5q-34 0 -59 24.5t-25 59.5q0 34 25 59t59 25z" />
    <glyph glyph-name="zdotaccent" unicode="&#x17c;" horiz-adv-x="935" 
d="M221 109h613v-109h-752v109l594 819h-576v110h715v-110zM457 1411q35 0 59.5 -25t24.5 -59q0 -35 -24.5 -59.5t-59.5 -24.5q-34 0 -59 24.5t-25 59.5q0 34 25 59t59 25z" />
    <glyph glyph-name="Zcaron" unicode="&#x17d;" horiz-adv-x="1179" 
d="M233 109h844v-109h-975v109l824 1214h-789v111h922v-111zM754 1888h94l-211 -268h-92l-211 268h94l164 -209z" />
    <glyph glyph-name="zcaron" unicode="&#x17e;" horiz-adv-x="935" 
d="M221 109h613v-109h-752v109l594 819h-576v110h715v-110zM621 1479h94l-211 -269h-92l-211 269h94l164 -209z" />
    <glyph glyph-name="longs" unicode="&#x17f;" horiz-adv-x="688" 
d="M627 1346q-136 0 -198 -67t-62 -224v-1055h-109v928h-186v110h186v17q0 399 369 399v-108z" />
    <glyph glyph-name="AEacute" unicode="&#x1fc;" horiz-adv-x="1916" 
d="M1133 109h682v-109h-793v401h-643l-201 -401h-117l715 1434h1020v-111h-663v-526h616v-109h-616v-579zM432 512h590v811h-182zM1202 1888h129l-186 -268h-68z" />
    <glyph glyph-name="aeacute" unicode="&#x1fd;" horiz-adv-x="1869" 
d="M1305 1063q221 0 357.5 -166.5t123.5 -433.5h-868q19 -163 132 -271t275 -108q100 0 175 36.5t142 112.5l93 -59q-162 -201 -410 -201q-143 0 -260 70t-186 190q-23 -47 -58 -89t-87.5 -82.5t-128 -64.5t-163.5 -24q-158 0 -259 79t-101 212q0 65 23 115t53 82.5t90 55
t103.5 33.5t126 16.5t124 6t128.5 0.5h42h33v99q0 118 -72.5 200t-216.5 82q-93 0 -160 -30t-133 -82l-90 67q80 68 170 111t213 43q134 0 233 -63t140 -175q66 110 174.5 174t241.5 64zM1305 954q-158 0 -263.5 -109t-123.5 -272h755q-17 171 -118 276t-250 105zM442 84
q71 0 131 18.5t99 45.5t68.5 61.5t44 63.5t20.5 55v137h-35q-25 0 -73.5 0.5t-79 1t-77 -1t-77 -4.5t-70.5 -9.5t-65.5 -16t-53 -25t-43.5 -36t-26 -48.5t-10 -62q0 -93 71.5 -136.5t175.5 -43.5zM1014 1479h129l-187 -269h-67z" />
    <glyph glyph-name="Oslashacute" unicode="&#x1fe;" horiz-adv-x="1652" 
d="M1399 1176q153 -202 153 -459q0 -203 -95 -373.5t-262 -270.5t-368 -100q-149 0 -281 56.5t-231 158.5l-129 -118l-61 67l131 119q-154 204 -154 461q0 151 56 288t152 236.5t231 158t286 58.5q149 0 281 -56t231 -157l129 119l62 -68zM213 717q0 -219 125 -385l919 839
q-83 85 -194 132t-236 47q-171 0 -312.5 -85.5t-221.5 -230.5t-80 -317zM827 84q171 0 312.5 85t222 230t80.5 318q0 219 -125 385l-920 -840q83 -85 193.5 -131.5t236.5 -46.5zM905 1888h129l-186 -268h-68z" />
    <glyph glyph-name="oslashacute" unicode="&#x1ff;" horiz-adv-x="1241" 
d="M1051 848q110 -145 110 -330q0 -147 -71.5 -272.5t-196 -199t-272.5 -73.5q-211 0 -369 148l-105 -96l-61 67l107 96q-111 146 -111 330q0 148 72 273.5t196 198.5t271 73q214 0 368 -148l107 99l61 -68zM190 518q0 -140 82 -256l637 580q-122 112 -288 112
q-180 0 -305.5 -128t-125.5 -308zM621 84q180 0 305 127t125 307q0 140 -82 256l-635 -579q121 -111 287 -111zM700 1479h129l-186 -269h-68z" />
    <glyph glyph-name="Scommaaccent" unicode="&#x218;" horiz-adv-x="1110" 
d="M604 770q53 -14 86 -24t82.5 -29t81 -37.5t68 -48.5t57.5 -63.5t35 -80.5t14 -102q0 -59 -16.5 -116t-53 -111t-89.5 -95t-132.5 -65.5t-175.5 -24.5q-183 0 -312 97.5t-167 230.5l104 33q28 -99 127 -174.5t248 -75.5q162 0 259.5 81.5t97.5 219.5q0 50 -17 90
t-43.5 66.5t-73.5 50t-92.5 38.5t-116.5 34q-52 14 -85 24t-83.5 29t-83.5 38.5t-71.5 50t-60.5 65.5t-37 83t-15 105q0 114 57 206t151 142.5t204 50.5q152 0 260.5 -77.5t153.5 -221.5l-107 -26q-70 217 -307 217q-125 0 -213 -81.5t-88 -209.5q0 -51 17 -91.5t44.5 -69
t75 -52.5t96.5 -40.5t121 -35.5zM481 -225h125l-155 -287h-76z" />
    <glyph glyph-name="scommaaccent" unicode="&#x219;" horiz-adv-x="886" 
d="M475 571q40 -8 65.5 -14.5t63.5 -19t63 -26t53.5 -35.5t45.5 -47.5t28 -62.5t11 -81q0 -60 -22 -114.5t-64.5 -99.5t-114 -71.5t-162.5 -26.5q-141 0 -240 69t-130 169l102 35q22 -67 94 -114.5t174 -47.5q117 0 185.5 54.5t68.5 146.5q0 80 -55.5 117t-191.5 65
q-55 11 -96 22.5t-90.5 35t-81 53t-53.5 77t-22 107.5q0 127 93 214t233 87q118 0 205 -62.5t119 -169.5l-107 -28q-22 72 -78.5 111.5t-138.5 39.5q-94 0 -154.5 -54.5t-60.5 -137.5q0 -82 62 -122t196 -69zM367 -225h125l-156 -287h-76z" />
    <glyph glyph-name="circumflex" unicode="&#x2c6;" horiz-adv-x="841" 
d="M678 1210h-94l-164 209l-162 -209h-94l211 269h92z" />
    <glyph glyph-name="caron" unicode="&#x2c7;" horiz-adv-x="841" 
d="M584 1479h94l-211 -269h-92l-211 269h94l164 -209z" />
    <glyph glyph-name="breve" unicode="&#x2d8;" horiz-adv-x="860" 
d="M604 1444h92q-7 -97 -77.5 -168.5t-188.5 -71.5q-119 0 -189 71.5t-77 168.5h90q3 -25 13 -48.5t29 -47t53.5 -38t80.5 -14.5q85 0 126.5 45.5t47.5 102.5z" />
    <glyph glyph-name="dotaccent" unicode="&#x2d9;" horiz-adv-x="495" 
d="M248 1411q35 0 59.5 -25t24.5 -59q0 -35 -24.5 -59.5t-59.5 -24.5q-34 0 -59 24.5t-25 59.5q0 34 25 59t59 25z" />
    <glyph glyph-name="ring" unicode="&#x2da;" horiz-adv-x="761" 
d="M381 1563q90 0 153.5 -63.5t63.5 -153.5q0 -91 -63 -154.5t-154 -63.5q-89 0 -153 64t-64 154q0 89 64 153t153 64zM381 1219q53 0 90 37.5t37 89.5t-37 88t-90 36t-89 -36t-36 -88q0 -53 36.5 -90t88.5 -37z" />
    <glyph glyph-name="ogonek" unicode="&#x2db;" horiz-adv-x="593" 
d="M264 -248q0 -66 40.5 -96.5t125.5 -17.5v-95q-29 -10 -80 -10q-77 0 -131.5 49t-54.5 131q0 89 58 165.5t130 121.5h78q-71 -45 -118.5 -115t-47.5 -133z" />
    <glyph glyph-name="tilde" unicode="&#x2dc;" horiz-adv-x="890" 
d="M637 1382l90 -12q-12 -78 -53 -121t-107 -43q-45 0 -127 41t-114 41q-60 0 -72 -90l-90 14q11 79 52 122.5t106 43.5q44 0 127 -40t114 -40q62 0 74 84z" />
    <glyph glyph-name="hungarumlaut" unicode="&#x2dd;" horiz-adv-x="890" 
d="M164 1210l125 269h129l-187 -269h-67zM598 1479h129l-186 -269h-68z" />
    <glyph glyph-name="Wgrave" unicode="&#x1e80;" horiz-adv-x="2025" 
d="M1849 1434h115l-477 -1434h-117l-356 1235l-359 -1235h-114l-480 1434h117l416 -1250l360 1250h117l361 -1250zM911 1888l127 -268h-69l-187 268h129z" />
    <glyph glyph-name="wgrave" unicode="&#x1e81;" horiz-adv-x="1548" 
d="M1391 1038h116l-366 -1038h-117l-250 842l-250 -842h-116l-367 1038h115l307 -870l260 870h102l258 -870zM672 1479l127 -269h-70l-186 269h129z" />
    <glyph glyph-name="Wacute" unicode="&#x1e82;" horiz-adv-x="2025" 
d="M1849 1434h115l-477 -1434h-117l-356 1235l-359 -1235h-114l-480 1434h117l416 -1250l360 1250h117l361 -1250zM1118 1888h129l-186 -268h-68z" />
    <glyph glyph-name="wacute" unicode="&#x1e83;" horiz-adv-x="1548" 
d="M1391 1038h116l-366 -1038h-117l-250 842l-250 -842h-116l-367 1038h115l307 -870l260 870h102l258 -870zM874 1479h130l-187 -269h-67z" />
    <glyph glyph-name="Wdieresis" unicode="&#x1e84;" horiz-adv-x="2025" 
d="M1849 1434h115l-477 -1434h-117l-356 1235l-359 -1235h-114l-480 1434h117l416 -1250l360 1250h117l361 -1250zM827 1821q35 0 59.5 -25t24.5 -59q0 -35 -24.5 -59.5t-59.5 -24.5t-59.5 24.5t-24.5 59.5q0 34 24.5 59t59.5 25zM1198 1821q34 0 58 -25t24 -59
q0 -35 -24 -59.5t-58 -24.5q-35 0 -59.5 24.5t-24.5 59.5q0 34 24.5 59t59.5 25z" />
    <glyph glyph-name="wdieresis" unicode="&#x1e85;" horiz-adv-x="1548" 
d="M1391 1038h116l-366 -1038h-117l-250 842l-250 -842h-116l-367 1038h115l307 -870l260 870h102l258 -870zM590 1411q35 0 59.5 -25t24.5 -59q0 -35 -24.5 -59.5t-59.5 -24.5t-59.5 24.5t-24.5 59.5q0 34 24.5 59t59.5 25zM961 1411q33 0 57 -25t24 -59q0 -35 -23.5 -59.5
t-57.5 -24.5q-35 0 -59.5 24.5t-24.5 59.5q0 34 24.5 59t59.5 25z" />
    <glyph glyph-name="Ygrave" unicode="&#x1ef2;" horiz-adv-x="1361" 
d="M1300 1434l-565 -918v-516h-108v516l-566 918h129l492 -816l492 816h126zM600 1888l127 -268h-70l-186 268h129z" />
    <glyph glyph-name="ygrave" unicode="&#x1ef3;" horiz-adv-x="1028" 
d="M870 1038h117l-584 -1433h-116l186 456l-432 977h117l370 -837zM453 1479l127 -269h-70l-186 269h129z" />
    <glyph glyph-name="endash" unicode="&#x2013;" horiz-adv-x="1095" 
d="M164 664h768v-109h-768v109z" />
    <glyph glyph-name="emdash" unicode="&#x2014;" horiz-adv-x="1202" 
d="M164 664h874v-109h-874v109z" />
    <glyph glyph-name="quoteleft" unicode="&#x2018;" horiz-adv-x="485" 
d="M102 1075l228 365l53 -31l-178 -391z" />
    <glyph glyph-name="quoteright" unicode="&#x2019;" horiz-adv-x="485" 
d="M281 1440l102 -58l-227 -364l-54 31z" />
    <glyph glyph-name="quotesinglbase" unicode="&#x201a;" horiz-adv-x="444" 
d="M240 193l102 -60l-227 -364l-54 30z" />
    <glyph glyph-name="quotedblleft" unicode="&#x201c;" horiz-adv-x="823" 
d="M668 1440l53 -31l-178 -391l-103 57zM102 1075l228 365l53 -31l-178 -391z" />
    <glyph glyph-name="quotedblright" unicode="&#x201d;" horiz-adv-x="823" 
d="M102 1049l181 391l100 -58l-225 -364zM618 1440l103 -58l-227 -364l-54 31z" />
    <glyph glyph-name="quotedblbase" unicode="&#x201e;" horiz-adv-x="782" 
d="M61 -201l179 394l102 -60l-225 -364zM578 193l102 -60l-227 -364l-54 30z" />
    <glyph glyph-name="dagger" unicode="&#x2020;" horiz-adv-x="1099" 
d="M936 1051v-111h-332v-940h-108v940h-332v111h332v383h108v-383h332z" />
    <glyph glyph-name="daggerdbl" unicode="&#x2021;" horiz-adv-x="1099" 
d="M936 940h-332v-448h332v-111h-332v-381h-108v381h-332v111h332v448h-332v111h332v383h108v-383h332v-111z" />
    <glyph glyph-name="bullet" unicode="&#x2022;" horiz-adv-x="585" 
d="M293 795q62 0 105.5 -43.5t43.5 -106.5q0 -61 -43.5 -104t-105.5 -43q-63 0 -106.5 42.5t-43.5 104.5q0 63 43.5 106.5t106.5 43.5z" />
    <glyph glyph-name="ellipsis" unicode="&#x2026;" horiz-adv-x="1130" 
d="M188 145q35 0 60.5 -25.5t25.5 -60.5t-25.5 -60.5t-60.5 -25.5t-60.5 25.5t-25.5 60.5t25.5 60.5t60.5 25.5zM565 145q35 0 60.5 -25.5t25.5 -60.5t-25.5 -60.5t-60.5 -25.5t-60.5 25.5t-25.5 60.5t25.5 60.5t60.5 25.5zM942 145q35 0 60.5 -25.5t25.5 -60.5t-25.5 -60.5
t-60.5 -25.5t-60.5 25.5t-25.5 60.5t25.5 60.5t60.5 25.5z" />
    <glyph glyph-name="perthousand" unicode="&#x2030;" horiz-adv-x="2592" 
d="M1315 1434h108l-946 -1434h-108zM756 1081q0 -130 -93.5 -222.5t-224.5 -92.5q-130 0 -222.5 92t-92.5 223t92.5 223.5t222.5 92.5q131 0 224.5 -93t93.5 -223zM215 1081q0 -94 65.5 -159.5t157.5 -65.5q94 0 160 65.5t66 159.5q0 92 -66 158t-160 66q-92 0 -157.5 -66
t-65.5 -158zM1354 668q130 0 222.5 -92.5t92.5 -223.5q0 -130 -92.5 -222.5t-222.5 -92.5q-131 0 -223.5 92.5t-92.5 222.5t93 223t223 93zM1354 127q92 0 157.5 65.5t65.5 159.5q0 93 -65.5 159.5t-157.5 66.5q-93 0 -159.5 -66.5t-66.5 -159.5q0 -94 66 -159.5t160 -65.5z
M2154 668q130 0 223 -93t93 -223t-92.5 -222.5t-223.5 -92.5q-130 0 -222.5 92.5t-92.5 222.5q0 131 92.5 223.5t222.5 92.5zM2154 127q94 0 160 65.5t66 159.5q0 93 -66.5 159.5t-159.5 66.5q-92 0 -157.5 -66.5t-65.5 -159.5q0 -94 65.5 -159.5t157.5 -65.5z" />
    <glyph glyph-name="guilsinglleft" unicode="&#x2039;" horiz-adv-x="624" 
d="M502 877l-246 -363l246 -362h-131l-248 362l248 363h131z" />
    <glyph glyph-name="guilsinglright" unicode="&#x203a;" horiz-adv-x="624" 
d="M256 877l246 -363l-246 -362h-133l246 362l-246 363h133z" />
    <glyph glyph-name="fraction" unicode="&#x2044;" horiz-adv-x="911" 
d="M694 1630h115l-592 -1829h-115z" />
    <glyph glyph-name="Euro" unicode="&#x20ac;" horiz-adv-x="1576" 
d="M934 84q142 0 263 58.5t206 162.5l92 -61q-101 -126 -247 -198.5t-314 -72.5q-257 0 -452 159.5t-253 406.5h-168v92h152q-4 58 -4 86t4 86h-152v90h168q58 248 252.5 406.5t452.5 158.5q169 0 315 -71.5t246 -198.5l-92 -60q-86 104 -207 163t-262 59
q-213 0 -374 -127.5t-218 -329.5h670v-90h-688q-5 -73 -5 -86t5 -86h688v-92h-670q57 -200 218 -327.5t374 -127.5z" />
    <glyph glyph-name="ruble" unicode="&#x20bd;" horiz-adv-x="1353" 
d="M780 545h-319v-191h502v-90h-502v-264h-109v264h-250v90h250v191h-250v110h250v779h428q230 0 361 -122t131 -323t-131 -322.5t-361 -121.5zM461 1323v-668h319q186 0 284.5 89.5t98.5 244.5t-98.5 244.5t-284.5 89.5h-319z" />
    <glyph glyph-name="bitcoin" unicode="&#x20bf;" horiz-adv-x="1202" 
d="M1120 397q0 -155 -88.5 -253t-238.5 -130v-241h-91v229q-16 -2 -49 -2h-153v-227h-90v227h-246v1434h246v225h90v-225h121q34 0 81 -7v232h91v-252q121 -40 188.5 -131t67.5 -213q0 -105 -55.5 -183t-157.5 -118v-6q133 -37 208.5 -127.5t75.5 -231.5zM621 1323h-347
v-526h347q150 0 233.5 73t83.5 193q0 118 -83 189t-234 71zM653 109q162 0 260.5 71.5t98.5 216.5q0 146 -99 219.5t-260 73.5h-379v-581h379z" />
    <glyph glyph-name="afii61352" unicode="&#x2116;" horiz-adv-x="2215" 
d="M1145 186v1248h108v-1434h-108l-871 1247v-1247h-110v1434h110zM1804 786q-129 0 -219 91t-90 219q0 129 90 220t219 91q128 0 219 -91t91 -220q0 -128 -91 -219t-219 -91zM1804 1296q-83 0 -141.5 -58.5t-58.5 -141.5t58.5 -141t141.5 -58t142 58t59 141t-59 141.5
t-142 58.5zM1509 483v109h590v-109h-590z" />
    <glyph glyph-name="minus" unicode="&#x2212;" horiz-adv-x="983" 
d="M164 664h655v-109h-655v109z" />
    <glyph glyph-name="approxequal" unicode="&#x2248;" horiz-adv-x="1169" 
d="M397 778q-60 0 -94 -29t-53 -98l-107 31q59 207 254 207h2q31 0 66 -8.5t61.5 -19t62.5 -26.5l3 -1.5l3 -1.5t3.5 -1.5t3.5 -1.5q116 -55 180 -55q56 0 88.5 29.5t49.5 95.5l106 -29q-55 -206 -244 -206q-38 0 -82 11t-70.5 22t-72.5 32q-103 49 -158 49h-2zM782 442
q56 0 88.5 29.5t49.5 95.5l106 -28q-13 -49 -34.5 -86.5t-46 -59.5t-54 -35.5t-55.5 -18.5t-54 -5q-87 0 -225 63q-110 52 -158 52h-2q-60 0 -94 -29.5t-53 -97.5l-107 28q59 207 254 207h2q33 0 73 -10.5t61 -19t69 -29.5q118 -56 180 -56z" />
    <glyph glyph-name="notequal" unicode="&#x2260;" horiz-adv-x="1095" 
d="M932 719h-287l-94 -219h381v-109h-428l-107 -246h-100l106 246h-239v109h287l94 219h-381v108h428l106 246h101l-107 -246h240v-108z" />
    <glyph glyph-name="lessequal" unicode="&#x2264;" horiz-adv-x="1093" 
d="M164 0v109h766v-109h-766zM930 1087v-116l-621 -250l621 -252v-117l-766 310v116z" />
    <glyph glyph-name="greaterequal" unicode="&#x2265;" horiz-adv-x="1093" 
d="M164 109h766v-109h-766v109zM930 778v-116l-766 -310v117l620 252l-620 250v116z" />
    <glyph glyph-name="commaaccent" unicode="&#xf6c3;" horiz-adv-x="559" 
d="M270 -225h125l-155 -287h-76z" />
    </font>
</defs>
</svg>
