<?xml version="1.0" standalone="no"?>
<!DOCTYPE svg PUBLIC "-//W3C//DTD SVG 1.1//EN" "http://www.w3.org/Graphics/SVG/1.1/DTD/svg11.dtd" >
<svg xmlns="http://www.w3.org/2000/svg" xmlns:xlink="http://www.w3.org/1999/xlink" version="1.1">
<metadata>
Created by FontForge 20170731 at Thu Feb  3 13:38:57 2022
 By Aleksey,,,
Copyright (c) 2020 by MadeType. All rights reserved.
</metadata>
<defs>
<font id="MADETOMMYOutline-Light" horiz-adv-x="1177" >
  <font-face 
    font-family="MADE TOMMY Outline"
    font-weight="300"
    font-stretch="normal"
    units-per-em="2048"
    panose-1="2 0 5 3 0 0 0 2 0 4"
    ascent="1638"
    descent="-410"
    x-height="1042"
    cap-height="1434"
    bbox="-90 -516 2466 1978"
    underline-thickness="102"
    underline-position="-307"
    unicode-range="U+0020-F6C3"
  />
<missing-glyph horiz-adv-x="573" 
 />
    <glyph glyph-name=".notdef" horiz-adv-x="573" 
 />
    <glyph glyph-name=".null" horiz-adv-x="0" 
 />
    <glyph glyph-name="nonmarkingreturn" horiz-adv-x="682" 
 />
    <glyph glyph-name="space" unicode=" " horiz-adv-x="573" 
 />
    <glyph glyph-name="exclam" unicode="!" horiz-adv-x="499" 
d="M250 -27q-38 0 -66 28.5t-28 66.5t28 66t66 28t65 -28t27 -66q0 -39 -27 -67t-65 -28zM250 143q-32 0 -54 -22t-22 -53t22 -53.5t54 -22.5q31 0 53.5 22.5t22.5 53.5t-22.5 53t-53.5 22zM313 1434l-18 -1049h-90l-19 1049h127zM205 1415l16 -1012h55l19 1012h-90z" />
    <glyph glyph-name="quotedbl" unicode="&#x22;" horiz-adv-x="698" 
d="M246 1434v-469h-109v469h109zM156 1415v-432h71v432h-71zM561 1434v-469h-108v469h108zM471 1415v-432h72v432h-72z" />
    <glyph glyph-name="numbersign" unicode="#" horiz-adv-x="1333" 
d="M901 463l-61 -373h-111l62 373h-328l-62 -373h-110l61 373h-252l17 106h254l49 295h-258l18 109h256l62 370h108l-59 -370h327l62 370h108l-59 -370h252l-16 -109h-254l-49 -295h256l-17 -106h-256zM813 481l-61 -375h71l62 375h256l12 72h-256l55 330h252l10 71h-251
l61 371h-74l-59 -371h-367l62 371h-74l-59 -371h-258l-13 -71h258l-55 -330h-254l-10 -72h254l-62 -375h72l61 375h367zM879 883l-56 -330h-364l55 330h365zM528 864l-49 -295h330l49 295h-330z" />
    <glyph glyph-name="dollar" unicode="$" horiz-adv-x="1110" 
d="M623 -23v-200h-107v198q-172 13 -287.5 109t-150.5 221l-2 8l121 37l2 -8q27 -97 123 -169.5t237 -72.5q156 0 250 79t94 210q0 49 -16.5 86.5t-41.5 63t-71.5 48t-89.5 36.5t-113 32q-39 11 -61.5 17t-63 20t-66.5 25.5t-62 31t-59 39.5t-49 48.5t-40.5 60t-24.5 72
t-10 86.5q0 160 108.5 274.5t272.5 126.5v201h107v-205q126 -17 215 -93t129 -202l2 -10l-121 -31q-72 217 -299 217q-123 0 -205 -79.5t-82 -198.5q0 -58 20.5 -101t66.5 -75t105 -54.5t150 -46.5q40 -11 62.5 -17.5t63 -20t65.5 -25t60 -30.5t57 -38t47 -47t38.5 -58
t23 -69.5t9.5 -83.5q0 -72 -24.5 -140t-72.5 -126t-128.5 -97.5t-181.5 -48.5zM532 -6v-201h72v201h10q99 8 177 45.5t125 93.5t71.5 121.5t24.5 134.5q0 62 -17 113t-49 87t-69 63t-86.5 47t-92 34t-93.5 28q-3 1 -5 1q-49 13 -84 23.5t-75 25.5t-67 30.5t-53.5 37.5
t-42 47t-25 57.5t-9.5 71.5q0 127 87 212t218 85q237 0 309 -213l88 22q-40 118 -126 189t-208 86l-8 2v200h-72v-198h-8q-159 -9 -265.5 -119t-106.5 -266q0 -44 9 -82.5t23 -68t38.5 -57t46.5 -46.5t57 -37.5t59.5 -29.5t65 -24t62.5 -19.5t62 -16.5q71 -19 115.5 -34
t93.5 -39t75.5 -51t44.5 -68t18 -93q0 -139 -99 -222t-264 -83q-144 0 -244 73t-131 171l-86 -27q36 -115 150 -206t276 -101h8z" />
    <glyph glyph-name="percent" unicode="%" horiz-adv-x="1792" 
d="M1434 1434l-947 -1434h-129l947 1434h129zM1313 1415l-922 -1399h86l922 1399h-86zM444 756q-133 0 -227 93.5t-94 225.5q0 134 94 228t227 94q132 0 226 -94.5t94 -227.5q0 -132 -94 -225.5t-226 -93.5zM444 1378q-126 0 -214.5 -88.5t-88.5 -214.5q0 -125 88.5 -214
t214.5 -89q125 0 214.5 89.5t89.5 213.5q0 126 -89.5 214.5t-214.5 88.5zM444 846q-95 0 -163 67t-68 162t68 163.5t163 68.5t162.5 -68.5t67.5 -163.5t-67.5 -162t-162.5 -67zM444 1288q-89 0 -151 -62t-62 -151q0 -88 62 -150.5t151 -62.5q88 0 150.5 62.5t62.5 150.5
q0 89 -62.5 151t-150.5 62zM1348 35q-133 0 -227.5 94.5t-94.5 226.5t94.5 227t227.5 95q132 0 225.5 -95t93.5 -227t-93.5 -226.5t-225.5 -94.5zM1348 659q-126 0 -215 -88.5t-89 -214.5q0 -125 89 -214t215 -89q124 0 212.5 89t88.5 214q0 126 -88 214.5t-213 88.5z
M1348 125q-96 0 -164 67.5t-68 163.5t68 164t164 68q95 0 162 -68t67 -164q0 -95 -67 -163t-162 -68zM1348 569q-89 0 -151 -62.5t-62 -150.5t62 -150.5t151 -62.5q88 0 149.5 62.5t61.5 150.5t-61.5 150.5t-149.5 62.5z" />
    <glyph glyph-name="ampersand" unicode="&#x26;" horiz-adv-x="1425" 
d="M557 -27q-204 0 -341.5 117.5t-137.5 292.5q0 297 323 438q-100 166 -100 287q0 148 100 249t246 101q78 0 142 -25.5t104 -67t62 -94t22 -108.5q0 -65 -21.5 -120t-54.5 -93.5t-86.5 -74.5t-101.5 -59t-115 -50q89 -97 164 -168q120 -113 233 -213q62 113 82 254
l125 -16q-25 -183 -110 -324l344 -299h-193q-50 43 -225 195q-180 -222 -461 -222zM647 1440q-138 0 -234 -96.5t-96 -235.5q0 -70 28 -137.5t81 -157.5l-8 -4q-322 -137 -322 -426q0 -167 132 -279t329 -112q284 0 453 221l6 8q50 -45 233 -205h140q-181 154 -316 275l-4 4
q87 147 113 311l-90 12q-21 -136 -86 -251l-7 -11l-8 6q-108 98 -241 224q-122 119 -172 178l-9 10l11 4q67 27 114.5 49t101 57t86 72t54.5 90.5t22 116.5q0 111 -83 194t-228 83zM557 82q-159 0 -266 86t-107 215q0 76 29 139t78 105t93.5 67.5t96.5 44.5l4 -6
q60 -78 203 -213q118 -112 254 -233l6 -6q-36 -44 -68.5 -74.5t-79.5 -61.5t-108.5 -47t-134.5 -16zM475 717q-36 -13 -69 -30.5t-71.5 -47t-66.5 -64t-46.5 -85t-18.5 -107.5q0 -123 100 -203t254 -80q69 0 127 14.5t102 42t75 55.5t63 67q-218 199 -248 227
q-145 141 -201 211zM514 846l-4 6q-102 154 -102 256q0 109 66 175.5t173 66.5q99 0 160 -56.5t61 -130.5q0 -108 -81 -175.5t-273 -141.5zM647 1331q-100 0 -160.5 -61t-60.5 -162q0 -94 94 -240q177 69 253.5 132.5t76.5 162.5q0 67 -56 117.5t-147 50.5z" />
    <glyph glyph-name="quotesingle" unicode="'" horiz-adv-x="376" 
d="M242 1434v-469h-109v469h109zM152 1415v-432h71v432h-71z" />
    <glyph glyph-name="parenleft" unicode="(" horiz-adv-x="667" 
d="M532 -102l-90 -66l-6 8q-50 79 -84.5 140.5t-74.5 150t-64 172t-40.5 191.5t-16.5 223q0 114 16.5 222t40.5 190.5t64 171.5t74.5 150t84.5 140l6 8l90 -65l-6 -6q-54 -87 -93 -164.5t-76 -178.5t-56.5 -219t-19.5 -249q0 -132 19.5 -250t56.5 -219t76 -177.5t93 -164.5z
M508 1530l-62 45q-48 -77 -82.5 -138t-73.5 -147.5t-62.5 -168t-39.5 -187t-16 -217.5t16 -217.5t39.5 -187t62.5 -168t73.5 -147.5t82.5 -138l62 45q-55 87 -94 164.5t-76 178.5t-56.5 219.5t-19.5 250.5t19 250t56.5 219t76.5 178.5t94 165.5z" />
    <glyph glyph-name="parenright" unicode=")" horiz-adv-x="667" 
d="M229 -160l-6 -8l-88 66l4 8q55 88 93.5 164.5t76 177.5t57 219t19.5 250q0 131 -19.5 249t-57 219t-76.5 178t-93 165l-4 6l88 65l6 -8q64 -100 106.5 -179.5t87 -190t67 -237t22.5 -267.5q0 -142 -22.5 -269t-67 -237.5t-87 -190.5t-106.5 -180zM160 -96l59 -45
q62 98 103.5 176.5t84.5 186.5t65 232t22 263t-22 263t-65 232t-84.5 186.5t-103.5 176.5l-59 -45q54 -88 92.5 -165.5t75.5 -178.5t56 -219t19 -250t-19 -250.5t-56 -219.5t-75.5 -178.5t-92.5 -164.5z" />
    <glyph glyph-name="asterisk" unicode="*" horiz-adv-x="915" 
d="M727 799l-102 -74l-168 254l-166 -254l-103 74l191 237l-295 80l39 121l287 -109l-17 306h127l-14 -306l285 109l38 -121l-294 -80zM285 750l172 262l172 -262l71 53l-196 244l303 81l-29 84l-293 -110l17 313h-90l16 -313l-293 110l-29 -84l304 -81l-197 -244z" />
    <glyph glyph-name="plus" unicode="+" horiz-adv-x="1130" 
d="M627 547v-342h-127v342h-342v127h342v342h127v-342h342v-127h-342zM518 565v-342h90v342h342v90h-342v342h-90v-342h-342v-90h342z" />
    <glyph glyph-name="comma" unicode="," horiz-adv-x="419" 
d="M332 117l-223 -344l-74 41l176 372zM219 162l-162 -340l45 -27l205 316z" />
    <glyph glyph-name="hyphen" unicode="-" horiz-adv-x="983" 
d="M825 674v-127h-667v127h667zM176 655v-90h631v90h-631z" />
    <glyph glyph-name="period" unicode="." horiz-adv-x="376" 
d="M190 -27q-38 0 -66 28.5t-28 66.5t28 66t66 28t66.5 -28t28.5 -66t-28.5 -66.5t-66.5 -28.5zM190 143q-31 0 -53 -22t-22 -53t22 -53.5t53 -22.5t53.5 22.5t22.5 53.5t-22.5 53t-53.5 22z" />
    <glyph glyph-name="slash" unicode="/" horiz-adv-x="911" 
d="M817 1628l-590 -1825h-133l590 1825h133zM696 1610l-577 -1788h94l580 1788h-97z" />
    <glyph glyph-name="zero" unicode="0" horiz-adv-x="1267" 
d="M633 -27q-107 0 -196.5 42t-151 113t-104 167t-62 202t-19.5 220q0 113 19.5 219t62 201.5t104 166.5t151 112.5t196.5 41.5t196.5 -41.5t151 -112.5t104.5 -166.5t62.5 -201.5t19.5 -219q0 -143 -32.5 -273.5t-95.5 -237t-168 -170t-238 -63.5zM633 1440
q-104 0 -190 -40.5t-145.5 -110t-101 -162.5t-60.5 -196.5t-19 -213.5q0 -139 31.5 -266t92.5 -231t162.5 -166t229.5 -62t229.5 62t162.5 166t92.5 231t31.5 266q0 110 -19 213.5t-60.5 196.5t-101 162.5t-145.5 110t-190 40.5zM633 82q-90 0 -164 38t-121.5 100.5
t-80 146.5t-46.5 171t-14 179q0 91 14 178t46.5 170.5t80 146t121.5 100.5t164 38q91 0 165 -38t121.5 -100.5t80 -146t46 -170.5t13.5 -178q0 -76 -10 -149t-30.5 -145.5t-55 -133t-80 -107.5t-110 -73.5t-140.5 -26.5zM633 1331q-87 0 -157.5 -37t-116.5 -97.5t-77 -141.5
t-44 -165t-13 -173t13 -174t44 -166t77 -142t116.5 -98t157.5 -37t157.5 37t116 97.5t76.5 142t44 166.5t13 174t-13 173t-44 165t-76.5 141.5t-116 97.5t-157.5 37z" />
    <glyph glyph-name="one" unicode="1" horiz-adv-x="886" 
d="M608 1434v-1434h-127v1266l-342 -230l-65 107l432 291h102zM500 1298v-1282h90v1399h-78l-414 -276l47 -78z" />
    <glyph glyph-name="two" unicode="2" horiz-adv-x="1083" 
d="M963 125v-125h-854v121l2 2q61 67 228.5 260.5t186.5 216.5l25 29q55 66 79 95.5t63.5 83.5t56.5 88t31 78.5t14 84.5q0 117 -74 194.5t-184 77.5q-119 0 -199 -70t-105 -200l-122 24q31 171 147.5 272t278.5 101q164 0 273.5 -114.5t109.5 -284.5q0 -54 -15 -108
t-34.5 -96.5t-60 -100t-70.5 -95t-87 -104.5l-28 -35q-15 -18 -144 -168.5t-196 -226.5h678zM127 113v-97h817v90h-700l14 17q39 42 122.5 139t155 181t74.5 87l31 37q55 67 84 102.5t69 92.5t59 98.5t33.5 94t14.5 104.5q0 163 -104 272t-260 109q-155 0 -263.5 -91
t-142.5 -249l88 -19q28 126 111.5 197.5t206.5 71.5q118 0 197 -83t79 -208q0 -42 -14.5 -88t-31.5 -80.5t-57.5 -90.5t-64.5 -86t-80 -98l-24 -28q-5 -5 -89.5 -103t-183.5 -211.5t-141 -160.5z" />
    <glyph glyph-name="three" unicode="3" horiz-adv-x="1142" 
d="M580 -27q-183 0 -319.5 94t-164.5 242l125 25q18 -96 116 -165t243 -69q88 0 162 31.5t123.5 102.5t49.5 172q0 68 -21.5 120t-56 82.5t-82.5 49.5t-94.5 25.5t-99.5 6.5h-115v115h119q23 0 49 3t71.5 18t79 40.5t59.5 77.5t26 123q0 114 -76 189t-192 75
q-106 0 -186.5 -57.5t-106.5 -151.5l-2 -8l-125 25q37 145 152 232t268 87q166 0 280.5 -113.5t114.5 -277.5q0 -101 -51.5 -182t-145.5 -127q128 -44 195 -134.5t67 -217.5q0 -102 -39.5 -186t-105.5 -137t-148 -81.5t-169 -28.5zM207 313l-88 -18q29 -132 159 -217.5
t302 -85.5q84 0 162.5 27t142 77.5t101.5 131t38 178.5q0 65 -19 119.5t-46.5 90t-66.5 64t-71 43t-67 25.5l-23 8l23 8q98 43 151 122t53 181q0 160 -107.5 266.5t-268.5 106.5q-142 0 -251.5 -79t-146.5 -208l88 -18q31 97 116 156t194 59q123 0 204.5 -80.5t81.5 -202.5
q0 -74 -27 -130.5t-72 -88t-96.5 -47t-107.5 -15.5h-100v-79h96q48 0 92.5 -6t98 -25t92 -50.5t64.5 -88t26 -131.5q0 -81 -30 -144.5t-81 -101.5t-113 -58t-130 -20q-137 0 -243.5 65.5t-129.5 165.5z" />
    <glyph glyph-name="four" unicode="4" horiz-adv-x="1249" 
d="M938 334v-334h-127v334h-702v121l663 979h166v-973h203v-127h-203zM829 352v-336h91v336h202v90h-202v973h-138l-655 -966v-97h702zM829 1333v-891h-604zM811 1276l-551 -815h551v815z" />
    <glyph glyph-name="five" unicode="5" horiz-adv-x="1120" 
d="M553 -27q-169 0 -297.5 92.5t-157.5 235.5v8l123 25l2 -8q16 -88 109 -157t221 -69q65 0 125.5 23.5t110 67t79 114t29.5 156.5q0 81 -28 145.5t-74 103t-101 58.5t-114 20q-97 0 -179 -39.5t-131 -111.5l-123 31l91 766h710v-127h-604l-57 -494q121 100 293 100
q84 0 162 -29.5t141 -84.5t101 -143t38 -195q0 -114 -41 -208.5t-108.5 -154.5t-150 -92.5t-169.5 -32.5zM207 313l-88 -18q29 -132 151.5 -217.5t282.5 -85.5q84 0 163.5 31t144 88.5t104 148.5t39.5 201q0 103 -36.5 187.5t-97 137t-135 81t-155.5 28.5q-176 0 -299 -111
l-19 -18l66 559h602v90h-678l-84 -733l94 -25q52 70 135.5 110t182.5 40q63 0 121 -21t107 -62t78 -109t29 -154q0 -90 -31 -163.5t-82.5 -119.5t-115.5 -71t-133 -25q-123 0 -223 66.5t-123 164.5z" />
    <glyph glyph-name="six" unicode="6" horiz-adv-x="1171" 
d="M586 -27q-99 0 -189 39t-155.5 104.5t-104.5 155.5t-39 189q0 87 34 166.5t93 165.5l437 641h151l-356 -508q68 22 129 22q132 0 244 -65.5t177.5 -177.5t65.5 -244t-65.5 -244.5t-177.5 -178t-244 -65.5zM778 1415h-108l-430 -633q-58 -86 -90.5 -162t-32.5 -159
q0 -127 63 -235t171 -171t235 -63t235 63t171 171t63 235t-63 235t-171 171t-235 63q-71 0 -150 -29l-28 -12zM586 82q-157 0 -268 111t-111 268t111 268t268 111t268 -111t111 -268t-111 -268t-268 -111zM586 821q-149 0 -255 -105.5t-106 -254.5t106 -255t255 -106
t254.5 106t105.5 255t-105.5 254.5t-254.5 105.5z" />
    <glyph glyph-name="seven" unicode="7" horiz-adv-x="1064" 
d="M956 1331l-548 -1331h-138l541 1307h-702v127h847v-103zM838 1325l-541 -1309h98l543 1319v80h-811v-90h711z" />
    <glyph glyph-name="eight" unicode="8" horiz-adv-x="1183" 
d="M592 -27q-214 0 -353 121.5t-139 308.5q0 123 70 219.5t195 147.5q-92 50 -143.5 130t-51.5 177q0 163 120.5 272t301.5 109q180 0 300 -109t120 -272q0 -96 -51 -176.5t-142 -130.5q124 -49 194 -146.5t70 -220.5q0 -187 -138.5 -308.5t-352.5 -121.5zM592 1440
q-173 0 -288.5 -104t-115.5 -259q0 -95 53.5 -175t147.5 -124l21 -10l-21 -6q-127 -46 -199.5 -141.5t-72.5 -217.5q0 -179 134.5 -295t340.5 -116t339.5 115.5t133.5 295.5q0 122 -72.5 217.5t-199.5 141.5l-19 6l19 10q95 44 147.5 123t52.5 176q0 155 -114.5 259
t-286.5 104zM592 82q-167 0 -276 91t-109 230t109 229.5t276 90.5q166 0 274.5 -90.5t108.5 -229.5t-108.5 -230t-274.5 -91zM592 707q-159 0 -263 -86.5t-104 -217.5q0 -132 103.5 -217.5t263.5 -85.5q158 0 261 85.5t103 217.5q0 131 -103 217.5t-261 86.5zM592 807
q-136 0 -224.5 76.5t-88.5 193.5q0 119 88.5 196t224.5 77q135 0 223 -77t88 -196q0 -117 -88 -193.5t-223 -76.5zM592 1331q-129 0 -212 -72t-83 -182q0 -109 83.5 -181.5t211.5 -72.5q127 0 210 72.5t83 181.5q0 110 -83 182t-210 72z" />
    <glyph glyph-name="nine" unicode="9" horiz-adv-x="1171" 
d="M946 639l-436 -639h-154l359 506q-64 -21 -131 -21q-99 0 -189 38.5t-155 103.5t-103.5 155t-38.5 189q0 132 65 244t177 177.5t244 65.5t244 -65.5t177.5 -177.5t65.5 -244q0 -87 -33 -166t-92 -166zM762 543l-371 -527h109l432 633q57 84 89 161t32 161q0 195 -137 332
t-332 137q-127 0 -234.5 -62.5t-170 -170.5t-62.5 -236q0 -127 62.5 -234.5t170 -170t234.5 -62.5q75 0 151 28zM584 594q-156 0 -266.5 110.5t-110.5 266.5q0 157 111 268t266 111q157 0 268 -111t111 -268t-111 -267t-268 -110zM584 1331q-149 0 -255 -105.5t-106 -254.5
t106 -255t255 -106q150 0 256 106t106 255t-105.5 254.5t-256.5 105.5z" />
    <glyph glyph-name="colon" unicode=":" horiz-adv-x="458" 
d="M229 -27q-39 0 -66.5 28t-27.5 67t27.5 66.5t66.5 27.5q38 0 65.5 -28t27.5 -66t-27.5 -66.5t-65.5 -28.5zM229 143q-32 0 -53.5 -22t-21.5 -53t21.5 -53.5t53.5 -22.5q31 0 52.5 22.5t21.5 53.5t-21.5 53t-52.5 22zM229 881q-40 0 -67 27t-27 67q0 38 27 65t67 27
q38 0 65.5 -27t27.5 -65q0 -39 -27 -66.5t-66 -27.5zM229 1049q-32 0 -53.5 -21.5t-21.5 -52.5q0 -32 21.5 -54t53.5 -22q31 0 52.5 22t21.5 54q0 31 -21.5 52.5t-52.5 21.5z" />
    <glyph glyph-name="semicolon" unicode=";" horiz-adv-x="507" 
d="M281 881q-39 0 -66 27.5t-27 66.5q0 38 27.5 65t65.5 27q40 0 67 -27t27 -65q0 -40 -27 -67t-67 -27zM281 1049q-31 0 -53.5 -21.5t-22.5 -52.5q0 -32 22.5 -54t53.5 -22q32 0 53.5 22t21.5 54q0 31 -21.5 52.5t-53.5 21.5zM352 117l-223 -344l-76 41l178 372zM240 162
l-162 -340l45 -27l205 316z" />
    <glyph glyph-name="less" unicode="&#x3c;" horiz-adv-x="1056" 
d="M897 307v-137l-737 330v129l737 329v-135l-575 -258zM178 618v-106l703 -313v96l-605 270l605 269v98z" />
    <glyph glyph-name="equal" unicode="=" horiz-adv-x="1093" 
d="M934 836v-125h-776v125h776zM176 817v-90h739v90h-739zM934 512v-127h-776v127h776zM176 494v-91h739v91h-739z" />
    <glyph glyph-name="greater" unicode="&#x3e;" horiz-adv-x="1058" 
d="M899 500l-739 -330v137l575 258l-575 258v135l739 -329v-129zM780 565l-602 -270v-96l703 313v106l-703 314v-98z" />
    <glyph glyph-name="question" unicode="?" horiz-adv-x="894" 
d="M453 -27q-38 0 -66.5 28.5t-28.5 66.5t28.5 66t66.5 28t66 -28t28 -66t-28 -66.5t-66 -28.5zM453 143q-31 0 -53.5 -22t-22.5 -53t22.5 -53.5t53.5 -22.5q32 0 53.5 22.5t21.5 53.5t-21.5 53t-53.5 22zM516 393v-8h-125v8q1 79 17.5 144.5t49.5 120.5t58 86.5t70 80.5
q45 50 66.5 77.5t41 74t19.5 96.5q0 107 -77.5 182.5t-186.5 75.5q-54 0 -99.5 -18t-73.5 -42.5t-50 -57t-31 -54t-15 -41.5l-2 -8l-123 29l2 10q40 140 147 224.5t245 84.5q161 0 275 -112.5t114 -272.5q0 -56 -12 -103.5t-39 -91t-48 -69.5t-59 -68q-40 -43 -61 -70
t-48 -71t-40 -94.5t-15 -112.5zM410 403h90q2 50 13 95t23.5 75.5t38.5 67.5t42 56.5t49 56.5q38 42 58 67t46.5 67t38.5 87.5t12 97.5q0 152 -109 259.5t-263 107.5q-130 0 -230.5 -78t-140.5 -209l88 -23q7 23 17.5 47t34 56.5t53 57t76.5 42t102 17.5q117 0 199.5 -81
t82.5 -196q0 -33 -8 -64t-16.5 -52.5t-30.5 -51t-34.5 -44t-43.5 -48.5q-34 -39 -52 -60t-47.5 -64t-45 -80t-28.5 -91.5t-15 -114.5z" />
    <glyph glyph-name="at" unicode="@" horiz-adv-x="1888" 
d="M926 -117q-153 0 -284.5 45.5t-225 123t-160.5 180.5t-99 219t-32 237q0 68 14 141t45 151t76 150.5t113 137.5t150 113t192 76t235 28q171 0 312.5 -49t232 -126.5t153 -177.5t89 -198.5t26.5 -192.5q0 -209 -89.5 -338t-235.5 -129q-169 0 -217 183q-52 -82 -136 -127
t-182 -45q-160 0 -270.5 116t-110.5 283q0 166 117 282.5t283 116.5q180 0 282 -139v129h117v-481q0 -66 10.5 -110t30 -64t39.5 -27.5t47 -7.5q80 0 143.5 100t63.5 258q0 81 -23 164.5t-77 169t-132.5 152t-201 108t-271.5 41.5q-108 0 -203.5 -24t-167.5 -65.5
t-131 -97.5t-98.5 -118.5t-67 -130t-39.5 -130.5t-12 -122q0 -103 26 -201.5t82 -188.5t136 -158t196.5 -108t254.5 -40q247 0 413 135l9 6l67 -84l-8 -6q-195 -160 -481 -160zM950 1466q-169 0 -309 -52.5t-230.5 -134.5t-153 -187.5t-89.5 -207t-27 -196.5
q0 -119 31.5 -232t97 -213.5t157.5 -176.5t220.5 -120t278.5 -44q272 0 465 149l-48 55q-168 -133 -417 -133q-142 0 -261 41.5t-201 111t-139 162t-83.5 194t-26.5 206.5q0 60 12 125t40 134t68 133.5t100.5 122t133.5 100t171.5 67.5t209.5 25q128 0 237 -30t186.5 -81.5
t136.5 -117t94 -140t52 -146t17 -139.5q0 -169 -68 -272.5t-157 -103.5q-75 0 -109 54t-34 173v465h-82v-172l-17 26q-47 75 -120.5 115.5t-163.5 40.5q-158 0 -269.5 -112.5t-111.5 -270.5q0 -160 105 -270.5t257 -110.5q98 0 181.5 47.5t132.5 132.5l10 21l6 -23
q8 -36 21 -66.5t36 -59.5t61 -45.5t87 -16.5q138 0 222.5 123.5t84.5 324.5q0 92 -26 187.5t-86.5 193t-149.5 173t-227 123.5t-306 48zM922 393q-123 0 -207 84t-84 207q0 121 85.5 207t205.5 86q121 0 206.5 -85.5t85.5 -207.5q0 -121 -85 -206t-207 -85zM922 958
q-114 0 -194.5 -80t-80.5 -194q0 -115 79.5 -194.5t195.5 -79.5q114 0 194 80t80 194t-80 194t-194 80z" />
    <glyph glyph-name="A" unicode="A" horiz-adv-x="1308" 
d="M719 1434l534 -1434h-135l-147 397h-631l-150 -397h-133l535 1434h127zM983 414l147 -398h97l-520 1399h-103l-522 -1399h96l150 398h655zM655 1294l295 -790h-590zM655 1243l-268 -721h537z" />
    <glyph glyph-name="B" unicode="B" horiz-adv-x="1202" 
d="M651 0h-489v1434h459q193 0 312.5 -104t119.5 -273q0 -100 -53 -178t-150 -121q133 -40 203.5 -131.5t70.5 -225.5q0 -183 -129 -292t-344 -109zM180 1415v-1399h471q211 0 333 103.5t122 281.5q0 131 -73 220.5t-210 126.5v18q103 41 157 116t54 175q0 161 -113.5 259.5
t-299.5 98.5h-441zM651 106h-381v594h381q171 0 268 -79.5t97 -219.5t-96 -217.5t-269 -77.5zM287 682v-557h364q166 0 256 72t90 204q0 134 -90.5 207.5t-255.5 73.5h-364zM621 786h-351v539h351q151 0 237 -71.5t86 -196.5q0 -123 -88 -197t-235 -74zM287 1307v-502h334
q141 0 223 67.5t82 184.5q0 116 -82 183t-223 67h-334z" />
    <glyph glyph-name="C" unicode="C" horiz-adv-x="1460" 
d="M823 -27q-150 0 -285 58t-231 157.5t-152.5 237t-56.5 291.5q0 205 95.5 375t262 268t367.5 98q166 0 314.5 -72t253.5 -206l-107 -70q-87 107 -207 164t-254 57q-165 0 -302.5 -81t-216.5 -222.5t-79 -310.5q0 -170 79 -312t216.5 -223.5t302.5 -81.5q134 0 253.5 57.5
t207.5 164.5l107 -70q-107 -133 -255.5 -206t-312.5 -73zM823 1440q-195 0 -357.5 -95.5t-255.5 -261.5t-93 -366q0 -150 55 -284.5t149 -231t225 -153t277 -56.5q158 0 299.5 67t241.5 189l-76 51q-86 -104 -207.5 -160.5t-257.5 -56.5q-170 0 -312 84t-223 230t-81 321
q0 174 81 319.5t223 229.5t312 84q135 0 257 -56t208 -159l76 49q-99 123 -240.5 189.5t-300.5 66.5z" />
    <glyph glyph-name="D" unicode="D" horiz-adv-x="1400" 
d="M594 0h-432v1434h432q202 0 363.5 -92.5t252 -256.5t90.5 -368q0 -205 -90.5 -369t-252 -256t-363.5 -92zM180 1415v-1399h414q148 0 275.5 53t218.5 145t142.5 222.5t51.5 280.5q0 149 -52 278.5t-142.5 222t-218.5 145t-275 52.5h-414zM594 106h-324v1219h324
q172 0 308.5 -78t213 -217t76.5 -313q0 -175 -76.5 -314.5t-213 -218t-308.5 -78.5zM289 1307v-1182h305q253 0 417.5 167.5t164.5 424.5t-164.5 423.5t-417.5 166.5h-305z" />
    <glyph glyph-name="E" unicode="E" horiz-adv-x="1056" 
d="M961 125v-125h-801v1434h780v-127h-653v-502h608v-127h-608v-553h674zM178 1415v-1399h764v90h-674v590h609v90h-609v539h656v90h-746z" />
    <glyph glyph-name="F" unicode="F" horiz-adv-x="1067" 
d="M287 659v-659h-127v1434h811v-127h-684v-521h608v-127h-608zM178 1415v-1399h90v662h609v90h-609v557h684v90h-774z" />
    <glyph glyph-name="G" unicode="G" horiz-adv-x="1632" 
d="M827 -27q-150 0 -285 58t-231 157.5t-152.5 237t-56.5 291.5q0 205 95.5 375t262 268t367.5 98q165 0 313 -72t255 -206l-107 -70q-87 107 -207 164t-254 57q-165 0 -302.5 -81t-216.5 -222.5t-79 -310.5q0 -170 79 -312t216.5 -223.5t302.5 -81.5q238 0 384 151t153 404
h-506v127h631v-782h-88l-25 276q-82 -146 -223.5 -224.5t-325.5 -78.5zM827 1440q-195 0 -357.5 -95.5t-255.5 -261.5t-93 -366q0 -150 55 -284.5t149 -231t225 -153t277 -56.5q188 0 330 82t217 237l15 29l28 -324h56v748h-596v-90h505v-8q-4 -265 -155.5 -424.5
t-399.5 -159.5q-170 0 -312 84t-223 230t-81 321q0 174 81 319.5t223 229.5t312 84q135 0 257 -56t208 -159l76 49q-99 123 -240.5 189.5t-300.5 66.5z" />
    <glyph glyph-name="H" unicode="H" horiz-adv-x="1382" 
d="M1221 1434v-1434h-125v659h-807v-659h-127v1434h127v-648h807v648h125zM1112 678v-662h90v1399h-90v-647h-842v647h-90v-1399h90v662h842z" />
    <glyph glyph-name="I" unicode="I" horiz-adv-x="438" 
d="M283 1434v-1434h-125v1434h125zM176 1415v-1399h90v1399h-90z" />
    <glyph glyph-name="J" unicode="J" horiz-adv-x="1144" 
d="M537 -27q-186 0 -309 106t-152 298l125 22q22 -145 110 -222t226 -77q154 0 237.5 96t83.5 271v967h127v-967q0 -229 -120.5 -361.5t-327.5 -132.5zM186 377l-88 -17q28 -170 146 -269t293 -99q198 0 314 127.5t116 347.5v948h-90v-948q0 -184 -89 -284.5t-251 -100.5
q-142 0 -235 78.5t-116 216.5z" />
    <glyph glyph-name="K" unicode="K" horiz-adv-x="1163" 
d="M412 725l698 -725h-176l-653 678v-678h-125v1434h125v-666l602 666h170zM264 721l678 -705h127l-682 709l625 690h-121zM174 1415v-1399h90v1399h-90z" />
    <glyph glyph-name="L" unicode="L" horiz-adv-x="1042" 
d="M944 125v-125h-784v1434h125v-1309h659zM176 1415v-1399h750v90h-660v1309h-90z" />
    <glyph glyph-name="M" unicode="M" horiz-adv-x="1759" 
d="M1595 1434v-1434h-125v1192l-561 -834h-59l-561 834v-1192h-125v1434h121l596 -881l594 881h120zM1489 1251v-1235h90v1399h-94l-604 -893l-605 893h-94v-1399h88v1235l590 -874h41z" />
    <glyph glyph-name="N" unicode="N" horiz-adv-x="1417" 
d="M1255 1434v-1434h-120l-2 4l-844 1206v-1210h-127v1434h123l2 -4l843 -1209v1213h125zM270 1268l875 -1252h94v1399h-90v-1251l-875 1251h-94v-1399h90v1252z" />
    <glyph glyph-name="O" unicode="O" horiz-adv-x="1652" 
d="M827 -27q-150 0 -285 58t-231 157.5t-152.5 237t-56.5 291.5q0 205 95.5 375t262 268t367.5 98q200 0 366 -98t261.5 -268t95.5 -375q0 -153 -56.5 -291t-152.5 -237.5t-230 -157.5t-284 -58zM827 1440q-195 0 -357.5 -95.5t-255.5 -261.5t-93 -366q0 -150 55 -284.5
t149 -231t225 -153t277 -56.5t276.5 56.5t224.5 152.5t149 231t55 285t-55 284t-149 230t-224.5 152.5t-276.5 56.5zM827 82q-170 0 -312 84t-223 230t-81 321q0 174 81 319.5t223 229.5t312 84q169 0 310.5 -84t223 -229.5t81.5 -319.5q0 -175 -81.5 -321t-223 -230
t-310.5 -84zM827 1331q-165 0 -302.5 -81t-216.5 -222.5t-79 -310.5q0 -170 79 -312t216.5 -223.5t302.5 -81.5t302 81.5t216.5 223.5t79.5 312q0 169 -79.5 310.5t-217 222.5t-301.5 81z" />
    <glyph glyph-name="P" unicode="P" horiz-adv-x="1167" 
d="M289 539v-539h-127v1434h432q229 0 362.5 -121t133.5 -328t-133.5 -326.5t-362.5 -119.5h-305zM180 1415v-1399h90v541h324q221 0 349 115t128 313q0 199 -128 314.5t-349 115.5h-414zM594 647h-324v678h324q182 0 284.5 -90t102.5 -250q0 -161 -101 -249.5t-286 -88.5z
M289 1307v-643h305q177 0 273 83.5t96 237.5t-96 238t-273 84h-305z" />
    <glyph glyph-name="Q" unicode="Q" horiz-adv-x="1652" 
d="M1485 37l-78 -76l-152 154q-193 -142 -430 -142q-150 0 -284 58t-230 157.5t-152.5 237.5t-56.5 291q0 205 95.5 375t261.5 268t366 98t366.5 -98t262.5 -268t96 -375q0 -152 -55.5 -289.5t-159.5 -241.5zM1249 135l6 4l152 -151l51 49l-147 149l6 7q104 103 159.5 238
t55.5 286q0 200 -93.5 366t-256 261.5t-357.5 95.5t-357 -95.5t-255.5 -261.5t-93.5 -366q0 -150 55 -285t149.5 -231t225 -152.5t276.5 -56.5q240 0 424 143zM825 82q-169 0 -311 84t-223.5 230t-81.5 321q0 174 81.5 319.5t223.5 229.5t311 84q170 0 312 -84t223.5 -229.5
t81.5 -319.5q0 -132 -49 -251t-140 -210l-6 -6l-248 250l-51 -51l244 -246l-8 -6q-162 -115 -359 -115zM825 1331q-165 0 -302.5 -81t-216.5 -222.5t-79 -310.5q0 -170 79 -312t216.5 -223.5t302.5 -81.5q187 0 340 107l-241 242l75 75l248 -248q86 86 131 200t45 241
q0 169 -79 310.5t-216.5 222.5t-302.5 81z" />
    <glyph glyph-name="R" unicode="R" horiz-adv-x="1210" 
d="M770 621l385 -621h-145l-369 596q-54 -4 -80 -4h-276v-592h-127v1434h403q238 0 372 -112t134 -310q0 -148 -76.5 -249t-220.5 -142zM649 614l371 -598h102l-379 615l11 4q142 38 218.5 136t76.5 241q0 189 -129.5 296t-358.5 107h-385v-1399h90v594h295q26 0 88 4z
M561 700h-295v625h295q195 0 296 -79.5t101 -233.5q0 -152 -101 -232t-296 -80zM285 1307v-588h276q186 0 282.5 74t96.5 219t-96.5 220t-282.5 75h-276z" />
    <glyph glyph-name="S" unicode="S" horiz-adv-x="1110" 
d="M561 -27q-96 0 -180.5 29t-144 78t-100.5 108.5t-60 124.5l121 37l2 -8q27 -97 123.5 -169.5t238.5 -72.5q156 0 249 79t93 210q0 41 -10 73.5t-32 57.5t-47.5 44t-67.5 36t-79 28.5t-94 26.5q-51 14 -80 22.5t-81.5 28t-85 38.5t-73 50.5t-63.5 67t-39 85.5t-16 108
q0 169 120.5 286t295.5 117q153 0 262.5 -79t155.5 -222l2 -10l-123 -31l-2 8q-68 209 -295 209q-123 0 -206 -80t-83 -198q0 -112 80 -170.5t264 -106.5q40 -11 62 -17.5t62.5 -20t65 -25t60 -30.5t57 -38t46.5 -47t38.5 -58t23 -69.5t9.5 -83.5q0 -61 -17.5 -119.5
t-55 -112.5t-91 -95t-132.5 -65t-173 -24zM184 328l-86 -27q39 -125 162.5 -217t300.5 -92q112 0 201 34t142.5 91t81.5 126.5t28 145.5q0 42 -9 79.5t-21.5 66.5t-37 55.5t-44 44.5t-55 36.5t-58 29t-64 24t-62 19.5t-63.5 18q-70 18 -115.5 33t-95.5 39.5t-78.5 53
t-47.5 71t-19 96.5q0 127 88 212t219 85q234 0 309 -213l88 22q-46 133 -149.5 206t-247.5 73q-167 0 -282 -111t-115 -274q0 -44 9.5 -82.5t23 -68t38.5 -57t46.5 -46.5t57 -37.5t60 -29.5t65 -24t62.5 -19.5t62 -16.5q70 -19 114 -34t92.5 -39t75.5 -51t44.5 -68t17.5 -93
q0 -139 -98.5 -222t-262.5 -83q-145 0 -245 72.5t-132 171.5z" />
    <glyph glyph-name="T" unicode="T" horiz-adv-x="1097" 
d="M612 1307v-1307h-127v1307h-387v127h901v-127h-387zM504 1325v-1309h90v1309h387v90h-864v-90h387z" />
    <glyph glyph-name="U" unicode="U" horiz-adv-x="1343" 
d="M672 -27q-232 0 -371 154t-139 410v897h125v-897q0 -205 102.5 -321t282.5 -116q181 0 283 115.5t102 321.5v897h125v-897q0 -257 -138.5 -410.5t-371.5 -153.5zM270 1415h-90v-878q0 -249 134 -397t358 -148t358.5 148t134.5 397v878h-90v-878q0 -211 -108.5 -333
t-294.5 -122t-294 122t-108 333v878z" />
    <glyph glyph-name="V" unicode="V" horiz-adv-x="1308" 
d="M1251 1434l-534 -1434h-127l-535 1434h135l463 -1246l463 1246h135zM82 1415l520 -1399h103l520 1399h-95l-477 -1278l-475 1278h-96z" />
    <glyph glyph-name="W" unicode="W" horiz-adv-x="2025" 
d="M1966 1434l-479 -1434h-127l-346 1196l-346 -1196h-127l-478 1434h132l405 -1213l350 1213h127l353 -1213l403 1213h133zM1014 1260l360 -1244h101l464 1399h-94l-418 -1253l-362 1253h-100l-365 -1253l-418 1253h-94l465 -1399h100z" />
    <glyph glyph-name="X" unicode="X" horiz-adv-x="1241" 
d="M694 743l494 -743h-150l-417 631l-420 -631h-150l494 743l-459 691h150l385 -578l383 578h149zM621 664l428 -648h106l-481 727l444 672h-106l-391 -592l-394 592h-106l446 -672l-483 -727h106z" />
    <glyph glyph-name="Y" unicode="Y" horiz-adv-x="1361" 
d="M745 516v-516h-127v516l-565 918h148l481 -797l479 797h148zM637 520v-504h90v504l549 895h-105l-489 -813l-492 813h-104z" />
    <glyph glyph-name="Z" unicode="Z" horiz-adv-x="1179" 
d="M1081 125v-125h-983v119l2 2l805 1186h-770v127h928v-121l-2 -2l-805 -1186h825zM117 113v-97h946v90h-842l823 1213v96h-890v-90h786z" />
    <glyph glyph-name="bracketleft" unicode="[" horiz-adv-x="645" 
d="M508 -70v-127h-350v1825h350v-127h-225v-1571h225zM176 1610v-1788h316v90h-228v1608h228v90h-316z" />
    <glyph glyph-name="backslash" unicode="\" horiz-adv-x="911" 
d="M229 1622l588 -1819h-131l-2 9l-590 1816h133zM119 1610l579 -1788h95l-578 1788h-96z" />
    <glyph glyph-name="bracketright" unicode="]" horiz-adv-x="645" 
d="M487 1628v-1825h-350v127h225v1571h-225v127h350zM154 -88v-90h317v1788h-317v-90h227v-1608h-227z" />
    <glyph glyph-name="asciicircum" unicode="^" horiz-adv-x="1064" 
d="M600 1434l352 -623h-143l-277 485l-274 -485h-145l354 623h133zM532 1333l287 -504h103l-332 586h-113l-332 -586h103z" />
    <glyph glyph-name="underscore" unicode="_" horiz-adv-x="870" 
d="M813 -188v-125h-756v125h756zM74 -207v-90h721v90h-721z" />
    <glyph glyph-name="grave" unicode="`" horiz-adv-x="583" 
d="M297 1487l133 -283h-86l-197 283h150zM182 1470l170 -247h49l-114 247h-105z" />
    <glyph glyph-name="a" unicode="a" horiz-adv-x="1067" 
d="M442 -27q-158 0 -261 89.5t-103 226.5q0 214 231 284q62 19 150 28t137.5 10t159.5 1h37v60q0 35 -5 67t-22 70.5t-43.5 66.5t-75 47t-112.5 19q-62 0 -119.5 -18.5t-91 -39t-80.5 -55.5l-103 78q90 75 181 117.5t213 42.5q177 0 280 -106t103 -289v-672h-125v139
q-131 -166 -351 -166zM741 596q-294 0 -426 -39q-219 -67 -219 -268q0 -129 97.5 -213t248.5 -84q128 0 214.5 52.5t136.5 127.5l16 25v-181h90v656q0 175 -97.5 276t-266.5 101q-114 0 -200.5 -38.5t-164.5 -103.5l74 -55q65 49 132.5 77.5t158.5 28.5q71 0 123.5 -22
t80.5 -53t44.5 -73.5t21 -74t4.5 -63.5v-76h-68zM442 82q-100 0 -176 54t-76 153q0 77 50 127q33 33 84 53t122.5 27.5t124 9t138.5 0.5h100v-191q-11 -36 -37 -73.5t-69 -75t-111 -61t-150 -23.5zM645 487q-145 0 -242.5 -16.5t-150.5 -67.5q-45 -45 -45 -114
q0 -90 70.5 -139.5t164.5 -49.5q77 0 142 22t106 57.5t66 70t37 69.5v168h-148z" />
    <glyph glyph-name="b" unicode="b" horiz-adv-x="1273" 
d="M674 -27q-120 0 -223 52t-172 147v-172h-125v1434h125v-566q69 95 172 147t223 52q144 0 263.5 -72t188 -198t68.5 -277q0 -150 -68.5 -276t-188 -198.5t-263.5 -72.5zM262 16v215l17 -24q66 -103 169 -159t226 -56q139 0 255 70t182.5 191.5t66.5 266.5
q0 146 -66.5 267.5t-182.5 191.5t-255 70q-123 0 -226 -55.5t-169 -157.5l-17 -27v606h-90v-1399h90zM674 82q-177 0 -294.5 125t-117.5 313t117.5 313t294.5 125t295 -125t118 -313t-118 -313t-295 -125zM674 942q-169 0 -282 -121t-113 -301t113 -300t282 -120t282 120
t113 300t-113 301t-282 121z" />
    <glyph glyph-name="c" unicode="c" horiz-adv-x="1134" 
d="M621 -27q-147 0 -272 73.5t-198 199.5t-73 274t73 274t198 199.5t272 73.5q137 0 257.5 -66.5t198.5 -187.5l-110 -59q-61 90 -152.5 139t-193.5 49q-172 0 -294 -123.5t-122 -298.5q0 -173 122 -296.5t294 -123.5q102 0 193.5 49t152.5 138l110 -60
q-79 -121 -199 -187.5t-257 -66.5zM621 1049q-142 0 -263 -70.5t-191.5 -192.5t-70.5 -266q0 -143 70.5 -264.5t191.5 -192.5t263 -71q129 0 243.5 61t186.5 168l-80 43q-60 -86 -152.5 -134t-197.5 -48q-180 0 -307.5 128.5t-127.5 309.5t127.5 309.5t307.5 128.5
q104 0 197 -47.5t153 -132.5l80 43q-72 107 -186.5 167.5t-243.5 60.5z" />
    <glyph glyph-name="d" unicode="d" horiz-adv-x="1271" 
d="M600 -27q-143 0 -262.5 72.5t-188.5 198.5t-69 276q0 230 151 388.5t369 158.5q120 0 223 -52t172 -147v566h125v-1434h-125v172q-69 -95 -172 -147t-223 -52zM600 1049q-139 0 -254.5 -70t-181.5 -191.5t-66 -267.5q0 -145 66 -266.5t181.5 -191.5t254.5 -70
q123 0 227 56t170 159l17 24v-215h90v1399h-90v-606l-17 27q-66 101 -170 157t-227 56zM600 82q-177 0 -294.5 125t-117.5 313t117.5 313t294.5 125t295.5 -125.5t118.5 -312.5t-118.5 -312.5t-295.5 -125.5zM600 942q-169 0 -282 -121t-113 -301t113 -300t282 -120t282 120
t113 300t-113 301t-282 121z" />
    <glyph glyph-name="e" unicode="e" horiz-adv-x="1171" 
d="M616 -27q-111 0 -210.5 43t-171 116t-113 174t-41.5 214t40 214.5t108.5 174.5t163.5 115.5t202 42.5q212 0 350 -147q78 -84 116.5 -201.5t31.5 -251.5v-8h-881q22 -157 136 -258t269 -101q197 0 328 152l107 -68q-167 -211 -435 -211zM594 1049q-137 0 -251 -70
t-179.5 -191.5t-65.5 -267.5q0 -145 68.5 -266.5t187.5 -191.5t262 -70q252 0 408 188l-76 47q-130 -145 -332 -145q-164 0 -285 108.5t-141 274.5v10h883q6 130 -31 242t-112 190q-133 142 -336 142zM981 565h-791v10q20 167 134.5 275t269.5 108q154 0 262 -107.5
t125 -285.5zM211 584h752q-22 161 -123 259.5t-246 98.5q-147 0 -255 -101t-128 -257z" />
    <glyph glyph-name="f" unicode="f" horiz-adv-x="688" 
d="M375 915v-915h-127v915h-182v127h182v9q0 403 375 403h10v-127h-10q-132 0 -190 -64t-58 -212v-9h258v-127h-258zM266 934v-918h90v918h258v90h-258v27q0 152 61.5 223t196.5 72v90q-348 -6 -348 -385v-27h-182v-90h182z" />
    <glyph glyph-name="g" unicode="g" horiz-adv-x="1271" 
d="M594 -410q-141 0 -258.5 54t-196.5 157l107 70q125 -154 348 -154q81 0 148.5 22.5t113.5 61t78 90t46.5 108.5t14.5 118v116q-64 -98 -167 -151t-226 -53q-144 0 -264 68.5t-189 187.5t-69 262q0 144 69 263.5t189 188t264 68.5q123 0 226 -53.5t167 -151.5v180h127
v-925q0 -78 -19.5 -152.5t-62.5 -142.5t-103.5 -119.5t-149 -82t-193.5 -30.5zM242 -154l-76 -49q72 -89 184 -138.5t244 -49.5q102 0 187 29.5t144 79t100 115.5t60 137.5t19 146.5v907h-90v-227l-17 28q-61 107 -165 165.5t-230 58.5q-212 0 -358 -145t-146 -357
q0 -138 66.5 -253t182.5 -181t255 -66q127 0 230.5 58t164.5 165l17 29v-182q0 -81 -25.5 -154t-75 -133t-132 -95.5t-187.5 -35.5q-226 0 -352 147zM602 137q-173 0 -293.5 119t-120.5 291q0 173 120 292t294 119q173 0 292.5 -119t119.5 -292q0 -172 -119.5 -291
t-292.5 -119zM602 942q-166 0 -280.5 -114.5t-114.5 -280.5q0 -164 114.5 -278.5t280.5 -114.5q165 0 279 114t114 279q0 166 -113.5 280.5t-279.5 114.5z" />
    <glyph glyph-name="h" unicode="h" 
d="M1026 614v-614h-125v614q0 16 -1.5 35t-8 53t-18 64t-34 63.5t-52 57.5t-76.5 39.5t-105 15.5q-69 0 -126 -22t-94 -56.5t-62.5 -79t-36.5 -87.5t-11 -83v-614h-124v1434h124v-531q57 79 142 121.5t188 42.5q84 0 154.5 -26.5t118.5 -70.5t82 -103t49.5 -122.5
t15.5 -130.5zM920 614v-598h90v598q0 81 -25 156.5t-73 139t-127.5 101.5t-178.5 38q-219 0 -332 -181l-16 -26v573h-90v-1399h90v598q0 54 19.5 110.5t58.5 110.5t109.5 88.5t160.5 34.5q67 0 121 -20.5t89.5 -54.5t59.5 -79t34 -92.5t10 -97.5z" />
    <glyph glyph-name="i" unicode="i" horiz-adv-x="417" 
d="M272 1042v-1042h-127v1042h127zM164 1024v-1008h90v1008h-90zM209 1239q-34 0 -57 24t-23 58q0 33 23.5 56.5t56.5 23.5t56.5 -23.5t23.5 -56.5q0 -34 -23 -58t-57 -24zM209 1382q-27 0 -45.5 -17.5t-18.5 -43.5t19 -45t45 -19t43.5 18.5t17.5 45.5q0 26 -17.5 43.5
t-43.5 17.5z" />
    <glyph glyph-name="j" unicode="j" horiz-adv-x="417" 
d="M-80 -373h-10v125h10q61 0 103.5 13t66 32.5t36.5 53.5t16 64t3 75v1052h127v-1052q0 -186 -86 -274.5t-266 -88.5zM-72 -266v-90q167 3 246.5 87.5t79.5 258.5v1034h-90v-1034q0 -44 -3.5 -75.5t-17.5 -67.5t-38 -58.5t-69 -38t-108 -16.5zM209 1239q-32 0 -56 24
t-24 58q0 32 24 56t56 24q34 0 58 -24t24 -56q0 -34 -24 -58t-58 -24zM209 1382q-26 0 -44 -17.5t-18 -43.5t18 -45t44 -19t44.5 19t18.5 45t-18.5 43.5t-44.5 17.5z" />
    <glyph glyph-name="k" unicode="k" horiz-adv-x="999" 
d="M406 537l542 -537h-168l-512 508v-508h-125v1434h125v-867l451 475h166zM264 537l524 -521h117l-524 521l461 487h-115zM160 1415v-1399h90v1399h-90z" />
    <glyph glyph-name="l" unicode="l" horiz-adv-x="415" 
d="M270 1434v-1434h-125v1434h125zM162 1415v-1399h90v1399h-90z" />
    <glyph glyph-name="m" unicode="m" horiz-adv-x="1732" 
d="M1577 649v-649h-125v649q0 54 -13.5 103.5t-42 93t-78.5 70t-116 26.5q-62 0 -111.5 -21.5t-79 -54t-49 -75.5t-27 -81.5t-7.5 -76.5v-633h-125v649q0 54 -13.5 103.5t-42 93t-78.5 70t-116 26.5q-62 0 -111.5 -21.5t-79 -54t-49 -75.5t-27 -81.5t-7.5 -76.5v-633h-125
v1042h125v-131q103 156 274 156q109 0 193 -51t133 -148q54 95 138 147t185 52q93 0 167 -36.5t118 -97t67 -133t23 -151.5zM1468 649v-633h91v633q0 75 -22 144.5t-64 127.5t-112 93t-159 35q-100 0 -183 -53t-134 -150l-8 -17l-9 17q-12 27 -27.5 51t-42.5 53t-59.5 50
t-81 35t-104.5 14q-180 0 -274 -177l-19 -30v182h-90v-1008h90v617q0 63 17.5 119.5t52 103.5t92.5 74.5t131 27.5q57 0 103 -18.5t76 -49t50 -71t28.5 -83t8.5 -87.5v-633h90v617q0 63 17.5 119.5t52 103.5t92.5 74.5t131 27.5q57 0 103 -18.5t76 -49t50 -71t28.5 -83
t8.5 -87.5z" />
    <glyph glyph-name="n" unicode="n" horiz-adv-x="1175" 
d="M1026 614v-614h-127v614q0 16 -1.5 35t-8 53t-18 64t-34 63.5t-52 57.5t-76.5 39.5t-105 15.5q-69 0 -126 -22t-94 -56.5t-62.5 -79t-36.5 -87.5t-11 -83v-614h-124v1042h124v-139q121 164 330 164q104 0 187 -40t133 -105.5t76 -144.5t26 -163zM918 614v-598h90v598
q0 81 -25 156.5t-73 139t-127.5 101.5t-178.5 38q-217 0 -330 -181l-18 -26v182h-90v-1008h90v598q0 42 11.5 87t38.5 91.5t66 83t99.5 59.5t132.5 23q67 0 121 -20.5t89.5 -54.5t59.5 -79t34 -92.5t10 -97.5z" />
    <glyph glyph-name="o" unicode="o" horiz-adv-x="1241" 
d="M621 -27q-147 0 -272 73.5t-198 199.5t-73 274t73 274t198 199.5t272 73.5t271.5 -73.5t196.5 -199.5t72 -274t-72 -274t-196.5 -199.5t-271.5 -73.5zM621 1049q-142 0 -263 -70.5t-191.5 -192.5t-70.5 -266q0 -143 70.5 -264.5t191.5 -192.5t263 -71t262.5 71t190 192.5
t69.5 264.5q0 108 -41 206t-111 168.5t-167 112.5t-203 42zM621 82q-180 0 -307.5 128.5t-127.5 309.5t127.5 309.5t307.5 128.5t306 -128t126 -310t-126 -310t-306 -128zM621 942q-172 0 -294 -123.5t-122 -298.5q0 -173 122 -296.5t294 -123.5t293.5 123.5t121.5 296.5
q0 175 -121.5 298.5t-293.5 123.5z" />
    <glyph glyph-name="p" unicode="p" horiz-adv-x="1282" 
d="M289 172v-563h-127v1433h127v-174q69 95 172 147t223 52q218 0 369 -158.5t151 -388.5q0 -150 -69 -276t-188.5 -198.5t-262.5 -72.5q-120 0 -223 52t-172 147zM180 1024v-1397h90v604l17 -24q66 -103 170 -159t227 -56q138 0 253.5 70t182 191.5t66.5 266.5
q0 146 -66.5 267.5t-182 191.5t-253.5 70q-123 0 -227 -56t-170 -157l-17 -27v215h-90zM684 82q-177 0 -295.5 125.5t-118.5 312.5t118.5 312.5t295.5 125.5t294.5 -125t117.5 -313t-117.5 -313t-294.5 -125zM684 942q-169 0 -282 -121t-113 -301t113 -300t282 -120t281 120
t112 300t-112.5 301t-280.5 121z" />
    <glyph glyph-name="q" unicode="q" horiz-adv-x="1271" 
d="M1122 1042v-1433h-127v563q-69 -95 -171 -147t-222 -52q-144 0 -264 72.5t-189 198.5t-69 276q0 151 69 277t189 198t264 72q120 0 222 -52t171 -147v174h127zM1014 231v-604h90v1397h-90v-215l-17 27q-66 102 -169 157.5t-226 55.5q-139 0 -255 -70t-182.5 -191.5
t-66.5 -267.5q0 -145 66.5 -266.5t182.5 -191.5t255 -70q123 0 226 56t169 159zM602 82q-177 0 -295.5 125.5t-118.5 312.5t118.5 312.5t295.5 125.5q175 0 293.5 -125.5t118.5 -312.5t-118.5 -312.5t-293.5 -125.5zM602 942q-169 0 -282 -121t-113 -301t113 -300t282 -120
q168 0 280.5 120t112.5 300t-113 301t-280 121z" />
    <glyph glyph-name="r" unicode="r" horiz-adv-x="694" 
d="M274 530v-530h-127v1042h127v-194q63 105 156 162t201 57h8v-143h-8q-169 0 -263 -103.5t-94 -290.5zM166 1026v-1010h92v514q0 194 95 301.5t270 110.5v107q-108 -1 -199 -64t-150 -176l-16 -33v250h-92z" />
    <glyph glyph-name="s" unicode="s" horiz-adv-x="886" 
d="M440 -27q-144 0 -242.5 71t-129.5 169l-5 10l121 41l2 -10q19 -61 87 -107.5t167 -46.5q112 0 177 50.5t65 138.5q0 76 -52 109.5t-184 60.5q-58 12 -102 25.5t-92 37.5t-79 54.5t-51 77.5t-20 106q0 132 94.5 219.5t235.5 87.5q120 0 208 -63.5t120 -172.5l2 -8
l-121 -32l-2 8q-22 68 -76.5 105.5t-130.5 37.5q-89 0 -147 -52t-58 -130q0 -75 59.5 -113t190.5 -65q30 -6 46.5 -9.5t48 -12t50.5 -16.5t47 -21.5t45 -28t37.5 -35.5t31.5 -45.5t18.5 -56t7.5 -68.5q0 -60 -22.5 -115.5t-66 -101t-116 -72.5t-164.5 -27zM172 240l-86 -29
q34 -91 127 -155t227 -64q75 0 135.5 18t100 47t66 68.5t38 80t11.5 83.5q0 40 -9.5 74t-25 59t-41 46t-50 34.5t-60 26t-64 20t-68.5 16.5q-136 27 -199 69t-63 126q0 86 62 142t159 56q81 0 138.5 -38t82.5 -107l86 23q-32 99 -114 156t-193 57q-134 0 -222.5 -82.5
t-88.5 -206.5q0 -55 19 -99t49 -73t75.5 -51.5t88.5 -35.5t98 -24q137 -28 193 -66.5t56 -121.5q0 -95 -70 -151t-190 -56q-102 0 -173 46.5t-95 111.5z" />
    <glyph glyph-name="t" unicode="t" horiz-adv-x="710" 
d="M522 -10q-135 0 -203 63q-86 77 -86 262v600h-178v127h178v215h127v-215h240v-127h-240v-600q0 -121 46 -161q50 -47 198 -33v-127q-66 -4 -82 -4zM74 1024v-90h178v-619q0 -175 80 -249q77 -69 254 -56v90q-137 -12 -193 39q-51 48 -51 176v619h240v90h-240v215h-90
v-215h-178z" />
    <glyph glyph-name="u" unicode="u" 
d="M571 -27q-104 0 -186.5 40t-132 106t-75 145t-25.5 164v614h124v-614q0 -17 1.5 -36t8 -53t18 -64t34 -63t52 -57t76.5 -39.5t105 -15.5q86 0 153 33t103.5 84t55 105.5t18.5 105.5v614h127v-1042h-127v139q-57 -80 -142.5 -123t-187.5 -43zM260 1024h-90v-596
q0 -82 24.5 -157.5t72 -139t126.5 -101.5t178 -38q221 0 332 182l17 27v-185h90v1008h-90v-596q0 -42 -11.5 -87t-38.5 -92t-66 -83.5t-99.5 -60t-133.5 -23.5q-82 0 -144.5 31t-97.5 82.5t-52 110.5t-17 122v596z" />
    <glyph glyph-name="v" unicode="v" horiz-adv-x="1064" 
d="M1030 1042l-434 -1042h-129l-434 1042h135l362 -872l365 872h135zM59 1024l420 -1008h105l420 1008h-97l-377 -899l-374 899h-97z" />
    <glyph glyph-name="w" unicode="w" horiz-adv-x="1548" 
d="M1511 1042l-368 -1042h-127l-242 809l-242 -809h-126l-369 1042h133l297 -837l250 837h114l250 -837l297 837h133zM774 870l254 -854h100l357 1008h-94l-312 -879l-260 879h-90l-260 -879l-311 879h-95l357 -1008h100z" />
    <glyph glyph-name="x" unicode="x" horiz-adv-x="968" 
d="M563 532l379 -532h-154l-303 426l-301 -426h-153l379 532l-361 510h154l282 -401l285 401h154zM485 457l312 -441h110l-366 516l348 492h-109l-295 -414l-292 414h-109l348 -492l-366 -516h108z" />
    <glyph glyph-name="y" unicode="y" horiz-adv-x="1028" 
d="M995 1042l-585 -1433h-136l189 461l-430 972h135l4 -6l356 -807l332 813h135zM483 70l-182 -443h98l570 1397h-97l-344 -840l-370 840h-97z" />
    <glyph glyph-name="z" unicode="z" horiz-adv-x="935" 
d="M838 125v-125h-758v119v2l577 794h-561v127h725v-120l-2 -2l-577 -795h596zM96 113v-97h725v90h-614l596 822v96h-688v-90h577z" />
    <glyph glyph-name="braceleft" unicode="{" horiz-adv-x="827" 
d="M690 -70v-127h-8q-183 0 -269.5 80t-86.5 248v361q0 89 -36 126t-122 37h-10v121h10q86 0 122 37.5t36 126.5v360q0 168 86.5 248t269.5 80h8v-127h-8q-126 0 -177.5 -49t-51.5 -168v-344q0 -175 -131 -223q131 -51 131 -225v-342q0 -120 51.5 -170t177.5 -50h8zM176 758
v-84q88 -2 128 -45t40 -137v-361q0 -158 80 -232.5t250 -76.5v90q-127 1 -183.5 57t-56.5 181v342q0 91 -34 143t-107 72l-6 2v14l6 2q74 22 107.5 73t33.5 142v344q0 123 56.5 179t183.5 57v90q-170 -1 -250 -76.5t-80 -233.5v-360q0 -94 -40 -137t-128 -45z" />
    <glyph glyph-name="bar" unicode="|" horiz-adv-x="436" 
d="M281 1548v-1849h-125v1849h125zM172 1530v-1813h90v1813h-90z" />
    <glyph glyph-name="braceright" unicode="}" horiz-adv-x="829" 
d="M145 -197h-8v127h8q126 0 179 50t53 170v342q0 174 129 225q-129 48 -129 223v344q0 118 -53 167.5t-179 49.5h-8v127h8q183 0 270 -80.5t87 -247.5v-360q0 -89 37 -126.5t123 -37.5h8v-121h-8q-87 0 -123.5 -37t-36.5 -126v-361q0 -167 -87 -247.5t-270 -80.5zM156 -88
v-90q170 1 248.5 75.5t78.5 233.5v361q0 94 40 137t128 45v84q-88 2 -128 45t-40 137v360q0 159 -78.5 234t-248.5 76v-90q127 -1 182 -56.5t55 -179.5v-344q0 -90 34.5 -141.5t107.5 -73.5l6 -2v-12l-6 -4q-72 -20 -107 -72.5t-35 -142.5v-342q0 -125 -55 -181t-182 -57z
" />
    <glyph glyph-name="asciitilde" unicode="~" horiz-adv-x="1169" 
d="M260 477l-121 35q58 219 262 219q34 0 74 -10.5t62 -19t69 -29.5q114 -54 174 -54q52 0 82 28.5t49 96.5l121 -32q-59 -219 -252 -219q-87 0 -225 65q-108 49 -154 49q-59 -2 -90 -30t-51 -99zM162 524l86 -24q20 66 55.5 94.5t97.5 28.5q23 0 53.5 -9t47.5 -16t59 -25
q134 -63 219 -63q176 0 230 188l-86 23q-19 -63 -53.5 -92t-90.5 -29q-63 0 -182 55q-122 58 -197 58q-183 0 -239 -189z" />
    <glyph glyph-name="exclamdown" unicode="&#xa1;" horiz-adv-x="497" 
d="M250 881q-38 0 -65 27t-27 67q0 38 27 65t65 27q40 0 67 -27t27 -65q0 -40 -27 -67t-67 -27zM250 1049q-31 0 -53.5 -21.5t-22.5 -52.5q0 -32 22.5 -54t53.5 -22q32 0 54 22t22 54q0 31 -22 52.5t-54 21.5zM295 657l18 -1048h-125l17 1048h90zM223 639l-18 -1012h90
l-16 1012h-56z" />
    <glyph glyph-name="cent" unicode="&#xa2;" horiz-adv-x="1196" 
d="M682 170v-170h-109v174q-133 17 -241.5 93.5t-170 195t-61.5 254.5q0 206 135.5 360.5t337.5 179.5v177h109v-172q125 -9 234 -73.5t178 -170.5l6 -8l-111 -62l-4 8q-58 85 -149.5 133t-192.5 48q-172 0 -294 -123.5t-122 -296.5q0 -175 122 -298.5t294 -123.5
q102 0 193 48t149 134l4 6l111 -61l-6 -8q-69 -105 -178.5 -170t-233.5 -74zM592 190v-174h72v172h8q121 6 227 67t174 161l-78 43q-62 -85 -155 -132.5t-197 -47.5q-180 0 -307 128t-127 310t127 310t307 128q105 0 198 -48t154 -134l78 43q-67 101 -173 161t-228 66l-8 2
v170h-72v-172l-8 -2q-198 -22 -331.5 -172.5t-133.5 -351.5q0 -202 133.5 -353t331.5 -174h8z" />
    <glyph glyph-name="sterling" unicode="&#xa3;" horiz-adv-x="1155" 
d="M1055 125v-125h-957v121q31 22 52.5 39t58.5 56.5t60 80.5t41 104t18 134q0 35 -9 81h-221v109h195q-1 5 -4 16.5t-4 16.5q-54 180 -54 289q0 174 112.5 290.5t279.5 116.5q142 0 242.5 -81.5t125.5 -221.5l-123 -31q-13 98 -80 153.5t-165 55.5q-116 0 -190.5 -79.5
t-74.5 -202.5q0 -80 45 -240q20 -68 23 -82h448v-109h-425q4 -58 4 -81q0 -73 -20 -141.5t-52.5 -120t-62 -86.5t-60.5 -62h797zM117 113v-97h919v90h-809v17q31 25 61.5 58t66.5 85t58.5 122.5t22.5 146.5q0 24 -8 90l-2 10h430v72h-444l-2 8q-4 19 -23 88q-47 154 -47 244
q0 131 80 216t203 85q101 0 171 -55t89 -150l88 22q-26 124 -121 198.5t-227 74.5q-160 0 -266.5 -112t-106.5 -279q0 -101 51 -285q8 -28 16 -55h-200v-72h217l2 -8q10 -55 10 -92q0 -72 -18 -136.5t-41 -106t-60 -82t-58.5 -58t-51.5 -39.5z" />
    <glyph glyph-name="currency" unicode="&#xa4;" horiz-adv-x="1026" 
d="M932 375l-76 -76l-149 147q-85 -63 -193 -63q-107 0 -195 63l-147 -147l-76 76l148 147q-64 89 -64 195q0 103 64 192l-148 148l76 78l147 -148q86 62 195 62q110 0 193 -62l149 148l76 -78l-148 -148q62 -86 62 -192q0 -109 -62 -195zM702 465l7 4l147 -145l49 51
l-145 145l4 6q65 83 65 191q0 105 -65 188l-4 6l145 146l-49 51l-147 -145l-7 4q-81 63 -188 63q-109 0 -190 -63l-7 -4l-145 145l-51 -51l145 -146l-4 -6q-63 -85 -63 -188q0 -106 63 -191l4 -6l-145 -145l51 -51l145 145l7 -4q86 -64 190 -64q102 0 188 64zM514 492
q-94 0 -159.5 65.5t-65.5 159.5q0 93 66 159t159 66q92 0 158.5 -66.5t66.5 -158.5q0 -93 -66 -159t-159 -66zM514 924q-86 0 -146.5 -61t-60.5 -146q0 -86 60.5 -146.5t146.5 -60.5q85 0 146 60.5t61 146.5q0 85 -61 146t-146 61z" />
    <glyph glyph-name="yen" unicode="&#xa5;" horiz-adv-x="1361" 
d="M743 246v-246h-127v246h-352v108h352v152h-352v106h293l-504 822h146l481 -797l481 797h148l-506 -822h293v-106h-353v-152h353v-108h-353zM635 264v-248h90v248h352v72h-352v186h352v74h-307l506 819h-105l-491 -813l-490 813h-106l506 -819h-307v-74h352v-186h-352v-72
h352z" />
    <glyph glyph-name="brokenbar" unicode="&#xa6;" horiz-adv-x="438" 
d="M281 434v-735h-125v735h125zM174 416v-699h88v699h-88zM281 1548v-735h-125v735h125zM174 1530v-701h88v701h-88z" />
    <glyph glyph-name="section" unicode="&#xa7;" horiz-adv-x="1142" 
d="M530 -238q-76 0 -138.5 19.5t-100.5 47t-67.5 65.5t-42 65.5t-21.5 56.5l-2 9l121 32l2 -8q6 -21 16 -40t29.5 -42t45.5 -40t67 -28.5t91 -11.5q98 0 170 57t72 156q0 43 -17.5 75.5t-58 58t-83.5 43t-119 42.5q-43 14 -67.5 22.5t-67.5 26.5t-68.5 34t-58 42t-50.5 53.5
t-30.5 66t-12.5 81.5q0 173 180 283q-75 75 -75 192q0 79 32.5 144.5t85 107t117.5 64t133 22.5q76 0 138.5 -19.5t101 -47t68 -66t43 -68t22.5 -61.5l-121 -33q-55 168 -252 168q-98 0 -170.5 -56t-72.5 -155q0 -35 13.5 -63.5t34 -48.5t60 -40t76 -33.5t96.5 -33.5
q43 -14 67.5 -22.5t67.5 -26.5t68.5 -34t58 -42t50.5 -53.5t30.5 -66t12.5 -81.5q0 -171 -181 -282q76 -76 76 -193q0 -79 -32.5 -144.5t-85.5 -107t-118 -64t-133 -22.5zM266 35l-86 -23q9 -27 22.5 -53.5t41.5 -60t64.5 -58.5t94 -42t127.5 -17q88 0 166.5 35.5t131.5 110
t53 173.5q0 115 -80 189l-8 8l10 6q182 104 182 272q0 41 -11.5 76.5t-28.5 61.5t-47 50t-55 39.5t-65.5 32.5t-66.5 26t-68 22q-62 20 -100.5 35t-79 36t-62 43t-35.5 53t-14 70q0 108 77.5 169t182.5 61q63 0 112.5 -15.5t79 -42.5t46.5 -52t27 -54l86 22
q-9 27 -22.5 53.5t-42 60.5t-64.5 58.5t-94 42t-128 17.5q-88 0 -166 -35.5t-131 -110.5t-53 -174q0 -113 78 -188l10 -8l-10 -6q-182 -104 -182 -273q0 -41 11.5 -76t28.5 -61t47 -50.5t54.5 -39.5t65 -32t66 -25.5l67.5 -22.5q80 -27 124.5 -45.5t88 -46.5t62 -63
t18.5 -83q0 -73 -39 -126.5t-97 -78t-125 -24.5q-63 0 -112 15.5t-79 42.5t-46.5 52t-26.5 54zM743 338l-4 -2l-4 2q-77 45 -209 84q-57 19 -93 33t-75 34.5t-60.5 41t-35.5 50t-14 64.5q0 154 151 238l4 2l5 -2q63 -37 208 -86q71 -23 114.5 -41t85 -44t60.5 -59.5
t19 -77.5q0 -152 -152 -237zM403 864q-137 -79 -137 -219q0 -71 60.5 -114t205.5 -91q151 -51 207 -84q138 80 138 219q0 71 -61 114t-206 91q-151 51 -207 84z" />
    <glyph glyph-name="dieresis" unicode="&#xa8;" horiz-adv-x="864" 
d="M248 1237q-37 0 -63.5 26.5t-26.5 63.5q0 38 26.5 65t63.5 27q38 0 65 -27t27 -65q0 -37 -27 -63.5t-65 -26.5zM248 1403q-31 0 -52.5 -22.5t-21.5 -53.5q0 -30 22 -52t52 -22t52 22t22 52q0 31 -21.5 53.5t-52.5 22.5zM614 1237q-38 0 -65 26.5t-27 63.5q0 38 27 65
t65 27q37 0 64 -27t27 -65q0 -37 -27 -63.5t-64 -26.5zM614 1403q-30 0 -51.5 -22.5t-21.5 -53.5q0 -30 21.5 -52t51.5 -22t52 22t22 52q0 31 -21.5 53.5t-52.5 22.5z" />
    <glyph glyph-name="copyright" unicode="&#xa9;" horiz-adv-x="1671" 
d="M836 4q-145 0 -277 56.5t-227.5 152t-152 227.5t-56.5 277t56.5 277t152 227.5t227.5 152t277 56.5q193 0 357 -95.5t259.5 -260t95.5 -357.5t-95.5 -357.5t-259.5 -260t-357 -95.5zM836 1411q-141 0 -269.5 -55t-222 -148t-148.5 -221.5t-55 -269.5t55 -270
t148.5 -222.5t222 -149t269.5 -55.5t269.5 55.5t221.5 149t148 222.5t55 270q0 188 -93 348t-253 253t-348 93zM836 76q-130 0 -248.5 51t-204.5 136.5t-137 204.5t-51 249t51 248.5t137 204.5t204.5 137t248.5 51t249 -51t204.5 -137t136.5 -204.5t51 -248.5
q0 -174 -86 -321.5t-233.5 -233.5t-321.5 -86zM836 1339q-169 0 -312.5 -83.5t-227 -227t-83.5 -311.5q0 -169 83.5 -312.5t227 -227t312.5 -83.5t312.5 83.5t226.5 227t83 312.5q0 126 -49 241t-132.5 198.5t-198.5 133t-242 49.5zM838 330q-153 0 -261 113t-108 274
q0 160 108.5 273.5t260.5 113.5q87 0 164.5 -41t132.5 -117l-66 -45q-87 121 -231 121q-123 0 -205 -87t-82 -218q0 -132 82 -219.5t205 -87.5q142 0 231 120l66 -43q-115 -157 -297 -157zM838 1085q-145 0 -248 -108t-103 -260q0 -154 103 -262.5t248 -108.5
q80 0 150.5 35.5t121.5 101.5l-37 23q-91 -115 -235 -115q-131 0 -218.5 93.5t-87.5 232.5q0 138 87.5 230.5t218.5 92.5q147 0 235 -114l37 24q-51 65 -122 100t-150 35z" />
    <glyph glyph-name="guillemotleft" unicode="&#xab;" horiz-adv-x="1050" 
d="M268 516l248 -366h-151l-250 366l250 367h151zM137 516l238 -348h108l-237 348l237 348h-108zM690 516l248 -366h-152l-249 366l249 367h152zM559 516l238 -348h108l-237 348l237 348h-108z" />
    <glyph glyph-name="registered" unicode="&#xae;" horiz-adv-x="1671" 
d="M836 4q-145 0 -277 56.5t-227.5 152t-152 227.5t-56.5 277t56.5 277t152 227.5t227.5 152t277 56.5q193 0 357 -95.5t259.5 -260t95.5 -357.5t-95.5 -357.5t-259.5 -260t-357 -95.5zM836 1411q-141 0 -269.5 -55t-222 -148t-148.5 -221.5t-55 -269.5t55 -270
t148.5 -222.5t222 -149t269.5 -55.5t269.5 55.5t221.5 149t148 222.5t55 270q0 188 -93 348t-253 253t-348 93zM836 76q-174 0 -321.5 86t-233.5 233.5t-86 321.5q0 130 51 248.5t136.5 204.5t204.5 137t249 51t249 -51t204.5 -137t136.5 -204.5t51 -248.5
q0 -174 -86 -321.5t-233.5 -233.5t-321.5 -86zM836 1339q-169 0 -312.5 -83.5t-227 -227t-83.5 -311.5q0 -169 83.5 -312.5t227 -227t312.5 -83.5t312.5 83.5t226.5 227t83 312.5q0 126 -49 241t-132.5 198.5t-198.5 133t-242 49.5zM668 651v-305h-78v778h248
q131 0 209.5 -64t78.5 -171q0 -86 -51.5 -145.5t-142.5 -81.5l246 -316h-95l-237 305h-8h-170zM606 1106v-741h43v305h205l240 -305h47l-242 309l14 2q92 17 143.5 73.5t51.5 139.5q0 101 -72.5 159t-197.5 58h-232zM838 713h-189v352h189q106 0 166.5 -47t60.5 -129
q0 -83 -60.5 -129.5t-166.5 -46.5zM668 1047v-316h170q100 0 154.5 41.5t54.5 116.5t-54.5 116.5t-154.5 41.5h-170z" />
    <glyph glyph-name="macron" unicode="&#xaf;" horiz-adv-x="815" 
d="M657 1372v-106h-499v106h499zM176 1356v-72h463v72h-463z" />
    <glyph glyph-name="degree" unicode="&#xb0;" horiz-adv-x="794" 
d="M397 831q-124 0 -212.5 88.5t-88.5 213.5t88 213t213 88t213 -88t88 -213t-88.5 -213.5t-212.5 -88.5zM397 1415q-117 0 -199.5 -82.5t-82.5 -199.5t82.5 -200t199.5 -83t200 83t83 200t-83 199.5t-200 82.5zM397 922q-88 0 -149.5 61.5t-61.5 149.5t61.5 149t149.5 61
t149.5 -61t61.5 -149t-61.5 -149.5t-149.5 -61.5zM397 1325q-79 0 -135.5 -56.5t-56.5 -135.5q0 -80 56.5 -136.5t135.5 -56.5t136 57t57 136t-56.5 135.5t-136.5 56.5z" />
    <glyph glyph-name="plusminus" unicode="&#xb1;" horiz-adv-x="1130" 
d="M971 125v-125h-811v125h811zM178 106v-90h774v90h-774zM629 674v-342h-125v342h-344v127h344v342h125v-342h342v-127h-342zM520 692v-342h90v342h342v90h-342v342h-90v-342h-342v-90h342z" />
    <glyph glyph-name="acute" unicode="&#xb4;" horiz-adv-x="581" 
d="M432 1487l-194 -283h-88l133 283h149zM295 1470l-117 -247h49l172 247h-104z" />
    <glyph glyph-name="paragraph" unicode="&#xb6;" horiz-adv-x="1198" 
d="M909 1307v-1487h-127v1487h-235v-1487h-127v995q-151 3 -245.5 88.5t-94.5 220.5q0 137 97.5 223.5t252.5 86.5h649v-127h-170zM801 1325v-1487h90v1487h170v90h-631q-147 0 -239.5 -81.5t-92.5 -209.5q0 -129 92 -209.5t240 -80.5h8v-996h90v1487h273z" />
    <glyph glyph-name="cedilla" unicode="&#xb8;" horiz-adv-x="722" 
d="M328 -489q-91 0 -174 45l55 98q56 -26 108.5 -28.5t85.5 18.5q41 27 41 82q0 51 -36 73q-55 32 -142 -8l-53 68l76 157h96l-55 -116q100 20 170 -35q67 -50 67 -146q0 -113 -94 -172q-59 -36 -145 -36zM217 -369l-37 -69q72 -34 149 -34t134 34q86 55 86 157
q0 83 -60 131q-73 55 -174 29l-18 -6l59 127h-55l-68 -137l39 -49q85 39 144 2q47 -30 47 -90q0 -66 -51 -97q-36 -23 -88 -22t-107 24z" />
    <glyph glyph-name="guillemotright" unicode="&#xbb;" horiz-adv-x="1050" 
d="M938 516l-250 -366h-151l247 366l-247 367h151zM807 516l-238 -348h109l237 348l-237 348h-109zM516 516l-250 -366h-151l247 366l-247 367h151zM385 516l-238 -348h109l238 348l-238 348h-109z" />
    <glyph glyph-name="questiondown" unicode="&#xbf;" horiz-adv-x="894" 
d="M444 881q-40 0 -67 27t-27 67q0 38 27 65t67 27q38 0 65.5 -27t27.5 -65q0 -39 -27.5 -66.5t-65.5 -27.5zM444 1049q-32 0 -53.5 -21.5t-21.5 -52.5q0 -32 21.5 -54t53.5 -22q31 0 52.5 22t21.5 54q0 31 -21.5 52.5t-52.5 21.5zM449 -416q-161 0 -276.5 112.5
t-115.5 270.5q0 56 12 103t40.5 92t47.5 69t60 70q40 44 61 70t48 70t40 94t15 112v10h125v-10q-2 -63 -15.5 -120.5t-29.5 -96.5t-46 -83.5t-49 -67t-55 -62.5q-35 -39 -51.5 -59.5t-37.5 -53t-29.5 -65.5t-8.5 -72q0 -106 78 -182t187 -76q54 0 99.5 18t73 42.5t49.5 57
t31 55t15 42.5l2 8l123 -30q-41 -147 -147.5 -232.5t-245.5 -85.5zM487 639h-90q-3 -62 -16.5 -113t-40 -95t-48.5 -71.5t-61 -70.5q-50 -54 -77.5 -89.5t-52.5 -99t-25 -133.5q0 -151 109 -258.5t264 -107.5q129 0 229.5 78t140.5 210l-88 21q-8 -23 -18.5 -46t-34 -56
t-52.5 -57.5t-75.5 -42t-101.5 -17.5q-117 0 -200 81t-83 195q0 54 19.5 103t42 78t69.5 81q42 46 66.5 77t56 83t48 114t19.5 136z" />
    <glyph glyph-name="Agrave" unicode="&#xc0;" horiz-adv-x="1308" 
d="M719 1434l534 -1434h-135l-147 397h-631l-150 -397h-133l535 1434h127zM983 414l147 -398h97l-520 1399h-103l-522 -1399h96l150 398h655zM655 1294l295 -790h-590zM655 1243l-268 -721h537zM557 1896l133 -282h-86l-196 282h149zM442 1880l170 -248h50l-115 248h-105z
" />
    <glyph glyph-name="Aacute" unicode="&#xc1;" horiz-adv-x="1308" 
d="M719 1434l534 -1434h-135l-147 397h-631l-150 -397h-133l535 1434h127zM983 414l147 -398h97l-520 1399h-103l-522 -1399h96l150 398h655zM655 1294l295 -790h-590zM655 1243l-268 -721h537zM897 1896l-195 -282h-88l134 282h149zM760 1880l-117 -248h49l172 248h-104z
" />
    <glyph glyph-name="Acircumflex" unicode="&#xc2;" horiz-adv-x="1308" 
d="M719 1434l534 -1434h-135l-147 397h-631l-150 -397h-133l535 1434h127zM983 414l147 -398h97l-520 1399h-103l-522 -1399h96l150 398h655zM655 1294l295 -790h-590zM655 1243l-268 -721h537zM702 1896l222 -282h-113l-158 201l-157 -201h-115l221 282h100zM653 1845
l166 -213h68l-193 248h-82l-194 -248h69z" />
    <glyph glyph-name="Atilde" unicode="&#xc3;" horiz-adv-x="1308" 
d="M719 1434l534 -1434h-135l-147 397h-631l-150 -397h-133l535 1434h127zM983 414l147 -398h97l-520 1399h-103l-522 -1399h96l150 398h655zM655 1294l295 -790h-590zM655 1243l-268 -721h537zM473 1597l-106 15q12 90 54.5 136t110.5 46q52 0 140 -45q72 -35 98 -35
q58 0 66 86l108 -16q-13 -88 -56.5 -133t-111.5 -45q-51 0 -139 45q-72 35 -100 35q-25 0 -41.5 -19t-22.5 -70zM387 1628l72 -10q13 86 78 86q28 0 108 -37q80 -43 131 -43q121 0 146 143l-70 13q-18 -84 -82 -84q-26 0 -106 37q-92 43 -132 43q-58 0 -95.5 -38.5
t-49.5 -109.5z" />
    <glyph glyph-name="Adieresis" unicode="&#xc4;" horiz-adv-x="1308" 
d="M719 1434l534 -1434h-135l-147 397h-631l-150 -397h-133l535 1434h127zM983 414l147 -398h97l-520 1399h-103l-522 -1399h96l150 398h655zM655 1294l295 -790h-590zM655 1243l-268 -721h537zM469 1647q-37 0 -63.5 26.5t-26.5 63.5q0 38 26.5 65t63.5 27q38 0 65 -27
t27 -65q0 -37 -27 -63.5t-65 -26.5zM469 1812q-31 0 -52.5 -22t-21.5 -53q0 -30 22 -52t52 -22t52 22t22 52q0 31 -21.5 53t-52.5 22zM836 1647q-38 0 -65.5 26.5t-27.5 63.5q0 38 27.5 65t65.5 27q37 0 63.5 -27t26.5 -65q0 -37 -26.5 -63.5t-63.5 -26.5zM836 1812
q-31 0 -52.5 -22t-21.5 -53q0 -30 22 -52t52 -22t51.5 22t21.5 52q0 31 -21 53t-52 22z" />
    <glyph glyph-name="Aring" unicode="&#xc5;" horiz-adv-x="1308" 
d="M719 1434l534 -1434h-135l-147 397h-631l-150 -397h-133l535 1434h127zM983 414l147 -398h97l-520 1399h-103l-522 -1399h96l150 398h655zM655 1294l295 -790h-590zM655 1243l-268 -721h537zM653 1532q-92 0 -157.5 65.5t-65.5 157.5t65.5 157.5t157.5 65.5
q94 0 160 -65.5t66 -157.5t-66 -157.5t-160 -65.5zM653 1962q-85 0 -144.5 -60.5t-59.5 -146.5q0 -85 59.5 -145t144.5 -60q86 0 146.5 60t60.5 145q0 86 -60.5 146.5t-146.5 60.5zM653 1622q-55 0 -94 39t-39 94t39 94t94 39q56 0 95.5 -39t39.5 -94t-39.5 -94t-95.5 -39z
M653 1872q-47 0 -80.5 -34.5t-33.5 -82.5q0 -47 33.5 -81t80.5 -34q49 0 83 33.5t34 81.5t-34 82.5t-83 34.5z" />
    <glyph glyph-name="AE" unicode="&#xc6;" horiz-adv-x="1916" 
d="M1815 125v-125h-799v397h-623l-198 -397h-136l717 1434h1020v-127h-655v-502h608v-127h-608v-553h674zM1032 414v-398h764v90h-674v590h611v90h-611v539h656v90h-992l-698 -1399h96l197 398h651zM1032 1325v-821h-606l412 821h194zM848 1307l-391 -785h559v785h-168z" />
    <glyph glyph-name="Ccedilla" unicode="&#xc7;" horiz-adv-x="1460" 
d="M778 -492q-86 0 -166 41l-8 5l55 100l9 -4q52 -24 102 -25.5t84 19.5q41 24 41 80q0 49 -37 75q-61 35 -141 -10l-53 70l59 123q-267 37 -445 246.5t-178 488.5q0 205 95.5 375t261.5 268t366 98q166 0 313 -70.5t250 -199.5l7 -8l-107 -70q-87 107 -208 164t-255 57
q-164 0 -301.5 -81t-217 -222.5t-79.5 -310.5q0 -170 79.5 -312t216.5 -223.5t302 -81.5q134 0 254 56t205 159l4 7l107 -70l-7 -8q-103 -128 -250.5 -199.5t-312.5 -71.5h-8l-35 -73q100 20 170 -35q68 -55 68 -146q0 -112 -94 -174q-61 -37 -146 -37zM668 -369l-37 -69
q72 -35 148.5 -35t133.5 35q86 55 86 157q0 84 -59 131q-74 55 -174 27l-18 -4l57 119h18q159 0 301 67t242 189l-76 51q-88 -104 -209 -160.5t-258 -56.5q-169 0 -310.5 84t-222.5 230t-81 321q0 174 81 319.5t222.5 229.5t310.5 84q136 0 257.5 -56t209.5 -159l76 49
q-100 123 -241.5 189.5t-301.5 66.5q-195 0 -356.5 -95.5t-254.5 -261.5t-93 -366q0 -135 47.5 -260.5t129.5 -221t196.5 -158.5t244.5 -79l13 -2l-66 -135l39 -49q87 40 143 2q47 -27 47 -90q0 -61 -51 -97q-35 -22 -88 -21t-106 25z" />
    <glyph glyph-name="Egrave" unicode="&#xc8;" horiz-adv-x="1056" 
d="M961 125v-125h-801v1434h780v-127h-653v-502h608v-127h-608v-553h674zM178 1415v-1399h764v90h-674v590h609v90h-609v539h656v90h-746zM502 1896l133 -282h-86l-197 282h150zM387 1880l170 -248h49l-114 248h-105z" />
    <glyph glyph-name="Eacute" unicode="&#xc9;" horiz-adv-x="1056" 
d="M961 125v-125h-801v1434h780v-127h-653v-502h608v-127h-608v-553h674zM178 1415v-1399h764v90h-674v590h609v90h-609v539h656v90h-746zM782 1896l-194 -282h-88l133 282h149zM645 1880l-117 -248h50l172 248h-105z" />
    <glyph glyph-name="Ecircumflex" unicode="&#xca;" horiz-adv-x="1056" 
d="M961 125v-125h-801v1434h780v-127h-653v-502h608v-127h-608v-553h674zM178 1415v-1399h764v90h-674v590h609v90h-609v539h656v90h-746zM608 1896l221 -282h-112l-158 201l-158 -201h-114l221 282h100zM559 1845l166 -213h68l-193 248h-82l-194 -248h69z" />
    <glyph glyph-name="Edieresis" unicode="&#xcb;" horiz-adv-x="1056" 
d="M961 125v-125h-801v1434h780v-127h-653v-502h608v-127h-608v-553h674zM178 1415v-1399h764v90h-674v590h609v90h-609v539h656v90h-746zM375 1647q-37 0 -63.5 26.5t-26.5 63.5q0 38 26.5 65t63.5 27q38 0 65 -27t27 -65q0 -37 -27 -63.5t-65 -26.5zM375 1812
q-31 0 -52.5 -22t-21.5 -53q0 -30 22 -52t52 -22t52 22t22 52q0 31 -21.5 53t-52.5 22zM741 1647q-38 0 -65 26.5t-27 63.5q0 38 27 65t65 27q37 0 63.5 -27t26.5 -65q0 -37 -26.5 -63.5t-63.5 -26.5zM741 1812q-31 0 -52 -22t-21 -53q0 -30 21.5 -52t51.5 -22t52 22t22 52
q0 31 -21.5 53t-52.5 22z" />
    <glyph glyph-name="Igrave" unicode="&#xcc;" horiz-adv-x="438" 
d="M283 1434v-1434h-125v1434h125zM176 1415v-1399h90v1399h-90zM143 1896l133 -282h-86l-196 282h149zM29 1880l170 -248h49l-115 248h-104z" />
    <glyph glyph-name="Iacute" unicode="&#xcd;" horiz-adv-x="438" 
d="M283 1434v-1434h-125v1434h125zM176 1415v-1399h90v1399h-90zM463 1896l-195 -282h-88l133 282h150zM326 1880l-117 -248h49l172 248h-104z" />
    <glyph glyph-name="Icircumflex" unicode="&#xce;" horiz-adv-x="438" 
d="M283 1434v-1434h-125v1434h125zM176 1415v-1399h90v1399h-90zM268 1896l221 -282h-112l-158 201l-158 -201h-114l221 282h100zM219 1845l166 -213h68l-193 248h-82l-194 -248h69z" />
    <glyph glyph-name="Idieresis" unicode="&#xcf;" horiz-adv-x="438" 
d="M283 1434v-1434h-125v1434h125zM176 1415v-1399h90v1399h-90zM35 1647q-37 0 -63.5 26.5t-26.5 63.5q0 38 26.5 65t63.5 27q38 0 65 -27t27 -65q0 -37 -27 -63.5t-65 -26.5zM35 1812q-31 0 -52.5 -22t-21.5 -53q0 -30 22 -52t52 -22t52 22t22 52q0 31 -21.5 53t-52.5 22z
M401 1647q-38 0 -65 26.5t-27 63.5q0 38 27 65t65 27q37 0 64 -27t27 -65q0 -37 -27 -63.5t-64 -26.5zM401 1812q-31 0 -52 -22t-21 -53q0 -30 21.5 -52t51.5 -22t52 22t22 52q0 31 -21.5 53t-52.5 22z" />
    <glyph glyph-name="Eth" unicode="&#xd0;" horiz-adv-x="1499" 
d="M690 0h-432v662h-197v108h197v664h432q202 0 364 -92.5t252.5 -256.5t90.5 -368q0 -205 -90.5 -369t-252.5 -256t-364 -92zM276 680v-664h414q148 0 275.5 53t218.5 145t142.5 222.5t51.5 280.5q0 149 -52 278.5t-142.5 222t-218.5 145t-275 52.5h-414v-663h-196v-72h196
zM690 106h-323v574h450v72h-450v573h323q172 0 309 -78t214 -217t77 -313q0 -175 -77 -314.5t-214 -218t-309 -78.5zM385 662v-537h305q253 0 417.5 167.5t164.5 424.5t-164.5 423.5t-417.5 166.5h-305v-537h451v-108h-451z" />
    <glyph glyph-name="Ntilde" unicode="&#xd1;" horiz-adv-x="1417" 
d="M1255 1434v-1434h-120l-2 4l-844 1206v-1210h-127v1434h123l2 -4l843 -1209v1213h125zM270 1268l875 -1252h94v1399h-90v-1251l-875 1251h-94v-1399h90v1252zM528 1597l-106 15q12 90 55 136t111 46q51 0 139 -45q72 -35 98 -35q58 0 66 86l108 -16q-13 -88 -56.5 -133
t-111.5 -45q-51 0 -139 45q-72 35 -100 35q-25 0 -41.5 -19t-22.5 -70zM442 1628l72 -10q13 86 78 86q28 0 108 -37q80 -43 131 -43q121 0 146 143l-70 13q-18 -84 -82 -84q-26 0 -106 37q-92 43 -131 43q-58 0 -96 -38.5t-50 -109.5z" />
    <glyph glyph-name="Ograve" unicode="&#xd2;" horiz-adv-x="1652" 
d="M827 -27q-150 0 -285 58t-231 157.5t-152.5 237t-56.5 291.5q0 205 95.5 375t262 268t367.5 98q200 0 366 -98t261.5 -268t95.5 -375q0 -153 -56.5 -291t-152.5 -237.5t-230 -157.5t-284 -58zM827 1440q-195 0 -357.5 -95.5t-255.5 -261.5t-93 -366q0 -150 55 -284.5
t149 -231t225 -153t277 -56.5t276.5 56.5t224.5 152.5t149 231t55 285t-55 284t-149 230t-224.5 152.5t-276.5 56.5zM827 82q-170 0 -312 84t-223 230t-81 321q0 174 81 319.5t223 229.5t312 84q169 0 310.5 -84t223 -229.5t81.5 -319.5q0 -175 -81.5 -321t-223 -230
t-310.5 -84zM827 1331q-165 0 -302.5 -81t-216.5 -222.5t-79 -310.5q0 -170 79 -312t216.5 -223.5t302.5 -81.5t302 81.5t216.5 223.5t79.5 312q0 169 -79.5 310.5t-217 222.5t-301.5 81zM750 1896l133 -282h-86l-197 282h150zM635 1880l170 -248h49l-115 248h-104z" />
    <glyph glyph-name="Oacute" unicode="&#xd3;" horiz-adv-x="1652" 
d="M827 -27q-150 0 -285 58t-231 157.5t-152.5 237t-56.5 291.5q0 205 95.5 375t262 268t367.5 98q200 0 366 -98t261.5 -268t95.5 -375q0 -153 -56.5 -291t-152.5 -237.5t-230 -157.5t-284 -58zM827 1440q-195 0 -357.5 -95.5t-255.5 -261.5t-93 -366q0 -150 55 -284.5
t149 -231t225 -153t277 -56.5t276.5 56.5t224.5 152.5t149 231t55 285t-55 284t-149 230t-224.5 152.5t-276.5 56.5zM827 82q-170 0 -312 84t-223 230t-81 321q0 174 81 319.5t223 229.5t312 84q169 0 310.5 -84t223 -229.5t81.5 -319.5q0 -175 -81.5 -321t-223 -230
t-310.5 -84zM827 1331q-165 0 -302.5 -81t-216.5 -222.5t-79 -310.5q0 -170 79 -312t216.5 -223.5t302.5 -81.5t302 81.5t216.5 223.5t79.5 312q0 169 -79.5 310.5t-217 222.5t-301.5 81zM1049 1896l-195 -282h-88l133 282h150zM911 1880l-116 -248h49l172 248h-105z" />
    <glyph glyph-name="Ocircumflex" unicode="&#xd4;" horiz-adv-x="1652" 
d="M827 -27q-150 0 -285 58t-231 157.5t-152.5 237t-56.5 291.5q0 205 95.5 375t262 268t367.5 98q200 0 366 -98t261.5 -268t95.5 -375q0 -153 -56.5 -291t-152.5 -237.5t-230 -157.5t-284 -58zM827 1440q-195 0 -357.5 -95.5t-255.5 -261.5t-93 -366q0 -150 55 -284.5
t149 -231t225 -153t277 -56.5t276.5 56.5t224.5 152.5t149 231t55 285t-55 284t-149 230t-224.5 152.5t-276.5 56.5zM827 82q-170 0 -312 84t-223 230t-81 321q0 174 81 319.5t223 229.5t312 84q169 0 310.5 -84t223 -229.5t81.5 -319.5q0 -175 -81.5 -321t-223 -230
t-310.5 -84zM827 1331q-165 0 -302.5 -81t-216.5 -222.5t-79 -310.5q0 -170 79 -312t216.5 -223.5t302.5 -81.5t302 81.5t216.5 223.5t79.5 312q0 169 -79.5 310.5t-217 222.5t-301.5 81zM874 1896l222 -282h-113l-158 201l-157 -201h-115l221 282h100zM825 1845l166 -213
h68l-193 248h-82l-194 -248h69z" />
    <glyph glyph-name="Otilde" unicode="&#xd5;" horiz-adv-x="1652" 
d="M827 -27q-150 0 -285 58t-231 157.5t-152.5 237t-56.5 291.5q0 205 95.5 375t262 268t367.5 98q200 0 366 -98t261.5 -268t95.5 -375q0 -153 -56.5 -291t-152.5 -237.5t-230 -157.5t-284 -58zM827 1440q-195 0 -357.5 -95.5t-255.5 -261.5t-93 -366q0 -150 55 -284.5
t149 -231t225 -153t277 -56.5t276.5 56.5t224.5 152.5t149 231t55 285t-55 284t-149 230t-224.5 152.5t-276.5 56.5zM827 82q-170 0 -312 84t-223 230t-81 321q0 174 81 319.5t223 229.5t312 84q169 0 310.5 -84t223 -229.5t81.5 -319.5q0 -175 -81.5 -321t-223 -230
t-310.5 -84zM827 1331q-165 0 -302.5 -81t-216.5 -222.5t-79 -310.5q0 -170 79 -312t216.5 -223.5t302.5 -81.5t302 81.5t216.5 223.5t79.5 312q0 169 -79.5 310.5t-217 222.5t-301.5 81zM645 1597l-106 15q12 90 55 136t111 46q51 0 139 -45q72 -35 98 -35q58 0 66 86
l108 -16q-13 -88 -56.5 -133t-111.5 -45q-51 0 -139 45q-72 35 -100 35q-25 0 -41.5 -19t-22.5 -70zM559 1628l72 -10q13 86 78 86q28 0 108 -37q80 -43 131 -43q121 0 146 143l-70 13q-18 -84 -82 -84q-26 0 -106 37q-92 43 -131 43q-58 0 -96 -38.5t-50 -109.5z" />
    <glyph glyph-name="Odieresis" unicode="&#xd6;" horiz-adv-x="1652" 
d="M827 -27q-150 0 -285 58t-231 157.5t-152.5 237t-56.5 291.5q0 205 95.5 375t262 268t367.5 98q200 0 366 -98t261.5 -268t95.5 -375q0 -153 -56.5 -291t-152.5 -237.5t-230 -157.5t-284 -58zM827 1440q-195 0 -357.5 -95.5t-255.5 -261.5t-93 -366q0 -150 55 -284.5
t149 -231t225 -153t277 -56.5t276.5 56.5t224.5 152.5t149 231t55 285t-55 284t-149 230t-224.5 152.5t-276.5 56.5zM827 82q-170 0 -312 84t-223 230t-81 321q0 174 81 319.5t223 229.5t312 84q169 0 310.5 -84t223 -229.5t81.5 -319.5q0 -175 -81.5 -321t-223 -230
t-310.5 -84zM827 1331q-165 0 -302.5 -81t-216.5 -222.5t-79 -310.5q0 -170 79 -312t216.5 -223.5t302.5 -81.5t302 81.5t216.5 223.5t79.5 312q0 169 -79.5 310.5t-217 222.5t-301.5 81zM641 1647q-37 0 -63.5 26.5t-26.5 63.5q0 38 26.5 65t63.5 27q38 0 65 -27t27 -65
q0 -37 -27 -63.5t-65 -26.5zM641 1812q-31 0 -52.5 -22t-21.5 -53q0 -30 22 -52t52 -22t52 22t22 52q0 31 -21.5 53t-52.5 22zM1008 1647q-38 0 -65.5 26.5t-27.5 63.5q0 38 27.5 65t65.5 27q37 0 63.5 -27t26.5 -65q0 -37 -26.5 -63.5t-63.5 -26.5zM1008 1812
q-31 0 -52.5 -22t-21.5 -53q0 -30 22 -52t52 -22t51.5 22t21.5 52q0 31 -21 53t-52 22z" />
    <glyph glyph-name="multiply" unicode="&#xd7;" horiz-adv-x="931" 
d="M797 369l-90 -88l-242 241l-242 -241l-88 88l242 241l-242 242l88 90l242 -242l242 242l90 -90l-242 -242zM401 610l-241 -241l63 -64l242 242l242 -242l65 64l-244 241l244 242l-65 63l-242 -241l-242 241l-63 -63z" />
    <glyph glyph-name="Oslash" unicode="&#xd8;" horiz-adv-x="1652" 
d="M829 -27q-145 0 -275 54t-230 155l-129 -116l-72 79l129 119q-148 199 -148 453q0 205 95.5 375t262 268t367.5 98q143 0 274 -53.5t232 -153.5l127 117l74 -80l-131 -119q147 -201 147 -452q0 -153 -56.5 -291t-152.5 -237.5t-230 -157.5t-284 -58zM197 90l127 117l6 -6
q98 -101 227 -155t272 -54q146 0 276.5 56.5t224.5 152.5t149 231t55 285q0 249 -148 448l-6 6l129 117l-47 53l-129 -116l-6 6q-98 101 -227.5 155t-270.5 54q-195 0 -357.5 -95.5t-255.5 -261.5t-93 -366q0 -256 149 -449l4 -6l-129 -119zM829 82q-123 0 -234.5 46
t-197.5 132l-6 8l924 842l6 -8q123 -171 123 -385q0 -175 -81.5 -321t-223 -230t-310.5 -84zM1311 1083l-895 -817q174 -166 413 -166q165 0 302 81.5t216.5 223.5t79.5 312q0 204 -116 366zM1268 1165l-924 -843l-6 8q-125 169 -125 387q0 174 81 319.5t223 229.5t312 84
q123 0 234.5 -46.5t196.5 -132.5zM829 1331q-165 0 -302.5 -81t-216.5 -222.5t-79 -310.5q0 -209 115 -369l895 817q-169 166 -412 166z" />
    <glyph glyph-name="Ugrave" unicode="&#xd9;" horiz-adv-x="1343" 
d="M672 -27q-232 0 -371 154t-139 410v897h125v-897q0 -205 102.5 -321t282.5 -116q181 0 283 115.5t102 321.5v897h125v-897q0 -257 -138.5 -410.5t-371.5 -153.5zM270 1415h-90v-878q0 -249 134 -397t358 -148t358.5 148t134.5 397v878h-90v-878q0 -211 -108.5 -333
t-294.5 -122t-294 122t-108 333v878zM614 1896l134 -282h-86l-197 282h149zM500 1880l170 -248h49l-115 248h-104z" />
    <glyph glyph-name="Uacute" unicode="&#xda;" horiz-adv-x="1343" 
d="M672 -27q-232 0 -371 154t-139 410v897h125v-897q0 -205 102.5 -321t282.5 -116q181 0 283 115.5t102 321.5v897h125v-897q0 -257 -138.5 -410.5t-371.5 -153.5zM270 1415h-90v-878q0 -249 134 -397t358 -148t358.5 148t134.5 397v878h-90v-878q0 -211 -108.5 -333
t-294.5 -122t-294 122t-108 333v878zM905 1896l-194 -282h-88l133 282h149zM768 1880l-117 -248h49l172 248h-104z" />
    <glyph glyph-name="Ucircumflex" unicode="&#xdb;" horiz-adv-x="1343" 
d="M672 -27q-232 0 -371 154t-139 410v897h125v-897q0 -205 102.5 -321t282.5 -116q181 0 283 115.5t102 321.5v897h125v-897q0 -257 -138.5 -410.5t-371.5 -153.5zM270 1415h-90v-878q0 -249 134 -397t358 -148t358.5 148t134.5 397v878h-90v-878q0 -211 -108.5 -333
t-294.5 -122t-294 122t-108 333v878zM721 1896l221 -282h-113l-157 201l-158 -201h-115l222 282h100zM672 1845l166 -213h67l-192 248h-82l-195 -248h70z" />
    <glyph glyph-name="Udieresis" unicode="&#xdc;" horiz-adv-x="1343" 
d="M672 -27q-232 0 -371 154t-139 410v897h125v-897q0 -205 102.5 -321t282.5 -116q181 0 283 115.5t102 321.5v897h125v-897q0 -257 -138.5 -410.5t-371.5 -153.5zM270 1415h-90v-878q0 -249 134 -397t358 -148t358.5 148t134.5 397v878h-90v-878q0 -211 -108.5 -333
t-294.5 -122t-294 122t-108 333v878zM487 1647q-37 0 -63.5 26.5t-26.5 63.5q0 38 26.5 65t63.5 27q38 0 65.5 -27t27.5 -65q0 -37 -27.5 -63.5t-65.5 -26.5zM487 1812q-31 0 -52 -22t-21 -53q0 -30 21.5 -52t51.5 -22t52 22t22 52q0 31 -21.5 53t-52.5 22zM854 1647
q-38 0 -65 26.5t-27 63.5q0 38 27 65t65 27q37 0 63.5 -27t26.5 -65q0 -37 -26.5 -63.5t-63.5 -26.5zM854 1812q-31 0 -52.5 -22t-21.5 -53q0 -30 22 -52t52 -22t52 22t22 52q0 31 -21.5 53t-52.5 22z" />
    <glyph glyph-name="Yacute" unicode="&#xdd;" horiz-adv-x="1361" 
d="M745 516v-516h-127v516l-565 918h148l481 -797l479 797h148zM637 520v-504h90v504l549 895h-105l-489 -813l-492 813h-104zM924 1896l-195 -282h-88l133 282h150zM786 1880l-116 -248h49l172 248h-105z" />
    <glyph glyph-name="Thorn" unicode="&#xde;" horiz-adv-x="1165" 
d="M287 268v-268h-127v1434h127v-271h305q229 0 362 -120t133 -326q0 -207 -133 -328t-362 -121h-305zM178 1415v-1399h90v271h324q221 0 349 115.5t128 314.5q0 198 -128 313t-349 115h-324v270h-90zM592 377h-324v678h324q183 0 285 -89.5t102 -248.5q0 -163 -101 -251.5
t-286 -88.5zM287 1038v-643h305q177 0 273 84t96 238q0 153 -96 237t-273 84h-305z" />
    <glyph glyph-name="germandbls" unicode="&#xdf;" horiz-adv-x="1140" 
d="M633 -8q-48 0 -103 8v127l11 -2q190 -28 305 70q90 78 90 211q0 69 -26 120.5t-64 80t-91 46t-96.5 22.5t-91.5 5h-37v119h23q126 0 197 70t71 194q0 98 -72.5 174t-195.5 76q-90 0 -155 -44t-93.5 -107.5t-28.5 -135.5v-1026h-126v1026q0 78 26.5 151.5t75.5 132.5
t127.5 94.5t173.5 35.5q89 0 164.5 -33t124.5 -86.5t76.5 -120.5t27.5 -137q0 -97 -42 -175.5t-120 -129.5q135 -41 207 -132t72 -220q0 -195 -135 -314q-118 -100 -295 -100zM549 106v-90q108 -15 203 8t163 82q129 111 129 300q0 77 -25.5 138.5t-69.5 101t-89.5 63
t-99.5 39.5l-21 6l19 10q82 46 127 124t45 175q0 90 -44 170.5t-132 134t-201 53.5q-91 0 -166 -34t-121.5 -90t-72 -126t-25.5 -145v-1010h90v1010q0 123 79 214t216 91q89 0 156 -40.5t99 -100.5t32 -127q0 -132 -76 -207.5t-211 -75.5h-4v-82h18q35 0 70 -3.5t82 -13
t86 -30.5t74 -51.5t55 -80.5t20 -113q0 -140 -98 -226q-116 -98 -307 -74z" />
    <glyph glyph-name="agrave" unicode="&#xe0;" horiz-adv-x="1067" 
d="M442 -27q-158 0 -261 89.5t-103 226.5q0 214 231 284q62 19 150 28t137.5 10t159.5 1h37v60q0 35 -5 67t-22 70.5t-43.5 66.5t-75 47t-112.5 19q-62 0 -119.5 -18.5t-91 -39t-80.5 -55.5l-103 78q90 75 181 117.5t213 42.5q177 0 280 -106t103 -289v-672h-125v139
q-131 -166 -351 -166zM741 596q-294 0 -426 -39q-219 -67 -219 -268q0 -129 97.5 -213t248.5 -84q128 0 214.5 52.5t136.5 127.5l16 25v-181h90v656q0 175 -97.5 276t-266.5 101q-114 0 -200.5 -38.5t-164.5 -103.5l74 -55q65 49 132.5 77.5t158.5 28.5q71 0 123.5 -22
t80.5 -53t44.5 -73.5t21 -74t4.5 -63.5v-76h-68zM442 82q-100 0 -176 54t-76 153q0 77 50 127q33 33 84 53t122.5 27.5t124 9t138.5 0.5h100v-191q-11 -36 -37 -73.5t-69 -75t-111 -61t-150 -23.5zM645 487q-145 0 -242.5 -16.5t-150.5 -67.5q-45 -45 -45 -114
q0 -90 70.5 -139.5t164.5 -49.5q77 0 142 22t106 57.5t66 70t37 69.5v168h-148zM481 1487l133 -283h-86l-196 283h149zM367 1470l170 -247h49l-115 247h-104z" />
    <glyph glyph-name="aacute" unicode="&#xe1;" horiz-adv-x="1067" 
d="M442 -27q-158 0 -261 89.5t-103 226.5q0 214 231 284q62 19 150 28t137.5 10t159.5 1h37v60q0 35 -5 67t-22 70.5t-43.5 66.5t-75 47t-112.5 19q-62 0 -119.5 -18.5t-91 -39t-80.5 -55.5l-103 78q90 75 181 117.5t213 42.5q177 0 280 -106t103 -289v-672h-125v139
q-131 -166 -351 -166zM741 596q-294 0 -426 -39q-219 -67 -219 -268q0 -129 97.5 -213t248.5 -84q128 0 214.5 52.5t136.5 127.5l16 25v-181h90v656q0 175 -97.5 276t-266.5 101q-114 0 -200.5 -38.5t-164.5 -103.5l74 -55q65 49 132.5 77.5t158.5 28.5q71 0 123.5 -22
t80.5 -53t44.5 -73.5t21 -74t4.5 -63.5v-76h-68zM442 82q-100 0 -176 54t-76 153q0 77 50 127q33 33 84 53t122.5 27.5t124 9t138.5 0.5h100v-191q-11 -36 -37 -73.5t-69 -75t-111 -61t-150 -23.5zM645 487q-145 0 -242.5 -16.5t-150.5 -67.5q-45 -45 -45 -114
q0 -90 70.5 -139.5t164.5 -49.5q77 0 142 22t106 57.5t66 70t37 69.5v168h-148zM741 1487l-194 -283h-88l133 283h149zM604 1470l-117 -247h50l172 247h-105z" />
    <glyph glyph-name="acircumflex" unicode="&#xe2;" horiz-adv-x="1067" 
d="M442 -27q-158 0 -261 89.5t-103 226.5q0 214 231 284q62 19 150 28t137.5 10t159.5 1h37v60q0 35 -5 67t-22 70.5t-43.5 66.5t-75 47t-112.5 19q-62 0 -119.5 -18.5t-91 -39t-80.5 -55.5l-103 78q90 75 181 117.5t213 42.5q177 0 280 -106t103 -289v-672h-125v139
q-131 -166 -351 -166zM741 596q-294 0 -426 -39q-219 -67 -219 -268q0 -129 97.5 -213t248.5 -84q128 0 214.5 52.5t136.5 127.5l16 25v-181h90v656q0 175 -97.5 276t-266.5 101q-114 0 -200.5 -38.5t-164.5 -103.5l74 -55q65 49 132.5 77.5t158.5 28.5q71 0 123.5 -22
t80.5 -53t44.5 -73.5t21 -74t4.5 -63.5v-76h-68zM442 82q-100 0 -176 54t-76 153q0 77 50 127q33 33 84 53t122.5 27.5t124 9t138.5 0.5h100v-191q-11 -36 -37 -73.5t-69 -75t-111 -61t-150 -23.5zM645 487q-145 0 -242.5 -16.5t-150.5 -67.5q-45 -45 -45 -114
q0 -90 70.5 -139.5t164.5 -49.5q77 0 142 22t106 57.5t66 70t37 69.5v168h-148zM586 1487l221 -283h-113l-157 201l-158 -201h-115l221 283h101zM537 1436l165 -213h68l-192 247h-82l-195 -247h70z" />
    <glyph glyph-name="atilde" unicode="&#xe3;" horiz-adv-x="1067" 
d="M442 -27q-158 0 -261 89.5t-103 226.5q0 214 231 284q62 19 150 28t137.5 10t159.5 1h37v60q0 35 -5 67t-22 70.5t-43.5 66.5t-75 47t-112.5 19q-62 0 -119.5 -18.5t-91 -39t-80.5 -55.5l-103 78q90 75 181 117.5t213 42.5q177 0 280 -106t103 -289v-672h-125v139
q-131 -166 -351 -166zM741 596q-294 0 -426 -39q-219 -67 -219 -268q0 -129 97.5 -213t248.5 -84q128 0 214.5 52.5t136.5 127.5l16 25v-181h90v656q0 175 -97.5 276t-266.5 101q-114 0 -200.5 -38.5t-164.5 -103.5l74 -55q65 49 132.5 77.5t158.5 28.5q71 0 123.5 -22
t80.5 -53t44.5 -73.5t21 -74t4.5 -63.5v-76h-68zM442 82q-100 0 -176 54t-76 153q0 77 50 127q33 33 84 53t122.5 27.5t124 9t138.5 0.5h100v-191q-11 -36 -37 -73.5t-69 -75t-111 -61t-150 -23.5zM645 487q-145 0 -242.5 -16.5t-150.5 -67.5q-45 -45 -45 -114
q0 -90 70.5 -139.5t164.5 -49.5q77 0 142 22t106 57.5t66 70t37 69.5v168h-148zM356 1188l-106 14q12 90 55 136t111 46q51 0 139 -45q70 -34 98 -34q58 0 66 86l108 -17q-13 -88 -56.5 -133t-111.5 -45q-51 0 -139 45q-72 35 -100 35q-25 0 -42 -18.5t-22 -69.5zM270 1219
l72 -11q13 86 78 86q28 0 108 -37q80 -43 131 -43q67 0 101 41.5t45 102.5l-70 12q-18 -84 -82 -84q-26 0 -106 37q-92 43 -131 43q-58 0 -96 -38t-50 -109z" />
    <glyph glyph-name="adieresis" unicode="&#xe4;" horiz-adv-x="1067" 
d="M442 -27q-158 0 -261 89.5t-103 226.5q0 214 231 284q62 19 150 28t137.5 10t159.5 1h37v60q0 35 -5 67t-22 70.5t-43.5 66.5t-75 47t-112.5 19q-62 0 -119.5 -18.5t-91 -39t-80.5 -55.5l-103 78q90 75 181 117.5t213 42.5q177 0 280 -106t103 -289v-672h-125v139
q-131 -166 -351 -166zM741 596q-294 0 -426 -39q-219 -67 -219 -268q0 -129 97.5 -213t248.5 -84q128 0 214.5 52.5t136.5 127.5l16 25v-181h90v656q0 175 -97.5 276t-266.5 101q-114 0 -200.5 -38.5t-164.5 -103.5l74 -55q65 49 132.5 77.5t158.5 28.5q71 0 123.5 -22
t80.5 -53t44.5 -73.5t21 -74t4.5 -63.5v-76h-68zM442 82q-100 0 -176 54t-76 153q0 77 50 127q33 33 84 53t122.5 27.5t124 9t138.5 0.5h100v-191q-11 -36 -37 -73.5t-69 -75t-111 -61t-150 -23.5zM645 487q-145 0 -242.5 -16.5t-150.5 -67.5q-45 -45 -45 -114
q0 -90 70.5 -139.5t164.5 -49.5q77 0 142 22t106 57.5t66 70t37 69.5v168h-148zM354 1237q-37 0 -63.5 26.5t-26.5 63.5q0 38 26.5 65t63.5 27q38 0 65 -27t27 -65q0 -37 -27 -63.5t-65 -26.5zM354 1403q-30 0 -51.5 -22.5t-21.5 -53.5q0 -30 21.5 -52t51.5 -22t52 22t22 52
q0 31 -21.5 53.5t-52.5 22.5zM721 1237q-38 0 -65 26.5t-27 63.5q0 38 27 65t65 27q37 0 63.5 -27t26.5 -65q0 -37 -26.5 -63.5t-63.5 -26.5zM721 1403q-31 0 -52.5 -22.5t-21.5 -53.5q0 -30 22 -52t52 -22t52 22t22 52q0 31 -21.5 53.5t-52.5 22.5z" />
    <glyph glyph-name="aring" unicode="&#xe5;" horiz-adv-x="1067" 
d="M442 -27q-158 0 -261 89.5t-103 226.5q0 214 231 284q62 19 150 28t137.5 10t159.5 1h37v60q0 35 -5 67t-22 70.5t-43.5 66.5t-75 47t-112.5 19q-62 0 -119.5 -18.5t-91 -39t-80.5 -55.5l-103 78q90 75 181 117.5t213 42.5q177 0 280 -106t103 -289v-672h-125v139
q-131 -166 -351 -166zM741 596q-294 0 -426 -39q-219 -67 -219 -268q0 -129 97.5 -213t248.5 -84q128 0 214.5 52.5t136.5 127.5l16 25v-181h90v656q0 175 -97.5 276t-266.5 101q-114 0 -200.5 -38.5t-164.5 -103.5l74 -55q65 49 132.5 77.5t158.5 28.5q71 0 123.5 -22
t80.5 -53t44.5 -73.5t21 -74t4.5 -63.5v-76h-68zM442 82q-100 0 -176 54t-76 153q0 77 50 127q33 33 84 53t122.5 27.5t124 9t138.5 0.5h100v-191q-11 -36 -37 -73.5t-69 -75t-111 -61t-150 -23.5zM645 487q-145 0 -242.5 -16.5t-150.5 -67.5q-45 -45 -45 -114
q0 -90 70.5 -139.5t164.5 -49.5q77 0 142 22t106 57.5t66 70t37 69.5v168h-148zM539 1143q-92 0 -158 65.5t-66 157.5t66 157.5t158 65.5q94 0 159.5 -65.5t65.5 -157.5t-65.5 -157.5t-159.5 -65.5zM539 1573q-85 0 -145 -60.5t-60 -146.5q0 -85 60 -145t145 -60
q86 0 146 60t60 145q0 86 -60 146.5t-146 60.5zM539 1233q-55 0 -94 38.5t-39 94.5t39 94.5t94 38.5q56 0 95.5 -39t39.5 -94t-39.5 -94t-95.5 -39zM539 1483q-47 0 -81 -35t-34 -82t34 -81t81 -34q49 0 82.5 33.5t33.5 81.5t-33.5 82.5t-82.5 34.5z" />
    <glyph glyph-name="ae" unicode="&#xe6;" horiz-adv-x="1869" 
d="M1323 -27q-137 0 -253.5 65.5t-188.5 182.5q-14 -27 -34 -54.5t-58 -64t-83 -64t-112 -46.5t-143 -19q-164 0 -265.5 82t-101.5 215q0 121 74 195q43 43 106.5 69.5t151.5 36.5t150.5 12t168.5 1h64v88q0 52 -15 98t-46 85.5t-86.5 63t-129.5 23.5q-62 0 -119.5 -18.5
t-91 -39t-80.5 -55.5l-102 78q89 75 180.5 117.5t212.5 42.5q131 0 228 -58.5t141 -164.5q71 106 177.5 164.5t231.5 58.5q203 0 338 -141q164 -175 146 -469h-854q20 -156 130.5 -256.5t262.5 -100.5q94 0 168 36.5t141 115.5l107 -68q-167 -211 -416 -211zM872 244l9 14
l8 -14q67 -118 182 -185t252 -67q235 0 389 188l-76 47q-128 -145 -313 -145q-161 0 -278 108.5t-136 274.5v10h858q6 133 -31 246.5t-112 191.5q-130 136 -324 136q-126 0 -231.5 -60.5t-171.5 -169.5l-10 -16l-6 18q-38 107 -134 167.5t-225 60.5q-114 0 -200 -38.5
t-164 -103.5l73 -55q65 49 132.5 77.5t158.5 28.5q78 0 137 -25.5t92.5 -68t49.5 -91t16 -101.5v-105h-82q-87 0 -131 -0.5t-122.5 -6.5t-125.5 -17t-99.5 -34t-86.5 -56q-68 -68 -68 -183q0 -125 96 -201.5t253 -76.5q76 0 143 19.5t110.5 47t80.5 64.5t55 65t32 56z
M451 82q-120 0 -187 49.5t-67 138.5q0 79 49 125q31 31 82.5 50t109.5 24.5t125.5 7.5t128.5 0l125 -2v-145q-9 -37 -32.5 -76t-65.5 -79.5t-112 -66.5t-156 -26zM604 461q-125 0 -212.5 -16t-133.5 -62q-43 -43 -43 -113q0 -45 20 -78t46.5 -50t63 -27.5t60 -12.5t46.5 -2
q82 0 148.5 24.5t106.5 62.5t62.5 75t30.5 72v125q-166 2 -195 2zM1675 565h-766v10q19 169 127.5 276t263.5 107q152 0 254 -106.5t121 -286.5zM928 584h727q-19 161 -116.5 259.5t-238.5 98.5q-146 0 -249 -99.5t-123 -258.5z" />
    <glyph glyph-name="ccedilla" unicode="&#xe7;" horiz-adv-x="1134" 
d="M557 -492q-86 0 -166 41l-8 5l55 100l8 -4q50 -24 101 -25.5t84 19.5q43 24 43 80q0 50 -39 75q-23 16 -62 14t-77 -24l-54 70l62 129q-186 40 -306 190t-120 342q0 148 73 274t198 199.5t272 73.5q138 0 258.5 -66t197.5 -188l-110 -59q-59 90 -151 139t-195 49
q-172 0 -294 -123.5t-122 -298.5q0 -173 122 -296.5t294 -123.5q101 0 192.5 48t149.5 133l4 6l110 -60q-79 -122 -198.5 -188t-257.5 -66h-29l-35 -73q102 19 172 -35q68 -55 68 -146q0 -112 -97 -174q-61 -37 -143 -37zM446 -369l-38 -69q74 -35 149.5 -35t134.5 35
q86 55 86 157q0 85 -61 131q-73 57 -193 23l60 121q16 -2 37 -2q129 0 243.5 61t188.5 168l-80 43q-61 -86 -154 -134t-198 -48q-180 0 -307.5 128.5t-127.5 309.5t127.5 309.5t307.5 128.5q104 0 197 -47.5t155 -132.5l80 43q-73 107 -188 167.5t-244 60.5
q-142 0 -263 -70.5t-191.5 -192.5t-70.5 -266q0 -189 119.5 -335t302.5 -183l12 -2l-67 -139l37 -49q88 40 145 2q45 -26 45 -90q0 -63 -49 -97q-36 -22 -89 -21t-106 25z" />
    <glyph glyph-name="egrave" unicode="&#xe8;" horiz-adv-x="1171" 
d="M616 -27q-111 0 -210.5 43t-171 116t-113 174t-41.5 214t40 214.5t108.5 174.5t163.5 115.5t202 42.5q212 0 350 -147q78 -84 116.5 -201.5t31.5 -251.5v-8h-881q22 -157 136 -258t269 -101q197 0 328 152l107 -68q-167 -211 -435 -211zM594 1049q-137 0 -251 -70
t-179.5 -191.5t-65.5 -267.5q0 -145 68.5 -266.5t187.5 -191.5t262 -70q252 0 408 188l-76 47q-130 -145 -332 -145q-164 0 -285 108.5t-141 274.5v10h883q6 130 -31 242t-112 190q-133 142 -336 142zM981 565h-791v10q20 167 134.5 275t269.5 108q154 0 262 -107.5
t125 -285.5zM211 584h752q-22 161 -123 259.5t-246 98.5q-147 0 -255 -101t-128 -257zM528 1487l134 -283h-87l-196 283h149zM414 1470l170 -247h49l-115 247h-104z" />
    <glyph glyph-name="eacute" unicode="&#xe9;" horiz-adv-x="1171" 
d="M616 -27q-111 0 -210.5 43t-171 116t-113 174t-41.5 214t40 214.5t108.5 174.5t163.5 115.5t202 42.5q212 0 350 -147q78 -84 116.5 -201.5t31.5 -251.5v-8h-881q22 -157 136 -258t269 -101q197 0 328 152l107 -68q-167 -211 -435 -211zM594 1049q-137 0 -251 -70
t-179.5 -191.5t-65.5 -267.5q0 -145 68.5 -266.5t187.5 -191.5t262 -70q252 0 408 188l-76 47q-130 -145 -332 -145q-164 0 -285 108.5t-141 274.5v10h883q6 130 -31 242t-112 190q-133 142 -336 142zM981 565h-791v10q20 167 134.5 275t269.5 108q154 0 262 -107.5
t125 -285.5zM211 584h752q-22 161 -123 259.5t-246 98.5q-147 0 -255 -101t-128 -257zM809 1487l-195 -283h-88l133 283h150zM672 1470l-117 -247h49l172 247h-104z" />
    <glyph glyph-name="ecircumflex" unicode="&#xea;" horiz-adv-x="1171" 
d="M616 -27q-111 0 -210.5 43t-171 116t-113 174t-41.5 214t40 214.5t108.5 174.5t163.5 115.5t202 42.5q212 0 350 -147q78 -84 116.5 -201.5t31.5 -251.5v-8h-881q22 -157 136 -258t269 -101q197 0 328 152l107 -68q-167 -211 -435 -211zM594 1049q-137 0 -251 -70
t-179.5 -191.5t-65.5 -267.5q0 -145 68.5 -266.5t187.5 -191.5t262 -70q252 0 408 188l-76 47q-130 -145 -332 -145q-164 0 -285 108.5t-141 274.5v10h883q6 130 -31 242t-112 190q-133 142 -336 142zM981 565h-791v10q20 167 134.5 275t269.5 108q154 0 262 -107.5
t125 -285.5zM211 584h752q-22 161 -123 259.5t-246 98.5q-147 0 -255 -101t-128 -257zM633 1487l221 -283h-113l-157 201l-158 -201h-115l221 283h101zM584 1436l166 -213h67l-192 247h-82l-195 -247h70z" />
    <glyph glyph-name="edieresis" unicode="&#xeb;" horiz-adv-x="1171" 
d="M616 -27q-111 0 -210.5 43t-171 116t-113 174t-41.5 214t40 214.5t108.5 174.5t163.5 115.5t202 42.5q212 0 350 -147q78 -84 116.5 -201.5t31.5 -251.5v-8h-881q22 -157 136 -258t269 -101q197 0 328 152l107 -68q-167 -211 -435 -211zM594 1049q-137 0 -251 -70
t-179.5 -191.5t-65.5 -267.5q0 -145 68.5 -266.5t187.5 -191.5t262 -70q252 0 408 188l-76 47q-130 -145 -332 -145q-164 0 -285 108.5t-141 274.5v10h883q6 130 -31 242t-112 190q-133 142 -336 142zM981 565h-791v10q20 167 134.5 275t269.5 108q154 0 262 -107.5
t125 -285.5zM211 584h752q-22 161 -123 259.5t-246 98.5q-147 0 -255 -101t-128 -257zM401 1237q-37 0 -63.5 26.5t-26.5 63.5q0 38 26.5 65t63.5 27q38 0 65.5 -27t27.5 -65q0 -37 -27.5 -63.5t-65.5 -26.5zM401 1403q-30 0 -51.5 -22.5t-21.5 -53.5q0 -30 21.5 -52
t51.5 -22t52 22t22 52q0 31 -21.5 53.5t-52.5 22.5zM768 1237q-38 0 -65 26.5t-27 63.5q0 38 27 65t65 27q37 0 63.5 -27t26.5 -65q0 -37 -26.5 -63.5t-63.5 -26.5zM768 1403q-31 0 -52.5 -22.5t-21.5 -53.5q0 -30 22 -52t52 -22t52 22t22 52q0 31 -21.5 53.5t-52.5 22.5z
" />
    <glyph glyph-name="igrave" unicode="&#xec;" horiz-adv-x="417" 
d="M272 1042v-1042h-127v1042h127zM164 1024v-1008h90v1008h-90zM113 1487l133 -283h-86l-197 283h150zM-2 1470l170 -247h49l-115 247h-104z" />
    <glyph glyph-name="iacute" unicode="&#xed;" horiz-adv-x="417" 
d="M272 1042v-1042h-127v1042h127zM164 1024v-1008h90v1008h-90zM453 1487l-195 -283h-88l133 283h150zM315 1470l-116 -247h49l172 247h-105z" />
    <glyph glyph-name="icircumflex" unicode="&#xee;" horiz-adv-x="417" 
d="M272 1042v-1042h-127v1042h127zM164 1024v-1008h90v1008h-90zM258 1487l221 -283h-112l-158 201l-158 -201h-114l221 283h100zM209 1436l166 -213h67l-192 247h-82l-195 -247h70z" />
    <glyph glyph-name="idieresis" unicode="&#xef;" horiz-adv-x="417" 
d="M272 1042v-1042h-127v1042h127zM164 1024v-1008h90v1008h-90zM25 1237q-37 0 -64 26.5t-27 63.5q0 38 27 65t64 27q38 0 65 -27t27 -65q0 -37 -27 -63.5t-65 -26.5zM25 1403q-31 0 -52.5 -22.5t-21.5 -53.5q0 -30 22 -52t52 -22t51.5 22t21.5 52q0 31 -21.5 53.5
t-51.5 22.5zM391 1237q-38 0 -65 26.5t-27 63.5q0 38 27 65t65 27q37 0 63.5 -27t26.5 -65q0 -37 -26.5 -63.5t-63.5 -26.5zM391 1403q-31 0 -52.5 -22.5t-21.5 -53.5q0 -30 22 -52t52 -22t52 22t22 52q0 31 -21.5 53.5t-52.5 22.5z" />
    <glyph glyph-name="eth" unicode="&#xf0;" horiz-adv-x="1167" 
d="M580 -27q-138 0 -253 66t-181 181t-66 253q0 137 66 251.5t181 180.5t253 66q184 0 311 -121q-90 187 -252 340l-283 -139l-47 98l240 117q-109 87 -232 139l-16 6l115 78l4 -2q127 -65 248 -162l217 105l47 -97l-178 -86q65 -64 119 -136t105 -166.5t80 -212t29 -243.5
q0 -220 -144.5 -368t-362.5 -148zM580 952q-133 0 -244.5 -63.5t-175.5 -173.5t-64 -242q0 -202 140.5 -341.5t343.5 -139.5q138 0 251 65t176.5 178.5t63.5 253.5q0 425 -338 754l-10 8l186 90l-32 66l-211 -104l-4 4q-111 92 -246 161l-76 -53q116 -52 244 -151l-252 -123
l33 -66l276 135q193 -178 287 -397l-19 -8q-129 147 -329 147zM580 82q-166 0 -280 113.5t-114 277.5t114 276.5t280 112.5q163 0 279 -114t116 -275t-116 -276t-279 -115zM580 844q-158 0 -266.5 -107t-108.5 -264t108.5 -265t266.5 -108q157 0 266.5 109t109.5 264
q0 154 -109.5 262.5t-266.5 108.5z" />
    <glyph glyph-name="ntilde" unicode="&#xf1;" horiz-adv-x="1175" 
d="M1026 614v-614h-127v614q0 16 -1.5 35t-8 53t-18 64t-34 63.5t-52 57.5t-76.5 39.5t-105 15.5q-69 0 -126 -22t-94 -56.5t-62.5 -79t-36.5 -87.5t-11 -83v-614h-124v1042h124v-139q121 164 330 164q104 0 187 -40t133 -105.5t76 -144.5t26 -163zM918 614v-598h90v598
q0 81 -25 156.5t-73 139t-127.5 101.5t-178.5 38q-217 0 -330 -181l-18 -26v182h-90v-1008h90v598q0 42 11.5 87t38.5 91.5t66 83t99.5 59.5t132.5 23q67 0 121 -20.5t89.5 -54.5t59.5 -79t34 -92.5t10 -97.5zM408 1188l-107 14q12 90 55 136t111 46q51 0 139 -45
q70 -34 99 -34q57 0 65 86l109 -17q-13 -88 -56.5 -133t-111.5 -45q-52 0 -140 45q-72 35 -100 35q-25 0 -41 -18.5t-22 -69.5zM322 1219l71 -11q13 86 78 86q29 0 109 -37q80 -43 131 -43q120 0 145 144l-70 12q-9 -43 -28.5 -63.5t-52.5 -20.5q-27 0 -107 37
q-92 43 -131 43q-58 0 -95.5 -38t-49.5 -109z" />
    <glyph glyph-name="ograve" unicode="&#xf2;" horiz-adv-x="1241" 
d="M621 -27q-147 0 -272 73.5t-198 199.5t-73 274t73 274t198 199.5t272 73.5t271.5 -73.5t196.5 -199.5t72 -274t-72 -274t-196.5 -199.5t-271.5 -73.5zM621 1049q-142 0 -263 -70.5t-191.5 -192.5t-70.5 -266q0 -143 70.5 -264.5t191.5 -192.5t263 -71t262.5 71t190 192.5
t69.5 264.5q0 108 -41 206t-111 168.5t-167 112.5t-203 42zM621 82q-180 0 -307.5 128.5t-127.5 309.5t127.5 309.5t307.5 128.5t306 -128t126 -310t-126 -310t-306 -128zM621 942q-172 0 -294 -123.5t-122 -298.5q0 -173 122 -296.5t294 -123.5t293.5 123.5t121.5 296.5
q0 175 -121.5 298.5t-293.5 123.5zM543 1487l133 -283h-86l-197 283h150zM428 1470l170 -247h49l-115 247h-104z" />
    <glyph glyph-name="oacute" unicode="&#xf3;" horiz-adv-x="1241" 
d="M621 -27q-147 0 -272 73.5t-198 199.5t-73 274t73 274t198 199.5t272 73.5t271.5 -73.5t196.5 -199.5t72 -274t-72 -274t-196.5 -199.5t-271.5 -73.5zM621 1049q-142 0 -263 -70.5t-191.5 -192.5t-70.5 -266q0 -143 70.5 -264.5t191.5 -192.5t263 -71t262.5 71t190 192.5
t69.5 264.5q0 108 -41 206t-111 168.5t-167 112.5t-203 42zM621 82q-180 0 -307.5 128.5t-127.5 309.5t127.5 309.5t307.5 128.5t306 -128t126 -310t-126 -310t-306 -128zM621 942q-172 0 -294 -123.5t-122 -298.5q0 -173 122 -296.5t294 -123.5t293.5 123.5t121.5 296.5
q0 175 -121.5 298.5t-293.5 123.5zM844 1487l-195 -283h-88l133 283h150zM707 1470l-117 -247h49l172 247h-104z" />
    <glyph glyph-name="ocircumflex" unicode="&#xf4;" horiz-adv-x="1241" 
d="M621 -27q-147 0 -272 73.5t-198 199.5t-73 274t73 274t198 199.5t272 73.5t271.5 -73.5t196.5 -199.5t72 -274t-72 -274t-196.5 -199.5t-271.5 -73.5zM621 1049q-142 0 -263 -70.5t-191.5 -192.5t-70.5 -266q0 -143 70.5 -264.5t191.5 -192.5t263 -71t262.5 71t190 192.5
t69.5 264.5q0 108 -41 206t-111 168.5t-167 112.5t-203 42zM621 82q-180 0 -307.5 128.5t-127.5 309.5t127.5 309.5t307.5 128.5t306 -128t126 -310t-126 -310t-306 -128zM621 942q-172 0 -294 -123.5t-122 -298.5q0 -173 122 -296.5t294 -123.5t293.5 123.5t121.5 296.5
q0 175 -121.5 298.5t-293.5 123.5zM670 1487l221 -283h-113l-157 201l-158 -201h-115l221 283h101zM621 1436l165 -213h68l-192 247h-82l-195 -247h70z" />
    <glyph glyph-name="otilde" unicode="&#xf5;" horiz-adv-x="1241" 
d="M621 -27q-147 0 -272 73.5t-198 199.5t-73 274t73 274t198 199.5t272 73.5t271.5 -73.5t196.5 -199.5t72 -274t-72 -274t-196.5 -199.5t-271.5 -73.5zM621 1049q-142 0 -263 -70.5t-191.5 -192.5t-70.5 -266q0 -143 70.5 -264.5t191.5 -192.5t263 -71t262.5 71t190 192.5
t69.5 264.5q0 108 -41 206t-111 168.5t-167 112.5t-203 42zM621 82q-180 0 -307.5 128.5t-127.5 309.5t127.5 309.5t307.5 128.5t306 -128t126 -310t-126 -310t-306 -128zM621 942q-172 0 -294 -123.5t-122 -298.5q0 -173 122 -296.5t294 -123.5t293.5 123.5t121.5 296.5
q0 175 -121.5 298.5t-293.5 123.5zM438 1188l-106 14q12 90 55 136t111 46q51 0 139 -45q70 -34 98 -34q58 0 66 86l108 -17q-13 -88 -56.5 -133t-111.5 -45q-51 0 -139 45q-72 35 -100 35q-25 0 -42 -18.5t-22 -69.5zM352 1219l72 -11q13 86 78 86q28 0 108 -37
q80 -43 131 -43q67 0 101 41.5t45 102.5l-70 12q-18 -84 -82 -84q-26 0 -106 37q-92 43 -131 43q-58 0 -96 -38t-50 -109z" />
    <glyph glyph-name="odieresis" unicode="&#xf6;" horiz-adv-x="1241" 
d="M621 -27q-147 0 -272 73.5t-198 199.5t-73 274t73 274t198 199.5t272 73.5t271.5 -73.5t196.5 -199.5t72 -274t-72 -274t-196.5 -199.5t-271.5 -73.5zM621 1049q-142 0 -263 -70.5t-191.5 -192.5t-70.5 -266q0 -143 70.5 -264.5t191.5 -192.5t263 -71t262.5 71t190 192.5
t69.5 264.5q0 108 -41 206t-111 168.5t-167 112.5t-203 42zM621 82q-180 0 -307.5 128.5t-127.5 309.5t127.5 309.5t307.5 128.5t306 -128t126 -310t-126 -310t-306 -128zM621 942q-172 0 -294 -123.5t-122 -298.5q0 -173 122 -296.5t294 -123.5t293.5 123.5t121.5 296.5
q0 175 -121.5 298.5t-293.5 123.5zM436 1237q-37 0 -63.5 26.5t-26.5 63.5q0 38 26.5 65t63.5 27q38 0 65 -27t27 -65q0 -37 -27 -63.5t-65 -26.5zM436 1403q-31 0 -52.5 -22.5t-21.5 -53.5q0 -30 22 -52t52 -22t52 22t22 52q0 31 -21.5 53.5t-52.5 22.5zM803 1237
q-38 0 -65 26.5t-27 63.5q0 38 27 65t65 27q37 0 63.5 -27t26.5 -65q0 -37 -26.5 -63.5t-63.5 -26.5zM803 1403q-31 0 -52.5 -22.5t-21.5 -53.5q0 -30 22 -52t52 -22t52 22t22 52q0 31 -21.5 53.5t-52.5 22.5z" />
    <glyph glyph-name="divide" unicode="&#xf7;" horiz-adv-x="1130" 
d="M565 899q-38 0 -65 27t-27 65q0 40 27 67t65 27q40 0 67 -27t27 -67q0 -38 -27 -65t-67 -27zM565 1067q-31 0 -52 -22t-21 -54q0 -31 21 -52t52 -21q32 0 54 21t22 52q0 32 -22 54t-54 22zM565 135q-38 0 -65 28t-27 66q0 39 27 67t65 28q39 0 66.5 -28t27.5 -67
t-27.5 -66.5t-66.5 -27.5zM565 305q-30 0 -51.5 -22.5t-21.5 -53.5t21 -53t52 -22q32 0 54 22t22 53t-22 53.5t-54 22.5zM971 674v-127h-809v127h809zM178 655v-90h776v90h-776z" />
    <glyph glyph-name="oslash" unicode="&#xf8;" horiz-adv-x="1241" 
d="M623 -27q-207 0 -365 142l-106 -95l-72 80l106 97q-106 142 -106 323q0 148 73 274t198 199.5t272 73.5q212 0 362 -141l107 96l71 -80l-104 -96q104 -144 104 -326q0 -148 -72.5 -274t-197 -199.5t-270.5 -73.5zM154 45l104 94l6 -4q72 -69 165 -106t194 -37
q142 0 262.5 71t190 192.5t69.5 264.5q0 178 -107 322l-4 6l105 96l-49 51l-105 -94l-6 6q-148 142 -356 142q-142 0 -263 -70.5t-191.5 -192.5t-70.5 -266q0 -178 107 -319l6 -6l-107 -97zM623 82q-165 0 -291 113l-8 6l643 585l6 -8q82 -118 82 -258q0 -181 -126.5 -309.5
t-305.5 -128.5zM965 760l-613 -559q113 -101 271 -101q172 0 293.5 123.5t121.5 296.5q0 131 -73 240zM920 840l-644 -586l-6 8q-82 118 -82 258q0 181 127.5 309.5t307.5 128.5q166 0 288 -110zM623 942q-172 0 -294 -123.5t-122 -298.5q0 -130 72 -237l614 557
q-117 102 -270 102z" />
    <glyph glyph-name="ugrave" unicode="&#xf9;" 
d="M571 -27q-104 0 -186.5 40t-132 106t-75 145t-25.5 164v614h124v-614q0 -17 1.5 -36t8 -53t18 -64t34 -63t52 -57t76.5 -39.5t105 -15.5q86 0 153 33t103.5 84t55 105.5t18.5 105.5v614h127v-1042h-127v139q-57 -80 -142.5 -123t-187.5 -43zM260 1024h-90v-596
q0 -82 24.5 -157.5t72 -139t126.5 -101.5t178 -38q221 0 332 182l17 27v-185h90v1008h-90v-596q0 -42 -11.5 -87t-38.5 -92t-66 -83.5t-99.5 -60t-133.5 -23.5q-82 0 -144.5 31t-97.5 82.5t-52 110.5t-17 122v596zM532 1487l134 -283h-86l-197 283h149zM418 1470l170 -247
h49l-115 247h-104z" />
    <glyph glyph-name="uacute" unicode="&#xfa;" 
d="M571 -27q-104 0 -186.5 40t-132 106t-75 145t-25.5 164v614h124v-614q0 -17 1.5 -36t8 -53t18 -64t34 -63t52 -57t76.5 -39.5t105 -15.5q86 0 153 33t103.5 84t55 105.5t18.5 105.5v614h127v-1042h-127v139q-57 -80 -142.5 -123t-187.5 -43zM260 1024h-90v-596
q0 -82 24.5 -157.5t72 -139t126.5 -101.5t178 -38q221 0 332 182l17 27v-185h90v1008h-90v-596q0 -42 -11.5 -87t-38.5 -92t-66 -83.5t-99.5 -60t-133.5 -23.5q-82 0 -144.5 31t-97.5 82.5t-52 110.5t-17 122v596zM831 1487l-194 -283h-88l133 283h149zM694 1470l-116 -247
h49l172 247h-105z" />
    <glyph glyph-name="ucircumflex" unicode="&#xfb;" 
d="M571 -27q-104 0 -186.5 40t-132 106t-75 145t-25.5 164v614h124v-614q0 -17 1.5 -36t8 -53t18 -64t34 -63t52 -57t76.5 -39.5t105 -15.5q86 0 153 33t103.5 84t55 105.5t18.5 105.5v614h127v-1042h-127v139q-57 -80 -142.5 -123t-187.5 -43zM260 1024h-90v-596
q0 -82 24.5 -157.5t72 -139t126.5 -101.5t178 -38q221 0 332 182l17 27v-185h90v1008h-90v-596q0 -42 -11.5 -87t-38.5 -92t-66 -83.5t-99.5 -60t-133.5 -23.5q-82 0 -144.5 31t-97.5 82.5t-52 110.5t-17 122v596zM637 1487l221 -283h-113l-157 201l-158 -201h-115l222 283
h100zM588 1436l166 -213h67l-192 247h-82l-195 -247h70z" />
    <glyph glyph-name="udieresis" unicode="&#xfc;" 
d="M571 -27q-104 0 -186.5 40t-132 106t-75 145t-25.5 164v614h124v-614q0 -17 1.5 -36t8 -53t18 -64t34 -63t52 -57t76.5 -39.5t105 -15.5q86 0 153 33t103.5 84t55 105.5t18.5 105.5v614h127v-1042h-127v139q-57 -80 -142.5 -123t-187.5 -43zM260 1024h-90v-596
q0 -82 24.5 -157.5t72 -139t126.5 -101.5t178 -38q221 0 332 182l17 27v-185h90v1008h-90v-596q0 -42 -11.5 -87t-38.5 -92t-66 -83.5t-99.5 -60t-133.5 -23.5q-82 0 -144.5 31t-97.5 82.5t-52 110.5t-17 122v596zM403 1237q-37 0 -63.5 26.5t-26.5 63.5q0 38 26.5 65
t63.5 27q38 0 65.5 -27t27.5 -65q0 -37 -27.5 -63.5t-65.5 -26.5zM403 1403q-30 0 -51.5 -22.5t-21.5 -53.5q0 -30 21.5 -52t51.5 -22t52 22t22 52q0 31 -21.5 53.5t-52.5 22.5zM770 1237q-38 0 -65 26.5t-27 63.5q0 38 27 65t65 27q37 0 63.5 -27t26.5 -65
q0 -37 -26.5 -63.5t-63.5 -26.5zM770 1403q-31 0 -52.5 -22.5t-21.5 -53.5q0 -30 22 -52t52 -22t52 22t22 52q0 31 -21.5 53.5t-52.5 22.5z" />
    <glyph glyph-name="yacute" unicode="&#xfd;" horiz-adv-x="1028" 
d="M995 1042l-585 -1433h-136l189 461l-430 972h135l4 -6l356 -807l332 813h135zM483 70l-182 -443h98l570 1397h-97l-344 -840l-370 840h-97zM758 1487l-195 -283h-88l133 283h150zM621 1470l-117 -247h49l172 247h-104z" />
    <glyph glyph-name="thorn" unicode="&#xfe;" horiz-adv-x="1271" 
d="M276 172v-563h-124v1825h124v-566q69 95 172.5 147t223.5 52q144 0 263.5 -72t188 -198t68.5 -277q0 -150 -68.5 -276t-188 -198.5t-263.5 -72.5q-120 0 -223.5 52t-172.5 147zM170 1415v-1788h90v604l16 -24q66 -103 169.5 -159t226.5 -56q139 0 255 70t182.5 191.5
t66.5 266.5q0 146 -66.5 267.5t-182.5 191.5t-255 70q-123 0 -226.5 -56t-169.5 -157l-16 -27v606h-90zM672 82q-177 0 -294.5 125t-117.5 313t117.5 313t294.5 125t295 -125t118 -313t-118 -313t-295 -125zM672 942q-169 0 -282.5 -121t-113.5 -301t113.5 -300t282.5 -120
t282 120t113 300t-113 301t-282 121z" />
    <glyph glyph-name="ydieresis" unicode="&#xff;" horiz-adv-x="1028" 
d="M995 1042l-585 -1433h-136l189 461l-430 972h135l4 -6l356 -807l332 813h135zM483 70l-182 -443h98l570 1397h-97l-344 -840l-370 840h-97zM330 1237q-37 0 -63.5 26.5t-26.5 63.5q0 38 26.5 65t63.5 27q38 0 65 -27t27 -65q0 -37 -27 -63.5t-65 -26.5zM330 1403
q-31 0 -52.5 -22.5t-21.5 -53.5q0 -30 22 -52t52 -22t51.5 22t21.5 52q0 31 -21.5 53.5t-51.5 22.5zM696 1237q-38 0 -65 26.5t-27 63.5q0 38 27 65t65 27q37 0 63.5 -27t26.5 -65q0 -37 -26.5 -63.5t-63.5 -26.5zM696 1403q-30 0 -51.5 -22.5t-21.5 -53.5q0 -30 21.5 -52
t51.5 -22t52 22t22 52q0 31 -21.5 53.5t-52.5 22.5z" />
    <glyph glyph-name="Amacron" unicode="&#x100;" horiz-adv-x="1308" 
d="M719 1434l534 -1434h-135l-147 397h-631l-150 -397h-133l535 1434h127zM983 414l147 -398h97l-520 1399h-103l-522 -1399h96l150 398h655zM655 1294l295 -790h-590zM655 1243l-268 -721h537zM903 1782v-107h-500v107h500zM422 1765v-71h463v71h-463z" />
    <glyph glyph-name="amacron" unicode="&#x101;" horiz-adv-x="1067" 
d="M442 -27q-158 0 -261 89.5t-103 226.5q0 214 231 284q62 19 150 28t137.5 10t159.5 1h37v60q0 35 -5 67t-22 70.5t-43.5 66.5t-75 47t-112.5 19q-62 0 -119.5 -18.5t-91 -39t-80.5 -55.5l-103 78q90 75 181 117.5t213 42.5q177 0 280 -106t103 -289v-672h-125v139
q-131 -166 -351 -166zM741 596q-294 0 -426 -39q-219 -67 -219 -268q0 -129 97.5 -213t248.5 -84q128 0 214.5 52.5t136.5 127.5l16 25v-181h90v656q0 175 -97.5 276t-266.5 101q-114 0 -200.5 -38.5t-164.5 -103.5l74 -55q65 49 132.5 77.5t158.5 28.5q71 0 123.5 -22
t80.5 -53t44.5 -73.5t21 -74t4.5 -63.5v-76h-68zM442 82q-100 0 -176 54t-76 153q0 77 50 127q33 33 84 53t122.5 27.5t124 9t138.5 0.5h100v-191q-11 -36 -37 -73.5t-69 -75t-111 -61t-150 -23.5zM645 487q-145 0 -242.5 -16.5t-150.5 -67.5q-45 -45 -45 -114
q0 -90 70.5 -139.5t164.5 -49.5q77 0 142 22t106 57.5t66 70t37 69.5v168h-148zM788 1372v-106h-499v106h499zM307 1356v-72h463v72h-463z" />
    <glyph glyph-name="Abreve" unicode="&#x102;" horiz-adv-x="1308" 
d="M719 1434l534 -1434h-135l-147 397h-631l-150 -397h-133l535 1434h127zM983 414l147 -398h97l-520 1399h-103l-522 -1399h96l150 398h655zM655 1294l295 -790h-590zM655 1243l-268 -721h537zM653 1608q-123 0 -193.5 75t-78.5 181h108q2 -21 8.5 -41.5t23 -47t50.5 -43
t82 -16.5q49 0 83.5 16.5t51 43t23 47t8.5 41.5h109q-8 -106 -79.5 -181t-195.5 -75zM473 1845h-72q10 -88 75.5 -153.5t176.5 -65.5q112 0 178 65t76 154h-71q-10 -62 -55.5 -104.5t-127.5 -42.5q-81 0 -125.5 42.5t-54.5 104.5z" />
    <glyph glyph-name="abreve" unicode="&#x103;" horiz-adv-x="1067" 
d="M442 -27q-158 0 -261 89.5t-103 226.5q0 214 231 284q62 19 150 28t137.5 10t159.5 1h37v60q0 35 -5 67t-22 70.5t-43.5 66.5t-75 47t-112.5 19q-62 0 -119.5 -18.5t-91 -39t-80.5 -55.5l-103 78q90 75 181 117.5t213 42.5q177 0 280 -106t103 -289v-672h-125v139
q-131 -166 -351 -166zM741 596q-294 0 -426 -39q-219 -67 -219 -268q0 -129 97.5 -213t248.5 -84q128 0 214.5 52.5t136.5 127.5l16 25v-181h90v656q0 175 -97.5 276t-266.5 101q-114 0 -200.5 -38.5t-164.5 -103.5l74 -55q65 49 132.5 77.5t158.5 28.5q71 0 123.5 -22
t80.5 -53t44.5 -73.5t21 -74t4.5 -63.5v-76h-68zM442 82q-100 0 -176 54t-76 153q0 77 50 127q33 33 84 53t122.5 27.5t124 9t138.5 0.5h100v-191q-11 -36 -37 -73.5t-69 -75t-111 -61t-150 -23.5zM645 487q-145 0 -242.5 -16.5t-150.5 -67.5q-45 -45 -45 -114
q0 -90 70.5 -139.5t164.5 -49.5q77 0 142 22t106 57.5t66 70t37 69.5v168h-148zM539 1198q-123 0 -194 75t-79 181h109q2 -21 8.5 -41.5t23 -46.5t50.5 -42.5t82 -16.5q49 0 83.5 16.5t51 43t23 46.5t8.5 41h108q-8 -106 -79 -181t-195 -75zM358 1436h-71
q10 -88 75.5 -153.5t176.5 -65.5q112 0 178 65t76 154h-72q-10 -62 -55 -105t-127 -43q-81 0 -126 43t-55 105z" />
    <glyph glyph-name="Aogonek" unicode="&#x104;" horiz-adv-x="1308" 
d="M1161 -463q-79 0 -136.5 50.5t-57.5 138.5q0 80 48 152t118 122h-17l-147 397h-631l-148 -397h-135l535 1434h127l532 -1430q-73 -45 -119.5 -113t-46.5 -127q0 -55 31 -83q39 -33 123 -21l10 2v-113l-6 -2q-38 -10 -80 -10zM981 414l149 -398h62l-27 -16
q-72 -44 -126 -118t-54 -156q0 -79 52.5 -124.5t123.5 -45.5q32 0 68 8v78q-83 -12 -125 24q-39 29 -39 98q0 61 45.5 131t116.5 117l-522 1403h-103l-520 -1399h96l148 398h655zM653 1294l295 -790h-590zM653 1243l-268 -721h537z" />
    <glyph glyph-name="aogonek" unicode="&#x105;" horiz-adv-x="1067" 
d="M831 -463q-79 0 -136.5 50.5t-57.5 138.5q0 80 48 152t118 122h-10v139q-131 -166 -351 -166q-158 0 -261 89.5t-103 226.5q0 214 231 284q62 19 150 28t137.5 10t159.5 1h37v60q0 35 -5 67t-22 70.5t-43.5 66.5t-75 47t-112.5 19q-62 0 -119.5 -18.5t-91 -39
t-80.5 -55.5l-103 78q85 74 178 117t216 43q177 0 280 -106t103 -289v-668q-72 -46 -118 -113.5t-46 -126.5q0 -56 30 -83q39 -33 123 -21l11 2v-113l-7 -2q-38 -10 -80 -10zM809 197v-181h53l-26 -16q-72 -44 -126.5 -118t-54.5 -156q0 -79 52.5 -124.5t123.5 -45.5
q32 0 68 8v78q-83 -12 -125 24q-39 29 -39 98q0 61 46.5 131.5t117.5 116.5v660q0 175 -97.5 276t-266.5 101q-114 0 -200.5 -38.5t-164.5 -103.5l74 -55q65 49 132.5 77.5t158.5 28.5q71 0 123.5 -22t80.5 -53t44.5 -73.5t21 -74t4.5 -63.5v-76h-53q-99 0 -155.5 -1.5
t-141 -10.5t-144.5 -27q-219 -67 -219 -268q0 -129 97.5 -213t248.5 -84q128 0 214.5 52.5t136.5 127.5zM442 82q-100 0 -176 54t-76 153q0 77 50 127q33 33 84 53t122.5 27.5t124 9t138.5 0.5h100v-191q-11 -36 -37 -73.5t-69 -75t-111 -61t-150 -23.5zM645 487
q-145 0 -242.5 -16.5t-150.5 -67.5q-45 -45 -45 -114q0 -90 70.5 -139.5t164.5 -49.5q77 0 142 22t106 57.5t66 70t37 69.5v168h-148z" />
    <glyph glyph-name="Cacute" unicode="&#x106;" horiz-adv-x="1460" 
d="M823 -27q-150 0 -285 58t-231 157.5t-152.5 237t-56.5 291.5q0 205 95.5 375t262 268t367.5 98q166 0 314.5 -72t253.5 -206l-107 -70q-87 107 -207 164t-254 57q-165 0 -302.5 -81t-216.5 -222.5t-79 -310.5q0 -170 79 -312t216.5 -223.5t302.5 -81.5q134 0 253.5 57.5
t207.5 164.5l107 -70q-107 -133 -255.5 -206t-312.5 -73zM823 1440q-195 0 -357.5 -95.5t-255.5 -261.5t-93 -366q0 -150 55 -284.5t149 -231t225 -153t277 -56.5q158 0 299.5 67t241.5 189l-76 51q-86 -104 -207.5 -160.5t-257.5 -56.5q-170 0 -312 84t-223 230t-81 321
q0 174 81 319.5t223 229.5t312 84q135 0 257 -56t208 -159l76 49q-99 123 -240.5 189.5t-300.5 66.5zM1010 1896l-195 -282h-88l133 282h150zM872 1880l-116 -248h49l172 248h-105z" />
    <glyph glyph-name="cacute" unicode="&#x107;" horiz-adv-x="1134" 
d="M621 -27q-147 0 -272 73.5t-198 199.5t-73 274t73 274t198 199.5t272 73.5q137 0 257.5 -66.5t198.5 -187.5l-110 -59q-61 90 -152.5 139t-193.5 49q-172 0 -294 -123.5t-122 -298.5q0 -173 122 -296.5t294 -123.5q102 0 193.5 49t152.5 138l110 -60
q-79 -121 -199 -187.5t-257 -66.5zM621 1049q-142 0 -263 -70.5t-191.5 -192.5t-70.5 -266q0 -143 70.5 -264.5t191.5 -192.5t263 -71q129 0 243.5 61t186.5 168l-80 43q-60 -86 -152.5 -134t-197.5 -48q-180 0 -307.5 128.5t-127.5 309.5t127.5 309.5t307.5 128.5
q104 0 197 -47.5t153 -132.5l80 43q-72 107 -186.5 167.5t-243.5 60.5zM801 1487l-195 -283h-88l133 283h150zM664 1470l-117 -247h49l172 247h-104z" />
    <glyph glyph-name="Ccircumflex" unicode="&#x108;" horiz-adv-x="1460" 
d="M823 -27q-150 0 -285 58t-231 157.5t-152.5 237t-56.5 291.5q0 205 95.5 375t262 268t367.5 98q166 0 314.5 -72t253.5 -206l-107 -70q-87 107 -207 164t-254 57q-165 0 -302.5 -81t-216.5 -222.5t-79 -310.5q0 -170 79 -312t216.5 -223.5t302.5 -81.5q134 0 253.5 57.5
t207.5 164.5l107 -70q-107 -133 -255.5 -206t-312.5 -73zM823 1440q-195 0 -357.5 -95.5t-255.5 -261.5t-93 -366q0 -150 55 -284.5t149 -231t225 -153t277 -56.5q158 0 299.5 67t241.5 189l-76 51q-86 -104 -207.5 -160.5t-257.5 -56.5q-170 0 -312 84t-223 230t-81 321
q0 174 81 319.5t223 229.5t312 84q135 0 257 -56t208 -159l76 49q-99 123 -240.5 189.5t-300.5 66.5zM854 1896l221 -282h-112l-158 201l-158 -201h-115l222 282h100zM805 1845l166 -213h67l-192 248h-82l-195 -248h70z" />
    <glyph glyph-name="ccircumflex" unicode="&#x109;" horiz-adv-x="1134" 
d="M621 -27q-147 0 -272 73.5t-198 199.5t-73 274t73 274t198 199.5t272 73.5q137 0 257.5 -66.5t198.5 -187.5l-110 -59q-61 90 -152.5 139t-193.5 49q-172 0 -294 -123.5t-122 -298.5q0 -173 122 -296.5t294 -123.5q102 0 193.5 49t152.5 138l110 -60
q-79 -121 -199 -187.5t-257 -66.5zM621 1049q-142 0 -263 -70.5t-191.5 -192.5t-70.5 -266q0 -143 70.5 -264.5t191.5 -192.5t263 -71q129 0 243.5 61t186.5 168l-80 43q-60 -86 -152.5 -134t-197.5 -48q-180 0 -307.5 128.5t-127.5 309.5t127.5 309.5t307.5 128.5
q104 0 197 -47.5t153 -132.5l80 43q-72 107 -186.5 167.5t-243.5 60.5zM666 1487l221 -283h-113l-158 201l-157 -201h-115l221 283h101zM616 1436l166 -213h68l-193 247h-82l-194 -247h70z" />
    <glyph glyph-name="Cdotaccent" unicode="&#x10a;" horiz-adv-x="1460" 
d="M823 -27q-150 0 -285 58t-231 157.5t-152.5 237t-56.5 291.5q0 205 95.5 375t262 268t367.5 98q166 0 314.5 -72t253.5 -206l-107 -70q-87 107 -207 164t-254 57q-165 0 -302.5 -81t-216.5 -222.5t-79 -310.5q0 -170 79 -312t216.5 -223.5t302.5 -81.5q134 0 253.5 57.5
t207.5 164.5l107 -70q-107 -133 -255.5 -206t-312.5 -73zM823 1440q-195 0 -357.5 -95.5t-255.5 -261.5t-93 -366q0 -150 55 -284.5t149 -231t225 -153t277 -56.5q158 0 299.5 67t241.5 189l-76 51q-86 -104 -207.5 -160.5t-257.5 -56.5q-170 0 -312 84t-223 230t-81 321
q0 174 81 319.5t223 229.5t312 84q135 0 257 -56t208 -159l76 49q-99 123 -240.5 189.5t-300.5 66.5zM807 1647q-38 0 -65 26.5t-27 63.5q0 38 27 65t65 27t65 -27t27 -65q0 -37 -27 -63.5t-65 -26.5zM807 1812q-31 0 -52.5 -22t-21.5 -53q0 -30 22 -52t52 -22t52 22t22 52
q0 31 -21.5 53t-52.5 22z" />
    <glyph glyph-name="cdotaccent" unicode="&#x10b;" horiz-adv-x="1134" 
d="M621 -27q-147 0 -272 73.5t-198 199.5t-73 274t73 274t198 199.5t272 73.5q137 0 257.5 -66.5t198.5 -187.5l-110 -59q-61 90 -152.5 139t-193.5 49q-172 0 -294 -123.5t-122 -298.5q0 -173 122 -296.5t294 -123.5q102 0 193.5 49t152.5 138l110 -60
q-79 -121 -199 -187.5t-257 -66.5zM621 1049q-142 0 -263 -70.5t-191.5 -192.5t-70.5 -266q0 -143 70.5 -264.5t191.5 -192.5t263 -71q129 0 243.5 61t186.5 168l-80 43q-60 -86 -152.5 -134t-197.5 -48q-180 0 -307.5 128.5t-127.5 309.5t127.5 309.5t307.5 128.5
q104 0 197 -47.5t153 -132.5l80 43q-72 107 -186.5 167.5t-243.5 60.5zM618 1237q-38 0 -65 26.5t-27 63.5q0 38 27 65t65 27t65.5 -27t27.5 -65q0 -37 -27.5 -63.5t-65.5 -26.5zM618 1403q-30 0 -51.5 -22.5t-21.5 -53.5q0 -30 21.5 -52t51.5 -22t52 22t22 52
q0 31 -21.5 53.5t-52.5 22.5z" />
    <glyph glyph-name="Ccaron" unicode="&#x10c;" horiz-adv-x="1460" 
d="M823 -27q-150 0 -285 58t-231 157.5t-152.5 237t-56.5 291.5q0 205 95.5 375t262 268t367.5 98q166 0 314.5 -72t253.5 -206l-107 -70q-87 107 -207 164t-254 57q-165 0 -302.5 -81t-216.5 -222.5t-79 -310.5q0 -170 79 -312t216.5 -223.5t302.5 -81.5q134 0 253.5 57.5
t207.5 164.5l107 -70q-107 -133 -255.5 -206t-312.5 -73zM823 1440q-195 0 -357.5 -95.5t-255.5 -261.5t-93 -366q0 -150 55 -284.5t149 -231t225 -153t277 -56.5q158 0 299.5 67t241.5 189l-76 51q-86 -104 -207.5 -160.5t-257.5 -56.5q-170 0 -312 84t-223 230t-81 321
q0 174 81 319.5t223 229.5t312 84q135 0 257 -56t208 -159l76 49q-99 123 -240.5 189.5t-300.5 66.5zM1077 1896l-221 -282h-100l-221 282h114l158 -200l158 200h112zM571 1880l195 -248h82l192 248h-67l-166 -213l-166 213h-70z" />
    <glyph glyph-name="ccaron" unicode="&#x10d;" horiz-adv-x="1134" 
d="M621 -27q-147 0 -272 73.5t-198 199.5t-73 274t73 274t198 199.5t272 73.5q137 0 257.5 -66.5t198.5 -187.5l-110 -59q-61 90 -152.5 139t-193.5 49q-172 0 -294 -123.5t-122 -298.5q0 -173 122 -296.5t294 -123.5q102 0 193.5 49t152.5 138l110 -60
q-79 -121 -199 -187.5t-257 -66.5zM621 1049q-142 0 -263 -70.5t-191.5 -192.5t-70.5 -266q0 -143 70.5 -264.5t191.5 -192.5t263 -71q129 0 243.5 61t186.5 168l-80 43q-60 -86 -152.5 -134t-197.5 -48q-180 0 -307.5 128.5t-127.5 309.5t127.5 309.5t307.5 128.5
q104 0 197 -47.5t153 -132.5l80 43q-72 107 -186.5 167.5t-243.5 60.5zM889 1487l-221 -283h-101l-221 283h115l157 -201l158 201h113zM383 1470l195 -247h81l193 247h-68l-166 -213l-165 213h-70z" />
    <glyph glyph-name="Dcaron" unicode="&#x10e;" horiz-adv-x="1400" 
d="M594 0h-432v1434h432q202 0 363.5 -92.5t252 -256.5t90.5 -368q0 -205 -90.5 -369t-252 -256t-363.5 -92zM180 1415v-1399h414q148 0 275.5 53t218.5 145t142.5 222.5t51.5 280.5q0 149 -52 278.5t-142.5 222t-218.5 145t-275 52.5h-414zM594 106h-324v1219h324
q172 0 308.5 -78t213 -217t76.5 -313q0 -175 -76.5 -314.5t-213 -218t-308.5 -78.5zM289 1307v-1182h305q253 0 417.5 167.5t164.5 424.5t-164.5 423.5t-417.5 166.5h-305zM920 1896l-222 -282h-100l-221 282h115l157 -200l158 200h113zM414 1880l194 -248h82l193 248h-68
l-166 -213l-166 213h-69z" />
    <glyph glyph-name="dcaron" unicode="&#x10f;" horiz-adv-x="1347" 
d="M1530 1434l-164 -304h-92l110 304h146zM1397 1415l-99 -266h56l145 266h-102zM600 -27q-143 0 -262.5 72.5t-188.5 198.5t-69 276q0 230 151 388.5t369 158.5q120 0 223 -52t172 -147v566h125v-1434h-125v172q-69 -95 -172 -147t-223 -52zM600 1049q-139 0 -254.5 -70
t-181.5 -191.5t-66 -267.5q0 -145 66 -266.5t181.5 -191.5t254.5 -70q123 0 227 56t170 159l17 24v-215h90v1399h-90v-606l-17 27q-66 101 -170 157t-227 56zM600 82q-177 0 -294.5 125t-117.5 313t117.5 313t294.5 125t295.5 -125.5t118.5 -312.5t-118.5 -312.5
t-295.5 -125.5zM600 942q-169 0 -282 -121t-113 -301t113 -300t282 -120t282 120t113 300t-113 301t-282 121z" />
    <glyph glyph-name="Dcroat" unicode="&#x110;" horiz-adv-x="1499" 
d="M690 0h-432v662h-197v108h197v664h432q202 0 364 -92.5t252.5 -256.5t90.5 -368q0 -205 -90.5 -369t-252.5 -256t-364 -92zM276 680v-664h414q148 0 275.5 53t218.5 145t142.5 222.5t51.5 280.5q0 149 -52 278.5t-142.5 222t-218.5 145t-275 52.5h-414v-663h-196v-72h196
zM690 106h-323v574h450v72h-450v573h323q172 0 309 -78t214 -217t77 -313q0 -175 -77 -314.5t-214 -218t-309 -78.5zM385 662v-537h305q253 0 417.5 167.5t164.5 424.5t-164.5 423.5t-417.5 166.5h-305v-537h451v-108h-451z" />
    <glyph glyph-name="dcroat" unicode="&#x111;" horiz-adv-x="1271" 
d="M602 -27q-146 0 -266 69t-188 190.5t-68 269.5q0 227 149.5 378.5t372.5 151.5q123 0 224 -48.5t169 -139.5v289h-358v108h358v193h127v-193h146v-108h-146v-1133h-127v162q-68 -91 -169 -140t-224 -49zM602 1014q-215 0 -359.5 -146.5t-144.5 -365.5q0 -218 144.5 -364
t359.5 -146q126 0 227.5 52.5t167.5 150.5l17 24v-203h90v1135h145v72h-145v192h-90v-192h-359v-72h359v-365l-17 25q-66 98 -167.5 150.5t-227.5 52.5zM602 82q-180 0 -297 118.5t-117 301.5t117 302.5t297 119.5q179 0 295.5 -119.5t116.5 -302.5t-116.5 -301.5
t-295.5 -118.5zM602 905q-172 0 -283.5 -114t-111.5 -289q0 -174 112 -288t283 -114q170 0 281.5 114.5t111.5 287.5q0 175 -111.5 289t-281.5 114z" />
    <glyph glyph-name="Emacron" unicode="&#x112;" horiz-adv-x="1056" 
d="M961 125v-125h-801v1434h780v-127h-653v-502h608v-127h-608v-553h674zM178 1415v-1399h764v90h-674v590h609v90h-609v539h656v90h-746zM809 1782v-107h-500v107h500zM328 1765v-71h463v71h-463z" />
    <glyph glyph-name="emacron" unicode="&#x113;" horiz-adv-x="1171" 
d="M616 -27q-111 0 -210.5 43t-171 116t-113 174t-41.5 214t40 214.5t108.5 174.5t163.5 115.5t202 42.5q212 0 350 -147q78 -84 116.5 -201.5t31.5 -251.5v-8h-881q22 -157 136 -258t269 -101q197 0 328 152l107 -68q-167 -211 -435 -211zM594 1049q-137 0 -251 -70
t-179.5 -191.5t-65.5 -267.5q0 -145 68.5 -266.5t187.5 -191.5t262 -70q252 0 408 188l-76 47q-130 -145 -332 -145q-164 0 -285 108.5t-141 274.5v10h883q6 130 -31 242t-112 190q-133 142 -336 142zM981 565h-791v10q20 167 134.5 275t269.5 108q154 0 262 -107.5
t125 -285.5zM211 584h752q-22 161 -123 259.5t-246 98.5q-147 0 -255 -101t-128 -257zM836 1372v-106h-500v106h500zM354 1356v-72h463v72h-463z" />
    <glyph glyph-name="Ebreve" unicode="&#x114;" horiz-adv-x="1056" 
d="M961 125v-125h-801v1434h780v-127h-653v-502h608v-127h-608v-553h674zM178 1415v-1399h764v90h-674v590h609v90h-609v539h656v90h-746zM559 1608q-123 0 -193.5 75t-78.5 181h108q2 -21 8.5 -41.5t23 -47t50.5 -43t82 -16.5q49 0 83.5 16.5t51 43t23 47t8.5 41.5h109
q-8 -106 -79.5 -181t-195.5 -75zM379 1845h-72q10 -88 75.5 -153.5t176.5 -65.5q112 0 178 65t76 154h-72q-10 -62 -55 -104.5t-127 -42.5q-81 0 -125.5 42.5t-54.5 104.5z" />
    <glyph glyph-name="ebreve" unicode="&#x115;" horiz-adv-x="1171" 
d="M616 -27q-111 0 -210.5 43t-171 116t-113 174t-41.5 214t40 214.5t108.5 174.5t163.5 115.5t202 42.5q212 0 350 -147q78 -84 116.5 -201.5t31.5 -251.5v-8h-881q22 -157 136 -258t269 -101q197 0 328 152l107 -68q-167 -211 -435 -211zM594 1049q-137 0 -251 -70
t-179.5 -191.5t-65.5 -267.5q0 -145 68.5 -266.5t187.5 -191.5t262 -70q252 0 408 188l-76 47q-130 -145 -332 -145q-164 0 -285 108.5t-141 274.5v10h883q6 130 -31 242t-112 190q-133 142 -336 142zM981 565h-791v10q20 167 134.5 275t269.5 108q154 0 262 -107.5
t125 -285.5zM211 584h752q-22 161 -123 259.5t-246 98.5q-147 0 -255 -101t-128 -257zM586 1198q-123 0 -194 75t-79 181h109q2 -21 8.5 -41.5t23 -46.5t50.5 -42.5t82 -16.5q49 0 83.5 16.5t51 43t23 46.5t8.5 41h108q-8 -106 -79 -181t-195 -75zM406 1436h-72
q10 -88 75.5 -153.5t176.5 -65.5q112 0 178 65t76 154h-72q-10 -62 -55 -105t-127 -43q-81 0 -125.5 43t-54.5 105z" />
    <glyph glyph-name="Edotaccent" unicode="&#x116;" horiz-adv-x="1056" 
d="M961 125v-125h-801v1434h780v-127h-653v-502h608v-127h-608v-553h674zM178 1415v-1399h764v90h-674v590h609v90h-609v539h656v90h-746zM559 1647q-38 0 -65 26.5t-27 63.5q0 38 27 65t65 27t65 -27t27 -65q0 -37 -27 -63.5t-65 -26.5zM559 1812q-31 0 -52.5 -22
t-21.5 -53q0 -30 22 -52t52 -22t52 22t22 52q0 31 -21.5 53t-52.5 22z" />
    <glyph glyph-name="edotaccent" unicode="&#x117;" horiz-adv-x="1171" 
d="M616 -27q-111 0 -210.5 43t-171 116t-113 174t-41.5 214t40 214.5t108.5 174.5t163.5 115.5t202 42.5q212 0 350 -147q78 -84 116.5 -201.5t31.5 -251.5v-8h-881q22 -157 136 -258t269 -101q197 0 328 152l107 -68q-167 -211 -435 -211zM594 1049q-137 0 -251 -70
t-179.5 -191.5t-65.5 -267.5q0 -145 68.5 -266.5t187.5 -191.5t262 -70q252 0 408 188l-76 47q-130 -145 -332 -145q-164 0 -285 108.5t-141 274.5v10h883q6 130 -31 242t-112 190q-133 142 -336 142zM981 565h-791v10q20 167 134.5 275t269.5 108q154 0 262 -107.5
t125 -285.5zM211 584h752q-22 161 -123 259.5t-246 98.5q-147 0 -255 -101t-128 -257zM586 1237q-38 0 -65 26.5t-27 63.5q0 38 27 65t65 27t65 -27t27 -65q0 -37 -27 -63.5t-65 -26.5zM586 1403q-31 0 -52.5 -22.5t-21.5 -53.5q0 -30 22 -52t52 -22t51.5 22t21.5 52
q0 31 -21.5 53.5t-51.5 22.5z" />
    <glyph glyph-name="Eogonek" unicode="&#x118;" horiz-adv-x="1056" 
d="M872 -463q-78 0 -136 51t-58 138q0 79 48.5 151t117.5 123h-684v1434h782v-127h-655v-502h608v-127h-608v-553h674v-121q-73 -45 -119.5 -113t-46.5 -127q0 -54 32 -83q39 -33 123 -21l11 2v-113l-7 -2q-42 -10 -82 -10zM178 1415v-1399h723q-91 -55 -148 -130.5
t-57 -159.5q0 -79 52.5 -124.5t123.5 -45.5q34 0 70 8v78q-85 -12 -127 24q-37 30 -37 98q0 62 46 132.5t118 115.5v94h-674v590h609v90h-609v539h656v90h-746z" />
    <glyph glyph-name="eogonek" unicode="&#x119;" horiz-adv-x="1171" 
d="M662 -463q-78 0 -136.5 51t-58.5 138q0 133 135 247q-221 6 -371.5 163.5t-150.5 383.5q0 113 40 214.5t108.5 174.5t163.5 115.5t202 42.5q212 0 350 -147q163 -174 148 -463h-881q22 -155 136 -256t269 -101q197 0 328 152l107 -68l-7 -8q-121 -149 -307 -190
q-68 -44 -110.5 -106t-42.5 -116t32 -83q39 -33 123 -21l11 2v-113l-7 -2q-42 -10 -81 -10zM655 -6l-22 -19q-22 -16 -43 -36.5t-47 -52.5t-42 -74t-16 -86q0 -79 53 -124.5t124 -45.5q33 0 69 8v78q-85 -12 -127 24q-39 31 -39 98q0 60 45.5 125t120.5 115q176 35 293 176
l-76 47q-130 -145 -332 -145q-164 0 -285 108.5t-141 274.5v10h883q6 130 -31 242t-112 190q-133 142 -336 142q-137 0 -251 -70t-179.5 -191.5t-65.5 -267.5q0 -145 68.5 -266.5t187.5 -191.5t262 -70q4 0 39 2zM981 565h-791v10q20 167 133.5 275t270.5 108
q156 0 263 -108t124 -285zM211 584h752q-22 161 -123 259.5t-246 98.5q-147 0 -255 -101t-128 -257z" />
    <glyph glyph-name="Ecaron" unicode="&#x11a;" horiz-adv-x="1056" 
d="M961 125v-125h-801v1434h780v-127h-653v-502h608v-127h-608v-553h674zM178 1415v-1399h764v90h-674v590h609v90h-609v539h656v90h-746zM831 1896l-221 -282h-100l-221 282h114l158 -200l158 200h112zM326 1880l194 -248h82l193 248h-68l-166 -213l-166 213h-69z" />
    <glyph glyph-name="ecaron" unicode="&#x11b;" horiz-adv-x="1171" 
d="M616 -27q-111 0 -210.5 43t-171 116t-113 174t-41.5 214t40 214.5t108.5 174.5t163.5 115.5t202 42.5q212 0 350 -147q78 -84 116.5 -201.5t31.5 -251.5v-8h-881q22 -157 136 -258t269 -101q197 0 328 152l107 -68q-167 -211 -435 -211zM594 1049q-137 0 -251 -70
t-179.5 -191.5t-65.5 -267.5q0 -145 68.5 -266.5t187.5 -191.5t262 -70q252 0 408 188l-76 47q-130 -145 -332 -145q-164 0 -285 108.5t-141 274.5v10h883q6 130 -31 242t-112 190q-133 142 -336 142zM981 565h-791v10q20 167 134.5 275t269.5 108q154 0 262 -107.5
t125 -285.5zM211 584h752q-22 161 -123 259.5t-246 98.5q-147 0 -255 -101t-128 -257zM856 1487l-221 -283h-100l-222 283h115l158 -201l157 201h113zM350 1470l195 -247h82l192 247h-67l-166 -213l-166 213h-70z" />
    <glyph glyph-name="Gcircumflex" unicode="&#x11c;" horiz-adv-x="1632" 
d="M827 -27q-150 0 -285 58t-231 157.5t-152.5 237t-56.5 291.5q0 205 95.5 375t262 268t367.5 98q165 0 313 -72t255 -206l-107 -70q-87 107 -207 164t-254 57q-165 0 -302.5 -81t-216.5 -222.5t-79 -310.5q0 -170 79 -312t216.5 -223.5t302.5 -81.5q238 0 384 151t153 404
h-506v127h631v-782h-88l-25 276q-82 -146 -223.5 -224.5t-325.5 -78.5zM827 1440q-195 0 -357.5 -95.5t-255.5 -261.5t-93 -366q0 -150 55 -284.5t149 -231t225 -153t277 -56.5q188 0 330 82t217 237l15 29l28 -324h56v748h-596v-90h505v-8q-4 -265 -155.5 -424.5
t-399.5 -159.5q-170 0 -312 84t-223 230t-81 321q0 174 81 319.5t223 229.5t312 84q135 0 257 -56t208 -159l76 49q-99 123 -240.5 189.5t-300.5 66.5zM866 1896l221 -282h-112l-158 201l-158 -201h-114l221 282h100zM817 1845l166 -213h68l-193 248h-82l-194 -248h69z" />
    <glyph glyph-name="gcircumflex" unicode="&#x11d;" horiz-adv-x="1271" 
d="M594 -410q-141 0 -258.5 54t-196.5 157l107 70q125 -154 348 -154q81 0 148.5 22.5t113.5 61t78 90t46.5 108.5t14.5 118v116q-64 -98 -167 -151t-226 -53q-144 0 -264 68.5t-189 187.5t-69 262q0 144 69 263.5t189 188t264 68.5q123 0 226 -53.5t167 -151.5v180h127
v-925q0 -78 -19.5 -152.5t-62.5 -142.5t-103.5 -119.5t-149 -82t-193.5 -30.5zM242 -154l-76 -49q72 -89 184 -138.5t244 -49.5q102 0 187 29.5t144 79t100 115.5t60 137.5t19 146.5v907h-90v-227l-17 28q-61 107 -165 165.5t-230 58.5q-212 0 -358 -145t-146 -357
q0 -138 66.5 -253t182.5 -181t255 -66q127 0 230.5 58t164.5 165l17 29v-182q0 -81 -25.5 -154t-75 -133t-132 -95.5t-187.5 -35.5q-226 0 -352 147zM602 137q-173 0 -293.5 119t-120.5 291q0 173 120 292t294 119q173 0 292.5 -119t119.5 -292q0 -172 -119.5 -291
t-292.5 -119zM602 942q-166 0 -280.5 -114.5t-114.5 -280.5q0 -164 114.5 -278.5t280.5 -114.5q165 0 279 114t114 279q0 166 -113.5 280.5t-279.5 114.5zM668 1487l221 -283h-113l-158 201l-157 -201h-115l221 283h101zM618 1436l166 -213h68l-193 247h-81l-195 -247h70z
" />
    <glyph glyph-name="Gbreve" unicode="&#x11e;" horiz-adv-x="1632" 
d="M827 -27q-150 0 -285 58t-231 157.5t-152.5 237t-56.5 291.5q0 205 95.5 375t262 268t367.5 98q165 0 313 -72t255 -206l-107 -70q-87 107 -207 164t-254 57q-165 0 -302.5 -81t-216.5 -222.5t-79 -310.5q0 -170 79 -312t216.5 -223.5t302.5 -81.5q238 0 384 151t153 404
h-506v127h631v-782h-88l-25 276q-82 -146 -223.5 -224.5t-325.5 -78.5zM827 1440q-195 0 -357.5 -95.5t-255.5 -261.5t-93 -366q0 -150 55 -284.5t149 -231t225 -153t277 -56.5q188 0 330 82t217 237l15 29l28 -324h56v748h-596v-90h505v-8q-4 -265 -155.5 -424.5
t-399.5 -159.5q-170 0 -312 84t-223 230t-81 321q0 174 81 319.5t223 229.5t312 84q135 0 257 -56t208 -159l76 49q-99 123 -240.5 189.5t-300.5 66.5zM819 1608q-123 0 -193.5 75t-78.5 181h108q2 -21 8.5 -41.5t23 -47t50.5 -43t82 -16.5q49 0 83.5 16.5t51 43t23 47
t8.5 41.5h109q-8 -106 -79.5 -181t-195.5 -75zM639 1845h-72q10 -88 75.5 -153.5t176.5 -65.5q112 0 178 65t76 154h-72q-10 -62 -55 -104.5t-127 -42.5q-81 0 -125.5 42.5t-54.5 104.5z" />
    <glyph glyph-name="gbreve" unicode="&#x11f;" horiz-adv-x="1271" 
d="M594 -410q-141 0 -258.5 54t-196.5 157l107 70q125 -154 348 -154q81 0 148.5 22.5t113.5 61t78 90t46.5 108.5t14.5 118v116q-64 -98 -167 -151t-226 -53q-144 0 -264 68.5t-189 187.5t-69 262q0 144 69 263.5t189 188t264 68.5q123 0 226 -53.5t167 -151.5v180h127
v-925q0 -78 -19.5 -152.5t-62.5 -142.5t-103.5 -119.5t-149 -82t-193.5 -30.5zM242 -154l-76 -49q72 -89 184 -138.5t244 -49.5q102 0 187 29.5t144 79t100 115.5t60 137.5t19 146.5v907h-90v-227l-17 28q-61 107 -165 165.5t-230 58.5q-212 0 -358 -145t-146 -357
q0 -138 66.5 -253t182.5 -181t255 -66q127 0 230.5 58t164.5 165l17 29v-182q0 -81 -25.5 -154t-75 -133t-132 -95.5t-187.5 -35.5q-226 0 -352 147zM602 137q-173 0 -293.5 119t-120.5 291q0 173 120 292t294 119q173 0 292.5 -119t119.5 -292q0 -172 -119.5 -291
t-292.5 -119zM602 942q-166 0 -280.5 -114.5t-114.5 -280.5q0 -164 114.5 -278.5t280.5 -114.5q165 0 279 114t114 279q0 166 -113.5 280.5t-279.5 114.5zM621 1198q-123 0 -194 75t-79 181h109q2 -21 8.5 -41.5t23 -46.5t50.5 -42.5t82 -16.5q49 0 83.5 16.5t50.5 43
t22.5 46.5t8.5 41h109q-8 -106 -79 -181t-195 -75zM440 1436h-71q10 -88 75.5 -153.5t176.5 -65.5q112 0 177.5 65t75.5 154h-71q-10 -62 -55 -105t-127 -43q-81 0 -126 43t-55 105z" />
    <glyph glyph-name="Gdotaccent" unicode="&#x120;" horiz-adv-x="1632" 
d="M827 -27q-150 0 -285 58t-231 157.5t-152.5 237t-56.5 291.5q0 205 95.5 375t262 268t367.5 98q165 0 313 -72t255 -206l-107 -70q-87 107 -207 164t-254 57q-165 0 -302.5 -81t-216.5 -222.5t-79 -310.5q0 -170 79 -312t216.5 -223.5t302.5 -81.5q238 0 384 151t153 404
h-506v127h631v-782h-88l-25 276q-82 -146 -223.5 -224.5t-325.5 -78.5zM827 1440q-195 0 -357.5 -95.5t-255.5 -261.5t-93 -366q0 -150 55 -284.5t149 -231t225 -153t277 -56.5q188 0 330 82t217 237l15 29l28 -324h56v748h-596v-90h505v-8q-4 -265 -155.5 -424.5
t-399.5 -159.5q-170 0 -312 84t-223 230t-81 321q0 174 81 319.5t223 229.5t312 84q135 0 257 -56t208 -159l76 49q-99 123 -240.5 189.5t-300.5 66.5zM819 1647q-38 0 -65 26.5t-27 63.5q0 38 27 65t65 27t65 -27t27 -65q0 -37 -27 -63.5t-65 -26.5zM819 1812
q-31 0 -52.5 -22t-21.5 -53q0 -30 22 -52t52 -22t52 22t22 52q0 31 -21.5 53t-52.5 22z" />
    <glyph glyph-name="gdotaccent" unicode="&#x121;" horiz-adv-x="1271" 
d="M594 -410q-141 0 -258.5 54t-196.5 157l107 70q125 -154 348 -154q81 0 148.5 22.5t113.5 61t78 90t46.5 108.5t14.5 118v116q-64 -98 -167 -151t-226 -53q-144 0 -264 68.5t-189 187.5t-69 262q0 144 69 263.5t189 188t264 68.5q123 0 226 -53.5t167 -151.5v180h127
v-925q0 -78 -19.5 -152.5t-62.5 -142.5t-103.5 -119.5t-149 -82t-193.5 -30.5zM242 -154l-76 -49q72 -89 184 -138.5t244 -49.5q102 0 187 29.5t144 79t100 115.5t60 137.5t19 146.5v907h-90v-227l-17 28q-61 107 -165 165.5t-230 58.5q-212 0 -358 -145t-146 -357
q0 -138 66.5 -253t182.5 -181t255 -66q127 0 230.5 58t164.5 165l17 29v-182q0 -81 -25.5 -154t-75 -133t-132 -95.5t-187.5 -35.5q-226 0 -352 147zM602 137q-173 0 -293.5 119t-120.5 291q0 173 120 292t294 119q173 0 292.5 -119t119.5 -292q0 -172 -119.5 -291
t-292.5 -119zM602 942q-166 0 -280.5 -114.5t-114.5 -280.5q0 -164 114.5 -278.5t280.5 -114.5q165 0 279 114t114 279q0 166 -113.5 280.5t-279.5 114.5zM621 1237q-38 0 -65.5 26.5t-27.5 63.5q0 38 27.5 65t65.5 27t65 -27t27 -65q0 -37 -27 -63.5t-65 -26.5zM621 1403
q-31 0 -52.5 -22.5t-21.5 -53.5q0 -30 22 -52t52 -22t51.5 22t21.5 52q0 31 -21.5 53.5t-51.5 22.5z" />
    <glyph glyph-name="Gcommaaccent" unicode="&#x122;" horiz-adv-x="1632" 
d="M827 -27q-150 0 -285 58t-231 157.5t-152.5 237t-56.5 291.5q0 205 95.5 375t262 268t367.5 98q165 0 313 -72t255 -206l-107 -70q-87 107 -207 164t-254 57q-165 0 -302.5 -81t-216.5 -222.5t-79 -310.5q0 -170 79 -312t216.5 -223.5t302.5 -81.5q238 0 384 151t153 404
h-506v127h631v-782h-88l-25 276q-82 -146 -223.5 -224.5t-325.5 -78.5zM827 1440q-195 0 -357.5 -95.5t-255.5 -261.5t-93 -366q0 -150 55 -284.5t149 -231t225 -153t277 -56.5q188 0 330 82t217 237l15 29l28 -324h56v748h-596v-90h505v-8q-4 -265 -155.5 -424.5
t-399.5 -159.5q-170 0 -312 84t-223 230t-81 321q0 174 81 319.5t223 229.5t312 84q135 0 257 -56t208 -159l76 49q-99 123 -240.5 189.5t-300.5 66.5zM887 -213l-164 -303h-92l110 303h146zM754 -231l-99 -267h56l145 267h-102z" />
    <glyph glyph-name="gcommaaccent" unicode="&#x123;" horiz-adv-x="1271" 
d="M594 -410q-141 0 -258.5 54t-196.5 157l107 70q125 -154 348 -154q81 0 148.5 22.5t113.5 61t78 90t46.5 108.5t14.5 118v116q-64 -98 -167 -151t-226 -53q-144 0 -264 68.5t-189 187.5t-69 262q0 144 69 263.5t189 188t264 68.5q123 0 226 -53.5t167 -151.5v180h127
v-925q0 -78 -19.5 -152.5t-62.5 -142.5t-103.5 -119.5t-149 -82t-193.5 -30.5zM242 -154l-76 -49q72 -89 184 -138.5t244 -49.5q102 0 187 29.5t144 79t100 115.5t60 137.5t19 146.5v907h-90v-227l-17 28q-61 107 -165 165.5t-230 58.5q-212 0 -358 -145t-146 -357
q0 -138 66.5 -253t182.5 -181t255 -66q127 0 230.5 58t164.5 165l17 29v-182q0 -81 -25.5 -154t-75 -133t-132 -95.5t-187.5 -35.5q-226 0 -352 147zM602 137q-173 0 -293.5 119t-120.5 291q0 173 120 292t294 119q173 0 292.5 -119t119.5 -292q0 -172 -119.5 -291
t-292.5 -119zM602 942q-166 0 -280.5 -114.5t-114.5 -280.5q0 -164 114.5 -278.5t280.5 -114.5q165 0 279 114t114 279q0 166 -113.5 280.5t-279.5 114.5zM545 1198l164 303h92l-111 -303h-145zM678 1217l98 266h-55l-146 -266h103z" />
    <glyph glyph-name="Hcircumflex" unicode="&#x124;" horiz-adv-x="1382" 
d="M1221 1434v-1434h-125v659h-807v-659h-127v1434h127v-648h807v648h125zM1112 678v-662h90v1399h-90v-647h-842v647h-90v-1399h90v662h842zM739 1896l222 -282h-113l-158 201l-158 -201h-114l221 282h100zM690 1845l166 -213h68l-193 248h-82l-194 -248h69z" />
    <glyph glyph-name="hcircumflex" unicode="&#x125;" 
d="M1026 614v-614h-125v614q0 16 -1.5 35t-8 53t-18 64t-34 63.5t-52 57.5t-76.5 39.5t-105 15.5q-69 0 -126 -22t-94 -56.5t-62.5 -79t-36.5 -87.5t-11 -83v-614h-124v1434h124v-531q57 79 142 121.5t188 42.5q84 0 154.5 -26.5t118.5 -70.5t82 -103t49.5 -122.5
t15.5 -130.5zM920 614v-598h90v598q0 81 -25 156.5t-73 139t-127.5 101.5t-178.5 38q-219 0 -332 -181l-16 -26v573h-90v-1399h90v598q0 54 19.5 110.5t58.5 110.5t109.5 88.5t160.5 34.5q67 0 121 -20.5t89.5 -54.5t59.5 -79t34 -92.5t10 -97.5zM504 1896l221 -282h-113
l-157 201l-158 -201h-115l221 282h101zM455 1845l166 -213h67l-192 248h-82l-195 -248h70z" />
    <glyph glyph-name="Hbar" unicode="&#x126;" horiz-adv-x="1480" 
d="M1270 1069v-1069h-125v659h-807v-659h-125v1069h-190v109h190v256h125v-256h807v256h125v-256h190v-109h-190zM1163 678v-662h90v1071h191v72h-191v256h-90v-256h-844v256h-88v-256h-190v-72h190v-1071h88v662h844zM1163 1087v-319h-844v319h844zM338 1069v-283h807v283
h-807z" />
    <glyph glyph-name="hbar" unicode="&#x127;" 
d="M1028 578v-578h-127v578q0 17 -1.5 36t-8 52.5t-18 63.5t-34 63t-52 57t-76.5 39.5t-105 15.5q-69 0 -126 -22t-93.5 -56.5t-61.5 -78.5t-35.5 -87t-10.5 -83v-578h-127v1133h-142v108h142v193h127v-193h362v-108h-362v-267q119 166 327 166q84 0 155 -26.5t119.5 -70.5
t82.5 -102.5t49.5 -123t15.5 -131.5zM920 578v-562h90v562q0 82 -24.5 157.5t-72 139t-127.5 101.5t-180 38q-219 0 -330 -183l-16 -26v346h363v72h-363v192h-90v-192h-141v-72h141v-1135h90v562q0 42 11.5 87t38 92t65.5 83.5t99 60t132 23.5q67 0 121 -21t89.5 -55
t59.5 -79.5t34 -93t10 -97.5z" />
    <glyph glyph-name="Itilde" unicode="&#x128;" horiz-adv-x="438" 
d="M283 1434v-1434h-125v1434h125zM176 1415v-1399h90v1399h-90zM39 1597l-107 15q12 90 55 136t111 46q52 0 140 -45q72 -35 98 -35q57 0 65 86l109 -16q-13 -88 -56.5 -133t-111.5 -45q-51 0 -139 45q-72 35 -101 35q-25 0 -41 -19t-22 -70zM-47 1628l72 -10q13 86 77 86
q29 0 109 -37q80 -43 131 -43q120 0 145 143l-69 13q-18 -84 -82 -84q-27 0 -107 37q-92 43 -131 43q-58 0 -95.5 -38.5t-49.5 -109.5z" />
    <glyph glyph-name="itilde" unicode="&#x129;" horiz-adv-x="417" 
d="M272 1042v-1042h-127v1042h127zM164 1024v-1008h90v1008h-90zM29 1188l-107 14q12 90 55 136t111 46q51 0 139 -45q70 -34 99 -34q57 0 65 86l109 -17q-13 -88 -56.5 -133t-111.5 -45q-51 0 -139 45q-72 35 -101 35q-25 0 -41 -18.5t-22 -69.5zM-57 1219l71 -11
q13 86 78 86q29 0 109 -37q80 -43 131 -43q120 0 145 144l-69 12q-18 -84 -82 -84q-27 0 -107 37q-92 43 -131 43q-58 0 -95.5 -38t-49.5 -109z" />
    <glyph glyph-name="Imacron" unicode="&#x12a;" horiz-adv-x="438" 
d="M283 1434v-1434h-125v1434h125zM176 1415v-1399h90v1399h-90zM469 1782v-107h-500v107h500zM-12 1765v-71h463v71h-463z" />
    <glyph glyph-name="imacron" unicode="&#x12b;" horiz-adv-x="417" 
d="M272 1042v-1042h-127v1042h127zM164 1024v-1008h90v1008h-90zM459 1372v-106h-500v106h500zM-23 1356v-72h463v72h-463z" />
    <glyph glyph-name="Ibreve" unicode="&#x12c;" horiz-adv-x="438" 
d="M283 1434v-1434h-125v1434h125zM176 1415v-1399h90v1399h-90zM219 1608q-123 0 -193.5 75t-78.5 181h108q2 -21 8.5 -41.5t23 -47t50.5 -43t82 -16.5q49 0 83.5 16.5t51 43t23 47t8.5 41.5h109q-8 -106 -79.5 -181t-195.5 -75zM39 1845h-72q10 -88 75.5 -153.5
t176.5 -65.5q112 0 178 65t76 154h-72q-10 -62 -55 -104.5t-127 -42.5q-81 0 -125.5 42.5t-54.5 104.5z" />
    <glyph glyph-name="ibreve" unicode="&#x12d;" horiz-adv-x="417" 
d="M272 1042v-1042h-127v1042h127zM164 1024v-1008h90v1008h-90zM209 1198q-123 0 -193.5 75t-78.5 181h108q2 -21 8.5 -41.5t23 -46.5t50.5 -42.5t82 -16.5q49 0 83.5 16.5t51 43t23 46.5t8.5 41h108q-8 -106 -79 -181t-195 -75zM29 1436h-72q10 -88 75.5 -153.5
t176.5 -65.5q112 0 178 65t76 154h-72q-10 -62 -55 -105t-127 -43q-81 0 -125.5 43t-54.5 105z" />
    <glyph glyph-name="Iogonek" unicode="&#x12e;" horiz-adv-x="438" 
d="M197 -463q-77 0 -135 51t-58 138q0 80 48 152t118 122h-12v1434h127v-1430q-73 -45 -119.5 -113t-46.5 -127q0 -53 33 -83q39 -33 122 -21l11 2v-113l-6 -2q-38 -10 -82 -10zM176 1415v-1399h53l-26 -16q-73 -44 -128 -118t-55 -156q0 -79 53.5 -124.5t123.5 -45.5
q33 0 69 8v78q-85 -12 -127 24q-37 30 -37 98q0 62 46 132.5t118 115.5v1403h-90z" />
    <glyph glyph-name="iogonek" unicode="&#x12f;" horiz-adv-x="417" 
d="M182 -463q-77 0 -134.5 50.5t-57.5 138.5q0 80 48 152t118 122h-13v1042h127v-1038q-73 -45 -119.5 -113t-46.5 -127q0 -53 33 -83q39 -33 123 -21l10 2v-113l-6 -2q-38 -10 -82 -10zM162 1024v-1008h53l-27 -16q-73 -44 -127.5 -118t-54.5 -156q0 -79 53 -124.5
t123 -45.5q34 0 70 8v78q-85 -12 -127 24q-37 30 -37 98q0 62 46 132.5t118 115.5v1012h-90zM207 1239q-34 0 -57 24t-23 58q0 33 23.5 56.5t56.5 23.5t56.5 -23.5t23.5 -56.5q0 -34 -23 -58t-57 -24zM207 1382q-26 0 -44 -17.5t-18 -43.5t18 -45t44 -19t44.5 19t18.5 45
t-18.5 43.5t-44.5 17.5z" />
    <glyph glyph-name="Idotaccent" unicode="&#x130;" horiz-adv-x="438" 
d="M283 1434v-1434h-125v1434h125zM176 1415v-1399h90v1399h-90zM219 1647q-38 0 -65 26.5t-27 63.5q0 38 27 65t65 27t65 -27t27 -65q0 -37 -27 -63.5t-65 -26.5zM219 1812q-31 0 -52.5 -22t-21.5 -53q0 -30 22 -52t52 -22t52 22t22 52q0 31 -21.5 53t-52.5 22z" />
    <glyph glyph-name="dotlessi" unicode="&#x131;" horiz-adv-x="417" 
d="M272 1042v-1042h-127v1042h127zM164 1024v-1008h90v1008h-90z" />
    <glyph glyph-name="IJ" unicode="&#x132;" horiz-adv-x="1521" 
d="M283 1434v-1434h-125v1434h125zM176 1415v-1399h90v1399h-90zM913 -27q-186 0 -308.5 106t-151.5 298l125 22q22 -145 109.5 -222t225.5 -77q154 0 238 96t84 271v967h127v-967q0 -229 -121 -361.5t-328 -132.5zM563 377l-88 -17q28 -170 145.5 -269t292.5 -99
q198 0 314 127.5t116 347.5v948h-90v-948q0 -184 -89 -284.5t-251 -100.5q-142 0 -234.5 78.5t-115.5 216.5z" />
    <glyph glyph-name="ij" unicode="&#x133;" horiz-adv-x="806" 
d="M272 1042v-1042h-127v1042h127zM164 1024v-1008h90v1008h-90zM209 1239q-34 0 -57 24t-23 58q0 33 23.5 56.5t56.5 23.5t56.5 -23.5t23.5 -56.5q0 -34 -23 -58t-57 -24zM209 1382q-27 0 -45.5 -17.5t-18.5 -43.5t19 -45t45 -19t43.5 18.5t17.5 45.5q0 26 -17.5 43.5
t-43.5 17.5zM309 -373h-10v125h10q61 0 103.5 13t66.5 33t36.5 53.5t16 63.5t3.5 75v1052h127v-1052q0 -186 -86.5 -274.5t-266.5 -88.5zM317 -266v-90q167 3 246.5 87.5t79.5 258.5v1034h-90v-1034q0 -44 -3.5 -75.5t-17.5 -67.5t-38 -58.5t-69 -38t-108 -16.5zM598 1239
q-32 0 -56 24t-24 58q0 32 24 56t56 24q34 0 58 -24t24 -56q0 -34 -24 -58t-58 -24zM598 1382q-26 0 -43.5 -17.5t-17.5 -43.5q0 -27 17.5 -45.5t43.5 -18.5t45 19t19 45t-18.5 43.5t-45.5 17.5z" />
    <glyph glyph-name="Jcircumflex" unicode="&#x134;" horiz-adv-x="1144" 
d="M537 -27q-186 0 -309 106t-152 298l125 22q22 -145 110 -222t226 -77q154 0 237.5 96t83.5 271v967h127v-967q0 -229 -120.5 -361.5t-327.5 -132.5zM186 377l-88 -17q28 -170 146 -269t293 -99q198 0 314 127.5t116 347.5v948h-90v-948q0 -184 -89 -284.5t-251 -100.5
q-142 0 -235 78.5t-116 216.5zM975 1896l221 -282h-113l-157 201l-158 -201h-115l221 282h101zM926 1845l166 -213h67l-192 248h-82l-195 -248h70z" />
    <glyph glyph-name="jcircumflex" unicode="&#x135;" horiz-adv-x="417" 
d="M-80 -373h-10v125h10q61 0 103.5 13t66 32.5t36.5 53.5t16 64t3 75v1052h127v-1052q0 -186 -86 -274.5t-266 -88.5zM-72 -266v-90q167 3 246.5 87.5t79.5 258.5v1034h-90v-1034q0 -44 -3.5 -75.5t-17.5 -67.5t-38 -58.5t-69 -38t-108 -16.5zM258 1487l221 -283h-112
l-158 201l-158 -201h-114l221 283h100zM209 1436l166 -213h67l-192 247h-82l-195 -247h70z" />
    <glyph glyph-name="Kcommaaccent" unicode="&#x136;" horiz-adv-x="1163" 
d="M412 725l698 -725h-176l-653 678v-678h-125v1434h125v-666l602 666h170zM264 721l678 -705h127l-682 709l625 690h-121zM174 1415v-1399h90v1399h-90zM680 -213l-164 -303h-92l111 303h145zM547 -231l-98 -267h55l145 267h-102z" />
    <glyph glyph-name="kcommaaccent" unicode="&#x137;" horiz-adv-x="999" 
d="M406 537l542 -537h-168l-512 508v-508h-125v1434h125v-867l451 475h166zM264 537l524 -521h117l-524 521l461 487h-115zM160 1415v-1399h90v1399h-90zM614 -213l-163 -303h-93l111 303h145zM481 -231l-98 -267h55l146 267h-103z" />
    <glyph glyph-name="kgreenlandic" unicode="&#x138;" horiz-adv-x="999" 
d="M406 537l542 -537h-168l-512 508v-508h-125v1042h125v-475l451 475h166zM264 537l524 -521h117l-524 521l461 487h-115zM160 1024v-1008h90v1008h-90z" />
    <glyph glyph-name="Lacute" unicode="&#x139;" horiz-adv-x="1042" 
d="M944 125v-125h-784v1434h125v-1309h659zM176 1415v-1399h750v90h-660v1309h-90zM467 1896l-195 -282h-88l133 282h150zM330 1880l-117 -248h49l172 248h-104z" />
    <glyph glyph-name="lacute" unicode="&#x13a;" horiz-adv-x="415" 
d="M270 1434v-1434h-125v1434h125zM162 1415v-1399h90v1399h-90zM453 1896l-195 -282h-88l133 282h150zM315 1880l-116 -248h49l172 248h-105z" />
    <glyph glyph-name="Lcommaaccent" unicode="&#x13b;" horiz-adv-x="1042" 
d="M944 125v-125h-784v1434h125v-1309h659zM176 1415v-1399h750v90h-660v1309h-90zM621 -213l-164 -303h-92l110 303h146zM487 -231l-98 -267h55l146 267h-103z" />
    <glyph glyph-name="lcommaaccent" unicode="&#x13c;" horiz-adv-x="415" 
d="M270 1434v-1434h-125v1434h125zM162 1415v-1399h90v1399h-90zM276 -213l-163 -303h-93l111 303h145zM143 -231l-98 -267h55l146 267h-103z" />
    <glyph glyph-name="Lcaron" unicode="&#x13d;" horiz-adv-x="1042" 
d="M686 1434l-164 -304h-92l111 304h145zM553 1415l-98 -266h55l145 266h-102zM944 125v-125h-784v1434h125v-1309h659zM176 1415v-1399h750v90h-660v1309h-90z" />
    <glyph glyph-name="lcaron" unicode="&#x13e;" horiz-adv-x="491" 
d="M676 1434l-164 -304h-92l110 304h146zM543 1415l-99 -266h56l145 266h-102zM270 1434v-1434h-125v1434h125zM162 1415v-1399h90v1399h-90z" />
    <glyph glyph-name="Ldot" unicode="&#x13f;" horiz-adv-x="1042" 
d="M659 547q-39 0 -66.5 27.5t-27.5 66.5q0 40 28 68t66 28q40 0 68.5 -28t28.5 -68q0 -39 -28.5 -66.5t-68.5 -27.5zM659 719q-31 0 -53 -23t-22 -55t22 -55t53 -23q32 0 55 23t23 55t-23 55t-55 23zM944 125v-125h-784v1434h125v-1309h659zM176 1415v-1399h750v90h-660
v1309h-90z" />
    <glyph glyph-name="ldot" unicode="&#x140;" horiz-adv-x="714" 
d="M567 582q-40 0 -68 28t-28 68q0 38 28 66t68 28q38 0 66.5 -28t28.5 -66q0 -40 -28 -68t-67 -28zM567 754q-32 0 -55 -22.5t-23 -53.5q0 -32 23 -55t55 -23q31 0 53.5 23t22.5 55q0 31 -22.5 53.5t-53.5 22.5zM270 1434v-1434h-125v1434h125zM162 1415v-1399h90v1399h-90
z" />
    <glyph glyph-name="Lslash" unicode="&#x141;" horiz-adv-x="1124" 
d="M1026 125v-125h-784v492l-152 -86l-53 94l205 116v818h127v-748l331 186l54 -94l-385 -215v-438h657zM260 522v-506h750v90h-660v467l379 213l-35 62l-344 -193v760h-90v-809l-199 -112l37 -64z" />
    <glyph glyph-name="lslash" unicode="&#x142;" horiz-adv-x="559" 
d="M342 692v-692h-125v614l-162 -96l-55 92l217 131v693h125v-617l160 98l55 -92zM233 647v-631h91v686l208 127l-36 62l-172 -105v629h-91v-684l-208 -127l36 -61z" />
    <glyph glyph-name="Nacute" unicode="&#x143;" horiz-adv-x="1417" 
d="M1255 1434v-1434h-120l-2 4l-844 1206v-1210h-127v1434h123l2 -4l843 -1209v1213h125zM270 1268l875 -1252h94v1399h-90v-1251l-875 1251h-94v-1399h90v1252zM952 1896l-194 -282h-88l133 282h149zM815 1880l-117 -248h50l172 248h-105z" />
    <glyph glyph-name="nacute" unicode="&#x144;" horiz-adv-x="1175" 
d="M1026 614v-614h-127v614q0 16 -1.5 35t-8 53t-18 64t-34 63.5t-52 57.5t-76.5 39.5t-105 15.5q-69 0 -126 -22t-94 -56.5t-62.5 -79t-36.5 -87.5t-11 -83v-614h-124v1042h124v-139q121 164 330 164q104 0 187 -40t133 -105.5t76 -144.5t26 -163zM918 614v-598h90v598
q0 81 -25 156.5t-73 139t-127.5 101.5t-178.5 38q-217 0 -330 -181l-18 -26v182h-90v-1008h90v598q0 42 11.5 87t38.5 91.5t66 83t99.5 59.5t132.5 23q67 0 121 -20.5t89.5 -54.5t59.5 -79t34 -92.5t10 -97.5zM791 1487l-195 -283h-88l133 283h150zM653 1470l-116 -247h49
l172 247h-105z" />
    <glyph glyph-name="Ncommaaccent" unicode="&#x145;" horiz-adv-x="1417" 
d="M1255 1434v-1434h-120l-2 4l-844 1206v-1210h-127v1434h123l2 -4l843 -1209v1213h125zM270 1268l875 -1252h94v1399h-90v-1251l-875 1251h-94v-1399h90v1252zM797 -213l-164 -303h-92l110 303h146zM664 -231l-99 -267h56l145 267h-102z" />
    <glyph glyph-name="ncommaaccent" unicode="&#x146;" horiz-adv-x="1175" 
d="M1026 614v-614h-127v614q0 16 -1.5 35t-8 53t-18 64t-34 63.5t-52 57.5t-76.5 39.5t-105 15.5q-69 0 -126 -22t-94 -56.5t-62.5 -79t-36.5 -87.5t-11 -83v-614h-124v1042h124v-139q121 164 330 164q104 0 187 -40t133 -105.5t76 -144.5t26 -163zM918 614v-598h90v598
q0 81 -25 156.5t-73 139t-127.5 101.5t-178.5 38q-217 0 -330 -181l-18 -26v182h-90v-1008h90v598q0 42 11.5 87t38.5 91.5t66 83t99.5 59.5t132.5 23q67 0 121 -20.5t89.5 -54.5t59.5 -79t34 -92.5t10 -97.5zM696 -213l-164 -303h-92l111 303h145zM563 -231l-98 -267h55
l146 267h-103z" />
    <glyph glyph-name="Ncaron" unicode="&#x147;" horiz-adv-x="1417" 
d="M1255 1434v-1434h-120l-2 4l-844 1206v-1210h-127v1434h123l2 -4l843 -1209v1213h125zM270 1268l875 -1252h94v1399h-90v-1251l-875 1251h-94v-1399h90v1252zM979 1896l-221 -282h-101l-221 282h115l158 -200l157 200h113zM473 1880l195 -248h82l192 248h-68l-165 -213
l-166 213h-70z" />
    <glyph glyph-name="ncaron" unicode="&#x148;" horiz-adv-x="1175" 
d="M1026 614v-614h-127v614q0 16 -1.5 35t-8 53t-18 64t-34 63.5t-52 57.5t-76.5 39.5t-105 15.5q-69 0 -126 -22t-94 -56.5t-62.5 -79t-36.5 -87.5t-11 -83v-614h-124v1042h124v-139q121 164 330 164q104 0 187 -40t133 -105.5t76 -144.5t26 -163zM918 614v-598h90v598
q0 81 -25 156.5t-73 139t-127.5 101.5t-178.5 38q-217 0 -330 -181l-18 -26v182h-90v-1008h90v598q0 42 11.5 87t38.5 91.5t66 83t99.5 59.5t132.5 23q67 0 121 -20.5t89.5 -54.5t59.5 -79t34 -92.5t10 -97.5zM860 1487l-221 -283h-100l-222 283h115l158 -201l158 201h112z
M354 1470l195 -247h82l192 247h-67l-166 -213l-166 213h-70z" />
    <glyph glyph-name="napostrophe" unicode="&#x149;" horiz-adv-x="1196" 
d="M1044 614v-614h-126v614q0 16 -1.5 35t-8 53t-18 64t-34 63.5t-52 57.5t-76.5 39.5t-105 15.5q-69 0 -126 -22t-94 -56.5t-62.5 -79t-36.5 -87.5t-11 -83v-614h-125v1042h125v-139q57 79 142 121.5t188 42.5q104 0 187 -40t132.5 -105.5t75.5 -144.5t26 -163zM936 614
v-598h90v598q0 81 -25 156.5t-72.5 139t-127 101.5t-178.5 38q-122 0 -203.5 -53t-126.5 -128l-19 -26v182h-90v-1008h90v598q0 42 11.5 87t38.5 91.5t66 83t99.5 59.5t133.5 23q67 0 121 -20.5t89 -54.5t59 -79t34 -92.5t10 -97.5zM268 1434l-164 -304h-92l111 304h145z
M135 1415l-98 -266h55l146 266h-103z" />
    <glyph glyph-name="Eng" unicode="&#x14a;" horiz-adv-x="1417" 
d="M907 -393q-38 0 -65 4v127q150 -18 213 39q72 64 75 229l-843 1204v-1210h-125v1434h121l847 -1213v1213h125v-1426q0 -115 -28 -193t-88 -132q-85 -76 -232 -76zM860 -283v-92q18 -2 47 -2q138 0 219 72q58 52 84.5 127t26.5 186v1407h-90v-1251l-873 1251h-94v-1399h90
v1252l877 -1258v-2q0 -172 -80 -246q-72 -60 -207 -45z" />
    <glyph glyph-name="eng" unicode="&#x14b;" horiz-adv-x="1175" 
d="M674 -356h-10v127h10q61 0 104 13t66.5 32.5t36.5 53t16.5 63.5t3.5 75v606q0 16 -1.5 35t-8 53t-18 64t-34 63.5t-52 57.5t-76.5 39.5t-105 15.5q-86 0 -153 -33t-103.5 -84t-55 -105.5t-18.5 -105.5v-614h-126v1042h126v-139q118 164 330 164q84 0 154.5 -26.5
t118.5 -70.5t82 -103t49.5 -122.5t15.5 -130.5v-606q0 -186 -86 -275t-266 -89zM682 -248v-90q167 3 246.5 87t79.5 259v606q0 64 -15 125.5t-47.5 118t-78.5 99t-113.5 67.5t-147.5 25q-219 0 -332 -181l-16 -26v182h-90v-1008h90v598q0 54 19.5 110.5t58.5 110.5
t109.5 88.5t160.5 34.5q82 0 144.5 -30.5t98 -82t52.5 -110t17 -121.5v-606q0 -44 -3.5 -75.5t-17.5 -67.5t-38 -58.5t-69 -38t-108 -16.5z" />
    <glyph glyph-name="Omacron" unicode="&#x14c;" horiz-adv-x="1652" 
d="M827 -27q-150 0 -285 58t-231 157.5t-152.5 237t-56.5 291.5q0 205 95.5 375t262 268t367.5 98q200 0 366 -98t261.5 -268t95.5 -375q0 -153 -56.5 -291t-152.5 -237.5t-230 -157.5t-284 -58zM827 1440q-195 0 -357.5 -95.5t-255.5 -261.5t-93 -366q0 -150 55 -284.5
t149 -231t225 -153t277 -56.5t276.5 56.5t224.5 152.5t149 231t55 285t-55 284t-149 230t-224.5 152.5t-276.5 56.5zM827 82q-170 0 -312 84t-223 230t-81 321q0 174 81 319.5t223 229.5t312 84q169 0 310.5 -84t223 -229.5t81.5 -319.5q0 -175 -81.5 -321t-223 -230
t-310.5 -84zM827 1331q-165 0 -302.5 -81t-216.5 -222.5t-79 -310.5q0 -170 79 -312t216.5 -223.5t302.5 -81.5t302 81.5t216.5 223.5t79.5 312q0 169 -79.5 310.5t-217 222.5t-301.5 81zM1075 1782v-107h-500v107h500zM594 1765v-71h463v71h-463z" />
    <glyph glyph-name="omacron" unicode="&#x14d;" horiz-adv-x="1241" 
d="M621 -27q-147 0 -272 73.5t-198 199.5t-73 274t73 274t198 199.5t272 73.5t271.5 -73.5t196.5 -199.5t72 -274t-72 -274t-196.5 -199.5t-271.5 -73.5zM621 1049q-142 0 -263 -70.5t-191.5 -192.5t-70.5 -266q0 -143 70.5 -264.5t191.5 -192.5t263 -71t262.5 71t190 192.5
t69.5 264.5q0 108 -41 206t-111 168.5t-167 112.5t-203 42zM621 82q-180 0 -307.5 128.5t-127.5 309.5t127.5 309.5t307.5 128.5t306 -128t126 -310t-126 -310t-306 -128zM621 942q-172 0 -294 -123.5t-122 -298.5q0 -173 122 -296.5t294 -123.5t293.5 123.5t121.5 296.5
q0 175 -121.5 298.5t-293.5 123.5zM870 1372v-106h-499v106h499zM389 1356v-72h463v72h-463z" />
    <glyph glyph-name="Obreve" unicode="&#x14e;" horiz-adv-x="1652" 
d="M827 -27q-150 0 -285 58t-231 157.5t-152.5 237t-56.5 291.5q0 205 95.5 375t262 268t367.5 98q200 0 366 -98t261.5 -268t95.5 -375q0 -153 -56.5 -291t-152.5 -237.5t-230 -157.5t-284 -58zM827 1440q-195 0 -357.5 -95.5t-255.5 -261.5t-93 -366q0 -150 55 -284.5
t149 -231t225 -153t277 -56.5t276.5 56.5t224.5 152.5t149 231t55 285t-55 284t-149 230t-224.5 152.5t-276.5 56.5zM827 82q-170 0 -312 84t-223 230t-81 321q0 174 81 319.5t223 229.5t312 84q169 0 310.5 -84t223 -229.5t81.5 -319.5q0 -175 -81.5 -321t-223 -230
t-310.5 -84zM827 1331q-165 0 -302.5 -81t-216.5 -222.5t-79 -310.5q0 -170 79 -312t216.5 -223.5t302.5 -81.5t302 81.5t216.5 223.5t79.5 312q0 169 -79.5 310.5t-217 222.5t-301.5 81zM825 1608q-123 0 -193.5 75t-78.5 181h109q2 -21 8.5 -41.5t22.5 -47t50 -43
t82 -16.5q49 0 83.5 16.5t51 43t23 47t8.5 41.5h109q-8 -106 -79.5 -181t-195.5 -75zM645 1845h-72q10 -88 75.5 -153.5t176.5 -65.5q112 0 178 65t76 154h-71q-10 -62 -55.5 -104.5t-127.5 -42.5q-81 0 -125.5 42.5t-54.5 104.5z" />
    <glyph glyph-name="obreve" unicode="&#x14f;" horiz-adv-x="1241" 
d="M621 -27q-147 0 -272 73.5t-198 199.5t-73 274t73 274t198 199.5t272 73.5t271.5 -73.5t196.5 -199.5t72 -274t-72 -274t-196.5 -199.5t-271.5 -73.5zM621 1049q-142 0 -263 -70.5t-191.5 -192.5t-70.5 -266q0 -143 70.5 -264.5t191.5 -192.5t263 -71t262.5 71t190 192.5
t69.5 264.5q0 108 -41 206t-111 168.5t-167 112.5t-203 42zM621 82q-180 0 -307.5 128.5t-127.5 309.5t127.5 309.5t307.5 128.5t306 -128t126 -310t-126 -310t-306 -128zM621 942q-172 0 -294 -123.5t-122 -298.5q0 -173 122 -296.5t294 -123.5t293.5 123.5t121.5 296.5
q0 175 -121.5 298.5t-293.5 123.5zM621 1198q-123 0 -194 75t-79 181h109q2 -21 8.5 -41.5t23 -46.5t50.5 -42.5t82 -16.5q49 0 83.5 16.5t50.5 43t22.5 46.5t8.5 41h109q-8 -106 -79 -181t-195 -75zM440 1436h-71q10 -88 75.5 -153.5t176.5 -65.5q112 0 177.5 65t75.5 154
h-71q-10 -62 -55 -105t-127 -43q-81 0 -126 43t-55 105z" />
    <glyph glyph-name="Ohungarumlaut" unicode="&#x150;" horiz-adv-x="1652" 
d="M827 -27q-150 0 -285 58t-231 157.5t-152.5 237t-56.5 291.5q0 205 95.5 375t262 268t367.5 98q200 0 366 -98t261.5 -268t95.5 -375q0 -153 -56.5 -291t-152.5 -237.5t-230 -157.5t-284 -58zM827 1440q-195 0 -357.5 -95.5t-255.5 -261.5t-93 -366q0 -150 55 -284.5
t149 -231t225 -153t277 -56.5t276.5 56.5t224.5 152.5t149 231t55 285t-55 284t-149 230t-224.5 152.5t-276.5 56.5zM827 82q-170 0 -312 84t-223 230t-81 321q0 174 81 319.5t223 229.5t312 84q169 0 310.5 -84t223 -229.5t81.5 -319.5q0 -175 -81.5 -321t-223 -230
t-310.5 -84zM827 1331q-165 0 -302.5 -81t-216.5 -222.5t-79 -310.5q0 -170 79 -312t216.5 -223.5t302.5 -81.5t302 81.5t216.5 223.5t79.5 312q0 169 -79.5 310.5t-217 222.5t-301.5 81zM918 1896l-197 -282h-86l133 282h150zM778 1880l-114 -248h49l170 248h-105z
M1223 1896l-197 -282h-86l131 282h152zM1083 1880l-114 -248h47l172 248h-105z" />
    <glyph glyph-name="ohungarumlaut" unicode="&#x151;" horiz-adv-x="1241" 
d="M621 -27q-147 0 -272 73.5t-198 199.5t-73 274t73 274t198 199.5t272 73.5t271.5 -73.5t196.5 -199.5t72 -274t-72 -274t-196.5 -199.5t-271.5 -73.5zM621 1049q-142 0 -263 -70.5t-191.5 -192.5t-70.5 -266q0 -143 70.5 -264.5t191.5 -192.5t263 -71t262.5 71t190 192.5
t69.5 264.5q0 108 -41 206t-111 168.5t-167 112.5t-203 42zM621 82q-180 0 -307.5 128.5t-127.5 309.5t127.5 309.5t307.5 128.5t306 -128t126 -310t-126 -310t-306 -128zM621 942q-172 0 -294 -123.5t-122 -298.5q0 -173 122 -296.5t294 -123.5t293.5 123.5t121.5 296.5
q0 175 -121.5 298.5t-293.5 123.5zM690 1487l-196 -283h-86l133 283h149zM551 1470l-115 -247h49l170 247h-104zM995 1487l-196 -283h-86l131 283h151zM856 1470l-115 -247h47l173 247h-105z" />
    <glyph glyph-name="OE" unicode="&#x152;" horiz-adv-x="1912" 
d="M1808 125v-125h-999q-202 0 -364 92t-252.5 256t-90.5 369q0 204 90.5 368t252.5 256.5t364 92.5h979v-127h-653v-502h608v-127h-608v-553h673zM1772 1325v90h-963q-196 0 -353.5 -90t-246 -249.5t-88.5 -358.5q0 -150 52 -280.5t143 -222.5t218.5 -145t274.5 -53h981v90
h-674v590h608v90h-608v539h656zM1026 1325v-1219h-217q-171 0 -307.5 78.5t-213.5 218t-77 314.5q0 174 77 313t213.5 217t307.5 78h217zM1008 1307h-199q-252 0 -416 -167t-164 -423q0 -169 74.5 -304.5t207 -211.5t298.5 -76h199v1182z" />
    <glyph glyph-name="oe" unicode="&#x153;" horiz-adv-x="2091" 
d="M1540 -27q-147 0 -270 76.5t-191 208.5q-69 -132 -193.5 -208.5t-271.5 -76.5q-146 0 -268 72.5t-192 198.5t-70 276q0 113 41.5 214.5t112 174.5t168.5 115.5t208 42.5q146 0 270 -75t193 -206q64 132 181 206.5t260 74.5q202 0 337 -141q163 -174 148 -469h-856
q22 -156 132.5 -256.5t260.5 -100.5q95 0 168.5 35.5t140.5 116.5l109 -68q-87 -109 -189 -160t-229 -51zM1071 283l8 16l8 -16q63 -135 185 -213t268 -78q237 0 389 188l-76 47q-66 -75 -141 -110t-172 -35q-160 0 -276.5 108.5t-135.5 274.5l-2 10h859q6 133 -31 246.5
t-111 191.5q-130 136 -325 136q-141 0 -256.5 -76t-176.5 -211l-8 -17l-8 17q-64 133 -186.5 210t-268.5 77q-141 0 -259 -70t-185.5 -191.5t-67.5 -267.5q0 -221 148.5 -374.5t363.5 -153.5q148 0 270 78t187 213zM614 82q-178 0 -299.5 126.5t-121.5 311.5t121.5 311.5
t299.5 126.5q177 0 298.5 -126.5t121.5 -311.5t-121.5 -311.5t-298.5 -126.5zM614 942q-170 0 -286.5 -122.5t-116.5 -299.5t116.5 -298.5t286.5 -121.5q169 0 285.5 121.5t116.5 298.5t-116.5 299.5t-285.5 122.5zM1892 575l2 -10h-768q17 177 127 285t265 108
q151 0 254 -105.5t120 -277.5zM1147 584h727q-20 161 -117.5 259.5t-238.5 98.5q-145 0 -248 -99.5t-123 -258.5z" />
    <glyph glyph-name="Racute" unicode="&#x154;" horiz-adv-x="1210" 
d="M770 621l385 -621h-145l-369 596q-54 -4 -80 -4h-276v-592h-127v1434h403q238 0 372 -112t134 -310q0 -148 -76.5 -249t-220.5 -142zM649 614l371 -598h102l-379 615l11 4q142 38 218.5 136t76.5 241q0 189 -129.5 296t-358.5 107h-385v-1399h90v594h295q26 0 88 4z
M561 700h-295v625h295q195 0 296 -79.5t101 -233.5q0 -152 -101 -232t-296 -80zM285 1307v-588h276q186 0 282.5 74t96.5 219t-96.5 220t-282.5 75h-276zM797 1896l-195 -282h-88l133 282h150zM659 1880l-116 -248h49l172 248h-105z" />
    <glyph glyph-name="racute" unicode="&#x155;" horiz-adv-x="694" 
d="M274 530v-530h-127v1042h127v-194q63 105 156 162t201 57h8v-143h-8q-169 0 -263 -103.5t-94 -290.5zM166 1026v-1010h92v514q0 194 95 301.5t270 110.5v107q-108 -1 -199 -64t-150 -176l-16 -33v250h-92zM596 1487l-195 -283h-88l133 283h150zM459 1470l-117 -247h49
l172 247h-104z" />
    <glyph glyph-name="Rcommaaccent" unicode="&#x156;" horiz-adv-x="1210" 
d="M770 621l385 -621h-145l-369 596q-54 -4 -80 -4h-276v-592h-127v1434h403q238 0 372 -112t134 -310q0 -148 -76.5 -249t-220.5 -142zM649 614l371 -598h102l-379 615l11 4q142 38 218.5 136t76.5 241q0 189 -129.5 296t-358.5 107h-385v-1399h90v594h295q26 0 88 4z
M561 700h-295v625h295q195 0 296 -79.5t101 -233.5q0 -152 -101 -232t-296 -80zM285 1307v-588h276q186 0 282.5 74t96.5 219t-96.5 220t-282.5 75h-276zM745 -213l-163 -303h-93l111 303h145zM612 -231l-98 -267h55l146 267h-103z" />
    <glyph glyph-name="rcommaaccent" unicode="&#x157;" horiz-adv-x="694" 
d="M274 530v-530h-127v1042h127v-194q63 105 156 162t201 57h8v-143h-8q-169 0 -263 -103.5t-94 -290.5zM166 1026v-1010h92v514q0 194 95 301.5t270 110.5v107q-108 -1 -199 -64t-150 -176l-16 -33v250h-92zM276 -213l-163 -303h-93l111 303h145zM143 -231l-98 -267h55
l146 267h-103z" />
    <glyph glyph-name="Rcaron" unicode="&#x158;" horiz-adv-x="1210" 
d="M770 621l385 -621h-145l-369 596q-54 -4 -80 -4h-276v-592h-127v1434h403q238 0 372 -112t134 -310q0 -148 -76.5 -249t-220.5 -142zM649 614l371 -598h102l-379 615l11 4q142 38 218.5 136t76.5 241q0 189 -129.5 296t-358.5 107h-385v-1399h90v594h295q26 0 88 4z
M561 700h-295v625h295q195 0 296 -79.5t101 -233.5q0 -152 -101 -232t-296 -80zM285 1307v-588h276q186 0 282.5 74t96.5 219t-96.5 220t-282.5 75h-276zM846 1896l-221 -282h-101l-221 282h115l157 -200l158 200h113zM340 1880l195 -248h81l193 248h-68l-166 -213l-165 213
h-70z" />
    <glyph glyph-name="rcaron" unicode="&#x159;" horiz-adv-x="694" 
d="M274 530v-530h-127v1042h127v-194q63 105 156 162t201 57h8v-143h-8q-169 0 -263 -103.5t-94 -290.5zM166 1026v-1010h92v514q0 194 95 301.5t270 110.5v107q-108 -1 -199 -64t-150 -176l-16 -33v250h-92zM618 1487l-221 -283h-100l-221 283h114l158 -201l158 201h112z
M113 1470l194 -247h82l193 247h-68l-166 -213l-166 213h-69z" />
    <glyph glyph-name="Sacute" unicode="&#x15a;" horiz-adv-x="1110" 
d="M561 -27q-96 0 -180.5 29t-144 78t-100.5 108.5t-60 124.5l121 37l2 -8q27 -97 123.5 -169.5t238.5 -72.5q156 0 249 79t93 210q0 41 -10 73.5t-32 57.5t-47.5 44t-67.5 36t-79 28.5t-94 26.5q-51 14 -80 22.5t-81.5 28t-85 38.5t-73 50.5t-63.5 67t-39 85.5t-16 108
q0 169 120.5 286t295.5 117q153 0 262.5 -79t155.5 -222l2 -10l-123 -31l-2 8q-68 209 -295 209q-123 0 -206 -80t-83 -198q0 -112 80 -170.5t264 -106.5q40 -11 62 -17.5t62.5 -20t65 -25t60 -30.5t57 -38t46.5 -47t38.5 -58t23 -69.5t9.5 -83.5q0 -61 -17.5 -119.5
t-55 -112.5t-91 -95t-132.5 -65t-173 -24zM184 328l-86 -27q39 -125 162.5 -217t300.5 -92q112 0 201 34t142.5 91t81.5 126.5t28 145.5q0 42 -9 79.5t-21.5 66.5t-37 55.5t-44 44.5t-55 36.5t-58 29t-64 24t-62 19.5t-63.5 18q-70 18 -115.5 33t-95.5 39.5t-78.5 53
t-47.5 71t-19 96.5q0 127 88 212t219 85q234 0 309 -213l88 22q-46 133 -149.5 206t-247.5 73q-167 0 -282 -111t-115 -274q0 -44 9.5 -82.5t23 -68t38.5 -57t46.5 -46.5t57 -37.5t60 -29.5t65 -24t62.5 -19.5t62 -16.5q70 -19 114 -34t92.5 -39t75.5 -51t44.5 -68t17.5 -93
q0 -139 -98.5 -222t-262.5 -83q-145 0 -245 72.5t-132 171.5zM780 1896l-194 -282h-88l133 282h149zM643 1880l-117 -248h49l173 248h-105z" />
    <glyph glyph-name="sacute" unicode="&#x15b;" horiz-adv-x="886" 
d="M440 -27q-144 0 -242.5 71t-129.5 169l-5 10l121 41l2 -10q19 -61 87 -107.5t167 -46.5q112 0 177 50.5t65 138.5q0 76 -52 109.5t-184 60.5q-58 12 -102 25.5t-92 37.5t-79 54.5t-51 77.5t-20 106q0 132 94.5 219.5t235.5 87.5q120 0 208 -63.5t120 -172.5l2 -8
l-121 -32l-2 8q-22 68 -76.5 105.5t-130.5 37.5q-89 0 -147 -52t-58 -130q0 -75 59.5 -113t190.5 -65q30 -6 46.5 -9.5t48 -12t50.5 -16.5t47 -21.5t45 -28t37.5 -35.5t31.5 -45.5t18.5 -56t7.5 -68.5q0 -60 -22.5 -115.5t-66 -101t-116 -72.5t-164.5 -27zM172 240l-86 -29
q34 -91 127 -155t227 -64q75 0 135.5 18t100 47t66 68.5t38 80t11.5 83.5q0 40 -9.5 74t-25 59t-41 46t-50 34.5t-60 26t-64 20t-68.5 16.5q-136 27 -199 69t-63 126q0 86 62 142t159 56q81 0 138.5 -38t82.5 -107l86 23q-32 99 -114 156t-193 57q-134 0 -222.5 -82.5
t-88.5 -206.5q0 -55 19 -99t49 -73t75.5 -51.5t88.5 -35.5t98 -24q137 -28 193 -66.5t56 -121.5q0 -95 -70 -151t-190 -56q-102 0 -173 46.5t-95 111.5zM662 1487l-195 -283h-88l133 283h150zM524 1470l-116 -247h49l172 247h-105z" />
    <glyph glyph-name="Scircumflex" unicode="&#x15c;" horiz-adv-x="1110" 
d="M561 -27q-96 0 -180.5 29t-144 78t-100.5 108.5t-60 124.5l121 37l2 -8q27 -97 123.5 -169.5t238.5 -72.5q156 0 249 79t93 210q0 41 -10 73.5t-32 57.5t-47.5 44t-67.5 36t-79 28.5t-94 26.5q-51 14 -80 22.5t-81.5 28t-85 38.5t-73 50.5t-63.5 67t-39 85.5t-16 108
q0 169 120.5 286t295.5 117q153 0 262.5 -79t155.5 -222l2 -10l-123 -31l-2 8q-68 209 -295 209q-123 0 -206 -80t-83 -198q0 -112 80 -170.5t264 -106.5q40 -11 62 -17.5t62.5 -20t65 -25t60 -30.5t57 -38t46.5 -47t38.5 -58t23 -69.5t9.5 -83.5q0 -61 -17.5 -119.5
t-55 -112.5t-91 -95t-132.5 -65t-173 -24zM184 328l-86 -27q39 -125 162.5 -217t300.5 -92q112 0 201 34t142.5 91t81.5 126.5t28 145.5q0 42 -9 79.5t-21.5 66.5t-37 55.5t-44 44.5t-55 36.5t-58 29t-64 24t-62 19.5t-63.5 18q-70 18 -115.5 33t-95.5 39.5t-78.5 53
t-47.5 71t-19 96.5q0 127 88 212t219 85q234 0 309 -213l88 22q-46 133 -149.5 206t-247.5 73q-167 0 -282 -111t-115 -274q0 -44 9.5 -82.5t23 -68t38.5 -57t46.5 -46.5t57 -37.5t60 -29.5t65 -24t62.5 -19.5t62 -16.5q70 -19 114 -34t92.5 -39t75.5 -51t44.5 -68t17.5 -93
q0 -139 -98.5 -222t-262.5 -83q-145 0 -245 72.5t-132 171.5zM606 1896l221 -282h-112l-158 201l-158 -201h-114l221 282h100zM557 1845l166 -213h68l-193 248h-82l-194 -248h69z" />
    <glyph glyph-name="scircumflex" unicode="&#x15d;" horiz-adv-x="886" 
d="M440 -27q-144 0 -242.5 71t-129.5 169l-5 10l121 41l2 -10q19 -61 87 -107.5t167 -46.5q112 0 177 50.5t65 138.5q0 76 -52 109.5t-184 60.5q-58 12 -102 25.5t-92 37.5t-79 54.5t-51 77.5t-20 106q0 132 94.5 219.5t235.5 87.5q120 0 208 -63.5t120 -172.5l2 -8
l-121 -32l-2 8q-22 68 -76.5 105.5t-130.5 37.5q-89 0 -147 -52t-58 -130q0 -75 59.5 -113t190.5 -65q30 -6 46.5 -9.5t48 -12t50.5 -16.5t47 -21.5t45 -28t37.5 -35.5t31.5 -45.5t18.5 -56t7.5 -68.5q0 -60 -22.5 -115.5t-66 -101t-116 -72.5t-164.5 -27zM172 240l-86 -29
q34 -91 127 -155t227 -64q75 0 135.5 18t100 47t66 68.5t38 80t11.5 83.5q0 40 -9.5 74t-25 59t-41 46t-50 34.5t-60 26t-64 20t-68.5 16.5q-136 27 -199 69t-63 126q0 86 62 142t159 56q81 0 138.5 -38t82.5 -107l86 23q-32 99 -114 156t-193 57q-134 0 -222.5 -82.5
t-88.5 -206.5q0 -55 19 -99t49 -73t75.5 -51.5t88.5 -35.5t98 -24q137 -28 193 -66.5t56 -121.5q0 -95 -70 -151t-190 -56q-102 0 -173 46.5t-95 111.5zM487 1487l222 -283h-113l-158 201l-157 -201h-115l221 283h100zM438 1436l166 -213h68l-193 247h-82l-194 -247h69z" />
    <glyph glyph-name="Scedilla" unicode="&#x15e;" horiz-adv-x="1110" 
d="M528 -492q-86 0 -166 41l-8 5l56 100l8 -4q50 -24 100.5 -25.5t83.5 19.5q43 25 43 80q0 50 -39 75q-24 16 -63 13.5t-76 -23.5l-53 70l57 123q-152 23 -256 117.5t-139 213.5l121 37l2 -8q27 -97 123.5 -169.5t238.5 -72.5q156 0 249 79t93 210q0 41 -10 73.5t-32 57.5
t-47.5 44t-67.5 36t-79 28.5t-94 26.5q-51 14 -80 22.5t-81.5 28t-85 38.5t-73 50.5t-63.5 67t-39 85.5t-16 108q0 169 120.5 286t295.5 117q154 0 264.5 -81t155.5 -230l-123 -31q-66 217 -297 217q-123 0 -206 -80t-83 -198q0 -112 80 -170.5t264 -106.5q40 -11 62 -17.5
t62.5 -20t65 -25t60 -30.5t57 -38t46.5 -47t38.5 -58t23 -69.5t9.5 -83.5q0 -77 -28.5 -149t-83.5 -132.5t-146.5 -97t-206.5 -37.5l-37 -73q100 19 172 -35q68 -55 68 -146q0 -113 -96 -174q-61 -37 -144 -37zM418 -369l-39 -69q72 -35 149.5 -35t135.5 35q86 55 86 157
q0 84 -62 131q-72 56 -174 27l-18 -4l57 119h8q112 0 201 34t142.5 91t81.5 126.5t28 145.5q0 42 -9 79.5t-21.5 66.5t-37 55.5t-44 44.5t-55 36.5t-58 29t-64 24t-62 19.5t-63.5 18q-70 18 -115.5 33t-95.5 39.5t-78.5 53t-47.5 71t-19 96.5q0 127 88 212t219 85
q234 0 309 -213l88 22q-46 133 -149.5 206t-247.5 73q-167 0 -282 -111t-115 -274q0 -44 9.5 -82.5t23 -68t38.5 -57t46.5 -46.5t57 -37.5t60 -29.5t65 -24t62.5 -19.5t62 -16.5q70 -19 114 -34t92.5 -39t75.5 -51t44.5 -68t17.5 -93q0 -139 -98.5 -222t-262.5 -83
q-145 0 -245 72.5t-132 171.5l-86 -27q36 -110 137.5 -197t251.5 -106l13 -2l-66 -135l37 -49q88 40 145 2q46 -29 46 -90q0 -62 -50 -97q-36 -22 -89 -21t-105 25z" />
    <glyph glyph-name="scedilla" unicode="&#x15f;" horiz-adv-x="886" 
d="M422 -492q-86 0 -166 41l-8 5l55 100l8 -4q50 -24 101 -25.5t84 19.5q43 24 43 80q0 50 -39 75q-23 16 -61.5 14t-78.5 -24l-53 70l58 121q-110 19 -190 83t-109 160l118 41q18 -69 87 -116.5t171 -47.5q111 0 175.5 50.5t64.5 138.5q0 76 -52 109.5t-184 60.5
q-58 12 -102 25.5t-92 37.5t-79 54.5t-51 77.5t-20 106q0 132 94.5 219.5t235.5 87.5q121 0 210 -64t122 -180l-123 -32l-2 8q-22 68 -75.5 105.5t-131.5 37.5q-89 0 -146 -52t-57 -130q0 -75 58.5 -113t189.5 -65q39 -8 61 -13t62 -17.5t64.5 -25.5t55 -35.5t47.5 -49.5
t29.5 -66t12.5 -86q0 -56 -19 -108.5t-58.5 -99t-110 -75.5t-162.5 -31l-37 -75q100 19 172 -35q68 -55 68 -146q0 -112 -97 -174q-61 -37 -143 -37zM311 -369l-39 -69q72 -35 149 -35t136 35q86 55 86 157q0 85 -61 131q-76 59 -193 23l57 119h7q72 2 130.5 20.5t96.5 48
t63.5 68.5t36.5 78.5t11 81.5q0 56 -18.5 99.5t-45.5 71t-73 49t-85 33t-96 23.5q-136 27 -199 69t-63 126q0 86 62 142t159 56q81 0 138.5 -38t82.5 -107l86 23q-32 99 -114 156t-193 57q-134 0 -222.5 -82.5t-88.5 -206.5q0 -55 19 -99t49 -73t75.5 -51.5t88.5 -35.5
t98 -24q137 -28 193 -66.5t56 -121.5q0 -95 -69 -151t-189 -56q-103 0 -174.5 46.5t-95.5 111.5l-84 -29q29 -85 108.5 -143t182.5 -72l12 -2l-63 -133l37 -49q88 40 145 2q45 -28 45 -90q0 -63 -49 -97q-36 -22 -89.5 -21t-105.5 25z" />
    <glyph glyph-name="Scaron" unicode="&#x160;" horiz-adv-x="1110" 
d="M561 -27q-96 0 -180.5 29t-144 78t-100.5 108.5t-60 124.5l121 37l2 -8q27 -97 123.5 -169.5t238.5 -72.5q156 0 249 79t93 210q0 41 -10 73.5t-32 57.5t-47.5 44t-67.5 36t-79 28.5t-94 26.5q-51 14 -80 22.5t-81.5 28t-85 38.5t-73 50.5t-63.5 67t-39 85.5t-16 108
q0 169 120.5 286t295.5 117q153 0 262.5 -79t155.5 -222l2 -10l-123 -31l-2 8q-68 209 -295 209q-123 0 -206 -80t-83 -198q0 -112 80 -170.5t264 -106.5q40 -11 62 -17.5t62.5 -20t65 -25t60 -30.5t57 -38t46.5 -47t38.5 -58t23 -69.5t9.5 -83.5q0 -61 -17.5 -119.5
t-55 -112.5t-91 -95t-132.5 -65t-173 -24zM184 328l-86 -27q39 -125 162.5 -217t300.5 -92q112 0 201 34t142.5 91t81.5 126.5t28 145.5q0 42 -9 79.5t-21.5 66.5t-37 55.5t-44 44.5t-55 36.5t-58 29t-64 24t-62 19.5t-63.5 18q-70 18 -115.5 33t-95.5 39.5t-78.5 53
t-47.5 71t-19 96.5q0 127 88 212t219 85q234 0 309 -213l88 22q-46 133 -149.5 206t-247.5 73q-167 0 -282 -111t-115 -274q0 -44 9.5 -82.5t23 -68t38.5 -57t46.5 -46.5t57 -37.5t60 -29.5t65 -24t62.5 -19.5t62 -16.5q70 -19 114 -34t92.5 -39t75.5 -51t44.5 -68t17.5 -93
q0 -139 -98.5 -222t-262.5 -83q-145 0 -245 72.5t-132 171.5zM829 1896l-221 -282h-100l-221 282h114l158 -200l158 200h112zM324 1880l194 -248h82l193 248h-68l-166 -213l-166 213h-69z" />
    <glyph glyph-name="scaron" unicode="&#x161;" horiz-adv-x="886" 
d="M440 -27q-144 0 -242.5 71t-129.5 169l-5 10l121 41l2 -10q19 -61 87 -107.5t167 -46.5q112 0 177 50.5t65 138.5q0 76 -52 109.5t-184 60.5q-58 12 -102 25.5t-92 37.5t-79 54.5t-51 77.5t-20 106q0 132 94.5 219.5t235.5 87.5q120 0 208 -63.5t120 -172.5l2 -8
l-121 -32l-2 8q-22 68 -76.5 105.5t-130.5 37.5q-89 0 -147 -52t-58 -130q0 -75 59.5 -113t190.5 -65q30 -6 46.5 -9.5t48 -12t50.5 -16.5t47 -21.5t45 -28t37.5 -35.5t31.5 -45.5t18.5 -56t7.5 -68.5q0 -60 -22.5 -115.5t-66 -101t-116 -72.5t-164.5 -27zM172 240l-86 -29
q34 -91 127 -155t227 -64q75 0 135.5 18t100 47t66 68.5t38 80t11.5 83.5q0 40 -9.5 74t-25 59t-41 46t-50 34.5t-60 26t-64 20t-68.5 16.5q-136 27 -199 69t-63 126q0 86 62 142t159 56q81 0 138.5 -38t82.5 -107l86 23q-32 99 -114 156t-193 57q-134 0 -222.5 -82.5
t-88.5 -206.5q0 -55 19 -99t49 -73t75.5 -51.5t88.5 -35.5t98 -24q137 -28 193 -66.5t56 -121.5q0 -95 -70 -151t-190 -56q-102 0 -173 46.5t-95 111.5zM711 1487l-222 -283h-100l-221 283h115l157 -201l158 201h113zM205 1470l194 -247h82l193 247h-68l-166 -213l-166 213
h-69z" />
    <glyph glyph-name="Tcommaaccent" unicode="&#x162;" horiz-adv-x="1097" 
d="M612 1307v-1307h-127v1307h-387v127h901v-127h-387zM504 1325v-1309h90v1309h387v90h-864v-90h387zM612 -213l-163 -303h-93l111 303h145zM479 -231l-98 -267h55l146 267h-103z" />
    <glyph glyph-name="tcommaaccent" unicode="&#x163;" horiz-adv-x="710" 
d="M522 -10q-135 0 -203 63q-86 77 -86 262v600h-178v127h178v215h127v-215h240v-127h-240v-600q0 -121 46 -161q50 -47 198 -33v-127q-66 -4 -82 -4zM74 1024v-90h178v-619q0 -175 80 -249q77 -69 254 -56v90q-137 -12 -193 39q-51 48 -51 176v619h240v90h-240v215h-90
v-215h-178zM459 -213l-164 -303h-92l110 303h146zM326 -231l-99 -267h56l145 267h-102z" />
    <glyph glyph-name="Tcaron" unicode="&#x164;" horiz-adv-x="1097" 
d="M612 1307v-1307h-127v1307h-387v127h901v-127h-387zM504 1325v-1309h90v1309h387v90h-864v-90h387zM821 1896l-221 -282h-100l-221 282h114l158 -200l158 200h112zM315 1880l195 -248h82l192 248h-67l-166 -213l-166 213h-70z" />
    <glyph glyph-name="tcaron" unicode="&#x165;" horiz-adv-x="710" 
d="M872 1458l-163 -303h-93l111 303h145zM739 1440l-98 -266h55l146 266h-103zM522 -10q-135 0 -203 63q-86 77 -86 262v600h-178v127h178v215h127v-215h240v-127h-240v-600q0 -121 46 -161q50 -47 198 -33v-127q-66 -4 -82 -4zM74 1024v-90h178v-619q0 -175 80 -249
q77 -69 254 -56v90q-137 -12 -193 39q-51 48 -51 176v619h240v90h-240v215h-90v-215h-178z" />
    <glyph glyph-name="Tbar" unicode="&#x166;" horiz-adv-x="1099" 
d="M612 770v-770h-125v770h-272v109h272v428h-387v127h899v-127h-387v-428h273v-109h-273zM506 788v-772h88v772h272v72h-272v465h389v90h-866v-90h389v-465h-273v-72h273z" />
    <glyph glyph-name="tbar" unicode="&#x167;" horiz-adv-x="710" 
d="M522 -10q-135 0 -200 63q-89 77 -89 262v285h-178v109h178v206h-178v127h178v215h127v-215h240v-127h-240v-206h240v-109h-240v-285q0 -118 46 -161q49 -46 198 -35v-123q-50 -6 -82 -6zM74 690v-72h178v-303q0 -175 80 -249q77 -69 254 -56v90q-137 -12 -193 39
q-51 48 -51 176v303h240v72h-240v244h240v90h-240v215h-90v-215h-178v-90h178v-244h-178z" />
    <glyph glyph-name="Utilde" unicode="&#x168;" horiz-adv-x="1343" 
d="M672 -27q-232 0 -371 154t-139 410v897h125v-897q0 -205 102.5 -321t282.5 -116q181 0 283 115.5t102 321.5v897h125v-897q0 -257 -138.5 -410.5t-371.5 -153.5zM270 1415h-90v-878q0 -249 134 -397t358 -148t358.5 148t134.5 397v878h-90v-878q0 -211 -108.5 -333
t-294.5 -122t-294 122t-108 333v878zM492 1597l-107 15q12 90 55 136t111 46q51 0 139 -45q72 -35 98 -35q58 0 66 86l109 -16q-13 -88 -56.5 -133t-111.5 -45q-52 0 -140 45q-72 35 -100 35q-25 0 -41 -19t-22 -70zM406 1628l71 -10q13 86 78 86q29 0 109 -37
q80 -43 131 -43q120 0 145 143l-70 13q-18 -84 -82 -84q-26 0 -106 37q-92 43 -131 43q-58 0 -95.5 -38.5t-49.5 -109.5z" />
    <glyph glyph-name="utilde" unicode="&#x169;" 
d="M571 -27q-104 0 -186.5 40t-132 106t-75 145t-25.5 164v614h124v-614q0 -17 1.5 -36t8 -53t18 -64t34 -63t52 -57t76.5 -39.5t105 -15.5q86 0 153 33t103.5 84t55 105.5t18.5 105.5v614h127v-1042h-127v139q-57 -80 -142.5 -123t-187.5 -43zM260 1024h-90v-596
q0 -82 24.5 -157.5t72 -139t126.5 -101.5t178 -38q221 0 332 182l17 27v-185h90v1008h-90v-596q0 -42 -11.5 -87t-38.5 -92t-66 -83.5t-99.5 -60t-133.5 -23.5q-82 0 -144.5 31t-97.5 82.5t-52 110.5t-17 122v596zM408 1188l-107 14q12 90 55 136t111 46q51 0 139 -45
q70 -34 99 -34q57 0 65 86l109 -17q-13 -88 -56.5 -133t-111.5 -45q-52 0 -140 45q-72 35 -100 35q-25 0 -41 -18.5t-22 -69.5zM322 1219l71 -11q13 86 78 86q29 0 109 -37q80 -43 131 -43q120 0 145 144l-70 12q-9 -43 -28.5 -63.5t-52.5 -20.5q-27 0 -107 37
q-92 43 -131 43q-58 0 -95.5 -38t-49.5 -109z" />
    <glyph glyph-name="Umacron" unicode="&#x16a;" horiz-adv-x="1343" 
d="M672 -27q-232 0 -371 154t-139 410v897h125v-897q0 -205 102.5 -321t282.5 -116q181 0 283 115.5t102 321.5v897h125v-897q0 -257 -138.5 -410.5t-371.5 -153.5zM270 1415h-90v-878q0 -249 134 -397t358 -148t358.5 148t134.5 397v878h-90v-878q0 -211 -108.5 -333
t-294.5 -122t-294 122t-108 333v878zM922 1782v-107h-500v107h500zM440 1765v-71h463v71h-463z" />
    <glyph glyph-name="umacron" unicode="&#x16b;" 
d="M571 -27q-104 0 -186.5 40t-132 106t-75 145t-25.5 164v614h124v-614q0 -17 1.5 -36t8 -53t18 -64t34 -63t52 -57t76.5 -39.5t105 -15.5q86 0 153 33t103.5 84t55 105.5t18.5 105.5v614h127v-1042h-127v139q-57 -80 -142.5 -123t-187.5 -43zM260 1024h-90v-596
q0 -82 24.5 -157.5t72 -139t126.5 -101.5t178 -38q221 0 332 182l17 27v-185h90v1008h-90v-596q0 -42 -11.5 -87t-38.5 -92t-66 -83.5t-99.5 -60t-133.5 -23.5q-82 0 -144.5 31t-97.5 82.5t-52 110.5t-17 122v596zM838 1372v-106h-500v106h500zM356 1356v-72h463v72h-463z
" />
    <glyph glyph-name="Ubreve" unicode="&#x16c;" horiz-adv-x="1343" 
d="M672 -27q-232 0 -371 154t-139 410v897h125v-897q0 -205 102.5 -321t282.5 -116q181 0 283 115.5t102 321.5v897h125v-897q0 -257 -138.5 -410.5t-371.5 -153.5zM270 1415h-90v-878q0 -249 134 -397t358 -148t358.5 148t134.5 397v878h-90v-878q0 -211 -108.5 -333
t-294.5 -122t-294 122t-108 333v878zM672 1608q-123 0 -194 75t-79 181h109q2 -21 8.5 -41.5t23 -47t50.5 -43t82 -16.5q49 0 83.5 16.5t51 43t23 47t8.5 41.5h108q-8 -106 -79 -181t-195 -75zM492 1845h-72q10 -88 75.5 -153.5t176.5 -65.5q112 0 178 65t76 154h-72
q-10 -62 -55 -104.5t-127 -42.5q-81 0 -125.5 42.5t-54.5 104.5z" />
    <glyph glyph-name="ubreve" unicode="&#x16d;" 
d="M571 -27q-104 0 -186.5 40t-132 106t-75 145t-25.5 164v614h124v-614q0 -17 1.5 -36t8 -53t18 -64t34 -63t52 -57t76.5 -39.5t105 -15.5q86 0 153 33t103.5 84t55 105.5t18.5 105.5v614h127v-1042h-127v139q-57 -80 -142.5 -123t-187.5 -43zM260 1024h-90v-596
q0 -82 24.5 -157.5t72 -139t126.5 -101.5t178 -38q221 0 332 182l17 27v-185h90v1008h-90v-596q0 -42 -11.5 -87t-38.5 -92t-66 -83.5t-99.5 -60t-133.5 -23.5q-82 0 -144.5 31t-97.5 82.5t-52 110.5t-17 122v596zM588 1198q-123 0 -194 75t-79 181h109q2 -21 8.5 -41.5
t23 -46.5t50.5 -42.5t82 -16.5q49 0 83.5 16.5t51 43t23 46.5t8.5 41h108q-8 -106 -79 -181t-195 -75zM408 1436h-72q10 -88 75.5 -153.5t176.5 -65.5q112 0 178 65t76 154h-72q-10 -62 -55 -105t-127 -43q-81 0 -125.5 43t-54.5 105z" />
    <glyph glyph-name="Uring" unicode="&#x16e;" horiz-adv-x="1343" 
d="M672 -27q-232 0 -371 154t-139 410v897h125v-897q0 -205 102.5 -321t282.5 -116q181 0 283 115.5t102 321.5v897h125v-897q0 -257 -138.5 -410.5t-371.5 -153.5zM270 1415h-90v-878q0 -249 134 -397t358 -148t358.5 148t134.5 397v878h-90v-878q0 -211 -108.5 -333
t-294.5 -122t-294 122t-108 333v878zM672 1532q-92 0 -157.5 65.5t-65.5 157.5t65.5 157.5t157.5 65.5q94 0 159.5 -65.5t65.5 -157.5t-65.5 -157.5t-159.5 -65.5zM672 1962q-85 0 -145 -60.5t-60 -146.5q0 -85 60 -145t145 -60q86 0 146.5 60t60.5 145q0 86 -60.5 146.5
t-146.5 60.5zM672 1622q-56 0 -94.5 39t-38.5 94t38.5 94t94.5 39t95.5 -39t39.5 -94t-39.5 -94t-95.5 -39zM672 1872q-47 0 -81 -35t-34 -82t34 -81t81 -34q49 0 82.5 33.5t33.5 81.5t-33.5 82.5t-82.5 34.5z" />
    <glyph glyph-name="uring" unicode="&#x16f;" 
d="M571 -27q-104 0 -186.5 40t-132 106t-75 145t-25.5 164v614h124v-614q0 -17 1.5 -36t8 -53t18 -64t34 -63t52 -57t76.5 -39.5t105 -15.5q86 0 153 33t103.5 84t55 105.5t18.5 105.5v614h127v-1042h-127v139q-57 -80 -142.5 -123t-187.5 -43zM260 1024h-90v-596
q0 -82 24.5 -157.5t72 -139t126.5 -101.5t178 -38q221 0 332 182l17 27v-185h90v1008h-90v-596q0 -42 -11.5 -87t-38.5 -92t-66 -83.5t-99.5 -60t-133.5 -23.5q-82 0 -144.5 31t-97.5 82.5t-52 110.5t-17 122v596zM588 1143q-92 0 -157.5 65.5t-65.5 157.5t65.5 157.5
t157.5 65.5q94 0 159.5 -65.5t65.5 -157.5t-65.5 -157.5t-159.5 -65.5zM588 1573q-85 0 -145 -60.5t-60 -146.5q0 -85 60 -145t145 -60q86 0 146.5 60t60.5 145q0 86 -60.5 146.5t-146.5 60.5zM588 1233q-56 0 -94.5 38.5t-38.5 94.5t38.5 94.5t94.5 38.5t95.5 -39t39.5 -94
t-39.5 -94t-95.5 -39zM588 1483q-47 0 -81 -35t-34 -82t34 -81t81 -34q49 0 83 33.5t34 81.5t-34 82.5t-83 34.5z" />
    <glyph glyph-name="Uhungarumlaut" unicode="&#x170;" horiz-adv-x="1343" 
d="M672 -27q-232 0 -371 154t-139 410v897h125v-897q0 -205 102.5 -321t282.5 -116q181 0 283 115.5t102 321.5v897h125v-897q0 -257 -138.5 -410.5t-371.5 -153.5zM270 1415h-90v-878q0 -249 134 -397t358 -148t358.5 148t134.5 397v878h-90v-878q0 -211 -108.5 -333
t-294.5 -122t-294 122t-108 333v878zM741 1896l-196 -282h-86l133 282h149zM602 1880l-115 -248h50l170 248h-105zM1047 1896l-197 -282h-86l131 282h152zM907 1880l-114 -248h47l172 248h-105z" />
    <glyph glyph-name="uhungarumlaut" unicode="&#x171;" 
d="M571 -27q-104 0 -186.5 40t-132 106t-75 145t-25.5 164v614h124v-614q0 -17 1.5 -36t8 -53t18 -64t34 -63t52 -57t76.5 -39.5t105 -15.5q86 0 153 33t103.5 84t55 105.5t18.5 105.5v614h127v-1042h-127v139q-57 -80 -142.5 -123t-187.5 -43zM260 1024h-90v-596
q0 -82 24.5 -157.5t72 -139t126.5 -101.5t178 -38q221 0 332 182l17 27v-185h90v1008h-90v-596q0 -42 -11.5 -87t-38.5 -92t-66 -83.5t-99.5 -60t-133.5 -23.5q-82 0 -144.5 31t-97.5 82.5t-52 110.5t-17 122v596zM659 1487l-196 -283h-86l133 283h149zM520 1470l-114 -247
h49l170 247h-105zM965 1487l-197 -283h-86l131 283h152zM825 1470l-114 -247h47l172 247h-105z" />
    <glyph glyph-name="Uogonek" unicode="&#x172;" horiz-adv-x="1343" 
d="M807 -463q-78 0 -136.5 51t-58.5 138q0 135 140 254q-44 -7 -78 -7q-236 0 -374 156.5t-138 425.5v879h127v-879q0 -217 100.5 -336t284.5 -119q183 0 283 119t100 336v879h127v-879q0 -200 -76.5 -340t-218.5 -201q-66 -39 -113 -113.5t-47 -136.5q0 -55 31 -83
q39 -33 123 -21l10 2v-113l-6 -2q-38 -10 -80 -10zM784 2l41 8l-34 -24q-21 -15 -42 -34.5t-51 -53.5t-48.5 -79.5t-18.5 -92.5q0 -79 52.5 -124.5t123.5 -45.5q31 0 67 8v78q-82 -12 -124 24q-39 29 -39 98q0 66 50 145.5t120 121.5q138 60 211 194.5t73 329.5v860h-90
v-860q0 -225 -105 -349t-296 -124q-192 0 -298 123.5t-106 349.5v860h-90v-860q0 -261 132.5 -412t361.5 -151q52 0 110 10z" />
    <glyph glyph-name="uogonek" unicode="&#x173;" 
d="M940 -463q-78 0 -136.5 51t-58.5 138q0 80 48 152t118 122h-10v139q-57 -80 -142.5 -123t-187.5 -43q-104 0 -187 40t-132.5 106t-75.5 145t-26 164v614h126v-614q0 -17 1.5 -36t8 -53t18 -64t34 -63t52 -57t76.5 -39.5t105 -15.5q69 0 126 22t94 56.5t62.5 79t36.5 87.5
t11 83v614h125v-1038q-72 -46 -118 -113.5t-46 -126.5q0 -57 33 -83q36 -33 121 -21l10 2v-113l-6 -2q-38 -10 -80 -10zM920 201v-185h53l-27 -16q-73 -44 -127.5 -118t-54.5 -156q0 -79 52.5 -124.5t123.5 -45.5q30 0 70 8v78q-85 -12 -127 24q-39 31 -39 98q0 62 47 132
t119 116v1012h-90v-596q0 -42 -11.5 -87t-38.5 -92t-66 -83.5t-99.5 -60t-133.5 -23.5q-67 0 -121 21t-89 55t-59 79.5t-34 93t-10 97.5v596h-90v-596q0 -82 25 -158t72.5 -139t127 -101t178.5 -38q221 0 349 209z" />
    <glyph glyph-name="Wcircumflex" unicode="&#x174;" horiz-adv-x="2025" 
d="M1966 1434l-479 -1434h-127l-346 1196l-346 -1196h-127l-478 1434h132l405 -1213l350 1213h127l353 -1213l403 1213h133zM1014 1260l360 -1244h101l464 1399h-94l-418 -1253l-362 1253h-100l-365 -1253l-418 1253h-94l465 -1399h100zM1061 1896l221 -282h-113l-157 201
l-158 -201h-115l222 282h100zM1012 1845l166 -213h67l-192 248h-82l-195 -248h70z" />
    <glyph glyph-name="wcircumflex" unicode="&#x175;" horiz-adv-x="1548" 
d="M1511 1042l-368 -1042h-127l-242 809l-242 -809h-126l-369 1042h133l297 -837l250 837h114l250 -837l297 837h133zM774 870l254 -854h100l357 1008h-94l-312 -879l-260 879h-90l-260 -879l-311 879h-95l357 -1008h100zM823 1487l221 -283h-112l-158 201l-158 -201h-114
l221 283h100zM774 1436l166 -213h68l-193 247h-82l-194 -247h69z" />
    <glyph glyph-name="Ycircumflex" unicode="&#x176;" horiz-adv-x="1361" 
d="M745 516v-516h-127v516l-565 918h148l481 -797l479 797h148zM637 520v-504h90v504l549 895h-105l-489 -813l-492 813h-104zM729 1896l221 -282h-112l-158 201l-158 -201h-114l221 282h100zM680 1845l166 -213h67l-192 248h-82l-195 -248h70z" />
    <glyph glyph-name="ycircumflex" unicode="&#x177;" horiz-adv-x="1028" 
d="M995 1042l-585 -1433h-136l189 461l-430 972h135l4 -6l356 -807l332 813h135zM483 70l-182 -443h98l570 1397h-97l-344 -840l-370 840h-97zM563 1487l221 -283h-112l-158 201l-158 -201h-114l221 283h100zM514 1436l166 -213h68l-193 247h-82l-194 -247h69z" />
    <glyph glyph-name="Ydieresis" unicode="&#x178;" horiz-adv-x="1361" 
d="M745 516v-516h-127v516l-565 918h148l481 -797l479 797h148zM637 520v-504h90v504l549 895h-105l-489 -813l-492 813h-104zM496 1647q-37 0 -63.5 26.5t-26.5 63.5q0 38 26.5 65t63.5 27q38 0 65 -27t27 -65q0 -37 -27 -63.5t-65 -26.5zM496 1812q-31 0 -52.5 -22
t-21.5 -53q0 -30 22 -52t52 -22t51.5 22t21.5 52q0 31 -21 53t-52 22zM862 1647q-38 0 -65 26.5t-27 63.5q0 38 27 65t65 27q37 0 63.5 -27t26.5 -65q0 -37 -26.5 -63.5t-63.5 -26.5zM862 1812q-31 0 -52.5 -22t-21.5 -53q0 -30 22 -52t52 -22t52 22t22 52q0 31 -21.5 53
t-52.5 22z" />
    <glyph glyph-name="Zacute" unicode="&#x179;" horiz-adv-x="1179" 
d="M1081 125v-125h-983v119l2 2l805 1186h-770v127h928v-121l-2 -2l-805 -1186h825zM117 113v-97h946v90h-842l823 1213v96h-890v-90h786zM813 1896l-195 -282h-88l134 282h149zM676 1880l-117 -248h49l172 248h-104z" />
    <glyph glyph-name="zacute" unicode="&#x17a;" horiz-adv-x="935" 
d="M838 125v-125h-758v119v2l577 794h-561v127h725v-120l-2 -2l-577 -795h596zM96 113v-97h725v90h-614l596 822v96h-688v-90h577zM659 1487l-194 -283h-88l133 283h149zM522 1470l-116 -247h49l172 247h-105z" />
    <glyph glyph-name="Zdotaccent" unicode="&#x17b;" horiz-adv-x="1179" 
d="M1081 125v-125h-983v119l2 2l805 1186h-770v127h928v-121l-2 -2l-805 -1186h825zM117 113v-97h946v90h-842l823 1213v96h-890v-90h786zM590 1647q-38 0 -65 26.5t-27 63.5q0 38 27 65t65 27t65 -27t27 -65q0 -37 -27 -63.5t-65 -26.5zM590 1812q-31 0 -52.5 -22
t-21.5 -53q0 -30 22 -52t52 -22t52 22t22 52q0 31 -21.5 53t-52.5 22z" />
    <glyph glyph-name="zdotaccent" unicode="&#x17c;" horiz-adv-x="935" 
d="M838 125v-125h-758v119v2l577 794h-561v127h725v-120l-2 -2l-577 -795h596zM96 113v-97h725v90h-614l596 822v96h-688v-90h577zM457 1237q-38 0 -65 26.5t-27 63.5q0 38 27 65t65 27t65 -27t27 -65q0 -37 -27 -63.5t-65 -26.5zM457 1403q-31 0 -52.5 -22.5t-21.5 -53.5
q0 -30 22 -52t52 -22t51.5 22t21.5 52q0 31 -21.5 53.5t-51.5 22.5z" />
    <glyph glyph-name="Zcaron" unicode="&#x17d;" horiz-adv-x="1179" 
d="M1081 125v-125h-983v119l2 2l805 1186h-770v127h928v-121l-2 -2l-805 -1186h825zM117 113v-97h946v90h-842l823 1213v96h-890v-90h786zM862 1896l-221 -282h-100l-222 282h115l158 -200l158 200h112zM356 1880l195 -248h82l192 248h-67l-166 -213l-166 213h-70z" />
    <glyph glyph-name="zcaron" unicode="&#x17e;" horiz-adv-x="935" 
d="M838 125v-125h-758v119v2l577 794h-561v127h725v-120l-2 -2l-577 -795h596zM96 113v-97h725v90h-614l596 822v96h-688v-90h577zM729 1487l-221 -283h-100l-222 283h115l158 -201l157 201h113zM223 1470l195 -247h82l192 247h-67l-166 -213l-166 213h-70z" />
    <glyph glyph-name="longs" unicode="&#x17f;" horiz-adv-x="688" 
d="M375 1051v-1051h-127v915h-182v127h182v9q0 403 375 403h10v-127h-10q-132 0 -190 -64t-58 -212zM266 934v-918h90v1035q0 152 61.5 223t196.5 72v90q-348 -6 -348 -385v-27h-182v-90h182z" />
    <glyph glyph-name="AEacute" unicode="&#x1fc;" horiz-adv-x="1916" 
d="M1815 125v-125h-799v397h-623l-198 -397h-136l717 1434h1020v-127h-655v-502h608v-127h-608v-553h674zM1032 414v-398h764v90h-674v590h611v90h-611v539h656v90h-992l-698 -1399h96l197 398h651zM1032 1325v-821h-606l412 821h194zM848 1307l-391 -785h559v785h-168z
M1346 1896l-195 -282h-88l133 282h150zM1208 1880l-116 -248h49l172 248h-105z" />
    <glyph glyph-name="aeacute" unicode="&#x1fd;" horiz-adv-x="1869" 
d="M1323 -27q-137 0 -253.5 65.5t-188.5 182.5q-14 -27 -34 -54.5t-58 -64t-83 -64t-112 -46.5t-143 -19q-164 0 -265.5 82t-101.5 215q0 121 74 195q43 43 106.5 69.5t151.5 36.5t150.5 12t168.5 1h64v88q0 52 -15 98t-46 85.5t-86.5 63t-129.5 23.5q-62 0 -119.5 -18.5
t-91 -39t-80.5 -55.5l-102 78q89 75 180.5 117.5t212.5 42.5q131 0 228 -58.5t141 -164.5q71 106 177.5 164.5t231.5 58.5q203 0 338 -141q164 -175 146 -469h-854q20 -156 130.5 -256.5t262.5 -100.5q94 0 168 36.5t141 115.5l107 -68q-167 -211 -416 -211zM872 244l9 14
l8 -14q67 -118 182 -185t252 -67q235 0 389 188l-76 47q-128 -145 -313 -145q-161 0 -278 108.5t-136 274.5v10h858q6 133 -31 246.5t-112 191.5q-130 136 -324 136q-126 0 -231.5 -60.5t-171.5 -169.5l-10 -16l-6 18q-38 107 -134 167.5t-225 60.5q-114 0 -200 -38.5
t-164 -103.5l73 -55q65 49 132.5 77.5t158.5 28.5q78 0 137 -25.5t92.5 -68t49.5 -91t16 -101.5v-105h-82q-87 0 -131 -0.5t-122.5 -6.5t-125.5 -17t-99.5 -34t-86.5 -56q-68 -68 -68 -183q0 -125 96 -201.5t253 -76.5q76 0 143 19.5t110.5 47t80.5 64.5t55 65t32 56z
M451 82q-120 0 -187 49.5t-67 138.5q0 79 49 125q31 31 82.5 50t109.5 24.5t125.5 7.5t128.5 0l125 -2v-145q-9 -37 -32.5 -76t-65.5 -79.5t-112 -66.5t-156 -26zM604 461q-125 0 -212.5 -16t-133.5 -62q-43 -43 -43 -113q0 -45 20 -78t46.5 -50t63 -27.5t60 -12.5t46.5 -2
q82 0 148.5 24.5t106.5 62.5t62.5 75t30.5 72v125q-166 2 -195 2zM1675 565h-766v10q19 169 127.5 276t263.5 107q152 0 254 -106.5t121 -286.5zM928 584h727q-19 161 -116.5 259.5t-238.5 98.5q-146 0 -249 -99.5t-123 -258.5zM1157 1487l-194 -283h-89l134 283h149z
M1020 1470l-117 -247h49l172 247h-104z" />
    <glyph glyph-name="Oslashacute" unicode="&#x1fe;" horiz-adv-x="1652" 
d="M829 -27q-145 0 -275 54t-230 155l-129 -116l-72 79l129 119q-148 199 -148 453q0 205 95.5 375t262 268t367.5 98q143 0 274 -53.5t232 -153.5l127 117l74 -80l-131 -119q147 -201 147 -452q0 -153 -56.5 -291t-152.5 -237.5t-230 -157.5t-284 -58zM197 90l127 117l6 -6
q98 -101 227 -155t272 -54q146 0 276.5 56.5t224.5 152.5t149 231t55 285q0 249 -148 448l-6 6l129 117l-47 53l-129 -116l-6 6q-98 101 -227.5 155t-270.5 54q-195 0 -357.5 -95.5t-255.5 -261.5t-93 -366q0 -256 149 -449l4 -6l-129 -119zM829 82q-123 0 -234.5 46
t-197.5 132l-6 8l924 842l6 -8q123 -171 123 -385q0 -175 -81.5 -321t-223 -230t-310.5 -84zM1311 1083l-895 -817q174 -166 413 -166q165 0 302 81.5t216.5 223.5t79.5 312q0 204 -116 366zM1268 1165l-924 -843l-6 8q-125 169 -125 387q0 174 81 319.5t223 229.5t312 84
q123 0 234.5 -46.5t196.5 -132.5zM829 1331q-165 0 -302.5 -81t-216.5 -222.5t-79 -310.5q0 -209 115 -369l895 817q-169 166 -412 166zM1049 1896l-195 -282h-88l133 282h150zM911 1880l-116 -248h49l172 248h-105z" />
    <glyph glyph-name="oslashacute" unicode="&#x1ff;" horiz-adv-x="1241" 
d="M623 -27q-207 0 -365 142l-106 -95l-72 80l106 97q-106 142 -106 323q0 148 73 274t198 199.5t272 73.5q212 0 362 -141l107 96l71 -80l-104 -96q104 -144 104 -326q0 -148 -72.5 -274t-197 -199.5t-270.5 -73.5zM154 45l104 94l6 -4q72 -69 165 -106t194 -37
q142 0 262.5 71t190 192.5t69.5 264.5q0 178 -107 322l-4 6l105 96l-49 51l-105 -94l-6 6q-148 142 -356 142q-142 0 -263 -70.5t-191.5 -192.5t-70.5 -266q0 -178 107 -319l6 -6l-107 -97zM623 82q-165 0 -291 113l-8 6l643 585l6 -8q82 -118 82 -258q0 -181 -126.5 -309.5
t-305.5 -128.5zM965 760l-613 -559q113 -101 271 -101q172 0 293.5 123.5t121.5 296.5q0 131 -73 240zM920 840l-644 -586l-6 8q-82 118 -82 258q0 181 127.5 309.5t307.5 128.5q166 0 288 -110zM623 942q-172 0 -294 -123.5t-122 -298.5q0 -130 72 -237l614 557
q-117 102 -270 102zM844 1487l-195 -283h-88l133 283h150zM707 1470l-117 -247h49l172 247h-104z" />
    <glyph glyph-name="Scommaaccent" unicode="&#x218;" horiz-adv-x="1110" 
d="M561 -27q-96 0 -180.5 29t-144 78t-100.5 108.5t-60 124.5l121 37l2 -8q27 -97 123.5 -169.5t238.5 -72.5q156 0 249 79t93 210q0 41 -10 73.5t-32 57.5t-47.5 44t-67.5 36t-79 28.5t-94 26.5q-51 14 -80 22.5t-81.5 28t-85 38.5t-73 50.5t-63.5 67t-39 85.5t-16 108
q0 169 120.5 286t295.5 117q153 0 262.5 -79t155.5 -222l2 -10l-123 -31l-2 8q-68 209 -295 209q-123 0 -206 -80t-83 -198q0 -112 80 -170.5t264 -106.5q40 -11 62 -17.5t62.5 -20t65 -25t60 -30.5t57 -38t46.5 -47t38.5 -58t23 -69.5t9.5 -83.5q0 -61 -17.5 -119.5
t-55 -112.5t-91 -95t-132.5 -65t-173 -24zM184 328l-86 -27q39 -125 162.5 -217t300.5 -92q112 0 201 34t142.5 91t81.5 126.5t28 145.5q0 42 -9 79.5t-21.5 66.5t-37 55.5t-44 44.5t-55 36.5t-58 29t-64 24t-62 19.5t-63.5 18q-70 18 -115.5 33t-95.5 39.5t-78.5 53
t-47.5 71t-19 96.5q0 127 88 212t219 85q234 0 309 -213l88 22q-46 133 -149.5 206t-247.5 73q-167 0 -282 -111t-115 -274q0 -44 9.5 -82.5t23 -68t38.5 -57t46.5 -46.5t57 -37.5t60 -29.5t65 -24t62.5 -19.5t62 -16.5q70 -19 114 -34t92.5 -39t75.5 -51t44.5 -68t17.5 -93
q0 -139 -98.5 -222t-262.5 -83q-145 0 -245 72.5t-132 171.5zM621 -213l-164 -303h-92l110 303h146zM487 -231l-98 -267h55l146 267h-103z" />
    <glyph glyph-name="scommaaccent" unicode="&#x219;" horiz-adv-x="886" 
d="M440 -27q-144 0 -242.5 71t-129.5 169l-5 10l121 41l2 -10q19 -61 87 -107.5t167 -46.5q112 0 177 50.5t65 138.5q0 76 -52 109.5t-184 60.5q-58 12 -102 25.5t-92 37.5t-79 54.5t-51 77.5t-20 106q0 132 94.5 219.5t235.5 87.5q120 0 208 -63.5t120 -172.5l2 -8
l-121 -32l-2 8q-22 68 -76.5 105.5t-130.5 37.5q-89 0 -147 -52t-58 -130q0 -75 59.5 -113t190.5 -65q30 -6 46.5 -9.5t48 -12t50.5 -16.5t47 -21.5t45 -28t37.5 -35.5t31.5 -45.5t18.5 -56t7.5 -68.5q0 -60 -22.5 -115.5t-66 -101t-116 -72.5t-164.5 -27zM172 240l-86 -29
q34 -91 127 -155t227 -64q75 0 135.5 18t100 47t66 68.5t38 80t11.5 83.5q0 40 -9.5 74t-25 59t-41 46t-50 34.5t-60 26t-64 20t-68.5 16.5q-136 27 -199 69t-63 126q0 86 62 142t159 56q81 0 138.5 -38t82.5 -107l86 23q-32 99 -114 156t-193 57q-134 0 -222.5 -82.5
t-88.5 -206.5q0 -55 19 -99t49 -73t75.5 -51.5t88.5 -35.5t98 -24q137 -28 193 -66.5t56 -121.5q0 -95 -70 -151t-190 -56q-102 0 -173 46.5t-95 111.5zM506 -213l-164 -303h-92l110 303h146zM373 -231l-99 -267h56l145 267h-102z" />
    <glyph glyph-name="circumflex" unicode="&#x2c6;" horiz-adv-x="841" 
d="M469 1487l221 -283h-112l-158 201l-158 -201h-115l222 283h100zM420 1436l166 -213h67l-192 247h-82l-195 -247h70z" />
    <glyph glyph-name="caron" unicode="&#x2c7;" horiz-adv-x="841" 
d="M692 1487l-221 -283h-100l-221 283h114l158 -201l158 201h112zM186 1470l195 -247h82l192 247h-67l-166 -213l-166 213h-70z" />
    <glyph glyph-name="breve" unicode="&#x2d8;" horiz-adv-x="860" 
d="M430 1198q-123 0 -193.5 75t-78.5 181h108q2 -21 8.5 -41.5t23 -46.5t50.5 -42.5t82 -16.5q49 0 83.5 16.5t51 43t23 46.5t8.5 41h109q-8 -106 -79.5 -181t-195.5 -75zM250 1436h-72q10 -88 75.5 -153.5t176.5 -65.5q112 0 178 65t76 154h-72q-10 -62 -55 -105t-127 -43
q-81 0 -125.5 43t-54.5 105z" />
    <glyph glyph-name="dotaccent" unicode="&#x2d9;" horiz-adv-x="495" 
d="M248 1237q-38 0 -65 26.5t-27 63.5q0 38 27 65t65 27t65 -27t27 -65q0 -37 -27 -63.5t-65 -26.5zM248 1403q-31 0 -52.5 -22.5t-21.5 -53.5q0 -30 22 -52t52 -22t52 22t22 52q0 31 -21.5 53.5t-52.5 22.5z" />
    <glyph glyph-name="ring" unicode="&#x2da;" horiz-adv-x="761" 
d="M381 1122q-92 0 -157.5 66t-65.5 158t65.5 157.5t157.5 65.5q94 0 159.5 -65.5t65.5 -157.5t-66 -158t-159 -66zM381 1552q-85 0 -145 -60t-60 -146q0 -85 60 -145t145 -60q86 0 146.5 60t60.5 145q0 86 -60.5 146t-146.5 60zM381 1212q-55 0 -94 39t-39 95t39 94.5
t94 38.5q56 0 95.5 -39t39.5 -94t-39.5 -94.5t-95.5 -39.5zM381 1462q-47 0 -81 -34.5t-34 -81.5t34 -81t81 -34q49 0 83 33.5t34 81.5t-34 82t-83 34z" />
    <glyph glyph-name="ogonek" unicode="&#x2db;" horiz-adv-x="593" 
d="M346 16h92v-12q-73 -45 -119.5 -113t-46.5 -127q0 -53 33 -83q39 -33 123 -21l10 2v-113l-6 -2q-42 -10 -82 -10q-78 0 -136 51t-58 138t57 164t133 126zM254 -236q0 57 41 122.5t104 113.5h-45q-73 -46 -126.5 -119t-53.5 -155q0 -79 52.5 -124.5t123.5 -45.5q34 0 70 8
v78q-85 -12 -127 24q-39 31 -39 98z" />
    <glyph glyph-name="tilde" unicode="&#x2dc;" horiz-adv-x="890" 
d="M264 1188l-106 14q12 90 55 136t111 46q51 0 139 -45q70 -34 98 -34q58 0 66 86l108 -17q-13 -88 -56.5 -133t-111.5 -45q-51 0 -139 45q-72 35 -100 35q-25 0 -42 -18.5t-22 -69.5zM178 1219l72 -11q13 86 78 86q28 0 108 -37q80 -43 131 -43q67 0 101 41.5t45 102.5
l-70 12q-18 -84 -82 -84q-26 0 -106 37q-92 43 -131 43q-58 0 -96 -38t-50 -109z" />
    <glyph glyph-name="hungarumlaut" unicode="&#x2dd;" horiz-adv-x="890" 
d="M434 1487l-196 -283h-86l133 283h149zM295 1470l-115 -247h49l170 247h-104zM739 1487l-196 -283h-86l131 283h151zM600 1470l-115 -247h47l173 247h-105z" />
    <glyph glyph-name="Wgrave" unicode="&#x1e80;" horiz-adv-x="2025" 
d="M1966 1434l-479 -1434h-127l-346 1196l-346 -1196h-127l-478 1434h132l405 -1213l350 1213h127l353 -1213l403 1213h133zM1014 1260l360 -1244h101l464 1399h-94l-418 -1253l-362 1253h-100l-365 -1253l-418 1253h-94l465 -1399h100zM915 1896l134 -282h-86l-197 282h149
zM801 1880l170 -248h49l-115 248h-104z" />
    <glyph glyph-name="wgrave" unicode="&#x1e81;" horiz-adv-x="1548" 
d="M1511 1042l-368 -1042h-127l-242 809l-242 -809h-126l-369 1042h133l297 -837l250 837h114l250 -837l297 837h133zM774 870l254 -854h100l357 1008h-94l-312 -879l-260 879h-90l-260 -879l-311 879h-95l357 -1008h100zM676 1487l133 -283h-86l-197 283h150zM561 1470
l170 -247h49l-114 247h-105z" />
    <glyph glyph-name="Wacute" unicode="&#x1e82;" horiz-adv-x="2025" 
d="M1966 1434l-479 -1434h-127l-346 1196l-346 -1196h-127l-478 1434h132l405 -1213l350 1213h127l353 -1213l403 1213h133zM1014 1260l360 -1244h101l464 1399h-94l-418 -1253l-362 1253h-100l-365 -1253l-418 1253h-94l465 -1399h100zM1262 1896l-195 -282h-88l133 282
h150zM1124 1880l-116 -248h49l172 248h-105z" />
    <glyph glyph-name="wacute" unicode="&#x1e83;" horiz-adv-x="1548" 
d="M1511 1042l-368 -1042h-127l-242 809l-242 -809h-126l-369 1042h133l297 -837l250 837h114l250 -837l297 837h133zM774 870l254 -854h100l357 1008h-94l-312 -879l-260 879h-90l-260 -879l-311 879h-95l357 -1008h100zM1018 1487l-195 -283h-88l133 283h150zM881 1470
l-117 -247h49l172 247h-104z" />
    <glyph glyph-name="Wdieresis" unicode="&#x1e84;" horiz-adv-x="2025" 
d="M1966 1434l-479 -1434h-127l-346 1196l-346 -1196h-127l-478 1434h132l405 -1213l350 1213h127l353 -1213l403 1213h133zM1014 1260l360 -1244h101l464 1399h-94l-418 -1253l-362 1253h-100l-365 -1253l-418 1253h-94l465 -1399h100zM827 1647q-37 0 -63.5 26.5
t-26.5 63.5q0 38 26.5 65t63.5 27q38 0 65.5 -27t27.5 -65q0 -37 -27.5 -63.5t-65.5 -26.5zM827 1812q-31 0 -52 -22t-21 -53q0 -30 21.5 -52t51.5 -22t52 22t22 52q0 31 -21.5 53t-52.5 22zM1194 1647q-38 0 -65 26.5t-27 63.5q0 38 27 65t65 27q37 0 63.5 -27t26.5 -65
q0 -37 -26.5 -63.5t-63.5 -26.5zM1194 1812q-31 0 -52.5 -22t-21.5 -53q0 -30 22 -52t52 -22t52 22t22 52q0 31 -21.5 53t-52.5 22z" />
    <glyph glyph-name="wdieresis" unicode="&#x1e85;" horiz-adv-x="1548" 
d="M1511 1042l-368 -1042h-127l-242 809l-242 -809h-126l-369 1042h133l297 -837l250 837h114l250 -837l297 837h133zM774 870l254 -854h100l357 1008h-94l-312 -879l-260 879h-90l-260 -879l-311 879h-95l357 -1008h100zM590 1237q-37 0 -63.5 26.5t-26.5 63.5
q0 38 26.5 65t63.5 27q38 0 65 -27t27 -65q0 -37 -27 -63.5t-65 -26.5zM590 1403q-31 0 -52.5 -22.5t-21.5 -53.5q0 -30 22 -52t52 -22t52 22t22 52q0 31 -21.5 53.5t-52.5 22.5zM956 1237q-38 0 -65 26.5t-27 63.5q0 38 27 65t65 27q37 0 64 -27t27 -65q0 -37 -27 -63.5
t-64 -26.5zM956 1403q-30 0 -51.5 -22.5t-21.5 -53.5q0 -30 21.5 -52t51.5 -22t52 22t22 52q0 31 -21.5 53.5t-52.5 22.5z" />
    <glyph glyph-name="Ygrave" unicode="&#x1ef2;" horiz-adv-x="1361" 
d="M745 516v-516h-127v516l-565 918h148l481 -797l479 797h148zM637 520v-504h90v504l549 895h-105l-489 -813l-492 813h-104zM604 1896l133 -282h-86l-196 282h149zM489 1880l170 -248h50l-115 248h-105z" />
    <glyph glyph-name="ygrave" unicode="&#x1ef3;" horiz-adv-x="1028" 
d="M995 1042l-585 -1433h-136l189 461l-430 972h135l4 -6l356 -807l332 813h135zM483 70l-182 -443h98l570 1397h-97l-344 -840l-370 840h-97zM457 1487l133 -283h-86l-197 283h150zM342 1470l170 -247h49l-115 247h-104z" />
    <glyph glyph-name="endash" unicode="&#x2013;" horiz-adv-x="1095" 
d="M936 674v-127h-774v127h774zM180 655v-90h738v90h-738z" />
    <glyph glyph-name="emdash" unicode="&#x2014;" horiz-adv-x="1202" 
d="M1042 674v-127h-882v127h882zM178 655v-90h846v90h-846z" />
    <glyph glyph-name="quoteleft" unicode="&#x2018;" horiz-adv-x="485" 
d="M389 1405l-184 -406l-117 70l234 375zM328 1419l-215 -344l84 -49l170 371z" />
    <glyph glyph-name="quoteright" unicode="&#x2019;" horiz-adv-x="485" 
d="M391 1376l-233 -375l-68 39l182 404zM281 1419l-168 -372l39 -21l215 344z" />
    <glyph glyph-name="quotesinglbase" unicode="&#x201a;" horiz-adv-x="444" 
d="M356 143l-233 -374l-68 38l185 404zM248 186l-170 -372l39 -21l215 344z" />
    <glyph glyph-name="quotedblleft" unicode="&#x201c;" horiz-adv-x="823" 
d="M725 1405l-184 -406l-117 70l233 375zM664 1419l-215 -344l83 -49l170 371zM391 1405l-182 -406l-119 70l234 375zM330 1419l-215 -344l86 -49l168 371z" />
    <glyph glyph-name="quotedblright" unicode="&#x201d;" horiz-adv-x="823" 
d="M393 1376l-233 -375l-68 39l184 404zM285 1419l-170 -372l39 -21l215 344zM727 1376l-233 -375l-68 39l182 404zM616 1419l-167 -372l38 -21l215 344z" />
    <glyph glyph-name="quotedblbase" unicode="&#x201e;" horiz-adv-x="782" 
d="M358 143l-233 -374l-68 38l185 404zM250 186l-170 -372l39 -21l215 344zM692 143l-233 -374l-68 38l182 404zM582 186l-168 -372l39 -21l213 344z" />
    <glyph glyph-name="dagger" unicode="&#x2020;" horiz-adv-x="1099" 
d="M614 930v-930h-127v930h-327v125h327v379h127v-379h326v-125h-326zM506 946v-930h90v930h328v90h-328v379h-90v-379h-328v-90h328z" />
    <glyph glyph-name="daggerdbl" unicode="&#x2021;" horiz-adv-x="1099" 
d="M614 377v-377h-127v377h-327v125h327v428h-327v125h327v379h127v-379h328v-125h-328v-428h328v-125h-328zM506 395v-379h90v379h328v90h-328v461h328v90h-328v379h-90v-379h-328v-90h328v-461h-328v-90h328z" />
    <glyph glyph-name="bullet" unicode="&#x2022;" horiz-adv-x="585" 
d="M293 489q-64 0 -110 46.5t-46 111.5t45.5 110.5t110.5 45.5t110.5 -45.5t45.5 -110.5t-46 -111.5t-110 -46.5zM293 784q-57 0 -98 -40t-41 -97t41 -98t98 -41t98 41t41 98t-41 97t-98 40z" />
    <glyph glyph-name="ellipsis" unicode="&#x2026;" horiz-adv-x="1130" 
d="M190 -27q-38 0 -66 28.5t-28 66.5t28 66t66 28t66.5 -28t28.5 -66t-28.5 -66.5t-66.5 -28.5zM190 143q-31 0 -53 -22t-22 -53t22 -53.5t53 -22.5t53.5 22.5t22.5 53.5t-22.5 53t-53.5 22zM567 -27q-38 0 -66 28.5t-28 66.5t28 66t66 28t66.5 -28t28.5 -66t-28.5 -66.5
t-66.5 -28.5zM567 143q-31 0 -53 -22t-22 -53t22 -53.5t53 -22.5t53.5 22.5t22.5 53.5t-22.5 53t-53.5 22zM944 -27q-38 0 -66 28.5t-28 66.5t28 66t66 28t66 -28t28 -66t-28 -66.5t-66 -28.5zM944 143q-31 0 -53.5 -22t-22.5 -53t22.5 -53.5t53.5 -22.5t53.5 22.5
t22.5 53.5t-22.5 53t-53.5 22z" />
    <glyph glyph-name="perthousand" unicode="&#x2030;" horiz-adv-x="2592" 
d="M1434 1434l-947 -1434h-131l949 1434h129zM1313 1415l-922 -1399h86l922 1399h-86zM444 756q-133 0 -227 93.5t-94 225.5q0 134 94 228t227 94q132 0 226 -94.5t94 -227.5q0 -132 -94 -225.5t-226 -93.5zM444 1378q-126 0 -214.5 -88.5t-88.5 -214.5q0 -125 88.5 -214
t214.5 -89q125 0 214.5 89.5t89.5 213.5q0 126 -89.5 214.5t-214.5 88.5zM444 846q-95 0 -163 67t-68 162t68 163.5t163 68.5t162.5 -68.5t67.5 -163.5t-67.5 -162t-162.5 -67zM444 1288q-89 0 -151 -62t-62 -151q0 -88 62 -150.5t151 -62.5q88 0 150.5 62.5t62.5 150.5
q0 89 -62.5 151t-150.5 62zM1348 35q-133 0 -227.5 94.5t-94.5 226.5t94.5 227t227.5 95q132 0 225.5 -95t93.5 -227t-93.5 -226.5t-225.5 -94.5zM1348 659q-126 0 -215 -88.5t-89 -214.5q0 -125 89 -214t215 -89q124 0 212.5 89t88.5 214q0 126 -88 214.5t-213 88.5z
M1348 125q-96 0 -164 67.5t-68 163.5t68 164t164 68q95 0 162 -68t67 -164q0 -95 -67 -163t-162 -68zM1348 569q-89 0 -151 -62.5t-62 -150.5t62 -150.5t151 -62.5q88 0 149.5 62.5t61.5 150.5t-61.5 150.5t-149.5 62.5zM2144 35q-132 0 -226.5 94.5t-94.5 226.5t94.5 227
t226.5 95t227 -95t95 -227t-95 -226.5t-227 -94.5zM2144 659q-125 0 -214 -88.5t-89 -214.5q0 -124 89.5 -213.5t213.5 -89.5q126 0 214.5 89t88.5 214q0 126 -88.5 214.5t-214.5 88.5zM2144 125q-95 0 -163 68t-68 163t68 163.5t163 68.5t163.5 -68.5t68.5 -163.5
t-68.5 -163t-163.5 -68zM2144 569q-88 0 -150.5 -62.5t-62.5 -150.5t62.5 -150.5t150.5 -62.5t150.5 62.5t62.5 150.5t-62.5 150.5t-150.5 62.5z" />
    <glyph glyph-name="guilsinglleft" unicode="&#x2039;" horiz-adv-x="624" 
d="M266 516l248 -366h-152l-249 366l249 367h152zM135 516l238 -348h108l-237 348l237 348h-108z" />
    <glyph glyph-name="guilsinglright" unicode="&#x203a;" horiz-adv-x="624" 
d="M512 516l-250 -366h-151l247 366l-247 367h151zM381 516l-238 -348h109l237 348l-237 348h-109z" />
    <glyph glyph-name="fraction" unicode="&#x2044;" horiz-adv-x="911" 
d="M817 1628l-590 -1825h-133l590 1825h133zM696 1610l-577 -1788h94l580 1788h-97z" />
    <glyph glyph-name="Euro" unicode="&#x20ac;" horiz-adv-x="1576" 
d="M930 -27q-251 0 -447 156t-256 403h-168v109h150q-4 50 -4 76q0 22 4 76h-150v106h168q60 247 256 403t447 156q167 0 315.5 -72t251.5 -206l-104 -70q-89 107 -209 164t-254 57q-200 0 -357.5 -118.5t-214.5 -313.5h658v-106h-680q-4 -54 -4 -76q0 -26 4 -76h680v-109
h-658q57 -195 214.5 -313.5t357.5 -118.5q134 0 254 57.5t209 164.5l104 -70q-104 -134 -252 -206.5t-315 -72.5zM78 623v-72h164l2 -8q57 -243 248.5 -397t437.5 -154q158 0 299 67t241 189l-75 51q-86 -104 -207.5 -160.5t-257.5 -56.5q-209 0 -372 126.5t-220 330.5
l-4 12h665v72h-680q-6 55 -6 94q0 35 6 94h680v72h-665l4 10q57 206 220 331.5t372 125.5q135 0 257 -56t208 -159l75 49q-100 123 -240.5 189.5t-299.5 66.5q-246 0 -437.5 -153.5t-248.5 -397.5l-2 -6h-164v-72h151q-6 -59 -6 -94t6 -94h-151z" />
    <glyph glyph-name="ruble" unicode="&#x20bd;" horiz-adv-x="1353" 
d="M473 260v-260h-127v260h-246v109h246v170h-246v125h246v770h432q229 0 362.5 -121t133.5 -328t-133.5 -326.5t-362.5 -119.5h-305v-170h494v-109h-494zM365 279v-263h90v263h493v71h-493v207h323q221 0 349 115t128 313q0 199 -128 314.5t-349 115.5h-413v-768h-248v-90
h248v-207h-248v-71h248zM778 647h-323v678h323q182 0 284.5 -90t102.5 -250q0 -161 -101 -249.5t-286 -88.5zM473 1307v-643h305q175 0 272 84t97 237t-97 237.5t-272 84.5h-305z" />
    <glyph glyph-name="bitcoin" unicode="&#x20bf;" horiz-adv-x="1202" 
d="M799 14v-237h-109v223h-39h-141v-223h-109v223h-241v1434h241v223h109v-223h111q19 0 69 -4v227h109v-252q118 -40 185 -132.5t67 -215.5q0 -100 -52.5 -178t-148.5 -121q132 -40 202 -132t70 -225q0 -151 -84 -251.5t-239 -135.5zM709 20v-227h71v236l8 2
q151 32 234.5 129t83.5 241q0 131 -72 220t-205 124l-6 3v20l4 2q100 38 153.5 112.5t53.5 174.5q0 119 -65.5 207.5t-182.5 126.5l-6 2v245h-71v-231l-11 2q-41 6 -77 6h-129v223h-72v-223h-242v-1399h242v-223h72v223h159q38 0 58 4zM651 106h-383v594h383
q170 0 267.5 -80t97.5 -219q0 -140 -96 -217.5t-269 -77.5zM287 682v-557h364q165 0 255.5 72t90.5 204q0 133 -91 207t-255 74h-364zM621 786h-353v539h353q149 0 236 -72t87 -196q0 -123 -88 -197t-235 -74zM287 1307v-502h334q141 0 223 67.5t82 184.5q0 116 -82 183
t-223 67h-334z" />
    <glyph glyph-name="afii61352" unicode="&#x2116;" horiz-adv-x="2215" 
d="M1260 1434v-1434h-121l-848 1210v-1210h-125v1434h121l848 -1213v1213h125zM274 1268l873 -1252h94v1399h-90v-1251l-872 1251h-95v-1399h90v1252zM1794 776q-130 0 -222.5 92.5t-92.5 223.5q0 130 92.5 222.5t222.5 92.5t222.5 -92.5t92.5 -222.5q0 -131 -92.5 -223.5
t-222.5 -92.5zM1794 1389q-123 0 -210 -87t-87 -210t87 -210t210 -87t210 87t87 210t-87 210t-210 87zM1794 885q-86 0 -146.5 60.5t-60.5 146.5t60.5 146t146.5 60t146.5 -60t60.5 -146t-60.5 -146.5t-146.5 -60.5zM1794 1280q-78 0 -133 -55t-55 -133t55 -133.5t133 -55.5
t133 55.5t55 133.5t-55 133t-133 55zM2093 602v-125h-598v125h598zM1511 584v-90h564v90h-564z" />
    <glyph glyph-name="minus" unicode="&#x2212;" horiz-adv-x="983" 
d="M825 674v-127h-667v127h667zM176 655v-90h631v90h-631z" />
    <glyph glyph-name="approxequal" unicode="&#x2248;" horiz-adv-x="1169" 
d="M260 641l-121 35q58 219 262 219q34 0 74 -10.5t62 -19t69 -29.5q114 -54 174 -54q52 0 83 29t46 96l123 -33q-57 -219 -252 -219q-39 0 -83 11.5t-70.5 22.5t-71.5 32q-108 49 -154 49q-59 -2 -90 -29.5t-51 -99.5zM162 688l86 -24q20 66 55.5 94t97.5 28q48 0 160 -49
q134 -63 219 -63q176 0 230 188l-86 23q-19 -63 -53.5 -92t-90.5 -29q-63 0 -182 55q-122 58 -197 58q-183 0 -239 -189zM260 315l-121 33q57 219 262 219q79 0 205 -59q44 -19 62.5 -27t51.5 -17t60 -9q52 0 83 29.5t46 95.5l123 -33q-56 -217 -252 -217q-91 0 -225 63
q-108 49 -154 49q-59 0 -90 -27.5t-51 -99.5zM162 360l86 -24q20 66 56 95.5t97 29.5q52 0 160 -51q2 -1 19.5 -8.5t21.5 -9.5t20 -8.5t22 -8.5t21 -7.5t23 -7.5t21.5 -5.5t23.5 -5t22.5 -2.5t24.5 -1q175 0 230 189l-86 22q-37 -121 -144 -121q-29 0 -62.5 9t-55.5 18.5
t-64 28.5q-124 59 -197 59q-183 -3 -239 -191z" />
    <glyph glyph-name="notequal" unicode="&#x2260;" horiz-adv-x="1095" 
d="M510 385l-104 -242h-119l104 242h-229v127h284l84 199h-368v125h424l104 241h119l-104 -241h231v-125h-285l-86 -199h371v-127h-426zM418 403l-105 -241h80l107 241h418v91h-379l100 233h279v90h-240l104 244h-80l-104 -244h-420v-90h381l-102 -233h-279v-91h240z" />
    <glyph glyph-name="lessequal" unicode="&#x2264;" horiz-adv-x="1093" 
d="M934 125v-125h-774v125h774zM176 106v-90h739v90h-739zM934 479v-135l-774 311v129l774 312v-135l-598 -240zM176 772v-104l739 -297v96l-628 254l628 252v96z" />
    <glyph glyph-name="greaterequal" unicode="&#x2265;" horiz-adv-x="1093" 
d="M934 125v-125h-774v125h774zM178 106v-90h740v90h-740zM934 655l-774 -311v135l598 242l-598 240v135l774 -312v-129zM807 721l-629 -254v-96l740 297v104l-740 297v-96z" />
    <glyph glyph-name="commaaccent" unicode="&#xf6c3;" horiz-adv-x="559" 
d="M410 -213l-164 -303h-92l110 303h146zM276 -231l-98 -267h55l146 267h-103z" />
    </font>
</defs>
</svg>
