<?xml version="1.0" standalone="no"?>
<!DOCTYPE svg PUBLIC "-//W3C//DTD SVG 20010904//EN"
 "http://www.w3.org/TR/2001/REC-SVG-20010904/DTD/svg10.dtd">
<svg version="1.0" xmlns="http://www.w3.org/2000/svg"
 width="500.000000pt" height="500.000000pt" viewBox="0 0 500.000000 500.000000"
 preserveAspectRatio="xMidYMid meet">
<metadata>
Created by potrace 1.14, written by Peter Selinger 2001-2017
</metadata>
<g transform="translate(0.000000,500.000000) scale(0.100000,-0.100000)"
fill="#000000" stroke="none">
<path d="M550 4583 l0 -38 63 0 c34 0 87 -3 117 -8 30 -5 64 -10 75 -11 34 -4
109 -42 130 -66 20 -22 20 -37 21 -1304 1 -1245 0 -1282 -18 -1306 -51 -66
-167 -102 -335 -104 l-53 0 0 -36 0 -35 630 1 c347 0 633 4 636 7 3 3 7 19 8
36 l2 31 -85 1 c-47 0 -93 2 -101 4 -8 2 -26 6 -39 9 -49 11 -90 27 -101 41
-7 8 -17 12 -23 8 -6 -3 -7 -1 -3 5 4 7 3 12 -3 12 -6 0 -18 14 -27 31 -14 28
-16 99 -15 636 0 333 2 607 4 609 2 2 19 -11 39 -29 160 -146 202 -184 221
-194 12 -7 18 -12 12 -13 -5 0 8 -15 30 -34 22 -19 44 -32 49 -29 5 3 6 2 3
-3 -3 -6 20 -32 50 -59 31 -28 73 -66 93 -85 56 -52 79 -70 91 -70 5 0 8 -4 5
-8 -3 -5 12 -22 32 -39 43 -36 67 -57 192 -173 51 -47 98 -83 104 -82 6 2 8 1
4 -3 -9 -9 92 -101 106 -97 6 2 8 0 4 -4 -4 -4 2 -16 15 -26 12 -11 59 -54
106 -96 138 -127 251 -204 480 -325 l113 -60 482 1 c264 0 490 1 502 1 17 1
20 7 19 31 -1 17 -4 32 -6 34 -4 4 -213 59 -272 71 -54 12 -327 89 -422 120
-102 33 -193 82 -262 143 -11 9 -35 28 -53 42 -19 14 -42 34 -52 44 -10 11
-18 17 -18 14 0 -3 -30 23 -67 57 -37 35 -71 61 -75 59 -5 -3 -8 2 -8 10 0 9
-4 16 -8 16 -4 0 -41 31 -82 69 -41 38 -78 67 -82 64 -5 -2 -8 3 -8 11 0 9 -3
16 -7 16 -5 0 -51 41 -102 90 -52 49 -99 86 -105 83 -5 -3 -6 -1 -3 4 7 12
-26 46 -36 38 -4 -3 -5 -2 -3 1 6 8 -115 120 -126 116 -5 -1 -7 1 -4 6 6 10
-193 198 -205 194 -5 -1 -8 2 -7 7 2 5 -44 54 -101 110 -58 55 -102 103 -99
107 13 12 237 16 304 4 96 -16 196 -61 218 -97 4 -7 9 -34 12 -60 12 -112 66
-241 139 -331 51 -64 89 -101 98 -95 6 3 7 1 4 -4 -8 -12 17 -36 26 -26 4 3 7
1 7 -5 0 -15 111 -102 122 -96 4 3 8 0 8 -5 0 -6 7 -11 15 -11 8 0 15 -4 15
-9 0 -8 54 -41 67 -41 1 0 3 153 3 340 l0 340 33 1 c262 6 998 -1 1020 -10 16
-6 33 -8 39 -5 6 4 8 2 5 -3 -4 -6 3 -13 16 -17 25 -6 160 -136 142 -136 -3 0
2 -15 12 -32 9 -18 18 -35 18 -38 0 -3 8 -27 17 -55 15 -44 28 -113 33 -169 2
-19 19 -22 95 -17 13 1 15 43 15 316 0 204 -3 315 -10 316 -5 1 -642 2 -1415
3 l-1405 1 -34 -30 c-28 -24 -44 -30 -87 -32 l-54 -1 -1 96 c0 53 0 324 0 600
0 556 -3 534 64 569 17 9 37 18 42 19 90 24 133 31 186 33 124 5 124 5 130 26
13 46 35 45 -662 45 l-659 0 0 -37z"/>
<path d="M2387 4613 c-4 -3 -7 -17 -7 -30 0 -22 2 -23 98 -24 187 -1 242 -18
252 -75 10 -49 -51 -135 -150 -214 -24 -19 -51 -42 -60 -50 -8 -8 -54 -46
-100 -85 -47 -38 -90 -74 -96 -80 -6 -5 -35 -30 -64 -55 -29 -25 -63 -54 -76
-65 -12 -11 -50 -45 -85 -75 -35 -30 -88 -77 -118 -105 -31 -27 -61 -54 -67
-60 -96 -84 -162 -150 -157 -158 3 -6 1 -7 -4 -4 -13 8 -46 -27 -36 -37 5 -4
3 -6 -3 -4 -7 2 -24 -10 -38 -27 -31 -35 -53 -71 -38 -61 6 3 12 1 14 -5 6
-17 118 -26 186 -14 59 11 81 23 129 73 12 12 24 22 27 22 5 0 80 66 128 112
15 14 28 24 28 21 0 -2 19 15 43 38 23 24 43 42 45 41 2 -2 28 21 99 86 13 12
28 22 34 22 5 0 9 8 9 17 0 9 3 14 6 10 4 -3 12 -1 19 6 6 7 43 39 80 72 38
33 79 69 91 80 25 22 40 35 134 114 36 29 70 59 75 65 6 6 42 38 80 71 83 70
110 94 150 130 17 15 40 34 52 42 13 8 20 20 16 26 -3 5 -2 8 3 4 5 -3 34 17
64 45 75 69 106 80 235 87 104 6 110 7 113 29 l3 22 -554 0 c-304 0 -557 -3
-560 -7z"/>
<path d="M2565 1252 l0 -677 -24 -45 c-13 -25 -23 -47 -22 -50 0 -3 -2 -5 -6
-5 -5 -1 -22 -9 -40 -18 -18 -9 -36 -17 -40 -16 -4 1 -78 1 -163 0 l-155 -1 0
-35 0 -34 669 2 670 2 1 36 2 37 -116 -1 c-110 -1 -158 7 -221 36 -39 18 -88
76 -97 116 -4 20 -8 255 -8 524 1 268 -2 487 -6 487 -4 0 -21 12 -38 26 -17
14 -31 22 -31 17 0 -4 -4 -3 -8 3 -7 10 -73 61 -122 94 -12 8 -30 22 -40 30
-10 8 -28 22 -40 30 -12 8 -52 39 -89 67 -36 29 -68 53 -71 53 -3 0 -5 -305
-5 -678z"/>
</g>
</svg>
